<?xml version="1.0" encoding="utf-8"?>
<svg viewBox="0 0 24 24" fill="none" stroke="currentColor" stroke-width="2" stroke-linecap="round" stroke-linejoin="round" xmlns="http://www.w3.org/2000/svg">
  <path d="M11 20H4a2 2 0 0 1-2-2V5a2 2 0 0 1 2-2h3.9a2 2 0 0 1 1.69.9l.81 1.2a2 2 0 0 0 1.67.9H20a2 2 0 0 1 2 2v1.5" style="stroke: rgb(5, 104, 110);" transform="matrix(1, 0, 0, 1, 2.220446049250313e-16, 2.220446049250313e-16)"/>
  <path d="M13.9 17.45c-1.2-1.2-1.14-2.8-.2-3.73a2.43 2.43 0 0 1 3.44 0l.36.34.34-.34a2.43 2.43 0 0 1 3.45-.01v0c.95.95 1 2.53-.2 3.74L17.5 21Z" style="stroke: rgb(255, 0, 0); paint-order: stroke; fill: rgb(252, 0, 0);" transform="matrix(1, 0, 0, 1, 2.220446049250313e-16, 2.220446049250313e-16)"/>
</svg>