<svg width="648" height="648" viewBox="0 0 648 648" fill="none" xmlns="http://www.w3.org/2000/svg">
<path fill-rule="evenodd" clip-rule="evenodd" d="M322.994 362.437V286.603H324.155V362.437H322.994Z" fill="#333333"/>
<path fill-rule="evenodd" clip-rule="evenodd" d="M286.135 324.5C286.135 345.126 302.639 361.848 323 361.848C343.361 361.848 359.865 345.126 359.865 324.5C359.865 303.874 343.361 287.152 323 287.152C302.639 287.152 286.135 303.874 286.135 324.5ZM323 363C302.014 363 285 345.764 285 324.5C285 303.236 302.014 286 323 286C343.986 286 361 303.236 361 324.5C361 345.764 343.986 363 323 363Z" fill="#333333"/>
<path fill-rule="evenodd" clip-rule="evenodd" d="M361 324.5H285V323.333H361V324.5Z" fill="#333333"/>
<path fill-rule="evenodd" clip-rule="evenodd" d="M294.463 299.173C300.924 305.173 311.344 309.018 323.036 309.018C334.728 309.018 345.151 305.173 351.615 299.318L352.371 300.174C345.66 306.254 334.949 310.167 323.036 310.167C311.124 310.167 300.409 306.254 293.696 300.02L294.463 299.173Z" fill="#333333"/>
<path fill-rule="evenodd" clip-rule="evenodd" d="M322.898 338.725C311.286 338.725 300.953 342.478 294.46 348.421L293.699 347.568C300.443 341.396 311.069 337.576 322.898 337.576C334.872 337.576 345.492 341.551 352.369 347.716L351.617 348.576C344.98 342.626 334.641 338.725 322.898 338.725Z" fill="#333333"/>
<path fill-rule="evenodd" clip-rule="evenodd" d="M309.229 297.96C305.632 304.723 303.39 314.105 303.39 324.5C303.39 334.895 305.632 344.277 309.229 351.04C312.836 357.824 317.73 361.848 323 361.848C328.27 361.848 333.163 357.824 336.771 351.04C340.368 344.277 342.61 334.895 342.61 324.5C342.61 314.105 340.368 304.723 336.771 297.96C333.163 291.176 328.27 287.152 323 287.152C317.73 287.152 312.836 291.176 309.229 297.96ZM308.249 297.407C311.94 290.465 317.132 286 323 286C328.868 286 334.06 290.465 337.751 297.407C341.454 304.37 343.727 313.95 343.727 324.5C343.727 335.05 341.454 344.63 337.751 351.593C334.06 358.535 328.868 363 323 363C317.132 363 311.94 358.535 308.249 351.593C304.546 344.63 302.273 335.05 302.273 324.5C302.273 313.95 304.546 304.37 308.249 297.407Z" fill="#333333"/>
<g style="mix-blend-mode:multiply">
<path fill-rule="evenodd" clip-rule="evenodd" d="M323.782 271.003C294.633 271.003 271.003 294.633 271.003 323.782C271.003 352.931 294.633 376.561 323.782 376.561C352.931 376.561 376.561 352.931 376.561 323.782C376.561 294.633 352.931 271.003 323.782 271.003ZM270.003 323.782C270.003 294.081 294.081 270.003 323.782 270.003C353.484 270.003 377.561 294.081 377.561 323.782C377.561 353.484 353.484 377.561 323.782 377.561C294.081 377.561 270.003 353.484 270.003 323.782Z" fill="#EFEFEF"/>
<path fill-rule="evenodd" clip-rule="evenodd" d="M323.566 84C191.257 84 84 191.257 84 323.566C84 455.874 191.257 563.131 323.566 563.131C455.874 563.131 563.131 455.874 563.131 323.566C563.131 191.257 455.874 84 323.566 84ZM83 323.566C83 190.705 190.705 83 323.566 83C456.426 83 564.131 190.705 564.131 323.566C564.131 456.426 456.426 564.131 323.566 564.131C190.705 564.131 83 456.426 83 323.566Z" fill="#EFEFEF"/>
<path fill-rule="evenodd" clip-rule="evenodd" d="M323.783 202.938C257.042 202.938 202.938 257.042 202.938 323.782C202.938 390.522 257.042 444.626 323.783 444.626C390.523 444.626 444.627 390.522 444.627 323.782C444.627 257.042 390.523 202.938 323.783 202.938ZM201.938 323.782C201.938 256.489 256.49 201.938 323.783 201.938C391.075 201.938 445.627 256.489 445.627 323.782C445.627 391.075 391.075 445.626 323.783 445.626C256.49 445.626 201.938 391.075 201.938 323.782Z" fill="#EFEFEF"/>
<path fill-rule="evenodd" clip-rule="evenodd" d="M323.782 128.207C215.769 128.207 128.207 215.769 128.207 323.782C128.207 431.795 215.769 519.357 323.782 519.357C431.795 519.357 519.357 431.795 519.357 323.782C519.357 215.769 431.795 128.207 323.782 128.207ZM127.207 323.782C127.207 215.217 215.217 127.207 323.782 127.207C432.348 127.207 520.357 215.217 520.357 323.782C520.357 432.348 432.348 520.357 323.782 520.357C215.217 520.357 127.207 432.348 127.207 323.782Z" fill="#CCCCCC"/>
<path fill-rule="evenodd" clip-rule="evenodd" d="M324 1.5C145.888 1.5 1.5 145.888 1.5 324C1.5 502.112 145.888 646.5 324 646.5C502.112 646.5 646.5 502.112 646.5 324C646.5 145.888 502.112 1.5 324 1.5ZM0.5 324C0.5 145.336 145.336 0.5 324 0.5C502.664 0.5 647.5 145.336 647.5 324C647.5 502.664 502.664 647.5 324 647.5C145.336 647.5 0.5 502.664 0.5 324Z" fill="#EFEFEF"/>
</g>
<path d="M94.9965 396.028C94.9965 393.251 97.2476 391 100.024 391H183.968C186.745 391 188.996 393.251 188.996 396.028V444.972C188.996 447.749 186.745 450 183.968 450H100.024C97.2476 450 94.9965 447.749 94.9965 444.972V396.028Z" fill="white"/>
<path fill-rule="evenodd" clip-rule="evenodd" d="M149.996 418.5C139.496 425.5 143.496 425 132.496 418.5L96.9999 448.479C97.4067 449.396 99.4975 450.03 100.748 449.997H181.093C184.351 450.03 185.749 449.796 187 448.53L149.996 418.5Z" fill="#EFEFEF"/>
<path fill-rule="evenodd" clip-rule="evenodd" d="M170.996 381V404L187.996 392.811L170.996 381Z" fill="#BDECFF"/>
<path fill-rule="evenodd" clip-rule="evenodd" d="M138.058 362.363C137.17 362.872 137.532 364.226 138.556 364.226L145.514 364.226C146.538 364.226 146.9 362.873 146.012 362.363L142.536 360.368C142.228 360.191 141.849 360.191 141.54 360.367L138.058 362.363Z" fill="#BDECFF"/>
<path fill-rule="evenodd" clip-rule="evenodd" d="M112.996 381V405L95.9965 393.308L112.996 381Z" fill="#BDECFF"/>
<path fill-rule="evenodd" clip-rule="evenodd" d="M188.001 445.018V395.473C188.001 394.198 187.39 393 186.357 392.25L144.349 361.759C142.949 360.742 141.051 360.742 139.651 361.759L97.643 392.25C96.6097 393 95.9984 394.198 95.9984 395.473V445.018C95.9984 447.219 97.7865 449.004 99.9923 449.004H184.007C186.213 449.004 188.001 447.219 188.001 445.018ZM97.0556 391.444C95.764 392.381 94.9999 393.879 94.9999 395.473V445.018C94.9999 447.77 97.2351 450 99.9923 450H184.007C186.765 450 189 447.77 189 445.018V395.473C189 393.879 188.236 392.381 186.944 391.444L144.937 360.953C143.186 359.682 140.814 359.682 139.063 360.953L97.0556 391.444Z" fill="#333333"/>
<path fill-rule="evenodd" clip-rule="evenodd" d="M143.996 423L171.553 403.884C171.832 403.696 172 403.378 172 403.037V365.016C172 364.454 171.552 363.999 171 363.999H123.713C123.448 363.999 123.193 364.106 123.006 364.297L112.293 375.176C112.106 375.366 112 375.624 112 375.893V404.232C111.999 404.564 112.158 404.875 112.425 405.066L138.496 422.5C140.199 423.662 141.672 424.433 143.996 423Z" fill="white"/>
<path fill-rule="evenodd" clip-rule="evenodd" d="M143.996 422.724C142.693 423.514 142.169 423.62 140.996 423.5C139.849 423.383 138.902 423.108 137.996 422.5L112.496 405C111.962 404.625 111 403.953 111 403.953L111 375.665C111.001 375.136 111.271 374.61 111.645 374.236L122.298 363.582C122.674 363.207 123.182 362.996 123.713 362.996H171C172.104 362.996 173 363.892 173 364.996V403H172.996L143.996 422.724ZM137.996 422.5L112 404.063V375.667C112 375.403 112.165 375.13 112.352 374.943L123.006 364.289C123.193 364.101 123.448 363.996 123.713 363.996H171C171.552 363.996 172 364.444 172 364.996L171.996 403.5L143.996 422.724C141.629 424.159 139.996 423.5 137.996 422.5Z" fill="#333333"/>
<path d="M154.272 390.079C154.272 391.529 154.049 392.858 153.604 394.064C153.158 395.261 152.529 396.194 151.717 396.863C150.915 397.532 149.984 397.867 148.924 397.867C148.142 397.867 147.463 397.654 146.889 397.228C146.314 396.802 145.928 396.224 145.73 395.494H145.552C145.066 396.285 144.467 396.878 143.754 397.274C143.041 397.669 142.239 397.867 141.347 397.867C139.733 397.867 138.46 397.334 137.529 396.27C136.608 395.205 136.148 393.765 136.148 391.95C136.148 389.861 136.762 388.168 137.99 386.87C139.218 385.562 140.867 384.908 142.937 384.908C143.69 384.908 144.522 384.979 145.433 385.121C146.354 385.253 147.171 385.44 147.884 385.684L147.557 392.756V393.121C147.557 394.744 148.072 395.555 149.102 395.555C149.885 395.555 150.504 395.038 150.959 394.003C151.425 392.969 151.658 391.651 151.658 390.049C151.658 388.315 151.311 386.794 150.618 385.486C149.924 384.168 148.939 383.154 147.661 382.444C146.384 381.734 144.918 381.379 143.264 381.379C141.154 381.379 139.317 381.825 137.752 382.718C136.197 383.61 135.009 384.888 134.187 386.551C133.365 388.203 132.954 390.125 132.954 392.315C132.954 395.256 133.721 397.517 135.256 399.099C136.792 400.681 138.995 401.472 141.867 401.472C144.056 401.472 146.339 401.015 148.716 400.103V402.597C146.636 403.469 144.373 403.905 141.927 403.905C138.262 403.905 135.405 402.896 133.355 400.878C131.305 398.85 130.28 396.026 130.28 392.406C130.28 389.76 130.834 387.407 131.944 385.349C133.053 383.281 134.588 381.699 136.549 380.604C138.52 379.508 140.748 378.961 143.234 378.961C145.383 378.961 147.295 379.417 148.969 380.33C150.652 381.242 151.955 382.545 152.876 384.239C153.807 385.922 154.272 387.869 154.272 390.079ZM139 392.011C139 394.374 139.906 395.555 141.719 395.555C143.63 395.555 144.675 394.069 144.854 391.098L145.032 387.463C144.408 387.291 143.739 387.205 143.026 387.205C141.758 387.205 140.768 387.636 140.055 388.498C139.352 389.359 139 390.531 139 392.011Z" fill="url(#paint0_linear)"/>
<path d="M123.028 364.129V375.104H112.006L123.028 364.129Z" fill="url(#paint1_linear)"/>
<path fill-rule="evenodd" clip-rule="evenodd" d="M123.465 363.034C123.858 363.193 124 363.479 124 363.895V374.973C124 375.54 123.529 376 122.949 376L111.333 375.979C111.333 375.979 111 375.723 111 375.334C111.109 374.698 111.476 374.307 111.776 374.013L122.206 363.607C122.507 363.314 123.072 362.875 123.465 363.034ZM122.949 364.333L112.377 374.973H122.949V364.333Z" fill="#333333"/>
<path fill-rule="evenodd" clip-rule="evenodd" d="M131.904 418.586L95.9963 394L96.5717 393.177L132.996 418.133L138.84 422.168C140.366 423.223 142.409 423.223 143.934 422.168L149.996 418.133L187.45 392.656L187.996 393.5L151.098 418.609L187.249 448.234L186.601 449L150.235 419.189L144.496 423C142.632 424.29 140.143 424.29 138.278 423L132.747 419.182L97.5409 448.825L96.8901 448.062L131.904 418.586Z" fill="#333333"/>
<path d="M293 492.946C293 490.214 295.201 488 297.917 488H346.083C348.799 488 351 490.214 351 492.946V565C351 567.732 348.96 570 346.244 570H297.917C295.201 570 293 567.786 293 565.054V492.946Z" fill="#EFEFEF"/>
<path fill-rule="evenodd" clip-rule="evenodd" d="M301 488H297.917C295.201 488 293 490.214 293 492.946V565.054C293 567.786 295.201 570 297.917 570H346.244C348.96 570 351 567.732 351 565V492.946C351 490.214 348.799 488 346.083 488H342.99V489H346.083C348.241 489 350 490.761 350 492.946V565C350 567.244 348.345 569 346.244 569H297.917C295.759 569 294 567.239 294 565.054V492.946C294 490.761 295.759 489 297.917 489H301V488Z" fill="#333333"/>
<path fill-rule="evenodd" clip-rule="evenodd" d="M326.629 484C326.629 481.791 324.787 480 322.514 480C320.242 480 318.4 481.791 318.4 484H306.057C304.921 484 304 484.895 304 486V490C304 491.105 304.921 492 306.057 492H337.943C339.079 492 340 491.105 340 490V486C340 484.895 339.079 484 337.943 484H326.629Z" fill="url(#paint2_linear)"/>
<path fill-rule="evenodd" clip-rule="evenodd" d="M325.629 485V484C325.629 482.37 324.261 481 322.514 481C320.768 481 319.4 482.37 319.4 484V485H306.057C305.447 485 305 485.474 305 486V490C305 490.526 305.447 491 306.057 491H337.943C338.554 491 339 490.526 339 490V486C339 485.474 338.554 485 337.943 485H325.629ZM337.943 484C339.079 484 340 484.895 340 486V490C340 491.105 339.079 492 337.943 492H306.057C304.921 492 304 491.105 304 490V486C304 484.895 304.921 484 306.057 484H318.4C318.4 481.791 320.242 480 322.514 480C324.787 480 326.629 481.791 326.629 484H337.943Z" fill="#333333"/>
<path d="M300 500.011C300 498.901 300.909 498.001 302.031 498.001H341.969C343.091 498.001 344 498.901 344 500.011V551.503C344 552.037 343.786 552.549 343.404 552.926L334.817 561.409C334.436 561.785 333.92 561.996 333.382 561.996H302.031C300.909 561.996 300 561.096 300 559.986V500.011Z" fill="white"/>
<path fill-rule="evenodd" clip-rule="evenodd" d="M341.969 499.006H302.031C301.47 499.006 301.016 499.456 301.016 500.011V559.986C301.016 560.541 301.47 560.991 302.031 560.991H333.382C333.651 560.991 333.909 560.886 334.1 560.698L342.687 552.214C342.877 552.026 342.985 551.77 342.985 551.503V500.011C342.985 499.456 342.53 499.006 341.969 499.006ZM302.031 498C300.909 498 300 498.901 300 500.011V559.986C300 561.096 300.909 561.996 302.031 561.996H333.382C333.92 561.996 334.436 561.785 334.817 561.409L343.404 552.926C343.786 552.549 344 552.037 344 551.503V500.011C344 498.901 343.091 498 341.969 498H302.031Z" fill="#333333"/>
<path fill-rule="evenodd" clip-rule="evenodd" d="M311.001 505.5C311.001 505.224 311.219 505 311.487 505H332.514C332.783 505 333.001 505.224 333.001 505.5C333.001 505.776 332.783 506 332.514 506H311.487C311.219 506 311.001 505.776 311.001 505.5Z" fill="#333333"/>
<path d="M305 543.064C305 542.483 305.465 542.013 306.039 542.013H313.972C314.547 542.013 315.012 542.483 315.012 543.064V550.949C315.012 551.53 314.547 552 313.972 552H306.039C305.465 552 305 551.53 305 550.949V543.064Z" fill="url(#paint3_linear)"/>
<path d="M305 543.064C305 542.483 305.465 542.013 306.039 542.013H313.972C314.547 542.013 315.012 542.483 315.012 543.064V550.949C315.012 551.53 314.547 552 313.972 552H306.039C305.465 552 305 551.53 305 550.949V543.064Z" fill="#BDECFF"/>
<path fill-rule="evenodd" clip-rule="evenodd" d="M315.291 541.525C315.516 541.685 315.568 541.997 315.407 542.222L310.407 549.222C310.322 549.342 310.188 549.418 310.042 549.43C309.895 549.442 309.751 549.389 309.647 549.285L307.647 547.285C307.452 547.09 307.452 546.773 307.647 546.578C307.842 546.383 308.159 546.383 308.354 546.578L309.937 548.161L314.594 541.641C314.754 541.416 315.066 541.364 315.291 541.525Z" fill="#333333"/>
<path fill-rule="evenodd" clip-rule="evenodd" d="M306.38 541.998C306.095 541.998 306.033 542.282 306.033 542.571L306.012 550.428C306.012 550.718 306.095 551.03 306.38 551.03L314.675 551.002C314.961 551.002 315.006 550.718 315.006 550.429V546.5C315.006 546.211 315.214 546.022 315.499 546.022C315.784 546.022 316 546.211 316 546.5V550.429C316 551.297 315.284 552 314.429 552H306.549C305.693 552 305.023 551.336 305.023 550.468L305 542.571C305 541.703 305.524 541 306.38 541H311.845C312.13 541 312.361 541.234 312.361 541.524C312.361 541.813 312.13 541.998 311.845 541.998H306.38Z" fill="#333333"/>
<path fill-rule="evenodd" clip-rule="evenodd" d="M321.487 544C321.218 544 321 544.224 321 544.5C321 544.776 321.218 545 321.487 545H336.512C336.781 545 337 544.776 337 544.5C337 544.224 336.781 544 336.512 544H321.487ZM321.49 547C321.219 547 321 547.224 321 547.5C321 547.776 321.219 548 321.49 548H329.51C329.78 548 330 547.776 330 547.5C330 547.224 329.78 547 329.51 547H321.49Z" fill="#333333"/>
<path d="M305 528.052C305 527.471 305.465 527 306.038 527H313.961C314.535 527 315 527.471 315 528.052V535.948C315 536.529 314.535 537 313.961 537H306.038C305.465 537 305 536.529 305 535.948V528.052Z" fill="url(#paint4_linear)"/>
<path d="M305 528.052C305 527.471 305.465 527 306.038 527H313.961C314.535 527 315 527.471 315 528.052V535.948C315 536.529 314.535 537 313.961 537H306.038C305.465 537 305 536.529 305 535.948V528.052Z" fill="#BDECFF"/>
<path fill-rule="evenodd" clip-rule="evenodd" d="M315.292 526.521C315.516 526.682 315.568 526.995 315.407 527.219L310.407 534.191C310.321 534.31 310.188 534.386 310.042 534.398C309.896 534.41 309.752 534.357 309.648 534.254L307.648 532.262C307.452 532.067 307.451 531.75 307.646 531.555C307.841 531.359 308.158 531.358 308.353 531.553L309.937 533.13L314.594 526.636C314.755 526.412 315.068 526.36 315.292 526.521Z" fill="#333333"/>
<path fill-rule="evenodd" clip-rule="evenodd" d="M306.38 526.998C306.095 526.998 306.032 527.282 306.032 527.571L306.012 535.428C306.012 535.718 306.095 536.03 306.38 536.03L314.675 536.002C314.96 536.002 315.006 535.718 315.006 535.429V531.5C315.006 531.211 315.214 531.022 315.499 531.022C315.784 531.022 316 531.211 316 531.5V535.429C316 536.297 315.284 537 314.429 537H306.549C305.693 537 305.023 536.336 305.023 535.468L305 527.571C305 526.703 305.524 526 306.38 526H311.845C312.13 526 312.361 526.234 312.361 526.524C312.361 526.813 312.13 526.998 311.845 526.998H306.38Z" fill="#333333"/>
<path fill-rule="evenodd" clip-rule="evenodd" d="M321.487 528C321.218 528 321 528.224 321 528.5C321 528.776 321.218 529 321.487 529H336.512C336.781 529 337 528.776 337 528.5C337 528.224 336.781 528 336.512 528H321.487ZM321.49 531C321.219 531 321 531.224 321 531.5C321 531.776 321.219 532 321.49 532H329.51C329.78 532 330 531.776 330 531.5C330 531.224 329.78 531 329.51 531H321.49Z" fill="#333333"/>
<path d="M305 513.052C305 512.471 305.465 512 306.038 512H313.961C314.535 512 315 512.471 315 513.052V520.948C315 521.529 314.535 522 313.961 522H306.038C305.465 522 305 521.529 305 520.948V513.052Z" fill="url(#paint5_linear)"/>
<path d="M305 513.052C305 512.471 305.465 512 306.038 512H313.961C314.535 512 315 512.471 315 513.052V520.948C315 521.529 314.535 522 313.961 522H306.038C305.465 522 305 521.529 305 520.948V513.052Z" fill="#BDECFF"/>
<path fill-rule="evenodd" clip-rule="evenodd" d="M315.291 511.525C315.516 511.685 315.568 511.998 315.407 512.222L310.407 519.222C310.322 519.342 310.188 519.418 310.042 519.43C309.895 519.442 309.751 519.389 309.647 519.285L307.647 517.285C307.452 517.09 307.452 516.773 307.647 516.578C307.842 516.383 308.159 516.383 308.354 516.578L309.937 518.161L314.594 511.641C314.754 511.416 315.067 511.364 315.291 511.525Z" fill="#333333"/>
<path fill-rule="evenodd" clip-rule="evenodd" d="M306.38 511.998C306.095 511.998 306.032 512.282 306.032 512.571L306.012 520.428C306.012 520.718 306.095 521.03 306.38 521.03L314.675 521.002C314.96 521.002 315.006 520.718 315.006 520.429V516.5C315.006 516.211 315.214 516.022 315.499 516.022C315.784 516.022 316 516.211 316 516.5V520.429C316 521.297 315.284 522 314.429 522H306.549C305.693 522 305.023 521.336 305.023 520.468L305 512.571C305 511.703 305.524 511 306.38 511H311.845C312.13 511 312.361 511.234 312.361 511.524C312.361 511.813 312.13 511.998 311.845 511.998H306.38Z" fill="#333333"/>
<path fill-rule="evenodd" clip-rule="evenodd" d="M321.487 514C321.218 514 321 514.224 321 514.5C321 514.776 321.218 515 321.487 515H336.512C336.781 515 337 514.776 337 514.5C337 514.224 336.781 514 336.512 514H329H321.487ZM321.49 517C321.219 517 321 517.224 321 517.5C321 517.776 321.219 518 321.49 518H329.51C329.78 518 330 517.776 330 517.5C330 517.224 329.78 517 329.51 517H321.49Z" fill="#333333"/>
<path fill-rule="evenodd" clip-rule="evenodd" d="M334.484 551.942C334.212 551.942 333.987 552.282 333.987 552.542V561H333V552.542C333 551.762 333.667 551 334.484 551H343V551.942H334.484Z" fill="#333333"/>
<path fill-rule="evenodd" clip-rule="evenodd" d="M282 114V93H276.886C273.843 93 272 95.1177 272 98.3693V114H282Z" fill="#BDECFF"/>
<path d="M282 68H326.5L336 78.5V113H282V68Z" fill="white"/>
<path d="M325.5 67.5L336 78.5H325.5V67.5Z" fill="url(#paint6_linear)"/>
<path fill-rule="evenodd" clip-rule="evenodd" d="M282 67H325.908L336 78.3067V107.786H335.018V78.6933L325.474 68H282.982V114H300.885V115H282V67Z" fill="#333333"/>
<path fill-rule="evenodd" clip-rule="evenodd" d="M325.32 67.0337C325.512 66.9592 325.731 67.0108 325.87 67.1637L335.87 78.1637C336.003 78.3101 336.037 78.5213 335.957 78.7023C335.877 78.8833 335.698 79 335.5 79H325.5C325.224 79 325 78.7761 325 78.5V67.5C325 67.2935 325.127 67.1081 325.32 67.0337ZM326 68.7933V78H334.37L326 68.7933Z" fill="#333333"/>
<path fill-rule="evenodd" clip-rule="evenodd" d="M273.71 94.3949C274.783 93.4517 276.252 93 277.863 93H283.001V115H272V98.5455C272 96.752 272.628 95.3462 273.71 94.3949ZM274.37 95.146C273.532 95.8826 273 96.9996 273 98.5455V114H282.001V94H277.863C276.43 94 275.217 94.4013 274.37 95.146Z" fill="#333333"/>
<path fill-rule="evenodd" clip-rule="evenodd" d="M336 93V107H346V97.5604C346 94.2337 344.012 93 341.114 93H336Z" fill="#BDECFF"/>
<path fill-rule="evenodd" clip-rule="evenodd" d="M335 93H340.614C342.122 93 343.48 93.3193 344.466 94.1504C345.468 94.9951 346 96.2943 346 98.0604V108H335V93ZM336 94V107H345V98.0604C345 96.4997 344.538 95.5188 343.822 94.915C343.089 94.2975 342.004 94 340.614 94H336Z" fill="#333333"/>
<path fill-rule="evenodd" clip-rule="evenodd" d="M307.5 107.467L302.354 113.191H272.585C270.126 113.191 267.748 114.914 268.021 116.702L273.212 146.698C273.486 148.486 275.261 150 277.72 150H343.562C346.02 150 347.933 148.486 348.069 146.698L351.972 108.696C352.195 107.573 351.08 106 349.073 106H311C309.662 106 308.456 106.504 307.5 107.467Z" fill="url(#paint7_linear)"/>
<path fill-rule="evenodd" clip-rule="evenodd" d="M302.93 114.018H272.708C271.702 114.018 270.584 114.719 269.889 115.256C269.177 115.805 268.952 116.378 269.009 116.79L274.2 147.465L274.201 147.475C274.39 148.736 275.673 150 277.72 150H343.562C345.676 150 346.987 148.694 347.072 147.548L347.073 147.535L350.981 108.612L350.99 108.567C351.072 108.144 350.566 107 349.073 107H311C309.946 107 309.003 107.395 308.234 108.18L302.93 114.018ZM307.5 107.5L302.477 113.018H272.708C270.249 113.018 267.748 115.116 268.022 116.946L273.212 147.623C273.486 149.452 275.261 151 277.72 151H343.562C346.02 151 347.933 149.452 348.069 147.623L351.972 108.758C352.195 107.609 351.08 106 349.073 106H311C309.662 106 308.456 106.515 307.5 107.5Z" fill="#333333"/>
<path d="M308 73.9524H289V92.0476H308V73.9524Z" fill="white"/>
<path fill-rule="evenodd" clip-rule="evenodd" d="M289 92.0477L295.5 85.8573L299 89.1906L304.293 82.5239L308 88.0377V92.0477" fill="#E0E0E0"/>
<path fill-rule="evenodd" clip-rule="evenodd" d="M288 73.9524C288 73.4264 288.448 73 289 73H308C308.552 73 309 73.4264 309 73.9524V92.0476C309 92.5736 308.552 93 308 93H289C288.448 93 288 92.5736 288 92.0476V73.9524ZM308 74.0312V92.0476H289V73.9896L308 74.0312Z" fill="#333333"/>
<path fill-rule="evenodd" clip-rule="evenodd" d="M289.01 91.9951H308V88.0377L304.325 82.5239L299.195 89.7801L295.346 86.2283L289.01 91.9951ZM299.033 88.3044L296.041 85.5443C295.655 85.1873 295.04 85.1864 294.652 85.5423L288.306 91.3617C287.909 91.7265 287.897 92.3294 288.28 92.7083C288.663 93.0872 289.296 93.0986 289.694 92.7337L289.922 92.5239H307.134C307.307 92.8086 307.63 93.0001 308 93.0001C308.552 93.0001 309 92.5737 309 92.0477V88.0377C309 87.8569 308.946 87.6799 308.844 87.5273L305.169 82.0135C304.989 81.7421 304.676 81.576 304.339 81.5716C304.001 81.5673 303.684 81.7254 303.496 81.992L299.033 88.3044Z" fill="#333333"/>
<path fill-rule="evenodd" clip-rule="evenodd" d="M288 98.5068C288 98.245 288.224 98.0327 288.5 98.0327H330.5C330.776 98.0327 331 98.245 331 98.5068C331 98.7687 330.776 98.981 330.5 98.981H288.5C288.224 98.981 288 98.7687 288 98.5068Z" fill="#333333"/>
<path fill-rule="evenodd" clip-rule="evenodd" d="M313.5 77.5C313.5 77.2239 313.724 77 314 77H320C320.276 77 320.5 77.2239 320.5 77.5C320.5 77.7761 320.276 78 320 78H314C313.724 78 313.5 77.7761 313.5 77.5Z" fill="#333333"/>
<path fill-rule="evenodd" clip-rule="evenodd" d="M313.5 82.5C313.5 82.2239 313.724 82 314 82H330C330.276 82 330.5 82.2239 330.5 82.5C330.5 82.7761 330.276 83 330 83H322H314C313.724 83 313.5 82.7761 313.5 82.5Z" fill="#333333"/>
<path fill-rule="evenodd" clip-rule="evenodd" d="M313.5 87.5C313.5 87.2239 313.724 87 314 87H330C330.276 87 330.5 87.2239 330.5 87.5C330.5 87.7761 330.276 88 330 88H314C313.724 88 313.5 87.7761 313.5 87.5Z" fill="#333333"/>
<path fill-rule="evenodd" clip-rule="evenodd" d="M288.218 103.504C288.218 103.228 288.442 103.004 288.718 103.004H300.718C300.994 103.004 301.218 103.228 301.218 103.504C301.218 103.78 300.994 104.004 300.718 104.004H288.718C288.442 104.004 288.218 103.78 288.218 103.504Z" fill="#333333"/>
<path d="M296 78.5571C296 79.6617 295.105 80.5571 294 80.5571C292.895 80.5571 292 79.6617 292 78.5571C292 77.4526 292.895 76.5571 294 76.5571C295.105 76.5571 296 77.4526 296 78.5571Z" fill="url(#paint8_linear)"/>
<path d="M455 372C455 369.791 456.791 368 459 368H545C547.209 368 549 369.791 549 372V452C549 454.209 547.209 456 545 456H459C456.791 456 455 454.209 455 452V372Z" fill="white"/>
<path d="M497 445.5V430.5C497 429.119 495.881 428 494.5 428C493.119 428 492 429.119 492 430.5V445.5C492 446.881 493.119 448 494.5 448C495.881 448 497 446.881 497 445.5Z" fill="url(#paint9_linear)"/>
<path d="M507 445.5V427.5C507 426.119 505.881 425 504.5 425C503.119 425 502 426.119 502 427.5V445.5C502 446.881 503.119 448 504.5 448C505.881 448 507 446.881 507 445.5Z" fill="url(#paint10_linear)"/>
<path d="M517 445.5V422.5C517 421.119 515.881 420 514.5 420C513.119 420 512 421.119 512 422.5V445.5C512 446.881 513.119 448 514.5 448C515.881 448 517 446.881 517 445.5Z" fill="url(#paint11_linear)"/>
<path d="M527 445.5V419.5C527 418.119 525.881 417 524.5 417C523.119 417 522 418.119 522 419.5V445.5C522 446.881 523.119 448 524.5 448C525.881 448 527 446.881 527 445.5Z" fill="url(#paint12_linear)"/>
<path d="M537 445.5V411.5C537 410.119 535.881 409 534.5 409C533.119 409 532 410.119 532 411.5V445.5C532 446.881 533.119 448 534.5 448C535.881 448 537 446.881 537 445.5Z" fill="url(#paint13_linear)"/>
<path d="M454 373C454 370.239 456.239 368 459 368H480V457H459C456.239 457 454 454.761 454 452V373Z" fill="#EFEFEF"/>
<path fill-rule="evenodd" clip-rule="evenodd" d="M464.573 381H471.573C471.849 381 472.073 380.776 472.073 380.5C472.073 380.224 471.849 380 471.573 380H464.573C464.297 380 464.073 380.224 464.073 380.5C464.073 380.776 464.297 381 464.573 381ZM464.573 417H471.573C471.849 417 472.073 416.776 472.073 416.5C472.073 416.224 471.849 416 471.573 416H464.573C464.297 416 464.073 416.224 464.073 416.5C464.073 416.776 464.297 417 464.573 417ZM471.573 399H464.573C464.297 399 464.073 398.776 464.073 398.5C464.073 398.224 464.297 398 464.573 398H471.573C471.849 398 472.073 398.224 472.073 398.5C472.073 398.776 471.849 399 471.573 399ZM464.573 435H471.573C471.849 435 472.073 434.776 472.073 434.5C472.073 434.224 471.849 434 471.573 434H464.573C464.297 434 464.073 434.224 464.073 434.5C464.073 434.776 464.297 435 464.573 435ZM471.573 390H464.573C464.297 390 464.073 389.776 464.073 389.5C464.073 389.224 464.297 389 464.573 389H471.573C471.849 389 472.073 389.224 472.073 389.5C472.073 389.776 471.849 390 471.573 390ZM464.573 426H471.573C471.849 426 472.073 425.776 472.073 425.5C472.073 425.224 471.849 425 471.573 425H464.573C464.297 425 464.073 425.224 464.073 425.5C464.073 425.776 464.297 426 464.573 426ZM471.573 408H464.573C464.297 408 464.073 407.776 464.073 407.5C464.073 407.224 464.297 407 464.573 407H471.573C471.849 407 472.073 407.224 472.073 407.5C472.073 407.776 471.849 408 471.573 408ZM464.573 444H471.573C471.849 444 472.073 443.776 472.073 443.5C472.073 443.224 471.849 443 471.573 443H464.573C464.297 443 464.073 443.224 464.073 443.5C464.073 443.776 464.297 444 464.573 444Z" fill="#333333"/>
<path fill-rule="evenodd" clip-rule="evenodd" d="M545 368H459C456.791 368 455 369.791 455 372V452C455 454.209 456.791 456 459 456H545C547.209 456 549 454.209 549 452V372C549 369.791 547.209 368 545 368ZM459 367C456.239 367 454 369.239 454 372V452C454 454.761 456.239 457 459 457H545C547.761 457 550 454.761 550 452V372C550 369.239 547.761 367 545 367H459Z" fill="#333333"/>
<path d="M507.819 376.708C509.976 376.708 514 379.5 514.5 381L505.5 387L507.819 376.708Z" fill="#BDECFF"/>
<path fill-rule="evenodd" clip-rule="evenodd" d="M514.137 380.673C513.489 379.825 512.454 378.95 511.249 378.224C510.059 377.507 508.844 377.018 507.877 376.829L505.957 386.473L514.137 380.673ZM515.485 380.943C514.191 378.343 509.662 375.743 507.074 375.743L504.485 388.743L515.485 380.943Z" fill="#333333"/>
<path fill-rule="evenodd" clip-rule="evenodd" d="M503.846 376.569C503.899 376.841 503.723 377.104 503.452 377.157C498.181 378.197 494.481 383.118 495.055 388.575C495.663 394.354 500.83 398.547 506.598 397.94C512.365 397.334 516.548 392.158 515.94 386.38C515.872 385.73 515.746 385.1 515.568 384.495C515.49 384.23 515.641 383.951 515.906 383.873C516.171 383.795 516.449 383.947 516.527 384.212C516.722 384.875 516.86 385.564 516.935 386.275C517.6 392.604 513.019 398.273 506.702 398.937C500.386 399.601 494.726 395.009 494.061 388.68C493.432 382.702 497.484 377.314 503.259 376.174C503.53 376.121 503.793 376.298 503.846 376.569Z" fill="#333333"/>
<path fill-rule="evenodd" clip-rule="evenodd" d="M538.786 392.702C525.509 408.427 504.762 417.599 490.044 418.943L489.956 417.945C504.42 416.624 524.901 407.578 537.998 392.087L534.746 392.422C534.472 392.45 534.227 392.25 534.2 391.975C534.172 391.699 534.372 391.453 534.646 391.425L539.113 390.965C539.388 390.937 539.632 391.137 539.66 391.412L540.108 395.899C540.135 396.174 539.935 396.42 539.661 396.449C539.387 396.477 539.143 396.277 539.115 396.001L538.786 392.702Z" fill="#333333"/>
<path d="M462 253C462 255.761 464.239 258 467 258H545C547.761 258 550 255.761 550 253V181C550 178.239 547.761 176 545 176H467C464.239 176 462 178.239 462 181V253Z" fill="#EFEFEF"/>
<path fill-rule="evenodd" clip-rule="evenodd" d="M545 177H467C464.791 177 463 178.791 463 181V253C463 255.209 464.791 257 467 257H545C547.209 257 549 255.209 549 253V181C549 178.791 547.209 177 545 177ZM467 176C464.239 176 462 178.239 462 181V253C462 255.761 464.239 258 467 258H545C547.761 258 550 255.761 550 253V181C550 178.239 547.761 176 545 176H467Z" fill="#333333"/>
<path d="M470 202C470 200.895 470.895 200 472 200H540C541.105 200 542 200.895 542 202V220C542 221.105 541.105 222 540 222H472C470.895 222 470 221.105 470 220V202Z" fill="white"/>
<path fill-rule="evenodd" clip-rule="evenodd" d="M471.534 200.021C470.694 200.021 470.013 200.723 470.013 201.59V220.416C470.013 221.282 470.694 221.985 471.534 221.985H540.473C541.313 221.985 541.993 221.282 541.993 220.416V201.59C541.993 200.723 541.313 200.021 540.473 200.021H496.879V198.975H540.473C541.873 198.975 543.007 200.146 543.007 201.59V220.416C543.007 221.86 541.873 223.03 540.473 223.03H471.534C470.134 223.03 468.999 221.86 468.999 220.416V201.59C468.999 200.146 470.134 198.975 471.534 198.975H480.658V200.021H471.534Z" fill="#333333"/>
<path d="M489 211C478.737 211 476 217 476 217H502C502 217 499.263 211 489 211Z" fill="url(#paint14_linear)"/>
<path d="M489 211C478.737 211 476 217 476 217H502C502 217 499.263 211 489 211Z" fill="#BDECFF"/>
<path fill-rule="evenodd" clip-rule="evenodd" d="M475.09 216.585L476 217H502L502.91 216.585C503.051 216.895 503.025 217.255 502.841 217.541C502.657 217.827 502.34 218 502 218H476C475.66 218 475.343 217.827 475.159 217.541C474.975 217.255 474.949 216.895 475.09 216.585ZM501.365 216C501.816 216.597 502 217 502 217C502.91 216.585 502.91 216.584 502.909 216.584L502.909 216.582L502.907 216.579L502.903 216.571L502.892 216.547C502.883 216.529 502.871 216.505 502.856 216.476C502.827 216.418 502.784 216.339 502.728 216.242C502.616 216.047 502.448 215.781 502.215 215.467C501.75 214.839 501.022 214.019 499.955 213.205C497.807 211.567 494.342 210 489 210C483.658 210 480.193 211.567 478.045 213.205C476.978 214.019 476.25 214.839 475.785 215.467C475.552 215.781 475.384 216.047 475.272 216.242C475.216 216.339 475.173 216.418 475.144 216.476C475.129 216.505 475.117 216.529 475.108 216.547L475.097 216.571L475.093 216.579L475.091 216.582L475.091 216.584C475.09 216.584 475.09 216.585 476 217C476 217 476.184 216.597 476.635 216C477.924 214.293 481.397 211 489 211C496.603 211 500.076 214.293 501.365 216ZM501.093 217.421L501.092 217.419C501.093 217.421 501.093 217.421 501.093 217.421ZM476.907 217.421C476.907 217.421 476.907 217.42 476.908 217.418L476.907 217.421Z" fill="#333333"/>
<path d="M486 208H492V212.667L489 215L486 212.667V208Z" fill="white"/>
<path d="M495 204C495 207.314 492.314 210 489 210C485.686 210 483 207.314 483 204C483 200.686 485.686 198 489 198C492.314 198 495 200.686 495 204Z" fill="white"/>
<path fill-rule="evenodd" clip-rule="evenodd" d="M489 209C491.761 209 494 206.761 494 204C494 201.239 491.761 199 489 199C486.239 199 484 201.239 484 204C484 206.761 486.239 209 489 209ZM489 210C492.314 210 495 207.314 495 204C495 200.686 492.314 198 489 198C485.686 198 483 200.686 483 204C483 207.314 485.686 210 489 210Z" fill="#333333"/>
<path fill-rule="evenodd" clip-rule="evenodd" d="M489.1 199.765C490.111 201.5 491.5 203.5 494 203.5C494 201.5 491.222 199 489.1 199C486.222 199 484 201 484 204C486.614 203.562 488.444 202 489.1 199.765Z" fill="#AAAAAA"/>
<path fill-rule="evenodd" clip-rule="evenodd" d="M488.412 199.039C486.207 199.293 484.501 200.772 484.093 202.966C484.032 203.295 484 203.64 484 204C484.35 203.941 484.685 203.863 485.006 203.765C486.645 203.265 487.894 202.268 488.626 200.918C488.784 200.628 488.917 200.322 489.025 200.001C489.052 199.923 489.076 199.844 489.1 199.765C489.146 199.845 489.193 199.925 489.241 200.006C489.407 200.284 489.584 200.566 489.773 200.843C490.554 201.984 491.56 203.041 492.994 203.384C493.308 203.459 493.643 203.5 494 203.5C494 203.174 493.926 202.834 493.793 202.494C493.203 200.986 491.45 199.472 489.838 199.091C489.587 199.032 489.339 199 489.1 199C488.866 199 488.636 199.013 488.412 199.039ZM489.249 201.829C490.273 203.195 491.756 204.5 494 204.5C494.552 204.5 495 204.052 495 203.5C495 202.088 494.065 200.714 493.019 199.761C491.961 198.796 490.506 198 489.1 198C485.713 198 483 200.406 483 204C483 204.294 483.129 204.573 483.354 204.763C483.579 204.953 483.875 205.035 484.165 204.986C486.39 204.613 488.175 203.495 489.249 201.829Z" fill="#333333"/>
<path fill-rule="evenodd" clip-rule="evenodd" d="M492 208.083C492.276 208.083 492.5 208.307 492.5 208.583V212.212C492.5 212.351 492.442 212.484 492.34 212.578L489.34 215.366C489.148 215.545 488.852 215.545 488.66 215.366L485.66 212.578C485.558 212.484 485.5 212.351 485.5 212.212V209C485.5 208.724 485.724 208.5 486 208.5C486.276 208.5 486.5 208.724 486.5 209V211.994L489 214.317L491.5 211.994V208.583C491.5 208.307 491.724 208.083 492 208.083Z" fill="#333333"/>
<path fill-rule="evenodd" clip-rule="evenodd" d="M506.098 207.46C506.098 207.184 506.322 206.96 506.598 206.96H533.45C533.726 206.96 533.95 207.184 533.95 207.46C533.95 207.736 533.726 207.96 533.45 207.96H506.598C506.322 207.96 506.098 207.736 506.098 207.46Z" fill="#333333"/>
<path fill-rule="evenodd" clip-rule="evenodd" d="M506.178 212.547C506.178 212.271 506.402 212.047 506.678 212.047H526.987C527.263 212.047 527.487 212.271 527.487 212.547C527.487 212.823 527.263 213.047 526.987 213.047H506.678C506.402 213.047 506.178 212.823 506.178 212.547Z" fill="#333333"/>
<path d="M470 229.64C470 228.535 470.895 227.64 472 227.64H540C541.105 227.64 542 228.535 542 229.64V247.64C542 248.744 541.105 249.64 540 249.64H472C470.895 249.64 470 248.744 470 247.64V229.64Z" fill="white"/>
<path fill-rule="evenodd" clip-rule="evenodd" d="M471.516 227.98C470.682 227.98 470.006 228.657 470.006 229.491V247.622C470.006 248.456 470.28 248.949 471.114 248.949H540.862C541.696 248.949 541.963 248.223 541.963 247.622L542.034 229.491C542.034 228.657 541.358 227.98 540.523 227.98H497.05V226.973H540.523C541.914 226.973 543.041 228.101 543.041 229.491L542.97 247.622C542.97 248.574 542.478 249.957 540.391 249.957H471.114C469.724 249.957 468.999 249.013 468.999 247.622V229.491C468.999 228.101 470.126 226.973 471.516 226.973H481.025V227.98H471.516Z" fill="#333333"/>
<path d="M489 238.432C478.737 238.432 476 244.995 476 244.995H502C502 244.995 499.263 238.432 489 238.432Z" fill="url(#paint15_linear)"/>
<path d="M489 238.432C478.737 238.432 476 244.995 476 244.995H502C502 244.995 499.263 238.432 489 238.432Z" fill="#BDECFF"/>
<path fill-rule="evenodd" clip-rule="evenodd" d="M475.09 244.59L476 245.005H502L502.91 244.59C503.051 244.9 503.025 245.26 502.841 245.546C502.657 245.832 502.34 246.005 502 246.005H476C475.66 246.005 475.343 245.832 475.159 245.546C474.975 245.26 474.949 244.9 475.09 244.59ZM501.365 244.005C501.816 244.602 502 245.005 502 245.005C502.91 244.59 502.91 244.59 502.909 244.589L502.909 244.588L502.907 244.584L502.903 244.576L502.892 244.553C502.883 244.534 502.871 244.511 502.856 244.481C502.827 244.423 502.784 244.344 502.728 244.247C502.616 244.053 502.448 243.786 502.215 243.472C501.75 242.844 501.022 242.024 499.955 241.21C497.807 239.572 494.342 238.005 489 238.005C483.658 238.005 480.193 239.572 478.045 241.21C476.978 242.024 476.25 242.844 475.785 243.472C475.552 243.786 475.384 244.053 475.272 244.247C475.216 244.344 475.173 244.423 475.144 244.481C475.129 244.511 475.117 244.534 475.108 244.553L475.097 244.576L475.093 244.584L475.091 244.588L475.091 244.589C475.09 244.59 475.09 244.59 476 245.005C476 245.005 476.184 244.602 476.635 244.005C477.924 242.299 481.397 239.005 489 239.005C496.603 239.005 500.076 242.299 501.365 244.005ZM501.093 245.426L501.092 245.424C501.093 245.427 501.093 245.427 501.093 245.426ZM476.907 245.426C476.907 245.427 476.907 245.426 476.908 245.424L476.907 245.426Z" fill="#333333"/>
<path d="M486 235.64H492V240.307L489 242.64L486 240.307V235.64Z" fill="white"/>
<path d="M495 231.64C495 234.954 492.314 237.64 489 237.64C485.686 237.64 483 234.954 483 231.64C483 228.326 485.686 225.64 489 225.64C492.314 225.64 495 228.326 495 231.64Z" fill="white"/>
<path fill-rule="evenodd" clip-rule="evenodd" d="M489 236.64C491.761 236.64 494 234.401 494 231.64C494 228.878 491.761 226.64 489 226.64C486.239 226.64 484 228.878 484 231.64C484 234.401 486.239 236.64 489 236.64ZM489 237.64C492.314 237.64 495 234.954 495 231.64C495 228.326 492.314 225.64 489 225.64C485.686 225.64 483 228.326 483 231.64C483 234.954 485.686 237.64 489 237.64Z" fill="#333333"/>
<path fill-rule="evenodd" clip-rule="evenodd" d="M489.1 227.405C490.111 229.14 491.5 231.14 494 231.14C494 229.14 491.222 226.64 489.1 226.64C486.222 226.64 484 228.64 484 231.64C486.614 231.202 488.444 229.64 489.1 227.405Z" fill="#AAAAAA"/>
<path fill-rule="evenodd" clip-rule="evenodd" d="M488.412 226.679C486.207 226.933 484.501 228.412 484.093 230.606C484.032 230.935 484 231.28 484 231.64C484.35 231.581 484.685 231.503 485.006 231.405C486.645 230.905 487.894 229.908 488.626 228.557C488.784 228.268 488.917 227.961 489.025 227.64C489.052 227.563 489.076 227.484 489.1 227.405C489.146 227.485 489.193 227.565 489.241 227.646C489.407 227.923 489.584 228.205 489.773 228.482C490.554 229.624 491.56 230.681 492.994 231.024C493.308 231.099 493.643 231.14 494 231.14C494 230.813 493.926 230.474 493.793 230.134C493.203 228.626 491.45 227.112 489.838 226.731C489.587 226.672 489.339 226.64 489.1 226.64C488.866 226.64 488.636 226.653 488.412 226.679ZM489.249 229.469C490.273 230.835 491.756 232.14 494 232.14C494.552 232.14 495 231.692 495 231.14C495 229.728 494.065 228.354 493.019 227.401C491.961 226.436 490.506 225.64 489.1 225.64C485.713 225.64 483 228.046 483 231.64C483 231.934 483.129 232.213 483.354 232.403C483.579 232.593 483.875 232.675 484.165 232.626C486.39 232.253 488.175 231.134 489.249 229.469Z" fill="#333333"/>
<path fill-rule="evenodd" clip-rule="evenodd" d="M492 235.723C492.276 235.723 492.5 235.947 492.5 236.223V239.852C492.5 239.991 492.442 240.123 492.34 240.218L489.34 243.006C489.148 243.184 488.852 243.184 488.66 243.006L485.66 240.218C485.558 240.123 485.5 239.991 485.5 239.852V236.64C485.5 236.364 485.724 236.14 486 236.14C486.276 236.14 486.5 236.364 486.5 236.64V239.634L489 241.957L491.5 239.634V236.223C491.5 235.947 491.724 235.723 492 235.723Z" fill="#333333"/>
<path fill-rule="evenodd" clip-rule="evenodd" d="M506.178 235.538C506.178 235.27 506.402 235.053 506.678 235.053H533.53C533.806 235.053 534.03 235.27 534.03 235.538C534.03 235.806 533.806 236.024 533.53 236.024H506.678C506.402 236.024 506.178 235.806 506.178 235.538Z" fill="#333333"/>
<path fill-rule="evenodd" clip-rule="evenodd" d="M506.178 240.476C506.178 240.2 506.402 239.976 506.678 239.976H526.987C527.263 239.976 527.487 240.2 527.487 240.476C527.487 240.752 527.263 240.976 526.987 240.976H506.678C506.402 240.976 506.178 240.752 506.178 240.476Z" fill="#333333"/>
<path fill-rule="evenodd" clip-rule="evenodd" d="M471.802 186H541.196C542.744 186 543.999 187.343 543.999 189C543.999 190.657 542.744 192 541.196 192H471.802C470.254 192 468.999 190.657 468.999 189C468.999 187.343 470.254 186 471.802 186ZM471.802 186.999C470.823 186.999 470.029 187.952 470.029 189C470.029 190.048 470.823 191 471.802 191H541.196C542.175 191 542.969 190.048 542.969 189C542.969 187.952 542.175 186.999 541.196 186.999H471.802Z" fill="#333333"/>
<path d="M525 186H541.067C542.687 186 544 187.343 544 189C544 190.657 542.687 192 541.067 192H525V186Z" fill="url(#paint16_linear)"/>
<path fill-rule="evenodd" clip-rule="evenodd" d="M541.067 187H526V191H541.067C542.113 191 543 190.126 543 189C543 187.874 542.113 187 541.067 187ZM525 186V192H541.067C542.687 192 544 190.657 544 189C544 187.343 542.687 186 541.067 186H525Z" fill="#333333"/>
<path d="M99 188.927C99 185.624 102.139 183 104.959 183L159.164 183C161.983 183 165 186.082 165 188.851V270.93C165 274.802 161.794 277 158.974 277H104.964C101.762 277 99 274.461 99 270.576V188.927Z" fill="white"/>
<path fill-rule="evenodd" clip-rule="evenodd" d="M99 189C99 185.847 101.822 183 104.998 183H158.976C162.152 183 164.976 185.847 164.976 189V234H163.975V188.99C163.975 186.411 161.574 184 158.976 184H104.998C102.399 184 99.9996 186.42 99.9996 189V222L99 221.99V189ZM99.9957 261.999V271.304C99.9957 273.884 102.258 275.962 104.857 275.962H159.055C161.653 275.962 163.955 273.871 163.955 271.291V262H165V271.291C165 274.444 162.23 277 159.055 277H104.857C101.681 277 99.0023 274.457 99.0023 271.304V261.999H99.9957Z" fill="#333333"/>
<path d="M150.998 194.434H112.673C111.559 194.434 110.656 195.399 110.656 196.589V219.219C110.656 220.41 111.559 221.375 112.673 221.375H150.998C152.112 221.375 153.015 220.41 153.015 219.219V196.589C153.015 195.399 152.112 194.434 150.998 194.434Z" fill="#BDECFF"/>
<path fill-rule="evenodd" clip-rule="evenodd" d="M111.034 221.375L123.834 209.453L132.557 216.99L144.748 199.699L153.017 211.507V221.375" fill="white"/>
<path fill-rule="evenodd" clip-rule="evenodd" d="M113.058 194H150.942C152.631 194 154 195.409 154 197.148V218.852C154 220.591 152.631 222 150.942 222H113.058C111.369 222 110 220.591 110 218.852V197.148C110 195.409 111.369 194 113.058 194ZM113.058 195.049H150.942C152.068 195.049 152.981 195.989 152.981 197.148V218.852C152.981 220.011 152.068 220.951 150.942 220.951H113.058C111.932 220.951 111.019 220.011 111.019 218.852V197.148C111.019 195.989 111.932 195.049 113.058 195.049Z" fill="#333333"/>
<path fill-rule="evenodd" clip-rule="evenodd" d="M144.784 199.317C144.945 199.32 145.096 199.402 145.189 199.539L153.319 211.497C153.481 211.734 153.427 212.063 153.2 212.232C152.973 212.4 152.658 212.344 152.497 212.107L144.767 200.738L132.986 217.19C132.902 217.308 132.774 217.384 132.634 217.399C132.493 217.414 132.354 217.367 132.248 217.269L123.887 209.54L111.875 220.83C111.668 221.025 111.349 221.007 111.163 220.791C110.977 220.575 110.994 220.242 111.201 220.047L123.547 208.442C123.738 208.263 124.027 208.262 124.219 208.439L132.507 216.101L144.374 199.529C144.471 199.394 144.623 199.315 144.784 199.317Z" fill="#333333"/>
<path fill-rule="evenodd" clip-rule="evenodd" d="M119.175 205.434C120.376 205.434 121.348 204.418 121.348 203.166C121.348 201.913 120.376 200.897 119.175 200.897C117.973 200.897 117.001 201.913 117.001 203.166C117.001 204.418 117.973 205.434 119.175 205.434ZM119.175 206.487C120.932 206.487 122.357 205 122.357 203.166C122.357 201.331 120.932 199.844 119.175 199.844C117.417 199.844 115.992 201.331 115.992 203.166C115.992 205 117.417 206.487 119.175 206.487Z" fill="#333333"/>
<path fill-rule="evenodd" clip-rule="evenodd" d="M128.007 231.5C128.007 231.224 128.232 231 128.511 231H149.5C149.779 231 150.004 231.224 150.004 231.5C150.004 231.776 149.779 232 149.5 232H128.511C128.232 232 128.007 231.776 128.007 231.5Z" fill="#333333"/>
<path fill-rule="evenodd" clip-rule="evenodd" d="M128.007 241.5C128.007 241.224 128.232 241 128.511 241H149.5C149.779 241 150.004 241.224 150.004 241.5C150.004 241.776 149.779 242 149.5 242H128.511C128.232 242 128.007 241.776 128.007 241.5Z" fill="#333333"/>
<path fill-rule="evenodd" clip-rule="evenodd" d="M128.007 251.5C128.007 251.224 128.243 251 128.533 251H144.478C144.769 251 145.005 251.224 145.005 251.5C145.005 251.776 144.769 252 144.478 252H128.533C128.243 252 128.007 251.776 128.007 251.5Z" fill="#333333"/>
<path fill-rule="evenodd" clip-rule="evenodd" d="M128.007 236.5C128.007 236.224 128.232 236 128.511 236H149.5C149.779 236 150.004 236.224 150.004 236.5C150.004 236.776 149.779 237 149.5 237H128.511C128.232 237 128.007 236.776 128.007 236.5Z" fill="#333333"/>
<path fill-rule="evenodd" clip-rule="evenodd" d="M139.961 246.5C139.961 246.224 140.185 246 140.461 246H149.91C150.185 246 150.409 246.224 150.409 246.5C150.409 246.776 150.185 247 149.91 247H140.461C140.185 247 139.961 246.776 139.961 246.5Z" fill="#333333"/>
<path fill-rule="evenodd" clip-rule="evenodd" d="M128.007 246.5C128.007 246.224 128.219 246 128.48 246H135.645C135.907 246 136.119 246.224 136.119 246.5C136.119 246.776 135.907 247 135.645 247H128.48C128.219 247 128.007 246.776 128.007 246.5Z" fill="#333333"/>
<path fill-rule="evenodd" clip-rule="evenodd" d="M113.008 257.5C113.008 257.224 113.243 257 113.533 257H121.483C121.772 257 122.007 257.224 122.007 257.5C122.007 257.776 121.772 258 121.483 258H113.533C113.243 258 113.008 257.776 113.008 257.5Z" fill="#333333"/>
<path fill-rule="evenodd" clip-rule="evenodd" d="M124.007 257.5C124.007 257.224 124.239 257 124.526 257H140.887C141.173 257 141.406 257.224 141.406 257.5C141.406 257.776 141.173 258 140.887 258H124.526C124.239 258 124.007 257.776 124.007 257.5Z" fill="#333333"/>
<path d="M175.097 243.304L167.514 235.739L143.197 260.148L150.953 267.512L175.097 243.304Z" fill="url(#paint17_linear)"/>
<path fill-rule="evenodd" clip-rule="evenodd" d="M150.104 267.333L179.805 237.438C180.209 237.031 180.209 236.371 179.805 235.964L174.402 230.526C173.998 230.119 173.343 230.119 172.938 230.526L143.238 260.422C143.111 260.549 143.019 260.708 142.972 260.882L140.925 268.381C140.712 269.16 141.423 269.875 142.197 269.661L149.646 267.601C149.819 267.553 149.977 267.461 150.104 267.333ZM180.536 238.174C181.345 237.36 181.345 236.041 180.536 235.228L175.134 229.79C174.325 228.976 173.015 228.976 172.207 229.79L142.506 259.685C142.252 259.941 142.069 260.258 141.974 260.606L139.927 268.105C139.502 269.663 140.923 271.094 142.471 270.666L149.921 268.605C150.267 268.51 150.582 268.325 150.836 268.07L180.536 238.174Z" fill="#333333"/>
<path d="M171 240L146.332 264.83L145.628 264.121L170.296 239.291L171 240Z" fill="white"/>
<path fill-rule="evenodd" clip-rule="evenodd" d="M142.945 259.908L150.723 267.22L150.017 267.981L142.239 260.67L142.945 259.908Z" fill="#333333"/>
<path fill-rule="evenodd" clip-rule="evenodd" d="M167.476 235.739L175.101 243.205L174.379 243.952L166.754 236.486L167.476 235.739Z" fill="#333333"/>
<path fill-rule="evenodd" clip-rule="evenodd" d="M141.705 264.231L146.076 268.806L145.33 269.528L140.959 264.954L141.705 264.231Z" fill="#333333"/>
<path fill-rule="evenodd" clip-rule="evenodd" d="M169.402 233.809L176.662 241.121L175.93 241.857L168.67 234.546L169.402 233.809Z" fill="#333333"/>
<path d="M86 227.605C86 227.039 87.2016 226 87.7846 226H121.944C123.016 226 124 227.096 124 228.024V250.192C124 250.757 123.527 251.216 122.944 251.216H106.785C106.458 251.216 106.15 251.363 105.95 251.615L101.188 257.602C100.736 258.17 99.8363 258.122 99.4511 257.509L96.0278 252.667C95.5 251.6 94.2849 251.216 93.9167 251.216H87.0556C86.4726 251.216 86 250.757 86 250.192V227.605Z" fill="url(#paint18_linear)"/>
<path fill-rule="evenodd" clip-rule="evenodd" d="M121.988 227.021H88.0121C87.4565 227.021 87.006 227.479 87.006 228.043V249.964C87.006 250.528 87.4565 250.985 88.0121 250.985H94.4082C95.4485 250.985 96.4155 251.529 96.9671 252.425L99.6253 256.499C99.9939 257.097 100.835 257.145 101.267 256.592L104.923 252.147C105.495 251.413 106.367 250.985 107.289 250.985H121.988C122.544 250.985 122.994 250.528 122.994 249.964V228.043C122.994 227.479 122.544 227.021 121.988 227.021ZM88.0121 226C86.9008 226 86 226.914 86 228.043V249.964C86 251.092 86.9008 252.007 88.0121 252.007H94.4082C95.1017 252.007 95.7464 252.369 96.1141 252.966L98.7723 257.04C99.5096 258.237 101.192 258.332 102.055 257.226L105.712 252.781C106.093 252.292 106.674 252.007 107.289 252.007H121.988C123.099 252.007 124 251.092 124 249.964V228.043C124 226.914 123.099 226 121.988 226H88.0121Z" fill="#333333"/>
<path fill-rule="evenodd" clip-rule="evenodd" d="M93 236.5C93 236.224 93.2298 236 93.5134 236H117.487C117.77 236 118 236.224 118 236.5C118 236.776 117.77 237 117.487 237H93.5134C93.2298 237 93 236.776 93 236.5Z" fill="white"/>
<path fill-rule="evenodd" clip-rule="evenodd" d="M93 240.5C93 240.224 93.2268 240 93.5067 240H109.493C109.773 240 110 240.224 110 240.5C110 240.776 109.773 241 109.493 241H93.5067C93.2268 241 93 240.776 93 240.5Z" fill="white"/>
<defs>
<linearGradient id="paint0_linear" x1="142.276" y1="378.961" x2="142.276" y2="403.905" gradientUnits="userSpaceOnUse">
<stop stop-color="#FF8E3D"/>
<stop offset="1" stop-color="#FF6F3D"/>
</linearGradient>
<linearGradient id="paint1_linear" x1="117.517" y1="364.129" x2="117.517" y2="375.104" gradientUnits="userSpaceOnUse">
<stop stop-color="#FF8E3D"/>
<stop offset="1" stop-color="#FF6F3D"/>
</linearGradient>
<linearGradient id="paint2_linear" x1="304" y1="479.531" x2="310.986" y2="501.308" gradientUnits="userSpaceOnUse">
<stop stop-color="#FFC671"/>
<stop offset="0.59375" stop-color="#FF7541"/>
<stop offset="1" stop-color="#FF6F3D"/>
</linearGradient>
<linearGradient id="paint3_linear" x1="305" y1="541.623" x2="314.986" y2="552.025" gradientUnits="userSpaceOnUse">
<stop stop-color="#FFC671"/>
<stop offset="0.59375" stop-color="#FF7541"/>
<stop offset="1" stop-color="#FF6F3D"/>
</linearGradient>
<linearGradient id="paint4_linear" x1="305" y1="526.609" x2="315" y2="537" gradientUnits="userSpaceOnUse">
<stop stop-color="#FFC671"/>
<stop offset="0.59375" stop-color="#FF7541"/>
<stop offset="1" stop-color="#FF6F3D"/>
</linearGradient>
<linearGradient id="paint5_linear" x1="305" y1="511.609" x2="315" y2="522" gradientUnits="userSpaceOnUse">
<stop stop-color="#FFC671"/>
<stop offset="0.59375" stop-color="#FF7541"/>
<stop offset="1" stop-color="#FF6F3D"/>
</linearGradient>
<linearGradient id="paint6_linear" x1="325.5" y1="67.0703" x2="336.508" y2="77.9881" gradientUnits="userSpaceOnUse">
<stop stop-color="#FFC671"/>
<stop offset="0.59375" stop-color="#FF7541"/>
<stop offset="1" stop-color="#FF6F3D"/>
</linearGradient>
<linearGradient id="paint7_linear" x1="268.125" y1="114.539" x2="308.058" y2="177.775" gradientUnits="userSpaceOnUse">
<stop stop-color="#FFC671"/>
<stop offset="0.652615" stop-color="#FF8657"/>
</linearGradient>
<linearGradient id="paint8_linear" x1="294" y1="76.5571" x2="294" y2="80.5571" gradientUnits="userSpaceOnUse">
<stop stop-color="#FF8E3D"/>
<stop offset="1" stop-color="#FF6F3D"/>
</linearGradient>
<linearGradient id="paint9_linear" x1="494.5" y1="428" x2="494.5" y2="448" gradientUnits="userSpaceOnUse">
<stop stop-color="#FF8E3D"/>
<stop offset="1" stop-color="#FF6F3D"/>
</linearGradient>
<linearGradient id="paint10_linear" x1="504.5" y1="425" x2="504.5" y2="448" gradientUnits="userSpaceOnUse">
<stop stop-color="#FF8E3D"/>
<stop offset="1" stop-color="#FF6F3D"/>
</linearGradient>
<linearGradient id="paint11_linear" x1="514.5" y1="420" x2="514.5" y2="448" gradientUnits="userSpaceOnUse">
<stop stop-color="#FF8E3D"/>
<stop offset="1" stop-color="#FF6F3D"/>
</linearGradient>
<linearGradient id="paint12_linear" x1="524.5" y1="417" x2="524.5" y2="448" gradientUnits="userSpaceOnUse">
<stop stop-color="#FF8E3D"/>
<stop offset="1" stop-color="#FF6F3D"/>
</linearGradient>
<linearGradient id="paint13_linear" x1="534.5" y1="409" x2="534.5" y2="448" gradientUnits="userSpaceOnUse">
<stop stop-color="#FF8E3D"/>
<stop offset="1" stop-color="#FF6F3D"/>
</linearGradient>
<linearGradient id="paint14_linear" x1="489" y1="211" x2="489" y2="217" gradientUnits="userSpaceOnUse">
<stop stop-color="#FF8E3D"/>
<stop offset="1" stop-color="#FF6F3D"/>
</linearGradient>
<linearGradient id="paint15_linear" x1="489" y1="238.432" x2="489" y2="244.995" gradientUnits="userSpaceOnUse">
<stop stop-color="#FF8E3D"/>
<stop offset="1" stop-color="#FF6F3D"/>
</linearGradient>
<linearGradient id="paint16_linear" x1="525" y1="185.766" x2="528.341" y2="196.759" gradientUnits="userSpaceOnUse">
<stop stop-color="#FFC671"/>
<stop offset="0.59375" stop-color="#FF7541"/>
<stop offset="1" stop-color="#FF6F3D"/>
</linearGradient>
<linearGradient id="paint17_linear" x1="143.197" y1="234.498" x2="174.964" y2="267.639" gradientUnits="userSpaceOnUse">
<stop stop-color="#FFC671"/>
<stop offset="0.59375" stop-color="#FF7541"/>
<stop offset="1" stop-color="#FF6F3D"/>
</linearGradient>
<linearGradient id="paint18_linear" x1="86.0001" y1="224.75" x2="117.329" y2="263.406" gradientUnits="userSpaceOnUse">
<stop stop-color="#FFC671"/>
<stop offset="0.59375" stop-color="#FF7541"/>
<stop offset="1" stop-color="#FF6F3D"/>
</linearGradient>
</defs>
</svg>
