<svg width="360" height="132" viewBox="0 0 360 132" fill="none" xmlns="http://www.w3.org/2000/svg">
<g clip-path="url(#clip0_651_390911)">
<rect width="360" height="132" fill="#FF9E2F" fill-opacity="0.1"/>
<path opacity="0.2" d="M166.378 126.92L278.333 -19.1099C284.628 -27.3218 297.671 -21.1441 295.299 -11.0742L273.152 82.9184C271.729 88.9537 276.316 94.7315 282.518 94.7159L364.662 94.5103C372.478 94.4907 377.038 103.316 372.501 109.68L245.497 287.816C239.288 296.524 225.64 290.099 228.403 279.769L261.985 154.238C263.618 148.134 259.009 142.146 252.689 142.162L174.018 142.358C166.049 142.378 161.53 133.245 166.378 126.92Z" fill="#FF9E2F"/>
<path opacity="0.6" d="M76.0207 151.436L343.745 -166.798C354.208 -179.234 374.392 -169.924 371.711 -153.898L339.992 35.718C338.259 46.0758 346.259 55.4997 356.762 55.4734L495.641 55.1257C509.218 55.0917 516.633 70.9393 507.908 81.3433L203.347 444.526C192.368 457.618 171.273 446.657 175.688 430.154L237.611 198.682C240.497 187.894 232.352 177.313 221.184 177.341L88.2718 177.673C74.6832 177.707 67.2721 161.835 76.0207 151.436Z" stroke="#FF9E2F" stroke-opacity="0.5"/>
</g>
<defs>
<clipPath id="clip0_651_390911">
<rect width="360" height="132" fill="white"/>
</clipPath>
</defs>
</svg>
