<svg width="1366" height="132" viewBox="0 0 1366 132" fill="none" xmlns="http://www.w3.org/2000/svg">
<g clip-path="url(#clip0_639_358946)">
<rect width="1366" height="132" fill="#FF9E2F" fill-opacity="0.1"/>
<path opacity="0.2" d="M1172.38 126.92L1284.33 -19.1099C1290.63 -27.3218 1303.67 -21.1441 1301.3 -11.0742L1279.15 82.9184C1277.73 88.9537 1282.32 94.7315 1288.52 94.7159L1370.66 94.5103C1378.48 94.4907 1383.04 103.316 1378.5 109.68L1251.5 287.816C1245.29 296.524 1231.64 290.099 1234.4 279.769L1267.98 154.238C1269.62 148.134 1265.01 142.146 1258.69 142.162L1180.02 142.358C1172.05 142.378 1167.53 133.245 1172.38 126.92Z" fill="#FF9E2F"/>
<path opacity="0.6" d="M1082.02 151.436L1349.75 -166.798C1360.21 -179.234 1380.39 -169.924 1377.71 -153.898L1345.99 35.718C1344.26 46.0758 1352.26 55.4997 1362.76 55.4734L1501.64 55.1257C1515.22 55.0917 1522.63 70.9393 1513.91 81.3433L1209.35 444.526C1198.37 457.618 1177.27 446.657 1181.69 430.154L1243.61 198.682C1246.5 187.894 1238.35 177.313 1227.18 177.341L1094.27 177.673C1080.68 177.707 1073.27 161.835 1082.02 151.436Z" stroke="#FF9E2F"/>
</g>
<defs>
<clipPath id="clip0_639_358946">
<rect width="1366" height="132" fill="white"/>
</clipPath>
</defs>
</svg>
