<svg xmlns="http://www.w3.org/2000/svg" xmlns:xlink="http://www.w3.org/1999/xlink" width="500" zoomAndPan="magnify" viewBox="0 0 375 374.999991" height="500" preserveAspectRatio="xMidYMid meet" version="1.0"><defs><clipPath id="a7a818d860"><path d="M 55.59375 0 L 319.59375 0 L 319.59375 372.75 L 55.59375 372.75 Z M 55.59375 0 " clip-rule="nonzero"/></clipPath></defs><path fill="#f4f4f4" d="M 318.453125 349.957031 C 318.453125 361.863281 308.402344 371.519531 296.003906 371.519531 L 79.066406 371.519531 C 66.671875 371.519531 56.625 361.863281 56.625 349.957031 L 56.625 22.90625 C 56.625 10.992188 66.671875 1.339844 79.066406 1.339844 L 296.003906 1.339844 C 308.402344 1.339844 318.453125 10.992188 318.453125 22.90625 L 318.453125 349.957031 " fill-opacity="1" fill-rule="nonzero"/><g clip-path="url(#a7a818d860)"><path fill="#2d3c5c" d="M 318.453125 349.957031 L 317.394531 349.957031 C 317.394531 355.605469 315.011719 360.722656 311.144531 364.441406 C 307.277344 368.15625 301.925781 370.464844 296.003906 370.464844 L 79.066406 370.464844 C 73.144531 370.464844 67.796875 368.15625 63.929688 364.441406 C 60.058594 360.722656 57.679688 355.605469 57.679688 349.957031 L 57.679688 22.90625 C 57.679688 17.25 60.058594 12.132812 63.929688 8.414062 C 67.796875 4.699219 73.144531 2.394531 79.066406 2.394531 L 296.003906 2.394531 C 301.925781 2.394531 307.277344 4.699219 311.144531 8.414062 C 315.011719 12.132812 317.394531 17.25 317.394531 22.90625 L 317.394531 349.957031 L 319.507812 349.957031 L 319.507812 22.90625 C 319.511719 16.648438 316.867188 10.980469 312.605469 6.894531 C 308.351562 2.804688 302.480469 0.285156 296.003906 0.285156 L 79.066406 0.285156 C 72.589844 0.285156 66.71875 2.804688 62.464844 6.894531 C 58.210938 10.980469 55.566406 16.648438 55.570312 22.90625 L 55.570312 349.957031 C 55.566406 356.210938 58.210938 361.878906 62.464844 365.960938 C 66.71875 370.050781 72.589844 372.574219 79.066406 372.574219 L 296.003906 372.574219 C 302.480469 372.574219 308.351562 370.050781 312.605469 365.960938 C 316.867188 361.878906 319.511719 356.210938 319.507812 349.957031 L 318.453125 349.957031 " fill-opacity="1" fill-rule="nonzero"/></g><path fill="#2d3c5c" d="M 318.453125 37.191406 L 318.453125 27.519531 C 318.453125 13.0625 308.402344 1.339844 296.003906 1.339844 L 79.066406 1.339844 C 66.671875 1.339844 56.625 13.0625 56.625 27.519531 L 56.625 37.191406 L 318.453125 37.191406 " fill-opacity="1" fill-rule="nonzero"/><path fill="#ffffff" d="M 283.097656 19.269531 C 283.097656 24.511719 278.84375 28.757812 273.589844 28.757812 C 268.347656 28.757812 264.09375 24.511719 264.09375 19.269531 C 264.09375 14.03125 268.347656 9.777344 273.589844 9.777344 C 278.84375 9.777344 283.097656 14.03125 283.097656 19.269531 " fill-opacity="1" fill-rule="nonzero"/><path fill="#ffffff" d="M 259.84375 19.269531 C 259.84375 24.511719 255.589844 28.757812 250.335938 28.757812 C 245.09375 28.757812 240.839844 24.511719 240.839844 19.269531 C 240.839844 14.03125 245.09375 9.777344 250.335938 9.777344 C 255.589844 9.777344 259.84375 14.03125 259.84375 19.269531 " fill-opacity="1" fill-rule="nonzero"/><path fill="#ffffff" d="M 305.269531 19.269531 C 305.269531 24.511719 301.015625 28.757812 295.761719 28.757812 C 290.515625 28.757812 286.265625 24.511719 286.265625 19.269531 C 286.265625 14.03125 290.515625 9.777344 295.761719 9.777344 C 301.015625 9.777344 305.269531 14.03125 305.269531 19.269531 " fill-opacity="1" fill-rule="nonzero"/><path fill="#f68712" d="M 266.191406 69.382812 C 266.191406 76.082031 260.75 81.515625 254.054688 81.515625 L 121.023438 81.515625 C 114.316406 81.515625 108.878906 76.082031 108.878906 69.382812 C 108.878906 62.6875 114.316406 57.257812 121.023438 57.257812 L 254.054688 57.257812 C 260.75 57.257812 266.191406 62.6875 266.191406 69.382812 " fill-opacity="1" fill-rule="nonzero"/><path fill="#f68712" d="M 295.761719 99.972656 C 295.761719 106.667969 288.289062 112.097656 279.058594 112.097656 L 96.015625 112.097656 C 86.785156 112.097656 79.308594 106.667969 79.308594 99.972656 C 79.308594 93.273438 86.785156 87.84375 96.015625 87.84375 L 279.058594 87.84375 C 288.289062 87.84375 295.761719 93.273438 295.761719 99.972656 " fill-opacity="1" fill-rule="nonzero"/><path fill="#ef2e32" d="M 288.648438 193.8125 L 86.429688 193.8125 L 86.429688 124.203125 L 288.648438 124.203125 L 288.648438 193.8125 " fill-opacity="1" fill-rule="nonzero"/><path fill="#3dbda8" d="M 161.117188 337.789062 L 86.429688 337.789062 L 86.429688 210.179688 L 161.117188 210.179688 L 161.117188 337.789062 " fill-opacity="1" fill-rule="nonzero"/><path fill="#656263" d="M 288.648438 223.886719 L 166.152344 223.886719 L 166.152344 210.179688 L 288.648438 210.179688 L 288.648438 223.886719 " fill-opacity="1" fill-rule="nonzero"/><path fill="#656263" d="M 288.648438 242.871094 L 166.152344 242.871094 L 166.152344 229.160156 L 288.648438 229.160156 L 288.648438 242.871094 " fill-opacity="1" fill-rule="nonzero"/><path fill="#656263" d="M 288.648438 261.855469 L 166.152344 261.855469 L 166.152344 248.148438 L 288.648438 248.148438 L 288.648438 261.855469 " fill-opacity="1" fill-rule="nonzero"/><path fill="#656263" d="M 288.648438 280.839844 L 166.152344 280.839844 L 166.152344 267.128906 L 288.648438 267.128906 L 288.648438 280.839844 " fill-opacity="1" fill-rule="nonzero"/><path fill="#656263" d="M 288.648438 299.824219 L 166.152344 299.824219 L 166.152344 286.113281 L 288.648438 286.113281 L 288.648438 299.824219 " fill-opacity="1" fill-rule="nonzero"/><path fill="#656263" d="M 288.648438 318.808594 L 166.152344 318.808594 L 166.152344 305.097656 L 288.648438 305.097656 L 288.648438 318.808594 " fill-opacity="1" fill-rule="nonzero"/><path fill="#656263" d="M 288.648438 337.789062 L 166.152344 337.789062 L 166.152344 324.082031 L 288.648438 324.082031 L 288.648438 337.789062 " fill-opacity="1" fill-rule="nonzero"/></svg>