<svg width="350" height="219" viewBox="0 0 350 219" fill="none" xmlns="http://www.w3.org/2000/svg">
<g clip-path="url(#clip0_4357_30748)">
<rect width="350" height="218.75" fill="white"/>
<g clip-path="url(#clip1_4357_30748)">
<mask id="mask0_4357_30748" style="mask-type:luminance" maskUnits="userSpaceOnUse" x="33" y="8" width="272" height="273">
<path d="M265.092 240.666C318.052 187.588 318.052 101.53 265.092 48.4519C212.132 -4.62663 126.267 -4.62662 73.3068 48.4519C20.3469 101.53 20.3469 187.588 73.3068 240.666C126.267 293.745 212.132 293.745 265.092 240.666Z" fill="white"/>
</mask>
<g mask="url(#mask0_4357_30748)">
<path d="M337.855 5.38379H11.3716V251.84H337.855V5.38379Z" fill="#FFF7E3"/>
<path d="M337.296 200.679H11.3716V289.992H337.296V200.679Z" fill="#B7B3AB"/>
<path d="M343 190.509H11.3716V204.213H343V190.509Z" fill="#CEC2C2"/>
<path fill-rule="evenodd" clip-rule="evenodd" d="M209.158 5.12793L205.417 205.364H257.133L259.12 5.12793H209.158Z" fill="#E3BF64"/>
<path fill-rule="evenodd" clip-rule="evenodd" d="M249.898 5L251.071 202.582L229.149 202.918L233.265 5.42374L249.898 5Z" fill="#E3BF64"/>
<path fill-rule="evenodd" clip-rule="evenodd" d="M185.458 5.12793L212.046 5.11194L217.558 202.582H180.592L185.458 5.12793Z" fill="#E3BF64"/>
<path fill-rule="evenodd" clip-rule="evenodd" d="M279.509 5.12793L275.776 205.364H312.256L307.789 5.12793H279.509Z" fill="#E3BF64"/>
<path fill-rule="evenodd" clip-rule="evenodd" d="M299.5 202.918L320.257 202.598V5L303.624 5.42374L299.5 202.918Z" fill="#E3BF64"/>
<path fill-rule="evenodd" clip-rule="evenodd" d="M255.817 5.12793L282.405 5.11194L282.565 202.582H250.951L255.817 5.12793Z" fill="#E3BF64"/>
<path fill-rule="evenodd" clip-rule="evenodd" d="M35.5663 5.39178L31.825 205.628H68.3047L63.8375 5.39178H35.5663Z" fill="#E3BF64"/>
<path fill-rule="evenodd" clip-rule="evenodd" d="M55.5574 203.182L76.3061 202.862V5.26385L59.6736 5.68759L55.5574 203.182Z" fill="#E3BF64"/>
<path fill-rule="evenodd" clip-rule="evenodd" d="M11.8661 5.39178L38.4541 5.37579L38.6217 202.846H7L11.8661 5.39178Z" fill="#E3BF64"/>
</g>
<path fill-rule="evenodd" clip-rule="evenodd" d="M58.2056 125.861H30.0381V159.521H58.2056V125.861Z" fill="#35668C"/>
<path fill-rule="evenodd" clip-rule="evenodd" d="M99.3681 69.4162L99.7191 67.3135C102.032 66.498 102.423 63.4039 101.283 59.1905C101.203 58.8787 96.4883 55.137 96.4883 55.137C96.4883 55.137 94.3584 56.3843 93.8957 56.5042C93.433 56.6241 90.7926 59.7342 90.7926 59.7342C90.7926 59.7342 89.4205 60.8375 89.8513 63.7877C90.1544 65.8904 92.7231 68.185 93.4091 69.5841C94.3026 71.391 97.9402 70.4875 98.2752 70.4796C98.6023 70.4796 99.1048 69.3123 99.3761 69.4082L99.3681 69.4162Z" fill="#EE9C94"/>
<path fill-rule="evenodd" clip-rule="evenodd" d="M91.5423 58.5349C91.5263 59.3104 92.1406 59.9501 92.9144 59.974C93.6882 59.99 94.3263 59.3824 94.3503 58.5989L93.9514 51.4033C93.9674 50.6278 93.9195 49.9562 93.1457 49.9402C92.3719 49.9242 92.2044 50.7477 92.1884 51.5233L91.5503 58.5349H91.5423Z" fill="#EE9C94"/>
<path fill-rule="evenodd" clip-rule="evenodd" d="M97.916 55.8406C97.9001 55.4249 97.2619 55.1131 96.4881 55.137C95.7143 55.161 95.1001 55.5208 95.116 55.9365L95.81 59.7662C95.826 60.1819 95.9058 60.5417 96.6796 60.5097C97.4533 60.4857 97.581 60.038 97.573 59.6143L97.924 55.8326L97.916 55.8406Z" fill="#F9BCAF"/>
<path fill-rule="evenodd" clip-rule="evenodd" d="M90.0745 60.1659C89.7873 60.4697 90.3377 61.0614 90.9041 61.597C91.4705 62.1247 92.1565 62.3086 92.4437 62.0048L94.6534 58.8068C94.9326 58.5029 95.132 58.1991 94.5656 57.6635C93.9993 57.1358 93.5924 57.3596 93.3052 57.6635L90.0745 60.1659Z" fill="#F9BCAF"/>
<path fill-rule="evenodd" clip-rule="evenodd" d="M100.533 56.0724C100.517 55.6567 99.8786 55.3449 99.1048 55.3688C98.331 55.3928 97.7168 55.7526 97.7327 56.1684L98.4267 59.998C98.4427 60.4137 98.5225 60.7735 99.2963 60.7415C100.07 60.7175 100.198 60.2698 100.19 59.8541L100.541 56.0724H100.533Z" fill="#F9BCAF"/>
<path fill-rule="evenodd" clip-rule="evenodd" d="M102.335 57.2637C102.32 56.848 101.873 56.5282 101.33 56.5442C100.788 56.5601 100.365 56.9119 100.381 57.3277L100.908 61.1653C100.924 61.581 100.979 61.9408 101.522 61.9168C102.064 61.9008 102.144 61.4531 102.136 61.0374L102.343 57.2637H102.335Z" fill="#F9BCAF"/>
<path fill-rule="evenodd" clip-rule="evenodd" d="M92.4439 62.0048L93.8319 63.8436C93.8319 63.8436 95.571 65.0349 95.7624 65.2508C96.6798 66.2582 96.0416 68.9125 96.0416 68.9125L95.2599 70.6874L93.7043 70.0958C93.7043 70.0958 93.2496 69.3043 92.8986 68.5607C92.5476 67.8252 90.5294 66.1062 90.1704 65.0349C89.8114 63.9636 89.4923 60.4857 90.0747 60.1659C90.657 59.8541 92.3641 60.07 92.3641 60.07L92.4439 61.9968V62.0048Z" fill="#F9BCAF"/>
<path fill-rule="evenodd" clip-rule="evenodd" d="M89.6598 153.061C89.6598 153.061 100.381 165.573 99.5834 194.643C99.2245 207.755 88.4792 231.244 88.4792 231.244L76.9042 231.172C76.9042 231.172 87.0114 212.064 87.833 196.786C88.6866 180.931 80.845 168.859 80.3584 168.531C79.4011 167.891 71.4877 168.555 71.4877 168.555C71.4877 168.555 71.0809 182.802 69.5732 197.305C67.874 213.687 65.0342 230.581 64.9544 231.004C64.7948 231.804 53.8022 231.164 53.8022 231.164C53.8022 231.164 57.1846 214.806 58.5806 196.985C60.0883 177.829 59.6176 157.01 59.5379 153.7C59.3783 147.312 89.6598 153.061 89.6598 153.061Z" fill="#1B2729"/>
<path fill-rule="evenodd" clip-rule="evenodd" d="M80.5816 168.531C80.4619 168.451 80.2385 168.395 79.9354 168.355C82.2648 168.235 85.1525 168.163 85.7029 168.531C86.1895 168.859 94.0311 180.923 93.1776 196.786C92.3559 212.056 82.2488 231.172 82.2488 231.172H77.1274C77.1274 231.172 87.2346 212.064 88.0562 196.786C88.9098 180.931 81.0682 168.859 80.5816 168.531Z" fill="#0B0E10"/>
<path fill-rule="evenodd" clip-rule="evenodd" d="M58.2614 199.784C58.5566 192.828 59.6096 162.015 59.7532 157.586L59.45 154.66L89.6517 153.061L92.7469 159.113L66.1987 160.4C66.3104 170.082 66.0871 185.401 65.409 191.805C64.3161 202.126 58.7321 231.412 58.7321 231.412L53.7942 231.156C53.7942 231.156 57.9344 207.299 58.2534 199.792L58.2614 199.784Z" fill="#0B0E10"/>
<path fill-rule="evenodd" clip-rule="evenodd" d="M52.6057 109.352C52.6057 109.352 56.9932 119.042 57.7111 123.591C58.4291 128.14 58.9077 154.5 58.9077 154.5C58.9077 154.5 69.1026 155.299 77.6302 154.899C86.1579 154.5 90.6171 152.981 90.6171 152.981C90.6171 152.981 83.9242 116.563 83.9242 116.323C83.9242 116.083 85.5197 109.455 85.5197 109.455C85.5197 109.455 82.249 104.027 70.2194 103.867C58.1898 103.707 52.3664 109.112 52.6057 109.352Z" fill="#232E30"/>
<path fill-rule="evenodd" clip-rule="evenodd" d="M76.2739 104.507L73.801 130.059L61.9309 104.906C61.9309 104.906 66.0312 103.307 69.4215 103.467C71.1685 103.547 72.0141 103.403 76.2739 104.507Z" fill="#D4D2D1"/>
<path fill-rule="evenodd" clip-rule="evenodd" d="M73.801 130.067L74.479 124.214L72.5246 114.093C72.5246 114.093 72.3172 114.692 70.8494 114.692C69.3896 114.692 69.0146 114.213 69.0146 114.213L69.6927 121.456L73.793 130.059L73.801 130.067Z" fill="#EE3E3B"/>
<path fill-rule="evenodd" clip-rule="evenodd" d="M76.0027 111.214C76.0027 111.214 87.3622 98.3184 89.7075 95.2323C89.5001 94.9924 99.7668 96.1437 99.6312 97.8067C99.2084 102.924 88.152 117.882 84.8175 121.304C81.9936 121.056 82.8312 115.26 82.7753 115.252C82.544 115.188 79.0819 109.264 79.0819 109.264C79.0819 109.264 77.7577 109.639 76.0027 111.222V111.214Z" fill="#0B0E10"/>
<path fill-rule="evenodd" clip-rule="evenodd" d="M76.0027 111.214C76.0027 111.214 86.5007 99.3018 89.3884 95.64C92.332 96.0638 96.3047 96.9032 96.2169 97.9426C95.7862 103.115 89.7713 109.887 86.4608 113.277C86.046 113.701 84.4745 123.095 83.8682 123.271C79.728 122.727 76.0027 111.214 76.0027 111.214Z" fill="#232E30"/>
<path fill-rule="evenodd" clip-rule="evenodd" d="M101.354 68.2889L91.7816 69.1763C91.3907 67.0257 91.3987 85.91 90.4175 93.0256C88.479 98.814 85.3679 100.317 85.3679 100.317C85.3679 100.317 87.8728 106.377 94.773 103.403C101.187 104.387 100.995 89.4998 101.362 82.9598C101.721 76.4199 101.362 68.2889 101.362 68.2889H101.354Z" fill="#0B0E10"/>
<path fill-rule="evenodd" clip-rule="evenodd" d="M98.1235 68.5847L91.7816 69.1763C91.7736 69.1204 91.7656 69.0884 91.7577 69.0564H91.6938C91.3827 70.1278 91.3189 86.5096 90.4175 93.0256C88.479 98.8061 85.3679 100.317 85.3679 100.317C85.3679 100.317 86.6842 103.483 90.0186 104.115C87.8409 105.938 89.7953 105.794 90.3218 105.562C96.7354 106.545 97.7485 89.6757 98.1155 83.1357C98.4505 77.0595 98.1713 69.6161 98.1235 68.5847Z" fill="#232E30"/>
<path fill-rule="evenodd" clip-rule="evenodd" d="M66.3742 107.737C66.5736 109.36 68.3924 110.471 70.4426 110.215C72.5007 109.967 74.0004 108.448 73.809 106.833L73.2585 102.236C73.0591 100.613 71.2403 99.5016 69.1901 99.7495C67.14 99.9973 65.6323 101.516 65.8238 103.131L66.3822 107.729L66.3742 107.737Z" fill="#EE9C94"/>
<path fill-rule="evenodd" clip-rule="evenodd" d="M73.4261 110.823L70.3629 110.199L67.3315 110.519L69.0227 114.213L69.5333 114.724C70.2432 115.444 71.4159 115.404 72.07 114.628L72.5247 114.093L73.4182 110.823H73.4261Z" fill="#D42027"/>
<path fill-rule="evenodd" clip-rule="evenodd" d="M70.4505 110.223C70.4505 110.223 66.5975 114.796 66.43 115.907C66.2705 117.027 62.0984 104.89 62.0984 104.89C62.0984 104.89 65.744 103.195 65.8317 103.435C67.467 107.625 70.4425 110.223 70.4425 110.223H70.4505Z" fill="#F3E8E7"/>
<path fill-rule="evenodd" clip-rule="evenodd" d="M70.3628 110.199C70.3628 110.199 74.8619 113.045 75.2209 114.117C75.5799 115.188 75.556 104.235 75.556 104.235C75.556 104.235 73.45 103.467 73.442 103.715C73.4021 105.954 70.3628 110.199 70.3628 110.199Z" fill="#F3E8E7"/>
<path fill-rule="evenodd" clip-rule="evenodd" d="M73.4103 129.283L58.7083 110.383L62.2901 109.663C62.2901 109.663 59.4581 108.864 56.2114 107.465C58.2616 106.169 63.1596 104.435 63.1596 104.435L73.4023 129.283H73.4103Z" fill="#2B3A3A"/>
<path fill-rule="evenodd" clip-rule="evenodd" d="M73.9607 130.003L81.0524 109.783L77.4627 109.064L81.89 106.849L75.6758 104.307L73.9607 130.003Z" fill="#2B3A3A"/>
<path fill-rule="evenodd" clip-rule="evenodd" d="M72.9475 134.936C72.9475 135.495 73.4022 135.951 73.9606 135.951C74.519 135.951 74.9737 135.495 74.9737 134.936C74.9737 134.376 74.519 133.92 73.9606 133.92C73.4022 133.92 72.9475 134.376 72.9475 134.936Z" fill="#A29899"/>
<path fill-rule="evenodd" clip-rule="evenodd" d="M73.6655 140.444C73.6655 141.004 74.1202 141.46 74.6786 141.46C75.237 141.46 75.6917 141.004 75.6917 140.444C75.6917 139.885 75.237 139.421 74.6786 139.421C74.1202 139.421 73.6655 139.877 73.6655 140.444Z" fill="#A29899"/>
<path fill-rule="evenodd" clip-rule="evenodd" d="M74.144 146.193C74.144 146.752 74.5987 147.208 75.1572 147.208C75.7156 147.208 76.1703 146.752 76.1703 146.193C76.1703 145.633 75.7156 145.177 75.1572 145.177C74.5987 145.177 74.144 145.633 74.144 146.193Z" fill="#A29899"/>
<path fill-rule="evenodd" clip-rule="evenodd" d="M74.854 151.469C74.854 152.029 75.3087 152.485 75.8671 152.485C76.4255 152.485 76.8802 152.029 76.8802 151.469C76.8802 150.91 76.4255 150.454 75.8671 150.454C75.3087 150.454 74.854 150.91 74.854 151.469Z" fill="#A29899"/>
<path fill-rule="evenodd" clip-rule="evenodd" d="M49.0636 87.4451C48.7844 89.3239 50.0448 91.0589 51.8796 91.3307C53.7064 91.6025 57.0807 91.0269 57.3519 89.148C57.6232 87.2692 54.7035 84.7987 52.8767 84.5349C51.05 84.263 49.3428 85.5662 49.0716 87.4451H49.0636Z" fill="#F6A399"/>
<path fill-rule="evenodd" clip-rule="evenodd" d="M53.9617 87.2612C54.5122 95.712 61.5002 103.875 70.2193 103.875C78.9384 103.875 85.5196 95.728 85.5196 87.2612C85.5196 78.7944 83.6369 69.848 74.9258 69.848C66.2147 69.848 52.6934 67.8092 53.9697 87.2612H53.9617Z" fill="#F9BCAF"/>
<path fill-rule="evenodd" clip-rule="evenodd" d="M58.1019 70.9672C56.4985 73.5656 56.9372 79.362 57.3042 84.9426C57.8546 93.3934 64.1327 102.26 72.8438 101.868C76.3857 101.708 79.8158 99.7495 81.4113 98.5502C78.6592 101.836 74.7344 104.179 70.2193 104.179C61.5082 104.179 54.5201 96.0158 53.9617 87.573C53.2198 76.196 52.6455 72.3424 58.1019 70.9592V70.9672Z" fill="#F6A399"/>
<path d="M68.5203 81.4168C68.3448 81.4168 68.1693 81.3449 68.0496 81.2089C67.5311 80.6413 66.8211 80.3055 66.0553 80.2655C65.2895 80.2335 64.5476 80.4974 63.9732 81.0091C63.71 81.2489 63.3032 81.2249 63.0718 80.9611C62.8325 80.6973 62.8564 80.2895 63.1117 80.0576C63.9334 79.3061 65.0103 78.9303 66.1111 78.9783C67.22 79.0343 68.249 79.514 68.9989 80.3455C69.2382 80.6093 69.2143 81.0171 68.959 81.2489C68.8393 81.3608 68.6798 81.4168 68.5282 81.4168H68.5203ZM80.9647 81.121C80.7972 81.121 80.6296 81.057 80.502 80.9211C79.9436 80.3375 79.1938 80.0017 78.396 79.9857C77.6382 79.9857 76.9043 80.2495 76.3618 80.7692C76.1066 81.0171 75.6997 81.0091 75.4604 80.7452C75.2131 80.4894 75.2211 80.0816 75.4764 79.8338C76.2741 79.0743 77.3111 78.6985 78.4279 78.6905C79.5687 78.7145 80.6376 79.1862 81.4274 80.0257C81.6747 80.2815 81.6587 80.6893 81.4034 80.9371C81.2758 81.057 81.1163 81.113 80.9647 81.113V81.121Z" fill="#331410"/>
<path d="M71.0888 98.0225C68.5601 98.0225 66.5259 96.8153 66.1749 94.9364C66.1111 94.5846 66.3424 94.2488 66.6854 94.1929C67.0364 94.1289 67.3715 94.3608 67.4353 94.7046C67.7065 96.1837 69.972 97.0631 72.3891 96.6154C72.7321 96.5434 73.0752 96.7833 73.131 97.1271C73.1948 97.4789 72.9635 97.8146 72.6205 97.8706C72.094 97.9666 71.5834 98.0145 71.0888 98.0145V98.0225ZM52.3344 90.5551C51.3692 90.5551 50.4837 89.9475 50.1646 88.9881C49.7737 87.8288 50.3641 86.5736 51.5048 86.1259C51.8319 85.9979 52.2068 86.1578 52.3344 86.4936C52.4621 86.8214 52.3025 87.1972 51.9675 87.3251C51.4649 87.525 51.2017 88.0767 51.3692 88.5883C51.5367 89.1 52.0871 89.3879 52.6057 89.2359C52.9487 89.14 53.2997 89.3399 53.3954 89.6837C53.4911 90.0275 53.2917 90.3792 52.9487 90.4752C52.7413 90.5311 52.5339 90.5631 52.3264 90.5631L52.3344 90.5551Z" fill="#ED7660"/>
<path fill-rule="evenodd" clip-rule="evenodd" d="M77.8135 87.3411C77.8135 88.4444 78.3878 89.3479 79.0978 89.3479C79.8078 89.3479 80.3821 88.4444 80.3821 87.3411C80.3821 86.2378 79.8078 85.3344 79.0978 85.3344C78.3878 85.3344 77.8135 86.2298 77.8135 87.3411Z" fill="#3B150E"/>
<path fill-rule="evenodd" clip-rule="evenodd" d="M79.0103 86.3258C79.0103 86.6536 79.2017 86.9254 79.441 86.9254C79.6803 86.9254 79.8718 86.6616 79.8718 86.3258C79.8718 85.99 79.6803 85.7261 79.441 85.7261C79.2017 85.7261 79.0103 85.998 79.0103 86.3258Z" fill="white"/>
<path fill-rule="evenodd" clip-rule="evenodd" d="M65.0898 87.3971C65.0898 88.5004 65.6642 89.4038 66.3742 89.4038C67.0841 89.4038 67.6585 88.5084 67.6585 87.3971C67.6585 86.2858 67.0841 85.3903 66.3742 85.3903C65.6642 85.3903 65.0898 86.2858 65.0898 87.3971Z" fill="#3B150E"/>
<path fill-rule="evenodd" clip-rule="evenodd" d="M66.2944 86.5656C66.2944 86.8934 66.4859 87.1653 66.7252 87.1653C66.9645 87.1653 67.156 86.8934 67.156 86.5656C67.156 86.2378 66.9645 85.966 66.7252 85.966C66.4859 85.966 66.2944 86.2298 66.2944 86.5656Z" fill="white"/>
<path d="M72.5486 92.49C71.9823 92.49 71.4318 92.2821 71.009 91.8904C70.7458 91.6505 70.7298 91.2428 70.9692 90.9869C71.2085 90.7231 71.6153 90.7071 71.8706 90.9469C72.0939 91.1468 72.3891 91.2507 72.6922 91.1948C73.2267 91.1148 73.6016 90.6351 73.5458 90.0995C73.5139 89.7477 73.7691 89.4359 74.1201 89.3959C74.4632 89.3719 74.7823 89.6198 74.8221 89.9715C74.9418 91.1948 74.0803 92.2901 72.8757 92.466C72.764 92.482 72.6523 92.49 72.5486 92.49Z" fill="#ED7660"/>
<path fill-rule="evenodd" clip-rule="evenodd" d="M50.0129 70.9433C50.6192 67.9931 53.2437 65.9064 56.2511 65.9863C57.0408 66.0103 57.8625 66.0103 58.7799 65.9224C58.9155 65.9064 59.0511 65.8984 59.2026 65.8824C59.6095 65.8344 63.1514 63.1001 66.3103 61.9408C67.0363 61.677 67.1081 63.4599 67.834 63.1401C70.7536 61.8609 73.4739 59.7582 74.2796 59.6222C75.891 59.3504 76.3377 63.34 77.1514 63.0521C78.0448 62.7403 83.1263 58.351 83.8442 58.1032C85.0169 57.6954 85.2403 61.9648 85.1286 66.7858C85.1206 67.2575 86.3491 67.7452 86.3331 68.2249C86.1417 73.7335 84.8972 79.8418 84.8972 79.8418C84.8972 79.8418 83.2061 71.7987 77.3109 73.0699C74.5348 73.6696 71.0089 75.7723 66.6374 74.7889C64.3639 74.2772 61.6197 73.5337 60.0243 73.6696C57.9263 73.8535 56.2192 75.3086 55.5571 77.2354C55.4055 77.6831 55.2858 78.1468 55.2539 78.6345C55.0864 81.2569 56.2271 84.9106 56.3468 86.8854C56.3947 87.7089 55.0385 88.4604 54.9987 88.4764C54.2408 88.9162 53.8818 86.2458 52.8847 85.3184C51.7759 84.279 51.2893 84.7188 51.2893 84.7188C51.2893 84.7188 49.4944 81.081 49.4944 75.5724C49.4944 73.9334 49.7177 72.3264 50.0049 70.9193L50.0129 70.9433Z" fill="#2F1210"/>
<path fill-rule="evenodd" clip-rule="evenodd" d="M83.6448 59.0067C83.6448 59.0067 83.7565 61.9808 82.2089 65.2348C79.9354 70.0238 74.112 71.9826 70.4345 71.463C54.7753 69.2483 54.1212 75.5964 54.177 78.2907C54.2408 80.9851 55.0146 86.7335 55.0146 86.7335C55.0146 86.7335 47.6038 65.8264 61.9468 67.8092C79.1536 70.1837 83.6368 59.0067 83.6368 59.0067H83.6448Z" fill="#543119"/>
<path fill-rule="evenodd" clip-rule="evenodd" d="M66.3343 125.861V158.633H58.2056V125.861H66.3343Z" fill="#D6D4D3"/>
<path d="M65.9755 158.633H65.8478V125.861H65.9755V158.633ZM65.6245 158.633H65.4968V125.861H65.6245V158.633ZM65.2735 158.633H65.1458V125.861H65.2735V158.633ZM64.9304 158.633H64.8028V125.861H64.9304V158.633ZM64.5794 158.633H64.4518V125.861H64.5794V158.633ZM64.2364 158.633H64.1088V125.861H64.2364V158.633ZM63.8854 158.633H63.7578V125.861H63.8854V158.633ZM63.5344 158.633H63.4068V125.861H63.5344V158.633ZM63.1834 158.633H63.0558V125.861H63.1834V158.633ZM62.8404 158.633H62.7128V125.861H62.8404V158.633ZM62.4894 158.633H62.3618V125.861H62.4894V158.633ZM62.1464 158.633H62.0188V125.861H62.1464V158.633ZM61.7954 158.633H61.6678V125.861H61.7954V158.633ZM61.4444 158.633H61.3168V125.861H61.4444V158.633ZM61.0934 158.633H60.9658V125.861H61.0934V158.633ZM60.7504 158.633H60.6227V125.861H60.7504V158.633ZM60.3994 158.633H60.2717V125.861H60.3994V158.633ZM60.0564 158.633H59.9287V125.861H60.0564V158.633ZM59.7054 158.633H59.5777V125.861H59.7054V158.633ZM59.3544 158.633H59.2267V125.861H59.3544V158.633ZM59.0034 158.633H58.8757V125.861H59.0034V158.633ZM58.6604 158.633H58.5327V125.861H58.6604V158.633Z" fill="#BAB9B9"/>
<path fill-rule="evenodd" clip-rule="evenodd" d="M66.2067 126.733H30.0381V125.813H66.2067V126.733Z" fill="#5496C2"/>
<path fill-rule="evenodd" clip-rule="evenodd" d="M43.0249 163.35C40.2807 163.51 38.3183 165.581 36.3719 162.143C36.2522 161.935 35.646 159.92 35.7098 158.785C35.7895 157.362 36.6591 155.347 36.6591 155.347L36.0608 150.15C37.1217 149.735 40.5599 151.965 42.3388 151.182L42.4266 151.653L42.9291 152.821L39.2197 154.46C39.2197 154.46 38.5576 159.529 39.2437 160.92C39.9297 162.311 41.7405 162.391 41.7405 162.391C41.7405 162.391 44.5007 161.631 45.785 161.687L45.9605 161.719C44.9793 162.495 43.5833 163.318 43.0328 163.35H43.0249Z" fill="#E9938B"/>
<path fill-rule="evenodd" clip-rule="evenodd" d="M41.7246 162.391C41.0146 163.766 38.3901 161.599 38.6215 158.441C37.9354 157.05 39.2038 154.46 39.2038 154.46L42.9132 152.821C42.9132 152.821 43.1685 154.476 45.9047 154.955C48.0665 155.787 52.8129 155.051 48.5292 157.594C47.205 157.73 45.9446 157.282 45.2266 157.522C44.2853 157.842 43.7987 158.281 43.9343 159.313C45.3383 160.992 50.5075 159.417 50.8346 159.968C50.9622 160.192 50.005 162.391 46.4471 162.487C44.7958 162.103 43.344 161.943 41.7326 162.383L41.7246 162.391Z" fill="#F6A399"/>
<path fill-rule="evenodd" clip-rule="evenodd" d="M35.4786 131.202C32.184 141.708 33.8113 153.34 33.8113 153.34H44.772C44.772 153.34 43.1048 137.654 45.9606 132.321C48.8164 126.989 53.0284 121.496 56.7617 120.537C58.413 120.113 53.3475 108.832 53.3475 108.832C53.3475 108.832 41.1105 113.213 35.4706 131.202H35.4786Z" fill="#2D3C3D"/>
<path fill-rule="evenodd" clip-rule="evenodd" d="M38.4699 153.332H44.7798C44.7798 153.332 43.1126 137.646 45.9685 132.313C48.8243 126.981 53.0363 121.488 56.7696 120.529C57.6072 120.313 56.7138 117.291 55.6289 114.372C51.6961 116.763 44.4448 122.679 40.4722 135.359C38.4061 141.963 38.2784 149.007 38.4699 153.332Z" fill="#0F1717"/>
<path fill-rule="evenodd" clip-rule="evenodd" d="M34.3218 150.87C34.3218 151.43 34.7765 151.885 35.3349 151.885C35.8933 151.885 36.348 151.43 36.348 150.87C36.348 150.31 35.8933 149.854 35.3349 149.854C34.7765 149.854 34.3218 150.31 34.3218 150.87Z" fill="#A29899"/>
<path fill-rule="evenodd" clip-rule="evenodd" d="M46.176 133.856H53.531V151.494H46.176V133.856Z" fill="#FDCF9D"/>
<path fill-rule="evenodd" clip-rule="evenodd" d="M67.1721 125.861H66.3345V159.521H67.1721V125.861Z" fill="#35668C"/>
<path fill-rule="evenodd" clip-rule="evenodd" d="M61.7476 139.405H68.241V141.372H61.7476V139.405Z" fill="white"/>
<path fill-rule="evenodd" clip-rule="evenodd" d="M64.356 136.783H70.8494V138.757H64.356V136.783Z" fill="white"/>
<path d="M145.397 148.703C145.277 148.032 144.878 146.896 144.407 145.585C143.179 142.123 141.504 137.374 142.924 135.463C143.378 134.856 144.104 134.576 145.077 134.616L145.054 135.096C144.24 135.056 143.665 135.272 143.306 135.751C142.038 137.454 143.737 142.251 144.862 145.425C145.333 146.76 145.74 147.912 145.867 148.623L145.397 148.711V148.703Z" fill="#0B0E10"/>
<path fill-rule="evenodd" clip-rule="evenodd" d="M147.176 141.939C147.83 142.027 148.284 142.635 148.197 143.291L144.049 173.704C143.961 174.359 143.355 174.815 142.7 174.727C142.046 174.639 141.592 174.032 141.679 173.376L145.827 142.963C145.915 142.307 146.521 141.844 147.176 141.939Z" fill="#0B0E10"/>
<path fill-rule="evenodd" clip-rule="evenodd" d="M155.304 129.955C157.777 137.574 145.357 141.1 143.187 142.019L141.089 138.318C141.089 138.318 146.083 134.264 148.54 131.898C149.8 126.157 146.466 122.895 143.841 119.513C143.562 119.513 148.22 111.654 148.22 111.654C148.22 111.654 154.219 121.92 155.304 129.955Z" fill="#C09E49"/>
<path fill-rule="evenodd" clip-rule="evenodd" d="M115.458 129.955C112.491 137.574 124.68 141.1 126.794 142.019L129.131 138.318C129.131 138.318 124.401 134.264 122.095 131.898C121.21 126.157 124.752 122.895 127.592 119.513C127.871 119.513 125.047 110.343 125.047 110.343C125.047 110.343 117.046 121.92 115.45 129.955H115.458Z" fill="#C09E49"/>
<path fill-rule="evenodd" clip-rule="evenodd" d="M155.304 129.955C155.52 131.93 154.929 132.657 154.475 133.944C150.925 138.046 145.086 139.877 142.788 141.26L139.701 137.534C139.701 137.534 145.038 134.264 148.54 131.89C151.898 129.715 149.784 123.703 145.101 117.666C143.945 114.173 146.928 109.344 148.221 111.646C148.221 111.646 154.219 121.912 155.304 129.947V129.955Z" fill="#E3BF64"/>
<path fill-rule="evenodd" clip-rule="evenodd" d="M125.414 122.064C126.802 118.57 126.459 107.936 125.015 110.247C122.885 115.316 124.847 117.842 125.414 122.064Z" fill="#A9A5B0"/>
<path fill-rule="evenodd" clip-rule="evenodd" d="M146.059 140.924C144.758 141.444 143.689 141.796 143.179 142.011L142.676 141.124L139.693 137.526C139.693 137.526 140.722 136.895 142.174 135.983L146.059 140.916V140.924Z" fill="#1B2729"/>
<path fill-rule="evenodd" clip-rule="evenodd" d="M123.986 140.924C125.254 141.444 126.299 141.796 126.794 142.011L127.352 141.124L130.567 137.526C130.567 137.526 129.578 136.895 128.19 135.983L123.986 140.916V140.924Z" fill="#1B2729"/>
<path fill-rule="evenodd" clip-rule="evenodd" d="M144.407 140.532C144.407 140.82 144.16 141.06 143.873 141.06C143.586 141.06 143.346 140.82 143.354 140.532C143.354 140.236 143.602 140.005 143.889 140.005C144.176 140.005 144.415 140.244 144.407 140.532Z" fill="#A29899"/>
<path fill-rule="evenodd" clip-rule="evenodd" d="M125.661 140.532C125.645 140.82 125.876 141.06 126.164 141.06C126.451 141.06 126.698 140.82 126.714 140.532C126.73 140.236 126.499 140.005 126.211 140.005C125.924 140.005 125.669 140.244 125.661 140.532Z" fill="#A29899"/>
<path fill-rule="evenodd" clip-rule="evenodd" d="M142.676 108.384C142.676 108.672 142.437 108.912 142.15 108.912C141.863 108.912 141.623 108.672 141.623 108.384C141.623 108.096 141.863 107.856 142.15 107.856C142.437 107.856 142.676 108.096 142.676 108.384Z" fill="#A29899"/>
<path fill-rule="evenodd" clip-rule="evenodd" d="M133.582 206.955C149.84 206.955 163.018 208.482 163.018 210.369C163.018 212.256 149.84 213.783 133.582 213.783C117.325 213.783 104.146 212.256 104.146 210.369C104.146 208.482 117.325 206.955 133.582 206.955Z" fill="#797A7C"/>
<path fill-rule="evenodd" clip-rule="evenodd" d="M124.353 198.64L124.911 202.662C124.911 202.662 128.772 202.894 128.86 202.454C128.948 202.014 128.126 198.113 128.126 198.113L124.353 198.64Z" fill="#8C7028"/>
<path fill-rule="evenodd" clip-rule="evenodd" d="M141.217 198.64L141.775 202.662C141.775 202.662 145.636 202.894 145.724 202.454C145.811 202.014 144.99 198.113 144.99 198.113L141.217 198.64Z" fill="#8C7028"/>
<path fill-rule="evenodd" clip-rule="evenodd" d="M121.704 142.651C121.704 142.651 119.024 149.815 119.606 171.177C119.869 180.811 122.534 200.399 122.534 200.399L130.383 200.167C130.383 200.167 128.533 189.206 127.926 177.989C127.296 166.34 128.389 154.404 128.748 154.164C129.45 153.692 134.372 154.164 134.372 154.164C134.372 154.164 134.667 164.629 135.776 175.287C137.028 187.327 139.111 199.736 139.174 200.048C139.294 200.631 147.367 200.167 147.367 200.167C147.367 200.167 144.886 188.151 143.857 175.055C142.748 160.984 143.091 145.681 143.155 143.251C143.275 138.558 121.712 142.659 121.712 142.659L121.704 142.651Z" fill="#E3BF64"/>
<path fill-rule="evenodd" clip-rule="evenodd" d="M121.704 142.651C121.704 142.651 119.024 149.815 119.606 171.177C119.869 180.811 122.534 200.399 122.534 200.399L128.517 200.223C124.855 191.461 124.289 179.204 128.413 155.979C128.541 154.867 128.66 154.22 128.74 154.164C129.442 153.692 134.364 154.164 134.364 154.164C134.364 154.164 134.659 164.629 135.768 175.287C137.02 187.327 139.103 199.736 139.166 200.048C139.222 200.343 141.28 200.367 143.314 200.327C139.15 182.171 137.818 162.863 140.179 142.035L131.867 141.244C126.698 141.708 121.704 142.651 121.704 142.651Z" fill="#C09E49"/>
<path fill-rule="evenodd" clip-rule="evenodd" d="M113.145 206.739C110.791 208.642 111.86 210.553 111.86 210.553C111.86 210.553 114.979 211.425 117.947 211.377C121.577 211.321 125.789 209.266 125.789 209.266L125.677 210.337H130.527C130.527 210.337 131.596 208.067 130.902 205.604C130.208 203.142 129.075 201.878 129.075 201.878C129.075 201.878 125.549 202.446 124.791 202.254C124.034 202.062 121.122 205.004 119.638 205.628C118.178 206.244 114.66 205.508 113.137 206.747L113.145 206.739Z" fill="#2A2B2B"/>
<path fill-rule="evenodd" clip-rule="evenodd" d="M111.621 209.394C111.605 210.089 111.86 210.545 111.86 210.545C111.86 210.545 114.979 211.417 117.947 211.369C121.577 211.313 125.789 209.258 125.789 209.258L125.677 210.329H130.176C130.272 209.554 130.272 208.626 130.001 207.667C129.306 205.204 128.174 203.941 128.174 203.941C128.174 203.941 124.648 204.509 123.89 204.317C123.132 204.125 120.22 207.067 118.737 207.691C117.277 208.306 113.759 207.571 112.235 208.81C111.996 209.01 111.789 209.202 111.613 209.394H111.621Z" fill="#0B0E10"/>
<path fill-rule="evenodd" clip-rule="evenodd" d="M130.008 206.739C127.655 208.642 128.724 210.553 128.724 210.553C128.724 210.553 131.843 211.425 134.811 211.377C138.44 211.321 142.652 209.266 142.652 209.266L142.541 210.337H147.391C147.391 210.337 148.46 208.067 147.766 205.604C147.072 203.142 145.939 201.878 145.939 201.878C145.939 201.878 142.413 202.446 141.655 202.254C140.897 202.062 137.986 205.004 136.502 205.628C135.042 206.244 131.524 205.508 130.001 206.747L130.008 206.739Z" fill="#2A2B2B"/>
<path fill-rule="evenodd" clip-rule="evenodd" d="M130.184 208.426C129.745 209.626 130.216 210.553 130.216 210.553C130.216 210.553 133.08 211.425 135.8 211.377C139.127 211.321 142.996 209.266 142.996 209.266L142.892 210.337H146.705C146.856 209.474 146.928 208.338 146.617 207.155C145.979 204.693 144.942 203.429 144.942 203.429C144.942 203.429 141.703 203.997 141.009 203.805C140.315 203.613 137.643 206.556 136.287 207.179C134.947 207.795 131.724 207.059 130.328 208.298C130.28 208.346 130.224 208.386 130.176 208.434L130.184 208.426Z" fill="#0B0E10"/>
<path fill-rule="evenodd" clip-rule="evenodd" d="M148.069 111.302C148.069 111.302 145.141 118.17 144.615 121.512C144.088 124.854 144.2 139.629 143.338 140.372C143.338 140.372 136.247 144.81 129.985 144.514C123.722 144.218 122.223 139.613 122.223 139.613C121.656 137.742 124.815 119.417 124.815 119.241C124.815 119.066 125.063 110.343 125.063 110.343C125.063 110.343 128.062 107.233 135.433 107.017C144.272 106.897 148.252 111.126 148.077 111.302H148.069Z" fill="#E3BF64"/>
<path fill-rule="evenodd" clip-rule="evenodd" d="M130.974 107.489L132.793 126.269L141.52 107.785C141.52 107.785 138.504 106.609 136.015 106.729C134.731 106.793 134.109 106.681 130.982 107.489H130.974Z" fill="#A9A5B0"/>
<path fill-rule="evenodd" clip-rule="evenodd" d="M138.249 109.855C138.106 111.047 136.765 111.862 135.258 111.678C133.75 111.494 132.641 110.383 132.785 109.192L133.192 105.81C133.335 104.618 134.675 103.803 136.183 103.987C137.691 104.171 138.8 105.282 138.656 106.473L138.249 109.855Z" fill="#EE9C94"/>
<path fill-rule="evenodd" clip-rule="evenodd" d="M150.965 94.9445C151.164 96.3196 150.239 97.5988 148.899 97.7987C147.559 97.9986 145.078 97.5748 144.878 96.1997C144.679 94.8245 146.825 93.0097 148.165 92.8098C149.505 92.6099 150.757 93.5693 150.965 94.9445Z" fill="#F6A399"/>
<path fill-rule="evenodd" clip-rule="evenodd" d="M147.367 94.8086C146.96 101.021 141.823 107.017 135.425 107.017C129.02 107.017 124.185 101.037 124.185 94.8086C124.185 88.5804 125.573 82.0165 131.971 82.0165C138.377 82.0165 148.308 80.5214 147.367 94.8086Z" fill="#EE9C94"/>
<path fill-rule="evenodd" clip-rule="evenodd" d="M147.367 94.8085C147.032 99.8854 143.538 104.826 138.767 106.449C138.632 106.449 138.496 106.457 138.353 106.457C131.947 106.457 127.113 100.477 127.113 94.2489C127.113 89.1 128.062 83.7114 132.019 82.0084C138.424 82.0004 148.3 80.5533 147.367 94.8005V94.8085Z" fill="#F9BCAF"/>
<path fill-rule="evenodd" clip-rule="evenodd" d="M124.289 92.0343C124.712 86.7815 126.522 82.0165 131.971 82.0165C136.741 82.0165 143.474 81.185 146.202 86.6776C143.801 91.2028 138.648 94.3289 132.673 94.3289C129.562 94.3289 126.682 93.4814 124.289 92.0343Z" fill="#EE9C94"/>
<path fill-rule="evenodd" clip-rule="evenodd" d="M128.828 90.6271C129.003 90.5872 129.187 90.5632 129.362 90.5632C130.367 90.5632 131.285 91.2508 131.54 92.2741C131.588 92.466 131.779 92.5779 131.963 92.53C132.154 92.482 132.266 92.2901 132.218 92.1062C131.891 90.7551 130.687 89.8596 129.362 89.8596C129.131 89.8596 128.9 89.8836 128.66 89.9476C128.469 89.9955 128.357 90.1874 128.405 90.3713C128.453 90.5632 128.644 90.6751 128.828 90.6271Z" fill="#331410"/>
<path fill-rule="evenodd" clip-rule="evenodd" d="M136.159 92.458C136.39 91.8424 136.861 91.3867 137.427 91.1548C137.93 90.9549 138.496 90.9309 139.039 91.1388C139.222 91.2108 139.422 91.1148 139.493 90.931C139.565 90.7471 139.469 90.5472 139.286 90.4752C138.576 90.2114 137.818 90.2354 137.164 90.4992C136.422 90.795 135.8 91.3947 135.497 92.2102C135.425 92.394 135.521 92.5939 135.704 92.6659C135.888 92.7298 136.087 92.6419 136.159 92.458Z" fill="#331410"/>
<path fill-rule="evenodd" clip-rule="evenodd" d="M148.141 97.0551C148.284 97.0951 148.428 97.1111 148.563 97.1111C149.218 97.1111 149.824 96.7034 150.047 96.0398C150.103 95.8799 150.127 95.712 150.127 95.5441C150.127 94.9125 149.744 94.3208 149.13 94.081C148.946 94.009 148.747 94.097 148.675 94.2809C148.603 94.4647 148.691 94.6646 148.875 94.7366C149.218 94.8725 149.425 95.1923 149.425 95.5361C149.425 95.624 149.409 95.72 149.377 95.8079C149.257 96.1677 148.922 96.3915 148.563 96.3915C148.484 96.3915 148.404 96.3836 148.332 96.3596C148.149 96.3036 147.949 96.4155 147.901 96.5994C147.846 96.7833 147.957 96.9832 148.149 97.0312L148.141 97.0551Z" fill="#ED7660"/>
<path fill-rule="evenodd" clip-rule="evenodd" d="M129.841 94.8725C129.841 95.688 129.418 96.3436 128.9 96.3436C128.381 96.3436 127.958 95.68 127.958 94.8725C127.958 94.065 128.381 93.4014 128.9 93.4014C129.418 93.4014 129.841 94.065 129.841 94.8725Z" fill="#3B150E"/>
<path fill-rule="evenodd" clip-rule="evenodd" d="M128.964 94.1209C128.964 94.3608 128.82 94.5607 128.645 94.5607C128.469 94.5607 128.325 94.3608 128.325 94.1209C128.325 93.8811 128.469 93.6812 128.645 93.6812C128.82 93.6812 128.964 93.8811 128.964 94.1209Z" fill="white"/>
<path fill-rule="evenodd" clip-rule="evenodd" d="M139.198 94.9125C139.198 95.728 138.775 96.3836 138.257 96.3836C137.738 96.3836 137.316 95.72 137.316 94.9125C137.316 94.097 137.738 93.4414 138.257 93.4414C138.775 93.4414 139.198 94.105 139.198 94.9125Z" fill="#3B150E"/>
<path fill-rule="evenodd" clip-rule="evenodd" d="M138.305 94.2968C138.305 94.5367 138.161 94.7366 137.986 94.7366C137.81 94.7366 137.667 94.5367 137.667 94.2968C137.667 94.057 137.81 93.8571 137.986 93.8571C138.161 93.8571 138.305 94.057 138.305 94.2968Z" fill="white"/>
<path fill-rule="evenodd" clip-rule="evenodd" d="M132.155 96.8153V96.9672C132.155 97.7347 132.705 98.4063 133.487 98.5182C133.559 98.5262 133.638 98.5342 133.71 98.5342C134.109 98.5342 134.476 98.3823 134.755 98.1265C134.899 97.9985 134.907 97.7747 134.779 97.6308C134.651 97.4869 134.428 97.4789 134.284 97.6068C134.133 97.7507 133.925 97.8307 133.71 97.8307H133.582C133.152 97.7587 132.849 97.3909 132.849 96.9672V96.8792C132.872 96.6874 132.729 96.5115 132.537 96.4955C132.346 96.4795 132.17 96.6154 132.155 96.8153Z" fill="#ED7660"/>
<path fill-rule="evenodd" clip-rule="evenodd" d="M150.271 82.824C149.824 80.6573 147.894 79.1222 145.684 79.1782C145.11 79.1942 144.503 79.1942 143.825 79.1302C143.721 79.1222 143.626 79.1142 143.522 79.0983C143.227 79.0583 140.618 77.0515 138.297 76.204C137.763 76.0122 137.707 77.3234 137.172 77.0835C135.026 76.1481 133.032 74.597 132.442 74.5011C131.261 74.3012 130.926 77.2354 130.336 77.0275C129.674 76.7957 125.948 73.5737 125.422 73.3898C124.56 73.094 126.212 77.2594 126.291 80.8012C126.291 81.153 125.398 81.5048 125.406 81.8565C124.273 87.0373 124.457 90.4912 124.457 90.4912C124.457 90.4912 125.884 83.4476 130.216 84.383C132.258 84.8227 134.843 86.3738 138.066 85.6462C139.733 85.2704 141.751 84.7188 142.924 84.8227C144.471 84.9586 145.716 86.022 146.202 87.4371C146.314 87.7649 146.402 88.1087 146.426 88.4685C146.545 90.3953 145.716 93.0816 145.628 94.5367C145.588 95.1363 146.585 95.696 146.617 95.712C147.176 96.0318 147.439 94.073 148.173 93.3934C148.986 92.6339 149.345 92.9537 149.345 92.9537C149.345 92.9537 150.662 90.2833 150.662 86.2378C150.662 85.0306 150.502 83.8473 150.287 82.816L150.271 82.824Z" fill="#2F1210"/>
<path fill-rule="evenodd" clip-rule="evenodd" d="M125.557 74.0533C125.557 74.0533 125.478 76.236 126.61 78.6265C128.278 82.1443 132.561 83.5835 135.258 83.2077C146.761 81.5767 147.247 86.2458 147.199 88.2206C147.152 90.2034 146.585 94.4248 146.585 94.4248C146.585 94.4248 152.034 79.0662 141.488 80.5213C128.844 82.2643 125.549 74.0533 125.549 74.0533H125.557Z" fill="#543119"/>
<path d="M137.148 103.043C136.997 103.043 136.853 102.971 136.757 102.836C136.127 101.916 135.178 101.293 134.085 101.093C132.992 100.885 131.883 101.125 130.958 101.756C130.742 101.908 130.447 101.852 130.304 101.636C130.16 101.42 130.208 101.125 130.423 100.981C131.556 100.205 132.912 99.9174 134.252 100.165C135.593 100.413 136.757 101.181 137.531 102.308C137.675 102.524 137.627 102.82 137.411 102.963C137.332 103.019 137.236 103.043 137.148 103.043Z" fill="#ED7660"/>
<path fill-rule="evenodd" clip-rule="evenodd" d="M122.223 139.605C130.033 142.923 136.359 141.7 143.339 140.364C143.307 141.836 143.315 141.652 143.283 143.123C134.444 145.225 126.108 145.05 121.585 142.579C121.8 141.42 122.008 140.756 122.223 139.597V139.605Z" fill="#543119"/>
<path fill-rule="evenodd" clip-rule="evenodd" d="M137.34 119.865L136.606 127.277L142.166 127.652L142.892 120.473L137.34 119.865Z" fill="#828094"/>
<path fill-rule="evenodd" clip-rule="evenodd" d="M126.012 119.977L125.844 126.821L131.628 127.045L131.556 120.585L126.012 119.977Z" fill="#828094"/>
<path fill-rule="evenodd" clip-rule="evenodd" d="M137.467 118.754L143.011 119.361L142.764 121.584L140.028 122.168L137.22 120.976L137.467 118.754Z" fill="#1B2729"/>
<path fill-rule="evenodd" clip-rule="evenodd" d="M125.988 118.714L131.572 118.658L131.588 120.888L128.94 121.792L126.012 120.936L125.988 118.714Z" fill="#1B2729"/>
<path fill-rule="evenodd" clip-rule="evenodd" d="M128.182 140.844L132.952 141.1C133.327 141.116 133.614 141.444 133.59 141.812L133.439 144.642C133.423 145.018 133.096 145.305 132.729 145.281L127.958 145.026C127.583 145.01 127.296 144.682 127.32 144.314L127.472 141.484C127.488 141.108 127.815 140.82 128.182 140.844ZM128.676 141.564L132.378 141.764C132.665 141.78 132.888 141.995 132.88 142.243L132.777 144.138C132.761 144.386 132.513 144.578 132.226 144.562L128.525 144.362C128.238 144.346 128.014 144.13 128.022 143.882L128.126 141.987C128.142 141.74 128.389 141.548 128.676 141.564Z" fill="#B5B2B9"/>
<path fill-rule="evenodd" clip-rule="evenodd" d="M140.714 121.032C140.714 121.32 140.475 121.56 140.188 121.56C139.9 121.56 139.661 121.32 139.661 121.032C139.661 120.744 139.9 120.505 140.188 120.505C140.475 120.505 140.714 120.744 140.714 121.032Z" fill="#A29899"/>
<path fill-rule="evenodd" clip-rule="evenodd" d="M129.418 120.88C129.418 121.168 129.179 121.408 128.892 121.408C128.605 121.408 128.365 121.168 128.365 120.88C128.365 120.593 128.605 120.353 128.892 120.353C129.179 120.353 129.418 120.593 129.418 120.88Z" fill="#A29899"/>
<path fill-rule="evenodd" clip-rule="evenodd" d="M129.394 72.8701C139.31 72.8381 155.48 77.923 155.217 80.9851C154.945 84.0472 146.936 85.8461 137.332 85.0066C132.226 84.5589 127.695 83.4476 124.616 82.0484C114.477 77.4513 120.923 72.9021 129.402 72.8701H129.394Z" fill="#1B2729"/>
<path fill-rule="evenodd" clip-rule="evenodd" d="M151.108 84.1112C147.806 85.1026 142.828 85.4863 137.324 85.0066C132.218 84.5589 127.687 83.4476 124.608 82.0484C118.657 79.3541 118.418 76.6678 120.954 74.9089C122.566 74.4292 124.504 74.1573 126.562 74.1493C136.478 74.1173 152.648 79.2022 152.385 82.2643C152.321 82.9519 151.874 83.5675 151.116 84.1112H151.108Z" fill="#0B0E10"/>
<path fill-rule="evenodd" clip-rule="evenodd" d="M145.612 86.3417C143.41 87.8688 138.52 89.148 132.45 88.6124C126.371 88.0687 121.704 86.7895 125.254 84.7427C132.649 84.8866 139.621 85.3584 145.612 86.3497V86.3417Z" fill="#1B2729"/>
<path fill-rule="evenodd" clip-rule="evenodd" d="M124.887 81.113C130.766 80.4734 143.841 82.0244 151.292 84.0552C151.172 85.4303 151.14 85.8061 151.021 87.1813C141.711 85.5663 131.389 84.7268 124.568 84.8467C124.688 83.4715 124.776 82.4882 124.895 81.113H124.887Z" fill="#B5B2B9"/>
<path fill-rule="evenodd" clip-rule="evenodd" d="M138.114 81.6567C142.852 82.2163 147.718 83.0798 151.284 84.0552C151.164 85.4303 151.132 85.8061 151.013 87.1813C147.263 86.5337 143.347 86.006 139.565 85.6222L138.114 81.6647V81.6567Z" fill="#D4D2D1"/>
<path fill-rule="evenodd" clip-rule="evenodd" d="M129.123 74.7809C131.436 75.0128 133.223 76.3479 133.112 77.7631C133 79.1782 131.03 80.1456 128.716 79.9217C126.403 79.6899 124.616 78.3547 124.728 76.9396C124.839 75.5245 126.81 74.5571 129.123 74.7809Z" fill="#B5B2B9"/>
<path fill-rule="evenodd" clip-rule="evenodd" d="M141.52 107.585C145.405 108.712 146.928 109.831 147.846 110.887C147.63 111.302 147.415 111.71 147.199 112.126C145.827 110.743 143.721 109.639 140.874 108.824C141.089 108.408 141.304 107.992 141.52 107.585Z" fill="#1B2729"/>
<path fill-rule="evenodd" clip-rule="evenodd" d="M131.556 107.393C127.607 108.24 126.004 109.248 125.015 110.239C125.198 110.671 125.382 111.094 125.573 111.526C127.041 110.247 129.219 109.296 132.115 108.68C131.931 108.248 131.74 107.824 131.556 107.393Z" fill="#1B2729"/>
<path fill-rule="evenodd" clip-rule="evenodd" d="M135.29 111.67C135.29 111.67 138.121 115.028 138.241 115.852C138.361 116.675 141.52 107.577 141.52 107.577C141.52 107.577 138.744 106.505 138.68 106.681C137.483 109.759 135.29 111.67 135.29 111.67Z" fill="#828094"/>
<path fill-rule="evenodd" clip-rule="evenodd" d="M130.344 108.112C130.32 108.4 130.543 108.656 130.83 108.68C131.117 108.704 131.373 108.48 131.397 108.192C131.42 107.904 131.197 107.649 130.91 107.625C130.623 107.601 130.367 107.825 130.344 108.112Z" fill="#A29899"/>
<path fill-rule="evenodd" clip-rule="evenodd" d="M135.353 111.654C135.353 111.654 132.051 113.741 131.788 114.532C131.524 115.316 131.54 107.273 131.54 107.273C131.54 107.273 133.088 106.705 133.096 106.889C133.128 108.536 135.361 111.654 135.361 111.654H135.353Z" fill="#828094"/>
<path fill-rule="evenodd" clip-rule="evenodd" d="M142.708 112.438C143.993 113.101 144.527 114.98 143.889 116.635C143.259 118.29 141.703 119.106 140.411 118.442C139.126 117.778 138.592 115.899 139.23 114.245C139.868 112.59 141.416 111.774 142.708 112.438Z" fill="#ED9839"/>
<path fill-rule="evenodd" clip-rule="evenodd" d="M142.286 113.549C143.099 113.965 143.426 115.148 143.028 116.195C142.629 117.243 141.648 117.746 140.842 117.331C140.036 116.915 139.701 115.732 140.1 114.684C140.499 113.637 141.48 113.133 142.286 113.549Z" fill="#D78234"/>
<path d="M141.44 117.578C141.217 117.578 141.001 117.523 140.802 117.419C139.948 116.979 139.589 115.74 140.004 114.652C140.315 113.837 140.977 113.301 141.695 113.301C141.919 113.301 142.134 113.357 142.333 113.461C143.187 113.901 143.546 115.14 143.131 116.235C142.82 117.051 142.158 117.587 141.44 117.587V117.578ZM141.695 113.509C141.065 113.509 140.475 113.989 140.196 114.724C139.813 115.724 140.132 116.851 140.89 117.243C141.065 117.331 141.249 117.379 141.44 117.379C142.07 117.379 142.661 116.899 142.94 116.163C143.315 115.172 143.004 114.037 142.246 113.645C142.07 113.557 141.887 113.509 141.703 113.509H141.695Z" fill="#D78234"/>
<path d="M145.428 148.791C144.383 147.104 144.966 144.266 145.532 141.524C146.051 139.021 146.537 136.655 145.668 135.639C145.325 135.24 144.782 135.064 144.009 135.104L143.985 134.624C144.91 134.584 145.596 134.816 146.035 135.327C147.056 136.527 146.545 139.005 146.003 141.628C145.46 144.282 144.894 147.016 145.843 148.543L145.436 148.799L145.428 148.791Z" fill="#0B0E10"/>
<path fill-rule="evenodd" clip-rule="evenodd" d="M129.051 75.7323C130.511 75.8762 131.636 76.7157 131.564 77.6112C131.492 78.5066 130.256 79.1142 128.796 78.9703C127.336 78.8264 126.211 77.9869 126.283 77.0915C126.355 76.196 127.592 75.5884 129.051 75.7323Z" fill="#D4D2D1"/>
<path fill-rule="evenodd" clip-rule="evenodd" d="M129.394 72.8701C139.31 72.8381 155.48 77.923 155.217 80.9851C154.945 84.0472 146.936 85.8461 137.332 85.0066C132.226 84.5589 127.695 83.4476 124.616 82.0484C114.477 77.4513 120.923 72.9021 129.402 72.8701H129.394Z" fill="#E3BF64"/>
<path fill-rule="evenodd" clip-rule="evenodd" d="M151.108 84.1112C147.806 85.1026 142.828 85.4863 137.324 85.0066C132.218 84.5589 127.687 83.4476 124.608 82.0484C118.657 79.3541 118.418 76.6678 120.954 74.9089C122.566 74.4292 124.504 74.1573 126.562 74.1493C136.478 74.1173 152.648 79.2022 152.385 82.2643C152.321 82.9519 151.874 83.5675 151.116 84.1112H151.108Z" fill="#C09E49"/>
<path fill-rule="evenodd" clip-rule="evenodd" d="M145.612 86.3417C143.41 87.8688 138.52 89.148 132.45 88.6124C126.371 88.0687 121.704 86.7895 125.254 84.7427C132.649 84.8866 139.621 85.3584 145.612 86.3497V86.3417Z" fill="#C09E49"/>
<path fill-rule="evenodd" clip-rule="evenodd" d="M124.887 81.113C130.766 80.4734 143.841 82.0244 151.292 84.0552C151.172 85.4303 151.14 85.8061 151.021 87.1813C141.711 85.5663 131.389 84.7268 124.568 84.8467C124.688 83.4715 124.776 82.4882 124.895 81.113H124.887Z" fill="#E0CB96"/>
<path fill-rule="evenodd" clip-rule="evenodd" d="M138.114 81.6567C142.852 82.2163 147.718 83.0798 151.284 84.0552C151.164 85.4303 151.132 85.8061 151.013 87.1813C147.263 86.5337 143.347 86.006 139.565 85.6222L138.114 81.6647V81.6567Z" fill="#E3BF64"/>
<path fill-rule="evenodd" clip-rule="evenodd" d="M129.123 74.7809C131.436 75.0128 133.223 76.3479 133.112 77.7631C133 79.1782 131.03 80.1456 128.716 79.9217C126.403 79.6899 124.616 78.3547 124.728 76.9396C124.839 75.5245 126.81 74.5571 129.123 74.7809Z" fill="#B5B2B9"/>
<path fill-rule="evenodd" clip-rule="evenodd" d="M129.051 75.7323C130.511 75.8762 131.636 76.7157 131.564 77.6112C131.492 78.5066 130.256 79.1142 128.796 78.9703C127.336 78.8264 126.211 77.9869 126.283 77.0915C126.355 76.196 127.592 75.5884 129.051 75.7323Z" fill="#D4D2D1"/>
<path fill-rule="evenodd" clip-rule="evenodd" d="M172.974 209.546H184.541V169.602H172.974V209.546Z" fill="#551911"/>
<path fill-rule="evenodd" clip-rule="evenodd" d="M169.504 209.546H172.974V169.602H169.504V209.546Z" fill="#331411"/>
<path fill-rule="evenodd" clip-rule="evenodd" d="M207.802 211.768C256.934 211.768 296.78 214.679 296.78 218.26C296.78 221.842 256.934 224.752 207.802 224.752C158.671 224.752 118.824 221.842 118.824 218.26C118.824 214.679 158.671 211.768 207.802 211.768Z" fill="#797A7C"/>
<path fill-rule="evenodd" clip-rule="evenodd" d="M160.649 169.602H240.285V166.324H160.649V169.602Z" fill="#331411"/>
<path fill-rule="evenodd" clip-rule="evenodd" d="M240.285 169.602H256.351V166.324H240.285V169.602Z" fill="#551911"/>
<path fill-rule="evenodd" clip-rule="evenodd" d="M231.343 209.546H242.91V169.602H231.343V209.546Z" fill="#551911"/>
<path fill-rule="evenodd" clip-rule="evenodd" d="M227.873 209.546H231.351V169.602H227.873V209.546Z" fill="#331411"/>
<path fill-rule="evenodd" clip-rule="evenodd" d="M183.448 196.706L184.054 201.111C184.054 201.111 188.29 201.367 188.386 200.887C188.482 200.407 187.58 196.13 187.58 196.13L183.44 196.706H183.448Z" fill="#5E5E5E"/>
<path fill-rule="evenodd" clip-rule="evenodd" d="M171.314 205.588C168.738 207.675 169.902 209.77 169.902 209.77C169.902 209.77 173.325 210.721 176.579 210.673C180.56 210.609 185.187 208.354 185.187 208.354L185.059 209.53H190.38C190.38 209.53 191.553 207.035 190.795 204.333C190.037 201.631 188.792 200.247 188.792 200.247C188.792 200.247 184.924 200.871 184.094 200.663C183.264 200.455 180.065 203.685 178.446 204.365C176.843 205.044 172.99 204.237 171.322 205.588H171.314Z" fill="#2A2B2B"/>
<path fill-rule="evenodd" clip-rule="evenodd" d="M169.807 209.554C169.855 209.698 169.903 209.77 169.903 209.77C169.903 209.77 173.325 210.721 176.58 210.673C180.56 210.609 185.187 208.354 185.187 208.354L185.059 209.53H190.38C190.38 209.53 190.891 208.442 191.018 206.923C190.978 206.659 190.923 206.396 190.843 206.124C190.085 203.421 188.841 202.038 188.841 202.038C188.841 202.038 184.972 202.662 184.142 202.454C183.312 202.246 180.113 205.476 178.494 206.156C176.891 206.835 173.038 206.028 171.37 207.379C170.437 208.139 169.998 208.89 169.807 209.554Z" fill="#0B0E10"/>
<path fill-rule="evenodd" clip-rule="evenodd" d="M201.125 195.362L202.37 199.632C202.37 199.632 206.598 199.264 206.622 198.776C206.645 198.289 205.138 194.179 205.138 194.179L201.125 195.354V195.362Z" fill="#5E5E5E"/>
<path fill-rule="evenodd" clip-rule="evenodd" d="M190.412 205.916C188.162 208.354 189.622 210.257 189.622 210.257C189.622 210.257 193.148 210.705 196.363 210.177C200.296 209.53 204.54 206.628 204.54 206.628L204.587 207.803L209.852 207.027C209.852 207.027 210.65 204.389 209.509 201.83C208.369 199.272 206.933 198.081 206.933 198.081C206.933 198.081 203.191 199.264 202.346 199.176C201.492 199.088 198.804 202.75 197.296 203.661C195.805 204.565 191.88 204.333 190.42 205.908L190.412 205.916Z" fill="#2A2B2B"/>
<path fill-rule="evenodd" clip-rule="evenodd" d="M189.479 210.017C189.558 210.177 189.622 210.257 189.622 210.257C189.622 210.257 193.148 210.705 196.363 210.177C200.296 209.53 204.539 206.628 204.539 206.628L204.587 207.803L209.852 207.027C209.852 207.027 210.092 206.244 210.124 205.116C210.028 204.733 209.9 204.341 209.725 203.949C208.584 201.391 207.148 200.199 207.148 200.199C207.148 200.199 203.407 201.383 202.561 201.295C201.708 201.207 199.019 204.869 197.512 205.78C196.02 206.683 192.095 206.452 190.635 208.027C189.973 208.746 189.63 209.418 189.486 210.009L189.479 210.017Z" fill="#0B0E10"/>
<path fill-rule="evenodd" clip-rule="evenodd" d="M224.658 120.409C224.658 120.409 221.938 130.387 221.356 134.056C220.781 137.726 221.619 162.415 221.619 162.415C221.619 162.415 211.639 159.688 204.763 159.361C197.895 159.041 196.754 155.779 196.754 155.779C194.209 153.332 199.737 125.941 199.737 125.749C199.737 125.558 198.453 120.217 198.453 120.217C198.453 120.217 201.085 115.844 210.778 115.716C220.478 115.588 224.842 120.217 224.65 120.417L224.658 120.409Z" fill="#406A7A"/>
<path fill-rule="evenodd" clip-rule="evenodd" d="M206.486 116.091L209.565 126.029L217.463 116.539C217.463 116.539 214.16 115.252 211.424 115.38C210.02 115.444 209.908 115.196 206.478 116.083L206.486 116.091Z" fill="#31383C"/>
<path fill-rule="evenodd" clip-rule="evenodd" d="M196.626 157.522C196.626 157.522 181.613 159.808 175.702 169.65C172.623 177.573 180.919 197.657 180.919 197.657L190.898 197.049C190.898 197.049 183.137 182.538 185.466 175.519C186.527 172.321 193.539 169.442 193.14 169.618C191.433 171.089 190.731 173.864 190.962 175.766C191.784 182.522 197.456 195.81 198.341 196.594C198.748 196.953 207.842 196.138 207.842 196.138C207.842 196.138 199.992 175.91 202.8 173.048C209.477 166.212 221.124 170.474 221.587 163.974C221.842 160.24 221.539 159.984 221.475 157.682C214.008 155.107 201.588 155.115 196.754 155.771C196.427 157.514 196.618 157.514 196.618 157.514L196.626 157.522Z" fill="#1B2729"/>
<path fill-rule="evenodd" clip-rule="evenodd" d="M190.946 174.527C190.914 174.967 190.922 175.391 190.97 175.775C191.792 182.53 197.464 195.818 198.349 196.602C198.756 196.961 207.85 196.146 207.85 196.146C207.85 196.146 200.001 175.918 202.809 173.056C209.485 166.22 221.132 170.482 221.595 163.982C221.659 163.022 221.691 162.295 221.699 161.703C216.777 165.229 207.411 164.494 195.717 173.64C194.185 174.623 192.374 174.943 190.954 174.527H190.946Z" fill="#0B0E10"/>
<path fill-rule="evenodd" clip-rule="evenodd" d="M196.626 157.522C196.626 157.522 196.467 157.546 196.188 157.602C199.171 158.881 201.692 160.256 203.311 161.815C206.725 158.121 214.391 158.153 221.483 157.69C214.017 155.115 201.596 155.123 196.762 155.779C196.435 157.522 196.626 157.522 196.626 157.522Z" fill="#0B0E10"/>
<path fill-rule="evenodd" clip-rule="evenodd" d="M175.447 170.434C173.133 178.821 180.927 197.657 180.927 197.657L190.907 197.049C190.907 197.049 183.145 182.538 185.474 175.519C186.352 172.88 191.289 170.45 192.757 169.786C195.813 167.044 199.801 164.158 203.311 161.807C191.601 166.412 180.209 172.928 175.447 170.426V170.434Z" fill="#0B0E10"/>
<path fill-rule="evenodd" clip-rule="evenodd" d="M213.881 118.826C213.721 120.129 212.254 121.024 210.602 120.824C208.951 120.625 207.738 119.401 207.89 118.098L208.337 114.396C208.496 113.093 209.964 112.198 211.615 112.398C213.267 112.598 214.479 113.821 214.328 115.124L213.881 118.834V118.826Z" fill="#EE9C94"/>
<path fill-rule="evenodd" clip-rule="evenodd" d="M210.602 120.824C210.602 120.824 213.713 124.51 213.841 125.406C213.969 126.309 217.335 116.523 217.335 116.523C217.335 116.523 214.399 115.156 214.328 115.348C213.011 118.73 210.61 120.816 210.61 120.816L210.602 120.824Z" fill="#4C494A"/>
<path fill-rule="evenodd" clip-rule="evenodd" d="M210.674 120.808C210.674 120.808 207.052 123.103 206.765 123.967C206.478 124.83 206.494 116.003 206.494 116.003C206.494 116.003 208.193 115.38 208.193 115.588C208.225 117.387 210.674 120.816 210.674 120.816V120.808Z" fill="#4C494A"/>
<path fill-rule="evenodd" clip-rule="evenodd" d="M227.833 102.476C228.056 103.987 227.035 105.386 225.568 105.61C224.092 105.826 221.379 105.362 221.156 103.851C220.933 102.34 223.294 100.349 224.77 100.133C226.246 99.9174 227.618 100.965 227.841 102.476H227.833Z" fill="#F6A399"/>
<path fill-rule="evenodd" clip-rule="evenodd" d="M223.892 102.324C223.446 109.136 217.814 115.708 210.794 115.708C203.774 115.708 198.469 109.144 198.469 102.324C198.469 95.4961 199.985 88.2925 207.013 88.2925C214.04 88.2925 224.929 86.6535 223.9 102.324H223.892Z" fill="#F6A399"/>
<path fill-rule="evenodd" clip-rule="evenodd" d="M223.892 102.324C223.557 107.401 220.342 112.35 215.819 114.532C215.652 114.532 215.476 114.548 215.309 114.548C208.289 114.548 202.984 107.984 202.984 101.165C202.984 95.9918 203.853 90.6031 207.339 88.2926C214.367 88.2446 224.913 86.8934 223.9 102.324H223.892Z" fill="#F9BCAF"/>
<path d="M216.131 100.917C215.915 100.917 215.716 100.781 215.644 100.565C215.237 99.3497 213.913 98.6861 212.7 99.0939C212.429 99.1818 212.134 99.0379 212.046 98.7661C211.958 98.4942 212.102 98.1984 212.373 98.1105C214.128 97.5268 216.035 98.4782 216.625 100.237C216.713 100.509 216.569 100.805 216.298 100.893C216.242 100.909 216.186 100.917 216.131 100.917ZM200.854 100.525C200.774 100.525 200.687 100.501 200.607 100.461C200.36 100.325 200.264 100.013 200.399 99.7574C200.83 98.9659 201.54 98.3903 202.394 98.1344C203.255 97.8786 204.157 97.9745 204.946 98.3983C205.194 98.5342 205.289 98.846 205.154 99.1018C205.018 99.3497 204.707 99.4456 204.452 99.3097C203.327 98.6941 201.907 99.1178 201.301 100.245C201.205 100.421 201.03 100.517 200.846 100.517L200.854 100.525Z" fill="#331410"/>
<path d="M225.2 104.978C225.033 104.978 224.865 104.954 224.698 104.906C224.427 104.826 224.267 104.547 224.339 104.267C224.419 103.995 224.698 103.827 224.977 103.907C225.4 104.027 225.831 103.795 225.974 103.387C226.11 102.979 225.902 102.532 225.496 102.372C225.232 102.268 225.097 101.964 225.2 101.7C225.304 101.436 225.607 101.301 225.871 101.404C226.788 101.764 227.267 102.78 226.955 103.715C226.7 104.483 225.982 104.978 225.208 104.978H225.2Z" fill="#ED7660"/>
<path d="M205.305 112.03C205.186 112.03 205.066 111.99 204.962 111.902C204.747 111.71 204.731 111.382 204.914 111.174C206.957 108.856 210.498 108.632 212.812 110.679C213.027 110.871 213.043 111.19 212.86 111.406C212.668 111.622 212.349 111.638 212.134 111.454C210.251 109.791 207.363 109.967 205.696 111.862C205.593 111.982 205.449 112.038 205.305 112.038V112.03Z" fill="#ED7660"/>
<path fill-rule="evenodd" clip-rule="evenodd" d="M204.667 102.388C204.667 103.283 204.204 104.003 203.63 104.003C203.056 104.003 202.593 103.283 202.593 102.388C202.593 101.492 203.056 100.773 203.63 100.773C204.204 100.773 204.667 101.492 204.667 102.388Z" fill="#3B150E"/>
<path fill-rule="evenodd" clip-rule="evenodd" d="M203.702 101.564C203.702 101.828 203.542 102.044 203.351 102.044C203.16 102.044 203 101.828 203 101.564C203 101.301 203.16 101.085 203.351 101.085C203.542 101.085 203.702 101.301 203.702 101.564Z" fill="white"/>
<path fill-rule="evenodd" clip-rule="evenodd" d="M214.926 102.436C214.926 103.331 214.463 104.051 213.889 104.051C213.314 104.051 212.852 103.323 212.852 102.436C212.852 101.548 213.314 100.821 213.889 100.821C214.463 100.821 214.926 101.548 214.926 102.436Z" fill="#3B150E"/>
<path fill-rule="evenodd" clip-rule="evenodd" d="M213.953 101.764C213.953 102.028 213.793 102.244 213.602 102.244C213.41 102.244 213.251 102.028 213.251 101.764C213.251 101.5 213.41 101.285 213.602 101.285C213.793 101.285 213.953 101.5 213.953 101.764Z" fill="white"/>
<path d="M208.911 106.545C208.823 106.545 208.736 106.545 208.648 106.529C207.675 106.385 206.989 105.506 207.076 104.523C207.1 104.243 207.356 104.035 207.643 104.059C207.93 104.091 208.137 104.339 208.105 104.626C208.066 105.058 208.369 105.45 208.792 105.514C209.031 105.554 209.27 105.474 209.454 105.314C209.661 105.122 209.988 105.138 210.18 105.346C210.371 105.554 210.355 105.882 210.148 106.074C209.805 106.385 209.366 106.553 208.911 106.553V106.545Z" fill="#ED7660"/>
<path fill-rule="evenodd" clip-rule="evenodd" d="M227.075 89.18C226.588 86.8054 224.467 85.1185 222.049 85.1824C221.419 85.1984 220.749 85.2064 220.007 85.1345C219.896 85.1265 219.784 85.1185 219.672 85.1025C219.345 85.0625 216.489 82.8639 213.945 81.9285C213.362 81.7126 213.298 83.1517 212.716 82.8959C210.363 81.8645 208.169 80.1695 207.523 80.0656C206.223 79.8497 205.864 83.0638 205.21 82.8319C204.492 82.5761 200.399 79.0422 199.817 78.8424C198.876 78.5146 198.692 81.9524 198.78 85.838C198.788 86.2218 197.799 86.6056 197.807 86.9973C197.958 91.4346 199.059 96.5035 199.059 96.5035C199.059 96.5035 200.327 89.8755 205.082 90.9069C207.323 91.3946 210.155 93.0896 213.689 92.2901C215.524 91.8743 217.734 91.2747 219.018 91.3866C220.709 91.5385 222.081 92.7058 222.616 94.2568C222.743 94.6166 222.831 94.9924 222.863 95.3841C222.999 97.4948 222.081 100.445 221.986 102.036C221.946 102.7 223.039 103.299 223.07 103.323C223.677 103.675 223.972 101.524 224.77 100.781C225.663 99.9413 226.054 100.301 226.054 100.301C226.054 100.301 227.498 97.3749 227.498 92.9297C227.498 91.6105 227.314 90.3073 227.083 89.18H227.075Z" fill="#2F1210"/>
<path fill-rule="evenodd" clip-rule="evenodd" d="M200.144 79.458C200.144 79.458 200.056 81.8565 201.301 84.4789C203.128 88.3405 207.826 89.9156 210.786 89.4998C223.406 87.7169 223.932 92.8258 223.884 95.0004C223.836 97.1751 223.206 101.804 223.206 101.804C223.206 101.804 229.181 84.9586 217.622 86.5496C203.758 88.4605 200.144 79.458 200.144 79.458Z" fill="#543119"/>
<path fill-rule="evenodd" clip-rule="evenodd" d="M205.952 137.95C205.768 137.702 204.524 135.719 204.348 135.431L201.181 135.783L201.795 137.83L203.782 139.645C204.962 140.093 206.031 141.716 206.853 143.051C206.677 141.276 207.81 140.444 205.944 137.95H205.952Z" fill="#E9938B"/>
<path fill-rule="evenodd" clip-rule="evenodd" d="M224.227 134.2C220.366 144.194 199.689 147.24 199.689 147.24L201.859 141.907C201.859 141.907 213.179 140.372 216.314 136.527C218.548 133.784 217.279 129.267 215.756 126.805C215.444 126.813 223.956 120.425 223.956 120.425C223.956 120.425 226.389 128.028 224.235 134.208L224.227 134.2Z" fill="#406A7A"/>
<path fill-rule="evenodd" clip-rule="evenodd" d="M219.816 137.094C222.951 137.63 223.11 137.782 224.387 138.43C224.929 138.709 223.509 138.901 223.246 138.957C222.991 139.013 219.944 138.422 218.954 138.526C218.26 138.597 221.132 138.621 222.432 139.261C222.775 139.429 221.172 139.733 221.172 139.733L217.391 139.701C217.391 139.701 221.14 139.837 220.494 140.125C219.848 140.412 218.93 140.628 218.93 140.628C218.93 140.628 218.117 140.772 217.271 140.996C216.737 141.14 216.665 141.532 215.373 141.915C212.716 142.707 212.357 141.859 212.357 141.859L210.371 140.74L212.253 138.07C212.253 138.07 217.806 136.735 219.816 137.078V137.094Z" fill="#F9BCAF"/>
<path fill-rule="evenodd" clip-rule="evenodd" d="M194.839 146.089C199.554 150.15 211.376 142.283 213.745 142.123L213.282 137.446C213.282 137.446 205.8 139.565 201.253 139.373C200.543 134.36 200.631 133.201 201.564 127.332C202.162 124.19 199.203 118.49 199.011 119.537C196.355 121.584 191.329 140.332 194.839 146.081V146.089Z" fill="#638EA1"/>
<path fill-rule="evenodd" clip-rule="evenodd" d="M194.839 146.089C199.554 150.15 211.376 142.283 213.745 142.123L213.633 141.012C206.813 142.939 198.541 145.737 196.554 143.243C193.682 139.629 200.088 121.256 200.304 120.409C199.618 119.601 199.067 119.201 199.011 119.545C196.355 121.592 191.329 140.34 194.839 146.089Z" fill="#406A7A"/>
<path fill-rule="evenodd" clip-rule="evenodd" d="M221.188 149.463C215.492 153.524 204.388 143.131 202.657 140.58L206.103 137.83C206.103 137.83 212.022 143.235 216.521 141.604C218.444 136.591 217.455 133.952 217.933 128.084C218.093 124.942 224.172 118.538 224.658 120.569C225.775 124.734 226.078 143.706 221.188 149.455V149.463Z" fill="#638EA1"/>
<path fill-rule="evenodd" clip-rule="evenodd" d="M221.188 149.463C215.492 153.524 204.388 143.131 202.657 140.58L204.34 139.237C210.722 146.481 216.569 147.968 222.265 147.84C221.938 148.455 221.579 148.999 221.188 149.463Z" fill="#406A7A"/>
<path fill-rule="evenodd" clip-rule="evenodd" d="M215.357 141.875C215.756 141.827 216.138 141.747 216.521 141.612C218.444 136.599 217.455 133.96 217.933 128.092C217.997 126.901 218.907 125.238 220.039 123.751C220.749 128.46 222.169 132.897 219.76 139.741C219.122 141.556 216.928 141.612 215.373 141.939L215.357 141.875Z" fill="#406A7A"/>
<path fill-rule="evenodd" clip-rule="evenodd" d="M199.346 132.913C199.267 134.12 201.763 135.911 202.17 136.231C202.577 136.551 204.26 135.935 204.26 135.935C204.26 135.935 205.042 135.935 202.011 134.192C200.256 133.185 199.426 131.786 199.346 132.913Z" fill="#E9938B"/>
<path fill-rule="evenodd" clip-rule="evenodd" d="M200.647 132.369C200.415 133.369 202.258 135.192 202.553 135.519C202.848 135.839 204.476 135.599 204.476 135.599C204.476 135.599 204.308 135.28 202.689 133.8C201.365 132.721 200.854 131.442 200.639 132.377L200.647 132.369Z" fill="#E9938B"/>
<path fill-rule="evenodd" clip-rule="evenodd" d="M199.259 133.992C199.131 134.84 201.006 136.383 201.317 136.663C201.62 136.934 202.777 137.126 202.689 136.535C202.689 136.535 202.681 136.159 201.293 135.192C199.961 134.28 199.378 133.193 199.259 133.992Z" fill="#E9938B"/>
<path fill-rule="evenodd" clip-rule="evenodd" d="M199.171 135.967C199.61 136.687 201.269 137.534 201.708 137.734C201.803 137.774 203.311 139.421 203.638 139.517C204.356 139.717 204.181 138.605 204.428 138.502C204.588 138.43 203.295 137.59 203.295 137.59C202.88 137.054 202.146 136.783 201.237 136.327C199.434 135.751 199.035 135.032 199.171 135.975V135.967Z" fill="#E9938B"/>
<path fill-rule="evenodd" clip-rule="evenodd" d="M213.745 142.115L213.282 137.438C213.282 137.438 205.8 139.557 201.253 139.365L196.562 143.227C198.541 145.721 206.821 142.931 213.641 140.996L213.753 142.107L213.745 142.115Z" fill="#638EA1"/>
<path fill-rule="evenodd" clip-rule="evenodd" d="M270.535 210.265H272.346V44.9433H270.535V210.265Z" fill="#565A79"/>
<path fill-rule="evenodd" clip-rule="evenodd" d="M272.003 210.265H274.412V44.9433H272.003V210.265Z" fill="#A0ACD3"/>
<path fill-rule="evenodd" clip-rule="evenodd" d="M252.475 210.265H254.285V44.9433H252.475V210.265Z" fill="#565A79"/>
<path fill-rule="evenodd" clip-rule="evenodd" d="M253.942 210.265H256.351V44.9433H253.942V210.265Z" fill="#A0ACD3"/>
<path fill-rule="evenodd" clip-rule="evenodd" d="M234.414 210.265H236.225V44.9433H234.414V210.265Z" fill="#565A79"/>
<path fill-rule="evenodd" clip-rule="evenodd" d="M235.882 210.265H238.283V44.9433H235.882V210.265Z" fill="#A0ACD3"/>
<path fill-rule="evenodd" clip-rule="evenodd" d="M216.354 210.265H218.165V44.9433H216.354V210.265Z" fill="#565A79"/>
<path fill-rule="evenodd" clip-rule="evenodd" d="M217.814 210.265H220.223V44.9433H217.814V210.265Z" fill="#A0ACD3"/>
<path fill-rule="evenodd" clip-rule="evenodd" d="M198.293 210.265H200.096V44.9433H198.293V210.265Z" fill="#565A79"/>
<path fill-rule="evenodd" clip-rule="evenodd" d="M199.753 210.265H202.162V44.9433H199.753V210.265Z" fill="#A0ACD3"/>
<path fill-rule="evenodd" clip-rule="evenodd" d="M180.233 210.265H182.036V44.9433H180.233V210.265Z" fill="#565A79"/>
<path fill-rule="evenodd" clip-rule="evenodd" d="M181.693 210.265H184.102V44.9433H181.693V210.265Z" fill="#A0ACD3"/>
<path fill-rule="evenodd" clip-rule="evenodd" d="M162.173 210.265H163.975V44.9433H162.173V210.265Z" fill="#565A79"/>
<path fill-rule="evenodd" clip-rule="evenodd" d="M163.633 210.265H166.042V44.9433H163.633V210.265Z" fill="#A0ACD3"/>
<path fill-rule="evenodd" clip-rule="evenodd" d="M144.112 210.265H145.915V44.9433H144.112V210.265Z" fill="#565A79"/>
<path fill-rule="evenodd" clip-rule="evenodd" d="M145.572 210.265H147.981V44.9433H145.572V210.265Z" fill="#A0ACD3"/>
<path d="M274.412 35.3732H142.613V44.9433H274.412V35.3732Z" fill="#565A79"/>
<path d="M293.557 35.3732H274.412V44.9433H293.557V35.3732Z" fill="#A0ACD3"/>
<path fill-rule="evenodd" clip-rule="evenodd" d="M142.613 209.546H274.412V219.116H142.613V209.546Z" fill="#565A79"/>
<path fill-rule="evenodd" clip-rule="evenodd" d="M287.702 210.265H289.505V44.9433H287.702V210.265Z" fill="#565A79"/>
<path fill-rule="evenodd" clip-rule="evenodd" d="M289.162 210.265H291.571V44.9433H289.162V210.265Z" fill="#A0ACD3"/>
<path fill-rule="evenodd" clip-rule="evenodd" d="M274.412 209.546H293.557V219.116H274.412V209.546Z" fill="#A0ACD3"/>
<g clip-path="url(#clip2_4357_30748)">
<path d="M319.211 25.1861L318.634 26.9186L318.666 26.9275L319.244 25.195L319.211 25.1861Z" fill="white"/>
<path d="M319.244 25.1865L319.212 25.1964L319.863 26.9289L319.895 26.919L319.244 25.1865Z" fill="white"/>
<path d="M319.245 25.1912H319.211V26.9237H319.245V25.1912Z" fill="white"/>
<path d="M319.995 26.8929C319.995 27.1285 319.668 27.3196 319.265 27.3196C318.861 27.3196 318.534 27.1285 318.534 26.8929H319.995Z" fill="white"/>
<path opacity="0.11" d="M318.535 26.9161C318.534 26.9047 318.534 26.9047 318.534 26.8929H319.995C319.989 27.0294 319.921 27.0861 319.869 27.1327L318.535 26.9164V26.9161Z" fill="white"/>
<path d="M319.228 25.2068C319.184 25.2068 319.149 25.1747 319.149 25.1349C319.149 25.0952 319.184 25.063 319.228 25.063C319.272 25.063 319.307 25.0952 319.307 25.1349C319.307 25.1747 319.272 25.2068 319.228 25.2068ZM319.228 25.0938C319.203 25.0938 319.183 25.1121 319.183 25.1349C319.183 25.1577 319.203 25.176 319.228 25.176C319.253 25.176 319.273 25.1577 319.273 25.1349C319.273 25.1121 319.253 25.0938 319.228 25.0938Z" fill="white"/>
<path d="M319.701 24.9017C319.694 24.8875 319.678 24.8654 319.661 24.8675C319.649 24.8689 319.64 24.8779 319.635 24.8875C319.63 24.8972 319.628 24.9079 319.623 24.9179C319.615 24.9373 319.598 24.9539 319.577 24.9629C319.576 24.9635 319.574 24.9642 319.573 24.9649C319.435 24.9867 319.015 25.0416 318.306 24.8675C318.207 24.8433 318.076 24.8109 317.871 24.7784C317.732 24.7563 317.444 24.7169 317.075 24.7138C317.034 24.7134 317.001 24.7138 316.979 24.7138C316.979 24.7708 316.979 24.8278 316.979 24.8851C317.204 24.8858 317.543 24.8979 317.954 24.9566C318.125 24.9812 318.214 24.9946 318.329 25.0185C319.017 25.1632 319.582 25.0665 319.582 25.0665C319.598 25.0648 319.624 25.0596 319.65 25.0423C319.698 25.0091 319.722 24.9452 319.701 24.9021L319.701 24.9017Z" fill="white"/>
<path d="M314.751 25.1873L314.719 25.1962L315.296 26.9288L315.329 26.9199L314.751 25.1873Z" fill="white"/>
<path d="M314.719 25.1859L314.068 26.9185L314.1 26.9284L314.751 25.1959L314.719 25.1859Z" fill="white"/>
<path d="M314.752 25.1912H314.718V26.9237H314.752V25.1912Z" fill="white"/>
<path d="M313.968 26.8929C313.968 27.1285 314.295 27.3196 314.698 27.3196C315.102 27.3196 315.428 27.1285 315.428 26.8929H313.968V26.8929Z" fill="white"/>
<path opacity="0.11" d="M315.428 26.9161C315.429 26.9047 315.428 26.9047 315.428 26.8929H313.968C313.974 27.0294 314.042 27.0861 314.094 27.1327L315.428 26.9164V26.9161Z" fill="white"/>
<path d="M314.735 25.2068C314.779 25.2068 314.814 25.1747 314.814 25.1349C314.814 25.0952 314.779 25.063 314.735 25.063C314.691 25.063 314.656 25.0952 314.656 25.1349C314.656 25.1747 314.691 25.2068 314.735 25.2068ZM314.735 25.0938C314.76 25.0938 314.78 25.1121 314.78 25.1349C314.78 25.1577 314.76 25.176 314.735 25.176C314.71 25.176 314.69 25.1577 314.69 25.1349C314.69 25.1121 314.71 25.0938 314.735 25.0938Z" fill="white"/>
<path d="M314.262 24.9017C314.267 24.8844 314.282 24.8651 314.302 24.8675C314.313 24.8689 314.323 24.8779 314.328 24.8875C314.332 24.8972 314.335 24.9079 314.339 24.9179C314.348 24.9373 314.365 24.9539 314.385 24.9629C314.387 24.9635 314.388 24.9642 314.39 24.9649C314.528 24.9867 314.948 25.0416 315.657 24.8675C315.756 24.8433 315.886 24.8109 316.092 24.7784C316.231 24.7563 316.519 24.7169 316.888 24.7138C316.928 24.7134 316.961 24.7138 316.983 24.7138C316.982 24.7708 316.98 24.8278 316.979 24.8851C316.674 24.8793 316.27 24.8958 315.799 24.986C315.709 25.0033 315.709 25.0029 315.635 25.0185C314.946 25.1632 314.381 25.0665 314.381 25.0665C314.381 25.0665 314.333 25.0551 314.313 25.0423C314.307 25.0378 314.3 25.0326 314.295 25.0271C314.261 24.9943 314.249 24.9452 314.262 24.9021L314.262 24.9017Z" fill="white"/>
</g>
<rect x="311" y="19" width="16" height="16" rx="2" fill="#EABF4E"/>
<path d="M314.198 24.6305C314.253 24.6681 314.301 24.6992 314.347 24.7331C314.752 25.0329 315.213 25.1352 315.725 25.0461C315.773 25.0378 315.819 25.0205 315.864 25.0029C315.902 24.988 315.945 24.9697 315.942 24.9244C315.939 24.8802 315.898 24.8623 315.856 24.8529C315.747 24.8284 315.636 24.8053 315.526 24.7828C315.158 24.7075 314.791 24.6305 314.451 24.4712C313.929 24.2266 313.588 23.8514 313.437 23.335C313.42 23.278 313.413 23.2206 313.421 23.1619C313.431 23.0866 313.473 23.0666 313.545 23.1042C313.647 23.1578 313.729 23.2348 313.818 23.3029C314.327 23.6915 314.91 23.9188 315.576 23.9578C315.622 23.9606 315.701 23.9914 315.71 23.9288C315.717 23.8805 315.634 23.8874 315.591 23.8753C314.986 23.7064 314.399 23.4998 313.891 23.1484C313.283 22.729 312.96 22.1808 313.015 21.4726C313.023 21.3662 313.038 21.2608 313.084 21.1617C313.161 20.9941 313.301 20.9544 313.464 21.0605C313.635 21.1707 313.767 21.3171 313.901 21.4612C314.299 21.891 314.701 22.3176 315.198 22.66C315.807 23.08 316.484 23.3716 317.227 23.5357C317.402 23.5744 317.579 23.6107 317.757 23.6397C317.852 23.6549 317.865 23.6891 317.834 23.7654C317.71 24.066 317.669 24.3765 317.714 24.6951C317.744 24.9117 317.881 25.0599 318.059 25.0785C318.23 25.0965 318.408 24.9732 318.477 24.7614C318.545 24.5517 318.583 24.3341 318.646 24.1226C318.75 23.7661 318.891 23.6884 319.294 23.7585C319.394 23.7758 319.489 23.8103 319.586 23.8394C319.618 23.849 319.657 23.8611 319.664 23.8932C319.69 24 319.787 24.0231 319.88 24.0518C319.949 24.0732 320.013 24.1033 320.034 24.1755C320.042 24.2031 320.037 24.2311 320.01 24.2498C319.982 24.2681 319.961 24.2511 319.939 24.2366C319.792 24.1361 319.636 24.1966 319.484 24.2204C319.452 24.2252 319.437 24.2567 319.437 24.2853C319.44 24.5092 319.452 24.7331 319.609 24.9213C319.7 25.0295 319.814 25.11 319.977 25.0727C320.14 25.0353 320.237 24.932 320.269 24.788C320.347 24.4432 320.296 24.1071 320.171 23.7772C320.127 23.6597 320.129 23.6583 320.27 23.6369C321.166 23.5001 321.99 23.2041 322.726 22.7163C323.196 22.405 323.583 22.0167 323.957 21.616C324.095 21.4671 324.231 21.3151 324.385 21.179C324.423 21.1455 324.461 21.1119 324.503 21.0833C324.703 20.9461 324.872 20.999 324.938 21.2177C325.01 21.4571 325 21.6989 324.961 21.9414C324.88 22.434 324.581 22.8057 324.167 23.1097C323.649 23.4891 323.041 23.6994 322.415 23.8767C322.404 23.8798 322.392 23.8801 322.382 23.885C322.349 23.9008 322.282 23.8901 322.292 23.9409C322.299 23.9779 322.357 23.9661 322.393 23.9641C323.014 23.9319 323.568 23.7381 324.056 23.3875C324.168 23.3067 324.278 23.2231 324.391 23.1429C324.431 23.1146 324.471 23.0669 324.529 23.0983C324.586 23.1298 324.576 23.1882 324.567 23.2386C324.487 23.6666 324.253 24.0097 323.877 24.2767C323.44 24.5873 322.919 24.6996 322.393 24.7984C322.312 24.8136 322.23 24.8281 322.15 24.8474C322.103 24.8588 322.048 24.8744 322.045 24.9279C322.043 24.9814 322.099 25.0011 322.143 25.0157C322.342 25.0803 322.548 25.0944 322.756 25.0754C323.113 25.0426 323.423 24.9134 323.695 24.703C323.721 24.683 323.748 24.6346 323.785 24.665C323.815 24.6895 323.779 24.7289 323.762 24.7576C323.345 25.4665 322.565 25.9356 321.621 25.8617C321.369 25.842 321.118 25.8137 320.866 25.8023C320.355 25.7791 320.016 25.9722 319.815 26.3992C319.776 26.4828 319.727 26.5039 319.634 26.4921C319.199 26.4365 318.762 26.4341 318.326 26.4953C318.249 26.506 318.209 26.4797 318.178 26.4165C317.944 25.9425 317.622 25.7681 317.052 25.7998C316.77 25.8157 316.491 25.8644 316.207 25.8648C315.289 25.8655 314.657 25.4478 314.217 24.7479C314.2 24.7199 314.175 24.6899 314.197 24.6318L314.198 24.6305Z" fill="#151513"/>
<path d="M318.999 28.6304C318.953 28.7157 318.915 28.7972 318.867 28.8729C318.779 29.0111 318.639 29.0881 318.471 29.1251C318.436 29.133 318.394 29.1434 318.368 29.1071C318.345 29.0739 318.376 29.0494 318.396 29.0256C318.425 28.99 318.455 28.9548 318.487 28.9206C318.718 28.6677 318.776 28.3778 318.709 28.0617C318.705 28.0417 318.699 28.0213 318.691 28.0023C318.681 27.9778 318.674 27.9426 318.636 27.9481C318.605 27.9526 318.608 27.9847 318.604 28.0079C318.585 28.1229 318.574 28.2397 318.544 28.3526C318.48 28.6007 318.326 28.7862 318.055 28.8767C318.023 28.8871 317.989 28.8912 317.955 28.8957C317.926 28.8995 317.893 28.9071 317.875 28.876C317.859 28.8494 317.882 28.8301 317.899 28.8131C317.939 28.7724 317.982 28.7333 318.023 28.6943C318.261 28.4708 318.391 28.2044 318.406 27.8935C318.407 27.8631 318.404 27.832 318.399 27.8013C318.396 27.7771 318.387 27.7522 318.354 27.7501C318.328 27.7484 318.312 27.7653 318.302 27.7843C318.277 27.8337 318.25 27.8835 318.229 27.9346C318.165 28.0863 318.081 28.2272 317.975 28.3575C317.875 28.4798 317.74 28.5371 317.573 28.5281C317.521 28.5254 317.463 28.5129 317.442 28.4621C317.418 28.4072 317.465 28.3706 317.504 28.3409C317.685 28.2062 317.872 28.078 318.005 27.899C318.179 27.6659 318.31 27.4182 318.306 27.1276C318.305 27.0575 318.336 27.0216 318.415 27.0105C318.81 26.9552 319.204 26.9646 319.598 27.0105C319.658 27.0174 319.695 27.0457 319.696 27.1045C319.702 27.6192 320.001 27.9851 320.425 28.2873C320.449 28.3043 320.473 28.3205 320.495 28.3395C320.533 28.3723 320.585 28.4038 320.564 28.459C320.541 28.5205 320.475 28.5288 320.413 28.5295C320.266 28.5312 320.143 28.4842 320.047 28.3775C319.917 28.2321 319.831 28.0652 319.755 27.8928C319.745 27.8707 319.736 27.8479 319.724 27.8268C319.705 27.7947 319.694 27.7436 319.645 27.7498C319.585 27.7574 319.598 27.8141 319.598 27.8514C319.597 28.1288 319.692 28.3765 319.886 28.591C319.953 28.6649 320.026 28.7337 320.097 28.8052C320.117 28.8252 320.146 28.8453 320.131 28.8753C320.112 28.9112 320.073 28.9002 320.04 28.8964C319.775 28.8646 319.52 28.6314 319.456 28.3568C319.431 28.2466 319.419 28.1336 319.399 28.022C319.394 27.9944 319.408 27.9512 319.359 27.9502C319.322 27.9495 319.319 27.9875 319.311 28.0123C319.227 28.2756 319.264 28.5281 319.403 28.7679C319.455 28.8587 319.523 28.942 319.6 29.0176C319.625 29.0422 319.659 29.0701 319.637 29.1071C319.611 29.1489 319.563 29.1358 319.525 29.1268C319.296 29.0733 319.14 28.9458 319.06 28.7433C319.046 28.7088 319.048 28.668 318.999 28.6311L318.999 28.6304Z" fill="#151513"/>
<g clip-path="url(#clip3_4357_30748)">
<path d="M313.019 30.4699C313.019 30.4332 313.055 30.4003 313.095 30.4003H313.22C313.26 30.4003 313.296 30.4332 313.296 30.4699V32.8964C313.296 32.933 313.26 32.966 313.22 32.966H313.095C313.055 32.966 313.019 32.933 313.019 32.8964V30.4699Z" fill="#151513"/>
<path d="M314.596 32.035C314.769 32.035 314.938 32.0826 314.938 32.0826C314.942 31.8114 314.906 31.6867 314.677 31.6867C314.448 31.6867 314.267 31.7418 314.195 31.7674C314.155 31.7821 314.131 31.7637 314.119 31.7307L314.087 31.6391C314.071 31.5951 314.095 31.5732 314.131 31.5585C314.155 31.5474 314.388 31.4631 314.689 31.4631C315.098 31.4631 315.198 31.6538 315.198 32.0826V32.8963C315.198 32.933 315.162 32.9659 315.122 32.9659H315.046C315.002 32.9659 314.99 32.944 314.978 32.9109L314.946 32.8119C314.861 32.8889 314.697 33.0026 314.448 33.0026C314.167 33.0026 313.954 32.8156 313.954 32.5224C313.954 32.2292 314.183 32.0349 314.596 32.0349V32.035ZM314.492 32.7827C314.693 32.7827 314.865 32.6692 314.934 32.5775V32.288C314.885 32.2624 314.773 32.2293 314.596 32.2293C314.372 32.2293 314.211 32.332 314.211 32.5225C314.211 32.6692 314.32 32.7827 314.492 32.7827V32.7827Z" fill="#151513"/>
<path d="M315.804 31.5841C315.788 31.5327 315.804 31.4998 315.865 31.4998H315.989C316.025 31.4998 316.053 31.5181 316.061 31.5401L316.354 32.5078H316.358L316.812 31.4998C316.82 31.4814 316.844 31.4631 316.88 31.4631H316.9C316.936 31.4631 316.96 31.4815 316.968 31.4998L317.418 32.5115H317.422L317.711 31.5401C317.719 31.5181 317.747 31.4998 317.779 31.4998H317.903C317.964 31.4998 317.98 31.5327 317.964 31.5841L317.526 32.9659C317.518 32.9879 317.49 33.0026 317.458 33.0026H317.438C317.402 33.0026 317.378 32.9842 317.37 32.9659L316.88 31.8664L316.406 32.9659C316.398 32.9843 316.374 33.0026 316.338 33.0026H316.318C316.282 33.0026 316.258 32.9879 316.25 32.9659L315.804 31.5841H315.804Z" fill="#151513"/>
<path d="M318.525 31.117C318.525 31.018 318.61 30.941 318.714 30.941C318.818 30.941 318.907 31.018 318.907 31.117C318.907 31.216 318.822 31.2893 318.714 31.2893C318.606 31.2893 318.525 31.2123 318.525 31.117ZM318.582 31.5695C318.582 31.5329 318.618 31.4999 318.658 31.4999H318.782C318.822 31.4999 318.858 31.5329 318.858 31.5695V32.8964C318.858 32.933 318.822 32.966 318.782 32.966H318.658C318.618 32.966 318.582 32.933 318.582 32.8964V31.5695Z" fill="white"/>
<path d="M319.629 31.5695C319.629 31.5328 319.665 31.4999 319.705 31.4999H319.782C319.818 31.4999 319.838 31.5146 319.846 31.5439L319.882 31.6575C319.882 31.6575 320.111 31.4631 320.444 31.4631C320.909 31.4631 321.066 31.7418 321.066 32.1229V32.8963C321.066 32.933 321.03 32.9659 320.99 32.9659H320.861C320.821 32.9659 320.785 32.933 320.785 32.8963V32.1229C320.785 31.8443 320.649 31.7088 320.424 31.7088C320.123 31.7088 319.906 31.9177 319.906 31.9177V32.8963C319.906 32.933 319.87 32.9659 319.83 32.9659H319.706C319.665 32.9659 319.629 32.933 319.629 32.8963V31.5695H319.629Z" fill="white"/>
<path d="M321.676 32.8598L322.463 31.7418V31.7308H321.788C321.748 31.7308 321.716 31.6978 321.716 31.6612V31.5695C321.716 31.5292 321.748 31.4999 321.788 31.4999H322.796C322.856 31.4999 322.896 31.5513 322.864 31.5989L322.097 32.7242V32.7352H322.715C322.76 32.7352 322.792 32.7645 322.792 32.8048V32.8965C322.792 32.9331 322.76 32.9661 322.715 32.9661H321.752C321.712 32.9661 321.676 32.9331 321.676 32.8965V32.8599V32.8598Z" fill="white"/>
<path d="M324.164 31.4631C324.61 31.4631 324.963 31.815 324.963 32.2292C324.963 32.6433 324.61 33.0026 324.164 33.0026C323.719 33.0026 323.366 32.6507 323.366 32.2292C323.366 31.8077 323.719 31.4631 324.164 31.4631ZM324.164 32.7644C324.457 32.7644 324.686 32.5261 324.686 32.2292C324.686 31.9323 324.457 31.705 324.164 31.705C323.871 31.705 323.643 31.9396 323.643 32.2292C323.643 32.5187 323.871 32.7644 324.164 32.7644Z" fill="white"/>
</g>
</g>
</g>
<defs>
<clipPath id="clip0_4357_30748">
<rect width="350" height="218.75" fill="white"/>
</clipPath>
<clipPath id="clip1_4357_30748">
<rect width="336" height="285" fill="white" transform="translate(7 5)"/>
</clipPath>
<clipPath id="clip2_4357_30748">
<rect width="11.9859" height="8.27329" fill="white" transform="translate(311.014 19.0466)"/>
</clipPath>
<clipPath id="clip3_4357_30748">
<rect width="11.9038" height="2.6087" fill="white" transform="translate(313.023 30.3898)"/>
</clipPath>
</defs>
</svg>
