<svg width="350" height="219" viewBox="0 0 350 219" fill="none" xmlns="http://www.w3.org/2000/svg">
<g clip-path="url(#clip0_4355_34102)">
<rect width="350" height="218.75" fill="white"/>
<g opacity="0.6" clip-path="url(#clip1_4355_34102)">
<path d="M305.981 1.3494L7.75842 81.2579L44.3426 217.792L342.565 137.884L305.981 1.3494Z" fill="#FFF7E3"/>
<g opacity="0.15">
<mask id="mask0_4355_34102" style="mask-type:luminance" maskUnits="userSpaceOnUse" x="14" y="8" width="322" height="203">
<path d="M302.031 8.18163L14.5889 85.2015L48.2861 210.961L335.728 133.942L302.031 8.18163Z" fill="white"/>
</mask>
<g mask="url(#mask0_4355_34102)">
<path fill-rule="evenodd" clip-rule="evenodd" d="M165.968 75.2446C147.009 80.3246 135.757 99.8122 140.837 118.771C145.917 137.73 165.405 148.981 184.364 143.901C203.323 138.821 214.574 119.334 209.494 100.375C204.414 81.4156 184.927 70.1645 165.968 75.2446ZM140.273 118.922C135.11 99.6518 146.546 79.844 165.816 74.6805C185.087 69.517 204.895 80.953 210.058 100.224C215.222 119.494 203.786 139.302 184.515 144.465C165.245 149.629 145.437 138.193 140.273 118.922Z" fill="#579657"/>
<path fill-rule="evenodd" clip-rule="evenodd" d="M163.321 86.5837C163.57 93.202 165 102.069 167.557 111.612C170.114 121.154 173.309 129.549 176.402 135.405C177.95 138.335 179.465 140.615 180.852 142.086C181.546 142.822 182.197 143.343 182.793 143.646C183.387 143.948 183.909 144.023 184.364 143.901C184.819 143.779 185.233 143.453 185.597 142.895C185.962 142.335 186.265 141.557 186.498 140.573C186.964 138.606 187.136 135.874 187.011 132.562C186.762 125.944 185.331 117.077 182.774 107.534C180.217 97.9916 177.023 89.5973 173.93 83.7411C172.382 80.8109 170.867 78.5306 169.48 77.0598C168.786 76.3242 168.135 75.8026 167.538 75.5C166.944 75.1984 166.423 75.1226 165.968 75.2446C165.512 75.3666 165.099 75.693 164.735 76.2512C164.37 76.8115 164.067 77.5888 163.834 78.5727C163.368 80.5401 163.196 83.2722 163.321 86.5837ZM164.246 75.9324C164.662 75.2933 165.182 74.8505 165.816 74.6805C166.451 74.5106 167.123 74.634 167.803 74.9793C168.481 75.3234 169.185 75.8963 169.905 76.6591C171.344 78.1852 172.887 80.5179 174.446 83.4684C177.565 89.3735 180.774 97.8111 183.338 107.383C185.903 116.955 187.343 125.867 187.595 132.54C187.72 135.875 187.55 138.667 187.066 140.708C186.825 141.728 186.501 142.576 186.086 143.214C185.67 143.853 185.15 144.296 184.515 144.465C183.881 144.635 183.209 144.512 182.529 144.167C181.851 143.823 181.147 143.25 180.427 142.487C178.988 140.961 177.444 138.628 175.886 135.678C172.767 129.773 169.558 121.335 166.993 111.763C164.429 102.191 162.988 93.2792 162.737 86.6057C162.611 83.2714 162.782 80.4794 163.265 78.4381C163.507 77.4177 163.83 76.5695 164.246 75.9324Z" fill="#579657"/>
<path fill-rule="evenodd" clip-rule="evenodd" d="M141.093 117.2C140.791 117.795 140.715 118.316 140.837 118.771C140.959 119.226 141.286 119.64 141.844 120.004C142.404 120.369 143.182 120.672 144.165 120.905C146.133 121.371 148.865 121.543 152.177 121.418C158.795 121.169 167.662 119.738 177.204 117.181C186.747 114.624 195.141 111.43 200.998 108.337C203.928 106.789 206.208 105.274 207.679 103.887C208.415 103.193 208.936 102.542 209.239 101.946C209.54 101.351 209.616 100.83 209.494 100.375C209.372 99.9195 209.046 99.5058 208.488 99.142C207.927 98.7769 207.15 98.4738 206.166 98.2407C204.199 97.7747 201.467 97.603 198.155 97.7277C191.537 97.977 182.67 99.4075 173.127 101.965C163.584 104.522 155.19 107.716 149.334 110.809C146.404 112.357 144.123 113.872 142.653 115.259C141.917 115.953 141.395 116.604 141.093 117.2ZM149.061 110.293C154.966 107.174 163.404 103.965 172.976 101.4C182.548 98.8356 191.46 97.3956 198.133 97.1442C201.467 97.0186 204.259 97.189 206.301 97.6725C207.321 97.9142 208.169 98.2376 208.806 98.6527C209.445 99.0692 209.888 99.5893 210.058 100.224C210.228 100.858 210.105 101.53 209.76 102.21C209.415 102.888 208.843 103.592 208.08 104.312C206.554 105.751 204.221 107.295 201.27 108.853C195.365 111.972 186.928 115.181 177.356 117.746C167.784 120.31 158.872 121.75 152.199 122.002C148.864 122.127 146.072 121.957 144.031 121.474C143.01 121.232 142.162 120.908 141.525 120.493C140.886 120.077 140.443 119.557 140.273 118.922C140.103 118.288 140.227 117.616 140.572 116.936C140.916 116.258 141.489 115.554 142.252 114.834C143.778 113.395 146.111 111.851 149.061 110.293Z" fill="#579657"/>
<path fill-rule="evenodd" clip-rule="evenodd" d="M183.045 84.9465C178.543 89.8025 173.285 97.083 168.347 105.636C163.409 114.189 159.732 122.383 157.778 128.71C156.801 131.876 156.259 134.56 156.2 136.581C156.17 137.591 156.261 138.42 156.469 139.056C156.676 139.689 156.991 140.111 157.398 140.347C157.806 140.582 158.329 140.644 158.981 140.506C159.635 140.368 160.399 140.033 161.26 139.502C162.98 138.44 165.033 136.629 167.286 134.2C171.789 129.344 177.046 122.063 181.985 113.51C186.923 104.957 190.599 96.7633 192.553 90.4357C193.531 87.2696 194.072 84.5863 194.132 82.5655C194.162 81.5549 194.07 80.7257 193.863 80.0901C193.656 79.4568 193.341 79.0346 192.933 78.7991C192.525 78.5636 192.002 78.5019 191.35 78.6396C190.696 78.7777 189.932 79.1131 189.072 79.6442C187.352 80.706 185.299 82.5167 183.045 84.9465ZM191.23 78.0682C191.976 77.9107 192.657 77.9652 193.225 78.2934C193.794 78.6216 194.181 79.1839 194.418 79.9089C194.654 80.6317 194.746 81.5346 194.716 82.5827C194.654 84.6793 194.096 87.4201 193.111 90.608C191.141 96.9884 187.444 105.222 182.49 113.802C177.537 122.381 172.255 129.7 167.714 134.597C165.446 137.043 163.351 138.897 161.566 139.999C160.674 140.55 159.846 140.921 159.102 141.078C158.356 141.235 157.675 141.181 157.106 140.853C156.538 140.524 156.15 139.962 155.914 139.237C155.678 138.514 155.585 137.611 155.616 136.563C155.678 134.467 156.236 131.726 157.22 128.538C159.191 122.158 162.888 113.924 167.841 105.344C172.795 96.7648 178.077 89.4459 182.617 84.5494C184.886 82.1029 186.98 80.249 188.765 79.1472C189.657 78.5965 190.486 78.2253 191.23 78.0682Z" fill="#579657"/>
<path fill-rule="evenodd" clip-rule="evenodd" d="M145.683 90.8761C145.05 91.0828 144.627 91.3978 144.392 91.8057C144.156 92.2136 144.095 92.7367 144.232 93.3885C144.37 94.0427 144.706 94.8065 145.237 95.6669C146.299 97.3872 148.109 99.4402 150.539 101.693C155.395 106.196 162.676 111.454 171.229 116.392C179.782 121.33 187.975 125.006 194.303 126.96C197.469 127.938 200.152 128.48 202.173 128.539C203.184 128.569 204.013 128.477 204.649 128.27C205.282 128.063 205.704 127.748 205.94 127.34C206.175 126.932 206.237 126.409 206.099 125.757C205.961 125.103 205.626 124.34 205.095 123.479C204.033 121.759 202.222 119.706 199.792 117.453C194.936 112.95 187.656 107.692 179.103 102.754C170.549 97.8161 162.356 94.1397 156.028 92.1856C152.862 91.2079 150.179 90.6664 148.158 90.607C147.148 90.5772 146.318 90.6687 145.683 90.8761ZM156.201 91.6277C162.581 93.598 170.815 97.2952 179.395 102.249C187.974 107.202 195.293 112.484 200.189 117.025C202.636 119.293 204.49 121.388 205.592 123.172C206.142 124.065 206.513 124.893 206.671 125.637C206.828 126.383 206.774 127.064 206.445 127.632C206.117 128.201 205.555 128.588 204.83 128.825C204.107 129.061 203.204 129.154 202.156 129.123C200.059 129.061 197.319 128.503 194.131 127.518C187.75 125.548 179.516 121.851 170.937 116.898C162.358 111.944 155.039 106.662 150.142 102.121C147.696 99.8529 145.842 97.7585 144.74 95.9736C144.189 95.0813 143.818 94.2531 143.661 93.5092C143.503 92.763 143.558 92.0822 143.886 91.5137C144.214 90.9452 144.777 90.5576 145.502 90.321C146.224 90.0851 147.127 89.9924 148.175 90.0232C150.272 90.0849 153.013 90.6432 156.201 91.6277Z" fill="#579657"/>
<path fill-rule="evenodd" clip-rule="evenodd" d="M164.597 70.13C142.813 75.967 129.886 98.358 135.723 120.142C141.56 141.925 163.951 154.853 185.734 149.016C207.518 143.179 220.446 120.788 214.609 99.0043C208.772 77.2205 186.381 64.2931 164.597 70.13ZM135.159 120.293C129.238 98.1976 142.351 75.4864 164.446 69.566C186.541 63.6456 209.252 76.7579 215.173 98.8532C221.093 120.948 207.981 143.66 185.886 149.58C163.79 155.5 141.079 142.388 135.159 120.293Z" fill="#579657"/>
<path fill-rule="evenodd" clip-rule="evenodd" d="M156.594 56.8727C154.915 59.7803 155.911 63.4982 158.819 65.1769C161.726 66.8555 165.444 65.8593 167.123 62.9518C168.802 60.0442 167.805 56.3263 164.898 54.6476C161.99 52.9689 158.272 53.9651 156.594 56.8727ZM158.527 65.6826C155.34 63.8426 154.248 59.7676 156.088 56.5807C157.928 53.3939 162.003 52.302 165.19 54.1419C168.377 55.9818 169.469 60.0569 167.629 63.2438C165.789 66.4306 161.714 67.5225 158.527 65.6826Z" fill="#579657"/>
<path fill-rule="evenodd" clip-rule="evenodd" d="M186.898 153.357C183.655 154.226 181.73 157.56 182.599 160.803C183.468 164.046 186.802 165.97 190.045 165.101C193.288 164.232 195.212 160.899 194.343 157.656C193.474 154.413 190.141 152.488 186.898 153.357ZM182.035 160.954C181.083 157.399 183.192 153.746 186.747 152.793C190.301 151.841 193.955 153.95 194.907 157.505C195.86 161.059 193.75 164.713 190.196 165.665C186.641 166.618 182.988 164.508 182.035 160.954Z" fill="#579657"/>
<path fill-rule="evenodd" clip-rule="evenodd" d="M120.238 119.841C118.559 122.749 119.555 126.466 122.463 128.145C125.371 129.824 129.088 128.828 130.767 125.92C132.446 123.012 131.45 119.295 128.542 117.616C125.634 115.937 121.917 116.933 120.238 119.841ZM122.171 128.651C118.984 126.811 117.892 122.736 119.732 119.549C121.572 116.362 125.647 115.27 128.834 117.11C132.021 118.95 133.113 123.025 131.273 126.212C129.433 129.399 125.358 130.491 122.171 128.651Z" fill="#579657"/>
<path fill-rule="evenodd" clip-rule="evenodd" d="M218.766 96.5009C218.893 99.8559 221.716 102.472 225.071 102.344C228.426 102.217 231.043 99.3934 230.915 96.0384C230.787 92.6835 227.964 90.0673 224.609 90.195C221.254 90.3227 218.638 93.146 218.766 96.5009ZM225.094 102.928C221.416 103.068 218.322 100.2 218.182 96.5231C218.042 92.8459 220.909 89.7515 224.587 89.6115C228.264 89.4715 231.358 92.339 231.498 96.0162C231.638 99.6935 228.771 102.788 225.094 102.928Z" fill="#579657"/>
<path fill-rule="evenodd" clip-rule="evenodd" d="M199.294 59.1756C196.051 60.0446 194.126 63.3779 194.995 66.6209C195.864 69.8639 199.198 71.7884 202.441 70.9195C205.684 70.0505 207.608 66.7171 206.739 63.4741C205.87 60.2312 202.537 58.3067 199.294 59.1756ZM194.431 66.772C193.479 63.2175 195.588 59.564 199.143 58.6115C202.697 57.6591 206.351 59.7685 207.303 63.323C208.256 66.8775 206.146 70.5311 202.592 71.4835C199.037 72.4359 195.384 70.3265 194.431 66.772Z" fill="#579657"/>
<path fill-rule="evenodd" clip-rule="evenodd" d="M147.883 148.222C144.64 149.091 142.716 152.424 143.584 155.667C144.453 158.91 147.787 160.835 151.03 159.966C154.273 159.097 156.197 155.763 155.328 152.52C154.459 149.277 151.126 147.353 147.883 148.222ZM143.02 155.818C142.068 152.264 144.177 148.61 147.732 147.658C151.286 146.705 154.94 148.815 155.892 152.369C156.845 155.924 154.735 159.577 151.181 160.53C147.626 161.482 143.973 159.373 143.02 155.818Z" fill="#579657"/>
<path fill-rule="evenodd" clip-rule="evenodd" d="M133.682 78.6037C130.776 76.926 127.057 77.9225 125.379 80.8285C123.701 83.7344 124.698 87.4536 127.604 89.1313C130.51 90.8091 134.229 89.8126 135.906 86.9066C137.584 84.0006 136.588 80.2815 133.682 78.6037ZM124.873 80.5365C126.712 77.3512 130.788 76.259 133.974 78.098C137.159 79.937 138.251 84.0133 136.412 87.1986C134.573 90.3838 130.497 91.4761 127.312 89.6371C124.126 87.7981 123.034 83.7218 124.873 80.5365Z" fill="#579657"/>
<path fill-rule="evenodd" clip-rule="evenodd" d="M218.112 129.404C214.869 130.273 212.944 133.607 213.813 136.85C214.682 140.093 218.015 142.017 221.258 141.148C224.501 140.279 226.426 136.946 225.557 133.703C224.688 130.46 221.355 128.535 218.112 129.404ZM213.249 137.001C212.297 133.446 214.406 129.793 217.961 128.84C221.515 127.888 225.169 129.997 226.121 133.552C227.073 137.106 224.964 140.76 221.41 141.712C217.855 142.665 214.201 140.555 213.249 137.001Z" fill="#579657"/>
<path fill-rule="evenodd" clip-rule="evenodd" d="M139.003 136.915C136.985 134.242 133.168 133.715 130.494 135.734C127.821 137.753 127.294 141.569 129.314 144.243C131.333 146.917 135.144 147.451 137.822 145.424L137.822 145.424C140.496 143.405 141.03 139.593 139.003 136.915L139.003 136.915ZM139.469 136.563C137.255 133.632 133.073 133.055 130.143 135.268C127.211 137.482 126.635 141.665 128.848 144.595C131.061 147.526 135.239 148.112 138.175 145.89C141.105 143.676 141.691 139.499 139.469 136.563Z" fill="#579657"/>
<path fill-rule="evenodd" clip-rule="evenodd" d="M36.9508 91.0135C34.9321 88.3404 31.116 87.8134 28.4421 89.8327C25.7685 91.8517 25.2343 95.6632 27.2611 98.3413L27.2613 98.3415C29.2803 101.015 33.0918 101.549 35.7698 99.5225L35.77 99.5223C38.4436 97.5033 38.9778 93.6918 36.951 91.0137L36.9508 91.0135ZM37.4167 90.6613C35.2029 87.7303 31.0205 87.1537 28.0901 89.3667C25.1593 91.5801 24.5737 95.758 26.7954 98.6937C29.0088 101.624 33.1867 102.21 36.1222 99.9881C39.0528 97.7747 39.6383 93.5969 37.4167 90.6613Z" fill="#579657"/>
<path fill-rule="evenodd" clip-rule="evenodd" d="M296.526 21.4605C294.507 18.787 290.696 18.2528 288.018 20.2795L288.017 20.2797C285.344 22.2987 284.81 26.1102 286.836 28.7883L286.837 28.7885C288.856 31.462 292.667 31.9962 295.345 29.9695L295.345 29.9693C298.019 27.9503 298.553 24.1388 296.526 21.4607L296.526 21.4605ZM296.992 21.1083C294.779 18.1778 290.601 17.5923 287.665 19.8138C287.665 19.8138 287.665 19.8137 287.665 19.8137L287.841 20.0467L287.665 19.8139C287.665 19.8139 287.665 19.8138 287.665 19.8138C284.735 22.0272 284.149 26.2051 286.371 29.1407C288.584 32.0713 292.762 32.6568 295.697 30.4351C298.628 28.2217 299.214 24.0439 296.992 21.1083ZM295.697 30.4351L295.521 30.2023L295.697 30.4353C295.697 30.4352 295.697 30.4352 295.697 30.4351ZM286.371 29.1407L286.604 28.9645L286.371 29.1404C286.371 29.1405 286.371 29.1406 286.371 29.1407Z" fill="#579657"/>
<path fill-rule="evenodd" clip-rule="evenodd" d="M226.922 110.344C223.595 109.9 220.539 112.236 220.096 115.563C219.652 118.89 221.987 121.946 225.315 122.389C228.642 122.833 231.697 120.497 232.141 117.17C232.585 113.843 230.249 110.788 226.922 110.344ZM219.517 115.486C220.003 111.839 223.353 109.279 226.999 109.765C230.646 110.251 233.206 113.601 232.72 117.248C232.233 120.894 228.884 123.454 225.237 122.968C221.59 122.482 219.031 119.132 219.517 115.486Z" fill="#579657"/>
<path fill-rule="evenodd" clip-rule="evenodd" d="M125.009 96.7522C121.682 96.3085 118.626 98.6439 118.183 101.971C117.739 105.298 120.074 108.354 123.402 108.797C126.729 109.241 129.784 106.906 130.228 103.579C130.672 100.251 128.336 97.1958 125.009 96.7522ZM117.604 101.894C118.09 98.2469 121.44 95.6871 125.086 96.1733C128.733 96.6596 131.293 100.009 130.807 103.656C130.321 107.303 126.971 109.863 123.324 109.376C119.677 108.89 117.118 105.541 117.604 101.894Z" fill="#579657"/>
<path fill-rule="evenodd" clip-rule="evenodd" d="M180.384 52.7423C177.141 53.6112 175.217 56.9446 176.086 60.1876C176.955 63.4305 180.288 65.3551 183.531 64.4861C186.774 63.6171 188.699 60.2838 187.83 57.0408C186.961 53.7978 183.627 51.8733 180.384 52.7423ZM175.522 60.3387C174.569 56.7842 176.679 53.1306 180.233 52.1782C183.788 51.2258 187.441 53.3352 188.394 56.8897C189.346 60.4442 187.237 64.0977 183.682 65.0502C180.128 66.0026 176.474 63.8932 175.522 60.3387Z" fill="#579657"/>
<path fill-rule="evenodd" clip-rule="evenodd" d="M169.17 154.505C165.843 154.061 162.787 156.396 162.343 159.723C161.9 163.051 164.235 166.106 167.562 166.55C170.889 166.993 173.945 164.658 174.389 161.331C174.832 158.004 172.497 154.948 169.17 154.505ZM161.765 159.646C162.251 155.999 165.6 153.439 169.247 153.926C172.894 154.412 175.454 157.761 174.967 161.408C174.481 165.055 171.132 167.615 167.485 167.129C163.838 166.642 161.278 163.293 161.765 159.646Z" fill="#579657"/>
<path fill-rule="evenodd" clip-rule="evenodd" d="M19.6759 87.8224L298.936 12.9949L330.643 131.327L51.3829 206.155L19.6759 87.8224ZM20.3911 88.2354L51.7958 205.439L329.928 130.914L298.523 13.7101L20.3911 88.2354Z" fill="#579657"/>
</g>
</g>
<path d="M44.0536 129.652L42.9421 125.503L44.3438 125.128C44.6692 125.04 44.951 125.028 45.1891 125.09C45.4281 125.15 45.6242 125.267 45.7773 125.438C45.9305 125.61 46.0398 125.818 46.1053 126.062C46.1707 126.307 46.1803 126.542 46.1339 126.769C46.0889 126.995 45.979 127.196 45.8042 127.37C45.6291 127.543 45.3802 127.672 45.0574 127.759L44.0528 128.028L43.9334 127.582L44.9218 127.317C45.1446 127.258 45.3133 127.171 45.4277 127.058C45.5421 126.945 45.6121 126.815 45.6378 126.668C45.6644 126.519 45.6555 126.361 45.611 126.195C45.5665 126.029 45.4957 125.889 45.3984 125.774C45.3026 125.66 45.1765 125.583 45.0202 125.546C44.8636 125.507 44.6725 125.517 44.447 125.578L43.5638 125.814L44.556 129.517L44.0536 129.652Z" fill="#546D54"/>
<path d="M47.4211 128.749L46.8945 128.89L47.3061 124.334L47.8247 124.195L50.4595 127.935L49.9328 128.076L47.7575 124.916L47.7251 124.925L47.4211 128.749ZM47.1814 127.077L49.3042 126.508L49.4236 126.954L47.3008 127.522L47.1814 127.077Z" fill="#546D54"/>
<path d="M49.2142 123.823L49.7895 123.668L51.4589 125.297L51.5075 125.284L52.1391 123.039L52.7144 122.885L51.8689 125.725L52.327 127.435L51.8247 127.569L51.3666 125.86L49.2142 123.823Z" fill="#546D54"/>
<path d="M53.5184 123.147L53.399 122.701L56.5103 121.868L56.6297 122.313L55.3252 122.663L56.3174 126.366L55.815 126.5L54.8229 122.797L53.5184 123.147Z" fill="#546D54"/>
<path d="M61.1688 122.842C61.2861 123.28 61.3084 123.679 61.2358 124.04C61.1632 124.401 61.0123 124.705 60.7831 124.952C60.554 125.198 60.2625 125.369 59.9087 125.464C59.5549 125.559 59.2171 125.557 58.8953 125.458C58.5735 125.359 58.2909 125.171 58.0475 124.895C57.8042 124.618 57.6238 124.261 57.5066 123.824C57.3894 123.386 57.3671 122.987 57.4397 122.626C57.5123 122.265 57.6631 121.961 57.8923 121.714C58.1215 121.468 58.413 121.297 58.7667 121.202C59.1205 121.107 59.4583 121.11 59.7801 121.209C60.1019 121.308 60.3845 121.495 60.6279 121.772C60.8713 122.048 61.0516 122.405 61.1688 122.842ZM60.6827 122.973C60.5864 122.614 60.4451 122.327 60.2587 122.112C60.0737 121.896 59.8622 121.753 59.6243 121.68C59.3877 121.608 59.1438 121.605 58.8927 121.672C58.6415 121.739 58.431 121.864 58.2611 122.045C58.0925 122.227 57.9813 122.457 57.9273 122.736C57.8747 123.015 57.8965 123.334 57.9927 123.694C58.089 124.053 58.2296 124.34 58.4147 124.555C58.6011 124.77 58.8126 124.914 59.0491 124.987C59.2871 125.059 59.5316 125.061 59.7828 124.994C60.0339 124.927 60.2438 124.803 60.4123 124.621C60.5822 124.44 60.6935 124.209 60.7461 123.931C60.8001 123.651 60.7789 123.332 60.6827 122.973Z" fill="#546D54"/>
<path d="M61.1776 121.095L61.0582 120.649L64.1694 119.815L64.2888 120.261L62.9844 120.611L63.9765 124.313L63.4742 124.448L62.482 120.745L61.1776 121.095Z" fill="#546D54"/>
<path d="M66.0563 123.756L64.9447 119.608L65.447 119.473L65.942 121.32L68.1539 120.728L67.659 118.88L68.1613 118.746L69.2728 122.894L68.7705 123.029L68.2733 121.173L66.0614 121.766L66.5586 123.621L66.0563 123.756Z" fill="#546D54"/>
<path d="M70.2785 122.625L69.167 118.476L71.6706 117.805L71.79 118.251L69.7887 118.787L70.1643 120.189L72.0359 119.688L72.1553 120.133L70.2837 120.635L70.6615 122.044L72.6951 121.5L72.8145 121.945L70.2785 122.625Z" fill="#546D54"/>
<path d="M48.6844 132.933C48.8016 133.37 48.8239 133.77 48.7513 134.131C48.6787 134.492 48.5278 134.796 48.2987 135.042C48.0695 135.289 47.778 135.46 47.4242 135.554C47.0704 135.649 46.7326 135.647 46.4108 135.548C46.089 135.449 45.8065 135.261 45.5631 134.985C45.3197 134.709 45.1394 134.352 45.0221 133.914C44.9049 133.477 44.8826 133.077 44.9552 132.716C45.0278 132.355 45.1787 132.052 45.4078 131.805C45.637 131.558 45.9285 131.387 46.2823 131.293C46.6361 131.198 46.9739 131.2 47.2957 131.299C47.6174 131.398 47.9 131.586 48.1434 131.862C48.3868 132.138 48.5671 132.495 48.6844 132.933ZM48.1982 133.063C48.102 132.704 47.9606 132.417 47.7742 132.202C47.5892 131.987 47.3777 131.843 47.1398 131.771C46.9032 131.698 46.6594 131.695 46.4082 131.763C46.157 131.83 45.9465 131.954 45.7766 132.136C45.6081 132.317 45.4968 132.547 45.4428 132.827C45.3902 133.106 45.412 133.425 45.5083 133.784C45.6045 134.143 45.7452 134.43 45.9302 134.646C46.1166 134.861 46.3281 135.004 46.5647 135.077C46.8026 135.149 47.0471 135.152 47.2983 135.085C47.5495 135.017 47.7593 134.893 47.9279 134.712C48.0978 134.53 48.209 134.3 48.2616 134.021C48.3156 133.742 48.2945 133.422 48.1982 133.063Z" fill="#546D54"/>
<path d="M50.0848 134.781L48.9732 130.632L50.3749 130.257C50.699 130.17 50.9799 130.154 51.2175 130.209C51.4548 130.263 51.6491 130.372 51.8004 130.537C51.9517 130.702 52.0601 130.907 52.1256 131.151C52.191 131.396 52.1992 131.626 52.1499 131.842C52.1006 132.057 51.9872 132.247 51.8095 132.41C51.6315 132.572 51.3818 132.696 51.0604 132.783L49.9261 133.087L49.8045 132.633L50.9226 132.333C51.1441 132.274 51.3136 132.194 51.4313 132.093C51.5503 131.991 51.6243 131.873 51.6532 131.738C51.6831 131.601 51.6758 131.45 51.6313 131.284C51.5868 131.117 51.5169 130.981 51.4215 130.873C51.326 130.765 51.2011 130.696 51.0466 130.665C50.8918 130.633 50.7023 130.647 50.4781 130.707L49.595 130.943L50.5871 134.646L50.0848 134.781ZM51.5381 132.394L53.0583 133.984L52.4749 134.14L50.9709 132.546L51.5381 132.394Z" fill="#546D54"/>
<path d="M55.0135 133.46L53.7333 133.803L52.6218 129.655L53.9586 129.297C54.3611 129.189 54.7277 129.18 55.0584 129.269C55.3889 129.357 55.6718 129.535 55.9072 129.804C56.1423 130.071 56.3174 130.419 56.4325 130.848C56.5483 131.28 56.571 131.673 56.5006 132.026C56.4299 132.378 56.2698 132.677 56.0203 132.923C55.7704 133.168 55.4348 133.347 55.0135 133.46ZM54.1163 133.223L54.8617 133.023C55.2047 132.931 55.4712 132.789 55.6612 132.596C55.8513 132.403 55.9689 132.17 56.0142 131.896C56.0594 131.622 56.0368 131.316 55.9463 130.978C55.8566 130.644 55.7247 130.37 55.5505 130.157C55.376 129.944 55.1627 129.801 54.9105 129.73C54.658 129.657 54.3697 129.664 54.0456 129.751L53.2435 129.966L54.1163 133.223Z" fill="#546D54"/>
<path d="M57.8331 132.705L56.7215 128.556L59.2251 127.885L59.3445 128.331L57.3432 128.867L57.7188 130.269L59.5904 129.767L59.7098 130.213L57.8382 130.715L58.216 132.124L60.2496 131.579L60.3691 132.025L57.8331 132.705Z" fill="#546D54"/>
<path d="M61.2421 131.791L60.1305 127.643L61.5322 127.267C61.8563 127.18 62.1372 127.165 62.3748 127.22C62.612 127.273 62.8063 127.382 62.9576 127.547C63.109 127.712 63.2173 127.917 63.2828 128.162C63.3483 128.406 63.3564 128.636 63.3072 128.852C63.2579 129.068 63.1444 129.257 62.9668 129.421C62.7888 129.583 62.539 129.707 62.2177 129.793L61.0833 130.097L60.9618 129.643L62.0799 129.344C62.3013 129.284 62.4709 129.204 62.5886 129.103C62.7076 129.002 62.7816 128.883 62.8105 128.748C62.8404 128.612 62.8331 128.46 62.7886 128.294C62.7441 128.128 62.6741 127.991 62.5787 127.883C62.4833 127.776 62.3584 127.707 62.2039 127.676C62.0491 127.643 61.8596 127.657 61.6354 127.717L60.7523 127.954L61.7444 131.657L61.2421 131.791ZM62.6954 129.404L64.2156 130.994L63.6322 131.151L62.1282 129.556L62.6954 129.404Z" fill="#546D54"/>
<path d="M69.4392 127.372C69.5565 127.809 69.5788 128.208 69.5062 128.569C69.4336 128.931 69.2827 129.234 69.0535 129.481C68.8244 129.728 68.5329 129.898 68.1791 129.993C67.8253 130.088 67.4875 130.086 67.1657 129.987C66.8439 129.888 66.5613 129.7 66.318 129.424C66.0746 129.147 65.8943 128.79 65.777 128.353C65.6598 127.915 65.6375 127.516 65.7101 127.155C65.7827 126.794 65.9336 126.49 66.1627 126.244C66.3919 125.997 66.6834 125.826 67.0372 125.731C67.391 125.637 67.7288 125.639 68.0505 125.738C68.3723 125.837 68.6549 126.025 68.8983 126.301C69.1417 126.577 69.322 126.934 69.4392 127.372ZM68.9531 127.502C68.8569 127.143 68.7155 126.856 68.5291 126.641C68.3441 126.425 68.1326 126.282 67.8947 126.209C67.6581 126.137 67.4143 126.134 67.1631 126.201C66.9119 126.269 66.7014 126.393 66.5315 126.575C66.3629 126.756 66.2517 126.986 66.1977 127.265C66.1451 127.544 66.1669 127.863 66.2632 128.223C66.3594 128.582 66.5001 128.869 66.6851 129.084C66.8715 129.299 67.083 129.443 67.3196 129.516C67.5575 129.588 67.802 129.591 68.0532 129.523C68.3044 129.456 68.5142 129.332 68.6828 129.151C68.8527 128.969 68.9639 128.739 69.0165 128.46C69.0705 128.18 69.0494 127.861 68.9531 127.502Z" fill="#546D54"/>
<path d="M70.8397 129.22L69.7281 125.071L72.2155 124.405L72.3349 124.85L70.3499 125.382L70.7254 126.784L72.5241 126.302L72.6435 126.748L70.8449 127.23L71.342 129.085L70.8397 129.22Z" fill="#546D54"/>
<path d="M74.3288 127.716C74.2289 127.743 74.1335 127.73 74.0428 127.677C73.952 127.625 73.8933 127.549 73.8665 127.449C73.8397 127.349 73.8525 127.254 73.9049 127.163C73.9573 127.072 74.0335 127.013 74.1334 126.987C74.2333 126.96 74.3287 126.973 74.4194 127.025C74.5102 127.077 74.5689 127.154 74.5957 127.254C74.6134 127.32 74.6128 127.385 74.5939 127.449C74.5763 127.513 74.5444 127.57 74.4981 127.618C74.4527 127.665 74.3963 127.698 74.3288 127.716ZM73.7665 125.617C73.6666 125.644 73.5712 125.631 73.4805 125.579C73.3897 125.527 73.331 125.45 73.3042 125.35C73.2774 125.25 73.2902 125.155 73.3426 125.064C73.395 124.974 73.4712 124.915 73.5711 124.888C73.671 124.861 73.7664 124.874 73.8571 124.927C73.9479 124.979 74.0066 125.055 74.0334 125.155C74.0511 125.221 74.0505 125.286 74.0316 125.351C74.014 125.415 73.9821 125.471 73.9358 125.52C73.8904 125.567 73.834 125.599 73.7665 125.617Z" fill="#546D54"/>
<path fill-rule="evenodd" clip-rule="evenodd" d="M234.007 87.8052L78.1366 129.571L78.0093 129.095L233.88 87.3298L234.007 87.8052Z" fill="#546D54"/>
<path d="M56.3432 175.294L55.1082 170.685L56.6656 170.267C57.0257 170.171 57.3377 170.153 57.6018 170.214C57.8654 170.274 58.0813 170.395 58.2494 170.579C58.4175 170.762 58.538 170.989 58.6107 171.261C58.6835 171.532 58.6925 171.788 58.6378 172.028C58.583 172.268 58.4569 172.478 58.2595 172.66C58.0617 172.84 57.7843 172.978 57.4272 173.074L56.1668 173.411L56.0318 172.907L57.2741 172.574C57.5202 172.508 57.7086 172.419 57.8393 172.307C57.9716 172.194 58.0538 172.063 58.0859 171.913C58.1191 171.761 58.111 171.593 58.0616 171.408C58.0121 171.224 57.9344 171.071 57.8284 170.952C57.7224 170.832 57.5836 170.755 57.4119 170.721C57.2399 170.685 57.0293 170.7 56.7803 170.767L55.799 171.03L56.9014 175.144L56.3432 175.294ZM57.958 172.642L59.6471 174.409L58.9989 174.582L57.3278 172.811L57.958 172.642Z" fill="#546D54"/>
<path d="M60.3971 174.208L59.1621 169.598L61.9439 168.853L62.0765 169.348L59.8529 169.944L60.2702 171.501L62.3498 170.944L62.4825 171.439L60.4029 171.996L60.8226 173.563L63.0822 172.957L63.2149 173.453L60.3971 174.208Z" fill="#546D54"/>
<path d="M64.342 172.519C64.231 172.548 64.1251 172.534 64.0242 172.476C63.9234 172.418 63.8581 172.333 63.8284 172.222C63.7986 172.111 63.8128 172.005 63.8711 171.904C63.9293 171.803 64.0139 171.738 64.1249 171.708C64.2359 171.679 64.3419 171.693 64.4427 171.751C64.5435 171.809 64.6088 171.894 64.6386 172.005C64.6583 172.078 64.6576 172.151 64.6366 172.223C64.6171 172.294 64.5816 172.356 64.5301 172.41C64.4797 172.462 64.417 172.498 64.342 172.519ZM63.7173 170.187C63.6062 170.217 63.5003 170.202 63.3995 170.144C63.2986 170.086 63.2333 170.001 63.2036 169.89C63.1738 169.779 63.1881 169.673 63.2463 169.573C63.3045 169.472 63.3891 169.406 63.5002 169.377C63.6112 169.347 63.7171 169.361 63.8179 169.419C63.9188 169.478 63.9841 169.562 64.0138 169.673C64.0335 169.747 64.0329 169.819 64.0118 169.891C63.9923 169.962 63.9568 170.025 63.9053 170.079C63.855 170.131 63.7923 170.167 63.7173 170.187Z" fill="#546D54"/>
<path fill-rule="evenodd" clip-rule="evenodd" d="M184.04 142.691L64.5606 174.705L64.4332 174.23L183.912 142.215L184.04 142.691Z" fill="#546D54"/>
<path fill-rule="evenodd" clip-rule="evenodd" d="M300.99 111.354L196.398 139.379L196.271 138.904L300.863 110.879L300.99 111.354Z" fill="#546D54"/>
<path opacity="0.15" d="M296.955 54.9719L250.746 67.3535L254.674 82.0127L300.883 69.6311L296.955 54.9719Z" fill="#579657"/>
<path d="M235.459 60.3299L234.037 60.711L232.802 56.1017L234.287 55.7037C234.734 55.5839 235.141 55.5737 235.509 55.673C235.876 55.7708 236.19 55.9688 236.452 56.267C236.713 56.5636 236.908 56.9505 237.036 57.4277C237.164 57.9078 237.19 58.3441 237.111 58.7365C237.033 59.1274 236.855 59.4597 236.578 59.7334C236.3 60.0056 235.927 60.2045 235.459 60.3299ZM234.462 60.0663L235.29 59.8444C235.671 59.7423 235.968 59.5841 236.179 59.37C236.39 59.1558 236.521 58.8964 236.571 58.5919C236.621 58.2873 236.596 57.9475 236.495 57.5724C236.396 57.2003 236.249 56.8962 236.056 56.6602C235.862 56.4227 235.625 56.2643 235.345 56.185C235.064 56.1042 234.744 56.112 234.384 56.2085L233.492 56.4473L234.462 60.0663Z" fill="#546D54"/>
<path d="M238.564 59.4978L237.979 59.6546L238.437 54.5919L239.013 54.4375L241.94 58.5932L241.355 58.75L238.938 55.239L238.902 55.2487L238.564 59.4978ZM238.298 57.6394L240.657 57.0074L240.789 57.5026L238.431 58.1346L238.298 57.6394Z" fill="#546D54"/>
<path d="M240.765 54.4986L240.633 54.0034L244.09 53.0771L244.222 53.5723L242.773 53.9606L243.875 58.0748L243.317 58.2243L242.215 54.1102L240.765 54.4986Z" fill="#546D54"/>
<path d="M246.186 57.4556L244.951 52.8463L247.733 52.1009L247.865 52.5961L245.642 53.1919L246.059 54.7493L248.139 54.1921L248.271 54.6872L246.192 55.2445L246.611 56.8109L248.871 56.2054L249.004 56.7006L246.186 57.4556Z" fill="#546D54"/>
<path d="M250.131 55.7666C250.02 55.7963 249.914 55.7821 249.813 55.7239C249.712 55.6657 249.647 55.581 249.617 55.47C249.587 55.359 249.602 55.253 249.66 55.1522C249.718 55.0514 249.803 54.9861 249.914 54.9563C250.025 54.9266 250.131 54.9408 250.232 54.999C250.332 55.0573 250.398 55.1419 250.427 55.2529C250.447 55.3264 250.446 55.399 250.425 55.4705C250.406 55.5417 250.37 55.6043 250.319 55.6583C250.269 55.7104 250.206 55.7465 250.131 55.7666ZM249.506 53.4349C249.395 53.4647 249.289 53.4504 249.188 53.3922C249.087 53.334 249.022 53.2494 248.992 53.1384C248.963 53.0273 248.977 52.9214 249.035 52.8206C249.093 52.7197 249.178 52.6544 249.289 52.6247C249.4 52.5949 249.506 52.6092 249.607 52.6674C249.708 52.7256 249.773 52.8102 249.803 52.9213C249.822 52.9948 249.822 53.0673 249.801 53.1389C249.781 53.2101 249.746 53.2726 249.694 53.3266C249.644 53.3787 249.581 53.4148 249.506 53.4349Z" fill="#546D54"/>
<path fill-rule="evenodd" clip-rule="evenodd" d="M294.515 46.1193L252.065 57.4938L251.937 57.0184L294.387 45.6439L294.515 46.1193Z" fill="#546D54"/>
<path d="M108.639 175.999L109.874 180.609L109.316 180.758L108.238 176.734L108.211 176.741L107.286 177.79L107.134 177.223L108.081 176.149L108.639 175.999Z" fill="#546D54"/>
<path d="M111.2 180.253L111.091 179.848L112.166 177.775C112.293 177.532 112.394 177.323 112.471 177.148C112.548 176.972 112.597 176.812 112.618 176.67C112.64 176.526 112.633 176.383 112.595 176.242C112.552 176.08 112.475 175.95 112.365 175.852C112.257 175.754 112.127 175.691 111.976 175.662C111.826 175.634 111.667 175.641 111.5 175.686C111.323 175.734 111.179 175.812 111.066 175.921C110.955 176.028 110.881 176.156 110.844 176.306C110.808 176.455 110.814 176.618 110.861 176.793L110.33 176.936C110.258 176.666 110.256 176.412 110.326 176.174C110.396 175.937 110.523 175.733 110.707 175.561C110.893 175.389 111.12 175.267 111.388 175.195C111.658 175.123 111.913 175.116 112.152 175.174C112.391 175.232 112.596 175.342 112.766 175.504C112.937 175.666 113.054 175.865 113.117 176.102C113.163 176.272 113.176 176.446 113.158 176.624C113.141 176.801 113.084 177.008 112.987 177.246C112.891 177.483 112.749 177.778 112.561 178.132L111.823 179.517L111.832 179.553L113.975 178.979L114.108 179.474L111.2 180.253Z" fill="#546D54"/>
<path d="M116.611 178.871C116.314 178.95 116.036 178.97 115.776 178.931C115.517 178.891 115.296 178.798 115.11 178.653C114.926 178.506 114.796 178.314 114.719 178.075L115.286 177.923C115.338 178.069 115.424 178.183 115.543 178.267C115.661 178.35 115.801 178.401 115.962 178.42C116.123 178.44 116.293 178.426 116.47 178.378C116.668 178.325 116.834 178.244 116.969 178.134C117.103 178.024 117.197 177.895 117.251 177.749C117.306 177.603 117.311 177.448 117.267 177.286C117.222 177.117 117.14 176.979 117.021 176.872C116.902 176.764 116.752 176.695 116.57 176.665C116.389 176.635 116.181 176.651 115.947 176.714L115.577 176.813L115.445 176.318L115.814 176.219C115.997 176.17 116.149 176.094 116.269 175.991C116.391 175.887 116.475 175.765 116.521 175.624C116.568 175.483 116.57 175.331 116.526 175.169C116.485 175.013 116.414 174.887 116.314 174.79C116.214 174.693 116.092 174.629 115.949 174.598C115.807 174.567 115.651 174.574 115.482 174.619C115.323 174.662 115.181 174.731 115.055 174.828C114.931 174.922 114.839 175.036 114.78 175.169C114.72 175.301 114.707 175.444 114.741 175.599L114.201 175.744C114.145 175.5 114.161 175.269 114.249 175.051C114.336 174.831 114.477 174.641 114.67 174.48C114.865 174.318 115.095 174.202 115.361 174.131C115.646 174.054 115.906 174.047 116.141 174.107C116.375 174.167 116.572 174.276 116.732 174.434C116.892 174.592 117.001 174.78 117.059 174.997C117.129 175.257 117.12 175.497 117.032 175.716C116.946 175.935 116.797 176.112 116.583 176.244L116.593 176.28C116.897 176.25 117.157 176.313 117.374 176.469C117.591 176.623 117.738 176.847 117.817 177.139C117.884 177.39 117.876 177.633 117.793 177.869C117.711 178.104 117.568 178.309 117.364 178.486C117.161 178.663 116.91 178.791 116.611 178.871Z" fill="#546D54"/>
<path d="M118.711 177.228L118.588 176.768L119.755 173.021L120.088 172.932L120.279 173.643L120.053 173.703L119.172 176.535L119.182 176.571L121.909 175.84L122.042 176.335L118.711 177.228ZM121.134 177.592L120.843 176.507L120.786 176.293L119.899 172.982L120.43 172.84L121.665 177.449L121.134 177.592Z" fill="#546D54"/>
<path d="M124.596 176.731C124.332 176.802 124.08 176.813 123.84 176.765C123.601 176.717 123.392 176.618 123.216 176.469C123.039 176.32 122.914 176.13 122.839 175.9L123.379 175.755C123.456 175.958 123.597 176.105 123.801 176.197C124.007 176.286 124.228 176.299 124.463 176.236C124.652 176.186 124.809 176.096 124.932 175.968C125.057 175.84 125.14 175.687 125.183 175.51C125.227 175.331 125.222 175.144 125.17 174.947C125.116 174.746 125.023 174.579 124.893 174.445C124.763 174.309 124.609 174.216 124.432 174.165C124.254 174.115 124.067 174.115 123.87 174.166C123.729 174.203 123.59 174.263 123.453 174.348C123.316 174.431 123.209 174.52 123.132 174.615L122.593 174.692L122.264 172.349L124.658 171.707L124.791 172.202L122.865 172.718L123.067 174.121L123.094 174.114C123.168 174.014 123.27 173.919 123.399 173.832C123.529 173.744 123.67 173.68 123.825 173.638C124.107 173.563 124.376 173.563 124.633 173.639C124.891 173.713 125.114 173.849 125.303 174.048C125.492 174.246 125.627 174.495 125.707 174.793C125.786 175.087 125.79 175.368 125.72 175.634C125.651 175.899 125.52 176.128 125.326 176.323C125.132 176.517 124.889 176.653 124.596 176.731Z" fill="#546D54"/>
<path d="M128.542 175.674C128.352 175.722 128.153 175.736 127.946 175.718C127.738 175.7 127.535 175.63 127.335 175.508C127.134 175.385 126.949 175.195 126.78 174.94C126.61 174.683 126.467 174.342 126.353 173.916C126.244 173.508 126.185 173.136 126.177 172.8C126.169 172.463 126.209 172.167 126.296 171.912C126.384 171.656 126.515 171.443 126.69 171.276C126.867 171.108 127.085 170.989 127.345 170.92C127.603 170.85 127.847 170.841 128.075 170.89C128.305 170.938 128.508 171.036 128.685 171.185C128.862 171.334 129.001 171.523 129.102 171.751L128.553 171.898C128.446 171.705 128.301 171.56 128.118 171.463C127.934 171.366 127.721 171.35 127.478 171.415C127.121 171.51 126.881 171.741 126.759 172.107C126.638 172.472 126.652 172.935 126.801 173.497L126.837 173.487C126.886 173.337 126.957 173.202 127.049 173.081C127.141 172.958 127.251 172.853 127.379 172.765C127.507 172.678 127.649 172.613 127.807 172.571C128.071 172.5 128.33 172.502 128.585 172.575C128.839 172.647 129.063 172.781 129.257 172.976C129.45 173.17 129.587 173.416 129.666 173.713C129.743 173.998 129.749 174.276 129.685 174.548C129.621 174.817 129.491 175.053 129.298 175.254C129.105 175.454 128.853 175.594 128.542 175.674ZM128.409 175.179C128.598 175.128 128.755 175.036 128.88 174.901C129.006 174.766 129.091 174.607 129.136 174.425C129.182 174.242 129.179 174.053 129.126 173.858C129.075 173.667 128.986 173.506 128.859 173.372C128.732 173.237 128.583 173.143 128.409 173.09C128.237 173.036 128.057 173.035 127.868 173.086C127.725 173.124 127.6 173.188 127.492 173.278C127.384 173.366 127.296 173.472 127.23 173.594C127.164 173.716 127.122 173.847 127.103 173.987C127.084 174.126 127.093 174.264 127.13 174.402C127.179 174.585 127.268 174.745 127.396 174.881C127.526 175.017 127.678 175.113 127.855 175.171C128.032 175.228 128.217 175.23 128.409 175.179Z" fill="#546D54"/>
<path d="M131.094 174.923L132.062 170.292L132.053 170.256L129.676 170.893L129.543 170.398L132.496 169.607L132.636 170.129L131.679 174.766L131.094 174.923Z" fill="#546D54"/>
<path d="M135.971 173.684C135.662 173.766 135.374 173.785 135.107 173.739C134.842 173.691 134.617 173.588 134.434 173.43C134.249 173.27 134.124 173.065 134.059 172.816C134.005 172.621 133.995 172.431 134.029 172.245C134.063 172.058 134.132 171.89 134.237 171.743C134.344 171.594 134.477 171.482 134.637 171.407L134.63 171.38C134.394 171.382 134.185 171.305 134.003 171.15C133.822 170.993 133.698 170.791 133.634 170.547C133.57 170.313 133.573 170.088 133.644 169.871C133.715 169.654 133.841 169.464 134.022 169.302C134.205 169.138 134.432 169.021 134.702 168.948C134.969 168.877 135.222 168.866 135.46 168.916C135.699 168.967 135.903 169.068 136.072 169.22C136.243 169.372 136.361 169.565 136.425 169.799C136.489 170.044 136.481 170.28 136.4 170.507C136.321 170.733 136.181 170.903 135.98 171.018L135.987 171.045C136.162 171.03 136.331 171.061 136.495 171.138C136.658 171.213 136.802 171.324 136.926 171.469C137.05 171.613 137.138 171.782 137.192 171.977C137.257 172.226 137.249 172.466 137.168 172.697C137.088 172.926 136.945 173.127 136.739 173.302C136.534 173.474 136.278 173.601 135.971 173.684ZM135.838 173.188C136.046 173.133 136.217 173.051 136.351 172.942C136.484 172.834 136.576 172.708 136.625 172.563C136.675 172.417 136.678 172.262 136.636 172.097C136.588 171.923 136.501 171.781 136.377 171.671C136.253 171.562 136.104 171.489 135.93 171.453C135.758 171.418 135.575 171.426 135.38 171.478C135.183 171.531 135.018 171.616 134.884 171.734C134.751 171.851 134.659 171.989 134.606 172.146C134.555 172.303 134.553 172.468 134.601 172.642C134.644 172.807 134.722 172.941 134.836 173.042C134.952 173.143 135.095 173.207 135.266 173.233C135.437 173.26 135.628 173.245 135.838 173.188ZM135.252 171.001C135.417 170.957 135.554 170.884 135.664 170.784C135.775 170.684 135.852 170.564 135.894 170.426C135.936 170.288 135.936 170.139 135.895 169.979C135.851 169.824 135.778 169.698 135.675 169.602C135.572 169.504 135.448 169.441 135.304 169.412C135.159 169.381 135.002 169.389 134.832 169.434C134.659 169.481 134.517 169.553 134.406 169.652C134.293 169.75 134.218 169.867 134.179 170.003C134.139 170.137 134.141 170.282 134.184 170.438C134.225 170.597 134.298 170.727 134.402 170.826C134.507 170.925 134.633 170.99 134.78 171.021C134.926 171.053 135.084 171.046 135.252 171.001Z" fill="#546D54"/>
<path d="M138.598 167.904C138.788 167.855 138.986 167.84 139.194 167.86C139.402 167.88 139.606 167.951 139.806 168.073C140.005 168.193 140.19 168.381 140.36 168.636C140.529 168.891 140.671 169.23 140.784 169.653C140.894 170.063 140.953 170.437 140.96 170.776C140.968 171.113 140.929 171.41 140.841 171.667C140.756 171.923 140.624 172.135 140.447 172.303C140.272 172.471 140.055 172.589 139.795 172.659C139.537 172.728 139.293 172.739 139.063 172.691C138.834 172.641 138.631 172.542 138.453 172.394C138.276 172.243 138.137 172.051 138.036 171.818L138.585 171.671C138.691 171.869 138.836 172.018 139.02 172.116C139.205 172.213 139.419 172.229 139.662 172.164C140.018 172.068 140.257 171.838 140.379 171.472C140.503 171.106 140.489 170.64 140.337 170.072L140.301 170.082C140.251 170.231 140.18 170.366 140.089 170.489C139.998 170.611 139.889 170.716 139.761 170.803C139.633 170.891 139.49 170.956 139.331 170.998C139.067 171.069 138.807 171.069 138.551 170.997C138.297 170.924 138.073 170.79 137.879 170.596C137.687 170.4 137.551 170.153 137.471 169.856C137.396 169.574 137.39 169.299 137.453 169.031C137.517 168.762 137.646 168.526 137.838 168.325C138.031 168.124 138.285 167.983 138.598 167.904ZM138.731 168.399C138.542 168.45 138.384 168.543 138.258 168.678C138.133 168.811 138.047 168.969 138.001 169.152C137.957 169.333 137.96 169.519 138.011 169.711C138.063 169.903 138.152 170.067 138.278 170.202C138.405 170.335 138.555 170.429 138.727 170.482C138.9 170.534 139.081 170.534 139.27 170.484C139.413 170.446 139.538 170.382 139.646 170.294C139.754 170.204 139.84 170.098 139.906 169.976C139.972 169.852 140.015 169.72 140.034 169.582C140.053 169.442 140.044 169.303 140.008 169.167C139.959 168.987 139.871 168.83 139.741 168.696C139.614 168.561 139.461 168.465 139.283 168.408C139.107 168.351 138.923 168.348 138.731 168.399Z" fill="#546D54"/>
<path d="M143.858 171.57C143.519 171.661 143.205 171.646 142.917 171.526C142.629 171.403 142.374 171.183 142.154 170.864C141.933 170.544 141.755 170.133 141.621 169.632C141.488 169.134 141.437 168.692 141.468 168.305C141.501 167.917 141.612 167.598 141.8 167.348C141.99 167.096 142.253 166.925 142.589 166.835C142.925 166.745 143.238 166.762 143.526 166.885C143.816 167.007 144.072 167.228 144.293 167.548C144.515 167.867 144.692 168.275 144.826 168.773C144.96 169.274 145.012 169.719 144.981 170.107C144.949 170.493 144.839 170.811 144.65 171.061C144.461 171.31 144.197 171.479 143.858 171.57ZM143.725 171.075C144.061 170.985 144.279 170.753 144.378 170.379C144.477 170.005 144.447 169.518 144.286 168.918C144.179 168.519 144.045 168.19 143.884 167.933C143.725 167.675 143.546 167.493 143.348 167.389C143.151 167.284 142.941 167.262 142.719 167.321C142.386 167.41 142.17 167.644 142.07 168.023C141.971 168.401 142.001 168.889 142.161 169.487C142.268 169.886 142.401 170.214 142.56 170.471C142.719 170.727 142.896 170.907 143.093 171.011C143.291 171.113 143.502 171.135 143.725 171.075Z" fill="#546D54"/>
<path d="M181.155 156.569L182.391 161.178L181.832 161.327L180.754 157.303L180.727 157.311L179.802 158.359L179.65 157.792L180.597 156.718L181.155 156.569Z" fill="#546D54"/>
<path d="M183.716 160.823L183.608 160.418L184.683 158.344C184.809 158.102 184.911 157.893 184.988 157.718C185.064 157.541 185.113 157.382 185.134 157.239C185.157 157.095 185.149 156.952 185.111 156.811C185.068 156.649 184.991 156.519 184.882 156.422C184.773 156.324 184.644 156.26 184.493 156.232C184.342 156.203 184.183 156.211 184.017 156.255C183.84 156.303 183.695 156.381 183.583 156.49C183.472 156.597 183.397 156.725 183.36 156.875C183.325 157.025 183.331 157.187 183.378 157.363L182.846 157.505C182.774 157.235 182.773 156.981 182.843 156.744C182.913 156.506 183.039 156.302 183.223 156.13C183.409 155.958 183.636 155.836 183.905 155.764C184.175 155.692 184.429 155.685 184.668 155.743C184.907 155.801 185.112 155.911 185.283 156.073C185.453 156.235 185.57 156.434 185.634 156.671C185.679 156.841 185.693 157.015 185.675 157.193C185.658 157.37 185.601 157.577 185.504 157.816C185.408 158.052 185.266 158.347 185.078 158.702L184.339 160.086L184.349 160.122L186.491 159.548L186.624 160.043L183.716 160.823Z" fill="#546D54"/>
<path d="M189.128 159.44C188.831 159.52 188.552 159.54 188.292 159.5C188.034 159.46 187.812 159.367 187.627 159.222C187.443 159.075 187.312 158.883 187.236 158.645L187.803 158.493C187.855 158.638 187.94 158.753 188.059 158.836C188.178 158.919 188.317 158.97 188.479 158.989C188.64 159.009 188.809 158.995 188.986 158.947C189.184 158.894 189.35 158.813 189.485 158.703C189.62 158.593 189.714 158.465 189.768 158.318C189.822 158.172 189.827 158.018 189.784 157.856C189.738 157.686 189.656 157.548 189.538 157.442C189.419 157.333 189.268 157.264 189.087 157.234C188.905 157.204 188.697 157.221 188.463 157.283L188.094 157.382L187.961 156.887L188.33 156.788C188.513 156.739 188.665 156.663 188.785 156.56C188.907 156.457 188.991 156.334 189.037 156.194C189.084 156.052 189.086 155.9 189.043 155.738C189.001 155.582 188.93 155.456 188.83 155.359C188.73 155.262 188.609 155.198 188.465 155.167C188.323 155.136 188.168 155.143 187.998 155.189C187.839 155.231 187.697 155.301 187.572 155.397C187.447 155.491 187.356 155.605 187.296 155.738C187.237 155.87 187.224 156.014 187.257 156.169L186.717 156.313C186.661 156.069 186.678 155.838 186.765 155.62C186.853 155.401 186.993 155.21 187.186 155.049C187.381 154.888 187.611 154.771 187.877 154.7C188.162 154.624 188.422 154.616 188.657 154.677C188.892 154.736 189.089 154.845 189.249 155.003C189.408 155.161 189.517 155.349 189.576 155.567C189.645 155.826 189.636 156.066 189.549 156.286C189.463 156.505 189.313 156.681 189.099 156.814L189.109 156.85C189.413 156.82 189.673 156.883 189.89 157.038C190.107 157.192 190.255 157.416 190.333 157.708C190.4 157.959 190.392 158.202 190.309 158.439C190.227 158.673 190.084 158.878 189.881 159.055C189.677 159.232 189.426 159.36 189.128 159.44Z" fill="#546D54"/>
<path d="M191.227 157.797L191.104 157.338L192.271 153.59L192.604 153.501L192.795 154.212L192.57 154.272L191.688 157.104L191.698 157.14L194.426 156.409L194.558 156.904L191.227 157.797ZM193.65 158.161L193.36 157.076L193.302 156.862L192.415 153.551L192.946 153.409L194.182 158.018L193.65 158.161Z" fill="#546D54"/>
<path d="M197.112 157.301C196.848 157.371 196.596 157.383 196.357 157.334C196.117 157.286 195.909 157.187 195.732 157.038C195.556 156.89 195.43 156.7 195.355 156.469L195.895 156.324C195.972 156.527 196.113 156.674 196.318 156.766C196.524 156.855 196.744 156.869 196.98 156.806C197.169 156.755 197.325 156.666 197.448 156.538C197.573 156.409 197.657 156.257 197.699 156.08C197.743 155.901 197.739 155.713 197.686 155.516C197.632 155.315 197.54 155.148 197.409 155.014C197.279 154.878 197.126 154.785 196.948 154.735C196.771 154.684 196.583 154.684 196.386 154.736C196.245 154.772 196.106 154.832 195.97 154.917C195.833 155.001 195.726 155.09 195.648 155.184L195.109 155.261L194.78 152.918L197.175 152.276L197.307 152.771L195.381 153.288L195.583 154.69L195.61 154.683C195.685 154.583 195.786 154.489 195.916 154.401C196.045 154.313 196.187 154.249 196.341 154.207C196.624 154.132 196.893 154.132 197.15 154.208C197.408 154.282 197.631 154.418 197.819 154.617C198.009 154.816 198.144 155.064 198.224 155.363C198.303 155.657 198.307 155.937 198.237 156.203C198.168 156.468 198.036 156.698 197.843 156.893C197.648 157.086 197.405 157.222 197.112 157.301Z" fill="#546D54"/>
<path d="M201.058 156.243C200.868 156.291 200.67 156.306 200.462 156.287C200.255 156.269 200.051 156.199 199.851 156.077C199.651 155.954 199.466 155.765 199.296 155.509C199.126 155.253 198.984 154.911 198.87 154.485C198.76 154.077 198.702 153.705 198.694 153.37C198.685 153.032 198.725 152.736 198.813 152.481C198.9 152.225 199.031 152.013 199.207 151.845C199.384 151.677 199.602 151.558 199.861 151.489C200.12 151.42 200.363 151.41 200.592 151.46C200.822 151.507 201.025 151.606 201.202 151.754C201.378 151.903 201.517 152.092 201.619 152.321L201.069 152.468C200.963 152.274 200.818 152.129 200.634 152.032C200.451 151.935 200.237 151.919 199.994 151.984C199.637 152.08 199.397 152.31 199.275 152.676C199.154 153.041 199.168 153.505 199.317 154.066L199.353 154.056C199.403 153.906 199.474 153.771 199.565 153.65C199.657 153.527 199.768 153.422 199.895 153.335C200.023 153.247 200.166 153.183 200.323 153.14C200.587 153.07 200.847 153.071 201.101 153.144C201.355 153.216 201.579 153.35 201.773 153.546C201.967 153.74 202.103 153.985 202.183 154.282C202.259 154.568 202.265 154.846 202.201 155.117C202.137 155.387 202.008 155.622 201.814 155.824C201.622 156.023 201.37 156.163 201.058 156.243ZM200.926 155.748C201.115 155.698 201.272 155.605 201.396 155.47C201.522 155.335 201.608 155.176 201.652 154.994C201.698 154.811 201.695 154.622 201.643 154.427C201.592 154.237 201.502 154.075 201.375 153.942C201.249 153.807 201.099 153.713 200.926 153.659C200.754 153.606 200.573 153.604 200.384 153.655C200.241 153.693 200.116 153.757 200.009 153.847C199.9 153.936 199.813 154.041 199.746 154.163C199.681 154.286 199.639 154.417 199.62 154.557C199.601 154.695 199.61 154.834 199.647 154.972C199.696 155.155 199.784 155.314 199.912 155.45C200.042 155.586 200.195 155.683 200.371 155.74C200.549 155.797 200.734 155.8 200.926 155.748Z" fill="#546D54"/>
<path d="M203.61 155.492L204.579 150.862L204.569 150.826L202.192 151.462L202.06 150.967L205.013 150.176L205.153 150.698L204.195 155.335L203.61 155.492Z" fill="#546D54"/>
<path d="M208.487 154.253C208.178 154.336 207.89 154.354 207.624 154.308C207.358 154.26 207.134 154.157 206.95 153.999C206.766 153.839 206.641 153.635 206.576 153.385C206.522 153.191 206.512 153 206.546 152.814C206.579 152.627 206.648 152.46 206.754 152.312C206.86 152.163 206.993 152.051 207.153 151.976L207.146 151.949C206.91 151.951 206.702 151.874 206.52 151.719C206.338 151.562 206.215 151.361 206.151 151.116C206.087 150.882 206.09 150.657 206.16 150.44C206.231 150.223 206.357 150.034 206.539 149.871C206.722 149.708 206.948 149.59 207.218 149.518C207.485 149.446 207.738 149.435 207.977 149.486C208.215 149.536 208.419 149.637 208.589 149.79C208.76 149.941 208.877 150.134 208.942 150.368C209.006 150.613 208.997 150.849 208.917 151.077C208.837 151.302 208.697 151.472 208.496 151.587L208.504 151.614C208.678 151.6 208.847 151.631 209.011 151.707C209.174 151.783 209.318 151.893 209.442 152.038C209.566 152.182 209.655 152.351 209.709 152.546C209.774 152.795 209.766 153.035 209.684 153.266C209.604 153.495 209.461 153.697 209.255 153.871C209.051 154.043 208.795 154.17 208.487 154.253ZM208.354 153.758C208.563 153.702 208.734 153.62 208.867 153.512C209.001 153.404 209.092 153.277 209.142 153.132C209.191 152.987 209.195 152.831 209.152 152.666C209.104 152.492 209.018 152.351 208.893 152.241C208.769 152.131 208.62 152.058 208.447 152.023C208.275 151.987 208.091 151.995 207.896 152.047C207.699 152.1 207.534 152.185 207.4 152.303C207.268 152.421 207.175 152.558 207.122 152.715C207.071 152.872 207.069 153.037 207.118 153.211C207.16 153.377 207.239 153.51 207.353 153.611C207.468 153.712 207.611 153.776 207.783 153.802C207.954 153.829 208.144 153.814 208.354 153.758ZM207.768 151.57C207.933 151.526 208.071 151.454 208.181 151.353C208.292 151.253 208.368 151.133 208.41 150.995C208.452 150.857 208.452 150.708 208.411 150.549C208.368 150.393 208.295 150.267 208.192 150.171C208.088 150.073 207.964 150.01 207.82 149.981C207.675 149.951 207.518 149.958 207.348 150.004C207.176 150.05 207.034 150.123 206.922 150.222C206.81 150.319 206.734 150.436 206.695 150.572C206.655 150.706 206.657 150.851 206.701 151.007C206.742 151.166 206.814 151.296 206.918 151.395C207.023 151.494 207.149 151.559 207.296 151.59C207.443 151.622 207.6 151.615 207.768 151.57Z" fill="#546D54"/>
<path d="M250.782 137.912L252.017 142.521L251.459 142.671L250.381 138.647L250.354 138.654L249.428 139.703L249.276 139.136L250.224 138.062L250.782 137.912Z" fill="#546D54"/>
<path d="M253.343 142.166L253.234 141.761L254.309 139.688C254.435 139.445 254.537 139.236 254.614 139.061C254.691 138.885 254.74 138.725 254.761 138.583C254.783 138.439 254.776 138.296 254.738 138.155C254.694 137.993 254.618 137.863 254.508 137.765C254.4 137.667 254.27 137.604 254.119 137.575C253.969 137.546 253.81 137.554 253.643 137.599C253.466 137.646 253.322 137.725 253.209 137.833C253.098 137.94 253.024 138.069 252.987 138.219C252.951 138.368 252.957 138.531 253.004 138.706L252.473 138.849C252.401 138.578 252.399 138.325 252.469 138.087C252.539 137.85 252.666 137.645 252.85 137.474C253.035 137.302 253.262 137.18 253.531 137.108C253.801 137.036 254.056 137.029 254.295 137.087C254.534 137.145 254.739 137.255 254.909 137.417C255.079 137.578 255.196 137.778 255.26 138.015C255.305 138.184 255.319 138.358 255.301 138.537C255.284 138.714 255.227 138.921 255.13 139.159C255.034 139.396 254.892 139.691 254.704 140.045L253.965 141.43L253.975 141.466L256.118 140.892L256.25 141.387L253.343 142.166Z" fill="#546D54"/>
<path d="M258.754 140.784C258.457 140.863 258.179 140.883 257.919 140.844C257.66 140.803 257.439 140.711 257.253 140.566C257.069 140.419 256.939 140.227 256.862 139.988L257.429 139.836C257.481 139.982 257.566 140.096 257.685 140.18C257.804 140.262 257.944 140.313 258.105 140.333C258.266 140.352 258.435 140.338 258.613 140.291C258.811 140.238 258.977 140.156 259.111 140.046C259.246 139.936 259.34 139.808 259.394 139.662C259.448 139.515 259.454 139.361 259.41 139.199C259.365 139.03 259.283 138.892 259.164 138.785C259.045 138.677 258.895 138.608 258.713 138.578C258.531 138.548 258.324 138.564 258.089 138.627L257.72 138.726L257.588 138.231L257.957 138.132C258.14 138.083 258.292 138.007 258.412 137.904C258.534 137.8 258.618 137.678 258.663 137.537C258.711 137.396 258.713 137.244 258.669 137.082C258.628 136.926 258.557 136.799 258.457 136.702C258.357 136.605 258.235 136.542 258.092 136.511C257.95 136.48 257.794 136.487 257.625 136.532C257.466 136.575 257.323 136.644 257.198 136.741C257.074 136.835 256.982 136.949 256.923 137.082C256.863 137.214 256.85 137.357 256.884 137.512L256.344 137.657C256.288 137.413 256.304 137.182 256.392 136.964C256.479 136.744 256.62 136.554 256.813 136.393C257.008 136.231 257.238 136.115 257.503 136.044C257.788 135.967 258.049 135.959 258.284 136.02C258.518 136.08 258.715 136.188 258.875 136.347C259.035 136.505 259.144 136.693 259.202 136.91C259.272 137.17 259.263 137.409 259.175 137.629C259.089 137.848 258.94 138.024 258.726 138.157L258.736 138.193C259.039 138.163 259.3 138.226 259.517 138.382C259.734 138.536 259.881 138.76 259.959 139.052C260.027 139.303 260.019 139.546 259.936 139.782C259.854 140.016 259.711 140.222 259.507 140.399C259.304 140.575 259.053 140.704 258.754 140.784Z" fill="#546D54"/>
<path d="M260.854 139.14L260.731 138.681L261.898 134.934L262.231 134.844L262.421 135.556L262.196 135.616L261.315 138.448L261.324 138.484L264.052 137.753L264.185 138.248L260.854 139.14ZM263.277 139.504L262.986 138.42L262.929 138.206L262.042 134.895L262.573 134.753L263.808 139.362L263.277 139.504Z" fill="#546D54"/>
<path d="M233.653 44.6588L234.888 49.2681L234.348 49.4128L230.866 46.4668L230.821 46.4789L231.791 50.0979L231.233 50.2474L229.998 45.6382L230.538 45.4934L234.031 48.446L234.076 48.4339L233.104 44.8059L233.653 44.6588Z" fill="#546D54"/>
<path d="M237.356 48.6838C237.044 48.7674 236.751 48.7665 236.475 48.6811C236.201 48.5953 235.963 48.4365 235.759 48.2048C235.557 47.9727 235.408 47.6781 235.312 47.321C235.216 46.9609 235.197 46.6291 235.255 46.3256C235.315 46.0216 235.443 45.764 235.637 45.5528C235.833 45.3411 236.087 45.1935 236.399 45.1098C236.711 45.0262 237.004 45.0273 237.278 45.1131C237.553 45.1986 237.792 45.3581 237.994 45.5917C238.198 45.8249 238.349 46.1215 238.445 46.4816C238.541 46.8387 238.558 47.1685 238.498 47.4709C238.439 47.773 238.312 48.0298 238.116 48.2415C237.922 48.4528 237.668 48.6002 237.356 48.6838ZM237.228 48.2067C237.466 48.1432 237.644 48.0301 237.765 47.8676C237.885 47.705 237.956 47.5149 237.976 47.2971C237.997 47.0794 237.976 46.855 237.914 46.6239C237.852 46.3929 237.758 46.1874 237.631 46.0075C237.504 45.8277 237.347 45.6967 237.161 45.6147C236.975 45.5327 236.764 45.5234 236.527 45.587C236.289 45.6505 236.111 45.7643 235.991 45.9283C235.871 46.0923 235.801 46.284 235.781 46.5032C235.761 46.7225 235.781 46.9477 235.843 47.1787C235.905 47.4098 236 47.6145 236.126 47.7929C236.253 47.9712 236.409 48.1007 236.594 48.1812C236.78 48.2617 236.991 48.2702 237.228 48.2067Z" fill="#546D54"/>
<path d="M240.111 47.9071C240 47.9369 239.894 47.9226 239.793 47.8644C239.692 47.8062 239.627 47.7216 239.597 47.6105C239.568 47.4995 239.582 47.3936 239.64 47.2928C239.698 47.1919 239.783 47.1266 239.894 47.0969C240.005 47.0671 240.111 47.0814 240.212 47.1396C240.313 47.1978 240.378 47.2824 240.408 47.3934C240.427 47.467 240.427 47.5395 240.406 47.6111C240.386 47.6822 240.351 47.7448 240.299 47.7988C240.249 47.8509 240.186 47.887 240.111 47.9071Z" fill="#546D54"/>
<path d="M244.753 46.6921C244.414 46.783 244.101 46.7681 243.813 46.6475C243.524 46.5253 243.27 46.3049 243.049 45.986C242.828 45.6657 242.651 45.255 242.517 44.7538C242.383 44.2557 242.332 43.8135 242.364 43.4271C242.396 43.0388 242.507 42.7197 242.696 42.4697C242.886 42.2178 243.148 42.0469 243.485 41.9568C243.821 41.8668 244.133 41.8836 244.422 42.0072C244.712 42.1289 244.967 42.3499 245.188 42.6703C245.41 42.9887 245.588 43.397 245.721 43.8951C245.856 44.3962 245.907 44.8407 245.876 45.2286C245.845 45.615 245.734 45.9332 245.546 46.1831C245.357 46.4316 245.092 46.6013 244.753 46.6921ZM244.621 46.197C244.957 46.1069 245.174 45.8749 245.274 45.501C245.373 45.1271 245.342 44.64 245.181 44.0398C245.074 43.6407 244.94 43.3123 244.78 43.0547C244.621 42.7966 244.442 42.6154 244.243 42.5109C244.046 42.4061 243.837 42.3835 243.615 42.443C243.282 42.5322 243.065 42.7663 242.966 43.1451C242.866 43.5224 242.896 44.0105 243.057 44.6091C243.164 45.0082 243.296 45.3361 243.455 45.5926C243.614 45.8492 243.792 46.0291 243.988 46.1325C244.186 46.2354 244.397 46.2569 244.621 46.197Z" fill="#546D54"/>
<path d="M248.714 45.6308C248.375 45.7216 248.062 45.7067 247.774 45.5861C247.485 45.464 247.231 45.2435 247.01 44.9247C246.789 44.6043 246.612 44.1936 246.478 43.6925C246.344 43.1943 246.293 42.7521 246.325 42.3657C246.357 41.9774 246.468 41.6583 246.657 41.4084C246.847 41.1565 247.11 40.9855 247.446 40.8955C247.782 40.8054 248.094 40.8222 248.383 40.9458C248.673 41.0675 248.928 41.2886 249.149 41.6089C249.371 41.9273 249.549 42.3356 249.683 42.8337C249.817 43.3349 249.868 43.7794 249.837 44.1672C249.806 44.5536 249.695 44.8718 249.507 45.1218C249.318 45.3702 249.054 45.5399 248.714 45.6308ZM248.582 45.1356C248.918 45.0456 249.136 44.8136 249.235 44.4396C249.334 44.0657 249.303 43.5786 249.142 42.9785C249.035 42.5794 248.902 42.251 248.741 41.9933C248.582 41.7352 248.403 41.554 248.204 41.4496C248.007 41.3447 247.798 41.3221 247.576 41.3816C247.243 41.4708 247.027 41.7049 246.927 42.0837C246.827 42.4611 246.857 42.9491 247.018 43.5477C247.125 43.9469 247.258 44.2747 247.416 44.5313C247.575 44.7878 247.753 44.9678 247.949 45.0711C248.147 45.174 248.358 45.1955 248.582 45.1356Z" fill="#546D54"/>
<path d="M252.676 44.5694C252.336 44.6602 252.023 44.6454 251.735 44.5247C251.446 44.4026 251.192 44.1821 250.972 43.8633C250.751 43.543 250.573 43.1322 250.439 42.6311C250.305 42.133 250.254 41.6907 250.286 41.3043C250.318 40.9161 250.429 40.597 250.618 40.347C250.808 40.0951 251.071 39.9241 251.407 39.8341C251.743 39.744 252.055 39.7608 252.344 39.8844C252.634 40.0062 252.889 40.2272 253.11 40.5475C253.332 40.8659 253.51 41.2742 253.644 41.7724C253.778 42.2735 253.829 42.718 253.798 43.1059C253.767 43.4922 253.657 43.8104 253.468 44.0604C253.279 44.3089 253.015 44.4785 252.676 44.5694ZM252.543 44.0742C252.879 43.9842 253.097 43.7522 253.196 43.3783C253.295 43.0043 253.264 42.5173 253.103 41.9171C252.997 41.518 252.863 41.1896 252.702 40.9319C252.543 40.6739 252.364 40.4926 252.166 40.3882C251.969 40.2834 251.759 40.2607 251.537 40.3202C251.204 40.4095 250.988 40.6435 250.888 41.0224C250.788 41.3997 250.818 41.8877 250.979 42.4864C251.086 42.8855 251.219 43.2133 251.377 43.4699C251.536 43.7264 251.714 43.9064 251.91 44.0097C252.109 44.1126 252.319 44.1342 252.543 44.0742Z" fill="#546D54"/>
<path d="M255.502 38.8044L256.737 43.4136L256.179 43.5632L255.1 39.5391L255.073 39.5463L254.148 40.5951L253.996 40.0279L254.944 38.9539L255.502 38.8044Z" fill="#546D54"/>
<path d="M39.111 109.049L36.8064 100.448L39.8134 99.6423C40.4125 99.4817 40.9344 99.4529 41.3791 99.5558C41.823 99.6559 42.1867 99.8541 42.4701 100.15C42.7528 100.444 42.9504 100.8 43.0629 101.22C43.1619 101.59 43.1779 101.913 43.1108 102.189C43.0466 102.464 42.9268 102.7 42.7515 102.897C42.579 103.093 42.3786 103.258 42.1502 103.391L42.1727 103.475C42.4404 103.422 42.7298 103.443 43.0407 103.54C43.3517 103.636 43.6388 103.818 43.902 104.083C44.1653 104.349 44.3576 104.708 44.4792 105.162C44.5947 105.593 44.6006 106.007 44.4969 106.404C44.3932 106.801 44.1569 107.157 43.7882 107.472C43.4194 107.786 42.8963 108.035 42.2187 108.216L39.111 109.049ZM39.905 107.846L41.9712 107.292C42.6515 107.11 43.0992 106.849 43.3143 106.509C43.5314 106.166 43.5893 105.805 43.488 105.427C43.41 105.136 43.2638 104.887 43.0494 104.681C42.8342 104.471 42.5696 104.329 42.2555 104.254C41.9406 104.177 41.5955 104.188 41.2204 104.289L39.1037 104.856L39.905 107.846ZM38.8607 103.949L40.7925 103.431C41.1061 103.347 41.3724 103.21 41.5913 103.019C41.8131 102.827 41.9682 102.6 42.0566 102.336C42.1477 102.072 42.1528 101.788 42.0718 101.486C41.9705 101.108 41.753 100.823 41.4193 100.63C41.0849 100.434 40.6321 100.413 40.0609 100.566L38.0955 101.093L38.8607 103.949Z" fill="#546D54"/>
<path d="M47.1554 106.893L46.0635 107.186L46.9171 97.7389L47.9922 97.4508L53.4549 105.205L52.363 105.498L47.8528 98.9465L47.7856 98.9645L47.1554 106.893ZM46.6584 103.426L51.0596 102.246L51.3072 103.17L46.9059 104.35L46.6584 103.426Z" fill="#546D54"/>
<path d="M59.3103 94.4181L61.6149 103.019L60.6069 103.289L54.1107 97.7919L54.0267 97.8144L55.8361 104.567L54.7946 104.846L52.49 96.2456L53.4979 95.9755L60.0155 101.485L60.0995 101.463L58.2855 94.6927L59.3103 94.4181Z" fill="#546D54"/>
<path d="M63.6989 102.461L61.3943 93.8597L62.4359 93.5806L63.5792 97.8475L63.68 97.8204L66.4003 92.5183L67.761 92.1537L65.1891 97.002L70.0656 100.755L68.8057 101.092L64.7443 97.8954L63.9933 99.3929L64.7405 102.182L63.6989 102.461Z" fill="#546D54"/>
<path d="M79.2555 89.0738L81.5601 97.6747L80.5522 97.9448L74.0559 92.4475L73.9719 92.4701L75.7814 99.2231L74.7399 99.5022L72.4352 90.9013L73.4432 90.6312L79.9608 96.1407L80.0448 96.1182L78.2308 89.3484L79.2555 89.0738Z" fill="#546D54"/>
<path d="M83.997 97.0217L82.905 97.3143L83.7586 87.8672L84.8337 87.5791L90.2964 95.3338L89.2045 95.6264L84.6943 89.0748L84.6271 89.0929L83.997 97.0217ZM83.4999 93.554L87.9011 92.3747L88.1487 93.2986L83.7474 94.4779L83.4999 93.554Z" fill="#546D54"/>
<path d="M89.3315 86.3739L90.5746 86.0408L95.4106 92.3971L95.5114 92.3701L96.5213 84.4474L97.7644 84.1143L100.069 92.7152L99.0947 92.9763L97.3438 86.4416L97.2598 86.4641L96.3229 93.719L95.3822 93.9711L90.9435 88.1566L90.8595 88.1791L92.6104 94.7138L91.6361 94.9748L89.3315 86.3739Z" fill="#546D54"/>
<path d="M102.157 92.1557L99.8527 83.5548L105.043 82.1639L105.291 83.0878L101.142 84.1996L101.921 87.1058L105.801 86.066L106.049 86.99L102.168 88.0297L102.951 90.9527L107.168 89.8229L107.415 90.7468L102.157 92.1557Z" fill="#546D54"/>
<path fill-rule="evenodd" clip-rule="evenodd" d="M266.088 96.191L50.0596 154.076L49.9323 153.6L265.961 95.7157L266.088 96.191Z" fill="#546D54"/>
<path d="M271.877 93.0265L270.642 88.4173L272.199 88C272.56 87.9035 272.872 87.8858 273.136 87.9469C273.399 88.0065 273.615 88.128 273.783 88.3113C273.951 88.4946 274.072 88.722 274.145 88.9936C274.217 89.2652 274.226 89.5209 274.172 89.7607C274.117 90.0005 273.991 90.2112 273.793 90.3927C273.596 90.5728 273.318 90.7106 272.961 90.8063L271.701 91.144L271.566 90.6399L272.808 90.307C273.054 90.2411 273.242 90.152 273.373 90.0398C273.505 89.9271 273.588 89.7958 273.62 89.6456C273.653 89.4936 273.645 89.3253 273.595 89.1408C273.546 88.9562 273.468 88.8042 273.362 88.6846C273.256 88.5651 273.117 88.4881 272.946 88.4537C272.774 88.4178 272.563 88.4332 272.314 88.4999L271.333 88.7628L272.435 92.877L271.877 93.0265ZM273.492 90.3746L275.181 92.1413L274.533 92.3149L272.862 90.5435L273.492 90.3746Z" fill="#546D54"/>
<path d="M277.721 86.5205L278.279 86.371L279.097 89.4228C279.181 89.7379 279.182 90.0391 279.1 90.3265C279.019 90.612 278.863 90.8619 278.633 91.0764C278.402 91.2894 278.106 91.4444 277.744 91.5413C277.383 91.6382 277.049 91.6521 276.742 91.583C276.435 91.5124 276.175 91.374 275.96 91.1677C275.747 90.9596 275.598 90.6979 275.514 90.3829L274.696 87.331L275.254 87.1815L276.06 90.1883C276.12 90.4134 276.223 90.6004 276.369 90.7494C276.515 90.8969 276.693 90.9964 276.903 91.0479C277.114 91.0975 277.348 91.0879 277.604 91.0191C277.861 90.9504 278.068 90.8418 278.226 90.6933C278.384 90.5433 278.488 90.3682 278.539 90.1681C278.591 89.966 278.587 89.7524 278.526 89.5273L277.721 86.5205Z" fill="#546D54"/>
<path d="M280.629 90.6816L279.394 86.0723L280.951 85.655C281.313 85.5581 281.626 85.5442 281.89 85.6132C282.156 85.6803 282.374 85.8093 282.544 86.0001C282.714 86.1909 282.835 86.4221 282.908 86.6937C282.981 86.9652 282.992 87.2269 282.94 87.4787C282.89 87.7302 282.768 87.9526 282.574 88.1462C282.379 88.3382 282.103 88.4823 281.744 88.5784L280.628 88.8775L280.495 88.3824L281.593 88.0881C281.841 88.0217 282.028 87.9257 282.155 87.8C282.282 87.6742 282.36 87.5296 282.389 87.3659C282.418 87.2004 282.408 87.0254 282.359 86.8408C282.31 86.6563 282.231 86.5005 282.123 86.3734C282.016 86.246 281.876 86.1613 281.703 86.1194C281.529 86.0759 281.316 86.0878 281.066 86.1549L280.084 86.4179L281.187 90.532L280.629 90.6816Z" fill="#546D54"/>
<path d="M284.652 89.6036L283.417 84.9943L286.198 84.249L286.331 84.7441L284.107 85.3399L284.525 86.8974L286.604 86.3401L286.737 86.8353L284.657 87.3925L285.077 88.9589L287.337 88.3535L287.469 88.8486L284.652 89.6036Z" fill="#546D54"/>
<path d="M288.439 88.5887L287.204 83.9794L289.986 83.234L290.119 83.7292L287.895 84.325L288.312 85.8824L290.392 85.3252L290.525 85.8203L288.445 86.3776L288.865 87.944L291.124 87.3385L291.257 87.8337L288.439 88.5887Z" fill="#546D54"/>
<path d="M293.822 83.4414C293.733 83.2205 293.576 83.0728 293.351 82.9983C293.125 82.9237 292.872 82.9238 292.593 82.9986C292.389 83.0533 292.22 83.1341 292.084 83.2411C291.95 83.3478 291.856 83.4703 291.802 83.6087C291.749 83.7468 291.742 83.8893 291.781 84.0364C291.814 84.1594 291.872 84.2573 291.954 84.3302C292.037 84.4011 292.133 84.4534 292.242 84.487C292.35 84.5191 292.46 84.5402 292.573 84.5504C292.684 84.559 292.786 84.5632 292.877 84.5628L293.379 84.5634C293.508 84.5627 293.653 84.5704 293.815 84.5866C293.978 84.6023 294.14 84.6401 294.301 84.6999C294.463 84.7578 294.608 84.8492 294.736 84.974C294.865 85.0989 294.958 85.2693 295.016 85.4854C295.082 85.7344 295.078 85.977 295.001 86.213C294.926 86.4486 294.779 86.6591 294.562 86.8444C294.346 87.0292 294.061 87.1691 293.707 87.264C293.377 87.3524 293.077 87.3758 292.807 87.334C292.538 87.2918 292.31 87.1939 292.12 87.0403C291.933 86.8863 291.796 86.6857 291.711 86.4385L292.287 86.2841C292.349 86.4541 292.446 86.5825 292.578 86.6692C292.712 86.754 292.865 86.803 293.037 86.8163C293.211 86.8277 293.389 86.8089 293.572 86.7598C293.785 86.7028 293.967 86.617 294.118 86.5025C294.269 86.3866 294.377 86.2531 294.443 86.102C294.508 85.9494 294.518 85.7891 294.473 85.6211C294.432 85.468 294.356 85.355 294.245 85.2819C294.134 85.2088 294 85.1609 293.844 85.1383C293.689 85.1156 293.524 85.1035 293.35 85.1019L292.739 85.0918C292.351 85.0848 292.027 85.0134 291.765 84.8776C291.504 84.7419 291.331 84.5187 291.248 84.2081C291.179 83.95 291.188 83.7063 291.277 83.4768C291.366 83.2455 291.515 83.0448 291.723 82.8747C291.933 82.7028 292.185 82.5774 292.479 82.4986C292.776 82.419 293.054 82.4015 293.314 82.4461C293.573 82.4892 293.795 82.5842 293.979 82.7311C294.164 82.8776 294.292 83.0661 294.362 83.2966L293.822 83.4414Z" fill="#546D54"/>
<path d="M303.237 104.198L303.904 104.02L306.495 107.426L306.549 107.412L307.09 103.166L307.757 102.988L308.992 107.597L308.47 107.737L307.531 104.235L307.486 104.247L306.984 108.135L306.48 108.27L304.101 105.154L304.056 105.166L304.995 108.668L304.472 108.808L303.237 104.198Z" fill="#546D54"/>
<path d="M310.111 107.297L308.876 102.688L310.433 102.27C310.795 102.173 311.108 102.16 311.372 102.229C311.638 102.296 311.856 102.425 312.026 102.615C312.196 102.806 312.318 103.037 312.39 103.309C312.463 103.581 312.474 103.842 312.422 104.094C312.372 104.346 312.25 104.568 312.056 104.762C311.861 104.954 311.585 105.098 311.226 105.194L310.11 105.493L309.977 104.998L311.076 104.703C311.323 104.637 311.51 104.541 311.638 104.415C311.765 104.29 311.843 104.145 311.871 103.981C311.901 103.816 311.891 103.641 311.841 103.456C311.792 103.272 311.713 103.116 311.605 102.989C311.499 102.861 311.358 102.777 311.185 102.735C311.011 102.691 310.798 102.703 310.548 102.77L309.567 103.033L310.669 107.147L310.111 107.297Z" fill="#546D54"/>
<path fill-rule="evenodd" clip-rule="evenodd" d="M298.769 81.8574L303.972 80.4632L305.366 85.6665L300.163 87.0607L298.769 81.8574ZM299.372 82.2054L300.511 86.458L304.764 85.3185L303.624 81.0659L299.372 82.2054Z" fill="#579657"/>
<path fill-rule="evenodd" clip-rule="evenodd" d="M300.723 78.7424C299.929 78.9551 299.457 79.773 299.669 80.5666L299.996 81.7834L299.565 81.8989L299.239 80.6821C298.962 79.6504 299.576 78.5879 300.607 78.3115C301.639 78.035 302.701 78.6485 302.978 79.6801L303.304 80.897L302.873 81.0125L302.547 79.7956C302.334 79.002 301.516 78.5298 300.723 78.7424Z" fill="#579657"/>
<path d="M302.54 83.2685C302.457 82.9579 302.135 82.7724 301.825 82.8556C301.514 82.9388 301.329 83.2602 301.412 83.5708C301.477 83.8116 301.683 83.9737 301.912 83.9937L302.135 84.8239L302.547 84.7135L302.324 83.8833C302.512 83.7449 302.603 83.503 302.54 83.2685Z" fill="#579657"/>
<g clip-path="url(#clip2_4355_34102)">
<path d="M316.211 29.1861L315.634 30.9186L315.666 30.9275L316.244 29.195L316.211 29.1861Z" fill="white"/>
<path d="M316.244 29.1865L316.212 29.1964L316.863 30.9289L316.895 30.919L316.244 29.1865Z" fill="white"/>
<path d="M316.245 29.1912H316.211V30.9237H316.245V29.1912Z" fill="white"/>
<path d="M316.995 30.8929C316.995 31.1285 316.668 31.3196 316.265 31.3196C315.861 31.3196 315.534 31.1285 315.534 30.8929H316.995Z" fill="white"/>
<path opacity="0.11" d="M315.535 30.9161C315.534 30.9047 315.534 30.9047 315.534 30.8929H316.995C316.989 31.0294 316.921 31.0861 316.869 31.1327L315.535 30.9164V30.9161Z" fill="white"/>
<path d="M316.228 29.2068C316.184 29.2068 316.149 29.1747 316.149 29.1349C316.149 29.0952 316.184 29.063 316.228 29.063C316.272 29.063 316.307 29.0952 316.307 29.1349C316.307 29.1747 316.272 29.2068 316.228 29.2068ZM316.228 29.0938C316.203 29.0938 316.183 29.1121 316.183 29.1349C316.183 29.1577 316.203 29.176 316.228 29.176C316.253 29.176 316.273 29.1577 316.273 29.1349C316.273 29.1121 316.253 29.0938 316.228 29.0938Z" fill="white"/>
<path d="M316.701 28.9017C316.694 28.8875 316.678 28.8654 316.661 28.8675C316.649 28.8689 316.64 28.8779 316.635 28.8875C316.63 28.8972 316.628 28.9079 316.623 28.9179C316.615 28.9373 316.598 28.9539 316.577 28.9629C316.576 28.9635 316.574 28.9642 316.573 28.9649C316.435 28.9867 316.015 29.0416 315.306 28.8675C315.207 28.8433 315.076 28.8109 314.871 28.7784C314.732 28.7563 314.444 28.7169 314.075 28.7138C314.034 28.7134 314.001 28.7138 313.979 28.7138C313.979 28.7708 313.979 28.8278 313.979 28.8851C314.204 28.8858 314.543 28.8979 314.954 28.9566C315.125 28.9812 315.214 28.9946 315.329 29.0185C316.017 29.1632 316.582 29.0665 316.582 29.0665C316.598 29.0648 316.624 29.0596 316.65 29.0423C316.698 29.0091 316.722 28.9452 316.701 28.9021L316.701 28.9017Z" fill="white"/>
<path d="M311.751 29.1873L311.719 29.1962L312.296 30.9288L312.329 30.9199L311.751 29.1873Z" fill="white"/>
<path d="M311.719 29.1859L311.068 30.9185L311.1 30.9284L311.751 29.1959L311.719 29.1859Z" fill="white"/>
<path d="M311.752 29.1912H311.718V30.9237H311.752V29.1912Z" fill="white"/>
<path d="M310.968 30.8929C310.968 31.1285 311.295 31.3196 311.698 31.3196C312.102 31.3196 312.428 31.1285 312.428 30.8929H310.968Z" fill="white"/>
<path opacity="0.11" d="M312.428 30.9161C312.429 30.9047 312.428 30.9047 312.428 30.8929H310.968C310.974 31.0294 311.042 31.0861 311.094 31.1327L312.428 30.9164V30.9161Z" fill="white"/>
<path d="M311.735 29.2068C311.779 29.2068 311.814 29.1747 311.814 29.1349C311.814 29.0952 311.779 29.063 311.735 29.063C311.691 29.063 311.656 29.0952 311.656 29.1349C311.656 29.1747 311.691 29.2068 311.735 29.2068ZM311.735 29.0938C311.76 29.0938 311.78 29.1121 311.78 29.1349C311.78 29.1577 311.76 29.176 311.735 29.176C311.71 29.176 311.69 29.1577 311.69 29.1349C311.69 29.1121 311.71 29.0938 311.735 29.0938Z" fill="white"/>
<path d="M311.262 28.9017C311.267 28.8844 311.282 28.8651 311.302 28.8675C311.313 28.8689 311.323 28.8779 311.328 28.8875C311.332 28.8972 311.335 28.9079 311.339 28.9179C311.348 28.9373 311.365 28.9539 311.385 28.9629C311.387 28.9635 311.388 28.9642 311.39 28.9649C311.528 28.9867 311.948 29.0416 312.657 28.8675C312.756 28.8433 312.886 28.8109 313.092 28.7784C313.231 28.7563 313.519 28.7169 313.888 28.7138C313.928 28.7134 313.961 28.7138 313.983 28.7138C313.982 28.7708 313.98 28.8278 313.979 28.8851C313.674 28.8793 313.27 28.8958 312.799 28.986C312.709 29.0033 312.709 29.0029 312.635 29.0185C311.946 29.1632 311.381 29.0665 311.381 29.0665C311.381 29.0665 311.333 29.0551 311.313 29.0423C311.307 29.0378 311.3 29.0326 311.295 29.0271C311.261 28.9943 311.249 28.9452 311.262 28.9021L311.262 28.9017Z" fill="white"/>
</g>
<rect x="308" y="23" width="16" height="16" rx="2" fill="#EABF4E"/>
<path d="M311.198 28.6305C311.253 28.6681 311.301 28.6992 311.347 28.7331C311.752 29.0329 312.213 29.1352 312.725 29.0461C312.773 29.0378 312.819 29.0205 312.864 29.0029C312.902 28.988 312.945 28.9697 312.942 28.9244C312.939 28.8802 312.898 28.8623 312.856 28.8529C312.747 28.8284 312.636 28.8053 312.526 28.7828C312.158 28.7075 311.791 28.6305 311.451 28.4712C310.929 28.2266 310.588 27.8514 310.437 27.335C310.42 27.278 310.413 27.2206 310.421 27.1619C310.431 27.0866 310.473 27.0666 310.545 27.1042C310.647 27.1578 310.729 27.2348 310.818 27.3029C311.327 27.6915 311.91 27.9188 312.576 27.9578C312.622 27.9606 312.701 27.9914 312.71 27.9288C312.717 27.8805 312.634 27.8874 312.591 27.8753C311.986 27.7064 311.399 27.4998 310.891 27.1484C310.283 26.729 309.96 26.1808 310.015 25.4726C310.023 25.3662 310.038 25.2608 310.084 25.1617C310.161 24.9941 310.301 24.9544 310.464 25.0605C310.635 25.1707 310.767 25.3171 310.901 25.4612C311.299 25.891 311.701 26.3176 312.198 26.66C312.807 27.08 313.484 27.3716 314.227 27.5357C314.402 27.5744 314.579 27.6107 314.757 27.6397C314.852 27.6549 314.865 27.6891 314.834 27.7654C314.71 28.066 314.669 28.3765 314.714 28.6951C314.744 28.9117 314.881 29.0599 315.059 29.0785C315.23 29.0965 315.408 28.9732 315.477 28.7614C315.545 28.5517 315.583 28.3341 315.646 28.1226C315.75 27.7661 315.891 27.6884 316.294 27.7585C316.394 27.7758 316.489 27.8103 316.586 27.8394C316.618 27.849 316.657 27.8611 316.664 27.8932C316.69 28 316.787 28.0231 316.88 28.0518C316.949 28.0732 317.013 28.1033 317.034 28.1755C317.042 28.2031 317.037 28.2311 317.01 28.2498C316.982 28.2681 316.961 28.2511 316.939 28.2366C316.792 28.1361 316.636 28.1966 316.484 28.2204C316.452 28.2252 316.437 28.2567 316.437 28.2853C316.44 28.5092 316.452 28.7331 316.609 28.9213C316.7 29.0295 316.814 29.11 316.977 29.0727C317.14 29.0353 317.237 28.932 317.269 28.788C317.347 28.4432 317.296 28.1071 317.171 27.7772C317.127 27.6597 317.129 27.6583 317.27 27.6369C318.166 27.5001 318.99 27.2041 319.726 26.7163C320.196 26.405 320.583 26.0167 320.957 25.616C321.095 25.4671 321.231 25.3151 321.385 25.179C321.423 25.1455 321.461 25.1119 321.503 25.0833C321.703 24.9461 321.872 24.999 321.938 25.2177C322.01 25.4571 322 25.6989 321.961 25.9414C321.88 26.434 321.581 26.8057 321.167 27.1097C320.649 27.4891 320.041 27.6994 319.415 27.8767C319.404 27.8798 319.392 27.8801 319.382 27.885C319.349 27.9008 319.282 27.8901 319.292 27.9409C319.299 27.9779 319.357 27.9661 319.393 27.9641C320.014 27.9319 320.568 27.7381 321.056 27.3875C321.168 27.3067 321.278 27.2231 321.391 27.1429C321.431 27.1146 321.471 27.0669 321.529 27.0983C321.586 27.1298 321.576 27.1882 321.567 27.2386C321.487 27.6666 321.253 28.0097 320.877 28.2767C320.44 28.5873 319.919 28.6996 319.393 28.7984C319.312 28.8136 319.23 28.8281 319.15 28.8474C319.103 28.8588 319.048 28.8744 319.045 28.9279C319.043 28.9814 319.099 29.0011 319.143 29.0157C319.342 29.0803 319.548 29.0944 319.756 29.0754C320.113 29.0426 320.423 28.9134 320.695 28.703C320.721 28.683 320.748 28.6346 320.785 28.665C320.815 28.6895 320.779 28.7289 320.762 28.7576C320.345 29.4665 319.565 29.9356 318.621 29.8617C318.369 29.842 318.118 29.8137 317.866 29.8023C317.355 29.7791 317.016 29.9722 316.815 30.3992C316.776 30.4828 316.727 30.5039 316.634 30.4921C316.199 30.4365 315.762 30.4341 315.326 30.4953C315.249 30.506 315.209 30.4797 315.178 30.4165C314.944 29.9425 314.622 29.7681 314.052 29.7998C313.77 29.8157 313.491 29.8644 313.207 29.8648C312.289 29.8655 311.657 29.4478 311.217 28.7479C311.2 28.7199 311.175 28.6899 311.197 28.6318L311.198 28.6305Z" fill="#151513"/>
<path d="M315.999 32.6304C315.953 32.7157 315.915 32.7972 315.867 32.8729C315.779 33.0111 315.639 33.0881 315.471 33.1251C315.436 33.133 315.394 33.1434 315.368 33.1071C315.345 33.0739 315.376 33.0494 315.396 33.0256C315.425 32.99 315.455 32.9548 315.487 32.9206C315.718 32.6677 315.776 32.3778 315.709 32.0617C315.705 32.0417 315.699 32.0213 315.691 32.0023C315.681 31.9778 315.674 31.9426 315.636 31.9481C315.605 31.9526 315.608 31.9847 315.604 32.0079C315.585 32.1229 315.574 32.2397 315.544 32.3526C315.48 32.6007 315.326 32.7862 315.055 32.8767C315.023 32.8871 314.989 32.8912 314.955 32.8957C314.926 32.8995 314.893 32.9071 314.875 32.876C314.859 32.8494 314.882 32.8301 314.899 32.8131C314.939 32.7724 314.982 32.7333 315.023 32.6943C315.261 32.4708 315.391 32.2044 315.406 31.8935C315.407 31.8631 315.404 31.832 315.399 31.8013C315.396 31.7771 315.387 31.7522 315.354 31.7501C315.328 31.7484 315.312 31.7653 315.302 31.7843C315.277 31.8337 315.25 31.8835 315.229 31.9346C315.165 32.0863 315.081 32.2272 314.975 32.3575C314.875 32.4798 314.74 32.5371 314.573 32.5281C314.521 32.5254 314.463 32.5129 314.442 32.4621C314.418 32.4072 314.465 32.3706 314.504 32.3409C314.685 32.2062 314.872 32.078 315.005 31.899C315.179 31.6659 315.31 31.4182 315.306 31.1276C315.305 31.0575 315.336 31.0216 315.415 31.0105C315.81 30.9552 316.204 30.9646 316.598 31.0105C316.658 31.0174 316.695 31.0457 316.696 31.1045C316.702 31.6192 317.001 31.9851 317.425 32.2873C317.449 32.3043 317.473 32.3205 317.495 32.3395C317.533 32.3723 317.585 32.4038 317.564 32.459C317.541 32.5205 317.475 32.5288 317.413 32.5295C317.266 32.5312 317.143 32.4842 317.047 32.3775C316.917 32.2321 316.831 32.0652 316.755 31.8928C316.745 31.8707 316.736 31.8479 316.724 31.8268C316.705 31.7947 316.694 31.7436 316.645 31.7498C316.585 31.7574 316.598 31.8141 316.598 31.8514C316.597 32.1288 316.692 32.3765 316.886 32.591C316.953 32.6649 317.026 32.7337 317.097 32.8052C317.117 32.8252 317.146 32.8453 317.131 32.8753C317.112 32.9112 317.073 32.9002 317.04 32.8964C316.775 32.8646 316.52 32.6314 316.456 32.3568C316.431 32.2466 316.419 32.1336 316.399 32.022C316.394 31.9944 316.408 31.9512 316.359 31.9502C316.322 31.9495 316.319 31.9875 316.311 32.0123C316.227 32.2756 316.264 32.5281 316.403 32.7679C316.455 32.8587 316.523 32.942 316.6 33.0176C316.625 33.0422 316.659 33.0701 316.637 33.1071C316.611 33.1489 316.563 33.1358 316.525 33.1268C316.296 33.0733 316.14 32.9458 316.06 32.7433C316.046 32.7088 316.048 32.668 315.999 32.6311L315.999 32.6304Z" fill="#151513"/>
<g clip-path="url(#clip3_4355_34102)">
<path d="M310.019 34.4699C310.019 34.4332 310.055 34.4003 310.095 34.4003H310.22C310.26 34.4003 310.296 34.4332 310.296 34.4699V36.8964C310.296 36.933 310.26 36.966 310.22 36.966H310.095C310.055 36.966 310.019 36.933 310.019 36.8964V34.4699Z" fill="#151513"/>
<path d="M311.596 36.035C311.769 36.035 311.938 36.0826 311.938 36.0826C311.942 35.8114 311.906 35.6867 311.677 35.6867C311.448 35.6867 311.267 35.7418 311.195 35.7674C311.155 35.7821 311.131 35.7637 311.119 35.7307L311.087 35.6391C311.071 35.5951 311.095 35.5732 311.131 35.5585C311.155 35.5474 311.388 35.4631 311.689 35.4631C312.098 35.4631 312.198 35.6538 312.198 36.0826V36.8963C312.198 36.933 312.162 36.9659 312.122 36.9659H312.046C312.002 36.9659 311.99 36.944 311.978 36.9109L311.946 36.8119C311.861 36.8889 311.697 37.0026 311.448 37.0026C311.167 37.0026 310.954 36.8156 310.954 36.5224C310.954 36.2292 311.183 36.0349 311.596 36.0349V36.035ZM311.492 36.7827C311.693 36.7827 311.865 36.6692 311.934 36.5775V36.288C311.885 36.2624 311.773 36.2293 311.596 36.2293C311.372 36.2293 311.211 36.332 311.211 36.5225C311.211 36.6692 311.32 36.7827 311.492 36.7827Z" fill="#151513"/>
<path d="M312.804 35.5841C312.788 35.5327 312.804 35.4998 312.865 35.4998H312.989C313.025 35.4998 313.053 35.5181 313.061 35.5401L313.354 36.5078H313.358L313.812 35.4998C313.82 35.4814 313.844 35.4631 313.88 35.4631H313.9C313.936 35.4631 313.96 35.4815 313.968 35.4998L314.418 36.5115H314.422L314.711 35.5401C314.719 35.5181 314.747 35.4998 314.779 35.4998H314.903C314.964 35.4998 314.98 35.5327 314.964 35.5841L314.526 36.9659C314.518 36.9879 314.49 37.0026 314.458 37.0026H314.438C314.402 37.0026 314.378 36.9842 314.37 36.9659L313.88 35.8664L313.406 36.9659C313.398 36.9843 313.374 37.0026 313.338 37.0026H313.318C313.282 37.0026 313.258 36.9879 313.25 36.9659L312.804 35.5841H312.804Z" fill="#151513"/>
<path d="M315.525 35.117C315.525 35.018 315.61 34.941 315.714 34.941C315.818 34.941 315.907 35.018 315.907 35.117C315.907 35.216 315.822 35.2893 315.714 35.2893C315.606 35.2893 315.525 35.2123 315.525 35.117ZM315.582 35.5695C315.582 35.5329 315.618 35.4999 315.658 35.4999H315.782C315.822 35.4999 315.858 35.5329 315.858 35.5695V36.8964C315.858 36.933 315.822 36.966 315.782 36.966H315.658C315.618 36.966 315.582 36.933 315.582 36.8964V35.5695Z" fill="white"/>
<path d="M316.629 35.5695C316.629 35.5328 316.665 35.4999 316.705 35.4999H316.782C316.818 35.4999 316.838 35.5146 316.846 35.5439L316.882 35.6575C316.882 35.6575 317.111 35.4631 317.444 35.4631C317.909 35.4631 318.066 35.7418 318.066 36.1229V36.8963C318.066 36.933 318.03 36.9659 317.99 36.9659H317.861C317.821 36.9659 317.785 36.933 317.785 36.8963V36.1229C317.785 35.8443 317.649 35.7088 317.424 35.7088C317.123 35.7088 316.906 35.9177 316.906 35.9177V36.8963C316.906 36.933 316.87 36.9659 316.83 36.9659H316.706C316.665 36.9659 316.629 36.933 316.629 36.8963V35.5695H316.629Z" fill="white"/>
<path d="M318.676 36.8598L319.463 35.7418V35.7308H318.788C318.748 35.7308 318.716 35.6978 318.716 35.6612V35.5695C318.716 35.5292 318.748 35.4999 318.788 35.4999H319.796C319.856 35.4999 319.896 35.5513 319.864 35.5989L319.097 36.7242V36.7352H319.715C319.76 36.7352 319.792 36.7645 319.792 36.8048V36.8965C319.792 36.9331 319.76 36.9661 319.715 36.9661H318.752C318.712 36.9661 318.676 36.9331 318.676 36.8965V36.8599V36.8598Z" fill="white"/>
<path d="M321.164 35.4631C321.61 35.4631 321.963 35.815 321.963 36.2292C321.963 36.6433 321.61 37.0026 321.164 37.0026C320.719 37.0026 320.366 36.6507 320.366 36.2292C320.366 35.8077 320.719 35.4631 321.164 35.4631ZM321.164 36.7644C321.457 36.7644 321.686 36.5261 321.686 36.2292C321.686 35.9323 321.457 35.705 321.164 35.705C320.871 35.705 320.643 35.9396 320.643 36.2292C320.643 36.5187 320.871 36.7644 321.164 36.7644Z" fill="white"/>
</g>
</g>
<path fill-rule="evenodd" clip-rule="evenodd" d="M242.07 92.7521H108.253V126.389H242.07V92.7521ZM106.941 91.4398V127.701H243.383V91.4398H106.941Z" fill="#FF0000"/>
<path d="M133.841 109.516C133.747 110.061 133.568 110.539 133.306 110.949C133.054 111.347 132.739 111.683 132.361 111.956C131.994 112.219 131.574 112.418 131.101 112.555C130.639 112.691 130.157 112.759 129.653 112.759C128.907 112.759 128.23 112.628 127.621 112.366C127.023 112.093 126.508 111.72 126.078 111.248C125.648 110.775 125.317 110.219 125.086 109.579C124.855 108.928 124.74 108.23 124.74 107.484C124.74 106.665 124.871 105.915 125.133 105.232C125.396 104.55 125.747 103.962 126.188 103.469C126.64 102.975 127.159 102.592 127.747 102.319C128.346 102.046 128.981 101.91 129.653 101.91C130.461 101.91 131.222 102.151 131.936 102.634C132.303 102.256 132.681 102.036 133.07 101.973C133.101 102.004 133.148 102.125 133.211 102.335C133.274 102.534 133.332 102.797 133.385 103.122C133.448 103.448 133.5 103.82 133.542 104.24C133.584 104.66 133.605 105.101 133.605 105.563H133.07C132.828 104.555 132.408 103.799 131.81 103.295C131.212 102.781 130.513 102.524 129.716 102.524C129.138 102.524 128.645 102.65 128.235 102.902C127.826 103.143 127.49 103.469 127.228 103.878C126.965 104.277 126.771 104.734 126.645 105.248C126.529 105.762 126.472 106.287 126.472 106.823C126.472 107.568 126.535 108.261 126.661 108.901C126.797 109.531 127.007 110.082 127.291 110.555C127.574 111.017 127.941 111.384 128.393 111.657C128.844 111.92 129.385 112.051 130.015 112.051C130.414 112.051 130.771 112.009 131.086 111.925C131.411 111.841 131.705 111.699 131.967 111.5C132.24 111.29 132.487 111.012 132.708 110.665C132.939 110.308 133.159 109.867 133.369 109.342L133.841 109.516Z" fill="#FD0000"/>
<path d="M139.358 112.523V112.051C140.04 112.051 140.381 111.83 140.381 111.389V108.98C140.381 107.5 139.903 106.76 138.948 106.76C137.888 106.76 137.284 107.306 137.137 108.398V111.263C137.137 111.788 137.52 112.051 138.287 112.051V112.523H134.807V112.051C135.489 112.051 135.83 111.788 135.83 111.263V103.831C135.83 102.991 135.51 102.571 134.87 102.571V102.146L137.137 101.673V107.122C137.799 106.282 138.56 105.862 139.421 105.862C139.798 105.862 140.129 105.915 140.413 106.02C140.696 106.125 140.927 106.272 141.105 106.461C141.284 106.65 141.415 106.87 141.499 107.122C141.594 107.363 141.641 107.626 141.641 107.909V111.389C141.641 111.83 142.003 112.051 142.727 112.051V112.523H139.358Z" fill="#FD0000"/>
<path d="M149.567 110.964C149.294 111.552 148.926 112.009 148.464 112.334C148.002 112.66 147.457 112.822 146.827 112.822C146.302 112.822 145.84 112.733 145.441 112.555C145.042 112.376 144.706 112.135 144.433 111.83C144.171 111.526 143.971 111.164 143.835 110.744C143.698 110.324 143.63 109.878 143.63 109.405C143.63 108.933 143.703 108.481 143.85 108.051C143.997 107.621 144.202 107.237 144.465 106.902C144.738 106.566 145.063 106.298 145.441 106.098C145.819 105.899 146.239 105.799 146.701 105.799C146.984 105.799 147.278 105.836 147.582 105.909C147.897 105.972 148.191 106.104 148.464 106.303C148.737 106.503 148.973 106.791 149.173 107.169C149.372 107.537 149.504 108.025 149.567 108.634C149.567 108.76 149.551 108.875 149.519 108.98H145.331C145.131 108.98 145.031 109.059 145.031 109.216C145.031 109.594 145.084 109.951 145.189 110.287C145.294 110.623 145.441 110.917 145.63 111.169C145.819 111.421 146.05 111.62 146.323 111.767C146.596 111.904 146.9 111.972 147.236 111.972C147.677 111.972 148.055 111.846 148.37 111.594C148.695 111.342 148.979 111.048 149.22 110.712L149.567 110.964ZM147.425 108.508C147.855 108.508 148.071 108.287 148.071 107.846C148.039 107.447 147.903 107.101 147.661 106.807C147.43 106.503 147.089 106.35 146.638 106.35C146.396 106.35 146.176 106.408 145.976 106.524C145.777 106.629 145.604 106.776 145.457 106.965C145.32 107.143 145.215 107.353 145.142 107.594C145.068 107.825 145.031 108.067 145.031 108.319C145.031 108.445 145.147 108.508 145.378 108.508H147.425Z" fill="#FD0000"/>
<path d="M154.128 115.389V114.98C154.937 114.98 155.341 114.681 155.341 114.082V111.799C155.089 112.135 154.785 112.376 154.428 112.523C154.071 112.681 153.693 112.759 153.294 112.759C152.727 112.759 152.254 112.644 151.877 112.413C151.509 112.182 151.215 111.909 150.995 111.594C150.774 111.269 150.617 110.928 150.522 110.571C150.438 110.214 150.396 109.909 150.396 109.657C150.396 109.185 150.459 108.728 150.585 108.287C150.722 107.836 150.921 107.437 151.184 107.09C151.446 106.744 151.777 106.466 152.176 106.256C152.575 106.035 153.047 105.925 153.593 105.925C154.16 105.925 154.611 105.999 154.947 106.146C155.283 106.293 155.572 106.497 155.813 106.76L156.396 105.925H156.774C156.742 106.261 156.711 106.56 156.679 106.823C156.658 107.085 156.648 107.306 156.648 107.484V114.082C156.648 114.681 156.963 114.98 157.593 114.98V115.389H154.128ZM155.341 108.98C155.341 108.697 155.315 108.403 155.262 108.098C155.21 107.783 155.115 107.5 154.979 107.248C154.842 106.986 154.664 106.77 154.443 106.602C154.223 106.434 153.939 106.35 153.593 106.35C153.016 106.35 152.559 106.576 152.223 107.027C151.898 107.468 151.735 108.161 151.735 109.106C151.735 109.505 151.777 109.878 151.861 110.224C151.945 110.56 152.066 110.854 152.223 111.106C152.391 111.358 152.601 111.557 152.853 111.704C153.115 111.841 153.42 111.909 153.766 111.909C154.816 111.909 155.341 111.253 155.341 109.941V108.98Z" fill="#FD0000"/>
<path d="M163.61 112.586C163.579 112.513 163.563 112.371 163.563 112.161V111.563C163.458 111.741 163.343 111.904 163.217 112.051C163.091 112.187 162.939 112.303 162.76 112.397C162.592 112.492 162.393 112.565 162.162 112.618C161.931 112.67 161.658 112.696 161.343 112.696C160.944 112.696 160.603 112.66 160.319 112.586C160.036 112.513 159.805 112.387 159.626 112.208C159.448 112.019 159.317 111.773 159.233 111.468C159.159 111.153 159.122 110.765 159.122 110.303V107.122C159.122 106.765 158.781 106.587 158.099 106.587L158.036 106.177L160.429 105.988V110.004C160.429 110.256 160.435 110.497 160.445 110.728C160.466 110.959 160.513 111.164 160.587 111.342C160.671 111.51 160.802 111.647 160.981 111.752C161.159 111.857 161.416 111.909 161.752 111.909C162.603 111.909 163.185 111.374 163.5 110.303V107.122C163.5 106.765 163.122 106.587 162.366 106.587L162.303 106.177L164.823 105.988V111.263C164.823 111.62 165.18 111.82 165.894 111.862L166.02 112.287L163.61 112.586Z" fill="#FD0000"/>
<path d="M172.557 110.964C172.284 111.552 171.916 112.009 171.455 112.334C170.993 112.66 170.447 112.822 169.817 112.822C169.292 112.822 168.83 112.733 168.431 112.555C168.032 112.376 167.696 112.135 167.423 111.83C167.161 111.526 166.961 111.164 166.825 110.744C166.688 110.324 166.62 109.878 166.62 109.405C166.62 108.933 166.694 108.481 166.841 108.051C166.988 107.621 167.192 107.237 167.455 106.902C167.728 106.566 168.053 106.298 168.431 106.098C168.809 105.899 169.229 105.799 169.691 105.799C169.974 105.799 170.268 105.836 170.573 105.909C170.888 105.972 171.182 106.104 171.455 106.303C171.728 106.503 171.964 106.791 172.163 107.169C172.363 107.537 172.494 108.025 172.557 108.634C172.557 108.76 172.541 108.875 172.51 108.98H168.321C168.121 108.98 168.022 109.059 168.022 109.216C168.022 109.594 168.074 109.951 168.179 110.287C168.284 110.623 168.431 110.917 168.62 111.169C168.809 111.421 169.04 111.62 169.313 111.767C169.586 111.904 169.89 111.972 170.226 111.972C170.667 111.972 171.045 111.846 171.36 111.594C171.686 111.342 171.969 111.048 172.21 110.712L172.557 110.964ZM170.415 108.508C170.846 108.508 171.061 108.287 171.061 107.846C171.029 107.447 170.893 107.101 170.651 106.807C170.421 106.503 170.079 106.35 169.628 106.35C169.386 106.35 169.166 106.408 168.967 106.524C168.767 106.629 168.594 106.776 168.447 106.965C168.31 107.143 168.205 107.353 168.132 107.594C168.058 107.825 168.022 108.067 168.022 108.319C168.022 108.445 168.137 108.508 168.368 108.508H170.415Z" fill="#FD0000"/>
<path d="M182.706 102.697C181.971 102.697 181.604 102.891 181.604 103.28V106.319C181.604 106.613 181.756 106.76 182.06 106.76C182.785 106.76 183.362 106.723 183.792 106.65C184.233 106.576 184.569 106.461 184.8 106.303C185.042 106.135 185.199 105.925 185.273 105.673C185.346 105.411 185.383 105.096 185.383 104.728C185.383 103.374 184.695 102.697 183.32 102.697H182.706ZM184.784 106.949C185.635 107.075 186.317 107.353 186.832 107.783C187.346 108.214 187.603 108.791 187.603 109.516C187.603 110.082 187.509 110.565 187.32 110.964C187.131 111.353 186.868 111.668 186.532 111.909C186.207 112.151 185.813 112.324 185.351 112.429C184.9 112.534 184.412 112.586 183.887 112.586C183.016 112.586 182.16 112.576 181.32 112.555C180.491 112.534 179.572 112.523 178.564 112.523V112.051C179.562 112.051 180.06 111.757 180.06 111.169V103.673C180.06 102.938 179.541 102.571 178.501 102.571V102.083H183.052C183.609 102.083 184.123 102.13 184.595 102.225C185.078 102.309 185.493 102.45 185.839 102.65C186.186 102.839 186.459 103.091 186.658 103.406C186.858 103.71 186.958 104.088 186.958 104.539C186.958 104.886 186.905 105.185 186.8 105.437C186.695 105.678 186.543 105.894 186.343 106.083C186.154 106.261 185.923 106.413 185.651 106.539C185.388 106.665 185.099 106.781 184.784 106.886V106.949ZM183.43 111.988C183.787 111.988 184.118 111.951 184.422 111.878C184.727 111.794 184.989 111.662 185.21 111.484C185.441 111.295 185.619 111.059 185.745 110.775C185.871 110.481 185.934 110.124 185.934 109.705C185.934 109.211 185.855 108.812 185.698 108.508C185.551 108.203 185.33 107.967 185.036 107.799C184.753 107.631 184.407 107.521 183.997 107.468C183.588 107.405 183.131 107.374 182.627 107.374H182.06C181.756 107.374 181.604 107.573 181.604 107.972V111.374C181.604 111.783 181.981 111.988 182.737 111.988H183.43Z" fill="#FD0000"/>
<path d="M192.025 112.822C191.532 112.822 191.081 112.728 190.671 112.539C190.262 112.361 189.91 112.119 189.616 111.815C189.333 111.5 189.112 111.138 188.955 110.728C188.797 110.308 188.719 109.867 188.719 109.405C188.719 108.859 188.808 108.366 188.986 107.925C189.165 107.474 189.406 107.09 189.711 106.776C190.015 106.461 190.372 106.219 190.781 106.051C191.191 105.883 191.627 105.799 192.088 105.799C192.561 105.799 192.996 105.894 193.395 106.083C193.794 106.261 194.136 106.508 194.419 106.823C194.713 107.127 194.939 107.489 195.096 107.909C195.254 108.319 195.332 108.754 195.332 109.216C195.332 109.773 195.243 110.277 195.065 110.728C194.886 111.169 194.645 111.547 194.34 111.862C194.036 112.166 193.684 112.403 193.285 112.571C192.886 112.738 192.466 112.822 192.025 112.822ZM192.088 112.287C192.498 112.287 192.818 112.198 193.049 112.019C193.29 111.83 193.474 111.61 193.6 111.358C193.726 111.106 193.805 110.844 193.836 110.571C193.878 110.298 193.899 110.072 193.899 109.893C193.899 109.547 193.878 109.169 193.836 108.76C193.794 108.34 193.705 107.957 193.569 107.61C193.443 107.253 193.254 106.954 193.002 106.713C192.76 106.471 192.435 106.35 192.025 106.35C191.606 106.35 191.275 106.445 191.033 106.634C190.792 106.812 190.608 107.027 190.482 107.279C190.356 107.531 190.272 107.794 190.23 108.067C190.199 108.34 190.183 108.565 190.183 108.744C190.183 109.09 190.204 109.474 190.246 109.893C190.288 110.303 190.372 110.686 190.498 111.043C190.634 111.389 190.829 111.683 191.081 111.925C191.333 112.166 191.668 112.287 192.088 112.287Z" fill="#FD0000"/>
<path d="M201.487 112.586C201.455 112.513 201.439 112.371 201.439 112.161V111.563C201.334 111.741 201.219 111.904 201.093 112.051C200.967 112.187 200.815 112.303 200.636 112.397C200.468 112.492 200.269 112.565 200.038 112.618C199.807 112.67 199.534 112.696 199.219 112.696C198.82 112.696 198.479 112.66 198.195 112.586C197.912 112.513 197.681 112.387 197.503 112.208C197.324 112.019 197.193 111.773 197.109 111.468C197.035 111.153 196.999 110.765 196.999 110.303V107.122C196.999 106.765 196.658 106.587 195.975 106.587L195.912 106.177L198.306 105.988V110.004C198.306 110.256 198.311 110.497 198.321 110.728C198.342 110.959 198.39 111.164 198.463 111.342C198.547 111.51 198.678 111.647 198.857 111.752C199.035 111.857 199.293 111.909 199.628 111.909C200.479 111.909 201.061 111.374 201.376 110.303V107.122C201.376 106.765 200.998 106.587 200.243 106.587L200.18 106.177L202.699 105.988V111.263C202.699 111.62 203.056 111.82 203.77 111.862L203.896 112.287L201.487 112.586Z" fill="#FD0000"/>
<path d="M208.953 112.523V112.051C209.635 112.051 209.976 111.83 209.976 111.389V108.807C209.976 107.369 209.462 106.65 208.433 106.65C207.383 106.65 206.859 107.29 206.859 108.571V111.389C206.859 111.83 207.236 112.051 207.992 112.051V112.523H204.654V112.051C205.242 112.051 205.536 111.809 205.536 111.326V107.311C205.536 106.944 205.252 106.76 204.685 106.76H204.465V106.35L206.733 105.799C206.775 105.841 206.796 105.946 206.796 106.114V107.059C206.88 106.902 206.984 106.749 207.11 106.602C207.247 106.445 207.41 106.308 207.599 106.193C207.798 106.077 208.029 105.983 208.292 105.909C208.554 105.836 208.853 105.799 209.189 105.799C209.378 105.799 209.593 105.841 209.835 105.925C210.076 105.999 210.307 106.125 210.528 106.303C210.748 106.471 210.932 106.692 211.079 106.965C211.226 107.237 211.299 107.568 211.299 107.957V111.437C211.299 111.846 211.64 112.051 212.323 112.051V112.523H208.953Z" fill="#FD0000"/>
<path d="M218.995 111.2C218.89 111.484 218.738 111.731 218.539 111.941C218.339 112.14 218.114 112.308 217.862 112.445C217.62 112.571 217.363 112.665 217.09 112.728C216.817 112.791 216.555 112.822 216.303 112.822C215.841 112.822 215.426 112.733 215.059 112.555C214.691 112.387 214.381 112.151 214.13 111.846C213.878 111.542 213.683 111.185 213.547 110.775C213.421 110.366 213.358 109.925 213.358 109.453C213.358 108.959 213.426 108.492 213.563 108.051C213.71 107.61 213.925 107.222 214.208 106.886C214.502 106.55 214.864 106.287 215.295 106.098C215.736 105.899 216.25 105.799 216.838 105.799C217.09 105.799 217.337 105.836 217.578 105.909C217.83 105.983 218.051 106.088 218.24 106.224C218.439 106.35 218.596 106.508 218.712 106.697C218.827 106.886 218.885 107.09 218.885 107.311C218.885 107.521 218.796 107.705 218.617 107.862C218.439 108.009 218.245 108.083 218.035 108.083C217.604 108.083 217.389 107.846 217.389 107.374C217.389 107.342 217.394 107.274 217.405 107.169C217.426 107.064 217.436 106.97 217.436 106.886C217.436 106.676 217.337 106.524 217.137 106.429C216.948 106.335 216.749 106.287 216.539 106.287C216.234 106.287 215.972 106.371 215.751 106.539C215.542 106.697 215.363 106.907 215.216 107.169C215.08 107.421 214.975 107.705 214.901 108.02C214.838 108.335 214.807 108.639 214.807 108.933C214.807 109.353 214.849 109.747 214.933 110.114C215.017 110.471 215.143 110.786 215.311 111.059C215.479 111.321 215.694 111.531 215.956 111.689C216.219 111.836 216.534 111.909 216.901 111.909C217.604 111.909 218.166 111.594 218.586 110.964L218.995 111.2Z" fill="#FD0000"/>
<path d="M225.488 110.964C225.215 111.552 224.848 112.009 224.386 112.334C223.924 112.66 223.378 112.822 222.748 112.822C222.223 112.822 221.761 112.733 221.363 112.555C220.964 112.376 220.628 112.135 220.355 111.83C220.092 111.526 219.893 111.164 219.756 110.744C219.62 110.324 219.552 109.878 219.552 109.405C219.552 108.933 219.625 108.481 219.772 108.051C219.919 107.621 220.124 107.237 220.386 106.902C220.659 106.566 220.985 106.298 221.363 106.098C221.74 105.899 222.16 105.799 222.622 105.799C222.906 105.799 223.2 105.836 223.504 105.909C223.819 105.972 224.113 106.104 224.386 106.303C224.659 106.503 224.895 106.791 225.095 107.169C225.294 107.537 225.425 108.025 225.488 108.634C225.488 108.76 225.473 108.875 225.441 108.98H221.252C221.053 108.98 220.953 109.059 220.953 109.216C220.953 109.594 221.006 109.951 221.111 110.287C221.216 110.623 221.363 110.917 221.551 111.169C221.74 111.421 221.971 111.62 222.244 111.767C222.517 111.904 222.822 111.972 223.158 111.972C223.599 111.972 223.977 111.846 224.292 111.594C224.617 111.342 224.9 111.048 225.142 110.712L225.488 110.964ZM223.347 108.508C223.777 108.508 223.992 108.287 223.992 107.846C223.961 107.447 223.824 107.101 223.583 106.807C223.352 106.503 223.011 106.35 222.559 106.35C222.318 106.35 222.097 106.408 221.898 106.524C221.698 106.629 221.525 106.776 221.378 106.965C221.242 107.143 221.137 107.353 221.063 107.594C220.99 107.825 220.953 108.067 220.953 108.319C220.953 108.445 221.069 108.508 221.3 108.508H223.347Z" fill="#FD0000"/>
</g>
<defs>
<clipPath id="clip0_4355_34102">
<rect width="350" height="218.75" fill="white"/>
</clipPath>
<clipPath id="clip1_4355_34102">
<rect width="442.622" height="202.644" fill="white" transform="translate(-46.1493 8.24872)"/>
</clipPath>
<clipPath id="clip2_4355_34102">
<rect width="11.9859" height="8.27329" fill="white" transform="translate(308.014 23.0466)"/>
</clipPath>
<clipPath id="clip3_4355_34102">
<rect width="11.9038" height="2.6087" fill="white" transform="translate(310.023 34.3898)"/>
</clipPath>
</defs>
</svg>
