<svg width="350" height="219" viewBox="0 0 350 219" fill="none" xmlns="http://www.w3.org/2000/svg">
<g clip-path="url(#clip0_4355_32898)">
<rect width="350" height="218.75" fill="white"/>
<path d="M51.2282 218.75C55.2644 194.156 21.9248 178.526 31.8533 148.67C40.6391 122.276 46.1748 133.967 44.2261 94.5576C42.0924 51.4015 73.0737 51.1234 98.2089 49.9517C118.007 49.0315 139.978 22.5777 167.075 19.3405C216.328 13.4685 221.85 53.3014 244.224 54.2746C265.878 55.2212 296.503 52.6129 308.935 76.3988C322.497 102.349 295.769 120.879 311.623 151.894C331.791 191.363 297.652 195.864 297.705 218.737" fill="#FFF7E3"/>
<g opacity="0.4">
<path d="M234.534 37.4901C228.641 41.68 240.93 50.4105 244.661 48.7094C253.445 44.6916 241.433 33.6444 234.534 37.4901Z" fill="#FBBF0D"/>
</g>
<g opacity="0.4">
<path d="M316.09 120.01C308.622 118.21 310.831 140.145 318.193 135.889C324.153 132.791 321.54 119.904 316.09 120.01Z" fill="#FBBF0D"/>
</g>
<g opacity="0.4">
<path d="M114.39 34.6174C111.486 28.925 96.2003 38.1057 103.165 42.7522C107.418 45.85 117.095 39.6545 114.39 34.6174Z" fill="#FBBF0D"/>
</g>
<g opacity="0.4">
<path d="M36.0621 109.757C27.4303 107.566 22.2512 125.246 31.0881 125.636C38.5954 125.636 41.8365 109.757 36.0621 109.757Z" fill="#FBBF0D"/>
</g>
<g opacity="0.4">
<path d="M95.638 41.2365C89.4337 38.5624 87.9521 44.3739 92.1522 46.6575C95.7438 48.6101 98.7335 43.9437 95.638 41.2365Z" fill="#FBBF0D"/>
</g>
<g opacity="0.4">
<path d="M256.388 43.9106C249.231 43.5201 252.743 52.1116 257.301 51.1982C262.764 50.2847 262.308 44.3673 256.388 43.9106Z" fill="#FBBF0D"/>
</g>
<g opacity="0.4">
<path d="M317.353 140.086C312.114 141.257 317.737 151.762 321.613 149.438C326.256 145.95 321.361 138.543 317.353 140.086Z" fill="#FBBF0D"/>
</g>
<g opacity="0.4">
<path d="M35.943 95.5459C31.0947 94.2287 28.5548 103.29 33.972 104.455C38.9989 105.62 40.1167 95.5459 35.943 95.5459Z" fill="#FBBF0D"/>
</g>
<path d="M66.1463 84.2129C66.1463 84.2129 56.1831 103.526 54.1765 103.792L44.9125 109.386C45.2621 110.869 49.3732 117.861 53.6521 117.162C57.931 116.463 66.4119 104.75 66.4119 104.75L66.1463 84.2059V84.2129Z" fill="#C93D43"/>
<path d="M61.7485 110.568C64.3494 107.596 66.412 104.757 66.412 104.757L66.1463 84.2129C66.1463 84.2129 62.196 91.8767 58.7631 97.6176C60.9934 101.519 62.0422 106.086 61.7485 110.568Z" fill="#7D262A"/>
<path d="M144.516 127.853C144.132 126.986 137.266 123.406 135.623 123.406C133.98 123.406 133.497 124.182 132.917 123.987C132.337 123.791 127.408 119.057 127.408 119.057L124.121 122.728C124.121 122.728 129.051 127.175 129.148 127.658C129.246 128.14 129.148 132.105 129.435 133.168C129.722 134.231 132.623 135.678 133.106 135.098C133.588 134.517 134.749 130.846 135.525 130.846C136.301 130.846 138.811 132.587 139.007 133.846C139.203 135.105 138.357 139.279 138.909 139.454C139.461 139.629 140.195 139.37 140.65 138.678C141.44 137.475 142.531 135.657 141.908 134.426C141.908 134.426 143.069 134.14 143.265 133.559C143.46 132.979 143.363 132.301 143.363 132.301C143.363 132.301 144.425 131.818 144.425 131.14C144.425 130.462 144.041 129.783 144.041 129.783C144.041 129.783 144.908 128.72 144.523 127.853H144.516Z" fill="#CF9E76"/>
<path d="M127.498 212.058L122.024 215.554C122.024 215.554 123.891 218.12 124.121 218.7C124.352 219.281 126.687 224.413 126.687 224.413L131.351 223.246L132.749 216.372C132.749 216.372 128.673 215.204 127.505 212.058H127.498Z" fill="#5C4D31"/>
<path d="M52.6872 214.505L50.9393 217.302L47.6742 220.449L52.3377 224.064L55.8335 223.134L60.0285 215.792L52.6872 214.505Z" fill="#5C4D31"/>
<path d="M101.042 135.839L86.8278 154.719L119.919 217.652C119.919 217.652 128.309 215.554 129.708 209.96L101.042 135.839Z" fill="#1C1110"/>
<path d="M99.8812 121.392L74.2426 131.881L79.3675 142.139L50.2332 214.393L59.7908 218.819C59.7908 218.819 97.3152 161.25 101.972 144.698C106.635 128.147 99.8742 121.392 99.8742 121.392H99.8812Z" fill="#1C1110"/>
<path d="M129.246 118.595L124.003 124.889C124.003 124.889 126.219 128.385 127.03 128.035C127.848 127.686 132.442 126.154 133.322 121.742C133.553 120.574 129.246 118.595 129.246 118.595Z" fill="#A3C2D1"/>
<path d="M83.4507 72.906C77.6826 73.8989 74.9418 75.3534 74.9418 75.3534L65.503 82.2271C65.503 82.2271 62.8252 87.8211 63.6363 97.1421C64.4543 106.463 67.0133 109.498 68.88 117.302C70.7468 125.112 69.9288 132.454 75.641 133.266C81.3532 134.084 101.51 125.693 102.328 122.078C103.146 118.462 97.4341 110.659 96.9657 107.974C96.4972 105.295 95.0989 101.45 95.0989 101.45L124.114 125.574C124.114 125.574 128.079 125.105 130.757 118.7C130.757 118.7 89.2119 71.9061 83.4437 72.899L83.4507 72.906Z" fill="#C93D43"/>
<path d="M64.9227 82.5837C64.9227 82.5837 64.1047 89.1077 65.5031 89.4573C66.9014 89.807 71.3271 80.5978 71.3271 80.5978L64.9158 82.5767L64.9227 82.5837Z" fill="#A3C2D1"/>
<path d="M70.3973 71.1019C69.3695 71.3047 61.9024 79.8845 61.9863 80.339C62.0702 80.7935 65.3423 85.3806 65.8247 84.8142C66.3072 84.2478 73.3268 74.5632 73.0542 73.787C72.7815 73.0108 70.3903 71.1019 70.3903 71.1019H70.3973Z" fill="#A3C2D1"/>
<path d="M82.6536 40.3976C82.6536 40.3976 83.192 40.3976 83.192 38.2509C83.192 36.1042 81.514 35.7056 78.9061 35.5029C76.2982 35.3001 70.53 34.3631 66.1113 33.0904C61.2241 31.6849 52.7152 30.6151 49.7018 36.5727C46.6884 42.5304 50.7086 48.6279 50.9044 48.5649L62.4267 67.5916L69.6631 70.5425C69.6631 70.5425 76.3611 70.8082 76.6268 70.1439C76.8925 69.4726 75.0187 68.4028 75.0187 68.4028C75.0187 68.4028 79.2417 67.263 79.4375 66.8644C79.6332 66.4658 77.8294 65.9274 77.0953 64.8575C76.3611 63.7877 78.7733 59.2985 82.2551 51.9283C85.737 44.5582 82.6536 40.4046 82.6536 40.4046V40.3976Z" fill="#1C1110"/>
<g style="mix-blend-mode:screen">
<path d="M49.9675 38.1881C52.9809 32.2234 61.4898 33.3003 66.377 34.7058C70.7957 35.9784 76.5569 36.9154 79.1718 37.1182C81.1644 37.2721 82.6117 37.5448 83.185 38.6216C83.185 38.5097 83.185 38.3909 83.185 38.258C83.185 36.1113 81.507 35.7127 78.8991 35.5099C76.2912 35.3071 70.5231 34.3701 66.1043 33.0975C61.2171 31.692 52.7082 30.6221 49.6948 36.5798C48.3454 39.2509 48.4083 41.9501 48.9047 44.1108C48.7229 42.2927 48.9257 40.2299 49.9605 38.1881H49.9675Z" fill="#1C1110"/>
</g>
<path d="M72.0892 66.9903C72.0892 66.9903 78.1161 64.8925 75.4103 59.6481C72.7045 54.4037 69.2926 61.7459 68.069 62.7108C66.8455 63.6758 65.2723 63.9345 65.0976 63.5849C64.9228 63.2353 66.2302 61.1375 66.2302 61.1375C66.2302 61.1375 65.2654 62.6199 64.8319 62.1025C64.3984 61.585 67.0133 55.7253 64.748 52.229C62.4827 48.7327 52.3377 47.3342 51.6385 41.3906C51.6385 41.3906 50.1563 43.3135 49.8906 47.1594C49.6249 51.0053 50.1563 54.6764 49.541 55.3756C49.5131 55.4106 49.4711 55.4456 49.4292 55.4735C49.7018 58.9768 48.4224 60.2495 47.4855 60.704C47.5064 60.7599 47.5204 60.8228 47.5274 60.8788C47.6113 61.7529 48.5762 71.018 49.3592 72.3326C50.1423 73.6472 61.6786 71.4585 62.21 71.8081C62.7414 72.1578 67.1042 78.8846 67.1042 78.8846C67.1042 78.8846 65.3562 87.1917 65.7058 87.5414C66.0554 87.891 71.3831 75.0387 77.6756 73.9059L72.0823 66.9973L72.0892 66.9903Z" fill="#EFB59B"/>
<path d="M49.4292 55.4666C48.5902 56.1798 45.2551 57.3266 45.2551 58.0748C45.2551 58.823 47.1639 59.8509 47.4855 60.697C48.4224 60.2425 49.7018 58.9698 49.4292 55.4666Z" fill="#C93D43"/>
<path d="M51.4777 54.3338C51.156 55.4665 51.2539 57.2147 52.883 56.9769C54.2743 56.7742 55.4629 55.5225 56.0432 54.3128C56.239 53.9072 55.6307 53.5576 55.435 53.9632C55.0644 54.7323 54.533 55.3826 53.8059 55.8441C53.5052 56.0329 53.0228 56.3336 52.6593 56.3057C51.7154 56.2217 51.9811 55.1099 52.1489 54.5156C52.2747 54.082 51.5965 53.9002 51.4777 54.3338Z" fill="#1C1110"/>
<path d="M50.9603 49.0754C51.0023 50.0893 51.5826 50.7745 52.6383 50.341C53.3235 50.0613 53.9318 49.5928 54.61 49.2781C55.1343 49.0404 56.9662 48.0684 57.5115 48.6138C57.8261 48.9355 58.3226 48.439 58.0009 48.1174C57.2878 47.3971 56.1342 47.9286 55.3371 48.2223C54.7288 48.446 54.1345 48.7117 53.5612 49.0194C53.0438 49.2991 51.7154 50.39 51.6595 49.0754C51.6385 48.6278 50.9393 48.6208 50.9603 49.0754Z" fill="#1C1110"/>
<path d="M49.1918 66.6615C51.0166 65.4378 52.9673 64.4519 55.0438 63.7247C55.4633 63.5778 55.2885 62.8995 54.8621 63.0464C52.7296 63.7946 50.716 64.8015 48.8422 66.0602C48.4716 66.3119 48.8212 66.9133 49.1988 66.6615H49.1918Z" fill="#1C1110"/>
<path d="M69.2016 65.7456C70.5999 63.1653 73.5225 60.3404 76.7247 61.1865C77.1582 61.2983 77.3469 60.627 76.9065 60.5152C73.3896 59.5922 70.1455 62.529 68.5933 65.403C68.3766 65.8015 68.9849 66.1512 69.2016 65.7526V65.7456Z" fill="#1C1110"/>
<path d="M70.8656 63.3611C71.3411 63.6269 71.7396 63.9555 72.1032 64.3611C72.3968 64.6967 72.8932 64.2003 72.5926 63.8646C72.201 63.4171 71.7326 63.0465 71.2152 62.7528C70.8237 62.529 70.4741 63.1374 70.8656 63.3611Z" fill="#1C1110"/>
<path d="M58.714 64.1093C60.1621 64.1093 61.3359 62.9353 61.3359 61.4871C61.3359 60.0389 60.1621 58.8649 58.714 58.8649C57.266 58.8649 56.0922 60.0389 56.0922 61.4871C56.0922 62.9353 57.266 64.1093 58.714 64.1093Z" fill="#EFB59B"/>
<path d="M77.333 70.5565C76.2842 70.5984 67.6215 77.9755 67.6425 78.444C67.6635 78.9125 70.2154 83.9332 70.7748 83.4437C71.3341 82.9542 79.7172 74.4233 79.5633 73.6122C79.4095 72.8011 77.333 70.5565 77.333 70.5565Z" fill="#A3C2D1"/>
<g style="mix-blend-mode:multiply">
<path d="M82.8634 90.5062C82.8634 90.5062 90.6382 110.771 99.9651 114.372C98.6227 111.75 97.1894 109.274 96.9656 107.988C96.4972 105.309 95.0989 101.464 95.0989 101.464C95.0989 101.464 85.8908 91.9047 82.8634 90.5062Z" fill="#BCBEC0"/>
</g>
<path d="M92.456 165.41C97.0146 157.788 100.832 149.621 103.076 141.013C103.132 140.797 102.797 140.706 102.741 140.922C100.503 149.509 96.7 157.642 92.1554 165.235C92.0365 165.431 92.3442 165.606 92.456 165.41Z" fill="#A3C2D1"/>
<path d="M41.1509 216.84C36.886 217.498 32.0617 218.008 31.013 221.036C29.9642 224.064 46.164 225.931 48.0238 226.63C49.8836 227.329 55.5958 229.896 56.6445 228.959C57.6933 228.022 60.2592 221.036 59.9097 220.337C59.5601 219.638 58.6302 217.659 57.6933 218.47C56.7564 219.281 54.0786 223.595 51.6315 222.197C49.1844 220.798 52.4495 217.421 52.2118 216.833C51.9741 216.246 51.2819 214.736 50.6946 214.966C50.1073 215.197 49.4151 216.945 48.716 217.183C48.0168 217.421 42.6542 216.603 41.144 216.833L41.1509 216.84Z" fill="#B0935E"/>
<path d="M124.464 225.581C124.464 225.581 124.814 222.784 125.632 222.204C126.45 221.623 127.96 221.854 128.198 222.435C128.435 223.015 129.715 223.134 130.295 222.085C130.875 221.036 131.575 218.938 130.526 218.589C129.477 218.239 130.057 214.624 131.106 214.512C132.155 214.4 138.566 218.708 138.447 219.288C138.329 219.868 133.903 230.245 133.085 230.707C132.267 231.168 118.521 232.105 118.053 231.525C117.584 230.944 118.871 225.7 124.464 225.581Z" fill="#B0935E"/>
<mask id="mask0_4355_32898" style="mask-type:luminance" maskUnits="userSpaceOnUse" x="42" y="96" width="14" height="17">
<path d="M45.6957 97.0582C43.8219 99.5196 41.9341 106.582 43.0738 109.211C44.2134 111.84 48.4014 112.358 49.4502 112.008C50.4989 111.659 54.2605 108.337 54.1696 103.792C54.2535 103.708 56.8824 101.96 55.484 99.4217C54.0857 96.8834 47.094 95.2262 45.6957 97.0582Z" fill="white"/>
</mask>
<g mask="url(#mask0_4355_32898)">
<path d="M45.6957 97.0582C43.8219 99.5196 41.9341 106.582 43.0738 109.211C44.2134 111.84 48.4014 112.358 49.4502 112.008C50.4989 111.659 54.2605 108.337 54.1696 103.792C54.2535 103.708 56.8824 101.96 55.484 99.4217C54.0857 96.8834 47.094 95.2262 45.6957 97.0582Z" fill="#EFB59B"/>
<path d="M47.4226 112.372C48.6951 112.708 50.485 111.169 50.0235 109.82C49.4572 108.155 47.094 107.428 45.6118 106.939C45.1853 106.799 45.0035 107.47 45.43 107.61C46.4368 107.946 47.4646 108.295 48.3315 108.925C48.8419 109.295 49.4362 109.764 49.3174 110.428C49.1985 111.092 48.3106 111.875 47.6044 111.694C47.1709 111.582 46.9821 112.253 47.4226 112.365V112.372Z" fill="#1C1110"/>
<path d="M50.1354 109.722C51.2261 108.694 51.9812 106.918 51.4149 105.428C50.8485 103.939 48.6741 103.065 47.2618 102.589C46.8353 102.443 46.6535 103.121 47.08 103.261C48.2336 103.652 49.8487 104.296 50.5689 105.337C51.4079 106.561 50.5828 108.33 49.632 109.225C49.3034 109.533 49.7998 110.029 50.1284 109.715L50.1354 109.722Z" fill="#1C1110"/>
<path d="M51.5407 106.253C53.3516 105.302 54.4073 103.617 53.6522 101.568C52.8971 99.5196 50.9464 98.6245 49.0167 98.156C48.5763 98.0512 48.3945 98.7224 48.8349 98.8273C50.3801 99.1979 52.0301 99.8832 52.8062 101.366C53.7501 103.177 52.8692 104.757 51.1842 105.638C50.7856 105.848 51.1422 106.449 51.5407 106.239V106.253Z" fill="#1C1110"/>
</g>
<path d="M55.8336 102.303C56.4349 102.184 57.8472 103.351 57.9311 104.135C58.015 104.918 56.1832 108.946 54.8688 109.204C53.5543 109.463 51.9882 108.771 52.0721 107.372C52.156 105.974 54.9527 102.477 55.8336 102.303Z" fill="#EFB59B"/>
<path d="M283.567 84.213C283.567 84.213 293.53 103.533 295.537 103.792L304.801 109.386C304.451 110.869 300.34 117.861 296.061 117.162C291.782 116.463 283.301 104.75 283.301 104.75L283.567 84.213Z" fill="#A3C2D1"/>
<g style="mix-blend-mode:multiply">
<path d="M287.965 110.568C285.364 107.596 283.301 104.757 283.301 104.757L283.567 84.22C283.567 84.22 287.517 91.8839 290.95 97.6247C288.72 101.527 287.671 106.093 287.965 110.575V110.568Z" fill="#BCBEC0"/>
</g>
<mask id="mask1_4355_32898" style="mask-type:luminance" maskUnits="userSpaceOnUse" x="293" y="96" width="14" height="17">
<path d="M304.018 97.0582C305.892 99.5196 307.772 106.589 306.64 109.211C305.507 111.833 301.305 112.358 300.256 112.008C299.207 111.659 295.453 108.337 295.537 103.792C295.453 103.701 292.831 101.953 294.229 99.4217C295.628 96.8904 302.619 95.2262 304.018 97.0652V97.0582Z" fill="white"/>
</mask>
<g mask="url(#mask1_4355_32898)">
<path d="M304.018 97.0582C305.892 99.5196 307.772 106.589 306.64 109.211C305.507 111.833 301.305 112.358 300.256 112.008C299.207 111.659 295.453 108.337 295.537 103.792C295.453 103.701 292.831 101.953 294.229 99.4217C295.628 96.8904 302.619 95.2262 304.018 97.0652V97.0582Z" fill="#EFB59B"/>
<path d="M302.109 111.701C301.466 111.868 300.76 111.274 300.473 110.75C300.033 109.952 300.872 109.288 301.459 108.876C302.312 108.281 303.305 107.946 304.283 107.624C304.71 107.484 304.528 106.806 304.102 106.946C302.619 107.442 300.263 108.162 299.69 109.827C299.229 111.176 301.018 112.715 302.291 112.379C302.724 112.267 302.543 111.589 302.109 111.701Z" fill="#1C1110"/>
<path d="M300.067 109.225C299.117 108.33 298.299 106.561 299.138 105.337C299.858 104.296 301.48 103.645 302.626 103.261C303.053 103.121 302.871 102.443 302.445 102.582C301.025 103.058 298.879 103.904 298.292 105.421C297.704 106.939 298.494 108.687 299.578 109.715C299.907 110.022 300.396 109.526 300.067 109.218V109.225Z" fill="#1C1110"/>
<path d="M298.522 105.652C296.837 104.771 295.956 103.191 296.907 101.38C297.683 99.8972 299.333 99.2119 300.879 98.8413C301.319 98.7364 301.137 98.0581 300.697 98.163C298.774 98.6245 296.788 99.5965 296.061 101.568C295.334 103.54 296.362 105.302 298.173 106.253C298.571 106.463 298.921 105.855 298.522 105.645V105.652Z" fill="#1C1110"/>
</g>
<path d="M293.88 102.303C293.279 102.184 291.866 103.352 291.782 104.135C291.698 104.918 293.53 108.946 294.838 109.204C296.145 109.463 297.725 108.771 297.634 107.372C297.543 105.974 294.754 102.477 293.88 102.303Z" fill="#EFB59B"/>
<path d="M296.579 213.456L291.566 216.372L293.782 222.197L299.256 222.085L301.123 218.938L296.579 213.456Z" fill="#A3C2D1"/>
<path d="M219.789 212.295L216.405 215.442L216.524 222.546L221.649 224.295L226.312 215.554L219.789 212.295Z" fill="#A3C2D1"/>
<path d="M247.168 143.069C247.168 143.069 238.31 175.004 237.38 177.801C236.45 180.598 233.653 182.696 232.486 184.563C231.318 186.43 216.873 209.736 216.873 211.365C216.873 212.995 225.732 219.756 227.361 218.127C243.442 205.072 263.487 160.788 263.487 160.788L247.175 143.076L247.168 143.069Z" fill="#1C1110"/>
<path d="M272.108 137.237L275.135 129.546L249.266 120.225C249.266 120.225 244.372 124.889 243.672 136.307C242.973 147.726 266.976 173.599 268.143 175.696C269.311 177.794 271.639 186.884 273.038 191.311C274.436 195.737 289.118 218.812 290.286 218.812C291.454 218.812 299.606 214.617 299.844 212.75C300.081 210.883 272.108 137.23 272.108 137.23V137.237Z" fill="#1C1110"/>
<path d="M270.01 39.2299C267.521 43.0618 264.648 56.4805 261.389 60.5572C258.131 64.6338 243.91 81.0663 250.203 90.3943C256.495 99.7224 278.519 93.6599 280.617 90.3943C282.714 87.1288 290.873 66.1512 290.873 66.1512C290.873 66.1512 299.844 57.6413 300.781 53.5646C301.718 49.488 305.206 49.0195 303.347 42.6073C301.487 36.1951 297.173 31.9996 289.363 33.0485C281.553 34.0974 272.814 34.9155 270.017 39.2229L270.01 39.2299Z" fill="#433E3E"/>
<path d="M283.763 83.8633L276.422 75.703C274.149 73.8989 271.702 71.2767 267.158 73.7241C262.613 76.1715 218.915 117.952 218.565 119.35C218.216 120.749 222.76 125.993 223.634 125.993C224.508 125.993 243.386 113.232 246.532 110.085C249.678 106.939 258.243 99.0721 258.243 99.0721C258.243 99.0721 258.768 104.491 257.894 106.764C257.02 109.036 248.455 117.952 248.455 120.225C248.455 122.497 262.963 136.657 275.722 130.713C280.092 129.14 281.316 109.736 281.316 109.736C281.316 109.736 286.21 110.085 287.608 106.065C289.007 102.044 284.986 85.4366 283.763 83.8633Z" fill="#A3C2D1"/>
<path d="M279.945 74.6052L277.079 78.4581L285.049 88.9259L288.503 82.3109L279.945 74.6052Z" fill="#EEE5C4"/>
<mask id="mask2_4355_32898" style="mask-type:luminance" maskUnits="userSpaceOnUse" x="273" y="39" width="32" height="53">
<path d="M297.746 39.6914C297.746 39.6914 299.375 41.3207 300.074 45.1666C300.774 49.0125 299.956 53.6765 300.655 54.8373C301.354 55.998 304.5 56.2358 304.731 57.1658C304.962 58.0958 302.983 60.4313 302.983 60.4313C302.983 60.4313 302.752 70.9201 300.655 73.3675C299.138 74.6471 290.985 71.2697 289.237 72.3186C287.489 73.3675 283.525 82.6886 283.525 82.6886C283.525 82.6886 286.322 90.73 285.273 91.0796C284.224 91.4292 276.415 76.2764 276.415 75.696C276.415 75.1156 280.141 69.172 280.141 69.172C280.141 69.172 270.821 68.4727 273.499 61.8298C276.177 55.1869 278.974 60.0817 280.491 62.2983C282.008 64.5149 285.266 68.4727 288.531 67.4238C289.461 66.8435 286.553 68.8224 286.084 64.2772C285.616 59.732 286.315 57.865 289 53.9073C291.684 49.9495 298.208 43.6492 298.208 39.4537" fill="white"/>
</mask>
<g mask="url(#mask2_4355_32898)">
<path d="M297.746 39.6914C297.746 39.6914 299.375 41.3207 300.074 45.1666C300.774 49.0125 299.956 53.6765 300.655 54.8373C301.354 55.998 304.5 56.2358 304.731 57.1658C304.962 58.0958 302.983 60.4313 302.983 60.4313C302.983 60.4313 302.752 70.9201 300.655 73.3675C299.138 74.6471 290.985 71.2697 289.237 72.3186C287.489 73.3675 283.525 82.6886 283.525 82.6886C283.525 82.6886 286.322 90.73 285.273 91.0796C284.224 91.4292 276.415 76.2764 276.415 75.696C276.415 75.1156 280.141 69.172 280.141 69.172C280.141 69.172 270.821 68.4727 273.499 61.8298C276.177 55.1869 278.974 60.0817 280.491 62.2983C282.008 64.5149 285.266 68.4727 288.531 67.4238C289.461 66.8435 286.553 68.8224 286.084 64.2772C285.616 59.732 286.315 57.865 289 53.9073C291.684 49.9495 298.208 43.6492 298.208 39.4537" fill="#EFB59B"/>
<path d="M294.02 55.7813C295.082 56.2288 296.558 56.9001 297.69 56.2917C298.683 55.7603 298.676 54.5156 298.103 53.6765C297.851 53.3059 297.243 53.6555 297.501 54.0331C298.117 54.9282 297.655 55.8442 296.558 55.8092C295.803 55.7883 295.061 55.4596 294.376 55.1729C293.964 54.9981 293.614 55.6065 294.027 55.7813H294.02Z" fill="#1C1110"/>
<path d="M290.887 50.1592C291.712 49.6907 292.614 49.1523 293.6 49.1383C294.474 49.1313 295.236 49.5649 295.998 49.9145C297.061 50.404 298.138 50.7116 299.249 50.1942C299.655 50.0054 299.298 49.404 298.893 49.5928C297.313 50.3271 295.803 48.7817 294.299 48.502C292.936 48.2433 291.684 48.9006 290.531 49.5509C290.139 49.7746 290.496 50.376 290.887 50.1522V50.1592Z" fill="#1C1110"/>
<path d="M298.536 67.4938C300.2 67.0882 301.878 66.6966 303.598 67.0043C304.039 67.0812 304.227 66.4099 303.78 66.333C301.934 66.0044 300.151 66.382 298.354 66.8225C297.914 66.9274 298.096 67.6057 298.536 67.5008V67.4938Z" fill="#1C1110"/>
<path d="M291.978 64.9834C293.492 64.9834 294.719 63.7562 294.719 62.2424C294.719 60.7285 293.492 59.5013 291.978 59.5013C290.464 59.5013 289.237 60.7285 289.237 62.2424C289.237 63.7562 290.464 64.9834 291.978 64.9834Z" fill="#DB9C94"/>
<path d="M272.807 62.4172C274.303 61.648 275.806 61.4662 277.247 62.4381C278.435 63.2423 279.596 64.2842 280.309 65.5358C280.533 65.9274 281.134 65.5708 280.91 65.1792C280.064 63.7038 278.617 62.3612 277.128 61.5361C275.638 60.711 273.933 61.0396 272.443 61.8088C272.045 62.0116 272.394 62.6199 272.8 62.4102L272.807 62.4172Z" fill="#1C1110"/>
<path d="M278.365 62.9346C277.135 63.1304 276.156 64.501 275.694 65.5638C275.52 65.9694 276.121 66.326 276.303 65.9135C276.694 65.0114 277.491 63.7737 278.547 63.6129C278.994 63.543 278.806 62.8717 278.365 62.9346Z" fill="#1C1110"/>
</g>
<path d="M304.738 57.1728C304.521 56.3057 301.801 56.047 300.851 55.082C299.865 57.2008 302.99 60.4383 302.99 60.4383C302.99 60.4383 304.969 58.1098 304.738 57.1728Z" fill="#E0ADA6"/>
<path d="M278.17 72.5004L274.149 75.1226L277.995 87.7092L283.525 82.6956L278.17 72.5004Z" fill="#EEE5C4"/>
<g style="mix-blend-mode:multiply">
<path d="M265.41 93.4781L258.243 99.0721C258.243 99.0721 258.768 104.491 257.894 106.764C257.425 107.988 254.712 111.148 252.314 114.162C270.269 106.093 265.41 93.4781 265.41 93.4781Z" fill="#BCBEC0"/>
</g>
<path d="M246.322 145.95C250.287 153.684 255.593 160.648 261.201 167.249C261.347 167.424 261.592 167.172 261.445 166.998C255.852 160.418 250.573 153.474 246.623 145.768C246.518 145.566 246.217 145.747 246.322 145.943V145.95Z" fill="#A3C2D1"/>
<path d="M211.511 216.722C210.832 217.4 216.754 230.588 217.223 230.937C217.691 231.287 232.255 231.518 232.835 230.588C233.416 229.658 233.066 224.644 230.969 224.295C228.871 223.945 225.494 224.413 225.494 224.413C225.494 224.413 226.424 220.798 225.375 220.449C224.326 220.099 220.712 221.498 219.432 220.798C218.153 220.099 217.915 218.582 217.915 217.882C217.915 217.183 218.964 216.134 218.614 215.554C218.265 214.973 216.747 214.155 216.048 213.925C215.349 213.694 211.972 216.253 211.504 216.722H211.511Z" fill="#C93D43"/>
<path d="M290.517 221.616C290.517 220.791 292.964 219.638 292.964 219.638C292.964 219.638 294.243 222.665 297.39 221.036C300.536 219.407 299.837 215.442 300.655 214.862C301.473 214.281 305.549 214.862 305.549 214.862C305.549 214.862 318.015 212.065 319.414 214.981C320.812 217.896 303.333 226.518 301.585 226.637C299.837 226.756 297.04 224.658 296.809 225.357C296.579 226.057 299.026 228.504 298.208 229.322C297.39 230.14 295.061 230.49 295.061 230.49C295.061 230.49 290.517 222.567 290.517 221.63V221.616Z" fill="#C93D43"/>
<path d="M179.803 145.531L169.099 147.754L168.176 151.691L171.63 154.572L177.181 154.53L179.67 152.257L180.852 148.411L179.803 145.531Z" fill="#ECC19C"/>
<path d="M191.556 124.329C190.508 117.686 184.565 115.239 181.943 114.106C174.518 110.26 166.295 115.33 166.037 116.47C165.953 116.826 166.456 116.826 167.183 116.665C164.289 118.029 160.688 120.462 158.961 124.595C155.815 132.112 162.023 138.055 162.023 138.055L175.308 142.335C175.308 142.335 187.277 138.839 188.941 137.79C190.605 136.741 192.612 130.972 191.563 124.329H191.556Z" fill="#1C1110"/>
<path d="M185.18 180.36L162.107 180.885C162.107 180.885 151.27 227.385 152.319 228.085C153.368 228.784 158.786 228.609 159.486 230.007L161.233 233.504C161.233 233.504 162.807 234.378 162.981 233.853C163.156 233.329 172.071 189.8 172.945 189.8C173.819 189.8 174.692 189.451 175.042 190.15C175.392 190.849 181.684 233.679 181.684 233.679L184.306 234.028C184.306 234.028 186.753 230.707 187.452 230.007C188.151 229.308 192.696 229.133 192.696 228.085C192.696 227.036 185.704 181.06 185.18 180.36Z" fill="#B0935E"/>
<path d="M185.418 161.012C185.418 161.012 179.23 150.873 176.909 152.852C174.588 154.831 172.238 153.901 171.308 152.852L164.547 156.467L162.8 161.012C162.8 161.012 160.234 181.64 161.052 181.759C161.87 181.878 186.222 182.808 186.802 181.759C187.382 180.71 185.411 161.012 185.411 161.012H185.418Z" fill="#A3C2D1"/>
<path d="M203.708 127.853C204.092 126.986 210.958 123.406 212.601 123.406C214.244 123.406 214.727 124.182 215.307 123.987C215.887 123.791 220.817 119.057 220.817 119.057L224.103 122.728C224.103 122.728 219.174 127.175 219.076 127.658C218.978 128.14 219.076 132.105 218.789 133.168C218.502 134.231 215.601 135.678 215.118 135.098C214.636 134.517 213.475 130.846 212.699 130.846C211.923 130.846 209.413 132.587 209.217 133.846C209.022 135.105 209.868 139.279 209.315 139.454C208.763 139.629 208.029 139.37 207.574 138.678C206.784 137.475 205.694 135.657 206.316 134.426C206.316 134.426 205.155 134.14 204.959 133.559C204.764 132.979 204.862 132.301 204.862 132.301C204.862 132.301 203.799 131.818 203.799 131.14C203.799 130.462 204.183 129.783 204.183 129.783C204.183 129.783 203.316 128.72 203.701 127.853H203.708Z" fill="#EFB59B"/>
<path d="M214.321 138.755C215.454 136.797 216.768 134.328 215.37 131.993C213.972 129.657 212.804 129.196 211.644 129.664C210.483 130.133 208.847 132.461 208.728 133.51C208.609 134.559 209.896 139.335 209.315 139.454C208.735 139.573 208.071 139.377 207.798 138.93C207.379 138.251 206.204 136.147 206.281 136.188C205.589 136.447 194.759 143.216 188.921 145.16C183.082 147.104 180.3 146.44 179.013 148.307C177.727 150.174 177.965 151.684 176.916 152.852L185.425 161.012C185.425 161.012 193.584 159.033 194.045 158.334C194.507 157.635 193.696 153.208 193.696 153.208C193.696 153.208 206.861 141.901 207.91 141.552C208.959 141.202 213.035 140.971 214.321 138.755Z" fill="#ECC19C"/>
<path d="M194.045 158.334C193.577 159.033 185.425 161.012 185.425 161.012L176.916 152.852C177.965 151.684 177.734 150.174 179.013 148.307C180.265 146.488 183.18 146.992 188.508 145.286L191.249 155.299L193.696 153.201C193.696 153.201 194.514 157.628 194.045 158.327V158.334Z" fill="#C93D43"/>
<path d="M191.249 155.306L193.696 153.208C193.696 153.208 194.514 157.635 194.045 158.334C192.997 158.977 191.773 156.642 191.249 155.306Z" fill="#912C30"/>
<mask id="mask3_4355_32898" style="mask-type:luminance" maskUnits="userSpaceOnUse" x="176" y="129" width="40" height="33">
<path d="M214.321 138.755C215.454 136.797 216.768 134.328 215.37 131.993C213.972 129.657 212.804 129.196 211.644 129.664C210.483 130.133 208.847 132.461 208.728 133.51C208.609 134.559 209.896 139.335 209.315 139.454C208.735 139.573 207.7 139.188 207.574 138.678C207.449 138.167 207.448 135.72 206.519 136.07C205.826 136.328 194.759 143.216 188.921 145.16C183.082 147.104 180.3 146.44 179.013 148.307C177.727 150.174 177.965 151.684 176.916 152.852L185.425 161.012C185.425 161.012 193.584 159.033 194.045 158.334C194.507 157.635 193.696 153.208 193.696 153.208C193.696 153.208 206.861 141.901 207.91 141.552C208.959 141.202 213.035 140.971 214.321 138.755Z" fill="white"/>
</mask>
<g mask="url(#mask3_4355_32898)">
<path d="M213.259 137.573C213.769 134.175 212.937 130.734 210.895 127.972C210.763 127.79 210.462 127.972 210.595 128.147C212.573 130.832 213.419 134.175 212.923 137.482C212.888 137.706 213.224 137.797 213.259 137.573Z" fill="#1C1110"/>
<path d="M214.72 136.643C215.349 133.517 214.685 130.294 212.86 127.679C212.734 127.497 212.427 127.672 212.559 127.853C214.328 130.392 214.992 133.51 214.384 136.552C214.342 136.769 214.678 136.867 214.72 136.643Z" fill="#1C1110"/>
<path d="M211.385 137.475C211.664 134.706 211.021 131.958 209.539 129.595C209.42 129.406 209.119 129.581 209.238 129.769C210.686 132.084 211.308 134.755 211.035 137.468C211.014 137.692 211.364 137.692 211.385 137.468V137.475Z" fill="#1C1110"/>
</g>
<path d="M133.903 138.755C132.77 136.797 131.456 134.329 132.854 131.993C134.252 129.657 135.42 129.196 136.581 129.664C137.741 130.133 139.377 132.462 139.496 133.51C139.615 134.559 138.329 139.335 138.909 139.454C139.489 139.573 140.153 139.377 140.426 138.93C140.846 138.251 142.02 136.147 141.943 136.189C142.635 136.447 153.466 143.216 159.304 145.16C165.142 147.104 167.924 146.44 169.211 148.307C170.497 150.174 170.26 151.684 171.308 152.852L162.8 161.012C162.8 161.012 154.64 159.033 154.179 158.334C153.717 157.635 154.528 153.208 154.528 153.208C154.528 153.208 141.363 141.901 140.314 141.552C139.265 141.202 135.189 140.971 133.903 138.755Z" fill="#ECC19C"/>
<path d="M154.179 158.334C154.647 159.033 162.799 161.012 162.799 161.012L171.308 152.852C170.26 151.684 170.49 150.174 169.211 148.307C167.959 146.489 165.044 146.992 159.716 145.286L156.975 155.299L154.528 153.201C154.528 153.201 153.71 157.628 154.179 158.327V158.334Z" fill="#C93D43"/>
<path d="M156.975 155.306L154.528 153.208C154.528 153.208 153.71 157.635 154.179 158.334C155.227 158.977 156.451 156.642 156.975 155.306Z" fill="#912C30"/>
<mask id="mask4_4355_32898" style="mask-type:luminance" maskUnits="userSpaceOnUse" x="132" y="129" width="40" height="33">
<path d="M133.903 138.755C132.77 136.797 131.456 134.329 132.854 131.993C134.252 129.657 135.42 129.196 136.581 129.664C137.741 130.133 139.377 132.462 139.496 133.51C139.615 134.559 138.329 139.335 138.909 139.454C139.489 139.573 140.524 139.188 140.65 138.678C140.776 138.167 140.776 135.72 141.706 136.07C142.398 136.328 153.466 143.216 159.304 145.16C165.142 147.104 167.924 146.44 169.211 148.307C170.497 150.174 170.26 151.684 171.308 152.852L162.8 161.012C162.8 161.012 154.64 159.033 154.179 158.334C153.717 157.635 154.528 153.208 154.528 153.208C154.528 153.208 141.363 141.901 140.314 141.552C139.265 141.202 135.189 140.971 133.903 138.755Z" fill="white"/>
</mask>
<g mask="url(#mask4_4355_32898)">
<path d="M135.301 137.482C134.805 134.175 135.644 130.832 137.63 128.147C137.762 127.965 137.462 127.79 137.329 127.972C135.294 130.741 134.455 134.182 134.966 137.573C135.001 137.797 135.336 137.706 135.301 137.482Z" fill="#1C1110"/>
<path d="M133.84 136.552C133.232 133.517 133.889 130.392 135.665 127.853C135.791 127.672 135.49 127.497 135.364 127.679C133.539 130.294 132.882 133.517 133.504 136.643C133.546 136.867 133.889 136.776 133.84 136.552Z" fill="#1C1110"/>
<path d="M137.189 137.475C136.916 134.762 137.539 132.091 138.986 129.769C139.105 129.581 138.804 129.406 138.685 129.595C137.21 131.958 136.567 134.699 136.846 137.468C136.867 137.692 137.217 137.692 137.196 137.468L137.189 137.475Z" fill="#1C1110"/>
</g>
<g style="mix-blend-mode:multiply">
<path d="M180.831 147.104C180.831 147.104 180.768 147.125 180.74 147.132C180.635 147.167 180.53 147.209 180.433 147.251L179.803 145.531L169.099 147.761L169.022 148.076C169.022 148.076 168.98 148.02 168.952 147.992C168.917 147.957 168.882 147.929 168.847 147.901C168.784 147.838 168.721 147.775 168.652 147.726C168.61 147.691 168.568 147.67 168.519 147.635C168.449 147.586 168.379 147.537 168.309 147.495C168.267 147.468 168.218 147.447 168.169 147.426C168.085 147.384 168.008 147.342 167.917 147.3C167.875 147.279 167.834 147.265 167.792 147.251C167.694 147.209 167.589 147.167 167.484 147.132C167.456 147.125 167.421 147.111 167.393 147.104C166.687 146.88 165.813 146.719 164.764 146.524C165.296 149.216 166.778 151.698 168.812 153.551C169.665 154.327 170.623 155.005 171.707 155.404C174.301 156.348 177.3 155.488 179.447 153.754C181.593 152.02 183.012 149.551 184.096 147.013C184.194 146.789 184.278 146.565 184.369 146.342C182.901 146.635 181.719 146.817 180.817 147.104H180.831Z" fill="#BCBEC0"/>
</g>
<mask id="mask5_4355_32898" style="mask-type:luminance" maskUnits="userSpaceOnUse" x="181" y="135" width="10" height="9">
<path d="M186.285 137.132C186.774 136.37 187.655 135.874 188.557 135.86C188.956 135.86 189.382 135.951 189.655 136.237C189.955 136.545 190.018 137.007 190.032 137.44C190.081 139.125 189.473 140.845 188.298 142.055C187.124 143.265 185.376 143.929 183.705 143.698C182.971 143.601 182.153 143.223 181.992 142.496L186.285 137.132Z" fill="white"/>
</mask>
<g mask="url(#mask5_4355_32898)">
<path d="M186.285 137.132C186.774 136.37 187.655 135.874 188.557 135.86C188.956 135.86 189.382 135.951 189.655 136.237C189.955 136.545 190.018 137.007 190.032 137.44C190.081 139.125 189.473 140.845 188.298 142.055C187.124 143.265 185.376 143.929 183.705 143.698C182.971 143.601 182.153 143.223 181.992 142.496L186.285 137.132Z" fill="#ECC19C"/>
<path d="M189.934 140.615C190.375 139.594 190.291 138.055 188.816 138.146C188.019 138.195 187.319 138.811 186.732 139.293C185.739 140.111 184.865 141.055 184.005 142.006C183.887 142.139 184.082 142.335 184.201 142.202C184.823 141.517 185.453 140.832 186.131 140.195C186.494 139.86 186.865 139.538 187.257 139.237C187.466 139.069 187.683 138.909 187.907 138.769C188.935 138.034 189.529 138.601 189.697 140.468C189.627 140.629 189.864 140.776 189.941 140.608L189.934 140.615Z" fill="#1C1110"/>
<path d="M186.404 140.006C187.054 140.349 186.809 141.566 186.557 142.062C186.473 142.223 186.718 142.363 186.802 142.202C187.131 141.545 187.354 140.195 186.55 139.769C186.39 139.685 186.25 139.922 186.411 140.013L186.404 140.006Z" fill="#1C1110"/>
</g>
<mask id="mask6_4355_32898" style="mask-type:luminance" maskUnits="userSpaceOnUse" x="159" y="135" width="9" height="9">
<path d="M163.639 137.132C163.149 136.37 162.268 135.874 161.366 135.86C160.968 135.86 160.541 135.951 160.269 136.237C159.968 136.545 159.905 137.007 159.891 137.44C159.842 139.125 160.45 140.845 161.625 142.055C162.8 143.265 164.548 143.929 166.219 143.698C166.953 143.601 167.771 143.223 167.931 142.496L163.639 137.132Z" fill="white"/>
</mask>
<g mask="url(#mask6_4355_32898)">
<path d="M163.639 137.132C163.149 136.37 162.268 135.874 161.366 135.86C160.968 135.86 160.541 135.951 160.269 136.237C159.968 136.545 159.905 137.007 159.891 137.44C159.842 139.125 160.45 140.845 161.625 142.055C162.8 143.265 164.548 143.929 166.219 143.698C166.953 143.601 167.771 143.223 167.931 142.496L163.639 137.132Z" fill="#ECC19C"/>
<path d="M160.227 140.475C160.394 138.608 160.989 138.041 162.016 138.776L162.338 138.992C162.855 139.335 163.331 139.776 163.785 140.202C164.464 140.838 165.093 141.524 165.715 142.209C165.834 142.342 166.037 142.146 165.911 142.013C165.1 141.111 164.275 140.223 163.345 139.433C162.723 138.909 161.961 138.202 161.101 138.146C159.625 138.055 159.541 139.594 159.982 140.615C160.052 140.783 160.297 140.636 160.227 140.475Z" fill="#1C1110"/>
<path d="M163.373 139.769C162.569 140.195 162.792 141.552 163.121 142.202C163.205 142.363 163.443 142.223 163.366 142.062C163.114 141.559 162.869 140.356 163.52 140.006C163.68 139.922 163.541 139.678 163.38 139.762L163.373 139.769Z" fill="#1C1110"/>
</g>
<path d="M179.936 129.434L184.25 136.657C184.25 136.657 177.839 134.21 177.028 124.301C177.028 124.301 169.512 133.398 163.058 135.161C163.639 138.223 165.128 145.705 165.96 146.908C167.009 148.425 172.483 150.174 173.651 150.404C174.818 150.635 182.16 148.425 182.971 147.258C183.789 146.09 186.348 135.37 186.348 135.37C186.348 135.37 181.684 132.343 179.936 129.427V129.434Z" fill="#ECC19C"/>
<path d="M173.769 133.902C173.916 134.699 174.063 135.552 174.014 136.37C173.958 137.286 173.294 137.587 173 138.335C172.623 139.3 173.028 140.286 173.616 141.069C173.749 141.244 174.049 141.069 173.916 140.894C173.399 140.209 172.993 139.37 173.329 138.503C173.525 138 173.993 137.741 174.217 137.272C174.664 136.328 174.294 134.804 174.112 133.825C174.07 133.601 173.735 133.692 173.776 133.916L173.769 133.902Z" fill="#1C1110"/>
<path d="M167.078 134.328C168.162 133.21 169.672 132.741 171.197 133.063C171.413 133.112 171.511 132.769 171.287 132.727C169.644 132.378 168.001 132.874 166.834 134.084C166.68 134.245 166.925 134.489 167.085 134.328H167.078Z" fill="#1C1110"/>
<path d="M182.306 133.58C181.076 132.287 179.272 131.804 177.566 132.301C177.349 132.364 177.44 132.699 177.657 132.636C179.258 132.168 180.915 132.615 182.062 133.825C182.215 133.986 182.46 133.741 182.306 133.573V133.58Z" fill="#1C1110"/>
<path d="M175.224 143.559C175.378 143.524 175.531 143.489 175.685 143.44C175.252 143.048 174.755 142.768 174.301 142.803C173.86 142.838 173.413 143.174 173.042 143.615C173.294 143.691 173.553 143.733 173.804 143.74C174.294 143.754 174.762 143.664 175.224 143.559Z" fill="white"/>
<path d="M172.231 145.398C172.245 145.572 172.315 145.698 172.455 145.747C173.245 145.999 176.566 145.922 176.832 145.447C176.874 145.37 176.867 145.251 176.832 145.104C176.314 144.915 175.776 144.796 175.238 144.754C174.175 144.677 173.119 144.908 172.231 145.398Z" fill="#FA895D"/>
<path d="M175.224 143.559C174.762 143.663 174.287 143.754 173.804 143.74C173.553 143.733 173.294 143.691 173.042 143.615C172.546 144.202 172.203 144.957 172.231 145.405C173.119 144.915 174.168 144.677 175.238 144.761C175.776 144.803 176.314 144.922 176.832 145.111C176.713 144.663 176.252 143.957 175.685 143.447C175.538 143.496 175.378 143.531 175.224 143.566V143.559Z" fill="#290300"/>
<path d="M169.057 140.118C170.733 140.118 172.091 138.76 172.091 137.084C172.091 135.407 170.733 134.049 169.057 134.049C167.381 134.049 166.023 135.407 166.023 137.084C166.023 138.76 167.381 140.118 169.057 140.118Z" fill="#1C1110"/>
<mask id="mask7_4355_32898" style="mask-type:luminance" maskUnits="userSpaceOnUse" x="166" y="134" width="7" height="7">
<path d="M169.211 140.524C170.887 140.524 172.245 139.165 172.245 137.489C172.245 135.813 170.887 134.454 169.211 134.454C167.535 134.454 166.177 135.813 166.177 137.489C166.177 139.165 167.535 140.524 169.211 140.524Z" fill="white"/>
</mask>
<g mask="url(#mask7_4355_32898)">
<path d="M169.211 140.524C170.887 140.524 172.245 139.165 172.245 137.489C172.245 135.813 170.887 134.454 169.211 134.454C167.535 134.454 166.177 135.813 166.177 137.489C166.177 139.165 167.535 140.524 169.211 140.524Z" fill="#EFEFEF"/>
<path d="M169.337 140.188C170.82 140.188 172.022 138.986 172.022 137.503C172.022 136.02 170.82 134.818 169.337 134.818C167.854 134.818 166.652 136.02 166.652 137.503C166.652 138.986 167.854 140.188 169.337 140.188Z" fill="#1C1110"/>
</g>
<path d="M180.006 140.118C181.682 140.118 183.04 138.76 183.04 137.084C183.04 135.407 181.682 134.049 180.006 134.049C178.33 134.049 176.972 135.407 176.972 137.084C176.972 138.76 178.33 140.118 180.006 140.118Z" fill="#1C1110"/>
<mask id="mask8_4355_32898" style="mask-type:luminance" maskUnits="userSpaceOnUse" x="176" y="134" width="7" height="7">
<path d="M179.852 140.524C181.528 140.524 182.887 139.165 182.887 137.489C182.887 135.813 181.528 134.454 179.852 134.454C178.176 134.454 176.818 135.813 176.818 137.489C176.818 139.165 178.176 140.524 179.852 140.524Z" fill="white"/>
</mask>
<g mask="url(#mask8_4355_32898)">
<path d="M179.852 140.524C181.528 140.524 182.887 139.165 182.887 137.489C182.887 135.813 181.528 134.454 179.852 134.454C178.176 134.454 176.818 135.813 176.818 137.489C176.818 139.165 178.176 140.524 179.852 140.524Z" fill="#EFEFEF"/>
<path d="M179.726 140.188C181.209 140.188 182.411 138.986 182.411 137.503C182.411 136.02 181.209 134.818 179.726 134.818C178.244 134.818 177.042 136.02 177.042 137.503C177.042 138.986 178.244 140.188 179.726 140.188Z" fill="#1C1110"/>
</g>
<path d="M175.916 108.47C177.047 108.47 177.965 107.553 177.965 106.421C177.965 105.29 177.047 104.372 175.916 104.372C174.785 104.372 173.867 105.29 173.867 106.421C173.867 107.553 174.785 108.47 175.916 108.47Z" fill="#C93D43"/>
<path d="M175.839 102.54C175.839 102.54 171.322 86.2408 175.727 85.7303C180.132 85.2198 175.839 102.54 175.839 102.54Z" fill="#C93D43"/>
<g clip-path="url(#clip1_4355_32898)">
<path d="M325.212 17.1861L324.634 18.9186L324.666 18.9275L325.244 17.195L325.212 17.1861Z" fill="white"/>
<path d="M325.244 17.1865L325.212 17.1964L325.863 18.9289L325.895 18.919L325.244 17.1865Z" fill="white"/>
<path d="M325.245 17.1912H325.211V18.9237H325.245V17.1912Z" fill="white"/>
<path d="M325.995 18.8929C325.995 19.1285 325.668 19.3196 325.265 19.3196C324.861 19.3196 324.535 19.1285 324.535 18.8929H325.995Z" fill="white"/>
<path opacity="0.11" d="M324.535 18.9161C324.534 18.9047 324.534 18.9047 324.534 18.8929H325.995C325.989 19.0294 325.921 19.0861 325.869 19.1327L324.535 18.9164V18.9161Z" fill="white"/>
<path d="M325.228 17.2068C325.184 17.2068 325.149 17.1747 325.149 17.1349C325.149 17.0952 325.184 17.063 325.228 17.063C325.272 17.063 325.307 17.0952 325.307 17.1349C325.307 17.1747 325.272 17.2068 325.228 17.2068ZM325.228 17.0938C325.203 17.0938 325.183 17.1121 325.183 17.1349C325.183 17.1577 325.203 17.176 325.228 17.176C325.253 17.176 325.273 17.1577 325.273 17.1349C325.273 17.1121 325.253 17.0938 325.228 17.0938Z" fill="white"/>
<path d="M325.701 16.9017C325.694 16.8875 325.678 16.8654 325.661 16.8675C325.649 16.8689 325.64 16.8779 325.635 16.8875C325.63 16.8972 325.628 16.9079 325.624 16.9179C325.615 16.9373 325.598 16.9539 325.577 16.9629C325.576 16.9635 325.574 16.9642 325.573 16.9649C325.435 16.9867 325.015 17.0416 324.306 16.8675C324.207 16.8433 324.076 16.8109 323.871 16.7784C323.732 16.7563 323.444 16.7169 323.075 16.7138C323.035 16.7134 323.001 16.7138 322.979 16.7138C322.979 16.7708 322.979 16.8278 322.979 16.8851C323.204 16.8858 323.543 16.8979 323.954 16.9566C324.125 16.9812 324.214 16.9946 324.329 17.0185C325.017 17.1632 325.582 17.0665 325.582 17.0665C325.598 17.0648 325.624 17.0596 325.65 17.0423C325.698 17.0091 325.722 16.9452 325.702 16.9021L325.701 16.9017Z" fill="white"/>
<path d="M320.751 17.1873L320.719 17.1962L321.296 18.9288L321.329 18.9199L320.751 17.1873Z" fill="white"/>
<path d="M320.719 17.1859L320.068 18.9185L320.1 18.9284L320.751 17.1959L320.719 17.1859Z" fill="white"/>
<path d="M320.752 17.1912H320.718V18.9237H320.752V17.1912Z" fill="white"/>
<path d="M319.968 18.8929C319.968 19.1285 320.295 19.3196 320.698 19.3196C321.102 19.3196 321.428 19.1285 321.428 18.8929H319.968Z" fill="white"/>
<path opacity="0.11" d="M321.428 18.9161C321.429 18.9047 321.428 18.9047 321.428 18.8929H319.968C319.974 19.0294 320.042 19.0861 320.094 19.1327L321.428 18.9164V18.9161Z" fill="white"/>
<path d="M320.735 17.2068C320.779 17.2068 320.814 17.1747 320.814 17.1349C320.814 17.0952 320.779 17.063 320.735 17.063C320.691 17.063 320.656 17.0952 320.656 17.1349C320.656 17.1747 320.691 17.2068 320.735 17.2068ZM320.735 17.0938C320.76 17.0938 320.78 17.1121 320.78 17.1349C320.78 17.1577 320.76 17.176 320.735 17.176C320.71 17.176 320.69 17.1577 320.69 17.1349C320.69 17.1121 320.71 17.0938 320.735 17.0938Z" fill="white"/>
<path d="M320.262 16.9017C320.267 16.8844 320.282 16.8651 320.302 16.8675C320.314 16.8689 320.323 16.8779 320.328 16.8875C320.333 16.8972 320.335 16.9079 320.339 16.9179C320.348 16.9373 320.365 16.9539 320.385 16.9629C320.387 16.9635 320.389 16.9642 320.39 16.9649C320.528 16.9867 320.948 17.0416 321.657 16.8675C321.756 16.8433 321.887 16.8109 322.092 16.7784C322.231 16.7563 322.519 16.7169 322.888 16.7138C322.928 16.7134 322.962 16.7138 322.984 16.7138C322.982 16.7708 322.981 16.8278 322.979 16.8851C322.674 16.8793 322.271 16.8958 321.799 16.986C321.709 17.0033 321.709 17.0029 321.635 17.0185C320.946 17.1632 320.381 17.0665 320.381 17.0665C320.381 17.0665 320.333 17.0551 320.314 17.0423C320.307 17.0378 320.301 17.0326 320.295 17.0271C320.261 16.9943 320.249 16.9452 320.262 16.9021L320.262 16.9017Z" fill="white"/>
</g>
<rect x="317" y="11" width="16" height="16" rx="2" fill="#EABF4E"/>
<path d="M320.198 16.6305C320.253 16.6681 320.301 16.6992 320.347 16.7331C320.752 17.0329 321.213 17.1352 321.725 17.0461C321.773 17.0378 321.819 17.0205 321.864 17.0029C321.902 16.988 321.945 16.9697 321.942 16.9244C321.939 16.8802 321.898 16.8623 321.856 16.8529C321.747 16.8284 321.636 16.8053 321.526 16.7828C321.158 16.7075 320.791 16.6305 320.451 16.4712C319.929 16.2266 319.588 15.8514 319.437 15.335C319.42 15.278 319.413 15.2206 319.421 15.1619C319.431 15.0866 319.473 15.0666 319.545 15.1042C319.647 15.1578 319.729 15.2348 319.818 15.3029C320.327 15.6915 320.91 15.9188 321.576 15.9578C321.622 15.9606 321.701 15.9914 321.71 15.9288C321.717 15.8805 321.634 15.8874 321.591 15.8753C320.986 15.7064 320.399 15.4998 319.891 15.1484C319.283 14.729 318.96 14.1808 319.015 13.4726C319.023 13.3662 319.038 13.2608 319.084 13.1617C319.161 12.9941 319.301 12.9544 319.464 13.0605C319.635 13.1707 319.767 13.3171 319.901 13.4612C320.299 13.891 320.701 14.3176 321.198 14.66C321.807 15.08 322.484 15.3716 323.227 15.5357C323.402 15.5744 323.579 15.6107 323.757 15.6397C323.852 15.6549 323.865 15.6891 323.834 15.7654C323.71 16.066 323.669 16.3765 323.714 16.6951C323.744 16.9117 323.881 17.0599 324.059 17.0785C324.23 17.0965 324.408 16.9732 324.477 16.7614C324.545 16.5517 324.583 16.3341 324.646 16.1226C324.75 15.7661 324.891 15.6884 325.294 15.7585C325.394 15.7758 325.489 15.8103 325.586 15.8394C325.618 15.849 325.657 15.8611 325.664 15.8932C325.69 16 325.787 16.0231 325.88 16.0518C325.949 16.0732 326.013 16.1033 326.034 16.1755C326.042 16.2031 326.037 16.2311 326.01 16.2498C325.982 16.2681 325.961 16.2511 325.939 16.2366C325.792 16.1361 325.636 16.1966 325.484 16.2204C325.452 16.2252 325.437 16.2567 325.437 16.2853C325.44 16.5092 325.452 16.7331 325.609 16.9213C325.7 17.0295 325.814 17.11 325.977 17.0727C326.14 17.0353 326.237 16.932 326.269 16.788C326.347 16.4432 326.296 16.1071 326.171 15.7772C326.127 15.6597 326.129 15.6583 326.27 15.6369C327.166 15.5001 327.99 15.2041 328.726 14.7163C329.196 14.405 329.583 14.0167 329.957 13.616C330.095 13.4671 330.231 13.3151 330.385 13.179C330.423 13.1455 330.461 13.1119 330.503 13.0833C330.703 12.9461 330.872 12.999 330.938 13.2177C331.01 13.4571 331 13.6989 330.961 13.9414C330.88 14.434 330.581 14.8057 330.167 15.1097C329.649 15.4891 329.041 15.6994 328.415 15.8767C328.404 15.8798 328.392 15.8801 328.382 15.885C328.349 15.9008 328.282 15.8901 328.292 15.9409C328.299 15.9779 328.357 15.9661 328.393 15.9641C329.014 15.9319 329.568 15.7381 330.056 15.3875C330.168 15.3067 330.278 15.2231 330.391 15.1429C330.431 15.1146 330.471 15.0669 330.529 15.0983C330.586 15.1298 330.576 15.1882 330.567 15.2386C330.487 15.6666 330.253 16.0097 329.877 16.2767C329.44 16.5873 328.919 16.6996 328.393 16.7984C328.312 16.8136 328.23 16.8281 328.15 16.8474C328.103 16.8588 328.048 16.8744 328.045 16.9279C328.043 16.9814 328.099 17.0011 328.143 17.0157C328.342 17.0803 328.548 17.0944 328.756 17.0754C329.113 17.0426 329.423 16.9134 329.695 16.703C329.721 16.683 329.748 16.6346 329.785 16.665C329.815 16.6895 329.779 16.7289 329.762 16.7576C329.345 17.4665 328.565 17.9356 327.621 17.8617C327.369 17.842 327.118 17.8137 326.866 17.8023C326.355 17.7791 326.016 17.9722 325.815 18.3992C325.776 18.4828 325.727 18.5039 325.634 18.4921C325.199 18.4365 324.762 18.4341 324.326 18.4953C324.249 18.506 324.209 18.4797 324.178 18.4165C323.944 17.9425 323.622 17.7681 323.052 17.7998C322.77 17.8157 322.491 17.8644 322.207 17.8648C321.289 17.8655 320.657 17.4478 320.217 16.7479C320.2 16.7199 320.175 16.6899 320.197 16.6318L320.198 16.6305Z" fill="#151513"/>
<path d="M324.999 20.6304C324.953 20.7157 324.915 20.7972 324.867 20.8729C324.779 21.0111 324.639 21.0881 324.471 21.1251C324.436 21.133 324.394 21.1434 324.368 21.1071C324.345 21.0739 324.376 21.0494 324.396 21.0256C324.425 20.99 324.455 20.9548 324.487 20.9206C324.718 20.6677 324.776 20.3778 324.709 20.0617C324.705 20.0417 324.699 20.0213 324.691 20.0023C324.681 19.9778 324.674 19.9426 324.636 19.9481C324.605 19.9526 324.608 19.9847 324.604 20.0079C324.585 20.1229 324.574 20.2397 324.544 20.3526C324.48 20.6007 324.326 20.7862 324.055 20.8767C324.023 20.8871 323.989 20.8912 323.955 20.8957C323.926 20.8995 323.893 20.9071 323.875 20.876C323.859 20.8494 323.882 20.8301 323.899 20.8131C323.939 20.7724 323.982 20.7333 324.023 20.6943C324.261 20.4708 324.391 20.2044 324.406 19.8935C324.407 19.8631 324.404 19.832 324.399 19.8013C324.396 19.7771 324.387 19.7522 324.354 19.7501C324.328 19.7484 324.312 19.7653 324.302 19.7843C324.277 19.8337 324.25 19.8835 324.229 19.9346C324.165 20.0863 324.081 20.2272 323.975 20.3575C323.875 20.4798 323.74 20.5371 323.573 20.5281C323.521 20.5254 323.463 20.5129 323.442 20.4621C323.418 20.4072 323.465 20.3706 323.504 20.3409C323.685 20.2062 323.872 20.078 324.005 19.899C324.179 19.6659 324.31 19.4182 324.306 19.1276C324.305 19.0575 324.336 19.0216 324.415 19.0105C324.81 18.9552 325.204 18.9646 325.598 19.0105C325.658 19.0174 325.695 19.0457 325.696 19.1045C325.702 19.6192 326.001 19.9851 326.425 20.2873C326.449 20.3043 326.473 20.3205 326.495 20.3395C326.533 20.3723 326.585 20.4038 326.564 20.459C326.541 20.5205 326.475 20.5288 326.413 20.5295C326.266 20.5312 326.143 20.4842 326.047 20.3775C325.917 20.2321 325.831 20.0652 325.755 19.8928C325.745 19.8707 325.736 19.8479 325.724 19.8268C325.705 19.7947 325.694 19.7436 325.645 19.7498C325.585 19.7574 325.598 19.8141 325.598 19.8514C325.597 20.1288 325.692 20.3765 325.886 20.591C325.953 20.6649 326.026 20.7337 326.097 20.8052C326.117 20.8252 326.146 20.8453 326.131 20.8753C326.112 20.9112 326.073 20.9002 326.04 20.8964C325.775 20.8646 325.52 20.6314 325.456 20.3568C325.431 20.2466 325.419 20.1336 325.399 20.022C325.394 19.9944 325.408 19.9512 325.359 19.9502C325.322 19.9495 325.319 19.9875 325.311 20.0123C325.227 20.2756 325.264 20.5281 325.403 20.7679C325.455 20.8587 325.523 20.942 325.6 21.0176C325.625 21.0422 325.659 21.0701 325.637 21.1071C325.611 21.1489 325.563 21.1358 325.525 21.1268C325.296 21.0733 325.14 20.9458 325.06 20.7433C325.046 20.7088 325.048 20.668 324.999 20.6311L324.999 20.6304Z" fill="#151513"/>
<g clip-path="url(#clip2_4355_32898)">
<path d="M319.019 22.4699C319.019 22.4332 319.055 22.4003 319.095 22.4003H319.22C319.26 22.4003 319.296 22.4332 319.296 22.4699V24.8964C319.296 24.933 319.26 24.966 319.22 24.966H319.095C319.055 24.966 319.019 24.933 319.019 24.8964V22.4699Z" fill="#151513"/>
<path d="M320.597 24.035C320.769 24.035 320.938 24.0826 320.938 24.0826C320.942 23.8114 320.906 23.6867 320.677 23.6867C320.448 23.6867 320.267 23.7418 320.195 23.7674C320.155 23.7821 320.131 23.7637 320.119 23.7307L320.087 23.6391C320.071 23.5951 320.095 23.5732 320.131 23.5585C320.155 23.5474 320.388 23.4631 320.689 23.4631C321.098 23.4631 321.199 23.6538 321.199 24.0826V24.8963C321.199 24.933 321.162 24.9659 321.122 24.9659H321.046C321.002 24.9659 320.99 24.944 320.978 24.9109L320.946 24.8119C320.862 24.8889 320.697 25.0026 320.448 25.0026C320.167 25.0026 319.954 24.8156 319.954 24.5224C319.954 24.2292 320.183 24.0349 320.597 24.0349V24.035ZM320.492 24.7827C320.693 24.7827 320.865 24.6692 320.934 24.5775V24.288C320.886 24.2624 320.773 24.2293 320.597 24.2293C320.372 24.2293 320.211 24.332 320.211 24.5225C320.211 24.6692 320.32 24.7827 320.492 24.7827Z" fill="#151513"/>
<path d="M321.805 23.5841C321.788 23.5327 321.805 23.4998 321.865 23.4998H321.989C322.025 23.4998 322.053 23.5181 322.061 23.5401L322.354 24.5078H322.358L322.812 23.4998C322.82 23.4814 322.844 23.4631 322.88 23.4631H322.9C322.936 23.4631 322.96 23.4815 322.969 23.4998L323.418 24.5115H323.422L323.711 23.5401C323.719 23.5181 323.747 23.4998 323.779 23.4998H323.904C323.964 23.4998 323.98 23.5327 323.964 23.5841L323.526 24.9659C323.518 24.9879 323.49 25.0026 323.458 25.0026H323.438C323.402 25.0026 323.378 24.9842 323.37 24.9659L322.88 23.8664L322.406 24.9659C322.398 24.9843 322.374 25.0026 322.338 25.0026H322.318C322.282 25.0026 322.258 24.9879 322.25 24.9659L321.804 23.5841H321.805Z" fill="#151513"/>
<path d="M324.526 23.117C324.526 23.018 324.61 22.941 324.714 22.941C324.819 22.941 324.907 23.018 324.907 23.117C324.907 23.216 324.823 23.2893 324.714 23.2893C324.606 23.2893 324.526 23.2123 324.526 23.117ZM324.582 23.5695C324.582 23.5329 324.618 23.4999 324.658 23.4999H324.782C324.822 23.4999 324.859 23.5329 324.859 23.5695V24.8964C324.859 24.933 324.822 24.966 324.782 24.966H324.658C324.618 24.966 324.582 24.933 324.582 24.8964V23.5695Z" fill="white"/>
<path d="M325.629 23.5695C325.629 23.5328 325.665 23.4999 325.705 23.4999H325.782C325.818 23.4999 325.838 23.5146 325.846 23.5439L325.882 23.6575C325.882 23.6575 326.111 23.4631 326.444 23.4631C326.909 23.4631 327.066 23.7418 327.066 24.1229V24.8963C327.066 24.933 327.03 24.9659 326.99 24.9659H326.861C326.821 24.9659 326.785 24.933 326.785 24.8963V24.1229C326.785 23.8443 326.649 23.7088 326.424 23.7088C326.123 23.7088 325.906 23.9177 325.906 23.9177V24.8963C325.906 24.933 325.87 24.9659 325.83 24.9659H325.706C325.666 24.9659 325.63 24.933 325.63 24.8963V23.5695H325.629Z" fill="white"/>
<path d="M327.676 24.8598L328.463 23.7418V23.7308H327.788C327.748 23.7308 327.716 23.6978 327.716 23.6612V23.5695C327.716 23.5292 327.748 23.4999 327.788 23.4999H328.796C328.856 23.4999 328.896 23.5513 328.864 23.5989L328.097 24.7242V24.7352H328.715C328.76 24.7352 328.792 24.7645 328.792 24.8048V24.8965C328.792 24.9331 328.76 24.9661 328.715 24.9661H327.752C327.712 24.9661 327.676 24.9331 327.676 24.8965V24.8599V24.8598Z" fill="white"/>
<path d="M330.164 23.4631C330.61 23.4631 330.963 23.815 330.963 24.2292C330.963 24.6433 330.61 25.0026 330.164 25.0026C329.719 25.0026 329.366 24.6507 329.366 24.2292C329.366 23.8077 329.719 23.4631 330.164 23.4631ZM330.164 24.7644C330.457 24.7644 330.686 24.5261 330.686 24.2292C330.686 23.9323 330.457 23.705 330.164 23.705C329.871 23.705 329.643 23.9396 329.643 24.2292C329.643 24.5187 329.871 24.7644 330.164 24.7644Z" fill="white"/>
</g>
</g>
<defs>
<clipPath id="clip0_4355_32898">
<rect width="350" height="218.75" fill="white"/>
</clipPath>
<clipPath id="clip1_4355_32898">
<rect width="11.9859" height="8.27329" fill="white" transform="translate(317.014 11.0466)"/>
</clipPath>
<clipPath id="clip2_4355_32898">
<rect width="11.9038" height="2.6087" fill="white" transform="translate(319.023 22.3898)"/>
</clipPath>
</defs>
</svg>
