<svg width="90" height="111" viewBox="0 0 90 111" fill="none" xmlns="http://www.w3.org/2000/svg">
<g clip-path="url(#clip0_4235_30517)">
<circle cx="45" cy="45.4883" r="45" fill="white"/>
<g clip-path="url(#clip1_4235_30517)">
<path d="M67.5589 34.9326C67.6165 35.4608 67.681 35.9891 67.7308 36.5192C67.9583 38.9738 68.1848 41.4284 68.4045 43.883C68.5802 45.8543 68.7384 47.8266 68.9171 49.7969C69.0948 51.7506 69.2939 53.7024 69.4726 55.6571C69.6191 57.2564 69.7499 58.8567 69.8876 60.456C69.9208 60.8436 69.9784 61.2312 69.9774 61.6198C69.9754 62.4233 69.3642 63.0492 68.5597 63.0531C66.5591 63.0619 64.5585 63.0482 62.5589 63.0433C62.3334 62.7778 62.4047 62.4556 62.4037 62.1548C62.3998 55.3954 62.3822 48.636 62.4134 41.8776C62.4213 40.2509 61.9409 39.7735 60.325 39.7862C55.532 39.8233 50.738 39.7998 45.944 39.7979C45.653 39.7979 45.3582 39.8311 45.075 39.7256C45.0145 39.6973 44.9667 39.6553 44.9296 39.5997C44.827 39.4054 44.8339 39.1925 44.8339 38.9816C44.83 37.9603 44.829 36.94 44.8339 35.9188C44.8348 35.6776 44.8143 35.4286 44.9852 35.2226C45.2752 35.0156 45.6101 35.0771 45.9303 35.0771C52.7718 35.0732 59.6142 35.0742 66.4556 35.0752C66.8296 35.0752 67.2035 35.084 67.5579 34.9326H67.5589Z" fill="#FEC771"/>
<path d="M44.996 35.2412C44.992 36.7018 44.9881 38.1615 44.9842 39.6222C44.7304 39.8741 44.4043 39.795 44.1055 39.795C39.2783 39.8008 34.4502 39.8213 29.623 39.7862C28.0549 39.7745 27.5726 40.2705 27.5785 41.8239C27.6068 48.6009 27.5921 55.3788 27.5882 62.1558C27.5882 62.4575 27.6575 62.7788 27.4339 63.0453C25.4334 63.0492 23.4328 63.0648 21.4322 63.0512C20.4783 63.0443 19.8915 62.1734 20.0174 61.1228C20.1756 59.8067 20.2732 58.4827 20.3992 57.1617C20.5193 55.9061 20.6491 54.6505 20.7653 53.3949C20.8757 52.2027 20.9713 51.0086 21.0807 49.8155C21.2008 48.4944 21.3316 47.1744 21.4537 45.8534C21.5601 44.6934 21.6568 43.5315 21.7632 42.3716C21.9194 40.6639 22.0805 38.9563 22.2377 37.2486C22.306 36.5105 22.3685 35.7723 22.4339 35.0332C22.9358 35.0723 23.4396 35.0742 23.9434 35.0742C30.6345 35.0732 37.3256 35.0723 44.0166 35.0752C44.3223 35.0752 44.6357 35.0273 44.9276 35.1718C44.951 35.1943 44.9745 35.2168 44.9979 35.2392L44.996 35.2412Z" fill="#FEE4AB"/>
<path d="M27.434 63.0462C27.4311 55.7283 27.4262 48.4114 27.4291 41.0935C27.4291 40.244 28.0911 39.6357 28.9825 39.6348C34.1056 39.6328 39.2286 39.6348 44.3516 39.6338C44.5625 39.6338 44.7744 39.627 44.9853 39.623L45.0077 39.6455C45.0897 39.7304 45.1347 39.8349 45.1395 39.9501C45.1727 40.7234 45.1786 41.4967 45.1356 42.27C45.1298 42.3842 45.0878 42.4907 45.0097 42.5785C44.8173 42.7347 44.585 42.723 44.3594 42.726C43.84 42.7338 43.3196 42.7201 42.8001 42.7318C42.3002 42.7435 42.2563 42.7923 42.2378 43.302C42.2309 43.4807 42.2348 43.6594 42.2348 43.838C42.2348 49.9443 42.2358 56.0505 42.2319 62.1567C42.2319 62.4575 42.3012 62.7797 42.0718 63.0433C41.0974 63.0443 40.1229 63.0452 39.1485 63.0462C38.9327 62.8187 38.9777 62.5307 38.9777 62.2602C38.9728 59.9042 38.9767 57.5492 38.9747 55.1932C38.9747 54.4453 38.9679 54.4405 38.2092 54.4395C35.8855 54.4385 33.5627 54.4375 31.2389 54.4395C30.5428 54.4395 30.5232 54.458 30.5223 55.1444C30.5193 57.516 30.5223 59.8886 30.5184 62.2602C30.5184 62.5317 30.5633 62.8197 30.3475 63.0462C29.377 63.0462 28.4065 63.0462 27.436 63.0462H27.434Z" fill="#FEC771"/>
<path d="M44.9932 42.5428C44.998 41.5772 45.002 40.6105 45.0068 39.6449C50.373 39.641 55.7391 39.6352 61.1062 39.6371C61.9342 39.6371 62.562 40.2942 62.5649 41.1417C62.5708 42.9138 62.5679 44.6859 62.5669 46.459C62.5649 51.9872 62.563 57.5154 62.56 63.0446C61.5886 63.0446 60.6171 63.0446 59.6456 63.0446C59.4288 62.8171 59.4767 62.5291 59.4757 62.2587C59.4708 59.9037 59.4747 57.5486 59.4728 55.1936C59.4728 54.4477 59.4649 54.4418 58.7063 54.4409C56.3835 54.4399 54.0607 54.4389 51.7379 54.4409C51.0408 54.4409 51.0213 54.4594 51.0203 55.1448C51.0174 57.5164 51.0213 59.8871 51.0164 62.2587C51.0164 62.5291 51.0642 62.8171 50.8475 63.0446C49.8731 63.0446 48.8996 63.0446 47.9252 63.0437C47.6938 62.781 47.7641 62.4578 47.7641 62.1571C47.7592 56.0304 47.7622 49.9046 47.7602 43.7779C47.7602 42.6297 47.8246 42.7439 46.6969 42.7263C46.1785 42.7176 45.6571 42.7879 45.1426 42.6668C45.081 42.6414 45.0322 42.6004 44.9951 42.5457L44.9932 42.5428Z" fill="#FEA132"/>
<path d="M67.5592 34.9327C67.5494 35.1416 67.4684 35.2705 67.2301 35.2431C67.1335 35.2314 67.0349 35.2412 66.9382 35.2412C59.6242 35.2412 52.3102 35.2412 44.9972 35.2412C44.8527 35.0859 44.8361 34.8916 44.8351 34.6954C44.8283 33.5931 44.8273 32.4907 44.8351 31.3884C44.837 31.1941 44.8458 30.9969 44.9806 30.8358C45.1876 30.6669 45.4375 30.6845 45.6787 30.6845C52.6138 30.6806 59.549 30.6806 66.4832 30.6854C66.8161 30.6854 67.2008 30.6366 67.2331 31.1443C67.3414 32.4068 67.4498 33.6692 67.5582 34.9317L67.5592 34.9327Z" fill="#FEA132"/>
<path d="M45.0068 30.8611C45.0029 32.3208 45 33.7815 44.9961 35.2411C37.6655 35.2411 30.3349 35.2421 23.0043 35.2363C22.8051 35.2363 22.5278 35.37 22.4331 35.0351C22.5395 33.7717 22.646 32.5073 22.7524 31.2439C22.7377 30.8231 22.9721 30.6776 23.3587 30.6854C23.5862 30.6903 23.8137 30.6834 24.0412 30.6834C30.704 30.6834 37.3677 30.6834 44.0305 30.6854C44.3361 30.6854 44.6504 30.6356 44.9395 30.7899C44.9619 30.8133 44.9844 30.8377 45.0058 30.8611H45.0068Z" fill="#FEC771"/>
<path d="M30.3453 63.0462C30.3482 60.2987 30.3609 57.5512 30.3433 54.8037C30.3404 54.3653 30.4693 54.2608 30.893 54.2648C33.4618 54.2843 36.0307 54.2843 38.6005 54.2648C39.0242 54.2618 39.1531 54.3663 39.1502 54.8047C39.1326 57.5522 39.1453 60.2997 39.1482 63.0472C36.2142 63.0472 33.2802 63.0472 30.3472 63.0472L30.3453 63.0462Z" fill="#FEE4AB"/>
<path d="M50.8453 63.0433C50.8472 60.2958 50.856 57.5492 50.8453 54.8017C50.8433 54.4219 50.9107 54.2598 51.3432 54.2637C53.9443 54.2842 56.5453 54.2842 59.1464 54.2637C59.5799 54.2608 59.6463 54.4219 59.6443 54.8017C59.6326 57.5492 59.6414 60.2958 59.6443 63.0433C56.7113 63.0433 53.7783 63.0433 50.8453 63.0433Z" fill="#FEC771"/>
<path d="M67.2339 31.1454C67.149 30.9296 67.0132 30.8427 66.7594 30.8427C59.5089 30.8554 52.2573 30.8573 45.0068 30.8612L44.9843 30.8388C44.8887 30.7411 44.8506 30.6181 44.8457 30.4883C44.8213 29.7667 44.8223 29.0452 44.8447 28.3246C44.8496 28.1772 44.8916 28.0395 45.0029 27.9331C47.9925 27.9292 50.9812 27.9233 53.9709 27.9224C58.7971 27.9194 63.6223 27.9233 68.4475 27.9194C69.0783 27.9194 69.5538 28.1762 69.833 28.7337C70.1035 29.2737 70.04 29.8097 69.6739 30.291C69.4044 30.6455 69.0353 30.8359 68.5852 30.8466C68.2445 30.8544 67.9017 30.8632 67.562 30.8446C67.3276 30.832 67.2339 30.9247 67.2339 31.1454Z" fill="#FEC771"/>
<path d="M45.0038 27.9332C44.9979 28.9018 44.9911 29.8704 44.9853 30.8389C41.7505 30.8428 38.5158 30.8477 35.2821 30.8497C31.3161 30.8516 27.35 30.8545 23.384 30.8428C23.055 30.8418 22.8275 30.8955 22.7533 31.2451C22.7865 30.917 22.6205 30.8467 22.3178 30.8418C21.8062 30.835 21.2829 30.9483 20.7898 30.6681C20.2499 30.3605 19.9091 29.72 20.0214 29.1186C20.1346 28.5054 20.7146 27.9782 21.3356 27.9254C21.4166 27.9186 21.4986 27.9225 21.5797 27.9225C29.2745 27.9225 36.9683 27.9225 44.6631 27.9225C44.7763 27.9225 44.8905 27.9293 45.0038 27.9332Z" fill="#FEE4AB"/>
<path d="M42.0708 63.0434C42.0698 56.3699 42.0708 49.6964 42.0601 43.0219C42.0601 42.6714 42.1294 42.5405 42.5102 42.5513C43.3372 42.5767 44.1651 42.5483 44.9931 42.5425L44.998 42.5796C45.1796 42.7612 45.16 42.9975 45.16 43.222C45.1639 49.6143 45.1639 56.0057 45.16 62.398C45.16 62.6225 45.1786 62.8588 44.9989 63.0414C44.0226 63.0414 43.0472 63.0424 42.0708 63.0434Z" fill="#764A55"/>
<path d="M44.999 63.0417C44.999 56.2208 44.999 49.3998 44.999 42.5799C45.8592 42.574 46.7204 42.5779 47.5796 42.5565C47.8676 42.5496 47.9594 42.6599 47.9252 42.9245C47.9194 42.9724 47.9252 43.0222 47.9252 43.071C47.9252 49.7279 47.9252 56.3858 47.9242 63.0427C46.9498 63.0427 45.9744 63.0427 45 63.0427L44.999 63.0417Z" fill="#613426"/>
<path d="M33.2827 46.9538C33.2827 48.2709 33.2729 49.588 33.2895 50.9051C33.2934 51.2293 33.228 51.3679 32.8677 51.3533C32.1696 51.325 31.4686 51.3328 30.7704 51.3513C30.4668 51.3592 30.3457 51.2908 30.3477 50.954C30.3613 48.2875 30.3584 45.62 30.3496 42.9536C30.3496 42.6724 30.4043 42.5454 30.7216 42.5552C31.4529 42.5767 32.1852 42.5767 32.9165 42.5552C33.2338 42.5454 33.2905 42.6724 33.2885 42.9536C33.2768 44.2873 33.2836 45.62 33.2836 46.9538H33.2827Z" fill="#764A55"/>
<path d="M39.1386 46.9755C39.1386 48.2604 39.1152 49.5453 39.1513 50.8292C39.164 51.2813 39.0165 51.375 38.6035 51.3545C37.9386 51.3213 37.2698 51.335 36.6039 51.3506C36.3247 51.3574 36.2026 51.2988 36.2036 50.9805C36.2153 48.2975 36.2153 45.6144 36.2036 42.9313C36.2026 42.6169 36.313 42.5496 36.599 42.5564C37.3147 42.573 38.0304 42.5789 38.7451 42.5544C39.081 42.5427 39.1474 42.6706 39.1445 42.9753C39.1308 44.309 39.1386 45.6417 39.1386 46.9755Z" fill="#764A55"/>
<path d="M50.8522 46.9538C50.8522 45.6367 50.862 44.3186 50.8454 43.0014C50.8415 42.6773 50.9059 42.5386 51.2672 42.5533C51.9653 42.5816 52.6663 42.5738 53.3654 42.5552C53.6681 42.5474 53.7901 42.6138 53.7882 42.9517C53.7745 45.6191 53.7774 48.2865 53.7852 50.954C53.7852 51.2342 53.7315 51.3621 53.4142 51.3524C52.6829 51.3299 51.9497 51.3299 51.2183 51.3524C50.901 51.3621 50.8434 51.2362 50.8464 50.955C50.8581 49.6212 50.8512 48.2875 50.8512 46.9538H50.8522Z" fill="#613426"/>
<path d="M56.7087 46.905C56.7087 45.6035 56.7184 44.303 56.7018 43.0014C56.6979 42.6773 56.7633 42.5386 57.1236 42.5533C57.8217 42.5816 58.5228 42.5738 59.2218 42.5552C59.5245 42.5474 59.6466 42.6148 59.6446 42.9526C59.6309 45.6201 59.6339 48.2875 59.6427 50.955C59.6427 51.2362 59.588 51.3621 59.2707 51.3533C58.5394 51.3309 57.8061 51.3309 57.0748 51.3533C56.7575 51.3631 56.7008 51.2362 56.7028 50.955C56.7145 49.6056 56.7077 48.2553 56.7077 46.905H56.7087Z" fill="#613426"/>
</g>
</g>
<path d="M15.02 103.05C15.76 103.05 16.4067 103.193 16.96 103.48C17.52 103.76 17.95 104.167 18.25 104.7C18.5567 105.227 18.71 105.843 18.71 106.55C18.71 107.257 18.5567 107.87 18.25 108.39C17.95 108.91 17.52 109.31 16.96 109.59C16.4067 109.863 15.76 110 15.02 110H12.75V103.05H15.02ZM15.02 109.07C15.8333 109.07 16.4567 108.85 16.89 108.41C17.3233 107.97 17.54 107.35 17.54 106.55C17.54 105.743 17.3233 105.113 16.89 104.66C16.4567 104.207 15.8333 103.98 15.02 103.98H13.89V109.07H15.02ZM20.4198 103.76C20.2132 103.76 20.0398 103.69 19.8998 103.55C19.7598 103.41 19.6898 103.237 19.6898 103.03C19.6898 102.823 19.7598 102.65 19.8998 102.51C20.0398 102.37 20.2132 102.3 20.4198 102.3C20.6198 102.3 20.7898 102.37 20.9298 102.51C21.0698 102.65 21.1398 102.823 21.1398 103.03C21.1398 103.237 21.0698 103.41 20.9298 103.55C20.7898 103.69 20.6198 103.76 20.4198 103.76ZM20.9798 104.49V110H19.8398V104.49H20.9798ZM24.4766 110.09C24.0432 110.09 23.6532 110.013 23.3066 109.86C22.9666 109.7 22.6966 109.487 22.4966 109.22C22.2966 108.947 22.1899 108.643 22.1766 108.31H23.3566C23.3766 108.543 23.4866 108.74 23.6866 108.9C23.8932 109.053 24.1499 109.13 24.4566 109.13C24.7766 109.13 25.0232 109.07 25.1966 108.95C25.3766 108.823 25.4666 108.663 25.4666 108.47C25.4666 108.263 25.3666 108.11 25.1666 108.01C24.9732 107.91 24.6632 107.8 24.2366 107.68C23.8232 107.567 23.4866 107.457 23.2266 107.35C22.9666 107.243 22.7399 107.08 22.5466 106.86C22.3599 106.64 22.2666 106.35 22.2666 105.99C22.2666 105.697 22.3532 105.43 22.5266 105.19C22.6999 104.943 22.9466 104.75 23.2666 104.61C23.5932 104.47 23.9666 104.4 24.3866 104.4C25.0132 104.4 25.5166 104.56 25.8966 104.88C26.2832 105.193 26.4899 105.623 26.5166 106.17H25.3766C25.3566 105.923 25.2566 105.727 25.0766 105.58C24.8966 105.433 24.6532 105.36 24.3466 105.36C24.0466 105.36 23.8166 105.417 23.6566 105.53C23.4966 105.643 23.4166 105.793 23.4166 105.98C23.4166 106.127 23.4699 106.25 23.5766 106.35C23.6832 106.45 23.8132 106.53 23.9666 106.59C24.1199 106.643 24.3466 106.713 24.6466 106.8C25.0466 106.907 25.3732 107.017 25.6266 107.13C25.8866 107.237 26.1099 107.397 26.2966 107.61C26.4832 107.823 26.5799 108.107 26.5866 108.46C26.5866 108.773 26.4999 109.053 26.3266 109.3C26.1532 109.547 25.9066 109.74 25.5866 109.88C25.2732 110.02 24.9032 110.09 24.4766 110.09ZM29.1484 105.42V108.47C29.1484 108.677 29.195 108.827 29.2884 108.92C29.3884 109.007 29.555 109.05 29.7884 109.05H30.4884V110H29.5884C29.075 110 28.6817 109.88 28.4084 109.64C28.135 109.4 27.9984 109.01 27.9984 108.47V105.42H27.3484V104.49H27.9984V103.12H29.1484V104.49H30.4884V105.42H29.1484ZM32.6791 105.29C32.8457 105.01 33.0657 104.793 33.3391 104.64C33.6191 104.48 33.9491 104.4 34.3291 104.4V105.58H34.0391C33.5924 105.58 33.2524 105.693 33.0191 105.92C32.7924 106.147 32.6791 106.54 32.6791 107.1V110H31.5391V104.49H32.6791V105.29ZM35.957 103.76C35.7503 103.76 35.577 103.69 35.437 103.55C35.297 103.41 35.227 103.237 35.227 103.03C35.227 102.823 35.297 102.65 35.437 102.51C35.577 102.37 35.7503 102.3 35.957 102.3C36.157 102.3 36.327 102.37 36.467 102.51C36.607 102.65 36.677 102.823 36.677 103.03C36.677 103.237 36.607 103.41 36.467 103.55C36.327 103.69 36.157 103.76 35.957 103.76ZM36.517 104.49V110H35.377V104.49H36.517ZM37.6337 107.24C37.6337 106.673 37.747 106.177 37.9737 105.75C38.207 105.317 38.527 104.983 38.9337 104.75C39.3403 104.517 39.807 104.4 40.3337 104.4C41.0003 104.4 41.5503 104.56 41.9837 104.88C42.4237 105.193 42.7203 105.643 42.8737 106.23H41.6437C41.5437 105.957 41.3837 105.743 41.1637 105.59C40.9437 105.437 40.667 105.36 40.3337 105.36C39.867 105.36 39.4937 105.527 39.2137 105.86C38.9403 106.187 38.8037 106.647 38.8037 107.24C38.8037 107.833 38.9403 108.297 39.2137 108.63C39.4937 108.963 39.867 109.13 40.3337 109.13C40.9937 109.13 41.4303 108.84 41.6437 108.26H42.8737C42.7137 108.82 42.4137 109.267 41.9737 109.6C41.5337 109.927 40.987 110.09 40.3337 110.09C39.807 110.09 39.3403 109.973 38.9337 109.74C38.527 109.5 38.207 109.167 37.9737 108.74C37.747 108.307 37.6337 107.807 37.6337 107.24ZM45.3398 105.42V108.47C45.3398 108.677 45.3864 108.827 45.4798 108.92C45.5798 109.007 45.7464 109.05 45.9798 109.05H46.6798V110H45.7798C45.2664 110 44.8731 109.88 44.5998 109.64C44.3264 109.4 44.1898 109.01 44.1898 108.47V105.42H43.5398V104.49H44.1898V103.12H45.3398V104.49H46.6798V105.42H45.3398ZM49.9481 106.51C49.9481 105.83 50.1048 105.22 50.4181 104.68C50.7381 104.14 51.1681 103.72 51.7081 103.42C52.2548 103.113 52.8515 102.96 53.4981 102.96C54.2381 102.96 54.8948 103.143 55.4681 103.51C56.0481 103.87 56.4681 104.383 56.7281 105.05H55.3581C55.1781 104.683 54.9281 104.41 54.6081 104.23C54.2881 104.05 53.9181 103.96 53.4981 103.96C53.0381 103.96 52.6281 104.063 52.2681 104.27C51.9081 104.477 51.6248 104.773 51.4181 105.16C51.2181 105.547 51.1181 105.997 51.1181 106.51C51.1181 107.023 51.2181 107.473 51.4181 107.86C51.6248 108.247 51.9081 108.547 52.2681 108.76C52.6281 108.967 53.0381 109.07 53.4981 109.07C53.9181 109.07 54.2881 108.98 54.6081 108.8C54.9281 108.62 55.1781 108.347 55.3581 107.98H56.7281C56.4681 108.647 56.0481 109.16 55.4681 109.52C54.8948 109.88 54.2381 110.06 53.4981 110.06C52.8448 110.06 52.2481 109.91 51.7081 109.61C51.1681 109.303 50.7381 108.88 50.4181 108.34C50.1048 107.8 49.9481 107.19 49.9481 106.51ZM60.4525 110.09C59.9325 110.09 59.4625 109.973 59.0425 109.74C58.6225 109.5 58.2925 109.167 58.0525 108.74C57.8125 108.307 57.6925 107.807 57.6925 107.24C57.6925 106.68 57.8158 106.183 58.0625 105.75C58.3092 105.317 58.6458 104.983 59.0725 104.75C59.4992 104.517 59.9758 104.4 60.5025 104.4C61.0292 104.4 61.5058 104.517 61.9325 104.75C62.3592 104.983 62.6958 105.317 62.9425 105.75C63.1892 106.183 63.3125 106.68 63.3125 107.24C63.3125 107.8 63.1858 108.297 62.9325 108.73C62.6792 109.163 62.3325 109.5 61.8925 109.74C61.4592 109.973 60.9792 110.09 60.4525 110.09ZM60.4525 109.1C60.7458 109.1 61.0192 109.03 61.2725 108.89C61.5325 108.75 61.7425 108.54 61.9025 108.26C62.0625 107.98 62.1425 107.64 62.1425 107.24C62.1425 106.84 62.0658 106.503 61.9125 106.23C61.7592 105.95 61.5558 105.74 61.3025 105.6C61.0492 105.46 60.7758 105.39 60.4825 105.39C60.1892 105.39 59.9158 105.46 59.6625 105.6C59.4158 105.74 59.2192 105.95 59.0725 106.23C58.9258 106.503 58.8525 106.84 58.8525 107.24C58.8525 107.833 59.0025 108.293 59.3025 108.62C59.6092 108.94 59.9925 109.1 60.4525 109.1ZM69.4295 104.49V110H68.2895V109.35C68.1095 109.577 67.8728 109.757 67.5795 109.89C67.2928 110.017 66.9861 110.08 66.6595 110.08C66.2261 110.08 65.8361 109.99 65.4895 109.81C65.1495 109.63 64.8795 109.363 64.6795 109.01C64.4861 108.657 64.3895 108.23 64.3895 107.73V104.49H65.5195V107.56C65.5195 108.053 65.6428 108.433 65.8895 108.7C66.1361 108.96 66.4728 109.09 66.8995 109.09C67.3261 109.09 67.6628 108.96 67.9095 108.7C68.1628 108.433 68.2895 108.053 68.2895 107.56V104.49H69.4295ZM72.0736 105.29C72.2403 105.01 72.4603 104.793 72.7336 104.64C73.0136 104.48 73.3436 104.4 73.7236 104.4V105.58H73.4336C72.9869 105.58 72.6469 105.693 72.4136 105.92C72.1869 106.147 72.0736 106.54 72.0736 107.1V110H70.9336V104.49H72.0736V105.29ZM76.1015 105.42V108.47C76.1015 108.677 76.1482 108.827 76.2415 108.92C76.3415 109.007 76.5082 109.05 76.7415 109.05H77.4415V110H76.5415C76.0282 110 75.6348 109.88 75.3615 109.64C75.0882 109.4 74.9515 109.01 74.9515 108.47V105.42H74.3015V104.49H74.9515V103.12H76.1015V104.49H77.4415V105.42H76.1015ZM80.4922 110.09C80.0589 110.09 79.6689 110.013 79.3222 109.86C78.9822 109.7 78.7122 109.487 78.5122 109.22C78.3122 108.947 78.2055 108.643 78.1922 108.31H79.3722C79.3922 108.543 79.5022 108.74 79.7022 108.9C79.9089 109.053 80.1655 109.13 80.4722 109.13C80.7922 109.13 81.0389 109.07 81.2122 108.95C81.3922 108.823 81.4822 108.663 81.4822 108.47C81.4822 108.263 81.3822 108.11 81.1822 108.01C80.9889 107.91 80.6789 107.8 80.2522 107.68C79.8389 107.567 79.5022 107.457 79.2422 107.35C78.9822 107.243 78.7555 107.08 78.5622 106.86C78.3755 106.64 78.2822 106.35 78.2822 105.99C78.2822 105.697 78.3689 105.43 78.5422 105.19C78.7155 104.943 78.9622 104.75 79.2822 104.61C79.6089 104.47 79.9822 104.4 80.4022 104.4C81.0289 104.4 81.5322 104.56 81.9122 104.88C82.2989 105.193 82.5055 105.623 82.5322 106.17H81.3922C81.3722 105.923 81.2722 105.727 81.0922 105.58C80.9122 105.433 80.6689 105.36 80.3622 105.36C80.0622 105.36 79.8322 105.417 79.6722 105.53C79.5122 105.643 79.4322 105.793 79.4322 105.98C79.4322 106.127 79.4855 106.25 79.5922 106.35C79.6989 106.45 79.8289 106.53 79.9822 106.59C80.1355 106.643 80.3622 106.713 80.6622 106.8C81.0622 106.907 81.3889 107.017 81.6422 107.13C81.9022 107.237 82.1255 107.397 82.3122 107.61C82.4989 107.823 82.5955 108.107 82.6022 108.46C82.6022 108.773 82.5155 109.053 82.3422 109.3C82.1689 109.547 81.9222 109.74 81.6022 109.88C81.2889 110.02 80.9189 110.09 80.4922 110.09Z" fill="#151513"/>
<defs>
<clipPath id="clip0_4235_30517">
<rect width="90" height="90" fill="white" transform="translate(0 0.488281)"/>
</clipPath>
<clipPath id="clip1_4235_30517">
<rect width="50" height="35.1377" fill="white" transform="translate(20 27.9194)"/>
</clipPath>
</defs>
</svg>
