<svg width="350" height="219" viewBox="0 0 350 219" fill="none" xmlns="http://www.w3.org/2000/svg">
<g clip-path="url(#clip0_4355_31257)">
<rect width="350" height="218.75" fill="white"/>
<g clip-path="url(#clip1_4355_31257)">
<g opacity="0.6">
<path d="M51.2305 226C55.2667 201.406 21.9271 185.776 31.8557 155.92C40.6414 129.526 46.1771 141.217 44.2284 101.808C42.0947 58.6515 73.076 58.3734 98.2112 57.2017C118.009 56.2815 139.98 29.8277 167.077 26.5905C216.33 20.7185 221.852 60.5514 244.226 61.5246C265.88 62.4712 296.505 59.8629 308.937 83.6488C322.499 109.599 295.772 128.129 311.626 159.144C331.793 198.613 297.654 203.114 297.707 225.987" fill="#FFF7E3"/>
</g>
<g opacity="0.4">
<path d="M234.536 44.7401C228.643 48.93 240.932 57.6605 244.663 55.9594C253.447 51.9416 241.435 40.8944 234.536 44.7401Z" fill="#FBBF0D"/>
</g>
<g opacity="0.4">
<path d="M316.092 127.26C308.624 125.46 310.833 147.395 318.195 143.139C324.155 140.041 321.542 127.154 316.092 127.26Z" fill="#FBBF0D"/>
</g>
<g opacity="0.4">
<path d="M114.392 41.8674C111.488 36.175 96.2026 45.3557 103.168 50.0022C107.421 53.1 117.097 46.9045 114.392 41.8674Z" fill="#FBBF0D"/>
</g>
<g opacity="0.4">
<path d="M36.0644 117.007C27.4326 114.816 22.2536 132.496 31.0904 132.886C38.5977 132.886 41.8388 117.007 36.0644 117.007Z" fill="#FBBF0D"/>
</g>
<g opacity="0.4">
<path d="M95.6404 48.4865C89.4361 45.8124 87.9544 51.6239 92.1546 53.9075C95.7462 55.8601 98.7359 51.1937 95.6404 48.4865Z" fill="#FBBF0D"/>
</g>
<g opacity="0.4">
<path d="M256.39 51.1606C249.233 50.7701 252.746 59.3616 257.303 58.4482C262.767 57.5347 262.31 51.6173 256.39 51.1606Z" fill="#FBBF0D"/>
</g>
<g opacity="0.4">
<path d="M317.355 147.336C312.117 148.507 317.739 159.012 321.615 156.688C326.258 153.2 321.364 145.793 317.355 147.336Z" fill="#FBBF0D"/>
</g>
<g opacity="0.4">
<path d="M35.9454 102.796C31.097 101.479 28.5571 110.54 33.9743 111.705C39.0012 112.87 40.1191 102.796 35.9454 102.796Z" fill="#FBBF0D"/>
</g>
<g opacity="0.6">
<path d="M140.076 73.8176C140.076 77.3059 137.252 80.1322 133.766 80.1322C130.28 80.1322 127.456 77.3059 127.456 73.8176C127.456 70.3294 130.28 67.5031 133.766 67.5031C137.252 67.5031 140.076 70.3294 140.076 73.8176Z" stroke="white" stroke-width="2.12" stroke-miterlimit="10"/>
<path d="M218.192 92.3444C218.192 94.8663 216.155 96.9049 213.635 96.9049C211.115 96.9049 209.077 94.8597 209.077 92.3444C209.077 89.8292 211.115 87.7839 213.635 87.7839C216.155 87.7839 218.192 89.8225 218.192 92.3444Z" stroke="white" stroke-width="2.12" stroke-miterlimit="10"/>
<path d="M296.302 147.084C298.238 147.084 299.807 145.513 299.807 143.576C299.807 141.638 298.238 140.068 296.302 140.068C294.365 140.068 292.796 141.638 292.796 143.576C292.796 145.513 294.365 147.084 296.302 147.084Z" stroke="white" stroke-width="2.12" stroke-miterlimit="10"/>
<path d="M59.8697 140.571C59.8697 143.669 57.3562 146.184 54.2607 146.184C51.1651 146.184 48.6517 143.669 48.6517 140.571C48.6517 137.473 51.1585 134.958 54.2607 134.958C57.3628 134.958 59.8697 137.473 59.8697 140.571Z" stroke="white" stroke-width="2.12" stroke-miterlimit="10"/>
<path d="M131.907 138.837C131.907 140.776 130.34 142.345 128.402 142.345C126.464 142.345 124.896 140.776 124.896 138.837C124.896 136.897 126.464 135.329 128.402 135.329C130.34 135.329 131.907 136.897 131.907 138.837Z" stroke="white" stroke-width="2.12" stroke-miterlimit="10"/>
<path d="M301.302 90.8485C301.302 93.9462 298.795 96.4615 295.693 96.4615C292.591 96.4615 290.084 93.9462 290.084 90.8485C290.084 87.7508 292.598 85.2355 295.693 85.2355C298.789 85.2355 301.302 87.7508 301.302 90.8485Z" stroke="white" stroke-width="2.12" stroke-miterlimit="10"/>
<path d="M212.398 52.4513C212.398 54.5827 210.672 56.3102 208.542 56.3102C206.412 56.3102 204.685 54.5827 204.685 52.4513C204.685 50.32 206.412 48.5924 208.542 48.5924C210.672 48.5924 212.398 50.32 212.398 52.4513Z" stroke="white" stroke-width="2.12" stroke-miterlimit="10"/>
<path d="M155.818 42.0528C155.818 43.6016 154.562 44.8592 153.014 44.8592C151.466 44.8592 150.209 43.6016 150.209 42.0528C150.209 40.5039 151.466 39.2463 153.014 39.2463C154.562 39.2463 155.818 40.5039 155.818 42.0528Z" stroke="white" stroke-width="2.12" stroke-miterlimit="10"/>
</g>
<path d="M175.06 85.0303C182.051 81.5487 195.498 74.228 197.145 62.2277C199.599 44.3363 177.513 44.6871 175.06 59.0704H174.894C172.44 44.6871 150.355 44.3363 152.809 62.2277C154.456 74.228 167.903 81.5421 174.894 85.0303" fill="#E06A8E"/>
<path d="M179.709 45.038C179.451 45.9382 179.18 46.8317 178.896 47.7253L178.043 50.3928C177.454 52.1667 176.872 53.934 176.25 55.6947C175.648 57.4619 175.02 59.216 174.378 60.9634L173.426 63.5912L172.44 66.2057L171.104 64.5179L175.47 63.717L179.848 62.9756L182.964 62.4461L181.198 65.1003L179.207 68.0988L177.183 71.0774L175.139 74.0427C174.458 75.0355 173.763 76.0086 173.069 76.9882L171.673 75.0223L175.02 74.2214C176.138 73.95 177.256 73.7051 178.38 73.4536L180.516 72.9704L179.683 74.9098C179.101 76.2601 178.539 77.6236 177.943 78.9673L176.151 83.0049C175.529 84.3419 174.927 85.6856 174.292 87.016C173.657 88.3465 173.022 89.6835 172.348 91.0007C172.725 89.571 173.141 88.1545 173.558 86.738C173.975 85.3216 174.425 83.9183 174.854 82.5085L176.217 78.3054C176.673 76.9021 177.163 75.5187 177.633 74.1221L178.936 75.5783C177.838 75.9093 176.74 76.2535 175.635 76.5646L172.328 77.5177L169.054 78.4576L170.932 75.5452C171.58 74.5391 172.229 73.5264 172.89 72.5269L174.874 69.5285L176.885 66.5433L178.922 63.578L180.278 65.7027L175.893 66.3646L171.494 66.9669L169.292 67.2714L170.158 65.2857L171.276 62.7241L172.427 60.1758C173.181 58.4747 173.962 56.7802 174.762 55.0923C175.542 53.3978 176.363 51.7232 177.176 50.042L178.426 47.5334C178.85 46.6993 179.28 45.872 179.716 45.0446L179.709 45.038Z" fill="#FFFAEE"/>
<path d="M161.157 212.444C163.485 210.115 163.485 206.339 161.157 204.01C158.83 201.681 155.056 201.681 152.729 204.01C150.402 206.339 150.402 210.115 152.729 212.444C155.056 214.773 158.83 214.773 161.157 212.444Z" stroke="#E6AF00" stroke-width="4.24" stroke-miterlimit="10"/>
<path d="M194.122 183.145L192.197 179.464H197.978L195.703 183.145" fill="white"/>
<path d="M198.977 188.116C198.977 190.631 196.94 192.676 194.42 192.676C191.9 192.676 189.863 190.637 189.863 188.116C189.863 185.594 191.9 183.555 194.42 183.555C196.94 183.555 198.977 185.594 198.977 188.116Z" stroke="#E6AF00" stroke-width="3.18" stroke-miterlimit="10"/>
<path d="M198.911 220.575C198.527 221.019 197.853 221.072 197.396 220.681L193.593 217.425C193.143 217.041 193.084 216.359 193.467 215.916L195.935 213.036C196.318 212.593 196.993 212.54 197.449 212.93L201.253 216.187C201.702 216.571 201.762 217.253 201.378 217.696L198.911 220.575Z" fill="#80217E"/>
<path d="M166.468 185.613L161.839 191.023L194.302 218.837L198.931 213.427L166.468 185.613Z" fill="#3454A1"/>
<path d="M157.3 182.417C157.187 182.549 156.989 182.562 156.85 182.443L155.454 181.245C155.316 181.126 155.302 180.927 155.415 180.795C155.527 180.663 155.732 180.649 155.865 180.768L157.26 181.966C157.392 182.086 157.412 182.284 157.3 182.417Z" fill="#3454A1"/>
<path d="M156.433 181.272C156.301 181.424 156.169 181.576 156.03 181.722L161.904 191.048L166.534 185.633L156.433 181.265V181.272Z" fill="#7298FA"/>
<path d="M199.037 212.732C198.805 213.003 198.382 213.03 198.104 212.791L184.73 201.327C184.445 201.082 184.406 200.665 184.644 200.394C184.875 200.123 185.299 200.096 185.583 200.334L198.957 211.792C199.242 212.037 199.275 212.454 199.043 212.725L199.037 212.732Z" fill="#2C285B"/>
<path d="M196.883 211.284L191.901 217.107L192.72 217.808L197.702 211.986L196.883 211.284Z" fill="#2C285B"/>
<g opacity="0.8">
<path d="M139.573 104.259C142.98 116.391 146.234 171.263 146.234 171.263C149.978 174.262 199.744 172.084 201.974 169.86C201.974 169.86 200.055 116.391 197.82 104.027C196.226 95.2038 139.573 104.259 139.573 104.259Z" fill="#CDD2FF"/>
</g>
<path d="M143.78 100.049C147.186 112.182 150.441 167.054 150.441 167.054C154.184 170.052 203.958 167.881 206.18 165.651C206.18 165.651 204.262 112.182 202.026 99.8173C200.432 90.9941 143.78 100.049 143.78 100.049Z" fill="white"/>
<path d="M153.602 115.16C164.946 114.558 176.29 113.876 187.647 113.578C190.868 113.492 194.089 113.439 197.31 113.42C198.534 113.413 198.534 111.507 197.31 111.52C186.185 111.599 175.079 112.109 163.967 112.705C160.514 112.89 157.055 113.075 153.602 113.261C152.385 113.327 152.379 115.227 153.602 115.16Z" fill="#CDD2FF"/>
<path d="M154.595 123.262C165.528 122.547 176.449 121.68 187.402 121.369C190.729 121.276 194.049 121.23 197.377 121.23C198.6 121.23 198.6 119.324 197.377 119.33C186.364 119.33 175.377 119.953 164.39 120.7C161.123 120.926 157.855 121.151 154.588 121.362C153.371 121.442 153.364 123.348 154.588 123.262H154.595Z" fill="#CDD2FF"/>
<path d="M155.024 130.093C166.143 129.947 177.222 128.895 188.328 128.518C191.437 128.412 194.546 128.365 197.654 128.412C198.878 128.432 198.878 126.525 197.654 126.512C186.701 126.36 175.781 127.353 164.847 127.882C161.573 128.041 158.299 128.154 155.024 128.193C153.801 128.207 153.801 130.113 155.024 130.093Z" fill="#CDD2FF"/>
<path d="M155.765 137.248C162.876 137.162 169.953 136.229 177.064 136.216C178.287 136.216 178.287 134.309 177.064 134.316C169.947 134.329 162.876 135.262 155.765 135.348C154.542 135.362 154.542 137.268 155.765 137.248Z" fill="#CDD2FF"/>
<path d="M156.691 144.562C167.506 144.251 178.307 143.516 189.122 143.258C192.257 143.185 195.392 143.152 198.527 143.172C199.751 143.179 199.751 141.279 198.527 141.273C187.706 141.193 176.898 141.829 166.084 142.305C162.949 142.444 159.82 142.57 156.685 142.656C155.461 142.689 155.461 144.595 156.685 144.556L156.691 144.562Z" fill="#CDD2FF"/>
<path d="M156.341 151.466C167.618 150.718 178.916 150.122 190.22 149.924C193.481 149.864 196.748 149.838 200.009 149.844C201.233 149.844 201.233 147.945 200.009 147.945C188.698 147.918 177.394 148.322 166.104 148.964C162.849 149.149 159.595 149.354 156.341 149.566C155.124 149.646 155.117 151.552 156.341 151.466Z" fill="#CDD2FF"/>
<path d="M154.171 118.668C165.297 118.007 176.422 117.378 187.561 117.093C190.808 117.007 194.063 116.954 197.31 116.934C198.534 116.928 198.534 115.021 197.31 115.035C186.132 115.114 174.96 115.597 163.795 116.219C160.587 116.398 157.379 116.59 154.171 116.775C152.954 116.848 152.948 118.748 154.171 118.675V118.668Z" fill="#CDD2FF"/>
<path d="M154.416 126.783C165.588 126.433 176.726 125.499 187.891 125.029C191.285 124.884 194.678 124.791 198.071 124.745C199.295 124.731 199.295 122.825 198.071 122.845C186.82 122.991 175.615 123.858 164.384 124.453C161.063 124.632 157.736 124.778 154.416 124.884C153.192 124.923 153.192 126.823 154.416 126.783Z" fill="#CDD2FF"/>
<path d="M155.56 133.628C166.679 133.297 177.765 132.284 188.89 131.973C191.992 131.887 195.101 131.867 198.21 131.926C199.434 131.953 199.434 130.047 198.21 130.027C187.29 129.808 176.396 130.709 165.502 131.298C162.195 131.476 158.881 131.629 155.567 131.728C154.343 131.761 154.343 133.667 155.567 133.628H155.56Z" fill="#CDD2FF"/>
<path d="M156.341 140.75C163.259 140.657 170.145 139.737 177.064 139.724C178.287 139.724 178.287 137.817 177.064 137.824C170.138 137.837 163.259 138.757 156.341 138.85C155.117 138.863 155.117 140.769 156.341 140.75Z" fill="#CDD2FF"/>
<path d="M156.691 148.07C167.817 147.746 178.929 146.985 190.061 146.746C193.262 146.68 196.464 146.654 199.672 146.694C200.895 146.707 200.895 144.807 199.672 144.794C188.533 144.661 177.414 145.31 166.289 145.807C163.094 145.946 159.893 146.078 156.691 146.171C155.468 146.204 155.468 148.11 156.691 148.07Z" fill="#CDD2FF"/>
<path d="M156.903 154.941C167.982 154.2 179.068 153.597 190.173 153.418C193.408 153.366 196.642 153.346 199.877 153.366C201.1 153.366 201.1 151.466 199.877 151.466C188.765 151.413 177.666 151.803 166.573 152.439C163.352 152.624 160.124 152.829 156.903 153.048C155.686 153.127 155.679 155.034 156.903 154.947V154.941Z" fill="#CDD2FF"/>
<path d="M183.784 159.217C183.136 160.051 182.236 161.222 182.461 162.361C182.613 163.142 183.321 163.526 184.055 163.612C185.768 163.817 188.057 162.864 188.831 161.249C189.36 160.137 188.903 159.025 188.136 158.164C188.017 158.025 187.766 158.032 187.64 158.164C186.84 159.051 185.98 160.249 186.218 161.52C186.383 162.401 187.085 163.036 187.925 163.301C190.074 163.976 191.86 162.314 191.748 160.17L191.305 160.507C191.847 160.627 192.376 160.68 192.892 160.428C193.037 160.355 193.203 160.203 193.362 160.183C193.732 160.143 194.155 160.627 194.215 160.964C194.261 161.216 194.638 161.315 194.804 161.116C195.326 160.494 195.941 159.965 196.794 159.991C197.568 160.018 198.289 160.435 198.938 160.819C199.328 161.05 199.678 160.441 199.295 160.21C198.488 159.733 197.582 159.256 196.616 159.29C195.65 159.323 194.903 159.912 194.307 160.62L194.896 160.772C194.797 160.19 194.116 159.495 193.507 159.462C193.256 159.448 193.031 159.554 192.813 159.66C192.343 159.899 192.039 159.945 191.496 159.826C191.285 159.779 191.04 159.925 191.053 160.163C191.139 161.818 189.915 163.115 188.216 162.645C187.614 162.48 187.065 162.063 186.926 161.428C186.701 160.395 187.501 159.369 188.149 158.661H187.653C188.89 160.038 188.302 161.474 186.8 162.301C186.053 162.718 183.784 163.559 183.222 162.414C182.805 161.56 183.824 160.316 184.293 159.713C184.564 159.362 184.075 158.859 183.797 159.217H183.784Z" fill="#3454A1"/>
<path d="M158.1 159.376C157.77 160.435 157.736 161.52 157.736 162.626C157.736 162.811 157.895 162.976 158.087 162.976C160.078 162.95 162.347 162.116 161.93 159.726C161.877 159.442 161.407 159.376 161.288 159.64C160.878 160.554 160.845 161.58 160.554 162.533C160.448 162.864 160.905 163.129 161.143 162.877C161.566 162.434 161.91 161.911 162.247 161.401L161.698 161.474C162.082 161.851 162.624 162.381 163.22 162.255C163.974 162.096 164.199 161.282 164.649 160.772L164.053 160.527C164.08 160.925 164.199 161.289 164.351 161.653C164.477 161.95 164.721 162.301 164.754 162.632C164.787 162.937 165.244 163.155 165.409 162.811C165.68 162.242 165.839 161.626 166.11 161.057L165.561 161.13C165.892 161.461 166.54 162.169 167.076 161.858C167.274 161.745 167.433 161.434 167.572 161.262C167.823 160.944 168.081 160.686 168.439 160.481L167.956 160.355C168.24 160.878 168.604 161.302 169.166 161.527C169.609 161.706 170.105 161.686 170.535 161.884C170.945 162.07 171.303 161.461 170.893 161.275C170.549 161.123 170.198 161.077 169.834 160.997C169.226 160.858 168.868 160.547 168.564 159.998C168.472 159.832 168.247 159.779 168.081 159.872C167.44 160.236 167.096 160.805 166.606 161.328L166.95 161.236C166.56 161.176 166.315 160.885 166.051 160.627C165.899 160.481 165.601 160.488 165.502 160.699C165.231 161.269 165.072 161.884 164.801 162.454L165.455 162.632C165.376 161.891 164.801 161.289 164.754 160.527C164.741 160.243 164.371 160.038 164.159 160.282C163.855 160.627 163.689 161.15 163.319 161.428C162.902 161.752 162.499 161.282 162.195 160.984C162.029 160.819 161.771 160.865 161.646 161.057C161.341 161.514 161.03 161.99 160.647 162.387L161.235 162.732C161.513 161.845 161.52 160.858 161.904 160.011L161.262 159.925C161.586 161.805 159.542 162.268 158.094 162.288L158.444 162.639C158.444 161.6 158.471 160.58 158.782 159.574C158.914 159.144 158.239 158.959 158.107 159.389L158.1 159.376Z" fill="#3454A1"/>
<path d="M161.943 164.38C165.489 164.386 169.047 164.697 172.553 164.016C172.996 163.93 172.811 163.254 172.368 163.341C168.928 164.009 165.422 163.685 161.943 163.678C161.493 163.678 161.493 164.38 161.943 164.38Z" fill="#3454A1"/>
<path d="M60.0813 224.653C60.0813 207.291 57.4554 182.661 61.0007 165.955C64.5527 149.248 72.2915 146.727 92.6837 147.23C116.879 146.727 123.97 151.876 126.602 167.663C129.228 183.449 127.39 211.494 127.39 224.646" fill="#80217E"/>
<path d="M97.7834 162.447C100.039 162.447 100.046 158.939 97.7834 158.939C95.5213 158.939 95.5213 162.447 97.7834 162.447Z" fill="#60195F"/>
<path d="M97.7834 169.906C100.039 169.906 100.046 166.398 97.7834 166.398C95.5213 166.398 95.5213 169.906 97.7834 169.906Z" fill="#60195F"/>
<path d="M97.7834 177.36C100.039 177.36 100.046 173.851 97.7834 173.851C95.5213 173.851 95.5213 177.36 97.7834 177.36Z" fill="#60195F"/>
<path d="M97.7834 184.813C100.039 184.813 100.046 181.305 97.7834 181.305C95.5213 181.305 95.5213 184.813 97.7834 184.813Z" fill="#60195F"/>
<path d="M97.7834 192.266C100.039 192.266 100.046 188.758 97.7834 188.758C95.5213 188.758 95.5213 192.266 97.7834 192.266Z" fill="#60195F"/>
<path d="M97.7834 199.725C100.039 199.725 100.046 196.217 97.7834 196.217C95.5213 196.217 95.5213 199.725 97.7834 199.725Z" fill="#60195F"/>
<path d="M97.7834 207.178C100.039 207.178 100.046 203.67 97.7834 203.67C95.5213 203.67 95.5213 207.178 97.7834 207.178Z" fill="#60195F"/>
<path d="M97.7834 214.632C100.039 214.632 100.046 211.123 97.7834 211.123C95.5213 211.123 95.5213 214.632 97.7834 214.632Z" fill="#60195F"/>
<path d="M97.7834 222.085C100.039 222.085 100.046 218.576 97.7834 218.576C95.5213 218.576 95.5213 222.085 97.7834 222.085Z" fill="#60195F"/>
<path d="M92.8425 156.483V223.839C92.8425 224.785 94.3175 224.792 94.3175 223.839V171.184C94.3175 166.286 94.3175 161.381 94.3175 156.483C94.3175 155.537 92.8425 155.53 92.8425 156.483Z" fill="#60195F"/>
<path d="M94.1588 156.311C90.4216 152.101 87.7296 149.685 83.8734 144.615C82.0015 147.422 78.2643 154.206 78.2643 157.476C84.2239 157.622 94.1588 156.304 94.1588 156.304" fill="#60195F"/>
<path d="M92.9946 156.311C96.7318 152.101 99.4238 149.685 103.28 144.615C105.152 147.422 108.889 154.206 108.889 157.476C102.929 157.622 92.9946 156.304 92.9946 156.304" fill="#60195F"/>
<path d="M72.7744 97.0836C70.4395 119.595 66.5106 142.206 94.9393 142.206C119.995 142.206 117.759 116.438 113.85 97.0836" fill="#EFB59B"/>
<path d="M84.8126 136.904V150.188C84.8126 157.701 102.341 157.701 102.341 150.188V136.904C102.341 129.391 84.8126 129.391 84.8126 136.904Z" fill="#EFB59B"/>
<path d="M71.6169 116.497C68.7661 115.789 65.9153 116.332 65.9153 119.595C65.9153 122.858 68.9315 123.944 71.9476 122.858" fill="#EFB59B"/>
<path d="M115.795 116.497C118.645 115.789 121.503 116.332 121.503 119.595C121.503 122.858 118.487 123.944 115.47 122.858" fill="#EFB59B"/>
<path d="M82.8019 115.677C82.8085 116.954 83.4368 118.159 84.687 118.602C85.7188 118.966 86.9359 118.629 87.6238 117.775C88.1066 117.179 88.3116 116.438 88.3116 115.677C88.3116 115.035 87.3261 115.035 87.3195 115.677C87.3195 116.008 87.3063 116.14 87.2137 116.451C87.1938 116.511 87.1806 116.564 87.1607 116.623C87.1475 116.65 87.1409 116.676 87.1277 116.703C87.0946 116.782 87.1806 116.603 87.1144 116.722C87.0615 116.828 87.0086 116.928 86.9425 117.027C86.9226 117.053 86.9028 117.08 86.8829 117.106C86.8962 117.093 86.9491 117.027 86.8829 117.1C86.8499 117.139 86.8168 117.179 86.7837 117.219C86.7506 117.259 86.711 117.292 86.6779 117.325C86.6514 117.351 86.5059 117.464 86.6051 117.391C86.5258 117.451 86.4464 117.503 86.3538 117.55C86.3141 117.576 86.2678 117.596 86.2215 117.616C86.1421 117.656 86.2215 117.616 86.2413 117.609C86.2083 117.623 86.1752 117.636 86.1421 117.649C86.0495 117.682 85.9569 117.709 85.8643 117.729C85.8379 117.729 85.8048 117.735 85.7783 117.742C85.7122 117.755 85.8709 117.735 85.8048 117.742C85.7519 117.742 85.699 117.755 85.646 117.755C85.5468 117.755 85.441 117.755 85.3418 117.748C85.2227 117.748 85.4212 117.768 85.2756 117.735C85.2227 117.722 85.1698 117.715 85.1169 117.702C85.0706 117.689 85.0243 117.676 84.978 117.662C84.9449 117.649 84.7928 117.583 84.9118 117.642C84.8126 117.596 84.7134 117.543 84.6208 117.484C84.5811 117.457 84.5414 117.431 84.5018 117.398C84.5877 117.464 84.4819 117.384 84.4555 117.358C84.3695 117.278 84.2901 117.199 84.2173 117.106C84.2041 117.086 84.1644 117.034 84.2173 117.113C84.1909 117.08 84.171 117.047 84.1512 117.014C84.1181 116.961 84.085 116.908 84.0586 116.855C84.0387 116.822 83.966 116.676 83.9792 116.703C83.9924 116.729 83.9395 116.597 83.9263 116.557C83.88 116.411 83.8403 116.259 83.8139 116.107C83.8139 116.094 83.8006 116.008 83.8139 116.094C83.8139 116.041 83.8006 115.994 83.8006 115.941C83.8006 115.855 83.794 115.763 83.794 115.677C83.794 115.041 82.7952 115.035 82.8019 115.677Z" fill="#2C285B"/>
<path d="M103.624 115.677C103.624 116.008 103.611 116.14 103.518 116.451C103.498 116.511 103.485 116.564 103.465 116.623C103.452 116.65 103.445 116.676 103.432 116.703C103.399 116.782 103.485 116.603 103.419 116.722C103.366 116.828 103.313 116.928 103.247 117.027C103.227 117.053 103.207 117.08 103.187 117.106C103.201 117.093 103.254 117.027 103.187 117.1C103.154 117.139 103.121 117.179 103.088 117.219C103.055 117.259 103.015 117.292 102.982 117.325C102.956 117.351 102.81 117.464 102.91 117.391C102.83 117.451 102.751 117.503 102.658 117.55C102.619 117.576 102.572 117.596 102.526 117.616C102.447 117.656 102.526 117.616 102.546 117.609C102.513 117.623 102.48 117.636 102.447 117.649C102.354 117.682 102.261 117.709 102.169 117.729C102.142 117.729 102.109 117.735 102.083 117.742C102.017 117.755 102.175 117.735 102.109 117.742C102.056 117.742 102.003 117.755 101.951 117.755C101.851 117.755 101.746 117.755 101.646 117.748C101.527 117.748 101.726 117.768 101.58 117.735C101.527 117.722 101.474 117.715 101.421 117.702C101.375 117.689 101.329 117.676 101.282 117.662C101.249 117.649 101.097 117.583 101.216 117.642C101.117 117.596 101.018 117.543 100.925 117.484C100.886 117.457 100.846 117.431 100.806 117.398C100.892 117.464 100.786 117.384 100.76 117.358C100.674 117.278 100.595 117.199 100.522 117.106C100.509 117.086 100.469 117.034 100.522 117.113C100.495 117.08 100.476 117.047 100.456 117.014C100.423 116.961 100.39 116.908 100.363 116.855C100.343 116.822 100.27 116.676 100.284 116.703C100.297 116.729 100.244 116.597 100.231 116.557C100.185 116.411 100.145 116.259 100.118 116.107C100.118 116.094 100.105 116.008 100.118 116.094C100.118 116.041 100.105 115.994 100.105 115.941C100.105 115.855 100.099 115.763 100.099 115.677C100.099 115.041 99.0997 115.035 99.1064 115.677C99.113 116.954 99.7413 118.159 100.991 118.602C102.023 118.966 103.24 118.629 103.928 117.775C104.411 117.179 104.616 116.438 104.616 115.677C104.616 115.035 103.631 115.035 103.624 115.677Z" fill="#2C285B"/>
<path d="M93.8082 115.293C94.2448 117.901 94.6747 120.515 95.1113 123.123L95.5081 122.421C94.3043 122.805 93.1071 122.805 91.8967 122.421C91.1955 122.196 90.8979 123.302 91.5924 123.52C92.9748 123.964 94.4234 123.964 95.8058 123.52C96.1233 123.421 96.2555 123.136 96.2026 122.819C95.7661 120.211 95.3295 117.596 94.8996 114.988C94.7805 114.267 93.6825 114.571 93.8016 115.293H93.8082Z" fill="#2C285B"/>
<path d="M90.4084 128.571C92.2009 126.73 95.1972 126.797 97.0096 128.571C97.466 129.021 98.1671 128.319 97.7107 127.869C95.5214 125.718 91.8768 125.645 89.7073 127.869C89.2641 128.326 89.9586 129.027 90.4084 128.571Z" fill="#2C285B"/>
<path d="M79.8518 129.385C81.5583 129.385 83.1921 127.882 83.1127 126.121C83.0333 124.361 81.6774 122.858 79.8518 122.858C78.1453 122.858 76.5115 124.361 76.5909 126.121C76.6703 127.882 78.0262 129.385 79.8518 129.385Z" fill="#E06A8E"/>
<path d="M107.566 129.385C109.273 129.385 110.906 127.882 110.827 126.121C110.748 124.361 109.392 122.858 107.566 122.858C105.86 122.858 104.226 124.361 104.305 126.121C104.385 127.882 105.741 129.385 107.566 129.385Z" fill="#E06A8E"/>
<path d="M115.795 116.497C115.47 122.858 114.498 129.557 110.986 133.363C107.566 136.626 99.576 136.95 93.709 136.95C85.2293 136.95 78.3834 137.275 75.1225 128.796C72.8406 122.924 72.8406 115.743 73.1647 109.223L70.5586 114.115C71.5375 120.641 71.2134 128.471 73.8195 134.342C77.0804 141.848 86.8631 142.821 94.0331 142.497C100.231 142.173 108.909 142.318 112.62 136.95C115.47 132.82 117.541 126.121 117.541 116.967C117.283 116.961 116.052 116.517 115.795 116.497Z" fill="#050505"/>
<path d="M91.1029 137.93C89.9587 130.755 97.6248 130.755 97.3006 137.93H91.1029Z" fill="#050505"/>
<path d="M75.7774 95.1906C70.089 103.729 84.3761 108.687 86.2083 100.737C85.5535 109.216 101.203 110.196 100.879 101.062C100.958 108.157 112.044 108.237 111.31 101.062C114.796 112.811 128.918 100.248 119.79 95.5149C130.551 92.907 122.482 79.0401 114.902 84.097C117.131 75.1679 104.874 70.7993 102.513 80.1852C101.289 70.4816 84.9913 72.1099 86.8631 82.4688C80.8771 72.0636 68.9844 84.9509 78.0594 89.6438" fill="#050505"/>
<path d="M79.6865 91.2787C77.7286 101.068 72.8406 114.445 72.8406 124.559C68.9249 109.388 67.1919 102.107 66.3188 93.8932C65.2605 83.8852 75.1226 78.2325 79.3624 87.3668" fill="#050505"/>
<path d="M110.986 100.082C111.965 105.953 115.464 115.425 115.874 122.918C119.512 114.108 118.917 100.095 117.501 96.4879" fill="#050505"/>
<g opacity="0.5">
<path d="M83.6022 91.9274C83.5692 92.1988 83.5096 92.4702 83.503 92.7349C83.4766 92.9997 83.4964 93.2645 83.5163 93.5226C83.5626 94.0389 83.7279 94.5221 84.0057 94.8994C84.5481 95.6672 85.5072 95.9716 86.4134 95.8856C87.3195 95.826 88.1926 95.409 88.7747 94.7736C89.0724 94.4625 89.3039 94.1051 89.4626 93.7145C89.542 93.5226 89.6081 93.3174 89.6478 93.1056C89.7007 92.9004 89.714 92.6754 89.7404 92.4635C89.8066 91.8943 90.3225 91.4839 90.8913 91.5501C91.3808 91.6097 91.7512 91.9936 91.8041 92.4702L91.8173 92.5761C91.8504 92.8938 91.8769 93.2181 91.9562 93.5226C91.9827 93.6748 92.029 93.8205 92.0687 93.9727C92.1084 94.1249 92.1547 94.2639 92.2208 94.4029C92.2737 94.5419 92.3333 94.6809 92.4126 94.8067C92.4788 94.9391 92.5515 95.0648 92.6375 95.1774C92.7169 95.2965 92.8029 95.4156 92.9021 95.5216C92.9881 95.6341 93.0939 95.7334 93.1997 95.826C93.4048 96.0246 93.6429 96.1901 93.8876 96.3291C94.1324 96.4747 94.397 96.5806 94.6681 96.6799L95.0849 96.799L95.5148 96.8718C95.8058 96.8983 96.0969 96.9116 96.3813 96.8851C96.6723 96.8586 96.9567 96.8189 97.2279 96.7328C97.5057 96.6666 97.7703 96.5541 98.0216 96.4284C98.273 96.3026 98.5045 96.1437 98.7228 95.965C98.9411 95.7863 99.1263 95.5811 99.3048 95.3693L99.5496 95.0251L99.7546 94.6545C99.8737 94.3963 99.9795 94.1249 100.059 93.8337C100.132 93.5425 100.198 93.2512 100.224 92.9401C100.271 92.6356 100.257 92.3113 100.271 91.9936V91.8877C100.297 91.1861 100.886 90.6433 101.587 90.6632C102.123 90.683 102.572 91.0404 102.738 91.517C103.24 92.9865 104.001 94.3566 105.159 95.0648C105.727 95.4156 106.376 95.6142 107.057 95.6341C107.738 95.6539 108.453 95.4752 109.081 95.131C109.709 94.7935 110.278 94.297 110.635 93.6814C110.986 93.0659 111.125 92.351 110.973 91.6229C110.814 90.8948 110.358 90.1998 109.782 89.5975C109.193 88.9952 108.486 88.4855 107.738 88.0222C108.578 88.2737 109.412 88.6113 110.172 89.1275C110.933 89.6306 111.627 90.3388 112.011 91.2854C112.21 91.7487 112.309 92.2716 112.302 92.7945C112.302 93.3174 112.176 93.8403 111.978 94.3169C111.581 95.2766 110.893 96.0974 110.047 96.6799C109.2 97.2624 108.195 97.633 107.136 97.7125C106.078 97.8117 104.967 97.5668 104.028 97.0439C103.082 96.5343 102.308 95.7863 101.712 94.9722C101.104 94.158 100.681 93.2645 100.343 92.3643L102.81 91.8943C102.81 92.3245 102.837 92.7548 102.784 93.1916C102.758 93.6285 102.665 94.072 102.559 94.5022C102.447 94.9391 102.288 95.3693 102.096 95.7863C101.99 95.9915 101.884 96.1967 101.765 96.3953C101.633 96.5872 101.507 96.7858 101.369 96.9711C101.078 97.3352 100.747 97.6794 100.383 97.9772C100.019 98.2685 99.6223 98.5332 99.2056 98.7384C98.7889 98.9502 98.3524 99.1157 97.9092 99.2282C97.466 99.354 97.003 99.4136 96.5466 99.4334C96.0902 99.4599 95.6272 99.4334 95.1775 99.3672C94.7277 99.2944 94.2779 99.1819 93.848 99.023C93.418 98.8509 93.0013 98.6524 92.6177 98.3942C92.234 98.1427 91.8636 97.8515 91.5461 97.5139C91.3808 97.3484 91.2287 97.1763 91.0898 96.991C90.9442 96.8123 90.8186 96.6203 90.6995 96.4217C90.5738 96.2298 90.468 96.0246 90.3754 95.8194C90.2696 95.6142 90.1902 95.4024 90.1241 95.1906C90.0447 94.9788 89.9785 94.767 89.9388 94.5486C89.8859 94.3301 89.833 94.1183 89.8132 93.8999C89.747 93.463 89.747 93.0394 89.7404 92.6092L91.8173 92.7217C91.7512 93.0394 91.6917 93.3571 91.5858 93.6682C91.4932 93.9793 91.3609 94.2838 91.2022 94.575C90.8913 95.1575 90.4746 95.687 89.9653 96.0974C89.456 96.5078 88.8739 96.8123 88.272 97.0042C87.6635 97.1962 87.0285 97.269 86.4068 97.2227C86.0959 97.2028 85.785 97.1366 85.4807 97.0439C85.1765 96.9579 84.8921 96.8189 84.6143 96.6666C84.3497 96.4946 84.0917 96.3026 83.8801 96.0643C83.6618 95.8393 83.4898 95.5679 83.3641 95.2833C83.1062 94.714 83.0532 94.1051 83.1194 93.5358C83.1591 93.2512 83.212 92.9798 83.3112 92.7085C83.384 92.4371 83.5096 92.1988 83.6155 91.9473L83.6022 91.9274Z" fill="#050505"/>
</g>
<path d="M121.245 150.387C101.56 150.387 118.44 178.803 120.544 188.274C106.495 186.05 83.3839 184.065 71.8219 196.694C85.4939 200.904 121.602 215.988 134.216 201.254C143.681 190.73 135.968 154.597 121.245 150.387Z" fill="#EFB59B"/>
<path d="M137.543 170.952C134.242 156.841 127.31 149.222 120.537 149.685C107.103 149.685 110.748 163.618 114.637 175.03C121.536 172.369 130.181 171.237 137.543 170.946V170.952Z" fill="#60195F"/>
<path d="M73.5681 150.387C58.9569 141.392 36.759 186.871 56.7411 201.605C65.1546 208.972 81.2078 201.731 88.9929 199.851C101.243 196.892 109.703 193.848 120.894 189.678C110.873 179.987 83.0333 181.258 67.258 185.468C68.3097 177.049 80.93 158.806 73.5681 150.387Z" fill="#E5A687"/>
<path d="M71.6367 174.884C74.686 166.663 79.0118 156.609 73.5681 150.387C65.7433 145.568 54.6642 152.565 49.8092 169.721C56.8006 170.138 65.2472 171.998 71.6367 174.884Z" fill="#60195F"/>
<path d="M109.233 183.257C111.105 179.048 115.312 175.308 119.981 177.174C119.981 178.108 119.981 179.048 119.512 179.981C124.188 179.048 128.858 180.914 132.602 184.66C126.993 193.08 116.244 195.886 108.763 190.743" fill="#E5A687"/>
<path d="M107.599 182.271C108.069 186.884 110.053 191.743 112.507 194.549" stroke="#3454A1" stroke-width="4.24" stroke-miterlimit="10"/>
<path d="M108.737 191.915C110.569 191.915 112.329 190.3 112.243 188.407C112.157 186.514 110.701 184.899 108.737 184.899C106.905 184.899 105.145 186.514 105.231 188.407C105.317 190.3 106.772 191.915 108.737 191.915Z" fill="#3454A1"/>
<path d="M108.737 191.041C112.13 191.041 112.13 185.779 108.737 185.779C105.344 185.779 105.344 191.041 108.737 191.041Z" fill="#CDD2FF"/>
<path d="M108.135 186.64C108.234 187.176 108.34 187.712 108.439 188.248L108.486 188.48C108.512 188.619 108.677 188.698 108.81 188.665C108.955 188.625 109.021 188.48 108.995 188.341C108.896 187.805 108.79 187.268 108.691 186.732L108.644 186.501C108.618 186.362 108.453 186.282 108.32 186.315C108.175 186.355 108.109 186.501 108.135 186.64Z" fill="#3454A1"/>
<path d="M108.671 188.665C109.233 188.764 109.795 188.87 110.357 188.969L110.602 189.016C110.741 189.042 110.887 188.976 110.926 188.83C110.959 188.705 110.88 188.533 110.741 188.506C110.179 188.407 109.617 188.301 109.054 188.202L108.81 188.155C108.671 188.129 108.525 188.195 108.486 188.341C108.453 188.466 108.532 188.639 108.671 188.665Z" fill="#3454A1"/>
<path d="M108.737 189.109C109.637 189.109 109.643 187.705 108.737 187.705C107.831 187.705 107.831 189.109 108.737 189.109Z" fill="#2C285B"/>
<path d="M229.516 105.391C229.516 115.829 229.192 119.092 222.015 126.267C214.514 134.097 215.818 143.556 224.297 148.454C236.362 155.305 260.16 154.981 273.528 152.697C289.178 150.089 287.22 139.32 284.938 127.578C282.98 115.829 284.938 103.762 283.959 92.0134C282.98 82.8791 271.894 79.2916 267.331 88.4259" fill="#050505"/>
<path d="M222.743 224.653C222.743 207.291 220.117 182.661 223.662 165.955C227.214 149.248 234.953 146.727 255.345 147.23C279.541 146.727 286.631 151.876 289.264 167.663C291.89 183.449 290.051 211.494 290.051 224.646" fill="#7298FA"/>
<path d="M228.57 150.387C248.255 150.387 232.777 178.803 230.673 188.274C244.722 186.05 266.431 184.065 278 196.694C264.328 200.904 228.22 215.988 215.606 201.254C206.141 190.73 213.853 154.597 228.577 150.387" fill="#E5A687"/>
<path d="M236.904 174.063C240.622 162.884 242.328 148.99 229.278 148.99C221.539 147.958 215.864 159.839 212.927 168.814C220.19 169.529 230.363 170.787 236.904 174.063Z" fill="#3454A1"/>
<path d="M276.948 151.089C291.559 142.093 313.056 186.871 293.074 201.605C284.66 208.972 271.418 201.718 263.626 199.851C250.272 196.654 241.541 192.484 231.024 190.379C236.607 178.18 269.56 182.271 281.856 184.065C280.804 175.645 269.586 159.508 276.948 151.089Z" fill="#EFB59B"/>
<path d="M300.105 170.012C293.927 152.399 284.131 145.535 276.247 150.387C271.015 156.371 274.811 165.889 277.821 173.918C279.759 173.58 298.18 170.469 300.098 170.012" fill="#3454A1"/>
<path d="M240.582 183.257C238.71 179.047 234.503 175.308 229.833 177.174C229.833 178.108 229.833 179.047 230.303 179.981C225.627 179.047 220.957 180.914 217.213 184.66C222.822 193.08 233.571 195.886 241.051 190.743" fill="#EFB59B"/>
<path d="M241.885 185.978C241.944 187.904 241.521 189.777 240.701 191.491" stroke="white" stroke-width="5.3" stroke-linecap="round" stroke-linejoin="round"/>
<path d="M234.993 97.5006C232.658 120.012 228.729 142.623 257.164 142.623C282.22 142.623 279.984 116.855 276.068 97.5006" fill="#EFB59B"/>
<path d="M247.474 136.904V150.188C247.474 157.701 265.002 157.701 265.002 150.188V136.904C265.002 129.391 247.474 129.391 247.474 136.904Z" fill="#EFB59B"/>
<path d="M233.835 116.914C230.984 116.206 228.127 116.749 228.127 120.012C228.127 123.275 231.143 124.361 234.159 123.275" fill="#EFB59B"/>
<path d="M278.013 116.914C280.864 116.206 283.714 116.749 283.714 120.012C283.714 123.275 280.698 124.361 277.682 123.275" fill="#EFB59B"/>
<path d="M275.486 86.4666C278.747 104.411 256.251 108.978 243.538 108.654C244.842 107.025 246.145 105.066 246.475 102.783C239.305 106.046 233.432 108.654 224.959 108.005C228.868 96.2629 229.198 78.6429 243.538 75.0554C253.321 72.7718 273.211 72.7718 272.88 86.7976" fill="#050505"/>
<path d="M270.274 97.5602C271.901 105.391 274.957 132.674 277.12 142.259C278.919 134.091 283.218 91.2986 277.444 89.4055" fill="#050505"/>
<path d="M238.32 101.154C236.362 107.356 236.038 137.692 236.038 143.894C231.143 134.759 230.819 105.397 233.101 100.499" fill="#050505"/>
<g opacity="0.5">
<path d="M235.39 90.3851C235.423 90.8882 235.429 91.3912 235.416 91.9009C235.39 92.4105 235.35 92.9202 235.27 93.4233C235.118 94.4294 234.88 95.4288 234.589 96.4085C233.987 98.3611 233.227 100.248 232.466 102.101L231.633 101.101C233.174 100.645 234.675 99.996 236.137 99.301C237.599 98.5994 239.014 97.7985 240.357 96.9115C241.7 96.0179 242.989 95.0648 244.14 93.9859C244.716 93.4497 245.252 92.8805 245.741 92.2848C246.231 91.6891 246.654 91.0669 247.018 90.4248L247.044 90.3785C247.381 89.7828 248.135 89.571 248.731 89.9085C249.095 90.1137 249.319 90.491 249.353 90.8815L249.445 91.9803V93.0658L249.386 94.1315L249.26 95.1839C249.154 95.8789 249.028 96.5607 248.883 97.2358C248.731 97.911 248.565 98.5729 248.38 99.2282L246.846 97.5999C247.17 97.5138 247.5 97.4146 247.831 97.2756C247.997 97.1961 248.162 97.1432 248.327 97.0505C248.493 96.9645 248.658 96.8916 248.823 96.7857C249.485 96.4151 250.126 95.9584 250.755 95.4619C252.012 94.4691 253.189 93.3041 254.399 92.1193L254.479 92.0399C254.948 91.5765 255.709 91.5832 256.172 92.0597C256.39 92.2848 256.503 92.5694 256.509 92.8606C256.516 93.132 256.542 93.4166 256.529 93.688C256.503 93.9528 256.503 94.2242 256.45 94.4757C256.37 94.9854 256.258 95.4752 256.112 95.9319C255.974 96.3952 255.802 96.8387 255.63 97.2756C255.451 97.7124 255.259 98.1294 255.067 98.5398C254.287 100.181 253.367 101.704 252.633 103.206L251.879 101.783C252.223 101.843 252.574 101.889 252.951 101.876C253.321 101.876 253.698 101.829 254.075 101.763C254.836 101.624 255.603 101.366 256.351 101.062C257.859 100.433 259.287 99.5327 260.623 98.5133C261.973 97.5006 263.21 96.329 264.328 95.0449C264.883 94.4029 265.406 93.7277 265.869 93.0063C266.1 92.6488 266.325 92.2848 266.517 91.9009C266.722 91.5236 266.881 91.1198 267.026 90.7161C266.715 92.4304 265.875 94.0322 264.903 95.4884C264.414 96.2231 263.865 96.9181 263.289 97.5866C262.714 98.2552 262.098 98.8972 261.45 99.4996C260.141 100.698 258.699 101.777 257.078 102.617C256.265 103.041 255.398 103.385 254.472 103.61C254.009 103.723 253.533 103.809 253.037 103.842C252.547 103.888 252.038 103.855 251.522 103.795C250.986 103.729 250.603 103.239 250.669 102.703C250.682 102.617 250.702 102.531 250.735 102.452L250.768 102.372C251.476 100.671 252.309 99.1355 252.984 97.58C253.149 97.1895 253.315 96.8056 253.453 96.4217C253.599 96.0378 253.725 95.6539 253.824 95.27C253.93 94.8927 254.002 94.5154 254.042 94.158C254.075 93.9726 254.062 93.8072 254.075 93.6285C254.075 93.4564 254.049 93.3041 254.049 93.1386L256.159 93.88C254.975 95.0979 253.744 96.329 252.355 97.4609C251.661 98.0235 250.927 98.5597 250.113 99.0362C249.915 99.162 249.696 99.2613 249.491 99.3738C249.286 99.4863 249.055 99.579 248.837 99.6783C248.387 99.8702 247.911 100.029 247.408 100.142C246.713 100.307 246.019 99.8702 245.854 99.1752C245.801 98.9568 245.807 98.7317 245.867 98.5266V98.5133C246.052 97.8977 246.217 97.2822 246.363 96.66C246.508 96.0444 246.627 95.4288 246.727 94.8133L246.846 93.8932L246.912 92.9798V92.0796L246.859 91.1993L249.194 91.656C248.962 92.0531 248.711 92.4436 248.44 92.8143C248.169 93.1784 247.884 93.5358 247.586 93.8667C246.998 94.5419 246.363 95.1575 245.701 95.7333C244.378 96.8784 242.963 97.8845 241.475 98.7384C239.987 99.5988 238.452 100.347 236.871 100.995C235.29 101.638 233.657 102.154 231.976 102.511L231.93 102.524C231.547 102.604 231.17 102.366 231.09 101.982C231.057 101.816 231.077 101.657 231.15 101.518C232.049 99.7114 233.022 97.9639 233.795 96.1371C234.192 95.2236 234.549 94.297 234.821 93.3438C234.953 92.8673 235.079 92.3841 235.178 91.8943C235.27 91.4044 235.343 90.908 235.39 90.405V90.3851Z" fill="#050505"/>
</g>
<path d="M245.675 116.094C245.682 117.371 246.31 118.576 247.56 119.019C248.592 119.383 249.809 119.046 250.497 118.192C250.98 117.596 251.185 116.855 251.185 116.094C251.185 115.452 250.199 115.452 250.193 116.094C250.193 116.425 250.179 116.557 250.087 116.868C250.067 116.928 250.054 116.981 250.034 117.04C250.021 117.067 250.014 117.093 250.001 117.12C249.968 117.199 250.054 117.02 249.988 117.139C249.935 117.245 249.882 117.345 249.816 117.444C249.796 117.47 249.776 117.497 249.756 117.523C249.769 117.51 249.822 117.444 249.756 117.517C249.723 117.556 249.69 117.596 249.657 117.636C249.624 117.676 249.584 117.709 249.551 117.742C249.524 117.768 249.379 117.881 249.478 117.808C249.399 117.868 249.319 117.92 249.227 117.967C249.187 117.993 249.141 118.013 249.095 118.033C249.015 118.073 249.095 118.033 249.114 118.026C249.081 118.04 249.048 118.053 249.015 118.066C248.923 118.099 248.83 118.126 248.737 118.146C248.711 118.146 248.678 118.152 248.651 118.159C248.585 118.172 248.744 118.152 248.678 118.159C248.625 118.159 248.572 118.172 248.519 118.172C248.42 118.172 248.314 118.172 248.215 118.165C248.096 118.165 248.294 118.185 248.149 118.152C248.096 118.139 248.043 118.132 247.99 118.119C247.944 118.106 247.897 118.093 247.851 118.079C247.818 118.066 247.666 118 247.785 118.059C247.686 118.013 247.586 117.96 247.494 117.901C247.454 117.874 247.414 117.848 247.375 117.815C247.461 117.881 247.355 117.801 247.328 117.775C247.243 117.695 247.163 117.616 247.09 117.523C247.077 117.503 247.037 117.451 247.09 117.53C247.064 117.497 247.044 117.464 247.024 117.431C246.991 117.378 246.958 117.325 246.932 117.272C246.912 117.239 246.839 117.093 246.852 117.12C246.866 117.146 246.813 117.014 246.799 116.974C246.753 116.828 246.713 116.676 246.687 116.524C246.687 116.511 246.674 116.425 246.687 116.511C246.687 116.458 246.674 116.411 246.674 116.358C246.674 116.272 246.667 116.18 246.667 116.094C246.667 115.458 245.668 115.452 245.675 116.094Z" fill="#2C285B"/>
<path d="M265.187 116.094C265.187 116.425 265.174 116.557 265.082 116.868C265.062 116.928 265.049 116.981 265.029 117.04C265.015 117.067 265.009 117.093 264.996 117.12C264.963 117.199 265.049 117.02 264.982 117.139C264.929 117.245 264.877 117.345 264.81 117.444C264.791 117.47 264.771 117.497 264.751 117.523C264.764 117.51 264.817 117.444 264.751 117.517C264.718 117.556 264.685 117.596 264.652 117.636C264.619 117.676 264.579 117.709 264.546 117.742C264.519 117.768 264.374 117.881 264.473 117.808C264.394 117.868 264.314 117.92 264.222 117.967C264.182 117.993 264.136 118.013 264.089 118.033C264.01 118.073 264.089 118.033 264.109 118.026C264.076 118.04 264.043 118.053 264.01 118.066C263.917 118.099 263.825 118.126 263.732 118.146C263.706 118.146 263.673 118.152 263.646 118.159C263.58 118.172 263.739 118.152 263.673 118.159C263.62 118.159 263.567 118.172 263.514 118.172C263.415 118.172 263.309 118.172 263.21 118.165C263.091 118.165 263.289 118.185 263.144 118.152C263.091 118.139 263.038 118.132 262.985 118.119C262.939 118.106 262.892 118.093 262.846 118.079C262.813 118.066 262.661 118 262.78 118.059C262.681 118.013 262.581 117.96 262.489 117.901C262.449 117.874 262.409 117.848 262.37 117.815C262.456 117.881 262.35 117.801 262.323 117.775C262.237 117.695 262.158 117.616 262.085 117.523C262.072 117.503 262.032 117.451 262.085 117.53C262.059 117.497 262.039 117.464 262.019 117.431C261.986 117.378 261.953 117.325 261.927 117.272C261.907 117.239 261.834 117.093 261.847 117.12C261.86 117.146 261.807 117.014 261.794 116.974C261.748 116.828 261.708 116.676 261.682 116.524C261.682 116.511 261.669 116.425 261.682 116.511C261.682 116.458 261.669 116.411 261.669 116.358C261.669 116.272 261.662 116.18 261.662 116.094C261.662 115.458 260.663 115.452 260.67 116.094C260.676 117.371 261.305 118.576 262.555 119.019C263.587 119.383 264.804 119.046 265.492 118.192C265.975 117.596 266.18 116.855 266.18 116.094C266.18 115.452 265.194 115.452 265.187 116.094Z" fill="#2C285B"/>
<path d="M256.086 116.504C256.523 118.589 256.952 120.681 257.389 122.766L257.746 122.137C256.536 122.448 255.312 122.448 254.108 122.137C253.473 121.971 253.202 122.958 253.837 123.123C255.219 123.48 256.635 123.48 258.024 123.123C258.302 123.05 258.434 122.759 258.381 122.494C257.945 120.409 257.508 118.318 257.078 116.233C256.946 115.591 255.96 115.862 256.093 116.504H256.086Z" fill="#2C285B"/>
<path d="M252.627 128.326C254.419 126.486 257.416 126.552 259.228 128.326C259.684 128.776 260.385 128.074 259.929 127.624C257.74 125.479 254.095 125.4 251.926 127.624C251.482 128.081 252.177 128.782 252.627 128.326Z" fill="#2C285B"/>
<path d="M242.07 129.802C243.777 129.802 245.41 128.299 245.331 126.538C245.252 124.778 243.896 123.275 242.07 123.275C240.364 123.275 238.73 124.778 238.809 126.538C238.889 128.299 240.244 129.802 242.07 129.802Z" fill="#E688A5"/>
<path d="M269.784 129.802C271.491 129.802 273.125 128.299 273.045 126.538C272.966 124.778 271.61 123.275 269.784 123.275C268.078 123.275 266.444 124.778 266.524 126.538C266.603 128.299 267.959 129.802 269.784 129.802Z" fill="#E688A5"/>
<path d="M232.942 125.294C235.039 125.294 235.046 122.031 232.942 122.031C230.839 122.031 230.839 125.294 232.942 125.294Z" fill="white"/>
<path d="M278.912 125.618C281.009 125.618 281.016 122.355 278.912 122.355C276.809 122.355 276.809 125.618 278.912 125.618Z" fill="white"/>
<path d="M256.238 153.068V172.713" stroke="#8EADFB" stroke-width="13.88" stroke-miterlimit="10"/>
<path d="M256.238 163.678C258.943 163.678 258.95 159.468 256.238 159.468C253.526 159.468 253.526 163.678 256.238 163.678Z" fill="#3454A1"/>
<path d="M256.238 169.814C258.943 169.814 258.95 165.604 256.238 165.604C253.526 165.604 253.526 169.814 256.238 169.814Z" fill="#3454A1"/>
<path d="M245.51 144.906C250.186 147.713 257.31 152.975 257.31 152.975C254.604 165.776 230.065 159.462 245.51 144.906Z" fill="#3454A1"/>
<path d="M266.967 144.906C262.29 147.713 255.167 152.975 255.167 152.975C257.872 165.776 282.411 159.462 266.967 144.906Z" fill="#3454A1"/>
<path d="M156.501 103.058C158.515 102.978 159.861 104.204 159.935 106.084C160.009 107.954 158.764 109.291 156.75 109.371L154.385 109.464L154.136 103.151L156.501 103.058ZM155.87 108.072L156.598 108.044C157.759 107.998 158.416 107.306 158.37 106.145C158.324 104.985 157.614 104.329 156.454 104.375L155.725 104.403L155.87 108.072ZM160.919 109.206L160.67 102.893L162.208 102.833L162.457 109.146L160.919 109.206ZM166.235 107.447L167.621 102.619L169.248 102.555L167.258 108.956L165.334 109.032L162.845 102.807L164.482 102.743L166.235 107.447ZM176.229 105.423C176.304 107.32 174.918 108.717 173.128 108.788C171.339 108.858 169.829 107.576 169.754 105.678C169.679 103.781 171.084 102.392 172.873 102.322C174.672 102.251 176.154 103.525 176.229 105.423ZM171.328 105.616C171.371 106.722 172.048 107.425 173.073 107.385C174.08 107.345 174.708 106.591 174.664 105.485C174.62 104.361 173.935 103.676 172.928 103.716C171.903 103.756 171.284 104.492 171.328 105.616ZM180.378 104.169C180.36 103.702 180.078 103.407 179.502 103.429L178.549 103.467L178.611 105.032L179.564 104.994C180.139 104.971 180.398 104.664 180.378 104.169ZM176.961 102.251L179.542 102.149C181.089 102.088 181.897 102.948 181.94 104.045C181.972 104.836 181.569 105.6 180.609 105.926L182.165 108.368L180.429 108.437L179.022 106.105L178.654 106.12L178.748 108.503L177.21 108.564L176.961 102.251ZM182.691 105.177C182.616 103.289 183.877 101.906 185.738 101.832C187.24 101.773 188.406 102.574 188.82 103.927L187.129 103.993C186.847 103.464 186.36 103.213 185.776 103.236C184.831 103.273 184.211 104 184.255 105.115C184.299 106.23 184.975 106.906 185.919 106.869C186.503 106.846 186.969 106.558 187.209 106.008L188.9 105.941C188.594 107.322 187.494 108.203 185.992 108.262C184.13 108.336 182.765 107.066 182.691 105.177ZM193.544 101.596L193.593 102.829L191.264 102.92L191.314 104.197L193.374 104.116L193.42 105.303L191.361 105.384L191.416 106.769L193.745 106.678L193.793 107.91L189.926 108.062L189.677 101.749L193.544 101.596Z" fill="black"/>
</g>
<g clip-path="url(#clip2_4355_31257)">
<path d="M315.211 24.1861L314.634 25.9186L314.666 25.9275L315.244 24.195L315.211 24.1861Z" fill="white"/>
<path d="M315.244 24.1865L315.212 24.1964L315.863 25.9289L315.895 25.919L315.244 24.1865Z" fill="white"/>
<path d="M315.245 24.1912H315.211V25.9237H315.245V24.1912Z" fill="white"/>
<path d="M315.995 25.8929C315.995 26.1285 315.668 26.3196 315.265 26.3196C314.861 26.3196 314.534 26.1285 314.534 25.8929H315.995Z" fill="white"/>
<path opacity="0.11" d="M314.535 25.9161C314.534 25.9047 314.534 25.9047 314.534 25.8929H315.995C315.989 26.0294 315.921 26.0861 315.869 26.1327L314.535 25.9164V25.9161Z" fill="white"/>
<path d="M315.228 24.2068C315.184 24.2068 315.149 24.1747 315.149 24.1349C315.149 24.0952 315.184 24.063 315.228 24.063C315.272 24.063 315.307 24.0952 315.307 24.1349C315.307 24.1747 315.272 24.2068 315.228 24.2068ZM315.228 24.0938C315.203 24.0938 315.183 24.1121 315.183 24.1349C315.183 24.1577 315.203 24.176 315.228 24.176C315.253 24.176 315.273 24.1577 315.273 24.1349C315.273 24.1121 315.253 24.0938 315.228 24.0938Z" fill="white"/>
<path d="M315.701 23.9017C315.694 23.8875 315.678 23.8654 315.661 23.8675C315.649 23.8689 315.64 23.8779 315.635 23.8875C315.63 23.8972 315.628 23.9079 315.623 23.9179C315.615 23.9373 315.598 23.9539 315.577 23.9629C315.576 23.9635 315.574 23.9642 315.573 23.9649C315.435 23.9867 315.015 24.0416 314.306 23.8675C314.207 23.8433 314.076 23.8109 313.871 23.7784C313.732 23.7563 313.444 23.7169 313.075 23.7138C313.034 23.7134 313.001 23.7138 312.979 23.7138C312.979 23.7708 312.979 23.8278 312.979 23.8851C313.204 23.8858 313.543 23.8979 313.954 23.9566C314.125 23.9812 314.214 23.9946 314.329 24.0185C315.017 24.1632 315.582 24.0665 315.582 24.0665C315.598 24.0648 315.624 24.0596 315.65 24.0423C315.698 24.0091 315.722 23.9452 315.701 23.9021L315.701 23.9017Z" fill="white"/>
<path d="M310.751 24.1873L310.718 24.1962L311.296 25.9288L311.328 25.9199L310.751 24.1873Z" fill="white"/>
<path d="M310.719 24.1859L310.068 25.9185L310.1 25.9284L310.751 24.1959L310.719 24.1859Z" fill="white"/>
<path d="M310.752 24.1912H310.718V25.9237H310.752V24.1912Z" fill="white"/>
<path d="M309.968 25.8929C309.968 26.1285 310.295 26.3196 310.698 26.3196C311.101 26.3196 311.428 26.1285 311.428 25.8929H309.968V25.8929Z" fill="white"/>
<path opacity="0.11" d="M311.428 25.9161C311.429 25.9047 311.428 25.9047 311.428 25.8929H309.968C309.974 26.0294 310.042 26.0861 310.094 26.1327L311.428 25.9164V25.9161Z" fill="white"/>
<path d="M310.735 24.2068C310.779 24.2068 310.814 24.1747 310.814 24.1349C310.814 24.0952 310.779 24.063 310.735 24.063C310.691 24.063 310.656 24.0952 310.656 24.1349C310.656 24.1747 310.691 24.2068 310.735 24.2068ZM310.735 24.0938C310.76 24.0938 310.78 24.1121 310.78 24.1349C310.78 24.1577 310.76 24.176 310.735 24.176C310.71 24.176 310.69 24.1577 310.69 24.1349C310.69 24.1121 310.71 24.0938 310.735 24.0938Z" fill="white"/>
<path d="M310.262 23.9017C310.267 23.8844 310.282 23.8651 310.302 23.8675C310.313 23.8689 310.323 23.8779 310.328 23.8875C310.332 23.8972 310.335 23.9079 310.339 23.9179C310.348 23.9373 310.365 23.9539 310.385 23.9629C310.387 23.9635 310.388 23.9642 310.39 23.9649C310.528 23.9867 310.948 24.0416 311.657 23.8675C311.756 23.8433 311.886 23.8109 312.092 23.7784C312.231 23.7563 312.519 23.7169 312.888 23.7138C312.928 23.7134 312.961 23.7138 312.983 23.7138C312.982 23.7708 312.98 23.8278 312.979 23.8851C312.674 23.8793 312.27 23.8958 311.799 23.986C311.709 24.0033 311.709 24.0029 311.635 24.0185C310.946 24.1632 310.381 24.0665 310.381 24.0665C310.381 24.0665 310.333 24.0551 310.313 24.0423C310.307 24.0378 310.3 24.0326 310.295 24.0271C310.261 23.9943 310.249 23.9452 310.262 23.9021L310.262 23.9017Z" fill="white"/>
</g>
<rect x="307" y="18" width="16" height="16" rx="2" fill="#EABF4E"/>
<path d="M310.198 23.6305C310.253 23.6681 310.301 23.6992 310.347 23.7331C310.752 24.0329 311.213 24.1352 311.725 24.0461C311.773 24.0378 311.819 24.0205 311.864 24.0029C311.902 23.988 311.945 23.9697 311.942 23.9244C311.939 23.8802 311.898 23.8623 311.856 23.8529C311.747 23.8284 311.636 23.8053 311.526 23.7828C311.158 23.7075 310.791 23.6305 310.451 23.4712C309.929 23.2266 309.588 22.8514 309.437 22.335C309.42 22.278 309.413 22.2206 309.421 22.1619C309.431 22.0866 309.473 22.0666 309.545 22.1042C309.647 22.1578 309.729 22.2348 309.818 22.3029C310.327 22.6915 310.91 22.9188 311.576 22.9578C311.622 22.9606 311.701 22.9914 311.71 22.9288C311.717 22.8805 311.634 22.8874 311.591 22.8753C310.986 22.7064 310.399 22.4998 309.891 22.1484C309.283 21.729 308.96 21.1808 309.015 20.4726C309.023 20.3662 309.038 20.2608 309.084 20.1617C309.161 19.9941 309.301 19.9544 309.464 20.0605C309.635 20.1707 309.767 20.3171 309.901 20.4612C310.299 20.891 310.701 21.3176 311.198 21.66C311.807 22.08 312.484 22.3716 313.227 22.5357C313.402 22.5744 313.579 22.6107 313.757 22.6397C313.852 22.6549 313.865 22.6891 313.834 22.7654C313.71 23.066 313.669 23.3765 313.714 23.6951C313.744 23.9117 313.881 24.0599 314.059 24.0785C314.23 24.0965 314.408 23.9732 314.477 23.7614C314.545 23.5517 314.583 23.3341 314.646 23.1226C314.75 22.7661 314.891 22.6884 315.294 22.7585C315.394 22.7758 315.489 22.8103 315.586 22.8394C315.618 22.849 315.657 22.8611 315.664 22.8932C315.69 23 315.787 23.0231 315.88 23.0518C315.949 23.0732 316.013 23.1033 316.034 23.1755C316.042 23.2031 316.037 23.2311 316.01 23.2498C315.982 23.2681 315.961 23.2511 315.939 23.2366C315.792 23.1361 315.636 23.1966 315.484 23.2204C315.452 23.2252 315.437 23.2567 315.437 23.2853C315.44 23.5092 315.452 23.7331 315.609 23.9213C315.7 24.0295 315.814 24.11 315.977 24.0727C316.14 24.0353 316.237 23.932 316.269 23.788C316.347 23.4432 316.296 23.1071 316.171 22.7772C316.127 22.6597 316.129 22.6583 316.27 22.6369C317.166 22.5001 317.99 22.2041 318.726 21.7163C319.196 21.405 319.583 21.0167 319.957 20.616C320.095 20.4671 320.231 20.3151 320.385 20.179C320.423 20.1455 320.461 20.1119 320.503 20.0833C320.703 19.9461 320.872 19.999 320.938 20.2177C321.01 20.4571 321 20.6989 320.961 20.9414C320.88 21.434 320.581 21.8057 320.167 22.1097C319.649 22.4891 319.041 22.6994 318.415 22.8767C318.404 22.8798 318.392 22.8801 318.382 22.885C318.349 22.9008 318.282 22.8901 318.292 22.9409C318.299 22.9779 318.357 22.9661 318.393 22.9641C319.014 22.9319 319.568 22.7381 320.056 22.3875C320.168 22.3067 320.278 22.2231 320.391 22.1429C320.431 22.1146 320.471 22.0669 320.529 22.0983C320.586 22.1298 320.576 22.1882 320.567 22.2386C320.487 22.6666 320.253 23.0097 319.877 23.2767C319.44 23.5873 318.919 23.6996 318.393 23.7984C318.312 23.8136 318.23 23.8281 318.15 23.8474C318.103 23.8588 318.048 23.8744 318.045 23.9279C318.043 23.9814 318.099 24.0011 318.143 24.0157C318.342 24.0803 318.548 24.0944 318.756 24.0754C319.113 24.0426 319.423 23.9134 319.695 23.703C319.721 23.683 319.748 23.6346 319.785 23.665C319.815 23.6895 319.779 23.7289 319.762 23.7576C319.345 24.4665 318.565 24.9356 317.621 24.8617C317.369 24.842 317.118 24.8137 316.866 24.8023C316.355 24.7791 316.016 24.9722 315.815 25.3992C315.776 25.4828 315.727 25.5039 315.634 25.4921C315.199 25.4365 314.762 25.4341 314.326 25.4953C314.249 25.506 314.209 25.4797 314.178 25.4165C313.944 24.9425 313.622 24.7681 313.052 24.7998C312.77 24.8157 312.491 24.8644 312.207 24.8648C311.289 24.8655 310.657 24.4478 310.217 23.7479C310.2 23.7199 310.175 23.6899 310.197 23.6318L310.198 23.6305Z" fill="#151513"/>
<path d="M314.999 27.6304C314.953 27.7157 314.915 27.7972 314.867 27.8729C314.779 28.0111 314.639 28.0881 314.471 28.1251C314.436 28.133 314.394 28.1434 314.368 28.1071C314.345 28.0739 314.376 28.0494 314.396 28.0256C314.425 27.99 314.455 27.9548 314.487 27.9206C314.718 27.6677 314.776 27.3778 314.709 27.0617C314.705 27.0417 314.699 27.0213 314.691 27.0023C314.681 26.9778 314.674 26.9426 314.636 26.9481C314.605 26.9526 314.608 26.9847 314.604 27.0079C314.585 27.1229 314.574 27.2397 314.544 27.3526C314.48 27.6007 314.326 27.7862 314.055 27.8767C314.023 27.8871 313.989 27.8912 313.955 27.8957C313.926 27.8995 313.893 27.9071 313.875 27.876C313.859 27.8494 313.882 27.8301 313.899 27.8131C313.939 27.7724 313.982 27.7333 314.023 27.6943C314.261 27.4708 314.391 27.2044 314.406 26.8935C314.407 26.8631 314.404 26.832 314.399 26.8013C314.396 26.7771 314.387 26.7522 314.354 26.7501C314.328 26.7484 314.312 26.7653 314.302 26.7843C314.277 26.8337 314.25 26.8835 314.229 26.9346C314.165 27.0863 314.081 27.2272 313.975 27.3575C313.875 27.4798 313.74 27.5371 313.573 27.5281C313.521 27.5254 313.463 27.5129 313.442 27.4621C313.418 27.4072 313.465 27.3706 313.504 27.3409C313.685 27.2062 313.872 27.078 314.005 26.899C314.179 26.6659 314.31 26.4182 314.306 26.1276C314.305 26.0575 314.336 26.0216 314.415 26.0105C314.81 25.9552 315.204 25.9646 315.598 26.0105C315.658 26.0174 315.695 26.0457 315.696 26.1045C315.702 26.6192 316.001 26.9851 316.425 27.2873C316.449 27.3043 316.473 27.3205 316.495 27.3395C316.533 27.3723 316.585 27.4038 316.564 27.459C316.541 27.5205 316.475 27.5288 316.413 27.5295C316.266 27.5312 316.143 27.4842 316.047 27.3775C315.917 27.2321 315.831 27.0652 315.755 26.8928C315.745 26.8707 315.736 26.8479 315.724 26.8268C315.705 26.7947 315.694 26.7436 315.645 26.7498C315.585 26.7574 315.598 26.8141 315.598 26.8514C315.597 27.1288 315.692 27.3765 315.886 27.591C315.953 27.6649 316.026 27.7337 316.097 27.8052C316.117 27.8252 316.146 27.8453 316.131 27.8753C316.112 27.9112 316.073 27.9002 316.04 27.8964C315.775 27.8646 315.52 27.6314 315.456 27.3568C315.431 27.2466 315.419 27.1336 315.399 27.022C315.394 26.9944 315.408 26.9512 315.359 26.9502C315.322 26.9495 315.319 26.9875 315.311 27.0123C315.227 27.2756 315.264 27.5281 315.403 27.7679C315.455 27.8587 315.523 27.942 315.6 28.0176C315.625 28.0422 315.659 28.0701 315.637 28.1071C315.611 28.1489 315.563 28.1358 315.525 28.1268C315.296 28.0733 315.14 27.9458 315.06 27.7433C315.046 27.7088 315.048 27.668 314.999 27.6311L314.999 27.6304Z" fill="#151513"/>
<g clip-path="url(#clip3_4355_31257)">
<path d="M309.019 29.4699C309.019 29.4332 309.055 29.4003 309.095 29.4003H309.22C309.26 29.4003 309.296 29.4332 309.296 29.4699V31.8964C309.296 31.933 309.26 31.966 309.22 31.966H309.095C309.055 31.966 309.019 31.933 309.019 31.8964V29.4699Z" fill="#151513"/>
<path d="M310.596 31.035C310.769 31.035 310.938 31.0826 310.938 31.0826C310.942 30.8114 310.906 30.6867 310.677 30.6867C310.448 30.6867 310.267 30.7418 310.195 30.7674C310.155 30.7821 310.131 30.7637 310.119 30.7307L310.087 30.6391C310.071 30.5951 310.095 30.5732 310.131 30.5585C310.155 30.5474 310.388 30.4631 310.689 30.4631C311.098 30.4631 311.198 30.6538 311.198 31.0826V31.8963C311.198 31.933 311.162 31.9659 311.122 31.9659H311.046C311.002 31.9659 310.99 31.944 310.978 31.9109L310.946 31.8119C310.861 31.8889 310.697 32.0026 310.448 32.0026C310.167 32.0026 309.954 31.8156 309.954 31.5224C309.954 31.2292 310.183 31.0349 310.596 31.0349V31.035ZM310.492 31.7827C310.693 31.7827 310.865 31.6692 310.934 31.5775V31.288C310.885 31.2624 310.773 31.2293 310.596 31.2293C310.372 31.2293 310.211 31.332 310.211 31.5225C310.211 31.6692 310.32 31.7827 310.492 31.7827V31.7827Z" fill="#151513"/>
<path d="M311.804 30.5841C311.788 30.5327 311.804 30.4998 311.865 30.4998H311.989C312.025 30.4998 312.053 30.5181 312.061 30.5401L312.354 31.5078H312.358L312.812 30.4998C312.82 30.4814 312.844 30.4631 312.88 30.4631H312.9C312.936 30.4631 312.96 30.4815 312.968 30.4998L313.418 31.5115H313.422L313.711 30.5401C313.719 30.5181 313.747 30.4998 313.779 30.4998H313.903C313.964 30.4998 313.98 30.5327 313.964 30.5841L313.526 31.9659C313.518 31.9879 313.49 32.0026 313.458 32.0026H313.438C313.402 32.0026 313.378 31.9842 313.37 31.9659L312.88 30.8664L312.406 31.9659C312.398 31.9843 312.374 32.0026 312.338 32.0026H312.318C312.282 32.0026 312.258 31.9879 312.25 31.9659L311.804 30.5841H311.804Z" fill="#151513"/>
<path d="M314.525 30.117C314.525 30.018 314.61 29.941 314.714 29.941C314.818 29.941 314.907 30.018 314.907 30.117C314.907 30.216 314.822 30.2893 314.714 30.2893C314.606 30.2893 314.525 30.2123 314.525 30.117ZM314.582 30.5695C314.582 30.5329 314.618 30.4999 314.658 30.4999H314.782C314.822 30.4999 314.858 30.5329 314.858 30.5695V31.8964C314.858 31.933 314.822 31.966 314.782 31.966H314.658C314.618 31.966 314.582 31.933 314.582 31.8964V30.5695Z" fill="white"/>
<path d="M315.629 30.5695C315.629 30.5328 315.665 30.4999 315.705 30.4999H315.782C315.818 30.4999 315.838 30.5146 315.846 30.5439L315.882 30.6575C315.882 30.6575 316.111 30.4631 316.444 30.4631C316.909 30.4631 317.066 30.7418 317.066 31.1229V31.8963C317.066 31.933 317.03 31.9659 316.99 31.9659H316.861C316.821 31.9659 316.785 31.933 316.785 31.8963V31.1229C316.785 30.8443 316.649 30.7088 316.424 30.7088C316.123 30.7088 315.906 30.9177 315.906 30.9177V31.8963C315.906 31.933 315.87 31.9659 315.83 31.9659H315.706C315.665 31.9659 315.629 31.933 315.629 31.8963V30.5695H315.629Z" fill="white"/>
<path d="M317.676 31.8598L318.463 30.7418V30.7308H317.788C317.748 30.7308 317.716 30.6978 317.716 30.6612V30.5695C317.716 30.5292 317.748 30.4999 317.788 30.4999H318.796C318.856 30.4999 318.896 30.5513 318.864 30.5989L318.097 31.7242V31.7352H318.715C318.76 31.7352 318.792 31.7645 318.792 31.8048V31.8965C318.792 31.9331 318.76 31.9661 318.715 31.9661H317.752C317.712 31.9661 317.676 31.9331 317.676 31.8965V31.8599V31.8598Z" fill="white"/>
<path d="M320.164 30.4631C320.61 30.4631 320.963 30.815 320.963 31.2292C320.963 31.6433 320.61 32.0026 320.164 32.0026C319.719 32.0026 319.366 31.6507 319.366 31.2292C319.366 30.8077 319.719 30.4631 320.164 30.4631ZM320.164 31.7644C320.457 31.7644 320.686 31.5261 320.686 31.2292C320.686 30.9323 320.457 30.705 320.164 30.705C319.871 30.705 319.643 30.9396 319.643 31.2292C319.643 31.5187 319.871 31.7644 320.164 31.7644Z" fill="white"/>
</g>
</g>
<defs>
<clipPath id="clip0_4355_31257">
<rect width="350" height="218.75" fill="white"/>
</clipPath>
<clipPath id="clip1_4355_31257">
<rect width="297" height="193" fill="white" transform="translate(27 25.75)"/>
</clipPath>
<clipPath id="clip2_4355_31257">
<rect width="11.9859" height="8.27329" fill="white" transform="translate(307.014 18.0466)"/>
</clipPath>
<clipPath id="clip3_4355_31257">
<rect width="11.9038" height="2.6087" fill="white" transform="translate(309.023 29.3898)"/>
</clipPath>
</defs>
</svg>
