<svg width="350" height="219" viewBox="0 0 350 219" fill="none" xmlns="http://www.w3.org/2000/svg">
<g clip-path="url(#clip0_4355_34100)">
<rect width="350" height="218.75" fill="white"/>
<path opacity="0.5" d="M175.262 105.008L225.441 16L223.73 117.806L312.346 65.442L259.208 152.772L362.525 151.086L272.197 200.528L362.525 249.978L259.208 248.292L312.346 335.614L223.73 283.258L225.441 385.064L175.262 296.048L125.084 385.064L126.795 283.258L38.1787 335.614L91.3166 248.292L-12 249.978L78.3281 200.528L-12 151.086L91.3166 152.772L38.1787 65.442L126.795 117.806L125.084 16L175.262 105.008Z" fill="#FFF0C8"/>
<path d="M70.167 220.332H32.9688C32.9688 220.332 42.2147 192.791 52.1038 181.777C61.993 170.762 72.7442 187.866 72.7442 187.866L63.0695 195.985C63.0695 195.985 58.4259 180.649 53.9102 182.679C49.3944 184.709 68.014 204.392 70.1624 220.337L70.167 220.332Z" fill="#FFD685"/>
<path d="M53.9148 182.675C58.4306 180.645 63.0741 195.98 63.0741 195.98L66.3765 193.213C65.3137 192.191 64.2829 191.027 63.3295 189.74C60.4239 185.818 58.8137 181.575 58.645 178.107C56.5057 178.29 54.2888 179.348 52.1085 181.777C42.2193 192.791 32.9734 220.332 32.9734 220.332H45.9506C41.3344 208.397 42.7576 196.704 49.1436 194.202C52.5965 192.851 56.793 194.464 60.6565 198.12C55.8215 190.056 51.4744 183.774 53.9193 182.675H53.9148Z" fill="#F2BF6D"/>
<path d="M18.053 214.72H8.81157L7.31543 220.332H18.053V214.72Z" fill="#FFBA40"/>
<path d="M19.1933 214.72H15.6309L14.486 220.332H20.3382L19.1933 214.72Z" fill="#FFDA64"/>
<path d="M37.5895 214.72H22.1445L20.6895 220.332H37.5895V214.72Z" fill="#FFBA40"/>
<path d="M38.0273 214.72H34.4649L33.3199 220.332H39.1722L38.0273 214.72Z" fill="#FFDA64"/>
<path d="M30.0449 215.746C32.0225 215.746 33.6256 215.637 33.6256 215.503C33.6256 215.369 32.0225 215.26 30.0449 215.26C28.0674 215.26 26.4642 215.369 26.4642 215.503C26.4642 215.637 28.0674 215.746 30.0449 215.746Z" fill="#FFE69F"/>
<path d="M37.6715 215.503C37.6715 215.37 37.3568 215.26 36.9691 215.26C36.5813 215.26 36.2666 215.37 36.2666 215.503C36.2666 215.636 36.5813 215.746 36.9691 215.746C37.3568 215.746 37.6715 215.636 37.6715 215.503Z" fill="#FFE69F"/>
<path d="M29.3607 209.107H13.9158L12.4607 214.72H29.3607V209.107Z" fill="#FFBA40"/>
<path d="M29.7986 209.107H26.2361L25.0912 214.72H30.9435L29.7986 209.107Z" fill="#FFDA64"/>
<path d="M21.8162 210.133C23.7937 210.133 25.3969 210.025 25.3969 209.89C25.3969 209.756 23.7937 209.648 21.8162 209.648C19.8386 209.648 18.2355 209.756 18.2355 209.89C18.2355 210.025 19.8386 210.133 21.8162 210.133Z" fill="#FFE69F"/>
<path d="M29.4428 209.89C29.4428 209.758 29.128 209.648 28.7403 209.648C28.3526 209.648 28.0378 209.758 28.0378 209.89C28.0378 210.023 28.3526 210.133 28.7403 210.133C29.128 210.133 29.4428 210.023 29.4428 209.89Z" fill="#FFE69F"/>
<path d="M18.6232 215.503C18.6232 215.37 18.3084 215.26 17.9207 215.26C17.533 215.26 17.2183 215.37 17.2183 215.503C17.2183 215.636 17.533 215.746 17.9207 215.746C18.3084 215.746 18.6232 215.636 18.6232 215.503Z" fill="#FFE69F"/>
<path d="M21.1 181.387L14.7049 178.574C13.1768 182.033 11.1835 185.103 5.08948 188.214L8.82527 192.26C19.4305 189.414 21.0954 181.387 21.0954 181.387H21.1Z" fill="#FF85EB"/>
<path d="M15.4986 185.822C15.307 184.86 14.3081 184.292 13.259 184.558C12.2098 184.823 11.5211 185.818 11.7126 186.784C11.9042 187.751 12.9032 188.315 13.9523 188.049C15.0014 187.783 15.6902 186.789 15.4986 185.822Z" fill="#C0C949"/>
<path d="M231.207 52.749L228.051 49.5738C226.573 51.6768 224.803 53.4821 219.973 54.6642L222.002 58.3708C229.118 57.7981 231.207 52.7535 231.207 52.7535V52.749Z" fill="#FF85EB"/>
<path d="M259.807 75.69L257.549 71.8184C255.593 73.4815 253.431 74.7828 248.459 74.7095L249.494 78.8056C256.523 80.0427 259.807 75.6854 259.807 75.6854V75.69Z" fill="#B7AD89"/>
<path d="M245.439 170.166L241.58 167.907C240.686 170.317 239.436 172.521 235.066 174.908L237.972 177.969C244.705 175.587 245.439 170.171 245.439 170.171V170.166Z" fill="#B7AD89"/>
<path d="M184.225 97.6871L184.284 93.2015C181.753 93.6047 179.23 93.5955 175.015 90.9473L173.793 94.993C179.171 99.7076 184.225 97.6871 184.225 97.6871Z" fill="#B7AD89"/>
<path d="M164.036 29.1803L163.183 34.8571C166.463 34.7838 169.66 35.2374 174.55 39.3289L176.799 34.4126C170.796 27.4987 164.032 29.1803 164.032 29.1803H164.036Z" fill="#B7AD89"/>
<path d="M151.178 74.0955L153.157 68.7073C149.932 68.1071 146.89 67.012 142.931 62.0087L139.733 66.366C144.212 74.3612 151.173 74.0955 151.173 74.0955H151.178Z" fill="#B7AD89"/>
<path d="M196.824 68.634L195.213 74.1459C198.47 74.5216 201.581 75.4059 205.869 80.1297L208.765 75.5663C203.752 67.8963 196.828 68.6386 196.828 68.6386L196.824 68.634Z" fill="#B7AD89"/>
<path d="M143.934 67.9742C143.61 68.6706 144.171 69.6236 145.193 70.1047C146.215 70.5812 147.3 70.4071 147.629 69.7107C147.953 69.0143 147.392 68.0613 146.37 67.5802C145.348 67.0991 144.263 67.2778 143.934 67.9742Z" fill="#E1E555"/>
<path d="M105.436 86.1776L107.739 91.4329C110.472 89.6094 113.414 88.2715 119.722 89.1008L119.006 83.7355C110.248 81.1193 105.436 86.1731 105.436 86.1731V86.1776Z" fill="#FF85EB"/>
<path d="M110.581 86.1548C110.499 86.9199 111.338 87.6392 112.456 87.763C113.573 87.8867 114.55 87.3643 114.632 86.5992C114.714 85.834 113.874 85.1147 112.757 84.991C111.639 84.8673 110.663 85.3896 110.581 86.1548Z" fill="#C8D33D"/>
<path d="M234.587 199.65L233.493 205.286C236.772 205.359 239.947 205.946 244.654 210.248L247.113 205.432C241.411 198.262 234.583 199.65 234.583 199.65H234.587Z" fill="#B7AD89"/>
<path d="M238.82 202.578C238.319 203.16 238.597 204.232 239.445 204.974C240.294 205.716 241.388 205.849 241.895 205.267C242.396 204.685 242.118 203.613 241.27 202.871C240.421 202.129 239.327 201.996 238.82 202.578Z" fill="#C8D33D"/>
<path d="M212.259 108.546L213.682 112.798C215.936 111.574 218.321 110.745 223.17 111.84L222.992 107.616C216.365 104.954 212.259 108.546 212.259 108.546Z" fill="#FF85EB"/>
<path d="M208.989 217.606L211.425 221.368C213.304 219.617 215.407 218.215 220.374 218.06L219.152 214.014C212.072 213.102 208.993 217.606 208.993 217.606H208.989Z" fill="#FF85EB"/>
<path d="M200.267 72.1941C199.884 72.8584 200.359 73.8618 201.335 74.4254C202.311 74.9889 203.41 74.9156 203.793 74.2467C204.176 73.5823 203.702 72.5789 202.726 72.0154C201.75 71.4518 200.65 71.5251 200.267 72.1941Z" fill="#E1E555"/>
<path d="M168.032 32.6624C167.909 33.423 168.712 34.1836 169.825 34.3623C170.937 34.541 171.936 34.0736 172.06 33.313C172.183 32.5525 171.38 31.7919 170.267 31.6132C169.154 31.4345 168.155 31.9018 168.036 32.6624H168.032Z" fill="#C8D33D"/>
<path d="M148.322 92.418L151.479 97.206C153.864 94.9472 156.537 93.1282 162.896 92.8716L161.286 87.7079C152.218 86.6221 148.322 92.4226 148.322 92.4226V92.418Z" fill="#FF85EB"/>
<path d="M153.531 90.7365C153.362 91.488 154.115 92.2989 155.214 92.5463C156.314 92.7938 157.34 92.386 157.509 91.6346C157.678 90.8832 156.925 90.0722 155.826 89.8248C154.726 89.5773 153.7 89.9851 153.531 90.7365Z" fill="#E1E555"/>
<path d="M310.562 181.928L311.89 182.533C322.267 169.296 330.007 188.159 330.007 188.159C331.818 184.521 341.621 185.841 341.621 185.841C335.44 169.296 315.183 167.972 310.562 181.928Z" fill="#FFD685"/>
<path d="M312.793 183.073C314.627 183.073 316.113 182.017 316.113 180.714C316.113 179.41 314.627 178.354 312.793 178.354C310.959 178.354 309.472 179.41 309.472 180.714C309.472 182.017 310.959 183.073 312.793 183.073Z" fill="#AA5F44"/>
<path d="M338.118 220.96H272.639C272.639 220.96 301.471 181.68 310.32 180.159C329.962 176.782 338.113 220.96 338.113 220.96H338.118Z" fill="#F2BF6D"/>
<path d="M311.187 180.04C310.503 180.384 309.851 180.791 309.248 181.277C301.708 187.311 303.428 202.083 313.094 214.271C315.128 216.832 317.349 219.072 319.662 220.96H338.118C338.118 220.96 330.204 178.084 311.187 180.04Z" fill="#FFD685"/>
<path d="M311.383 195.22C306.384 189.204 309.385 185.492 311.37 183.037C312.159 182.061 312.838 181.222 312.743 180.599C312.697 180.292 312.446 179.99 311.981 179.678L312.528 178.853C313.24 179.33 313.627 179.852 313.719 180.452C313.878 181.506 313.071 182.505 312.136 183.664C310.143 186.129 307.661 189.199 312.136 194.587L311.379 195.224L311.383 195.22Z" fill="#AA5F44"/>
<path d="M70.3861 86.251L68.639 90.0126C68.639 90.0126 74.9201 91.1397 79.591 85.8294C79.591 85.8294 79.2899 80.9682 77.0229 77.7792C75.0615 81.9991 73.0271 85.6462 70.3861 86.251Z" fill="#FF85EB"/>
<path d="M44.2081 172.544L38.8302 174.556C38.9169 172.036 39.1313 166.812 33.1741 163.129L40.2442 160.238C43.3642 164.109 45.4442 168.114 44.2081 172.549V172.544Z" fill="#B7AD89"/>
<path d="M87.9885 126.694L84.4534 131.079C83.0394 128.761 80.1429 123.936 72.7397 123.45L77.2373 117.458C82.264 119.469 86.4513 122.094 87.9885 126.694Z" fill="#B7AD89"/>
<path d="M97.3074 122.438L97.7498 116.811C100.222 117.92 105.326 120.252 111.708 116.445L111.375 123.941C106.102 125.141 101.162 125.357 97.3074 122.433V122.438Z" fill="#FF85EB"/>
<path d="M45.5491 127.446L49.1572 132.472C51.4242 131.721 55.2375 126.988 55.8898 123.501L52.6558 121.567C50.7947 124.371 48.4502 126.374 45.5446 127.45L45.5491 127.446Z" fill="#FF85EB"/>
<path d="M110.358 155.216C118.477 161.603 123.773 157.594 123.773 157.594L122.942 153.388C118.992 154.808 115.886 152.389 113.382 147.244L110.358 155.216Z" fill="#BCBF49"/>
<path d="M52.9022 126.2C52.8383 125.462 52.0446 124.93 51.1323 125.013C50.2201 125.095 49.5359 125.76 49.5997 126.497C49.6636 127.235 50.4573 127.766 51.3695 127.684C52.2818 127.602 52.966 126.937 52.9022 126.2Z" fill="#D3D357"/>
<path d="M42.046 166.565C41.9821 165.827 41.1884 165.296 40.2761 165.378C39.3639 165.461 38.6797 166.125 38.7435 166.863C38.8074 167.6 39.6011 168.132 40.5133 168.049C41.4256 167.967 42.1098 167.303 42.046 166.565Z" fill="#D3D357"/>
<path d="M118.796 155.912C119.097 155.239 118.668 154.387 117.834 154.006C116.999 153.631 116.078 153.869 115.776 154.542C115.475 155.216 115.904 156.068 116.739 156.449C117.574 156.824 118.495 156.586 118.796 155.912Z" fill="#D3D357"/>
<path d="M106.234 120.747C106.061 120.028 105.194 119.625 104.305 119.845C103.415 120.064 102.836 120.825 103.014 121.54C103.187 122.259 104.054 122.662 104.943 122.442C105.833 122.223 106.412 121.462 106.234 120.747Z" fill="#D3D357"/>
<path d="M75.6453 85.0322C75.0843 84.7069 74.099 84.9726 73.4558 85.6232C72.8081 86.2738 72.7397 87.0665 73.3053 87.3872C73.8709 87.7079 74.8516 87.4468 75.4948 86.7962C76.1425 86.1455 76.2109 85.3529 75.6453 85.0322Z" fill="#D3D357"/>
<path d="M83.1625 124.394C83.6187 123.812 83.4043 122.882 82.6836 122.31C81.9629 121.741 81.0141 121.751 80.558 122.332C80.1018 122.914 80.3162 123.844 81.0369 124.417C81.7576 124.985 82.711 124.976 83.1625 124.394Z" fill="#D3D357"/>
<path d="M154.954 193.332H152.605V220.58H154.954V193.332Z" fill="#D3B598"/>
<path d="M222.906 193.332H220.556V220.58H222.906V193.332Z" fill="#D3B598"/>
<path d="M183.459 192.397H182.241L182.04 220.497H183.659L183.459 192.397Z" fill="#68475D"/>
<path d="M186.478 192.397H185.26L185.06 220.497H186.679L186.478 192.397Z" fill="#68475D"/>
<path d="M194.465 192.397H193.247L193.047 220.497H194.666L194.465 192.397Z" fill="#68475D"/>
<path d="M198.903 202.871V201.648L180.703 201.446V203.073L198.903 202.871Z" fill="#68475D"/>
<path d="M197.832 192.397H196.618L196.413 220.497H198.037L197.832 192.397Z" fill="#68475D"/>
<path d="M176.534 125.911C177.821 125.315 179.695 128.683 180.507 130.305C180.019 128.614 178.436 123.996 175.923 125.173C173.665 126.232 174.363 128.564 179.796 131.327H179.805C175.508 128.179 175.234 126.52 176.534 125.915V125.911Z" fill="#442D35"/>
<path d="M175.718 129.993C176.288 129.214 178.792 130.502 179.937 131.148C178.966 130.346 176.156 128.243 175.043 129.778C174.044 131.152 175.399 132.252 179.892 131.977H179.896C175.969 131.638 175.143 130.781 175.718 129.993Z" fill="#442D35"/>
<path d="M200.112 219.764H199.496C199.496 219.764 190.46 181.868 199.985 176.036C209.509 170.203 212.2 177.332 213.491 182.675C214.782 188.017 200.112 219.764 200.112 219.764Z" fill="#35232A"/>
<path d="M180.343 219.764H181.018C181.018 219.764 189.201 181.868 179.549 176.036C169.893 170.203 167.361 177.332 166.189 182.675C165.017 188.017 180.343 219.764 180.343 219.764Z" fill="#35232A"/>
<path d="M181.187 132.706C180.653 131.418 179.622 130.63 178.883 130.937C178.145 131.244 177.976 132.536 178.505 133.824C179.039 135.111 180.069 135.899 180.808 135.592C181.547 135.285 181.716 133.993 181.187 132.706Z" fill="#FFBB83"/>
<path d="M181.05 132.976C180.662 132.041 179.914 131.469 179.381 131.693C178.842 131.918 178.719 132.857 179.107 133.787C179.495 134.722 180.243 135.294 180.776 135.07C181.315 134.845 181.438 133.906 181.05 132.976Z" fill="#ED7656"/>
<path d="M194.269 133.755C194.648 132.417 194.333 131.152 193.562 130.933C192.791 130.713 191.856 131.62 191.478 132.958C191.099 134.296 191.414 135.56 192.185 135.78C192.955 136 193.89 135.097 194.269 133.755Z" fill="#FFBB83"/>
<path d="M193.599 133.64C193.872 132.678 193.644 131.771 193.092 131.611C192.54 131.45 191.87 132.101 191.596 133.063C191.322 134.025 191.55 134.932 192.102 135.093C192.654 135.253 193.325 134.603 193.599 133.64Z" fill="#ED7656"/>
<path d="M193.717 130.456C194 127.689 193.375 125.283 192.326 125.082C191.277 124.885 190.196 126.965 189.918 129.732C189.635 132.499 190.26 134.905 191.309 135.106C192.358 135.303 193.439 133.223 193.717 130.456Z" fill="#BC4124"/>
<path d="M182.738 129.54C182.505 126.768 181.447 124.518 180.38 124.518C179.312 124.518 178.633 126.768 178.87 129.54C179.102 132.312 180.161 134.561 181.228 134.561C182.295 134.561 182.975 132.312 182.738 129.54Z" fill="#BC4124"/>
<path d="M196.386 125.228L200.45 128.72C202.174 126.154 204.199 124.037 209.267 122.818L206.995 118.722C200.687 118.575 196.386 125.233 196.386 125.233V125.228Z" fill="#FF85EB"/>
<path d="M223.713 140.431L224.853 135.267C221.555 135.482 218.372 135.175 213.486 131.688L211.876 136.252C218.394 143.367 223.708 140.431 223.708 140.431H223.713Z" fill="#FF85EB"/>
<path d="M165.747 142.039L160.141 139.569C158.8 142.602 157.053 145.292 151.711 148.023L154.991 151.573C164.292 149.076 165.751 142.039 165.751 142.039H165.747Z" fill="#B7AD89"/>
<path d="M181.337 110.282L181.547 104.871C178.719 105.623 175.786 105.925 171.188 103.346L168.602 108.463C174.769 114.113 181.342 110.282 181.342 110.282H181.337Z" fill="#FF85EB"/>
<path d="M185.821 136.545C168.57 135.574 159.379 159.22 155.187 172.498L218.873 171.041C216.939 154.845 203.073 137.516 185.821 136.545Z" fill="#442D35"/>
<path d="M218.189 167.165C217.409 168.059 216.438 168.673 215.366 169.117C210.49 171.128 203.342 162.721 200.409 151.784C198.789 159.692 193.115 169.96 186.866 169.96C179.741 169.96 174.568 161.41 172.63 152.247C171.394 159.688 161.272 172.155 155.757 170.748C155.561 171.348 155.374 171.935 155.196 172.498L218.882 171.041C218.727 169.754 218.499 168.457 218.198 167.165H218.189Z" fill="#35232A"/>
<path d="M200.464 163.5C207.351 160.031 215.744 160.92 220.607 171.005H211.228L200.464 163.5Z" fill="#A03591"/>
<path d="M174.997 163.5C168.109 160.031 159.716 160.92 154.854 171.005H164.232L174.997 163.5Z" fill="#A03591"/>
<path d="M186.145 149.988C190.72 149.988 194.465 144.967 194.821 138.589C191.966 137.439 188.951 136.719 185.821 136.545C182.784 136.376 180.001 136.967 177.447 138.13C177.643 144.724 181.461 149.988 186.145 149.988Z" fill="#A03591"/>
<path d="M185.821 136.545C183.618 136.421 181.552 136.706 179.604 137.31C180.179 143.097 182.961 146.007 186.314 146.007C189.667 146.007 192.253 143.4 192.955 137.915C190.661 137.164 188.275 136.683 185.821 136.545Z" fill="#FF9D66"/>
<path d="M186.811 142.9C182.054 142.9 180.097 139.459 180.097 133.549C180.097 127.638 180.015 121.971 186.387 121.971C192.759 121.971 192.435 130.96 192.435 134.034C192.435 137.109 192.034 142.9 186.816 142.9H186.811Z" fill="#FFBB83"/>
<path d="M193.973 126.497C193.489 123.611 189.899 120.147 186.177 120.147C182.455 120.147 179.057 123.625 178.747 126.52C178.405 129.755 181.967 130.974 186.51 130.96C191.044 130.946 194.511 129.714 193.968 126.493L193.973 126.497Z" fill="#442D35"/>
<path d="M193.973 126.497C193.827 125.631 193.398 124.715 192.773 123.854C191.947 125.993 189.302 127.56 186.154 127.56C183.007 127.56 180.571 126.112 179.641 124.101C179.153 124.898 178.829 125.732 178.747 126.525C178.405 129.76 181.967 130.978 186.51 130.965C191.044 130.951 194.511 129.718 193.968 126.497H193.973Z" fill="#35232A"/>
<path d="M194.274 126.186C194.237 125.929 193.886 125.828 193.767 126.035C192.778 127.734 189.904 128.422 186.437 128.426C183.007 128.435 180.111 127.776 178.975 126.117C178.82 125.893 178.441 126.007 178.418 126.296C178.345 127.226 178.363 128.495 178.601 128.898C179.736 130.818 182.847 131.574 186.538 131.56C190.159 131.551 193.161 130.804 194.223 128.962C194.474 128.532 194.415 127.143 194.278 126.186H194.274Z" fill="#442D35"/>
<path d="M192.403 135.349C192.426 134.873 192.595 134.364 192.595 133.97C192.595 133.42 192.444 132.742 192.426 131.895C189.621 134.52 182.843 134.515 180.106 131.968C180.106 132.49 179.964 132.99 179.964 133.517C179.964 134.186 180.133 134.85 180.183 135.464C183.271 138.566 189.311 138.598 192.408 135.345L192.403 135.349Z" fill="#442D35"/>
<path d="M157.687 171.041C160.104 164.563 168.411 161.081 174.86 163.106C181.31 165.131 184.375 171.041 184.375 171.041H157.691H157.687Z" fill="#FFBB83"/>
<path d="M180.197 166.07C177.629 167.642 173.227 168.677 168.224 168.677C165.058 168.677 162.134 168.26 159.762 167.559C158.877 168.59 158.166 169.754 157.682 171.041H184.366C184.366 171.041 183.007 168.421 180.193 166.07H180.197Z" fill="#FF9D66"/>
<path d="M218.873 171.041C216.456 164.563 208.149 161.081 201.7 163.106C195.25 165.131 192.185 171.041 192.185 171.041H218.869H218.873Z" fill="#FFBB83"/>
<path d="M213.847 165.003C211.675 166.84 206.909 168.315 201.307 168.668C198.662 168.833 196.167 168.728 194.023 168.407C192.791 169.878 192.189 171.041 192.189 171.041H218.873C217.934 168.526 216.105 166.464 213.847 165.003Z" fill="#FF9D66"/>
<path d="M201.704 154.684H171.955V155.555L201.754 155.541L201.704 154.684Z" fill="#FFF7E3"/>
<path d="M201.704 155.555H171.955L173.328 171.912H200.331L201.704 155.555Z" fill="#F4E9CB"/>
<path d="M187.085 159.385C192.663 160.687 197.508 162.808 200.897 165.218L201.704 155.56H171.955L172.201 158.506C176.288 157.855 181.538 158.098 187.085 159.39V159.385Z" fill="#E8DBBC"/>
<path d="M229.191 171.042H146.479V199.801H229.191V171.042Z" fill="#E2C7A8"/>
<path d="M187.751 176.43C204.81 176.43 219.918 180.036 229.196 185.57V171.042H146.484V185.47C155.775 179.99 170.801 176.43 187.751 176.43Z" fill="#D3B598"/>
<path d="M148.828 193.332H146.479V220.58H148.828V193.332Z" fill="#E2C7A8"/>
<path d="M229.196 193.332H226.847V220.58H229.196V193.332Z" fill="#E2C7A8"/>
<path d="M181.552 220.593H175.745C175.745 220.593 179.13 218.467 180.402 218.651C181.67 218.834 181.552 220.593 181.552 220.593Z" fill="#EFE4BF"/>
<path d="M198.283 220.593H203.862C203.862 220.593 201.49 218.005 200.194 218.229C198.899 218.449 198.283 220.593 198.283 220.593Z" fill="#EFE4BF"/>
<path d="M229.807 170.739H145.868V172.837H229.807V170.739Z" fill="#F2DCC7"/>
<path d="M186.747 165.113C188.707 165.113 190.296 164.384 190.296 163.486C190.296 162.588 188.707 161.859 186.747 161.859C184.787 161.859 183.199 162.588 183.199 163.486C183.199 164.384 184.787 165.113 186.747 165.113Z" fill="#FFF7E3"/>
<path d="M181.99 134.176L185.671 135.427C185.671 135.427 184.644 136.509 183.531 136.11C182.414 135.711 181.99 134.172 181.99 134.172V134.176Z" fill="#FFBB83"/>
<path d="M190.857 133.824L187.299 135.597C187.299 135.597 188.043 136.793 188.909 136.348C189.872 135.853 190.857 133.824 190.857 133.824Z" fill="#FFBB83"/>
<path d="M219.781 138.401C220.337 137.727 219.991 136.692 219.01 136.092C218.025 135.491 216.775 135.556 216.219 136.229C215.662 136.903 216.009 137.938 216.989 138.538C217.975 139.138 219.224 139.074 219.781 138.401Z" fill="#C0C949"/>
<path d="M204.208 122.36C204.04 121.512 203.164 121.018 202.247 121.251C201.33 121.485 200.723 122.355 200.888 123.203C201.056 124.051 201.932 124.546 202.849 124.312C203.766 124.078 204.373 123.208 204.208 122.36Z" fill="#C0C949"/>
<path d="M177.428 107.785C177.26 106.938 176.384 106.443 175.467 106.677C174.55 106.91 173.943 107.781 174.108 108.628C174.276 109.476 175.152 109.971 176.069 109.737C176.986 109.503 177.593 108.633 177.428 107.785Z" fill="#C0C949"/>
<path d="M160.834 145.924C160.665 145.076 159.789 144.582 158.873 144.815C157.956 145.049 157.349 145.92 157.513 146.767C157.682 147.615 158.558 148.11 159.475 147.876C160.392 147.642 160.998 146.772 160.834 145.924Z" fill="#C0C949"/>
<path d="M189.553 134.91L188.111 135.629C188.111 135.629 188.412 136.115 188.763 135.931C189.156 135.73 189.553 134.91 189.553 134.91Z" fill="#442D35"/>
<path d="M183.422 134.964L185.014 135.505C185.014 135.505 184.572 135.972 184.088 135.798C183.605 135.624 183.422 134.96 183.422 134.96V134.964Z" fill="#442D35"/>
<path d="M185.589 138.694C185.935 136.591 186.255 135.862 186.629 136.385C187.003 136.907 187.587 138.254 187.518 138.396C187.45 138.538 185.584 138.694 185.584 138.694H185.589Z" fill="#FFBB83"/>
<path d="M185.716 138.781C185.602 138.744 185.539 138.644 185.507 138.511C185.452 138.896 185.484 139.212 185.716 139.285C186.41 139.519 187.555 139.491 187.555 138.68C187.555 138.598 187.541 138.497 187.518 138.392C187.327 138.987 186.337 138.992 185.712 138.781H185.716Z" fill="#ED7656"/>
<path d="M189.981 138.667C189.293 140.6 183.723 140.366 183.03 138.941H182.989C183.162 140.628 189.753 140.962 190.068 138.662H189.981V138.667Z" fill="#ED7656"/>
<path d="M186.656 140.98C187.135 140.98 187.523 140.921 187.523 140.847C187.523 140.774 187.135 140.715 186.656 140.715C186.177 140.715 185.789 140.774 185.789 140.847C185.789 140.921 186.177 140.98 186.656 140.98Z" fill="#ED7656"/>
<path d="M95.8301 134.478L95.6157 151.374L96.4641 151.385L96.6784 134.488L95.8301 134.478Z" fill="#5B3C46"/>
<path d="M96.5091 149.521L79.0434 146.355C76.4115 145.878 74.0305 148.013 74.2083 150.694L75.7182 173.543C75.8413 175.435 77.2326 176.998 79.0936 177.337L96.5592 180.503C99.1912 180.979 101.572 178.844 101.394 176.164L99.8845 153.315C99.7613 151.422 98.3701 149.86 96.5091 149.521Z" fill="#5B3C46"/>
<path d="M60.0589 183.252C58.1522 171.041 57.3722 157.127 68.6799 152.371L70.5182 186.592L60.0589 183.257V183.252Z" fill="#B2A13B"/>
<path d="M64.6979 170.111C64.6979 176.136 63.5621 181.346 61.9154 183.843L70.5228 186.587L68.6845 152.366C65.9431 153.521 64.6979 164.741 64.6979 170.107V170.111Z" fill="#9B882C"/>
<path d="M64.187 188.297C67.1597 188.297 69.5695 186.58 69.5695 184.462C69.5695 182.344 67.1597 180.627 64.187 180.627C61.2144 180.627 58.8046 182.344 58.8046 184.462C58.8046 186.58 61.2144 188.297 64.187 188.297Z" fill="#E5D9A8"/>
<path d="M53.0389 197.785L57.1168 200.951C57.1168 200.951 70.2993 192.402 70.801 190.496C72.0737 185.666 65.0947 180.604 59.9175 182.615C54.6719 184.649 53.0389 197.79 53.0389 197.79V197.785Z" fill="#FF9D66"/>
<path d="M112.93 220.561H59.9905C58.0063 220.561 56.2775 219.196 55.8122 217.258C54.6719 212.534 54.4758 203.842 69.6743 188.86L100.208 193.937C99.0954 199.288 96.4361 204.855 93.1382 210.514L113.245 219.975L112.93 220.561Z" fill="#5B3C46"/>
<path d="M93.1382 210.514C96.4361 204.855 99.0954 199.288 100.208 193.937L69.6743 188.86C61.4957 196.924 57.7782 203.16 56.2638 207.939C66.9147 203.091 81.6434 213.822 81.1234 217.043C80.6034 220.264 68.2512 221.349 60.3052 220.053C59.1694 219.87 58.0701 219.631 57.0256 219.361C57.8056 220.108 58.8547 220.557 59.995 220.557H112.935L113.249 219.97L93.1427 210.509L93.1382 210.514Z" fill="#492E38"/>
<path d="M68.2602 180.191C63.0967 174.253 61.929 163.106 64.2553 155.835C64.9167 153.764 66.7322 152.082 68.689 151.761L68.2602 180.191Z" fill="#5B3C46"/>
<path d="M68.8259 190.422C77.8757 197.451 97.4852 198.935 99.3736 197.126C101.267 195.32 106.567 159.431 92.3627 152.614C78.154 145.796 66.974 151.706 65.4322 156.233C62.5676 164.645 68.8259 190.418 68.8259 190.418V190.422Z" fill="#B2A13B"/>
<path d="M79.2123 165.896C84.8502 166.286 89.8723 160.041 90.4287 151.945C90.4287 151.89 90.4333 151.83 90.4379 151.775C81.8123 148.252 74.4638 149.365 69.9709 151.766C69.8887 159.317 73.8663 165.525 79.2168 165.896H79.2123Z" fill="#9B882C"/>
<path d="M92.3628 152.618C90.5838 151.761 89.8449 156.962 90.4789 160.682C92.6 173.154 88.0522 184.342 80.3252 185.666C74.9838 186.583 69.5238 182.551 65.9568 175.861C67.1747 183.618 68.8259 190.418 68.8259 190.418C77.8757 197.446 97.4852 198.931 99.3736 197.121C101.267 195.316 106.567 159.427 92.3628 152.609V152.618Z" fill="#9B882C"/>
<path d="M89.0922 195.261L74.7603 205.478C74.7603 205.478 54.2614 201.575 54.2614 201.359C54.2614 201.144 66.1256 190.331 66.1256 190.331L89.0329 194.12L89.0877 195.265L89.0922 195.261Z" fill="#E5D9A8"/>
<path d="M75.5905 197.272C74.3681 197.923 73.2414 200.03 73.5972 200.704C73.953 201.377 74.8105 201.625 74.8698 200.974C74.9246 200.324 75.741 198.963 76.293 199.302C76.8495 199.646 76.5302 196.768 75.5905 197.268V197.272Z" fill="#5B3C46"/>
<path d="M75.7592 193.341C72.8354 193.552 70.468 194.596 69.7975 195.178C69.1771 195.719 70.7006 196.699 71.7954 196.131C72.5252 195.751 73.8389 195.151 75.0111 195.582C76.1789 196.012 78.0126 193.176 75.7592 193.341Z" fill="#5B3C46"/>
<path d="M74.3681 195.05C72.7077 196.168 71.7407 197.859 71.5947 198.601C71.4579 199.288 72.7989 199.691 73.2095 198.83C73.4831 198.257 74.0077 197.295 74.8972 197.313C75.7866 197.332 75.6498 194.189 74.3726 195.05H74.3681Z" fill="#5B3C46"/>
<path d="M75.0431 203.7L74.7603 205.474L54.2659 201.359L44.3312 182.5L44.8649 181.547L67.0561 184.672L75.0431 203.7Z" fill="#FFF6CF"/>
<path d="M66.3354 185.469L74.6691 205.455L74.7603 205.474L75.6087 204.003L67.0561 184.672L44.8649 181.547L44.3312 182.5L44.427 182.684L66.3354 185.469Z" fill="#F2E8BB"/>
<path d="M93.526 185.63C86.8025 176.92 85.1968 156.618 89.9133 151.125L92.7323 152.27L93.526 185.63Z" fill="#5B3C46"/>
<path d="M92.5726 183.962C90.5929 174.734 86.4968 157.489 92.714 152.801C92.714 152.801 105.792 159.046 106.567 176.013C107.342 192.979 103.456 195.183 103.456 195.183L92.5726 183.967V183.962Z" fill="#B2A13B"/>
<path d="M106.567 176.013C105.792 159.046 92.714 152.801 92.714 152.801C92.4859 152.971 92.2761 153.168 92.0754 153.37C95.7564 154.451 99.6382 158.762 101.805 164.691C104.706 172.618 103.442 180.439 98.9859 182.152C96.7599 183.009 94.1554 182.18 91.7469 180.145C92.0389 181.52 92.3217 182.807 92.568 183.967L103.452 195.183C103.452 195.183 107.338 192.984 106.562 176.013H106.567Z" fill="#9B882C"/>
<path d="M106.567 190.564C106.48 185.854 102.339 181.621 97.7315 181.621C93.1245 181.621 89.4617 185.442 89.5484 190.152C89.635 194.862 93.4666 198.17 98.0463 198.683C106.777 199.655 106.654 195.279 106.562 190.569L106.567 190.564Z" fill="#E5D9A8"/>
<path d="M79.568 195.178L82.2547 199.723C82.2547 199.723 102.398 198.518 103.67 196.672C104.943 194.825 104.273 182.83 97.5217 182.899C90.6659 182.968 79.568 195.183 79.568 195.183V195.178Z" fill="#FFBB83"/>
<path d="M101.645 184.933C101.472 188.416 97.946 192.704 92.6046 195.481C88.4172 197.653 84.1204 198.376 81.0505 197.685L82.2547 199.723C82.2547 199.723 102.398 198.518 103.671 196.672C104.61 195.311 104.487 188.425 101.645 184.933Z" fill="#FF9D66"/>
<path d="M78.3136 164.306C71.4624 163.573 72.0143 156.357 72.9767 153.447C73.9392 150.538 76.3111 149.255 79.8234 149.223C83.5774 149.191 84.7452 152.907 84.0427 156.187C83.1989 160.128 81.1462 164.609 78.3136 164.306Z" fill="#E5D9A8"/>
<path d="M78.4732 162.648C72.4522 162.006 72.9357 155.665 73.7841 153.108C74.6325 150.552 76.7125 149.425 79.8006 149.397C83.0985 149.365 84.1248 152.632 83.509 155.514C82.7655 158.973 80.9637 162.913 78.4732 162.648Z" fill="#FF9D66"/>
<path d="M71.7406 154.107C73.9985 157.731 74.0213 158.529 75.8231 159.326C77.6248 160.123 81.0732 158.153 81.9718 155.065C82.875 151.977 82.3687 150.478 80.8999 149.553C79.4311 148.623 76.936 144.577 76.936 144.577L71.7406 154.107Z" fill="#ED7656"/>
<path d="M70.8922 158.9C73.2961 160.201 78.9477 155.812 79.0024 152.192C79.0571 148.572 78.9659 139.381 74.035 137.572C69.1042 135.762 65.8017 140.371 66.3354 145.91C66.9922 152.751 70.2035 158.529 70.8922 158.904V158.9Z" fill="#5B3C46"/>
<path d="M113.281 218.431C112.365 218.999 112.15 220.561 112.15 220.561H118.231L113.281 218.431Z" fill="#E5D9A8"/>
<path d="M65.2908 204.553C63.7354 209.524 64.5154 215.627 64.5154 215.627C64.5154 215.627 67.3435 205.689 67.8361 205.263L65.2908 204.553Z" fill="#492E38"/>
<path d="M69.3002 150.318C68.8487 148.618 68.1599 147.161 67.7631 147.065C67.3662 146.969 67.4073 148.265 67.8588 149.965C68.3104 151.665 68.9992 153.122 69.396 153.218C69.7929 153.315 69.7518 152.018 69.3002 150.318Z" fill="#FFBB83"/>
<path d="M68.8168 149.667C68.534 148.604 68.1052 147.693 67.8589 147.633C67.6126 147.574 67.6399 148.384 67.9227 149.447C68.2055 150.51 68.6343 151.422 68.8806 151.482C69.1269 151.541 69.0996 150.73 68.8168 149.667Z" fill="#332A24"/>
<path d="M72.2561 150.139C71.8045 148.44 71.0245 147.01 70.5136 146.941C70.0027 146.873 69.9525 148.197 70.4041 149.897C70.8557 151.596 71.6357 153.026 72.1466 153.095C72.6575 153.163 72.7076 151.839 72.2561 150.139Z" fill="#FFBB83"/>
<path d="M71.5309 149.383C71.2435 148.297 70.7463 147.386 70.4224 147.344C70.0986 147.303 70.0666 148.146 70.354 149.232C70.6414 150.318 71.1386 151.23 71.4624 151.271C71.7863 151.312 71.8182 150.469 71.5309 149.383Z" fill="#332A24"/>
<path d="M89.8996 169.488L86.994 169.076L87.6645 172.81L90.5702 173.222L89.8996 169.488Z" fill="#E5D9A8"/>
<path d="M89.4389 170.235L87.6736 169.983L88.0795 172.256L89.8448 172.508L89.4389 170.235Z" fill="#5B3C46"/>
<path d="M89.0147 171.344L88.2894 171.151L88.5677 172.443L89.2975 172.636L89.0147 171.344Z" fill="#E5D9A8"/>
<path d="M64.9305 166.785L62.9463 166.799L63.1698 169.594L65.5052 169.988L64.9305 166.785Z" fill="#E5D9A8"/>
<path d="M64.5702 167.408L63.3295 167.371L63.4982 169.117L64.8667 169.305L64.5702 167.408Z" fill="#5B3C46"/>
<path d="M64.2234 168.329L63.6989 168.21L63.8494 169.268L64.4104 169.433L64.2234 168.329Z" fill="#E5D9A8"/>
<path d="M83.3905 190.954C87.5231 195.091 87.4136 199.994 87.4136 199.994L80.2431 200.287L79.1438 194.628L83.3859 190.954H83.3905Z" fill="#5B3C46"/>
<path d="M82.8979 200.177C78.9431 200.64 77.8028 200.007 76.3888 199.366C74.9747 198.729 73.2505 194.395 75.1572 193.611C77.0638 192.828 81.3379 193.9 81.3379 193.9L82.8979 200.177Z" fill="#5B3C46"/>
<path d="M73.3691 145.755C73.3691 143.592 71.8273 141.924 69.9298 142.034C68.0322 142.144 66.4905 143.981 66.4905 146.149C66.4905 148.316 68.0322 149.979 69.9298 149.869C71.8273 149.759 73.3691 147.922 73.3691 145.755Z" fill="#5B3C46"/>
<path d="M249.385 108.77C244.522 107.281 240.955 108.77 240.955 108.77L240.075 114.136L242.159 113.81L241.808 109.297C245.138 108.156 248.39 109.471 248.39 109.471L249.001 112.582L251.328 112.523L249.385 108.77Z" fill="#FFD255"/>
<path d="M235.335 116.532C226.751 128.939 231.882 154.391 231.882 154.391C231.882 154.391 241.931 160.018 251.46 159.546L254.393 111.487C246.748 109.701 235.34 116.537 235.34 116.537L235.335 116.532Z" fill="#FFB133"/>
<path d="M235.335 116.532C234.318 118.003 233.497 119.657 232.831 121.43C236.248 122.108 241.087 121.728 246.178 120.161C249.17 119.24 251.861 118.03 254.069 116.683L254.388 111.483C246.743 109.696 235.335 116.532 235.335 116.532Z" fill="#FFD255"/>
<path d="M260.843 175.724L287.021 219.682H287.646L276.128 150.694L262.448 151.619L260.843 175.724Z" fill="#5B3C46"/>
<path d="M261.896 159.963L260.355 176.636L287.021 219.682H287.522L261.896 159.963Z" fill="#442C35"/>
<path d="M246.953 151.816L249.886 219.329H250.516L265.313 175.234L269.71 171.655L269.149 151.537L246.953 151.816Z" fill="#5B3C46"/>
<path d="M276.128 150.694L262.448 151.619L246.953 151.816L247.496 164.338C260.533 157.122 269.984 154.13 276.598 153.502L276.128 150.698V150.694Z" fill="#442C35"/>
<path d="M254.589 151.72L246.953 151.816L249.886 219.329H250.128L254.589 151.72Z" fill="#442C35"/>
<path d="M265.39 113.38C272.014 116.899 282.003 128.967 282.414 130.259C282.829 131.551 276.799 142.41 276.799 142.41L264.191 118.585L265.386 113.38H265.39Z" fill="#EA6CA0"/>
<path d="M272.762 129.251C273.514 128.083 280.516 125.769 283.422 130.044C286.437 134.479 289 141.984 283.189 144.912C277.62 147.716 273.961 146.424 272.474 142.172L272.762 129.251Z" fill="#FFE8C2"/>
<path d="M262.777 112.065L261.682 111.923C265.983 115.858 274.386 131.973 274.386 131.973L276.99 131.491C276.99 131.491 275.316 125.324 273.104 119.987C271.32 115.68 267.384 112.651 262.777 112.06V112.065Z" fill="#FFBA40"/>
<path d="M273.104 119.991C271.32 115.684 267.384 112.656 262.777 112.065L261.682 111.923C263.342 113.439 265.609 116.77 267.771 120.289C269.765 120.541 271.63 120.523 273.218 120.266C273.181 120.174 273.14 120.078 273.104 119.987V119.991Z" fill="#FFD255"/>
<path d="M246.397 158.267C250.178 159.175 261.892 151.115 277.319 153.081C277.319 153.081 277.738 122.442 266.43 114.099C255.123 105.756 241.74 113.907 240.677 116.555C239.071 120.55 244.445 155.115 246.401 158.267H246.397Z" fill="#EA6CA0"/>
<path d="M274.992 130.74C273.565 124.504 271.261 118.498 267.553 115.038C271.745 122.085 270.618 128.614 270.618 128.614L274.992 130.745V130.74Z" fill="#D3508C"/>
<path d="M265.605 129.705C259.511 132.724 251.378 129.086 247.437 121.581C245.927 118.704 245.256 115.68 245.339 112.871C242.761 114.163 241.028 115.666 240.672 116.55C239.067 120.546 244.44 155.111 246.397 158.263C247.683 158.57 249.891 157.841 252.847 156.824C252.856 156.581 252.869 156.338 252.888 156.091C253.504 147.922 259.506 141.296 266.289 141.296C271.954 141.296 276.37 145.915 277.319 152.197C277.296 148.856 276.99 136.6 273.861 126.497C273.209 124.394 269.026 128.009 265.605 129.705Z" fill="#D3508C"/>
<path d="M238.651 149.223C235.381 141.92 236.138 123.776 237.744 120.129C239.349 116.482 242.971 114.269 242.971 114.269C242.971 114.269 249.818 129.521 248.144 135.904C246.47 142.282 240.535 153.429 238.651 149.223Z" fill="#EA6CA0"/>
<path d="M242.971 114.269C242.971 114.269 242.916 114.301 242.816 114.369C243.66 116.775 244.025 120.234 243.692 124.028C243.076 131.001 240.339 136.454 237.575 136.206C237.165 136.169 236.777 136.005 236.412 135.734C236.576 140.893 237.237 146.071 238.652 149.223C240.535 153.429 246.47 142.282 248.144 135.904C249.818 129.526 242.971 114.269 242.971 114.269Z" fill="#D3508C"/>
<path d="M245.918 112.376L241.302 114.937C244.518 118.03 246.816 131.904 246.816 131.904L249.54 131.414C249.54 131.414 249.07 115.492 245.918 112.376Z" fill="#FFBA40"/>
<path d="M244.805 122.859C246.251 122.859 247.61 122.584 248.787 122.108C248.258 118.021 247.373 113.82 245.913 112.376L241.297 114.937C242.67 116.257 243.87 119.533 244.8 122.859H244.805Z" fill="#FFD255"/>
<path d="M258.681 115.428C258.681 115.428 261.7 114.644 263.899 112.514C258.795 109.843 253.49 110.085 249.234 111.336C250.767 113.81 253.814 114.846 258.681 115.428Z" fill="#FFE8C2"/>
<path d="M258.389 114.759C258.389 114.759 260.938 114.072 262.795 112.202C258.484 109.861 254.005 110.072 250.411 111.171C251.702 113.338 254.274 114.25 258.384 114.759H258.389Z" fill="#FF9D66"/>
<path d="M250.899 111.153L252.851 103.616L262.065 105.123L262.275 112.028C258.402 113.018 254.607 112.743 250.899 111.153Z" fill="#ED7656"/>
<path d="M254.142 110.205C252.66 108.999 251.141 100.706 252.92 97.096C254.699 93.4856 257.175 91.9094 260.806 92.8899C264.437 93.8704 265.167 97.2381 264.994 99.9001C264.82 102.562 262.298 109.852 261.782 110.452C260.665 111.749 255.433 111.258 254.137 110.205H254.142Z" fill="#5B3C46"/>
<path d="M250.306 130.502C249.33 129.169 241.511 127.909 239.067 133.865C236.622 139.826 235.089 149.076 241.16 151.743C247.232 154.405 251.004 152.375 252.144 146.877L250.301 130.497L250.306 130.502Z" fill="#FFE8C2"/>
<path d="M266.225 126.484C269.208 132.623 275.042 144.692 277.209 145.003C279.362 145.315 284.074 141.7 285.077 139.239C286.063 136.82 284.042 130.47 280.99 128.238C277.934 126.003 269.555 122.452 269.555 122.452L266.225 126.484Z" fill="#FFBB83"/>
<path d="M274.746 132.999C271.311 129.952 268.903 126.616 268.15 124.156L266.225 126.484C269.208 132.623 275.042 144.692 277.209 145.003C279.362 145.315 284.074 141.7 285.077 139.239C285.16 139.042 285.219 138.813 285.26 138.566C282.751 138.543 278.641 136.449 274.746 132.994V132.999Z" fill="#FF9D66"/>
<path d="M235.855 99.1807L234.861 103.071C234.861 103.071 241.037 103.02 244.545 97.1281C244.545 97.1281 243.395 92.5555 240.672 89.9255C239.555 94.2966 238.264 98.1269 235.855 99.1807Z" fill="#FF85EB"/>
<path d="M220.26 190.28L215.498 193.158C215.133 190.743 214.408 185.735 208.086 183.293L214.303 179.275C217.956 182.4 220.648 185.841 220.26 190.285V190.28Z" fill="#FF85EB"/>
<path d="M303.82 122.012L303.36 127.459C300.974 126.369 296.043 124.087 289.84 127.739L290.205 120.481C295.318 119.35 300.098 119.166 303.82 122.012Z" fill="#B7AD89"/>
<path d="M276.315 103.905L279.193 99.2678C280.826 101.33 284.179 105.618 291.354 105.206L287.737 111.501C282.669 110.168 278.331 108.143 276.315 103.905Z" fill="#FF85EB"/>
<path d="M326.823 158.767L331.152 162.904C333.178 161.782 335.969 156.595 335.969 153.159L332.548 151.899C331.275 154.904 329.396 157.227 326.823 158.771V158.767Z" fill="#FF85EB"/>
<path d="M286.145 157.667C295.008 162.295 299.336 157.525 299.336 157.525L297.799 153.667C294.292 155.729 290.907 153.979 287.609 149.53L286.145 157.663V157.667Z" fill="#B7AD89"/>
<path d="M287.053 220.593H292.914C292.914 220.593 288.453 218.417 287.463 218.596C286.473 218.774 287.053 220.593 287.053 220.593Z" fill="#EAD0B2"/>
<path d="M251.601 220.593H246.826C246.826 220.593 249.403 218.495 250.292 218.665C251.182 218.834 251.601 220.593 251.601 220.593Z" fill="#EAD0B2"/>
<path d="M260.916 173.69L265.801 175.862L272.082 170.606L265.45 174.038L260.916 173.69Z" fill="#442C35"/>
<path d="M267.334 130.676C270.86 130.36 273.825 124.367 273.825 124.367L269.5 121.911L265.838 126.328L267.338 130.676H267.334Z" fill="#4F353E"/>
<path d="M263.557 119.455C264.802 119.918 261.942 121.714 261.089 124.871L258.932 123.684C260.583 119.794 262.316 118.992 263.557 119.455Z" fill="#5B3C46"/>
<path d="M258.069 130.763L263.967 116.944H271.995L272.483 117.723L266.412 132.096H258.767L258.069 130.763Z" fill="#FFE8C2"/>
<path d="M258.667 131.908L258.767 132.096H266.412L272.411 117.902H264.565L258.667 131.908Z" fill="#EACEA7"/>
<path d="M249.608 150.139C246.036 151.615 240.604 149.782 239.628 147.12C238.652 144.458 238.93 133.379 242.77 130.222C246.611 127.065 258.895 123.844 258.895 123.844L260.989 128.403C257.431 132.751 252.682 148.875 249.613 150.144L249.608 150.139Z" fill="#FFBB83"/>
<path d="M255.971 130.424C250.096 133.246 244.34 134.511 240.421 134.112C238.875 138.671 238.911 145.159 239.628 147.115C240.604 149.777 246.036 151.61 249.608 150.135C252.678 148.866 257.422 132.742 260.984 128.394L260.706 127.785C259.251 128.715 257.668 129.604 255.971 130.419V130.424Z" fill="#FF9D66"/>
<path d="M257.075 124.019C256.902 127.909 258.995 132.71 258.995 132.71L261.719 130.117V123.139L257.075 124.014V124.019Z" fill="#5B3C46"/>
<path d="M259.064 123.808C261.194 121.705 260.998 121.187 263 121.622C264.998 122.058 267.721 121.425 268 122.442C268.278 123.46 266.709 128.435 265.628 129.031C264.547 129.627 261.089 130.328 261.089 130.328L259.064 123.808Z" fill="#5B3C46"/>
<path d="M271.056 119.996C270.828 118.75 268.629 121.297 265.477 121.769L266.239 123.968C270.226 122.814 271.284 121.237 271.056 119.991V119.996Z" fill="#5B3C46"/>
<path d="M270.285 123.024C270.08 121.778 267.835 124.284 264.674 124.701L265.4 126.914C269.405 125.828 270.49 124.271 270.285 123.024Z" fill="#5B3C46"/>
<path d="M269.158 125.915C269.021 124.655 266.645 127.033 263.466 127.276L264.068 129.526C268.127 128.665 269.295 127.171 269.158 125.915Z" fill="#5B3C46"/>
<path d="M333.602 156.261C333.41 155.573 332.562 155.207 331.709 155.45C330.856 155.693 330.322 156.444 330.514 157.136C330.705 157.823 331.554 158.19 332.407 157.947C333.26 157.704 333.793 156.952 333.602 156.261Z" fill="#D3D357"/>
<path d="M217.135 184.975C216.944 184.287 216.095 183.921 215.242 184.164C214.389 184.406 213.856 185.158 214.047 185.85C214.239 186.537 215.087 186.904 215.94 186.661C216.793 186.418 217.327 185.666 217.135 184.975Z" fill="#D3D357"/>
<path d="M294.301 156.824C294.469 156.128 293.908 155.395 293.046 155.184C292.184 154.973 291.349 155.367 291.181 156.064C291.012 156.76 291.573 157.493 292.435 157.704C293.297 157.915 294.132 157.521 294.301 156.824Z" fill="#D3D357"/>
<path d="M284.74 106.452C284.909 105.756 284.348 105.023 283.486 104.812C282.623 104.601 281.789 104.995 281.62 105.691C281.451 106.388 282.012 107.121 282.874 107.332C283.736 107.542 284.571 107.148 284.74 106.452Z" fill="#D3D357"/>
<path d="M240.645 97.0777C240.052 96.8715 239.162 97.2977 238.665 98.0353C238.163 98.7684 238.241 99.5336 238.834 99.7443C239.427 99.9505 240.316 99.5244 240.814 98.7867C241.315 98.0536 241.238 97.2885 240.645 97.0777Z" fill="#D3D357"/>
<path d="M298.707 122.8C298.757 122.085 298.082 121.453 297.197 121.393C296.312 121.329 295.555 121.856 295.505 122.571C295.455 123.286 296.13 123.918 297.015 123.977C297.9 124.041 298.657 123.515 298.707 122.8Z" fill="#D3D357"/>
<path d="M267.899 154.648L264.998 155.294L265.099 157.255L267.995 156.609L267.899 154.648Z" fill="#FFE8C2"/>
<path d="M259.027 102.026C259.333 100.28 259.036 98.773 258.37 98.6538C257.704 98.5347 256.911 99.8543 256.605 101.6C256.3 103.346 256.596 104.853 257.262 104.972C257.933 105.091 258.722 103.772 259.027 102.026Z" fill="#FFBB83"/>
<path d="M262.996 102.759C263.374 101.027 263.146 99.5061 262.48 99.3594C261.819 99.2128 260.97 100.496 260.592 102.228C260.213 103.96 260.441 105.481 261.107 105.627C261.769 105.774 262.617 104.491 262.996 102.759Z" fill="#FFBB83"/>
<path d="M261.408 101.673C261.217 102.988 261.262 103.992 261.55 104.079C261.833 104.166 262.261 103.355 262.626 102.15L261.408 101.673Z" fill="#332027"/>
<path d="M257.714 100.826C257.522 102.141 257.568 103.144 257.855 103.231C258.138 103.318 258.567 102.507 258.932 101.302L257.714 100.826Z" fill="#332027"/>
<path d="M264.277 100.816C264.588 99.4053 263.023 97.8154 260.788 97.2472C258.557 96.6837 256.468 97.3435 256.117 98.7409C255.761 100.152 257.312 101.774 259.584 102.351C261.86 102.933 263.963 102.237 264.277 100.812V100.816Z" fill="#5B3C46"/>
<path d="M257.002 106.608L260.911 107.345C260.911 107.345 260.492 109.403 258.489 109.274C256.487 109.146 257.002 106.608 257.002 106.608Z" fill="#332027"/>
<path d="M259.511 108.124C259.94 107.749 260.063 107.245 260.063 107.245L257.212 106.819C257.212 106.819 257.098 107.295 257.221 107.749L259.511 108.124Z" fill="#FFE8C2"/>
<path d="M280.557 210.188C280.557 210.188 278.879 213.038 271.808 216.099L274.267 219.086C280.055 219.393 284.813 214.843 284.813 214.843L280.557 210.188Z" fill="#FF85EB"/>
<path d="M292.047 212.552C292.047 212.552 288.462 214.403 280.357 213.748L281.123 217.235C286.077 220.3 293.607 219.132 293.607 219.132L292.047 212.552Z" fill="#FF85EB"/>
<path d="M287.65 201.226C287.65 201.226 283.682 200.534 277.597 195.11L276.119 198.358C278.236 203.801 284.95 207.421 284.95 207.421L287.646 201.222L287.65 201.226Z" fill="#FF85EB"/>
<path d="M284.808 180.869C284.808 180.869 282.227 183.976 274.504 186.546L276.662 190.913C282.414 191.797 288.8 186.317 288.8 186.317L284.808 180.869Z" fill="#B7AD89"/>
<path d="M266.531 206.619C266.531 206.619 270.08 206.656 276.128 210.5L277.227 206.307C274.618 201.881 268 200.846 268 200.846L266.531 206.614V206.619Z" fill="#FF85EB"/>
<path d="M265.295 218.6C265.295 218.6 267.808 215.686 274.805 213.418L272.57 209.519C267.566 208.525 262.188 213.272 262.188 213.272L265.295 218.605V218.6Z" fill="#FF85EB"/>
<path d="M270.773 212.749C270.773 211.975 269.82 211.352 268.643 211.352C267.466 211.352 266.513 211.98 266.513 212.749C266.513 213.519 267.466 214.147 268.643 214.147C269.82 214.147 270.773 213.519 270.773 212.749Z" fill="#DBDB5A"/>
<path d="M274.586 206.756C275.033 206.129 274.709 205.125 273.87 204.525C273.026 203.92 271.982 203.943 271.535 204.571C271.088 205.199 271.412 206.202 272.251 206.802C273.095 207.407 274.139 207.384 274.586 206.756Z" fill="#DBDB5A"/>
<path d="M282.998 202.321C283.445 201.694 283.121 200.69 282.281 200.09C281.438 199.485 280.393 199.508 279.946 200.136C279.499 200.764 279.823 201.767 280.662 202.367C281.506 202.972 282.551 202.949 282.998 202.321Z" fill="#DBDB5A"/>
<path d="M282.838 188.484C283.285 187.857 282.961 186.853 282.122 186.253C281.282 185.653 280.233 185.671 279.786 186.299C279.339 186.926 279.663 187.93 280.502 188.53C281.346 189.135 282.391 189.112 282.838 188.484Z" fill="#DBDB5A"/>
<path d="M288.097 217.373C288.544 216.745 288.22 215.741 287.381 215.141C286.537 214.536 285.493 214.559 285.046 215.187C284.599 215.815 284.922 216.818 285.762 217.418C286.601 218.019 287.65 218 288.097 217.373Z" fill="#DBDB5A"/>
<path d="M125.342 201.35L136.107 202.445C136.107 202.445 132.275 185.987 142.42 186.285L143.04 185.488C132.07 183.99 126.893 189.776 125.342 201.35Z" fill="#F2BF6D"/>
<path d="M174.249 220.593H129.224C129.224 220.593 130.154 195.174 143.04 185.501C143.04 185.501 161.363 190.179 174.249 220.593Z" fill="#FFD685"/>
<path d="M142.114 189.882C142.579 188.159 143.318 186.849 144.285 185.918C143.487 185.611 143.045 185.497 143.045 185.497C130.159 195.165 129.228 220.589 129.228 220.589H154.621C146.242 211.847 139.852 198.321 142.119 189.882H142.114Z" fill="#F2BF6D"/>
<path d="M141.457 195.852C138.314 192.072 140.203 189.74 141.448 188.196C141.941 187.582 142.37 187.055 142.31 186.665C142.283 186.473 142.123 186.28 141.831 186.088L142.173 185.57C142.62 185.868 142.867 186.198 142.921 186.574C143.022 187.233 142.516 187.866 141.927 188.59C140.673 190.138 139.117 192.067 141.927 195.453L141.453 195.852H141.457Z" fill="#AA5F44"/>
<path d="M145.321 194.372C147.373 188.755 145.293 187.545 144.025 186.807C143.542 186.528 143.136 186.29 143.172 186.111C143.191 186.024 143.318 185.941 143.551 185.854L143.245 185.648C142.876 185.772 142.666 185.909 142.611 186.079C142.515 186.4 143.013 186.697 143.61 187.05C144.942 187.838 146.73 188.897 144.445 194.037L145.316 194.372H145.321Z" fill="#AA5F44"/>
<path d="M140.686 187.609C142.073 186.597 143.378 185.951 144.527 186.019C142.155 183.101 140.061 186.583 140.686 187.609Z" fill="#AA5F44"/>
<path d="M139.592 84.0013C143.797 88.9267 138.141 97.0639 143.742 99.2861C143.742 99.2861 139.455 101.091 137.516 96.7845C135.578 92.4776 135.372 86.8466 131.5 89.6277L130.738 89.142C132.261 83.5156 136.143 79.9647 139.592 84.0013Z" fill="#DD3333"/>
<path d="M140.289 102.864C138.953 102.828 138.05 104.752 137.731 105.559L137.119 105.096C137.119 105.096 138.447 100.981 140.695 101.041C142.944 101.1 146.922 103.937 143.177 109.673L142.351 109.05C144.833 104.94 141.945 102.906 140.289 102.864Z" fill="#FFCF4A"/>
<path d="M116.789 132.064C118.632 132.11 120.612 128.261 118.956 126.415C117.3 124.568 108.875 119.29 108.031 119.24L107.479 119.959C107.479 119.959 113.418 131.982 116.785 132.064H116.789Z" fill="#FF9D66"/>
<path d="M129.301 153.429C129.725 152.513 132.033 149.452 135.067 149.452C138.1 149.452 140.718 152.513 140.294 153.429C139.87 154.345 137.065 155.088 134.027 155.088C130.989 155.088 128.872 154.345 129.297 153.429H129.301Z" fill="#C12556"/>
<path d="M124.461 113.439C123.773 108.239 126.619 103.9 129.306 104.395C131.582 104.812 132.708 109.247 132.74 114.777C132.772 120.307 132.654 124.381 130.368 124.014C128.083 123.647 125.187 118.924 124.461 113.444V113.439Z" fill="#FFB048"/>
<path d="M139.076 142.721C150.63 144.046 150.963 136.912 150.881 132.797C150.799 128.683 146.785 98.9929 135.459 105.366C124.133 111.739 130.642 141.75 139.072 142.721H139.076Z" fill="#FFB048"/>
<path d="M140.175 104.766C145.339 106.603 148.345 116.889 149.795 124.587C146.922 122.314 143.847 117.366 141.799 111.212C141.06 108.99 140.522 106.814 140.175 104.771V104.766Z" fill="#FFCF4A"/>
<path d="M138.273 136.137C143.496 159.963 128.152 219.769 128.152 219.769H127.308C127.308 219.769 106.946 154.959 113.774 140.426C120.342 126.442 138.273 136.137 138.273 136.137Z" fill="#442D35"/>
<path d="M133.06 188.017C132.234 164.957 126.427 145.273 119.768 145.512C117.086 145.608 113.154 148.215 112.629 155.115C112.114 148.719 112.346 143.468 113.774 140.426C120.342 126.442 138.273 136.137 138.273 136.137C141.443 150.611 137.028 178.363 133.073 197.918C133.183 194.738 133.183 191.421 133.06 188.012V188.017Z" fill="#352229"/>
<path d="M120.767 155.935L128.152 219.769H127.308L119.841 156.554L120.767 155.935Z" fill="#352229"/>
<path d="M124.763 153.928L120.023 158.098L115.074 154.547L120.767 155.935L124.763 153.928Z" fill="#352229"/>
<path d="M140.44 153.374C132.813 144.962 126.336 144.453 122.491 143.936C119.832 143.578 112.314 144.302 112.314 144.302C112.711 139.661 119.321 125.984 120.844 123.968C127.563 115.084 126.437 103.634 131.08 103.336C145.791 102.383 142.192 143.684 140.44 153.379V153.374Z" fill="#F4316D"/>
<path d="M119.996 132.037C118.614 132.037 117.3 132.481 116.096 133.283C118.002 128.981 120.073 124.985 120.844 123.968C127.563 115.084 126.437 103.634 131.08 103.336C145.791 102.383 142.192 143.684 140.44 153.379C136.681 149.232 133.201 147.01 130.177 145.755C129.237 137.938 125.036 132.041 119.996 132.041V132.037Z" fill="#D12A5D"/>
<path d="M129.99 104.427C123.864 111.414 119.836 121.787 119.836 121.787C119.836 121.787 131.887 127.377 133.972 126.397C136.057 125.416 138.948 109.833 137.211 107.217C135.473 104.601 129.985 104.422 129.985 104.422L129.99 104.427Z" fill="#D12A5D"/>
<path d="M129.52 103.547C129.52 103.547 132.047 103.996 134.291 105.032C134.437 105.187 134.82 105.371 134.684 105.522C130.784 109.678 133.53 123.721 131.445 124.701C129.99 125.384 123.691 122.873 120.01 121.292C120.776 119.038 124.165 109.664 129.525 103.552L129.52 103.547Z" fill="#F4316D"/>
<path d="M133.758 115.606C132.43 110.534 134.72 105.875 137.443 106.026C139.756 106.154 141.421 110.415 142.137 115.895C142.853 121.375 143.236 125.434 140.924 125.356C138.611 125.274 135.153 120.953 133.758 115.606Z" fill="#FFB048"/>
<path d="M113.614 96.0926L120.68 115.455L113.697 118.603L100.441 120.294L91.2042 103.272L113.614 96.0926Z" fill="#EFE4BF"/>
<path d="M112.798 96.3538L113.614 96.0926L120.68 115.455L119.996 116.28L112.798 96.3538Z" fill="#EAD7A2"/>
<path d="M135.541 126.589L114.335 129.008L100.441 120.294L120.68 115.455L135.692 125.718L135.541 126.589Z" fill="#EAD7A2"/>
<path d="M138.611 135.968C143.738 131.51 143.701 115.62 138.333 108.069C137.69 107.167 133.812 110.654 135.623 115.735C137.357 120.605 136.928 126.465 135.304 127.473C132.572 129.169 138.611 135.963 138.611 135.963V135.968Z" fill="#F4316D"/>
<path d="M140.153 111.391C143.619 119.556 143.067 132.087 138.611 135.968C138.611 135.968 137.562 134.786 136.531 133.283C140.527 129.604 142.009 119.327 140.153 111.396V111.391Z" fill="#D12A5D"/>
<path d="M137.968 136.064C140.253 136.33 140.737 130.74 138.086 128.559C135.436 126.383 123.983 121.412 122.924 121.256L122.482 121.961C122.482 121.961 133.785 135.574 137.963 136.059L137.968 136.064Z" fill="#FFBB83"/>
<path d="M122.929 121.26C123.476 121.338 126.833 122.722 130.3 124.335C130.852 125.549 132.038 126.923 133.648 128.078C135.687 129.54 137.835 130.245 139.227 130.03C140.499 132.577 139.838 136.284 137.968 136.064C133.789 135.578 122.486 121.966 122.486 121.966L122.929 121.26Z" fill="#FF9D66"/>
<path d="M126.984 220.593H131.253C131.253 220.593 129.438 218.399 128.448 218.587C127.454 218.774 126.984 220.593 126.984 220.593Z" fill="#EFE4BF"/>
<path d="M128.133 220.571H121.861C121.861 220.571 125.538 217.986 126.906 218.206C128.275 218.426 128.129 220.571 128.129 220.571H128.133Z" fill="#EFE4BF"/>
<path d="M107.11 109.846C107.299 108.818 106.386 107.787 105.071 107.542C103.756 107.298 102.536 107.933 102.346 108.96C102.157 109.988 103.07 111.019 104.385 111.264C105.7 111.508 106.92 110.874 107.11 109.846Z" fill="#FFF7E3"/>
<path d="M136.686 105.673C135.728 106.287 134.478 106.667 133.105 106.667C131.153 106.667 129.452 105.911 128.494 104.784C128.827 104.358 129.169 103.946 129.515 103.547C129.515 103.547 129.702 103.579 130.017 103.648C130.336 103.469 130.688 103.359 131.08 103.332C133.365 103.185 135.208 104.056 136.686 105.673Z" fill="#EAD7A2"/>
<path d="M129.055 95.5565L133.853 91.8224C133.853 91.8224 135.281 98.1911 135.409 104.528C134.305 106.223 131.103 105.614 129.52 103.543C130.277 100.995 129.055 95.5565 129.055 95.5565Z" fill="#ED7656"/>
<path d="M136.668 102.507C131.97 105.898 128.717 102.507 128.717 102.507L128.398 96.2942L134.164 89.9118C135.623 95.2862 135.587 99.6435 136.668 102.507Z" fill="#38232B"/>
<path d="M127.303 103.387C132.334 104.01 134.857 100.45 135.021 94.883C135.172 89.7148 132.453 84.1937 128.662 84.5786C123.745 85.078 122.491 88.7389 123.225 93.8017C123.827 97.9253 127.308 103.387 127.308 103.387H127.303Z" fill="#442D35"/>
<path d="M125.597 94.8555C125.625 94.9563 125.652 95.0571 125.679 95.1579C126.062 96.702 126.062 98.0215 125.679 98.1086C125.292 98.1956 124.667 97.0135 124.284 95.4741C124.211 95.1717 124.147 94.8784 124.101 94.6035C124.457 94.9563 124.991 95.0296 125.602 94.8555H125.597Z" fill="#FFBB83"/>
<path d="M127.705 93.4123C127.974 93.119 128.211 92.8029 128.421 92.4822C128.703 92.9449 128.941 93.5955 129.068 94.347C129.338 95.9139 129.041 97.2976 128.402 97.4443C127.764 97.5863 127.025 96.4363 126.751 94.8693C126.719 94.6814 126.696 94.4982 126.678 94.3195C127.025 94.0812 127.372 93.7788 127.705 93.4123Z" fill="#FFBB83"/>
<path d="M127.855 94.599C127.942 94.5028 128.019 94.402 128.088 94.2966C128.179 94.4478 128.257 94.6585 128.298 94.9059C128.384 95.4145 128.288 95.8681 128.079 95.9139C127.869 95.9598 127.632 95.5841 127.54 95.0755C127.531 95.0159 127.522 94.9564 127.518 94.8968C127.632 94.8189 127.746 94.7227 127.851 94.6035L127.855 94.599Z" fill="#442D35"/>
<path d="M125.305 95.8131C125.314 95.8498 125.323 95.8819 125.333 95.9185C125.469 96.4637 125.469 96.9265 125.333 96.9586C125.196 96.9907 124.977 96.5737 124.84 96.0285C124.813 95.9231 124.794 95.8177 124.776 95.7215C124.899 95.8452 125.091 95.8727 125.305 95.8086V95.8131Z" fill="#442D35"/>
<path d="M123.686 124.545C125.415 123.272 125.301 121.728 125.301 121.728L122.646 120.802L121.3 121.847L123.686 124.55V124.545Z" fill="#442D35"/>
<path d="M120.484 118.947C121.177 118.772 121.524 120.078 122.272 119.904C123.02 119.73 122.733 117.966 123.107 118.342C123.481 118.717 122.961 120.426 123.193 121.15L121.492 121.934C120.52 121.508 119.841 121.045 119.69 120.518C119.485 119.799 120.082 119.052 120.479 118.951L120.484 118.947Z" fill="#442D35"/>
<path d="M122.185 120.307C121.059 118.598 120.598 116.775 120.224 116.917C119.85 117.063 120.972 119.9 120.972 119.9L122.181 120.307H122.185Z" fill="#442D35"/>
<path d="M121.323 120.339C120.119 118.685 119.572 116.885 119.202 117.05C118.833 117.21 120.251 120.037 120.251 120.037L121.323 120.339Z" fill="#442D35"/>
<path d="M121.013 121.21C119.786 119.895 119.198 118.323 118.842 118.543C118.486 118.763 120.078 121.004 120.078 121.004L121.008 121.215L121.013 121.21Z" fill="#442D35"/>
<path d="M127.695 99.7993L129.744 98.2644C129.744 98.2644 130.697 100.12 129.657 100.638C128.617 101.16 127.695 99.7993 127.695 99.7993Z" fill="#FFF7E3"/>
<g clip-path="url(#clip1_4355_34100)">
<path d="M318.212 22.1861L317.634 23.9186L317.666 23.9275L318.244 22.195L318.212 22.1861Z" fill="white"/>
<path d="M318.244 22.1865L318.212 22.1964L318.863 23.9289L318.895 23.919L318.244 22.1865Z" fill="white"/>
<path d="M318.245 22.1912H318.211V23.9237H318.245V22.1912Z" fill="white"/>
<path d="M318.995 23.8929C318.995 24.1285 318.668 24.3196 318.265 24.3196C317.861 24.3196 317.535 24.1285 317.535 23.8929H318.995Z" fill="white"/>
<path opacity="0.11" d="M317.535 23.9161C317.534 23.9047 317.534 23.9047 317.534 23.8929H318.995C318.989 24.0294 318.921 24.0861 318.869 24.1327L317.535 23.9164V23.9161Z" fill="white"/>
<path d="M318.228 22.2068C318.184 22.2068 318.149 22.1747 318.149 22.1349C318.149 22.0952 318.184 22.063 318.228 22.063C318.272 22.063 318.307 22.0952 318.307 22.1349C318.307 22.1747 318.272 22.2068 318.228 22.2068ZM318.228 22.0938C318.203 22.0938 318.183 22.1121 318.183 22.1349C318.183 22.1577 318.203 22.176 318.228 22.176C318.253 22.176 318.273 22.1577 318.273 22.1349C318.273 22.1121 318.253 22.0938 318.228 22.0938Z" fill="white"/>
<path d="M318.701 21.9017C318.694 21.8875 318.678 21.8654 318.661 21.8675C318.649 21.8689 318.64 21.8779 318.635 21.8875C318.63 21.8972 318.628 21.9079 318.624 21.9179C318.615 21.9373 318.598 21.9539 318.577 21.9629C318.576 21.9635 318.574 21.9642 318.573 21.9649C318.435 21.9867 318.015 22.0416 317.306 21.8675C317.207 21.8433 317.076 21.8109 316.871 21.7784C316.732 21.7563 316.444 21.7169 316.075 21.7138C316.035 21.7134 316.001 21.7138 315.979 21.7138C315.979 21.7708 315.979 21.8278 315.979 21.8851C316.204 21.8858 316.543 21.8979 316.954 21.9566C317.125 21.9812 317.214 21.9946 317.329 22.0185C318.017 22.1632 318.582 22.0665 318.582 22.0665C318.598 22.0648 318.624 22.0596 318.65 22.0423C318.698 22.0091 318.722 21.9452 318.702 21.9021L318.701 21.9017Z" fill="white"/>
<path d="M313.751 22.1873L313.719 22.1962L314.296 23.9288L314.329 23.9199L313.751 22.1873Z" fill="white"/>
<path d="M313.719 22.1859L313.068 23.9185L313.1 23.9284L313.751 22.1959L313.719 22.1859Z" fill="white"/>
<path d="M313.752 22.1912H313.718V23.9237H313.752V22.1912Z" fill="white"/>
<path d="M312.968 23.8929C312.968 24.1285 313.295 24.3196 313.698 24.3196C314.102 24.3196 314.428 24.1285 314.428 23.8929H312.968Z" fill="white"/>
<path opacity="0.11" d="M314.428 23.9161C314.429 23.9047 314.428 23.9047 314.428 23.8929H312.968C312.974 24.0294 313.042 24.0861 313.094 24.1327L314.428 23.9164V23.9161Z" fill="white"/>
<path d="M313.735 22.2068C313.779 22.2068 313.814 22.1747 313.814 22.1349C313.814 22.0952 313.779 22.063 313.735 22.063C313.691 22.063 313.656 22.0952 313.656 22.1349C313.656 22.1747 313.691 22.2068 313.735 22.2068ZM313.735 22.0938C313.76 22.0938 313.78 22.1121 313.78 22.1349C313.78 22.1577 313.76 22.176 313.735 22.176C313.71 22.176 313.69 22.1577 313.69 22.1349C313.69 22.1121 313.71 22.0938 313.735 22.0938Z" fill="white"/>
<path d="M313.262 21.9017C313.267 21.8844 313.282 21.8651 313.302 21.8675C313.314 21.8689 313.323 21.8779 313.328 21.8875C313.333 21.8972 313.335 21.9079 313.339 21.9179C313.348 21.9373 313.365 21.9539 313.385 21.9629C313.387 21.9635 313.389 21.9642 313.39 21.9649C313.528 21.9867 313.948 22.0416 314.657 21.8675C314.756 21.8433 314.887 21.8109 315.092 21.7784C315.231 21.7563 315.519 21.7169 315.888 21.7138C315.928 21.7134 315.962 21.7138 315.984 21.7138C315.982 21.7708 315.981 21.8278 315.979 21.8851C315.674 21.8793 315.271 21.8958 314.799 21.986C314.709 22.0033 314.709 22.0029 314.635 22.0185C313.946 22.1632 313.381 22.0665 313.381 22.0665C313.381 22.0665 313.333 22.0551 313.314 22.0423C313.307 22.0378 313.301 22.0326 313.295 22.0271C313.261 21.9943 313.249 21.9452 313.262 21.9021L313.262 21.9017Z" fill="white"/>
</g>
<rect x="310" y="16" width="16" height="16" rx="2" fill="#EABF4E"/>
<path d="M313.198 21.6305C313.253 21.6681 313.301 21.6992 313.347 21.7331C313.752 22.0329 314.213 22.1352 314.725 22.0461C314.773 22.0378 314.819 22.0205 314.864 22.0029C314.902 21.988 314.945 21.9697 314.942 21.9244C314.939 21.8802 314.898 21.8623 314.856 21.8529C314.747 21.8284 314.636 21.8053 314.526 21.7828C314.158 21.7075 313.791 21.6305 313.451 21.4712C312.929 21.2266 312.588 20.8514 312.437 20.335C312.42 20.278 312.413 20.2206 312.421 20.1619C312.431 20.0866 312.473 20.0666 312.545 20.1042C312.647 20.1578 312.729 20.2348 312.818 20.3029C313.327 20.6915 313.91 20.9188 314.576 20.9578C314.622 20.9606 314.701 20.9914 314.71 20.9288C314.717 20.8805 314.634 20.8874 314.591 20.8753C313.986 20.7064 313.399 20.4998 312.891 20.1484C312.283 19.729 311.96 19.1808 312.015 18.4726C312.023 18.3662 312.038 18.2608 312.084 18.1617C312.161 17.9941 312.301 17.9544 312.464 18.0605C312.635 18.1707 312.767 18.3171 312.901 18.4612C313.299 18.891 313.701 19.3176 314.198 19.66C314.807 20.08 315.484 20.3716 316.227 20.5357C316.402 20.5744 316.579 20.6107 316.757 20.6397C316.852 20.6549 316.865 20.6891 316.834 20.7654C316.71 21.066 316.669 21.3765 316.714 21.6951C316.744 21.9117 316.881 22.0599 317.059 22.0785C317.23 22.0965 317.408 21.9732 317.477 21.7614C317.545 21.5517 317.583 21.3341 317.646 21.1226C317.75 20.7661 317.891 20.6884 318.294 20.7585C318.394 20.7758 318.489 20.8103 318.586 20.8394C318.618 20.849 318.657 20.8611 318.664 20.8932C318.69 21 318.787 21.0231 318.88 21.0518C318.949 21.0732 319.013 21.1033 319.034 21.1755C319.042 21.2031 319.037 21.2311 319.01 21.2498C318.982 21.2681 318.961 21.2511 318.939 21.2366C318.792 21.1361 318.636 21.1966 318.484 21.2204C318.452 21.2252 318.437 21.2567 318.437 21.2853C318.44 21.5092 318.452 21.7331 318.609 21.9213C318.7 22.0295 318.814 22.11 318.977 22.0727C319.14 22.0353 319.237 21.932 319.269 21.788C319.347 21.4432 319.296 21.1071 319.171 20.7772C319.127 20.6597 319.129 20.6583 319.27 20.6369C320.166 20.5001 320.99 20.2041 321.726 19.7163C322.196 19.405 322.583 19.0167 322.957 18.616C323.095 18.4671 323.231 18.3151 323.385 18.179C323.423 18.1455 323.461 18.1119 323.503 18.0833C323.703 17.9461 323.872 17.999 323.938 18.2177C324.01 18.4571 324 18.6989 323.961 18.9414C323.88 19.434 323.581 19.8057 323.167 20.1097C322.649 20.4891 322.041 20.6994 321.415 20.8767C321.404 20.8798 321.392 20.8801 321.382 20.885C321.349 20.9008 321.282 20.8901 321.292 20.9409C321.299 20.9779 321.357 20.9661 321.393 20.9641C322.014 20.9319 322.568 20.7381 323.056 20.3875C323.168 20.3067 323.278 20.2231 323.391 20.1429C323.431 20.1146 323.471 20.0669 323.529 20.0983C323.586 20.1298 323.576 20.1882 323.567 20.2386C323.487 20.6666 323.253 21.0097 322.877 21.2767C322.44 21.5873 321.919 21.6996 321.393 21.7984C321.312 21.8136 321.23 21.8281 321.15 21.8474C321.103 21.8588 321.048 21.8744 321.045 21.9279C321.043 21.9814 321.099 22.0011 321.143 22.0157C321.342 22.0803 321.548 22.0944 321.756 22.0754C322.113 22.0426 322.423 21.9134 322.695 21.703C322.721 21.683 322.748 21.6346 322.785 21.665C322.815 21.6895 322.779 21.7289 322.762 21.7576C322.345 22.4665 321.565 22.9356 320.621 22.8617C320.369 22.842 320.118 22.8137 319.866 22.8023C319.355 22.7791 319.016 22.9722 318.815 23.3992C318.776 23.4828 318.727 23.5039 318.634 23.4921C318.199 23.4365 317.762 23.4341 317.326 23.4953C317.249 23.506 317.209 23.4797 317.178 23.4165C316.944 22.9425 316.622 22.7681 316.052 22.7998C315.77 22.8157 315.491 22.8644 315.207 22.8648C314.289 22.8655 313.657 22.4478 313.217 21.7479C313.2 21.7199 313.175 21.6899 313.197 21.6318L313.198 21.6305Z" fill="#151513"/>
<path d="M317.999 25.6304C317.953 25.7157 317.915 25.7972 317.867 25.8729C317.779 26.0111 317.639 26.0881 317.471 26.1251C317.436 26.133 317.394 26.1434 317.368 26.1071C317.345 26.0739 317.376 26.0494 317.396 26.0256C317.425 25.99 317.455 25.9548 317.487 25.9206C317.718 25.6677 317.776 25.3778 317.709 25.0617C317.705 25.0417 317.699 25.0213 317.691 25.0023C317.681 24.9778 317.674 24.9426 317.636 24.9481C317.605 24.9526 317.608 24.9847 317.604 25.0079C317.585 25.1229 317.574 25.2397 317.544 25.3526C317.48 25.6007 317.326 25.7862 317.055 25.8767C317.023 25.8871 316.989 25.8912 316.955 25.8957C316.926 25.8995 316.893 25.9071 316.875 25.876C316.859 25.8494 316.882 25.8301 316.899 25.8131C316.939 25.7724 316.982 25.7333 317.023 25.6943C317.261 25.4708 317.391 25.2044 317.406 24.8935C317.407 24.8631 317.404 24.832 317.399 24.8013C317.396 24.7771 317.387 24.7522 317.354 24.7501C317.328 24.7484 317.312 24.7653 317.302 24.7843C317.277 24.8337 317.25 24.8835 317.229 24.9346C317.165 25.0863 317.081 25.2272 316.975 25.3575C316.875 25.4798 316.74 25.5371 316.573 25.5281C316.521 25.5254 316.463 25.5129 316.442 25.4621C316.418 25.4072 316.465 25.3706 316.504 25.3409C316.685 25.2062 316.872 25.078 317.005 24.899C317.179 24.6659 317.31 24.4182 317.306 24.1276C317.305 24.0575 317.336 24.0216 317.415 24.0105C317.81 23.9552 318.204 23.9646 318.598 24.0105C318.658 24.0174 318.695 24.0457 318.696 24.1045C318.702 24.6192 319.001 24.9851 319.425 25.2873C319.449 25.3043 319.473 25.3205 319.495 25.3395C319.533 25.3723 319.585 25.4038 319.564 25.459C319.541 25.5205 319.475 25.5288 319.413 25.5295C319.266 25.5312 319.143 25.4842 319.047 25.3775C318.917 25.2321 318.831 25.0652 318.755 24.8928C318.745 24.8707 318.736 24.8479 318.724 24.8268C318.705 24.7947 318.694 24.7436 318.645 24.7498C318.585 24.7574 318.598 24.8141 318.598 24.8514C318.597 25.1288 318.692 25.3765 318.886 25.591C318.953 25.6649 319.026 25.7337 319.097 25.8052C319.117 25.8252 319.146 25.8453 319.131 25.8753C319.112 25.9112 319.073 25.9002 319.04 25.8964C318.775 25.8646 318.52 25.6314 318.456 25.3568C318.431 25.2466 318.419 25.1336 318.399 25.022C318.394 24.9944 318.408 24.9512 318.359 24.9502C318.322 24.9495 318.319 24.9875 318.311 25.0123C318.227 25.2756 318.264 25.5281 318.403 25.7679C318.455 25.8587 318.523 25.942 318.6 26.0176C318.625 26.0422 318.659 26.0701 318.637 26.1071C318.611 26.1489 318.563 26.1358 318.525 26.1268C318.296 26.0733 318.14 25.9458 318.06 25.7433C318.046 25.7088 318.048 25.668 317.999 25.6311L317.999 25.6304Z" fill="#151513"/>
<g clip-path="url(#clip2_4355_34100)">
<path d="M312.019 27.4699C312.019 27.4332 312.055 27.4003 312.095 27.4003H312.22C312.26 27.4003 312.296 27.4332 312.296 27.4699V29.8964C312.296 29.933 312.26 29.966 312.22 29.966H312.095C312.055 29.966 312.019 29.933 312.019 29.8964V27.4699Z" fill="#151513"/>
<path d="M313.597 29.035C313.769 29.035 313.938 29.0826 313.938 29.0826C313.942 28.8114 313.906 28.6867 313.677 28.6867C313.448 28.6867 313.267 28.7418 313.195 28.7674C313.155 28.7821 313.131 28.7637 313.119 28.7307L313.087 28.6391C313.071 28.5951 313.095 28.5732 313.131 28.5585C313.155 28.5474 313.388 28.4631 313.689 28.4631C314.098 28.4631 314.199 28.6538 314.199 29.0826V29.8963C314.199 29.933 314.162 29.9659 314.122 29.9659H314.046C314.002 29.9659 313.99 29.944 313.978 29.9109L313.946 29.8119C313.862 29.8889 313.697 30.0026 313.448 30.0026C313.167 30.0026 312.954 29.8156 312.954 29.5224C312.954 29.2292 313.183 29.0349 313.597 29.0349V29.035ZM313.492 29.7827C313.693 29.7827 313.865 29.6692 313.934 29.5775V29.288C313.886 29.2624 313.773 29.2293 313.597 29.2293C313.372 29.2293 313.211 29.332 313.211 29.5225C313.211 29.6692 313.32 29.7827 313.492 29.7827Z" fill="#151513"/>
<path d="M314.805 28.5841C314.788 28.5327 314.805 28.4998 314.865 28.4998H314.989C315.025 28.4998 315.053 28.5181 315.061 28.5401L315.354 29.5078H315.358L315.812 28.4998C315.82 28.4814 315.844 28.4631 315.88 28.4631H315.9C315.936 28.4631 315.96 28.4815 315.969 28.4998L316.418 29.5115H316.422L316.711 28.5401C316.719 28.5181 316.747 28.4998 316.779 28.4998H316.904C316.964 28.4998 316.98 28.5327 316.964 28.5841L316.526 29.9659C316.518 29.9879 316.49 30.0026 316.458 30.0026H316.438C316.402 30.0026 316.378 29.9842 316.37 29.9659L315.88 28.8664L315.406 29.9659C315.398 29.9843 315.374 30.0026 315.338 30.0026H315.318C315.282 30.0026 315.258 29.9879 315.25 29.9659L314.804 28.5841H314.805Z" fill="#151513"/>
<path d="M317.526 28.117C317.526 28.018 317.61 27.941 317.714 27.941C317.819 27.941 317.907 28.018 317.907 28.117C317.907 28.216 317.823 28.2893 317.714 28.2893C317.606 28.2893 317.526 28.2123 317.526 28.117ZM317.582 28.5695C317.582 28.5329 317.618 28.4999 317.658 28.4999H317.782C317.822 28.4999 317.859 28.5329 317.859 28.5695V29.8964C317.859 29.933 317.822 29.966 317.782 29.966H317.658C317.618 29.966 317.582 29.933 317.582 29.8964V28.5695Z" fill="white"/>
<path d="M318.629 28.5695C318.629 28.5328 318.665 28.4999 318.705 28.4999H318.782C318.818 28.4999 318.838 28.5146 318.846 28.5439L318.882 28.6575C318.882 28.6575 319.111 28.4631 319.444 28.4631C319.909 28.4631 320.066 28.7418 320.066 29.1229V29.8963C320.066 29.933 320.03 29.9659 319.99 29.9659H319.861C319.821 29.9659 319.785 29.933 319.785 29.8963V29.1229C319.785 28.8443 319.649 28.7088 319.424 28.7088C319.123 28.7088 318.906 28.9177 318.906 28.9177V29.8963C318.906 29.933 318.87 29.9659 318.83 29.9659H318.706C318.666 29.9659 318.63 29.933 318.63 29.8963V28.5695H318.629Z" fill="white"/>
<path d="M320.676 29.8598L321.463 28.7418V28.7308H320.788C320.748 28.7308 320.716 28.6978 320.716 28.6612V28.5695C320.716 28.5292 320.748 28.4999 320.788 28.4999H321.796C321.856 28.4999 321.896 28.5513 321.864 28.5989L321.097 29.7242V29.7352H321.715C321.76 29.7352 321.792 29.7645 321.792 29.8048V29.8965C321.792 29.9331 321.76 29.9661 321.715 29.9661H320.752C320.712 29.9661 320.676 29.9331 320.676 29.8965V29.8599V29.8598Z" fill="white"/>
<path d="M323.164 28.4631C323.61 28.4631 323.963 28.815 323.963 29.2292C323.963 29.6433 323.61 30.0026 323.164 30.0026C322.719 30.0026 322.366 29.6507 322.366 29.2292C322.366 28.8077 322.719 28.4631 323.164 28.4631ZM323.164 29.7644C323.457 29.7644 323.686 29.5261 323.686 29.2292C323.686 28.9323 323.457 28.705 323.164 28.705C322.871 28.705 322.643 28.9396 322.643 29.2292C322.643 29.5187 322.871 29.7644 323.164 29.7644Z" fill="white"/>
</g>
</g>
<defs>
<clipPath id="clip0_4355_34100">
<rect width="350" height="218.75" fill="white"/>
</clipPath>
<clipPath id="clip1_4355_34100">
<rect width="11.9859" height="8.27329" fill="white" transform="translate(310.014 16.0466)"/>
</clipPath>
<clipPath id="clip2_4355_34100">
<rect width="11.9038" height="2.6087" fill="white" transform="translate(312.023 27.3898)"/>
</clipPath>
</defs>
</svg>
