<svg width="90" height="115" viewBox="0 0 90 115" fill="none" xmlns="http://www.w3.org/2000/svg">
<g clip-path="url(#clip0_4235_30516)">
<circle cx="45" cy="45.4883" r="45" fill="white"/>
<g clip-path="url(#clip1_4235_30516)">
<path d="M70.4914 58.938C70.4943 62.3863 70.5011 65.8357 70.4972 69.2841C70.4972 70.1567 69.8339 70.7674 68.9127 70.7684C63.5781 70.7703 58.2434 70.7694 52.9097 70.7684C51.9016 70.7684 50.8934 70.7625 49.8853 70.7596C49.7144 70.5739 49.73 70.3394 49.729 70.1147C49.7251 66.6116 49.7251 63.1075 49.729 59.6044C49.729 59.3787 49.7202 59.1471 49.8658 58.9497C49.9498 58.8647 50.0553 58.8178 50.1706 58.8109C50.9667 58.764 51.7638 58.7631 52.56 58.8109C52.6577 58.8168 52.7485 58.8588 52.8267 58.9223C53.0338 59.1725 52.9849 59.4754 52.9859 59.7627C52.9908 62.1499 52.9859 64.538 52.9898 66.9252C52.9898 67.6532 53.0074 67.6679 53.7185 67.6718C54.1083 67.6737 54.4981 67.6747 54.8878 67.6718C55.5638 67.6669 55.5883 67.6464 55.5892 66.9477C55.5922 64.5605 55.5883 62.1723 55.5931 59.7852C55.5931 59.4969 55.5472 59.1959 55.7367 58.937C55.8374 58.8432 55.9624 58.8051 56.0923 58.8002C56.8533 58.7719 57.6143 58.765 58.3743 58.8041C58.4886 58.81 58.596 58.849 58.6879 58.9223C58.895 59.1735 58.8461 59.4774 58.8461 59.7656C58.851 62.143 58.8471 64.5195 58.849 66.8969C58.849 67.6591 58.8617 67.6688 59.6012 67.6718C59.9597 67.6737 60.3173 67.6727 60.6758 67.6718C61.4358 67.6688 61.4475 67.661 61.4485 66.9184C61.4514 65.2572 61.4485 63.597 61.4485 61.9359C61.4485 61.1708 61.4446 60.4057 61.4504 59.6405C61.4524 59.3982 61.4309 59.1481 61.594 58.937C61.6947 58.8432 61.8197 58.8051 61.9496 58.8002C62.7106 58.7719 63.4716 58.765 64.2326 58.8041C64.3469 58.81 64.4543 58.849 64.5461 58.9223C64.7532 59.1735 64.7044 59.4774 64.7044 59.7656C64.7093 62.1098 64.7063 64.454 64.7073 66.7982C64.7073 67.3793 64.9906 67.6705 65.5572 67.6718C65.8991 67.6718 66.241 67.6718 66.5829 67.6718C67.4025 67.6698 67.4045 67.6698 67.4054 66.8705C67.4074 65.2103 67.4054 63.5492 67.4054 61.889C67.4054 61.1405 67.4015 60.391 67.4074 59.6425C67.4093 59.4002 67.3878 59.15 67.55 58.9389C67.6643 58.8334 67.8069 58.8012 67.9534 58.7963C68.6646 58.7718 69.3767 58.7767 70.0889 58.7933C70.2364 58.7973 70.378 58.8295 70.4914 58.937V58.938Z" fill="#FEC771"/>
<path d="M41.1159 70.7635C34.7418 70.7654 28.3668 70.7694 21.9927 70.7684C21.1838 70.7684 20.501 70.0893 20.501 69.2831C20.4991 65.8347 20.503 62.3864 20.5059 58.938C20.6055 58.8451 20.7276 58.8041 20.8585 58.8002C21.599 58.7767 22.3395 58.7738 23.079 58.8021C23.2079 58.807 23.3339 58.8422 23.4365 58.9292C23.6387 59.1823 23.5908 59.4852 23.5908 59.7734C23.5957 62.1499 23.5918 64.5263 23.5938 66.9028C23.5938 67.662 23.6065 67.6718 24.3489 67.6737C24.7719 67.6757 25.1949 67.6767 25.6178 67.6737C26.2499 67.6679 26.287 67.6376 26.289 67.0161C26.2938 65.2905 26.2909 63.5658 26.2909 61.8401C26.2909 61.1073 26.287 60.3754 26.2929 59.6425C26.2948 59.4002 26.2733 59.15 26.4365 58.939C26.5371 58.8451 26.6621 58.807 26.792 58.8021C27.553 58.7738 28.314 58.767 29.075 58.8061C29.1893 58.8119 29.2967 58.851 29.3886 58.9243C29.5957 59.1754 29.5468 59.4793 29.5468 59.7676C29.5517 62.145 29.5478 64.5214 29.5497 66.8989C29.5497 67.661 29.5624 67.6708 30.3019 67.6737C30.6604 67.6757 31.018 67.6747 31.3765 67.6737C32.1365 67.6708 32.1482 67.663 32.1492 66.9203C32.1521 65.2592 32.1492 63.599 32.1492 61.9378C32.1492 61.1727 32.1453 60.4076 32.1511 59.6425C32.1531 59.4002 32.1316 59.15 32.2947 58.939C32.3954 58.8451 32.5204 58.807 32.6503 58.8021C33.4113 58.7738 34.1723 58.767 34.9333 58.8061C35.0476 58.8119 35.155 58.851 35.2468 58.9243C35.453 59.1754 35.4051 59.4774 35.4051 59.7656C35.41 62.1528 35.4051 64.541 35.409 66.9282C35.409 67.6552 35.4276 67.6698 36.1387 67.6737C36.4962 67.6757 36.8528 67.6747 37.2103 67.6737C37.7411 67.6724 38.0071 67.3982 38.0084 66.851C38.0094 64.496 38.0065 62.1411 38.0114 59.7852C38.0114 59.4969 37.9655 59.1959 38.1559 58.938C38.2693 58.8344 38.4109 58.8022 38.5555 58.7973C39.2764 58.7738 39.9973 58.7738 40.7173 58.7973C40.8628 58.8022 41.0035 58.8344 41.1188 58.936C41.2751 59.1285 41.2682 59.3601 41.2682 59.5868C41.2731 63.0967 41.2722 66.6057 41.2682 70.1156C41.2682 70.3414 41.2819 70.5749 41.1139 70.7625L41.1159 70.7635Z" fill="#FEE4AB"/>
<path d="M58.6915 47.2211C62.0871 47.2231 65.4817 47.225 68.8773 47.227C69.9236 47.227 70.5009 47.8045 70.4999 48.852C70.496 51.5333 70.4901 54.2136 70.4843 56.8949C70.2586 56.8666 70.285 56.6653 70.243 56.5236C69.6793 54.6299 68.4153 53.5384 66.4674 53.2589C65.4388 53.1114 64.4922 53.4065 63.6472 53.9723C63.231 54.2517 62.9272 54.2439 62.5072 53.9723C60.9471 52.9648 59.349 52.9678 57.7889 53.9723C57.3688 54.2429 57.0689 54.2478 56.6509 53.9693C54.1725 52.316 50.9215 53.5687 50.1693 56.4435C50.1234 56.6184 50.1557 56.851 49.9056 56.9194C49.6965 56.7972 49.6838 56.5725 49.6233 56.3751C49.0557 54.5449 47.8141 53.5062 45.9278 53.2247C45.7197 53.1935 45.496 53.2042 45.3964 52.958C45.3016 52.6385 45.3358 52.3111 45.3348 51.9877C45.3309 50.6539 45.3309 49.32 45.3348 47.9862C45.3348 47.7283 45.3055 47.4625 45.4667 47.2309C45.9405 46.9368 46.4611 47.1019 46.9623 47.0794C47.9372 47.053 48.9131 47.0511 49.888 47.0794C50.8639 47.053 51.8408 47.0511 52.8166 47.0794C53.7955 47.053 54.7733 47.0511 55.7521 47.0794C56.5473 47.0423 57.3434 47.0677 58.1386 47.0657C58.335 47.0657 58.5294 47.0843 58.6886 47.2211H58.6915Z" fill="#FEA132"/>
<path d="M45.4982 47.2269C45.4982 49.1773 45.4983 51.1267 45.4973 53.0771C45.4816 53.0967 45.466 53.1152 45.4514 53.1348C44.8877 53.3302 44.2801 53.3517 43.7282 53.6185C42.5168 54.2048 41.7246 55.1213 41.3798 56.4268C41.3319 56.6076 41.3876 56.8734 41.0877 56.9115C40.9031 56.7688 40.8874 56.546 40.8269 56.3467C39.9545 53.4807 36.8168 52.3267 34.3209 53.9751C33.9155 54.2429 33.6195 54.2253 33.2239 53.9644C31.6453 52.9247 30.0383 52.9579 28.4646 53.9742C28.0602 54.2351 27.7652 54.2302 27.3676 53.9663C24.9332 52.3531 21.7242 53.4778 20.805 56.2431C20.7483 56.4141 20.7679 56.6496 20.5158 56.7043C20.51 54.0357 20.4924 51.3681 20.5061 48.6995C20.5109 47.7878 21.1684 47.2289 22.157 47.2279C25.4265 47.225 28.6971 47.2269 31.9667 47.2269C32.081 47.2269 32.1943 47.2259 32.3086 47.225C32.4659 47.0862 32.6593 47.0657 32.8556 47.0667C33.6488 47.0686 34.443 47.0422 35.2363 47.0803C36.2141 47.054 37.1919 47.052 38.1688 47.0803C39.1437 47.054 40.1186 47.052 41.0945 47.0803C42.0587 47.0559 43.0238 47.052 43.988 47.0803C44.4696 47.095 44.959 46.9963 45.4328 47.1624C45.4553 47.1839 45.4768 47.2054 45.4982 47.2269Z" fill="#FEC771"/>
<path d="M46.9506 26.7156C47.6549 26.8768 48.3749 26.9892 49.0616 27.2061C54.406 28.9005 57.5535 32.5355 58.5665 38.0389C58.59 38.1659 58.59 38.2978 58.5997 38.4278C58.4229 38.6193 58.1855 38.5988 57.9618 38.5988C54.0241 38.6046 50.0873 38.6037 46.1496 38.5988C45.9229 38.5988 45.6904 38.6066 45.4951 38.4561C45.3192 38.2529 45.3358 38.0027 45.3349 37.7614C45.33 34.3022 45.3309 30.8431 45.3349 27.383C45.3349 27.1573 45.3251 26.9257 45.4618 26.7234C45.9561 26.4606 46.4534 26.4576 46.9516 26.7136L46.9506 26.7156Z" fill="#FEBB00"/>
<path d="M45.5002 26.7114C45.5002 30.6191 45.5002 34.5267 45.5002 38.4353C45.4767 38.4578 45.4523 38.4793 45.4289 38.5018C45.2032 38.6229 44.9561 38.5995 44.7138 38.6005C40.8698 38.6024 37.0268 38.6034 33.1829 38.5985C32.9142 38.5985 32.6241 38.6522 32.4004 38.4275C33.303 32.6594 36.5257 28.8944 42.1124 27.1717C42.7347 26.9801 43.3784 26.8834 44.0232 26.8023C44.4647 26.473 44.9463 26.5209 45.4377 26.6489C45.4582 26.6694 45.4797 26.6899 45.5002 26.7104V26.7114Z" fill="#FEDE00"/>
<path d="M20.5166 56.7051C20.8937 55.3107 21.6361 54.1997 22.9754 53.5616C24.5179 52.8268 26.0242 52.8884 27.4475 53.8567C27.7874 54.0883 28.0053 54.1333 28.3657 53.8802C29.9238 52.7858 31.7721 52.7985 33.3614 53.8939C33.6477 54.0913 33.8509 54.1528 34.1595 53.9242C36.7297 52.0246 40.3968 53.4874 41.0201 56.582C41.0426 56.6924 41.0806 56.7999 41.1119 56.9094C41.3757 57.5621 41.2965 58.2227 41.1627 58.8852C41.1402 58.9057 41.1168 58.9262 41.0933 58.9477C40.1194 58.9516 39.1455 58.9555 38.1715 58.9594C38.154 58.9409 38.1354 58.9223 38.1168 58.9037C37.9664 58.5099 38.0563 58.0995 38.0387 57.697C38.0221 57.2944 37.9439 56.9133 37.6616 56.6172C37.3285 56.2684 36.9163 56.0846 36.4278 56.2234C35.9013 56.3729 35.5692 56.7305 35.4334 57.2621C35.3562 57.565 35.3933 57.8768 35.3826 58.1846C35.3738 58.4259 35.4197 58.6741 35.3044 58.9037C35.2859 58.9223 35.2673 58.9399 35.2497 58.9585C34.2699 58.9585 33.2901 58.9585 32.3113 58.9585C32.2937 58.9399 32.2752 58.9213 32.2566 58.9028C32.1062 58.509 32.196 58.0986 32.1785 57.696C32.1618 57.2934 32.0837 56.9123 31.8014 56.6162C31.4683 56.2674 31.056 56.0837 30.5676 56.2224C30.0411 56.3719 29.7089 56.7296 29.5731 57.2611C29.496 57.5641 29.5331 57.8758 29.5223 58.1836C29.5136 58.4249 29.5595 58.6731 29.4442 58.9028C29.4256 58.9213 29.4071 58.9389 29.3885 58.9575H26.4501C26.4315 58.9389 26.414 58.9204 26.3954 58.9018C26.2508 58.5412 26.327 58.164 26.3182 57.7947C26.2948 56.8175 25.7839 56.1794 25.0024 56.1736C24.1603 56.1677 23.5869 56.8224 23.5635 57.7947C23.5547 58.164 23.6318 58.5412 23.4873 58.9018C23.4687 58.9204 23.4501 58.9379 23.4316 58.9565C22.4557 58.9487 21.4798 58.9418 20.5039 58.934C20.5078 58.1894 20.5117 57.4458 20.5156 56.7012L20.5166 56.7051Z" fill="#FEDE00"/>
<path d="M49.8977 56.8986C50.1009 56.2029 50.3051 55.5179 50.731 54.9052C52.0683 52.9822 54.9686 52.4956 56.8227 53.9261C57.1295 54.1626 57.3326 54.1411 57.6257 53.9144C59.0217 52.8337 61.2792 52.8356 62.6761 53.9193C62.975 54.1509 63.1782 54.1538 63.4791 53.9203C64.9737 52.7623 67.3631 52.8679 68.8177 54.0746C69.7232 54.8261 70.2293 55.7778 70.4842 56.8947C70.4862 57.5758 70.4891 58.2569 70.4911 58.9379C69.5161 58.9458 68.5412 58.9546 67.5653 58.9624C67.5468 58.9438 67.5292 58.9252 67.5106 58.9067C67.3524 58.4484 67.4589 57.9735 67.4286 57.5074C67.3924 56.9494 67.1004 56.5625 66.6266 56.3153C66.1547 56.069 65.681 56.1179 65.2463 56.4227C64.8409 56.7081 64.7051 57.1273 64.6806 57.6041C64.6592 58.038 64.7568 58.4797 64.6025 58.9067C64.5839 58.9252 64.5654 58.9438 64.5468 58.9624C63.567 58.9624 62.5872 58.9624 61.6074 58.9624C61.5889 58.9438 61.5713 58.9252 61.5527 58.9067C61.3974 58.4797 61.4961 58.036 61.4736 57.6002C61.4482 57.1214 61.3134 56.6973 60.9011 56.4179C59.9985 55.8042 58.9083 56.3807 58.8263 57.5025C58.7921 57.9706 58.9015 58.4464 58.7432 58.9067C58.7247 58.9252 58.7061 58.9438 58.6876 58.9624C57.7078 58.9624 56.728 58.9624 55.7482 58.9624C55.7296 58.9438 55.712 58.9252 55.6935 58.9067C55.5381 58.4797 55.6368 58.036 55.6143 57.6002C55.5889 57.1214 55.4541 56.6973 55.0419 56.4179C54.1393 55.8042 53.0491 56.3807 52.967 57.5025C52.9328 57.9706 53.0422 58.4464 52.884 58.9067C52.8654 58.9252 52.8469 58.9438 52.8283 58.9624C51.8554 58.9575 50.8814 58.9516 49.9085 58.9467C49.885 58.9262 49.8625 58.9047 49.8391 58.8842C49.7033 58.2168 49.6154 57.5514 49.8977 56.8967V56.8986Z" fill="#FEBB00"/>
<path d="M49.9084 58.9479C49.9035 62.3161 49.8986 65.6844 49.8938 69.0526C49.8938 69.6223 49.8879 70.192 49.885 70.7607C48.4236 70.7578 46.9622 70.7558 45.5008 70.7529C45.3181 70.5731 45.3347 70.3376 45.3347 70.1128C45.3298 66.6088 45.3298 63.1057 45.3347 59.6016C45.3347 59.3759 45.3259 59.1443 45.4734 58.9479C45.6288 58.8013 45.8261 58.7906 46.0205 58.7886C47.1243 58.7778 48.2292 58.7798 49.333 58.7886C49.5274 58.7896 49.7267 58.7925 49.8762 58.9528L49.9094 58.9488L49.9084 58.9479Z" fill="#613426"/>
<path d="M45.5038 58.9537C45.5038 62.8868 45.5019 66.8198 45.5019 70.7529C44.0405 70.7568 42.5781 70.7597 41.1167 70.7636C41.1128 67.0367 41.1099 63.3099 41.105 59.583C41.105 59.3719 41.0972 59.1599 41.0933 58.9488L41.1167 58.9508C41.2398 58.8247 41.4 58.7964 41.5631 58.7944C42.7295 58.7808 43.8959 58.7808 45.0623 58.7944C45.1922 58.7964 45.3211 58.8169 45.4364 58.8853C45.4589 58.9078 45.4814 58.9303 45.5038 58.9537Z" fill="#764A55"/>
<path d="M45.4998 38.4356C49.8664 38.4336 54.233 38.4307 58.5996 38.4287C59.1193 38.4307 59.64 38.4287 60.1597 38.4365C60.9929 38.4492 61.6084 39.0639 61.6132 39.8827C61.6191 40.7289 61.0047 41.3504 60.145 41.3651C59.6576 41.3729 59.1701 41.3768 58.6836 41.3817C58.5381 41.5058 58.3613 41.5243 58.1825 41.5253C57.3756 41.5253 56.5677 41.5497 55.7608 41.5136C54.784 41.54 53.8071 41.5419 52.8292 41.5136C51.8534 41.54 50.8775 41.5419 49.9006 41.5136C48.9257 41.539 47.9517 41.5419 46.9768 41.5136C46.4747 41.4931 45.957 41.6484 45.4783 41.3739C45.3582 41.2263 45.3425 41.0485 45.3396 40.8696C45.3289 40.2237 45.3289 39.5769 45.3396 38.931C45.3425 38.7512 45.3679 38.5753 45.4988 38.4356H45.4998Z" fill="#FE9819"/>
<path d="M45.5002 38.4346C45.5002 39.4059 45.4982 40.3772 45.4982 41.3484C45.4787 41.3719 45.4582 41.3944 45.4386 41.4178C44.9688 41.6035 44.4794 41.4931 43.9978 41.5107C43.0336 41.539 42.0694 41.538 41.1053 41.5116C40.1303 41.538 39.1554 41.54 38.1795 41.5116C37.2017 41.538 36.2238 41.54 35.247 41.5116C34.4381 41.5478 33.6283 41.5243 32.8185 41.5243C32.6387 41.5243 32.4619 41.5048 32.3154 41.3807C31.8621 41.3748 31.4079 41.3739 30.9546 41.3631C30.0452 41.3416 29.3926 40.7309 29.3887 39.9052C29.3838 39.0805 30.0383 38.4561 30.9419 38.4356C31.4284 38.4248 31.9149 38.4297 32.4014 38.4268C36.768 38.4287 41.1346 38.4316 45.5012 38.4336L45.5002 38.4346Z" fill="#FEBB00"/>
<path d="M55.7542 41.3818C56.7301 41.3818 57.707 41.3818 58.6829 41.3818C58.6858 43.3283 58.6887 45.2748 58.6907 47.2213C57.7089 47.2213 56.7281 47.2203 55.7464 47.2194C55.5754 47.0347 55.5901 46.8021 55.5891 46.5774C55.5842 45.0579 55.5842 43.5394 55.5891 42.0199C55.5891 41.7962 55.5715 41.5616 55.7532 41.3818H55.7542Z" fill="#FEC771"/>
<path d="M32.3154 41.3818C33.2913 41.3818 34.2682 41.3818 35.2441 41.3818C35.4258 41.5616 35.4072 41.7962 35.4082 42.0199C35.4141 43.5394 35.4131 45.0589 35.4082 46.5774C35.4082 46.8021 35.4219 47.0347 35.249 47.2184C34.2682 47.2203 33.2884 47.2223 32.3076 47.2242C32.3105 45.2768 32.3125 43.3283 32.3154 41.3809V41.3818Z" fill="#FEE4AB"/>
<path d="M46.9506 26.7155C46.467 26.7145 45.9835 26.7126 45.4999 26.7116C45.33 26.5269 45.3358 26.2963 45.3349 26.0706C45.3309 24.5169 45.33 22.9632 45.3349 21.4096C45.3349 21.1858 45.3163 20.9513 45.498 20.7705C46.3195 20.7705 46.9525 21.3392 46.9584 22.1356C46.9701 23.6619 46.9535 25.1892 46.9496 26.7155H46.9506Z" fill="#FE9819"/>
<path d="M45.499 20.7705C45.499 22.7512 45.499 24.7309 45.5 26.7116C45.0057 26.7116 44.5104 26.6911 44.0229 26.8025C44.0269 25.3074 44.0229 23.8134 44.0376 22.3183C44.0464 21.3978 44.5739 20.8516 45.499 20.7695V20.7705Z" fill="#FEBB00"/>
<path d="M67.5664 58.9637C67.5684 61.7613 67.5625 64.5579 67.5791 67.3555C67.5811 67.7464 67.4629 67.8627 67.0809 67.847C66.3824 67.8197 65.683 67.8246 64.9836 67.8451C64.6456 67.8549 64.5342 67.7474 64.5362 67.4034C64.5489 64.5902 64.5459 61.776 64.5469 58.9628L64.5381 58.9364C64.6553 58.8387 64.7931 58.7986 64.9416 58.7947C65.684 58.7761 66.4274 58.7761 67.1698 58.7947C67.3183 58.7986 67.457 58.8396 67.5732 58.9364L67.5644 58.9628L67.5664 58.9637Z" fill="#CFE9FE"/>
<path d="M61.6084 58.9635C61.6103 61.7611 61.6045 64.5577 61.6211 67.3553C61.623 67.7461 61.5058 67.8634 61.1229 67.8468C60.4576 67.8185 59.7894 67.8243 59.1232 67.8448C58.7852 67.8556 58.6739 67.7471 58.6758 67.4032C58.6885 64.5899 58.6856 61.7757 58.6866 58.9625L58.6778 58.9361C58.8087 58.8257 58.9659 58.7935 59.1301 58.7905C59.808 58.7788 60.4859 58.7788 61.1639 58.7905C61.328 58.7935 61.4853 58.8257 61.6162 58.9361L61.6074 58.9625L61.6084 58.9635Z" fill="#CFE9FE"/>
<path d="M55.7495 58.9635C55.7514 61.7611 55.7456 64.5577 55.7622 67.3553C55.7641 67.7461 55.6469 67.8634 55.264 67.8468C54.5987 67.8185 53.9305 67.8243 53.2643 67.8448C52.9263 67.8556 52.815 67.7471 52.8169 67.4032C52.8296 64.5899 52.8267 61.7757 52.8277 58.9625L52.8189 58.9361C52.9498 58.8257 53.107 58.7935 53.2712 58.7905C53.9491 58.7788 54.6271 58.7788 55.305 58.7905C55.4691 58.7935 55.6264 58.8257 55.7573 58.9361L55.7485 58.9625L55.7495 58.9635Z" fill="#CFE9FE"/>
<path d="M26.4512 58.9608C26.4531 61.7584 26.4473 64.557 26.4639 67.3546C26.4658 67.7444 26.3496 67.8637 25.9657 67.848C25.2838 67.8197 24.599 67.8197 23.9172 67.848C23.5333 67.8637 23.417 67.7444 23.419 67.3546C23.4356 64.557 23.4307 61.7584 23.4317 58.9608L23.4209 58.9373C23.5381 58.8406 23.6769 58.7986 23.8253 58.7947C24.5687 58.7761 25.3131 58.7761 26.0565 58.7947C26.205 58.7986 26.3437 58.8406 26.4609 58.9373L26.4502 58.9608H26.4512Z" fill="#EAF7FE"/>
<path d="M38.1704 58.9606C38.1723 61.7581 38.1665 64.5567 38.1831 67.3543C38.185 67.7442 38.0688 67.8644 37.6849 67.8478C37.0353 67.8194 36.3837 67.8194 35.7341 67.8478C35.3502 67.8644 35.2339 67.7442 35.2359 67.3543C35.2525 64.5567 35.2476 61.7581 35.2486 58.9606L35.2378 58.9371C35.3687 58.8277 35.526 58.7944 35.6901 58.7915C36.369 58.7798 37.048 58.7798 37.7269 58.7915C37.891 58.7944 38.0483 58.8277 38.1792 58.9371L38.1684 58.9606H38.1704Z" fill="#EAF7FE"/>
<path d="M32.3115 58.9606C32.3134 61.7581 32.3076 64.5567 32.3242 67.3543C32.3261 67.7442 32.2099 67.8644 31.826 67.8478C31.1764 67.8194 30.5248 67.8194 29.8752 67.8478C29.4913 67.8644 29.375 67.7442 29.377 67.3543C29.3936 64.5567 29.3887 61.7581 29.3897 58.9606L29.3789 58.9371C29.5098 58.8277 29.6671 58.7944 29.8312 58.7915C30.5101 58.7798 31.1891 58.7798 31.868 58.7915C32.0321 58.7944 32.1894 58.8277 32.3203 58.9371L32.3095 58.9606H32.3115Z" fill="#EAF7FE"/>
<path d="M49.8763 58.9518C48.4188 58.9518 46.9613 58.9528 45.5038 58.9538L45.496 58.9459C45.3261 58.7613 45.3368 58.5287 45.3358 58.3039C45.3319 56.7825 45.3309 55.2621 45.3358 53.7406C45.3358 53.5159 45.3222 53.2824 45.5038 53.1026L45.497 53.0771C47.7585 53.1788 49.2775 54.4383 49.8255 56.6672C49.845 56.7454 49.8734 56.8216 49.8978 56.8988C49.891 57.5828 49.8831 58.2678 49.8763 58.9518Z" fill="#613426"/>
<path d="M55.7541 41.3818C55.7522 43.3273 55.7493 45.2738 55.7473 47.2194C54.7753 47.2194 53.8033 47.2194 52.8314 47.2194C52.6536 47.0396 52.6614 46.807 52.6604 46.5813C52.6555 45.0608 52.6555 43.5404 52.6604 42.0199C52.6604 41.7962 52.6428 41.5616 52.8235 41.3809C53.8004 41.3809 54.7773 41.3809 55.7541 41.3809V41.3818Z" fill="#613426"/>
<path d="M52.8235 41.3818C52.8254 43.3273 52.8284 45.2738 52.8303 47.2194C51.8495 47.2194 50.8678 47.2194 49.887 47.2194C49.7161 47.0347 49.7307 46.8021 49.7297 46.5774C49.7249 45.0579 49.7249 43.5394 49.7297 42.0199C49.7297 41.7962 49.7122 41.5616 49.8939 41.3818C50.8697 41.3818 51.8466 41.3818 52.8225 41.3818H52.8235Z" fill="#FEC771"/>
<path d="M49.8948 41.3818C49.8928 43.3273 49.8899 45.2738 49.8879 47.2194C48.9159 47.2194 47.944 47.2194 46.972 47.2194C46.7942 47.0396 46.802 46.807 46.801 46.5813C46.7961 45.0608 46.7961 43.5404 46.801 42.0199C46.801 41.7962 46.7834 41.5616 46.9642 41.3809C47.941 41.3809 48.9179 41.3809 49.8948 41.3809V41.3818Z" fill="#613426"/>
<path d="M46.9643 41.3819C46.9662 43.3274 46.9692 45.2739 46.9711 47.2194C46.4807 47.2223 45.9894 47.2243 45.498 47.2272L45.499 47.2282C45.33 47.0435 45.3349 46.8119 45.3349 46.5862C45.3309 45.0638 45.33 43.5423 45.3349 42.0199C45.3349 41.7962 45.3192 41.5607 45.5009 41.3809L45.497 41.3486C45.9854 41.3594 46.4749 41.3711 46.9633 41.3819H46.9643Z" fill="#FEC771"/>
<path d="M45.5038 53.1027C45.5009 55.0502 45.4989 56.9986 45.496 58.9461C44.0366 58.948 42.5761 58.95 41.1167 58.951C41.1147 58.2709 41.1128 57.5908 41.1108 56.9107C41.3404 55.8651 41.7468 54.9163 42.583 54.2C43.4241 53.4779 44.3902 53.0939 45.5048 53.1027H45.5038Z" fill="#764A55"/>
<path d="M41.1043 41.3818H44.0349C44.2156 41.5626 44.1971 41.7971 44.198 42.0209C44.2039 43.5413 44.2029 45.0608 44.198 46.5813C44.198 46.806 44.2068 47.0386 44.03 47.2194H41.1092C40.9324 47.0386 40.9412 46.806 40.9412 46.5813C40.9363 45.0608 40.9363 43.5413 40.9412 42.0209C40.9412 41.7971 40.9236 41.5626 41.1043 41.3818Z" fill="#764A55"/>
<path d="M41.1042 41.3818C41.1062 43.3273 41.1072 45.2729 41.1091 47.2194C40.1293 47.2194 39.1505 47.2194 38.1707 47.2194C37.9978 47.0357 38.0115 46.8031 38.0115 46.5783C38.0066 45.0589 38.0066 43.5394 38.0115 42.0209C38.0115 41.7971 37.9939 41.5626 38.1756 41.3828H41.1042V41.3818Z" fill="#FEE4AB"/>
<path d="M38.1757 41.3818C38.1738 43.3273 38.1728 45.2729 38.1708 47.2184C37.1969 47.2184 36.223 47.2184 35.25 47.2184C35.248 45.2729 35.2471 43.3273 35.2451 41.3818H38.1767H38.1757Z" fill="#764A55"/>
<path d="M44.0298 47.2194C44.0317 45.2738 44.0327 43.3283 44.0347 41.3828C44.5231 41.3828 45.0125 41.3828 45.5009 41.3828C45.5009 43.3322 45.5 45.2807 45.499 47.2301C45.0096 47.2272 44.5192 47.2242 44.0298 47.2213V47.2194Z" fill="#FEE4AB"/>
<path d="M26.4618 58.9374C25.4488 58.9374 24.4348 58.9374 23.4218 58.9374C23.4237 58.4674 23.4159 57.9974 23.4306 57.5274C23.456 56.7056 24.1544 56.0314 24.9789 56.0206C25.7487 56.0108 26.4286 56.6988 26.453 57.5274C26.4667 57.9974 26.4598 58.4674 26.4618 58.9374Z" fill="#764A55"/>
<path d="M32.3222 58.9371C31.3414 58.9371 30.3607 58.9371 29.3799 58.9371C29.3818 58.4818 29.3789 58.0274 29.3877 57.5721C29.4033 56.7425 30.0627 56.037 30.8305 56.0194C31.6247 56.0018 32.2988 56.7024 32.3154 57.5721C32.3242 58.0264 32.3212 58.4818 32.3232 58.9371H32.3222Z" fill="#764A55"/>
<path d="M38.1816 58.9371C37.2008 58.9371 36.22 58.9371 35.2393 58.9371C35.2412 58.4818 35.2383 58.0274 35.2471 57.5721C35.2627 56.7425 35.9221 56.037 36.6899 56.0194C37.4841 56.0018 38.1581 56.7024 38.1747 57.5711C38.1835 58.0255 38.1806 58.4808 38.1826 58.9362L38.1816 58.9371Z" fill="#764A55"/>
<path d="M67.5752 58.9364C66.5631 58.9364 65.5511 58.9364 64.5391 58.9364C64.54 58.4664 64.5391 57.9964 64.5439 57.5264C64.5527 56.685 65.1906 56.0245 65.9936 56.0186C66.8581 56.0118 67.5605 56.6811 67.5693 57.5264C67.5742 57.9964 67.5732 58.4664 67.5742 58.9364H67.5752Z" fill="#613426"/>
<path d="M55.7582 58.9363C54.7784 58.9363 53.7996 58.9363 52.8198 58.9363C52.8208 58.4644 52.8198 57.9924 52.8247 57.5214C52.8345 56.6781 53.4792 56.0195 54.289 56.0195C55.0989 56.0195 55.7436 56.6781 55.7534 57.5214C55.7592 57.9934 55.7573 58.4653 55.7582 58.9363Z" fill="#613426"/>
<path d="M61.6176 58.9363C60.6378 58.9363 59.659 58.9363 58.6792 58.9363C58.6802 58.4644 58.6792 57.9924 58.6841 57.5214C58.6939 56.6781 59.3386 56.0195 60.1484 56.0195C60.9582 56.0195 61.603 56.6781 61.6127 57.5214C61.6186 57.9934 61.6166 58.4653 61.6176 58.9363Z" fill="#613426"/>
</g>
</g>
<path d="M24.3 105.05V112H23.16V108.96H19.89V112H18.75V105.05H19.89V108.03H23.16V105.05H24.3ZM26.3808 105.76C26.1741 105.76 26.0008 105.69 25.8608 105.55C25.7208 105.41 25.6508 105.237 25.6508 105.03C25.6508 104.823 25.7208 104.65 25.8608 104.51C26.0008 104.37 26.1741 104.3 26.3808 104.3C26.5808 104.3 26.7508 104.37 26.8908 104.51C27.0308 104.65 27.1008 104.823 27.1008 105.03C27.1008 105.237 27.0308 105.41 26.8908 105.55C26.7508 105.69 26.5808 105.76 26.3808 105.76ZM26.9408 106.49V112H25.8008V106.49H26.9408ZM30.6575 106.4C31.0842 106.4 31.4608 106.487 31.7875 106.66C32.1208 106.827 32.3808 107.037 32.5675 107.29V106.49H33.7175V112.09C33.7175 112.597 33.6108 113.047 33.3975 113.44C33.1842 113.84 32.8742 114.153 32.4675 114.38C32.0675 114.607 31.5875 114.72 31.0275 114.72C30.2808 114.72 29.6608 114.543 29.1675 114.19C28.6742 113.843 28.3942 113.37 28.3275 112.77H29.4575C29.5442 113.057 29.7275 113.287 30.0075 113.46C30.2942 113.64 30.6342 113.73 31.0275 113.73C31.4875 113.73 31.8575 113.59 32.1375 113.31C32.4242 113.03 32.5675 112.623 32.5675 112.09V111.17C32.3742 111.43 32.1108 111.65 31.7775 111.83C31.4508 112.003 31.0775 112.09 30.6575 112.09C30.1775 112.09 29.7375 111.97 29.3375 111.73C28.9442 111.483 28.6308 111.143 28.3975 110.71C28.1708 110.27 28.0575 109.773 28.0575 109.22C28.0575 108.667 28.1708 108.177 28.3975 107.75C28.6308 107.323 28.9442 106.993 29.3375 106.76C29.7375 106.52 30.1775 106.4 30.6575 106.4ZM32.5675 109.24C32.5675 108.86 32.4875 108.53 32.3275 108.25C32.1742 107.97 31.9708 107.757 31.7175 107.61C31.4642 107.463 31.1908 107.39 30.8975 107.39C30.6042 107.39 30.3308 107.463 30.0775 107.61C29.8242 107.75 29.6175 107.96 29.4575 108.24C29.3042 108.513 29.2275 108.84 29.2275 109.22C29.2275 109.6 29.3042 109.933 29.4575 110.22C29.6175 110.507 29.8242 110.727 30.0775 110.88C30.3375 111.027 30.6108 111.1 30.8975 111.1C31.1908 111.1 31.4642 111.027 31.7175 110.88C31.9708 110.733 32.1742 110.52 32.3275 110.24C32.4875 109.953 32.5675 109.62 32.5675 109.24ZM38.0648 106.4C38.4848 106.4 38.8582 106.49 39.1848 106.67C39.5182 106.85 39.7782 107.117 39.9648 107.47C40.1582 107.823 40.2548 108.25 40.2548 108.75V112H39.1248V108.92C39.1248 108.427 39.0015 108.05 38.7548 107.79C38.5082 107.523 38.1715 107.39 37.7448 107.39C37.3182 107.39 36.9782 107.523 36.7248 107.79C36.4782 108.05 36.3548 108.427 36.3548 108.92V112H35.2148V104.6H36.3548V107.13C36.5482 106.897 36.7915 106.717 37.0848 106.59C37.3848 106.463 37.7115 106.4 38.0648 106.4ZM43.9266 108.51C43.9266 107.83 44.0833 107.22 44.3966 106.68C44.7166 106.14 45.1466 105.72 45.6866 105.42C46.2333 105.113 46.83 104.96 47.4766 104.96C48.2166 104.96 48.8733 105.143 49.4466 105.51C50.0266 105.87 50.4466 106.383 50.7066 107.05H49.3366C49.1566 106.683 48.9066 106.41 48.5866 106.23C48.2666 106.05 47.8966 105.96 47.4766 105.96C47.0166 105.96 46.6066 106.063 46.2466 106.27C45.8866 106.477 45.6033 106.773 45.3966 107.16C45.1966 107.547 45.0966 107.997 45.0966 108.51C45.0966 109.023 45.1966 109.473 45.3966 109.86C45.6033 110.247 45.8866 110.547 46.2466 110.76C46.6066 110.967 47.0166 111.07 47.4766 111.07C47.8966 111.07 48.2666 110.98 48.5866 110.8C48.9066 110.62 49.1566 110.347 49.3366 109.98H50.7066C50.4466 110.647 50.0266 111.16 49.4466 111.52C48.8733 111.88 48.2166 112.06 47.4766 112.06C46.8233 112.06 46.2266 111.91 45.6866 111.61C45.1466 111.303 44.7166 110.88 44.3966 110.34C44.0833 109.8 43.9266 109.19 43.9266 108.51ZM54.431 112.09C53.911 112.09 53.441 111.973 53.021 111.74C52.601 111.5 52.271 111.167 52.031 110.74C51.791 110.307 51.671 109.807 51.671 109.24C51.671 108.68 51.7943 108.183 52.041 107.75C52.2877 107.317 52.6243 106.983 53.051 106.75C53.4777 106.517 53.9543 106.4 54.481 106.4C55.0077 106.4 55.4843 106.517 55.911 106.75C56.3377 106.983 56.6743 107.317 56.921 107.75C57.1677 108.183 57.291 108.68 57.291 109.24C57.291 109.8 57.1643 110.297 56.911 110.73C56.6577 111.163 56.311 111.5 55.871 111.74C55.4377 111.973 54.9577 112.09 54.431 112.09ZM54.431 111.1C54.7243 111.1 54.9977 111.03 55.251 110.89C55.511 110.75 55.721 110.54 55.881 110.26C56.041 109.98 56.121 109.64 56.121 109.24C56.121 108.84 56.0443 108.503 55.891 108.23C55.7377 107.95 55.5343 107.74 55.281 107.6C55.0277 107.46 54.7543 107.39 54.461 107.39C54.1677 107.39 53.8943 107.46 53.641 107.6C53.3943 107.74 53.1977 107.95 53.051 108.23C52.9043 108.503 52.831 108.84 52.831 109.24C52.831 109.833 52.981 110.293 53.281 110.62C53.5877 110.94 53.971 111.1 54.431 111.1ZM63.408 106.49V112H62.268V111.35C62.088 111.577 61.8513 111.757 61.558 111.89C61.2713 112.017 60.9646 112.08 60.638 112.08C60.2046 112.08 59.8146 111.99 59.468 111.81C59.128 111.63 58.858 111.363 58.658 111.01C58.4646 110.657 58.368 110.23 58.368 109.73V106.49H59.498V109.56C59.498 110.053 59.6213 110.433 59.868 110.7C60.1146 110.96 60.4513 111.09 60.878 111.09C61.3046 111.09 61.6413 110.96 61.888 110.7C62.1413 110.433 62.268 110.053 62.268 109.56V106.49H63.408ZM66.0521 107.29C66.2188 107.01 66.4388 106.793 66.7121 106.64C66.9921 106.48 67.3221 106.4 67.7021 106.4V107.58H67.4121C66.9654 107.58 66.6254 107.693 66.3921 107.92C66.1654 108.147 66.0521 108.54 66.0521 109.1V112H64.9121V106.49H66.0521V107.29ZM70.08 107.42V110.47C70.08 110.677 70.1267 110.827 70.22 110.92C70.32 111.007 70.4867 111.05 70.72 111.05H71.42V112H70.52C70.0067 112 69.6133 111.88 69.34 111.64C69.0667 111.4 68.93 111.01 68.93 110.47V107.42H68.28V106.49H68.93V105.12H70.08V106.49H71.42V107.42H70.08ZM74.4707 112.09C74.0374 112.09 73.6474 112.013 73.3007 111.86C72.9607 111.7 72.6907 111.487 72.4907 111.22C72.2907 110.947 72.184 110.643 72.1707 110.31H73.3507C73.3707 110.543 73.4807 110.74 73.6807 110.9C73.8874 111.053 74.144 111.13 74.4507 111.13C74.7707 111.13 75.0174 111.07 75.1907 110.95C75.3707 110.823 75.4607 110.663 75.4607 110.47C75.4607 110.263 75.3607 110.11 75.1607 110.01C74.9674 109.91 74.6574 109.8 74.2307 109.68C73.8174 109.567 73.4807 109.457 73.2207 109.35C72.9607 109.243 72.734 109.08 72.5407 108.86C72.354 108.64 72.2607 108.35 72.2607 107.99C72.2607 107.697 72.3474 107.43 72.5207 107.19C72.694 106.943 72.9407 106.75 73.2607 106.61C73.5874 106.47 73.9607 106.4 74.3807 106.4C75.0074 106.4 75.5107 106.56 75.8907 106.88C76.2774 107.193 76.484 107.623 76.5107 108.17H75.3707C75.3507 107.923 75.2507 107.727 75.0707 107.58C74.8907 107.433 74.6474 107.36 74.3407 107.36C74.0407 107.36 73.8107 107.417 73.6507 107.53C73.4907 107.643 73.4107 107.793 73.4107 107.98C73.4107 108.127 73.464 108.25 73.5707 108.35C73.6774 108.45 73.8074 108.53 73.9607 108.59C74.114 108.643 74.3407 108.713 74.6407 108.8C75.0407 108.907 75.3674 109.017 75.6207 109.13C75.8807 109.237 76.104 109.397 76.2907 109.61C76.4774 109.823 76.574 110.107 76.5807 110.46C76.5807 110.773 76.494 111.053 76.3207 111.3C76.1474 111.547 75.9007 111.74 75.5807 111.88C75.2674 112.02 74.8974 112.09 74.4707 112.09Z" fill="#151513"/>
<defs>
<clipPath id="clip0_4235_30516">
<rect width="90" height="90" fill="white" transform="translate(0 0.488281)"/>
</clipPath>
<clipPath id="clip1_4235_30516">
<rect width="50" height="50" fill="white" transform="translate(20.5 20.7705)"/>
</clipPath>
</defs>
</svg>
