<svg width="90" height="109" viewBox="0 0 90 109" fill="none" xmlns="http://www.w3.org/2000/svg">
<g clip-path="url(#clip0_4235_30518)">
<circle cx="45" cy="45.4883" r="45" fill="white"/>
<g clip-path="url(#clip1_4235_30518)">
<path d="M37.6856 70.4818C34.7512 70.4818 31.8168 70.4818 28.8824 70.4818C28.7095 70.2971 28.7212 70.0627 28.7212 69.837C28.7173 63.3997 28.7173 56.9615 28.7212 50.5241C28.7212 50.2975 28.7114 50.066 28.855 49.8667C29.0631 49.6987 29.3132 49.7183 29.5544 49.7183C34.4796 49.7144 39.4058 49.7144 44.3309 49.7183C44.5576 49.7183 44.7891 49.7085 44.9893 49.8472C45.131 49.983 45.1534 50.1627 45.1554 50.3415C45.1661 52.0324 45.1778 53.7242 45.1495 55.4151C45.1485 55.4806 45.131 55.5441 45.1143 55.6056C45.0968 55.6632 45.0665 55.715 45.0284 55.7619C44.8633 55.8908 44.6621 55.8752 44.4696 55.8938C40.578 56.2816 37.8213 59.3283 37.8213 63.2454C37.8213 65.4237 37.8233 67.6021 37.8194 69.7804C37.8194 70.0197 37.8614 70.2727 37.6856 70.4818Z" fill="#FEF6C5"/>
<path d="M44.9961 55.7304C44.998 53.7875 45.001 51.8436 45.0029 49.9007C45.0244 49.8763 45.0469 49.8518 45.0684 49.8274C45.2911 49.6946 45.5402 49.718 45.7824 49.718C50.649 49.7151 55.5146 49.7151 60.3812 49.718C60.639 49.718 60.9057 49.6887 61.1353 49.8548C61.2984 50.0648 61.2798 50.3149 61.2798 50.5571C61.2828 56.9651 61.2828 63.3741 61.2798 69.7821C61.2798 70.0224 61.3072 70.2754 61.1226 70.4766C58.1872 70.4766 55.2518 70.4786 52.3165 70.4786C52.1387 70.2705 52.1817 70.0175 52.1817 69.7772C52.1777 67.5481 52.1797 65.319 52.1797 63.0889C52.1797 59.2792 49.3234 56.1856 45.5373 55.8877C45.3468 55.873 45.1397 55.9053 44.9971 55.7275L44.9961 55.7304Z" fill="#FEE4AB"/>
<path d="M28.8891 49.8744C28.8872 56.7434 28.8852 63.6135 28.8823 70.4826C26.4441 70.4845 24.005 70.4894 21.5668 70.4884C20.6203 70.4884 20 69.8525 20 68.8893C19.999 62.4677 19.999 56.046 19.999 49.6243C19.999 48.7305 20.0049 47.8357 20.0078 46.9419C20.1954 46.7729 20.4288 46.7896 20.6535 46.7896C23.1815 46.7856 25.7096 46.7856 28.2386 46.7896C28.4642 46.7896 28.6957 46.7778 28.895 46.9175C29.0113 47.0445 29.0376 47.2037 29.0415 47.3649C29.0591 48.0536 29.0572 48.7432 29.0425 49.4329C29.0396 49.595 29.0113 49.7533 28.8882 49.8754L28.8891 49.8744Z" fill="#FEE4AB"/>
<path d="M61.1218 70.4777C61.1188 63.6115 61.1159 56.7454 61.113 49.8793C61.0329 49.7933 60.9791 49.6917 60.9733 49.5755C60.9342 48.7813 60.9283 47.9871 60.9782 47.193C60.984 47.0953 61.027 47.0045 61.0905 46.9273C61.3025 46.7681 61.5516 46.7896 61.7928 46.7886C64.2925 46.7847 66.7932 46.7847 69.2929 46.7886C69.5332 46.7886 69.7853 46.7593 69.9865 46.9449C69.9914 47.6286 69.9992 48.3115 69.9992 48.9952C70.0002 55.5703 69.9992 62.1463 69.9992 68.7213C69.9992 69.9238 69.4414 70.4884 68.2487 70.4874C65.8721 70.4855 63.4964 70.4806 61.1198 70.4767L61.1218 70.4777Z" fill="#FEC771"/>
<path d="M31.8101 44.0093C31.8101 39.1037 31.8101 34.1981 31.8101 29.2924C31.981 29.0922 32.2203 29.1156 32.443 29.1146C36.4236 29.1088 40.4052 29.1098 44.3858 29.1127C44.5645 29.1127 44.7443 29.1137 44.9142 29.183C44.9738 29.2113 45.0236 29.2524 45.0617 29.3061C45.1604 29.4839 45.1604 29.6792 45.1614 29.8736C45.1653 31.461 45.1663 33.0474 45.1614 34.6347C45.1614 34.8125 45.1565 34.9922 45.0803 35.1583C44.8224 35.4748 44.4307 35.4113 44.0937 35.4933C42.5904 35.8626 41.5481 36.7515 41.0128 38.207C40.833 38.6964 40.749 39.2111 40.75 39.7386C40.7529 40.9587 40.7559 42.1778 40.7471 43.3978C40.7451 43.6479 40.8037 43.9292 40.5361 44.108C40.3192 44.2027 40.0897 44.1891 39.8621 44.19C37.4376 44.192 35.0141 44.194 32.5896 44.1881C32.3209 44.1881 32.0289 44.2457 31.8091 44.0103L31.8101 44.0093Z" fill="#FEE4AB"/>
<path d="M45 35.215C44.998 33.2399 44.9961 31.2657 44.9951 29.2906C45.167 29.0923 45.4054 29.1138 45.6281 29.1128C49.6058 29.1069 53.5834 29.1069 57.5601 29.1128C57.7838 29.1128 58.0211 29.0923 58.194 29.2886C58.194 34.1962 58.194 39.1048 58.194 44.0124C58.0358 44.196 57.817 44.1853 57.6089 44.1853C55.0613 44.1931 52.5148 44.1911 49.9672 44.1872C49.805 44.1872 49.6419 44.1804 49.4885 44.1198C49.2013 43.9616 49.256 43.6783 49.2541 43.4282C49.2453 42.2433 49.2101 41.0565 49.259 39.8735C49.3508 37.6161 47.742 35.6507 45.4552 35.3928C45.3429 35.3801 45.2296 35.3665 45.1221 35.3245C45.0694 35.301 45.0283 35.2649 45 35.215Z" fill="#FEC771"/>
<path d="M44.9959 55.7305C48.6121 55.7412 51.4801 58.2566 52.1697 61.5192C52.243 61.8669 52.3133 62.2244 52.3143 62.5771C52.325 65.2116 52.3172 67.8451 52.3163 70.4796C49.8791 70.4777 47.4409 70.4747 45.0037 70.4728C44.8201 70.293 44.8357 70.0576 44.8357 69.833C44.8308 65.3542 44.8308 60.8745 44.8357 56.3957C44.8357 56.17 44.824 55.9356 45.0057 55.7568L44.9959 55.7305Z" fill="#613426"/>
<path d="M45.0061 55.7566C45.0061 60.6622 45.0041 65.5669 45.0041 70.4725C42.565 70.4755 40.1258 70.4784 37.6857 70.4813C37.6838 67.8947 37.6388 65.3071 37.6916 62.7214C37.7697 58.8903 41.2209 55.6374 45.0061 55.7566Z" fill="#764A55"/>
<path d="M31.8096 44.0096C34.7421 44.0096 37.6736 44.0096 40.606 44.0096C40.7662 43.8728 40.9616 43.864 41.156 43.8631C42.2559 43.8582 43.3567 43.8552 44.4567 43.864C44.651 43.866 44.8474 43.8738 45.0095 44.0067C45.1815 44.2118 45.1629 44.4619 45.1639 44.7022C45.1688 46.1938 45.1688 47.6864 45.1639 49.178C45.1639 49.4173 45.1932 49.6713 44.9959 49.8647L45.0037 49.9008C43.5599 49.895 42.1152 49.8862 40.6714 49.8842C36.7446 49.8794 32.8168 49.8774 28.8899 49.8745C28.887 48.9045 28.885 47.9335 28.8821 46.9635C28.8352 46.8981 28.7756 46.8336 28.7707 46.7535C28.7219 45.8607 28.6447 44.9659 28.8196 44.077C28.8411 44.0535 28.8635 44.0311 28.885 44.0076L31.8106 44.0096H31.8096Z" fill="#FEDE00"/>
<path d="M44.9951 49.8647C44.9971 47.9237 45 45.9827 45.002 44.0418C45.0234 44.0183 45.044 43.9939 45.0654 43.9695C45.1084 43.947 45.1485 43.9128 45.1973 43.9099C46.5082 43.8191 47.8201 43.8562 49.132 43.8904C49.2297 43.8933 49.3166 43.948 49.3918 44.0125C52.3262 44.0125 55.2596 44.0125 58.194 44.0125C59.167 44.0115 60.1399 44.0105 61.1128 44.0095C61.1343 44.033 61.1568 44.0555 61.1783 44.0779C61.3023 45.0421 61.4039 46.0052 61.1196 46.9605C61.1177 47.9335 61.1148 48.9064 61.1128 49.8793C55.837 49.8803 50.5611 49.8822 45.2862 49.8822C45.1895 49.8822 45.0918 49.8705 44.9951 49.8637V49.8647Z" fill="#FEBB00"/>
<path d="M45.0038 23.4247C45.378 23.4228 45.7521 23.4101 46.1262 23.4208C46.3782 23.4286 46.4906 23.3329 46.4661 23.0799C46.4583 22.9998 46.4661 22.9177 46.4661 22.8357C46.4691 21.1126 46.8657 20.4815 47.9421 20.4884C49.0069 20.4952 49.3888 21.1194 49.3947 22.8601C49.3947 22.9412 49.4005 23.0232 49.3947 23.1043C49.3771 23.3339 49.4806 23.4218 49.7092 23.4198C50.4741 23.413 51.238 23.4101 52.0028 23.4208C52.2724 23.4247 52.333 23.2977 52.3271 23.0623C52.3174 22.6725 52.3144 22.2818 52.3271 21.8911C52.3525 21.0754 52.9543 20.4962 53.7699 20.4884C54.6119 20.4805 55.2264 21.0627 55.2518 21.9018C55.2635 22.2916 55.2635 22.6823 55.2518 23.0731C55.2439 23.3182 55.327 23.4257 55.5868 23.4218C56.3351 23.411 57.0833 23.4091 57.8316 23.4228C58.1168 23.4276 58.1988 23.3104 58.1881 23.0457C58.1735 22.6725 58.1774 22.2974 58.1861 21.9233C58.2057 21.0784 58.8094 20.4884 59.6465 20.4884C60.4856 20.4884 61.103 21.0745 61.1088 21.9194C61.1196 23.3993 61.1069 24.8792 61.1039 26.3591C60.9164 26.5281 60.6829 26.5125 60.4573 26.5125C55.5243 26.5164 50.5903 26.5164 45.6573 26.5125C45.4317 26.5125 45.2002 26.5213 45.0019 26.3767C44.9042 26.2819 44.8622 26.1589 44.8554 26.0299C44.8182 25.2768 44.8221 24.5236 44.8524 23.7695C44.8573 23.6386 44.9071 23.5195 45.0029 23.4237L45.0038 23.4247Z" fill="#FEE4AB"/>
<path d="M45.004 23.4247C45.001 24.3938 44.9981 25.3638 44.9952 26.3328C44.9727 26.3572 44.9512 26.3806 44.9287 26.4051C44.706 26.5359 44.4569 26.5125 44.2157 26.5135C39.3569 26.5164 34.4972 26.5164 29.6384 26.5135C29.3825 26.5135 29.1129 26.5506 28.8931 26.3611C28.8911 24.8968 28.8824 23.4316 28.8882 21.9673C28.8921 21.1038 29.5261 20.4816 30.3662 20.4884C31.1672 20.4943 31.7992 21.1302 31.8148 21.9517C31.8216 22.3258 31.8255 22.7009 31.8138 23.0741C31.806 23.3232 31.8988 23.4238 32.1538 23.4199C32.902 23.4101 33.6512 23.4072 34.3995 23.4208C34.6935 23.4267 34.758 23.2899 34.7492 23.034C34.7365 22.6599 34.7375 22.2848 34.7482 21.9116C34.7707 21.0921 35.4125 20.4806 36.2301 20.4884C37.0125 20.4962 37.6504 21.1175 37.6738 21.9077C37.6855 22.2985 37.6855 22.6892 37.6738 23.0789C37.666 23.3329 37.7676 23.4238 38.0186 23.4208C38.7669 23.4111 39.5161 23.4111 40.2644 23.4208C40.5144 23.4238 40.618 23.3349 40.6092 23.0799C40.5965 22.6902 40.5975 22.2985 40.6092 21.9087C40.6317 21.0901 41.2764 20.4786 42.094 20.4884C42.8745 20.4982 43.5104 21.1214 43.5328 21.9116C43.5436 22.2858 43.5504 22.6609 43.5299 23.034C43.5133 23.3398 43.6383 23.4355 43.9294 23.4218C44.287 23.4052 44.6455 23.4218 45.003 23.4238L45.004 23.4247Z" fill="#FEF6C5"/>
<path d="M44.9952 26.333C47.403 26.3379 49.8119 26.3438 52.2198 26.3477C55.1815 26.3525 58.1433 26.3555 61.105 26.3594C61.108 26.8634 61.1236 27.3684 61.1109 27.8725C61.0914 28.65 60.4847 29.2528 59.7072 29.2752C59.2031 29.2899 58.6991 29.285 58.1951 29.2889C53.7954 29.2889 49.3948 29.2899 44.9952 29.2908L45.003 29.2684C44.9063 29.1727 44.8594 29.0525 44.8545 28.9216C44.8252 28.1831 44.8252 27.4446 44.8545 26.7062C44.8594 26.5753 44.9043 26.4541 45.0049 26.3613L44.9961 26.333H44.9952Z" fill="#FEBB00"/>
<path d="M45.0038 26.3613C45.0038 27.3303 45.0018 28.2994 45.0018 29.2684C40.8151 29.2713 36.6284 29.2742 32.4418 29.2781C32.2308 29.2781 32.0207 29.2869 31.8097 29.2918C31.3565 29.2869 30.9032 29.286 30.449 29.2762C29.5064 29.2557 28.9037 28.6588 28.888 27.7201C28.8802 27.2668 28.891 26.8126 28.8939 26.3594C34.2645 26.3594 39.6342 26.3604 45.0048 26.3613H45.0038Z" fill="#FEDE00"/>
<path d="M20.0077 44.0357C20.0048 42.5558 19.9931 41.0759 20.0028 39.596C20.0077 38.837 20.6954 38.1738 21.4427 38.165C22.229 38.1562 22.9001 38.8038 22.9275 39.5989C22.9294 39.6644 22.9236 39.7298 22.9294 39.7943C22.9646 40.2095 22.7448 40.7467 23.03 41.0105C23.3084 41.2674 23.8379 41.0788 24.2569 41.0915C24.6955 41.1042 25.1361 41.0788 25.5737 41.0994C25.8794 41.114 25.9517 40.9899 25.9644 40.7018C25.9889 40.1411 25.8326 39.5657 26.1061 39.0216C26.4089 38.4209 27.1122 38.0438 27.7081 38.1825C28.3743 38.3379 28.8783 38.9357 28.8822 39.6165C28.891 41.0798 28.8842 42.5441 28.8842 44.0074L28.891 44.0474C28.6966 44.1979 28.4651 44.1891 28.2395 44.19C25.7105 44.193 23.1824 44.193 20.6534 44.19C20.4287 44.19 20.1953 44.2067 20.0077 44.0367V44.0357Z" fill="#FEE4AB"/>
<path d="M61.1128 44.0095C61.1128 42.595 61.1108 41.1806 61.1147 39.7661C61.1177 38.8196 61.7272 38.1622 62.5868 38.1661C63.4347 38.17 64.0296 38.8381 64.0472 39.7818C64.055 40.1998 63.8675 40.7361 64.1302 41.0038C64.3949 41.2734 64.9322 41.077 65.3493 41.0907C65.8201 41.1054 66.2919 41.0858 66.7638 41.0966C66.9962 41.1024 67.0802 41.0116 67.0734 40.783C67.0627 40.3933 67.0617 40.0025 67.0734 39.6128C67.0988 38.8049 67.765 38.1583 68.5504 38.1661C69.3123 38.1729 69.9853 38.8127 69.9932 39.5942C70.0078 41.0731 69.9902 42.553 69.9863 44.0319C69.8017 44.2068 69.5673 44.1873 69.3426 44.1882C66.7989 44.1921 64.2553 44.1921 61.7116 44.1882C61.5006 44.1882 61.2886 44.1863 61.106 44.0525L61.1118 44.0085L61.1128 44.0095Z" fill="#FEC771"/>
<path d="M20.0078 44.0356C22.9686 44.0396 25.9303 44.0435 28.8911 44.0474C28.8872 45.0193 28.8843 45.9913 28.8804 46.9632C25.9225 46.9564 22.9647 46.9495 20.0078 46.9417C20.0078 45.9727 20.0078 45.0037 20.0078 44.0356Z" fill="#FEBB00"/>
<path d="M61.1069 44.0535C62.2283 44.0437 63.3507 44.0271 64.4721 44.0261C66.3105 44.0232 68.1489 44.03 69.9873 44.0329C69.9873 45.0039 69.9873 45.9749 69.9873 46.9468C67.0314 46.9517 64.0755 46.9566 61.1196 46.9625C61.1157 45.9934 61.1108 45.0234 61.1069 44.0544V44.0535Z" fill="#FE9819"/>
<path d="M45.0021 44.0405C43.5369 44.0298 42.0716 44.019 40.6054 44.0083C40.6054 42.6944 40.6572 41.3777 40.5937 40.0677C40.4677 37.4713 42.2514 35.334 44.9992 35.2158V35.2549C45.1838 35.4356 45.1623 35.673 45.1623 35.8967C45.1672 38.3856 45.1672 40.8756 45.1623 43.3645C45.1623 43.5892 45.1799 43.8256 44.9953 44.0053L45.0011 44.0405H45.0021Z" fill="#764A55"/>
<path d="M44.9961 44.0057C44.9971 41.0889 44.999 38.1721 45 35.2543C47.2301 35.1332 49.3576 37.1191 49.3879 39.3775C49.4094 40.9219 49.3918 42.4672 49.3918 44.0116C47.9266 44.0096 46.4613 44.0077 44.9961 44.0047V44.0057Z" fill="#613426"/>
</g>
</g>
<path d="M13.89 107.08H16.24V108H12.75V101.05H13.89V107.08ZM19.5834 108.09C19.0634 108.09 18.5934 107.973 18.1734 107.74C17.7534 107.5 17.4234 107.167 17.1834 106.74C16.9434 106.307 16.8234 105.807 16.8234 105.24C16.8234 104.68 16.9467 104.183 17.1934 103.75C17.44 103.317 17.7767 102.983 18.2034 102.75C18.63 102.517 19.1067 102.4 19.6334 102.4C20.16 102.4 20.6367 102.517 21.0634 102.75C21.49 102.983 21.8267 103.317 22.0734 103.75C22.32 104.183 22.4434 104.68 22.4434 105.24C22.4434 105.8 22.3167 106.297 22.0634 106.73C21.81 107.163 21.4634 107.5 21.0234 107.74C20.59 107.973 20.11 108.09 19.5834 108.09ZM19.5834 107.1C19.8767 107.1 20.15 107.03 20.4034 106.89C20.6634 106.75 20.8734 106.54 21.0334 106.26C21.1934 105.98 21.2734 105.64 21.2734 105.24C21.2734 104.84 21.1967 104.503 21.0434 104.23C20.89 103.95 20.6867 103.74 20.4334 103.6C20.18 103.46 19.9067 103.39 19.6134 103.39C19.32 103.39 19.0467 103.46 18.7934 103.6C18.5467 103.74 18.35 103.95 18.2034 104.23C18.0567 104.503 17.9834 104.84 17.9834 105.24C17.9834 105.833 18.1334 106.293 18.4334 106.62C18.74 106.94 19.1234 107.1 19.5834 107.1ZM30.9703 102.49L29.2603 108H28.0603L26.9503 103.93L25.8403 108H24.6403L22.9203 102.49H24.0803L25.2303 106.92L26.4003 102.49H27.5903L28.7103 106.9L29.8503 102.49H30.9703ZM36.8723 105.11C36.8723 105.317 36.8589 105.503 36.8323 105.67H32.6223C32.6556 106.11 32.8189 106.463 33.1123 106.73C33.4056 106.997 33.7656 107.13 34.1923 107.13C34.8056 107.13 35.2389 106.873 35.4923 106.36H36.7223C36.5556 106.867 36.2523 107.283 35.8123 107.61C35.3789 107.93 34.8389 108.09 34.1923 108.09C33.6656 108.09 33.1923 107.973 32.7723 107.74C32.3589 107.5 32.0323 107.167 31.7923 106.74C31.5589 106.307 31.4423 105.807 31.4423 105.24C31.4423 104.673 31.5556 104.177 31.7823 103.75C32.0156 103.317 32.3389 102.983 32.7523 102.75C33.1723 102.517 33.6523 102.4 34.1923 102.4C34.7123 102.4 35.1756 102.513 35.5823 102.74C35.9889 102.967 36.3056 103.287 36.5323 103.7C36.7589 104.107 36.8723 104.577 36.8723 105.11ZM35.6823 104.75C35.6756 104.33 35.5256 103.993 35.2323 103.74C34.9389 103.487 34.5756 103.36 34.1423 103.36C33.7489 103.36 33.4123 103.487 33.1323 103.74C32.8523 103.987 32.6856 104.323 32.6323 104.75H35.6823ZM39.1341 103.29C39.3008 103.01 39.5208 102.793 39.7941 102.64C40.0741 102.48 40.4041 102.4 40.7841 102.4V103.58H40.4941C40.0475 103.58 39.7075 103.693 39.4741 103.92C39.2475 104.147 39.1341 104.54 39.1341 105.1V108H37.9941V102.49H39.1341V103.29ZM44.0497 104.51C44.0497 103.83 44.2064 103.22 44.5197 102.68C44.8397 102.14 45.2697 101.72 45.8097 101.42C46.3564 101.113 46.953 100.96 47.5997 100.96C48.3397 100.96 48.9964 101.143 49.5697 101.51C50.1497 101.87 50.5697 102.383 50.8297 103.05H49.4597C49.2797 102.683 49.0297 102.41 48.7097 102.23C48.3897 102.05 48.0197 101.96 47.5997 101.96C47.1397 101.96 46.7297 102.063 46.3697 102.27C46.0097 102.477 45.7264 102.773 45.5197 103.16C45.3197 103.547 45.2197 103.997 45.2197 104.51C45.2197 105.023 45.3197 105.473 45.5197 105.86C45.7264 106.247 46.0097 106.547 46.3697 106.76C46.7297 106.967 47.1397 107.07 47.5997 107.07C48.0197 107.07 48.3897 106.98 48.7097 106.8C49.0297 106.62 49.2797 106.347 49.4597 105.98H50.8297C50.5697 106.647 50.1497 107.16 49.5697 107.52C48.9964 107.88 48.3397 108.06 47.5997 108.06C46.9464 108.06 46.3497 107.91 45.8097 107.61C45.2697 107.303 44.8397 106.88 44.5197 106.34C44.2064 105.8 44.0497 105.19 44.0497 104.51ZM54.5541 108.09C54.0341 108.09 53.5641 107.973 53.1441 107.74C52.7241 107.5 52.3941 107.167 52.1541 106.74C51.9141 106.307 51.7941 105.807 51.7941 105.24C51.7941 104.68 51.9174 104.183 52.1641 103.75C52.4107 103.317 52.7474 102.983 53.1741 102.75C53.6007 102.517 54.0774 102.4 54.6041 102.4C55.1307 102.4 55.6074 102.517 56.0341 102.75C56.4607 102.983 56.7974 103.317 57.0441 103.75C57.2907 104.183 57.4141 104.68 57.4141 105.24C57.4141 105.8 57.2874 106.297 57.0341 106.73C56.7807 107.163 56.4341 107.5 55.9941 107.74C55.5607 107.973 55.0807 108.09 54.5541 108.09ZM54.5541 107.1C54.8474 107.1 55.1207 107.03 55.3741 106.89C55.6341 106.75 55.8441 106.54 56.0041 106.26C56.1641 105.98 56.2441 105.64 56.2441 105.24C56.2441 104.84 56.1674 104.503 56.0141 104.23C55.8607 103.95 55.6574 103.74 55.4041 103.6C55.1507 103.46 54.8774 103.39 54.5841 103.39C54.2907 103.39 54.0174 103.46 53.7641 103.6C53.5174 103.74 53.3207 103.95 53.1741 104.23C53.0274 104.503 52.9541 104.84 52.9541 105.24C52.9541 105.833 53.1041 106.293 53.4041 106.62C53.7107 106.94 54.0941 107.1 54.5541 107.1ZM63.531 102.49V108H62.391V107.35C62.211 107.577 61.9743 107.757 61.681 107.89C61.3943 108.017 61.0877 108.08 60.761 108.08C60.3277 108.08 59.9377 107.99 59.591 107.81C59.251 107.63 58.981 107.363 58.781 107.01C58.5877 106.657 58.491 106.23 58.491 105.73V102.49H59.621V105.56C59.621 106.053 59.7443 106.433 59.991 106.7C60.2377 106.96 60.5743 107.09 61.001 107.09C61.4277 107.09 61.7643 106.96 62.011 106.7C62.2643 106.433 62.391 106.053 62.391 105.56V102.49H63.531ZM66.1752 103.29C66.3418 103.01 66.5618 102.793 66.8352 102.64C67.1152 102.48 67.4452 102.4 67.8252 102.4V103.58H67.5352C67.0885 103.58 66.7485 103.693 66.5152 103.92C66.2885 104.147 66.1752 104.54 66.1752 105.1V108H65.0352V102.49H66.1752V103.29ZM70.203 103.42V106.47C70.203 106.677 70.2497 106.827 70.343 106.92C70.443 107.007 70.6097 107.05 70.843 107.05H71.543V108H70.643C70.1297 108 69.7364 107.88 69.463 107.64C69.1897 107.4 69.053 107.01 69.053 106.47V103.42H68.403V102.49H69.053V101.12H70.203V102.49H71.543V103.42H70.203ZM74.5938 108.09C74.1604 108.09 73.7704 108.013 73.4238 107.86C73.0838 107.7 72.8138 107.487 72.6138 107.22C72.4138 106.947 72.3071 106.643 72.2938 106.31H73.4738C73.4938 106.543 73.6038 106.74 73.8038 106.9C74.0104 107.053 74.2671 107.13 74.5738 107.13C74.8938 107.13 75.1404 107.07 75.3138 106.95C75.4938 106.823 75.5838 106.663 75.5838 106.47C75.5838 106.263 75.4838 106.11 75.2838 106.01C75.0904 105.91 74.7804 105.8 74.3538 105.68C73.9404 105.567 73.6038 105.457 73.3438 105.35C73.0838 105.243 72.8571 105.08 72.6638 104.86C72.4771 104.64 72.3838 104.35 72.3838 103.99C72.3838 103.697 72.4704 103.43 72.6438 103.19C72.8171 102.943 73.0638 102.75 73.3838 102.61C73.7104 102.47 74.0838 102.4 74.5038 102.4C75.1304 102.4 75.6338 102.56 76.0138 102.88C76.4004 103.193 76.6071 103.623 76.6338 104.17H75.4938C75.4738 103.923 75.3738 103.727 75.1938 103.58C75.0138 103.433 74.7704 103.36 74.4638 103.36C74.1638 103.36 73.9338 103.417 73.7738 103.53C73.6138 103.643 73.5338 103.793 73.5338 103.98C73.5338 104.127 73.5871 104.25 73.6938 104.35C73.8004 104.45 73.9304 104.53 74.0838 104.59C74.2371 104.643 74.4638 104.713 74.7638 104.8C75.1638 104.907 75.4904 105.017 75.7438 105.13C76.0038 105.237 76.2271 105.397 76.4138 105.61C76.6004 105.823 76.6971 106.107 76.7038 106.46C76.7038 106.773 76.6171 107.053 76.4438 107.3C76.2704 107.547 76.0238 107.74 75.7038 107.88C75.3904 108.02 75.0204 108.09 74.5938 108.09Z" fill="#151513"/>
<defs>
<clipPath id="clip0_4235_30518">
<rect width="90" height="90" fill="white" transform="translate(0 0.488281)"/>
</clipPath>
<clipPath id="clip1_4235_30518">
<rect width="50.002" height="50" fill="white" transform="translate(19.999 20.4883)"/>
</clipPath>
</defs>
</svg>
