<svg width="350" height="219" viewBox="0 0 350 219" fill="none" xmlns="http://www.w3.org/2000/svg">
<g clip-path="url(#clip0_4357_30745)">
<rect width="350" height="218.75" fill="white"/>
<g clip-path="url(#clip1_4357_30745)">
<g style="mix-blend-mode:multiply" opacity="0.5">
<path d="M126.597 238.598C186.862 238.598 235.716 189.663 235.716 129.3C235.716 68.936 186.862 20.0015 126.597 20.0015C66.3319 20.0015 17.4775 68.936 17.4775 129.3C17.4775 189.663 66.3319 238.598 126.597 238.598Z" fill="#FFEBBC"/>
<path d="M312.7 217.692C339.133 191.216 339.133 148.29 312.7 121.814C286.267 95.3375 243.411 95.3375 216.978 121.814C190.546 148.29 190.546 191.216 216.978 217.692C243.411 244.169 286.267 244.169 312.7 217.692Z" fill="#FFF5DE"/>
<path d="M275.935 85.0195C285.785 75.1534 285.785 59.1573 275.935 49.2912C266.085 39.4251 250.115 39.4251 240.265 49.2912C230.415 59.1573 230.415 75.1534 240.265 85.0195C250.115 94.8856 266.085 94.8856 275.935 85.0195Z" fill="#FFF5DE"/>
</g>
<g opacity="0.5">
<path d="M329.202 171.939C329.202 173.598 328.565 175.105 327.531 176.235H235.209L234.358 175.668C233.506 175.097 232.75 174.374 232.219 173.492C231.868 172.908 231.625 172.316 231.476 171.708C230.516 167.823 233.211 163.853 237.165 163.641C238.909 163.548 240.497 164.185 241.681 165.269C241.67 165.089 241.654 164.909 241.654 164.725C241.654 159.36 245.952 155.014 251.257 155.014C255.909 155.014 259.791 158.362 260.672 162.808C260.795 163.428 260.858 164.068 260.858 164.725C260.858 165.034 260.842 165.338 260.813 165.639H260.858C262.654 165.639 264.269 166.407 265.411 167.635L265.415 167.64C265.462 166.575 265.771 165.577 266.278 164.716C267.361 162.866 269.35 161.627 271.63 161.627C274.279 161.627 276.538 163.306 277.437 165.665C278.577 164.42 280.202 163.633 282.011 163.633C283.514 163.633 284.895 164.175 285.97 165.071C286.491 160.643 290.209 157.207 294.727 157.207C296.2 157.207 297.585 157.578 298.808 158.223C301.008 153.235 306.148 149.864 312.002 150.384C319.471 151.047 324.924 158.101 323.823 165.602C323.819 165.635 323.816 165.668 323.808 165.699C326.181 166.02 328.132 167.694 328.874 169.935C329.087 170.565 329.201 171.237 329.201 171.942L329.202 171.939Z" fill="white"/>
</g>
<g opacity="0.7">
<path d="M238.485 127.582C238.485 128.19 238.587 128.773 238.774 129.321H239.315V129.345L244.509 129.342H244.62L248.647 129.339C248.647 129.339 248.657 129.35 248.663 129.354C248.698 129.389 248.736 129.421 248.772 129.448C248.786 129.416 248.798 129.385 248.807 129.354C248.809 129.35 248.81 129.344 248.812 129.339L259.085 129.329H260.639L265.282 129.325L267.81 129.322H267.813L273.379 129.319L281.339 129.313H281.362C281.362 129.313 281.375 129.313 281.39 129.315C281.596 129.319 282.717 129.319 282.789 129.313H282.824L296.002 129.303L298.878 129.3H298.881C298.881 129.3 298.893 129.298 298.899 129.298C298.955 129.306 299.226 129.307 299.585 129.303C300.422 129.294 301.73 129.259 301.868 129.248C301.868 129.248 303.723 127.914 303.652 125.325C303.588 123.081 301.626 121.458 299.472 121.458C299.032 121.458 298.613 121.534 298.219 121.669C298.268 121.372 298.3 121.07 298.3 120.759C298.3 117.746 295.886 115.303 292.909 115.303C291.604 115.303 290.409 115.772 289.475 116.551C288.019 113.937 285.251 112.17 282.075 112.17C278.02 112.17 274.634 115.042 273.79 118.885C273.701 119.288 273.639 119.704 273.609 120.127H273.606C273.545 120.084 273.486 120.045 273.424 120.007C272.6 119.49 271.632 119.193 270.59 119.193C268.143 119.193 266.077 120.84 265.42 123.101C264.751 122.547 263.894 122.213 262.957 122.213C262.923 122.213 262.892 122.213 262.861 122.216C262.392 122.226 261.944 122.323 261.532 122.485C261.303 120.8 260.546 119.284 259.432 118.116C258.026 116.639 256.048 115.72 253.859 115.72C249.843 115.72 246.542 118.815 246.156 122.773C245.446 122.415 244.644 122.213 243.795 122.213C240.861 122.213 238.484 124.617 238.484 127.583L238.485 127.582Z" fill="white"/>
</g>
<path d="M226.015 66.5757C226.015 67.0063 226.086 67.4203 226.221 67.8085H226.604V67.8252H230.287L230.366 67.8237H233.221C233.221 67.8237 233.229 67.8297 233.233 67.8328C233.257 67.857 233.285 67.8798 233.31 67.8995C233.321 67.8767 233.329 67.854 233.335 67.8328C233.335 67.8297 233.336 67.8252 233.338 67.8222L240.624 67.8146H245.019L246.813 67.81H250.762L256.407 67.804H256.422C256.422 67.804 256.433 67.804 256.442 67.804C256.589 67.807 257.382 67.807 257.434 67.804H257.458L266.804 67.7964H268.844L268.846 67.7949C268.85 67.7949 268.855 67.7949 268.859 67.7949C268.9 67.8009 269.091 67.8009 269.345 67.7979C269.939 67.7918 270.867 67.766 270.964 67.7585C270.964 67.7585 272.279 66.8122 272.228 64.9758C272.183 63.3836 270.791 62.2341 269.264 62.2341C268.952 62.2341 268.655 62.2872 268.375 62.3842C268.41 62.1735 268.433 61.9596 268.433 61.7382C268.433 59.6016 266.72 57.8698 264.608 57.8698C263.683 57.8698 262.835 58.2019 262.174 58.7554C261.141 56.9008 259.178 55.6483 256.925 55.6483C254.05 55.6483 251.647 57.6848 251.049 60.4098C250.986 60.6965 250.942 60.9906 250.921 61.2909H250.919C250.877 61.2606 250.834 61.2333 250.79 61.206C250.206 60.839 249.519 60.6282 248.78 60.6282C247.045 60.6282 245.578 61.7974 245.113 63.3987C244.638 63.006 244.031 62.7694 243.366 62.7694C243.343 62.7694 243.321 62.7694 243.298 62.7724C242.965 62.7785 242.647 62.8467 242.355 62.962C242.193 61.767 241.655 60.6904 240.865 59.8639C239.867 58.8161 238.465 58.1655 236.914 58.1655C234.066 58.1655 231.725 60.3598 231.451 63.1667C230.947 62.912 230.378 62.7694 229.777 62.7694C227.697 62.7694 226.01 64.4739 226.01 66.5787L226.015 66.5757Z" fill="white"/>
<path d="M91.2249 43.7837C91.2249 44.3675 91.3218 44.9301 91.5035 45.4563H92.0228V45.4791L97.0188 45.476H97.1248L100.997 45.473C100.997 45.473 101.008 45.4836 101.014 45.4882C101.047 45.5215 101.084 45.5518 101.119 45.5791C101.132 45.5488 101.143 45.5185 101.152 45.4882C101.153 45.4836 101.155 45.4775 101.156 45.473L111.036 45.4624H112.531L116.995 45.4593L119.427 45.4563H119.43L124.782 45.4533L132.438 45.4472H132.459C132.459 45.4472 132.472 45.4472 132.486 45.4472C132.684 45.4518 133.762 45.4518 133.832 45.4472H133.865L146.537 45.4366L149.303 45.4336H149.306C149.306 45.4336 149.318 45.432 149.324 45.432C149.379 45.4396 149.639 45.4411 149.983 45.4366C150.787 45.4275 152.046 45.3941 152.178 45.3835C152.178 45.3835 153.961 44.0991 153.893 41.6106C153.833 39.4528 151.945 37.8924 149.874 37.8924C149.451 37.8924 149.049 37.9651 148.669 38.0956C148.716 37.8105 148.746 37.5193 148.746 37.2206C148.746 34.3242 146.425 31.9737 143.561 31.9737C142.306 31.9737 141.156 32.4241 140.259 33.1747C138.858 30.6605 136.197 28.9621 133.142 28.9621C129.243 28.9621 125.985 31.7235 125.175 35.4191C125.089 35.8073 125.03 36.2061 125.001 36.614H124.998C124.941 36.5731 124.883 36.5351 124.824 36.4988C124.032 36.0014 123.1 35.7163 122.099 35.7163C119.746 35.7163 117.758 37.3009 117.126 39.474C116.482 38.9417 115.657 38.6218 114.758 38.6218C114.726 38.6218 114.696 38.6218 114.665 38.6248C114.214 38.6339 113.784 38.7264 113.386 38.8826C113.167 37.2615 112.438 35.8027 111.367 34.6821C110.013 33.2612 108.112 32.3786 106.007 32.3786C102.145 32.3786 98.9703 35.3538 98.5994 39.1601C97.9166 38.8159 97.1445 38.6218 96.3285 38.6218C93.508 38.6218 91.2204 40.9328 91.2204 43.7867L91.2249 43.7837Z" fill="white"/>
<g opacity="0.6">
<path d="M53.4005 67.6129C53.4005 68.0436 53.5655 68.4348 53.835 68.7275H77.7932L78.0142 68.5804C78.2353 68.4318 78.4321 68.2452 78.5698 68.0163C78.6607 67.8646 78.7243 67.7115 78.7621 67.5537C79.0119 66.5453 78.3125 65.5157 77.286 65.4611C76.8333 65.4368 76.4215 65.6021 76.1142 65.8842C76.1172 65.8371 76.1218 65.7901 76.1218 65.7431C76.1218 64.351 75.006 63.2228 73.6298 63.2228C72.4232 63.2228 71.4149 64.0917 71.1863 65.2457C71.1545 65.4065 71.1379 65.5733 71.1379 65.7431C71.1379 65.8235 71.1424 65.9024 71.15 65.9797H71.1379C70.6716 65.9797 70.2522 66.1783 69.957 66.4968C69.9449 66.2208 69.8646 65.963 69.7329 65.7386C69.4528 65.2579 68.9351 64.9364 68.3446 64.9364C67.6573 64.9364 67.0714 65.3716 66.8383 65.9842C66.543 65.6612 66.1206 65.4565 65.6513 65.4565C65.2607 65.4565 64.9034 65.5975 64.6233 65.8296C64.4886 64.6801 63.5227 63.7885 62.3509 63.7885C61.9694 63.7885 61.6091 63.884 61.2911 64.0523C60.7204 62.7588 59.3866 61.8838 57.8666 62.0188C55.9287 62.1901 54.5132 64.0205 54.7993 65.9676C54.7993 65.9767 54.8009 65.9842 54.8024 65.9933C54.1862 66.0767 53.6805 66.5104 53.4883 67.0927C53.4322 67.2565 53.4035 67.4309 53.4035 67.6129H53.4005Z" fill="white"/>
</g>
<path d="M255.267 206.119C255.267 207.076 255.634 207.943 256.23 208.594H309.417L309.907 208.266C310.398 207.939 310.834 207.522 311.139 207.012C311.342 206.676 311.482 206.336 311.568 205.984C312.12 203.746 310.569 201.459 308.29 201.336C307.285 201.283 306.371 201.65 305.689 202.275C305.695 202.17 305.704 202.067 305.704 201.961C305.704 198.871 303.228 196.365 300.172 196.365C297.493 196.365 295.257 198.294 294.748 200.856C294.678 201.212 294.64 201.582 294.64 201.959C294.64 202.137 294.65 202.313 294.666 202.486H294.64C293.606 202.486 292.675 202.927 292.017 203.635L292.014 203.638C291.987 203.024 291.809 202.451 291.517 201.953C290.893 200.887 289.747 200.173 288.435 200.173C286.909 200.173 285.607 201.141 285.089 202.499C284.432 201.782 283.496 201.329 282.455 201.329C281.589 201.329 280.794 201.639 280.173 202.157C279.873 199.606 277.731 197.627 275.129 197.627C274.281 197.627 273.482 197.841 272.778 198.212C271.51 195.339 268.549 193.396 265.176 193.696C260.873 194.079 257.732 198.143 258.366 202.463C258.369 202.483 258.371 202.501 258.375 202.519C257.008 202.704 255.885 203.668 255.456 204.96C255.334 205.323 255.269 205.71 255.269 206.116L255.267 206.119Z" fill="white"/>
<g opacity="0.8">
<path d="M199.359 123.083C199.359 125.547 198.412 127.782 196.877 129.459H59.8287L58.5661 128.616C57.3004 127.77 56.1801 126.696 55.3913 125.386C54.869 124.519 54.5102 123.642 54.2892 122.738C52.8645 116.971 56.8659 111.077 62.734 110.763C65.3228 110.625 67.6815 111.573 69.4377 113.18C69.4226 112.913 69.3984 112.645 69.3984 112.371C69.3984 104.406 75.7796 97.9539 83.6537 97.9539C90.5603 97.9539 96.3209 102.925 97.6289 109.526C97.8106 110.446 97.906 111.396 97.906 112.371C97.906 112.829 97.8818 113.28 97.8379 113.728H97.906C100.572 113.728 102.97 114.867 104.664 116.689L104.67 116.695C104.741 115.114 105.199 113.635 105.951 112.355C107.557 109.609 110.511 107.77 113.896 107.77C117.83 107.77 121.183 110.261 122.517 113.764C124.209 111.916 126.62 110.746 129.307 110.746C131.54 110.746 133.588 111.549 135.184 112.882C135.958 106.308 141.476 101.208 148.183 101.208C150.369 101.208 152.426 101.759 154.242 102.715C157.506 95.3122 165.137 90.3065 173.827 91.0784C184.914 92.0625 193.008 102.533 191.374 113.669C191.368 113.717 191.362 113.767 191.353 113.813C194.876 114.289 197.771 116.774 198.874 120.103C199.191 121.038 199.36 122.035 199.36 123.081L199.359 123.083Z" fill="white"/>
</g>
<path d="M262.587 47.5899V255.006C262.587 260.186 258.392 264.386 253.222 264.386H95.5215C90.3469 264.386 86.1562 260.184 86.1562 255.006V47.5899C86.1562 46.5527 86.3258 45.5534 86.6362 44.6223C86.6543 44.5631 86.6725 44.5055 86.6952 44.4494C87.9851 40.813 91.4475 38.2123 95.5215 38.2123H253.222C257.293 38.2123 260.758 40.813 262.045 44.4494C262.069 44.5055 262.088 44.5601 262.104 44.6193V44.6223C262.419 45.5534 262.587 46.5527 262.587 47.5899Z" fill="#463B56"/>
<path d="M256.462 49.0366V253.562C256.462 256.154 254.365 258.252 251.779 258.252H96.9628C94.3755 258.252 92.2802 256.155 92.2802 253.562V49.0366C92.2802 46.4481 94.3739 44.3463 96.9628 44.3463H251.779C254.363 44.3463 256.462 46.4466 256.462 49.0366Z" fill="#F8CD9E"/>
<path d="M248.062 56.7143V245.883C248.062 248.28 246.181 250.22 243.861 250.22H104.884C102.561 250.22 100.68 248.279 100.68 245.883V56.7143C100.68 54.3199 102.561 52.3773 104.884 52.3773H243.863C246.182 52.3773 248.064 54.3214 248.064 56.7143H248.062Z" fill="white"/>
<path d="M236.045 68.0875H212.654V70.0361H236.045V68.0875Z" fill="#F6A676"/>
<path d="M136.088 68.0875H112.697V70.0361H136.088V68.0875Z" fill="#F6A676"/>
<path d="M165.84 87.604H114.175C113.705 87.604 113.324 87.9856 113.324 88.4562V134.497C113.324 134.967 113.705 135.349 114.175 135.349H165.84C166.31 135.349 166.691 134.967 166.691 134.497V88.4562C166.691 87.9856 166.31 87.604 165.84 87.604Z" fill="white"/>
<path d="M165.84 135.978H114.175C113.36 135.978 112.697 135.314 112.697 134.498V88.4562C112.697 87.6404 113.36 86.9762 114.175 86.9762H165.84C166.654 86.9762 167.317 87.6404 167.317 88.4562V134.498C167.317 135.314 166.654 135.978 165.84 135.978ZM114.175 88.2333C114.052 88.2333 113.951 88.3334 113.951 88.4577V134.5C113.951 134.624 114.051 134.724 114.175 134.724H165.84C165.964 134.724 166.064 134.624 166.064 134.5V88.4562C166.064 88.3319 165.964 88.2318 165.84 88.2318H114.175V88.2333Z" fill="#F6A676"/>
<g opacity="0.5">
<path d="M165.84 87.604H114.175C113.705 87.604 113.324 87.9856 113.324 88.4562V134.497C113.324 134.967 113.705 135.349 114.175 135.349H165.84C166.31 135.349 166.691 134.967 166.691 134.497V88.4562C166.691 87.9856 166.31 87.604 165.84 87.604Z" fill="#F6A676"/>
</g>
<path d="M200.969 87.6282H171.85V90.3275H200.969V87.6282Z" fill="#F6A676"/>
<path d="M235.457 87.6282H206.338V90.3275H235.457V87.6282Z" fill="#F6A676"/>
<path d="M200.969 132.627H171.85V135.326H200.969V132.627Z" fill="#F6A676"/>
<path d="M235.457 132.627H206.338V135.326H235.457V132.627Z" fill="#F6A676"/>
<path d="M220.468 102.627H171.85V105.327H220.468V102.627Z" fill="#F6A676"/>
<path d="M235.457 102.627H224.72V105.327H235.457V102.627Z" fill="#F6A676"/>
<path d="M235.457 117.628H185.892V120.327H235.457V117.628Z" fill="#F6A676"/>
<path d="M182.796 117.628H171.85V120.327H182.796V117.628Z" fill="#F6A676"/>
<path d="M168.897 192.624H112.697V195.324H168.897V192.624Z" fill="#F6A676"/>
<path d="M235.457 192.624H179.258V195.324H235.457V192.624Z" fill="#F6A676"/>
<path d="M235.457 147.626H112.697V150.325H235.457V147.626Z" fill="#F6A676"/>
<path d="M235.457 177.625H112.697V180.325H235.457V177.625Z" fill="#F6A676"/>
<path d="M206.527 162.625H112.697V165.324H206.527V162.625Z" fill="#F6A676"/>
<path d="M235.459 162.625H214.737V165.324H235.459V162.625Z" fill="#F6A676"/>
<path d="M235.457 207.623H139.8V210.323H235.457V207.623Z" fill="#F6A676"/>
<path d="M133.821 207.623H112.697V210.323H133.821V207.623Z" fill="#F6A676"/>
<path d="M150.912 124.23L135.965 124.34C135.63 124.343 135.361 124.616 135.364 124.951C135.367 125.286 135.64 125.556 135.974 125.553L150.921 125.444C151.256 125.44 151.525 125.168 151.522 124.832C151.519 124.497 151.247 124.227 150.912 124.23Z" fill="white"/>
<path d="M149.206 124.215C149.541 124.212 149.81 123.939 149.807 123.604C149.804 123.269 149.532 122.999 149.197 123.002L137.664 123.085C137.329 123.088 137.06 123.361 137.063 123.697C137.066 124.032 137.338 124.302 137.673 124.299L149.206 124.215Z" fill="white"/>
<path d="M161.575 107.48L156.77 101.686C157.705 101.51 157.911 101.238 157.937 101.064C157.937 101.055 157.939 101.046 157.94 101.038C157.945 100.953 157.908 100.897 157.908 100.897C157.896 100.874 157.881 100.853 157.864 100.833C157.86 100.829 157.857 100.824 157.852 100.82C157.84 100.806 157.827 100.792 157.811 100.782C157.808 100.779 157.805 100.776 157.802 100.774C157.708 100.706 157.587 100.68 157.471 100.715C157.033 100.844 155.987 100.929 153.754 100.163C150.537 99.0606 148.231 98.175 144.67 99.467C144.054 98.3994 143.25 97.4062 143.25 97.4062C143.25 97.4062 142.454 98.4085 141.848 99.4852C138.272 98.2493 135.982 99.1668 132.783 100.316C130.562 101.114 129.514 101.044 129.075 100.921C128.957 100.888 128.836 100.917 128.745 100.986C128.745 100.986 128.739 100.991 128.736 100.994C128.721 101.006 128.709 101.018 128.695 101.033C128.691 101.038 128.688 101.043 128.683 101.047C128.666 101.067 128.651 101.088 128.639 101.112C128.639 101.112 128.61 101.158 128.609 101.229C128.609 101.237 128.609 101.246 128.609 101.253C128.618 101.4 128.753 101.632 129.405 101.804L124.819 107.366C124.785 107.468 124.8 107.58 124.862 107.668C124.889 107.706 124.924 107.736 124.963 107.759C125.499 109.017 127.501 109.943 129.879 109.924C132.257 109.908 134.245 108.954 134.763 107.688C134.802 107.663 134.837 107.633 134.864 107.595C134.925 107.507 134.94 107.393 134.904 107.293L130.179 101.939C130.367 101.96 130.556 101.974 130.743 101.977C131.753 101.995 132.783 101.778 134.012 101.54C134.695 101.408 135.44 101.269 136.278 101.159C136.447 101.138 136.615 101.124 136.783 101.121C136.908 101.118 137.034 101.121 137.16 101.128C139.153 101.226 141.055 102.407 141.627 102.796C141.83 103.052 142.091 103.258 142.389 103.398C141.859 105.684 142.221 108.769 142.41 110.038C141.747 110.266 141.294 110.723 141.297 111.25C141.3 111.598 141.503 111.912 141.835 112.15C141.708 113.024 141.326 115.758 141.206 118.021C141.114 119.752 141.44 121.081 141.691 121.822L140.109 121.834C139.774 121.837 139.505 122.11 139.508 122.445C139.511 122.781 139.783 123.051 140.118 123.047L146.752 122.999C147.087 122.996 147.356 122.723 147.353 122.388C147.35 122.053 147.077 121.783 146.743 121.786L145.161 121.798C145.4 121.053 145.707 119.722 145.589 117.99C145.436 115.732 145.015 113.003 144.876 112.131C145.203 111.888 145.403 111.571 145.4 111.222C145.395 110.696 144.937 110.246 144.271 110.027C144.442 108.755 144.76 105.666 144.195 103.389C144.492 103.244 144.749 103.034 144.947 102.776C145.526 102.372 147.477 101.118 149.516 101.035C149.6 101.032 149.684 101.03 149.768 101.03C149.936 101.03 150.104 101.041 150.272 101.061C150.944 101.138 151.556 101.237 152.125 101.335C152.267 101.36 152.407 101.385 152.544 101.41C153.777 101.629 154.809 101.831 155.819 101.799C155.905 101.796 155.992 101.79 156.078 101.784L151.494 107.562C151.459 107.663 151.474 107.776 151.538 107.863C151.565 107.901 151.6 107.932 151.639 107.954C152.175 109.213 154.176 110.138 156.555 110.12C158.933 110.103 160.921 109.149 161.439 107.883C161.478 107.859 161.513 107.829 161.539 107.791C161.599 107.703 161.614 107.589 161.578 107.489L161.575 107.48ZM125.946 107.196L129.769 102.576L133.768 107.133L125.947 107.196H125.946ZM156.443 102.548L160.443 107.324L152.622 107.387L156.444 102.548H156.443Z" fill="white"/>
<path d="M161.48 117.284L154.824 114.502L148.429 117.631L148.999 117.79L148.896 119.369C148.799 119.458 148.673 119.605 148.579 119.811C148.579 119.811 148.579 119.814 148.578 119.814C148.537 119.904 148.504 120.006 148.481 120.118C148.479 120.128 148.476 120.139 148.475 120.15C148.466 120.204 148.457 120.262 148.454 120.321C148.449 120.409 148.46 120.495 148.476 120.579C148.631 121.178 149.368 121.628 149.415 122.047C149.415 122.047 149.825 121.17 149.762 120.37C149.728 119.942 149.559 119.542 149.121 119.302L149.217 117.848L151.498 118.485L151.312 120.659C154.709 119.109 158.435 120.188 158.435 120.188L158.16 118.425L161.475 117.276L161.48 117.284ZM157.963 117.655C154.393 116.257 151.659 118.131 151.633 118.149L151.544 118.022L151.456 117.896C151.485 117.876 154.354 115.907 158.076 117.364L158.022 117.508L157.966 117.652L157.963 117.655Z" fill="white"/>
<path d="M130.58 125.553H121.627L121.56 125.524C120.87 125.224 119.711 124.179 120.268 122.38C120.591 121.338 121.495 121.005 121.988 120.9V114.516C121.988 113.414 122.589 112.402 123.558 111.876L123.636 111.833H133.618C133.791 111.833 133.944 111.943 133.998 112.106C134.055 112.269 133.998 112.449 133.864 112.554C133.546 112.798 132.799 113.48 132.745 114.534V123.386C132.745 124.581 131.775 125.553 130.582 125.553H130.58ZM121.778 124.858H130.58C131.39 124.858 132.05 124.198 132.05 123.386V114.516C132.095 113.638 132.497 112.972 132.881 112.53H123.813C123.112 112.944 122.68 113.697 122.68 114.516V121.53L122.35 121.546C122.306 121.549 121.227 121.624 120.93 122.586C120.473 124.065 121.487 124.708 121.776 124.858H121.778Z" fill="white"/>
<path d="M130.391 115.3H124.261V115.793H130.391V115.3Z" fill="white"/>
<path d="M130.391 117.095H124.261V117.588H130.391V117.095Z" fill="white"/>
<path d="M130.391 118.891H124.261V119.384H130.391V118.891Z" fill="white"/>
<path d="M130.379 125.536C130.32 125.524 128.927 125.21 128.794 123.367C128.733 122.526 129.001 121.927 129.298 121.53L122.335 121.546V120.852L129.996 120.833C130.173 120.833 130.329 120.946 130.383 121.114C130.438 121.282 130.379 121.464 130.236 121.569C129.924 121.795 129.414 122.321 129.485 123.319C129.579 124.625 130.486 124.849 130.525 124.858L130.38 125.537L130.379 125.536Z" fill="white"/>
<g opacity="0.7">
<path d="M31.1591 117.438C31.2151 117.358 31.2499 117.311 31.2499 117.311C31.2211 117.344 31.1909 117.387 31.1591 117.438Z" fill="#99DFFF"/>
</g>
<g opacity="0.7">
<path d="M133.847 30.5759L123.428 27.311L122.7 27.082L122.706 27.0608C122.844 26.6195 122.599 26.1494 122.158 26.0114L122.101 25.9932L121.268 28.6606L121.326 28.6788C121.766 28.8168 122.235 28.5712 122.373 28.1299L122.378 28.1162L133.525 31.6101C133.81 31.6996 134.114 31.5403 134.202 31.2552C134.289 30.9701 134.132 30.6653 133.847 30.5774V30.5759Z" fill="#B7752E"/>
<path d="M118.181 23.4032L120.796 24.2236L120.947 24.2706L122.111 24.636C122.125 24.6406 122.139 24.6436 122.154 24.6467C122.16 24.6482 122.167 24.6497 122.173 24.6512C122.195 24.6558 122.214 24.6588 122.235 24.6603C122.254 24.6618 122.27 24.6633 122.287 24.6633C122.299 24.6633 122.311 24.6633 122.322 24.6633C122.326 24.6633 122.331 24.6633 122.334 24.6633C122.349 24.6633 122.364 24.6618 122.379 24.6588C122.393 24.6573 122.408 24.6542 122.422 24.6512C122.429 24.6512 122.437 24.6497 122.443 24.6467C122.453 24.6451 122.463 24.6421 122.472 24.6391C122.479 24.6391 122.487 24.6345 122.493 24.633C122.671 24.5724 122.821 24.4298 122.882 24.2342C122.926 24.0916 122.917 23.9445 122.864 23.8157C122.856 23.7975 122.849 23.7808 122.839 23.7641C122.832 23.7489 122.823 23.7338 122.814 23.7186C122.812 23.7156 122.811 23.7141 122.809 23.711C122.802 23.6989 122.793 23.6868 122.783 23.6761C122.78 23.6716 122.777 23.6686 122.774 23.664C122.764 23.6519 122.753 23.6397 122.743 23.6276C122.743 23.6261 122.74 23.6246 122.738 23.6231C122.726 23.6109 122.714 23.5988 122.702 23.5882C122.688 23.5745 122.673 23.5624 122.656 23.5518C122.626 23.529 122.593 23.5093 122.558 23.4927C122.582 22.9376 122.234 22.4114 121.677 22.237L120.242 21.7867L119.907 21.682C119.351 21.5076 118.765 21.7397 118.469 22.2113C118.352 22.19 118.236 22.2052 118.131 22.2492C117.969 22.3159 117.836 22.4524 117.78 22.6344C117.692 22.9179 117.818 23.2167 118.066 23.3547C118.102 23.3759 118.142 23.3911 118.183 23.4047L118.181 23.4032Z" fill="#B7752E"/>
<path d="M117.021 30.9141L118.791 31.4691C119.347 31.6435 119.933 31.4115 120.229 30.9399C120.242 30.9414 120.254 30.9429 120.264 30.9444C120.275 30.9459 120.287 30.9475 120.299 30.9475C120.319 30.9475 120.34 30.9475 120.36 30.9475C120.372 30.9475 120.382 30.9475 120.394 30.9444C120.398 30.9444 120.402 30.9444 120.405 30.9444C120.416 30.9444 120.425 30.9414 120.435 30.9399C120.441 30.9399 120.447 30.9384 120.454 30.9368C120.461 30.9368 120.47 30.9338 120.478 30.9308C120.487 30.9293 120.496 30.9262 120.503 30.9232C120.525 30.9171 120.546 30.9095 120.566 30.9004C120.584 30.8929 120.6 30.8853 120.617 30.8762C120.62 30.8762 120.623 30.8747 120.625 30.8716C120.64 30.864 120.653 30.855 120.667 30.8459C120.681 30.8368 120.694 30.8277 120.708 30.817C120.711 30.814 120.714 30.8125 120.717 30.8095C120.731 30.7973 120.746 30.7852 120.758 30.7731C120.771 30.7609 120.784 30.7458 120.796 30.7321C120.797 30.7291 120.8 30.7276 120.803 30.723C120.814 30.7094 120.824 30.6972 120.834 30.6821C120.846 30.6669 120.856 30.6487 120.865 30.632C120.876 30.6138 120.885 30.5956 120.893 30.5774C120.902 30.5562 120.911 30.535 120.918 30.5122C120.923 30.4986 120.926 30.4849 120.929 30.4728C120.932 30.4592 120.935 30.4455 120.938 30.4319C120.941 30.4182 120.943 30.4046 120.944 30.3909C120.946 30.3773 120.947 30.3636 120.947 30.3515C120.949 30.3151 120.947 30.2802 120.943 30.2453C120.941 30.2287 120.936 30.2135 120.933 30.1968C120.93 30.1832 120.927 30.1695 120.923 30.1574C120.92 30.1498 120.918 30.1422 120.915 30.1346C120.911 30.121 120.906 30.1073 120.9 30.0952C120.894 30.0801 120.888 30.0664 120.88 30.0528C120.88 30.0497 120.879 30.0482 120.877 30.0467C120.871 30.033 120.864 30.0209 120.856 30.0088C120.856 30.0088 120.856 30.0073 120.855 30.0057C120.846 29.9906 120.837 29.9769 120.826 29.9633C120.817 29.9512 120.808 29.939 120.799 29.9284C120.799 29.9269 120.796 29.9254 120.794 29.9239C120.784 29.9117 120.774 29.9011 120.762 29.8905C120.746 29.8738 120.731 29.8602 120.712 29.845C120.702 29.8374 120.691 29.8298 120.681 29.8223C120.678 29.8207 120.675 29.8192 120.673 29.8177C120.661 29.8101 120.649 29.8025 120.637 29.795C120.637 29.795 120.635 29.795 120.634 29.7934C120.628 29.7904 120.622 29.7874 120.614 29.7828C120.603 29.7783 120.593 29.7722 120.582 29.7677C120.572 29.7631 120.561 29.7586 120.55 29.754C120.54 29.7495 120.528 29.7464 120.517 29.7419L119.202 29.3294L116.587 28.509C116.546 28.4954 116.505 28.4878 116.464 28.4848C116.363 28.4742 116.261 28.4908 116.171 28.5287C116.007 28.597 115.875 28.7319 115.818 28.9139C115.725 29.2111 115.868 29.5266 116.143 29.6539C116.119 30.2105 116.467 30.7352 117.024 30.9095L117.021 30.9141Z" fill="#B7752E"/>
<path d="M116.601 28.048L119.333 28.9048L119.725 29.0276L120.768 29.3551L120.941 29.4097C121.1 29.4598 121.27 29.3703 121.318 29.2111C121.35 29.108 121.326 29.0033 121.26 28.926C121.256 28.9199 121.25 28.9139 121.244 28.9078C121.238 28.9017 121.232 28.8957 121.226 28.8911C121.214 28.8805 121.201 28.8714 121.188 28.8638L121.197 28.8669L122.17 25.7506L122.16 25.7476C122.16 25.7476 122.163 25.7476 122.166 25.7476C122.178 25.7476 122.19 25.7476 122.202 25.7476C122.208 25.7476 122.214 25.7476 122.22 25.746C122.223 25.746 122.226 25.746 122.229 25.746C122.235 25.746 122.242 25.743 122.248 25.7415C122.252 25.7415 122.258 25.74 122.263 25.7385C122.275 25.7354 122.287 25.7309 122.299 25.7248C122.305 25.7218 122.311 25.7187 122.319 25.7157C122.325 25.7127 122.331 25.7081 122.337 25.7051C122.343 25.7005 122.349 25.6975 122.357 25.693C122.363 25.6884 122.367 25.6839 122.373 25.6793C122.384 25.6717 122.393 25.6626 122.402 25.652C122.407 25.6475 122.411 25.6414 122.416 25.6369C122.42 25.6308 122.425 25.6247 122.429 25.6171C122.434 25.6111 122.437 25.605 122.44 25.5989C122.444 25.5929 122.447 25.5853 122.45 25.5777C122.455 25.5686 122.458 25.561 122.461 25.5519C122.463 25.5474 122.466 25.5428 122.467 25.5383C122.496 25.4443 122.476 25.3472 122.423 25.2714C122.387 25.2198 122.334 25.1789 122.27 25.1592L122.096 25.1046L120.661 24.6542L117.927 23.7974L117.753 23.7428C117.594 23.6928 117.424 23.7823 117.376 23.9415C117.353 24.0112 117.359 24.084 117.385 24.1477C117.409 24.2069 117.451 24.2569 117.507 24.2903L117.495 24.2857L116.522 27.402L116.535 27.4065C116.535 27.4065 116.534 27.4065 116.532 27.4065C116.396 27.3974 116.267 27.4808 116.225 27.6173C116.202 27.6871 116.208 27.7599 116.234 27.822C116.267 27.9024 116.334 27.9676 116.422 27.9949L116.596 28.0495L116.601 28.048Z" fill="#B7752E"/>
</g>
<g opacity="0.7">
<path d="M322.643 117.628H304.464C303.295 117.628 302.344 116.675 302.344 115.504V102.151C302.344 100.98 303.295 100.027 304.464 100.027H322.643C323.812 100.027 324.763 100.98 324.763 102.151V115.504C324.763 116.675 323.812 117.628 322.643 117.628ZM304.464 101.24C303.964 101.24 303.554 101.648 303.554 102.151V115.504C303.554 116.005 303.961 116.415 304.464 116.415H322.643C323.143 116.415 323.552 116.007 323.552 115.504V102.151C323.552 101.65 323.146 101.24 322.643 101.24H304.464Z" fill="#DCB180"/>
<path d="M324.092 108.358H302.983V109.295H324.092V108.358Z" fill="#CD904A"/>
<path d="M314.547 106.676H312.528C312.109 106.676 311.77 107.015 311.77 107.434V110.216C311.77 110.635 312.109 110.975 312.528 110.975H314.547C314.966 110.975 315.305 110.635 315.305 110.216V107.434C315.305 107.015 314.966 106.676 314.547 106.676Z" fill="#DCB180"/>
<path d="M318.283 100.72H317.072V99.1339C317.072 98.7239 316.739 98.3924 316.332 98.3924H310.172C309.763 98.3924 309.432 98.7263 309.432 99.1339V100.72H308.221V99.1339C308.221 98.0561 309.096 97.1772 310.175 97.1772H316.334C317.41 97.1772 318.288 98.0536 318.288 99.1339V100.72H318.283Z" fill="#E6C8A6"/>
</g>
<g opacity="0.7">
<path d="M60.796 158.602H39.913L39.7593 158.536C38.151 157.835 35.4504 155.4 36.7458 151.205C37.4978 148.775 39.6056 147.997 40.7555 147.752V132.863C40.7555 130.29 42.158 127.932 44.4167 126.708L44.5979 126.609H67.8768C68.2775 126.609 68.6343 126.865 68.7633 127.244C68.8923 127.624 68.7633 128.041 68.4477 128.286C67.7067 128.858 65.9666 130.45 65.8404 132.904V153.547C65.8404 156.334 63.5762 158.602 60.796 158.602ZM40.267 156.98H60.796C62.6869 156.98 64.2239 155.441 64.2239 153.547V132.861C64.3282 130.812 65.264 129.262 66.1642 128.228H45.015C43.382 129.193 42.3748 130.95 42.3748 132.861V149.217L41.6063 149.256C41.502 149.261 38.9881 149.434 38.2937 151.68C37.2288 155.128 39.5919 156.628 40.267 156.98Z" fill="#B7640A"/>
<path d="M60.3569 134.691H46.0607V135.84H60.3569V134.691Z" fill="#B7640A"/>
<path d="M60.3569 138.881H46.0607V140.03H60.3569V138.881Z" fill="#B7640A"/>
<path d="M60.3569 143.068H46.0607V144.217H60.3569V143.068Z" fill="#B7640A"/>
<path d="M60.3267 158.564C60.1895 158.534 56.94 157.802 56.6299 153.506C56.4872 151.543 57.1129 150.144 57.8073 149.22L41.568 149.261V147.639L59.432 147.595C59.8464 147.595 60.2087 147.859 60.335 148.249C60.4612 148.64 60.324 149.066 59.9919 149.308C59.2646 149.833 58.0735 151.062 58.2409 153.387C58.4605 156.431 60.5737 156.956 60.6643 156.978L60.324 158.564H60.3267Z" fill="#B7640A"/>
</g>
<path d="M144.04 71.5875V64.3148H145.358V70.4831H148.561V71.5875H144.04Z" fill="black"/>
<path d="M152.062 71.6941C151.516 71.6941 151.043 71.5804 150.646 71.3532C150.25 71.1235 149.946 70.7992 149.733 70.3802C149.52 69.9588 149.413 69.4628 149.413 68.8922C149.413 68.3312 149.52 67.8387 149.733 67.415C149.948 66.9888 150.249 66.6574 150.635 66.4206C151.021 66.1815 151.474 66.062 151.995 66.062C152.331 66.062 152.648 66.1164 152.947 66.2253C153.247 66.3319 153.513 66.4976 153.742 66.7225C153.974 66.9474 154.156 67.2339 154.289 67.5819C154.422 67.9275 154.488 68.3394 154.488 68.8177V69.2118H150.017V68.3454H153.256C153.253 68.0991 153.2 67.8802 153.096 67.6884C152.992 67.4943 152.846 67.3416 152.659 67.2303C152.474 67.119 152.259 67.0634 152.013 67.0634C151.75 67.0634 151.519 67.1273 151.32 67.2552C151.121 67.3806 150.966 67.5464 150.855 67.7523C150.746 67.9559 150.691 68.1796 150.688 68.4235V69.1799C150.688 69.4971 150.746 69.7694 150.862 69.9966C150.978 70.2215 151.14 70.3944 151.349 70.5151C151.557 70.6335 151.801 70.6927 152.08 70.6927C152.267 70.6927 152.437 70.6666 152.588 70.6145C152.74 70.5601 152.871 70.4808 152.982 70.3766C153.093 70.2724 153.178 70.1434 153.234 69.9895L154.435 70.1245C154.359 70.4417 154.214 70.7187 154.001 70.9554C153.791 71.1898 153.521 71.3721 153.192 71.5023C152.863 71.6302 152.486 71.6941 152.062 71.6941Z" fill="black"/>
<path d="M157.948 73.7466C157.486 73.7466 157.089 73.6839 156.758 73.5584C156.427 73.4353 156.16 73.2696 155.959 73.0613C155.758 72.8529 155.618 72.6221 155.54 72.3688L156.698 72.0883C156.75 72.1948 156.825 72.3001 156.925 72.4043C157.024 72.5108 157.158 72.5984 157.326 72.6671C157.497 72.7381 157.711 72.7736 157.969 72.7736C158.333 72.7736 158.635 72.6848 158.874 72.5073C159.114 72.3321 159.233 72.0433 159.233 71.6408V70.6074H159.169C159.103 70.74 159.006 70.8761 158.878 71.0158C158.753 71.1555 158.586 71.2727 158.377 71.3674C158.171 71.4621 157.912 71.5094 157.6 71.5094C157.181 71.5094 156.801 71.4112 156.46 71.2147C156.121 71.0158 155.851 70.7199 155.65 70.3269C155.451 69.9315 155.352 69.4367 155.352 68.8425C155.352 68.2436 155.451 67.7381 155.65 67.3262C155.851 66.9119 156.122 66.5982 156.463 66.3851C156.804 66.1697 157.184 66.062 157.603 66.062C157.923 66.062 158.186 66.1164 158.391 66.2253C158.6 66.3319 158.766 66.4609 158.889 66.6124C159.012 66.7616 159.105 66.9024 159.169 67.035H159.24V66.133H160.508V71.6763C160.508 72.1427 160.397 72.5286 160.174 72.834C159.952 73.1394 159.647 73.3679 159.262 73.5194C158.876 73.6709 158.438 73.7466 157.948 73.7466ZM157.958 70.5009C158.231 70.5009 158.463 70.4346 158.654 70.302C158.846 70.1695 158.992 69.9789 159.091 69.7303C159.191 69.4817 159.24 69.1834 159.24 68.8354C159.24 68.4921 159.191 68.1915 159.091 67.9334C158.994 67.6754 158.85 67.4753 158.658 67.3333C158.468 67.1889 158.235 67.1167 157.958 67.1167C157.672 67.1167 157.433 67.1912 157.241 67.3404C157.049 67.4895 156.905 67.6943 156.808 67.9547C156.711 68.2128 156.662 68.5063 156.662 68.8354C156.662 69.1692 156.711 69.4616 156.808 69.7125C156.907 69.9611 157.053 70.1553 157.244 70.2949C157.439 70.4322 157.677 70.5009 157.958 70.5009Z" fill="black"/>
<path d="M163.395 71.6976C163.049 71.6976 162.738 71.6361 162.461 71.513C162.186 71.3875 161.969 71.2028 161.808 70.959C161.649 70.7152 161.57 70.4145 161.57 70.057C161.57 69.7492 161.627 69.4947 161.74 69.2935C161.854 69.0923 162.009 68.9313 162.205 68.8106C162.402 68.6898 162.623 68.5987 162.869 68.5371C163.118 68.4732 163.375 68.427 163.64 68.3986C163.96 68.3655 164.219 68.3359 164.418 68.3098C164.617 68.2814 164.761 68.2388 164.851 68.182C164.943 68.1228 164.99 68.0317 164.99 67.9086V67.8873C164.99 67.6197 164.91 67.4126 164.752 67.2658C164.593 67.119 164.365 67.0456 164.066 67.0456C163.751 67.0456 163.502 67.1143 163.317 67.2516C163.135 67.3889 163.012 67.5511 162.948 67.7381L161.747 67.5677C161.842 67.2362 161.998 66.9592 162.216 66.7367C162.434 66.5118 162.7 66.3437 163.015 66.2324C163.33 66.1188 163.678 66.062 164.059 66.062C164.322 66.062 164.583 66.0928 164.844 66.1543C165.104 66.2159 165.342 66.3177 165.558 66.4597C165.773 66.5994 165.946 66.79 166.076 67.0314C166.209 67.2729 166.275 67.5748 166.275 67.937V71.5875H165.039V70.8383H164.997C164.918 70.9898 164.808 71.1318 164.666 71.2644C164.527 71.3946 164.35 71.5 164.137 71.5804C163.927 71.6586 163.679 71.6976 163.395 71.6976ZM163.729 70.753C163.987 70.753 164.211 70.7021 164.4 70.6003C164.589 70.4962 164.735 70.3589 164.837 70.1884C164.941 70.0179 164.993 69.8321 164.993 69.6309V68.9881C164.953 69.0213 164.884 69.052 164.787 69.0804C164.692 69.1089 164.586 69.1337 164.467 69.155C164.349 69.1763 164.232 69.1953 164.116 69.2118C164 69.2284 163.899 69.2426 163.814 69.2545C163.622 69.2805 163.451 69.3231 163.299 69.3823C163.148 69.4415 163.028 69.5243 162.941 69.6309C162.853 69.735 162.809 69.87 162.809 70.0357C162.809 70.2724 162.896 70.4512 163.068 70.5719C163.241 70.6927 163.461 70.753 163.729 70.753Z" fill="black"/>
<path d="M168.853 64.3148V71.5875H167.568V64.3148H168.853Z" fill="black"/>
<path d="M178.689 64.3148V71.5875H177.517L174.09 66.6337H174.03V71.5875H172.712V64.3148H173.891L177.315 69.2722H177.379V64.3148H178.689Z" fill="black"/>
<path d="M182.447 71.6941C181.914 71.6941 181.453 71.5769 181.062 71.3425C180.671 71.1081 180.368 70.7803 180.153 70.3589C179.94 69.9375 179.833 69.445 179.833 68.8816C179.833 68.3181 179.94 67.8245 180.153 67.4008C180.368 66.977 180.671 66.6479 181.062 66.4135C181.453 66.1792 181.914 66.062 182.447 66.062C182.98 66.062 183.441 66.1792 183.832 66.4135C184.222 66.6479 184.524 66.977 184.737 67.4008C184.953 67.8245 185.061 68.3181 185.061 68.8816C185.061 69.445 184.953 69.9375 184.737 70.3589C184.524 70.7803 184.222 71.1081 183.832 71.3425C183.441 71.5769 182.98 71.6941 182.447 71.6941ZM182.454 70.6643C182.743 70.6643 182.984 70.5849 183.178 70.4263C183.373 70.2653 183.517 70.0499 183.612 69.78C183.709 69.5101 183.757 69.2095 183.757 68.878C183.757 68.5442 183.709 68.2424 183.612 67.9725C183.517 67.7002 183.373 67.4836 183.178 67.3226C182.984 67.1616 182.743 67.0812 182.454 67.0812C182.158 67.0812 181.912 67.1616 181.715 67.3226C181.521 67.4836 181.376 67.7002 181.279 67.9725C181.184 68.2424 181.137 68.5442 181.137 68.878C181.137 69.2095 181.184 69.5101 181.279 69.78C181.376 70.0499 181.521 70.2653 181.715 70.4263C181.912 70.5849 182.158 70.6643 182.454 70.6643Z" fill="black"/>
<path d="M188.875 66.133V67.1273H185.74V66.133H188.875ZM186.514 64.8262H187.799V69.9469C187.799 70.1197 187.825 70.2523 187.877 70.3446C187.932 70.4346 188.003 70.4962 188.091 70.5293C188.178 70.5625 188.275 70.579 188.382 70.579C188.462 70.579 188.536 70.5731 188.602 70.5613C188.671 70.5494 188.723 70.5388 188.758 70.5293L188.975 71.5343C188.906 71.558 188.808 71.584 188.68 71.6124C188.555 71.6408 188.401 71.6574 188.218 71.6621C187.896 71.6716 187.606 71.6231 187.348 71.5165C187.09 71.4076 186.886 71.2395 186.734 71.0123C186.585 70.785 186.511 70.5009 186.514 70.16V64.8262Z" fill="black"/>
<path d="M189.95 71.5875V66.133H191.236V71.5875H189.95ZM190.597 65.3589C190.393 65.3589 190.218 65.2914 190.071 65.1564C189.924 65.0191 189.851 64.8546 189.851 64.6628C189.851 64.4687 189.924 64.3042 190.071 64.1692C190.218 64.0319 190.393 63.9633 190.597 63.9633C190.803 63.9633 190.978 64.0319 191.122 64.1692C191.269 64.3042 191.342 64.4687 191.342 64.6628C191.342 64.8546 191.269 65.0191 191.122 65.1564C190.978 65.2914 190.803 65.3589 190.597 65.3589Z" fill="black"/>
<path d="M194.937 71.6941C194.393 71.6941 193.925 71.5745 193.534 71.3354C193.146 71.0963 192.847 70.7661 192.636 70.3446C192.428 69.9209 192.323 69.4332 192.323 68.8816C192.323 68.3276 192.43 67.8387 192.643 67.415C192.856 66.9888 193.157 66.6574 193.545 66.4206C193.936 66.1815 194.397 66.062 194.93 66.062C195.373 66.062 195.765 66.1437 196.105 66.307C196.449 66.468 196.722 66.6964 196.926 66.9924C197.129 67.2859 197.245 67.6292 197.274 68.0222H196.045C195.995 67.7594 195.877 67.5404 195.69 67.3652C195.505 67.1877 195.258 67.0989 194.948 67.0989C194.685 67.0989 194.454 67.1699 194.255 67.312C194.056 67.4517 193.901 67.6529 193.79 67.9157C193.681 68.1785 193.627 68.4933 193.627 68.8603C193.627 69.232 193.681 69.5516 193.79 69.8191C193.899 70.0842 194.052 70.289 194.248 70.4334C194.447 70.5755 194.68 70.6465 194.948 70.6465C195.137 70.6465 195.306 70.611 195.456 70.54C195.607 70.4666 195.734 70.3612 195.836 70.2239C195.937 70.0866 196.007 69.9197 196.045 69.7232H197.274C197.243 70.1091 197.129 70.4512 196.933 70.7495C196.736 71.0454 196.469 71.2774 196.13 71.4455C195.792 71.6112 195.394 71.6941 194.937 71.6941Z" fill="black"/>
<path d="M200.744 71.6941C200.197 71.6941 199.725 71.5804 199.327 71.3532C198.932 71.1235 198.628 70.7992 198.415 70.3802C198.202 69.9588 198.095 69.4628 198.095 68.8922C198.095 68.3312 198.202 67.8387 198.415 67.415C198.63 66.9888 198.931 66.6574 199.317 66.4206C199.702 66.1815 200.156 66.062 200.677 66.062C201.013 66.062 201.33 66.1164 201.628 66.2253C201.929 66.3319 202.194 66.4976 202.424 66.7225C202.656 66.9474 202.838 67.2339 202.971 67.5819C203.103 67.9275 203.17 68.3394 203.17 68.8177V69.2118H198.699V68.3454H201.937C201.935 68.0991 201.882 67.8802 201.778 67.6884C201.673 67.4943 201.528 67.3416 201.341 67.2303C201.156 67.119 200.941 67.0634 200.694 67.0634C200.432 67.0634 200.201 67.1273 200.002 67.2552C199.803 67.3806 199.648 67.5464 199.537 67.7523C199.428 67.9559 199.372 68.1796 199.37 68.4235V69.1799C199.37 69.4971 199.428 69.7694 199.544 69.9966C199.66 70.2215 199.822 70.3944 200.03 70.5151C200.239 70.6335 200.483 70.6927 200.762 70.6927C200.949 70.6927 201.118 70.6666 201.27 70.6145C201.421 70.5601 201.553 70.4808 201.664 70.3766C201.775 70.2724 201.859 70.1434 201.916 69.9895L203.116 70.1245C203.041 70.4417 202.896 70.7187 202.683 70.9554C202.472 71.1898 202.202 71.3721 201.873 71.5023C201.544 71.6302 201.168 71.6941 200.744 71.6941Z" fill="black"/>
<path d="M208.568 67.5748L207.396 67.7026C207.363 67.5842 207.305 67.473 207.222 67.3688C207.142 67.2646 207.033 67.1806 206.896 67.1167C206.758 67.0527 206.59 67.0208 206.391 67.0208C206.124 67.0208 205.899 67.0788 205.717 67.1948C205.537 67.3108 205.448 67.4611 205.45 67.6458C205.448 67.8044 205.506 67.9334 205.624 68.0329C205.745 68.1323 205.944 68.214 206.221 68.2779L207.151 68.4768C207.667 68.588 208.051 68.7644 208.302 69.0059C208.555 69.2473 208.683 69.5634 208.685 69.954C208.683 70.2973 208.582 70.6003 208.384 70.8631C208.187 71.1235 207.914 71.3271 207.563 71.4739C207.213 71.6207 206.81 71.6941 206.356 71.6941C205.688 71.6941 205.151 71.5544 204.744 71.275C204.336 70.9933 204.094 70.6015 204.016 70.0996L205.269 69.9789C205.326 70.2251 205.447 70.4109 205.631 70.5364C205.816 70.6619 206.056 70.7246 206.352 70.7246C206.658 70.7246 206.903 70.6619 207.087 70.5364C207.274 70.4109 207.368 70.2559 207.368 70.0712C207.368 69.915 207.308 69.7859 207.187 69.6841C207.068 69.5823 206.884 69.5042 206.633 69.4498L205.702 69.2545C205.179 69.1455 204.792 68.9621 204.541 68.704C204.29 68.4436 204.166 68.1145 204.168 67.7168C204.166 67.3806 204.257 67.0894 204.442 66.8432C204.629 66.5946 204.888 66.4029 205.219 66.2679C205.553 66.1306 205.938 66.062 206.374 66.062C207.013 66.062 207.516 66.1981 207.883 66.4704C208.252 66.7426 208.481 67.1107 208.568 67.5748Z" fill="black"/>
<path d="M257.114 262.045L260.451 262.05H260.615L263.679 262.054C264.219 261.485 265.15 260.817 266.184 260.084C266.816 259.638 267.492 259.17 268.14 258.688C268.372 258.515 268.599 258.342 268.822 258.169V258.164C268.899 258.096 268.976 258.037 269.058 257.982L269.062 257.978V257.973C269.267 257.81 269.458 257.805 269.63 257.869H269.635C270.03 258.005 270.357 258.465 270.67 258.092C272.114 256.367 271.651 254.631 271.088 252.77C271.006 252.507 270.84 251.028 270.794 250.757C270.744 250.379 270.825 245.572 271.397 242.485C271.479 242.039 271.56 241.579 271.651 241.106L271.756 240.56C271.76 240.547 271.76 240.533 271.765 240.519L271.851 240.064C271.878 239.91 271.906 239.755 271.933 239.6C272.623 235.885 273.4 231.838 273.958 229.087C274.018 228.8 274.077 228.518 274.136 228.236C274.154 228.15 274.172 228.063 274.19 227.977C274.222 227.563 274.245 227.149 274.258 226.739C274.286 225.893 274.281 225.065 274.258 224.271C274.195 221.92 273.94 219.768 273.618 217.9C273.327 216.212 272.56 219.447 272.246 218.269C272.178 218.028 272.105 217.759 272.037 217.491C271.942 217.122 271.847 216.736 271.756 216.363C271.451 215.134 271.202 214.067 271.202 214.067L264.215 213.016C264.224 213.189 264.233 213.389 264.242 213.598C264.419 217.163 264.955 225.49 265.35 232.102C265.35 232.124 265.35 232.147 265.355 232.174C265.577 234.889 265.709 237.386 265.782 239.6C265.786 239.855 265.795 240.11 265.804 240.36C265.804 240.415 265.809 240.469 265.809 240.519V240.56C265.809 240.628 265.813 240.692 265.813 240.751V240.756C265.832 241.356 265.841 241.939 265.841 242.485V242.644C265.872 245.436 265.968 247.731 265.886 249.095C265.827 250.027 265.423 251.108 264.819 252.255C264.705 252.473 264.583 252.692 264.46 252.91C264.387 253.028 264.315 253.147 264.247 253.269C264.21 253.329 264.174 253.388 264.133 253.447C263.343 254.734 262.357 256.057 261.368 257.308C261.296 257.403 261.223 257.494 261.15 257.585C260.392 258.527 259.47 259.284 258.789 260.069C258.13 260.842 257.544 261.516 257.113 262.043L257.114 262.045Z" fill="#F6A49D"/>
<path d="M272.072 137.977L274.329 138.039C274.136 137.064 273.972 135.667 274.31 134.571C274.31 134.571 275.023 136.632 275.96 138.084L283.304 138.286C284.523 134.125 283.245 133.208 282.143 129.932C280.998 126.538 281.201 124.45 281.201 124.45L273.945 126.047C274.349 127.384 274.169 129.307 273.769 130.216C272.081 134.066 272.009 136.849 272.074 137.978L272.072 137.977Z" fill="#2E2F4D"/>
<path d="M264.042 208.809V209.038C264.042 209.038 264.069 209.608 264.109 210.553C264.136 211.07 264.163 211.704 264.189 212.423C264.198 212.617 264.207 212.814 264.216 213.016C264.225 213.192 264.234 213.389 264.243 213.6C264.419 217.163 264.952 225.493 265.352 232.103C265.352 232.126 265.352 232.149 265.356 232.174C265.541 235.248 265.692 237.941 265.77 239.599C265.783 239.882 265.797 240.139 265.806 240.359C265.806 240.413 265.81 240.466 265.81 240.521H271.765L271.85 240.063L271.939 239.6L273.958 229.087C274.018 228.799 274.075 228.517 274.134 228.238C274.152 228.148 274.17 228.062 274.189 227.977C274.79 225.141 275.377 222.308 275.849 220.026C276.375 217.5 276.208 214.916 275.58 212.421C275.521 212.179 275.454 211.941 275.388 211.703C275.379 211.671 275.379 211.652 275.383 211.652V211.648C275.45 211.275 275.531 210.902 275.625 210.529C276.572 206.686 278.767 202.938 280.686 200.043C280.871 199.759 281.063 199.485 281.265 199.23C281.74 198.614 282.185 197.971 282.597 197.31V197.306C282.871 196.866 283.131 196.42 283.374 195.967C283.68 195.408 283.961 194.843 284.226 194.268L284.539 193.577L285.154 188.992C285.266 188.166 285.342 187.338 285.374 186.512C285.428 185.244 285.396 183.981 285.28 182.717L284.58 175.342V175.337L284.208 171.387L284.132 170.574V170.569L284.066 169.832L284.007 169.253L283.984 169.006L283.97 168.885L283.957 168.683L280.173 168.539L278.096 168.458L273.766 168.287L273.506 168.278L271.854 168.214L271.831 168.308V169.437C271.706 169.553 271.589 169.67 271.473 169.791L270.764 172.739L270.567 173.561C270.567 173.561 269.884 176.856 268.961 181.377L268.956 181.395C267.924 186.46 266.592 193.063 265.586 198.317L265.582 198.34V198.344C264.752 202.686 264.137 206.098 264.097 206.956C264.092 206.961 264.097 206.965 264.097 206.965C264.065 207.581 264.047 208.197 264.042 208.808V208.809Z" fill="#615370"/>
<path d="M295.049 141.741C295.049 141.741 296.769 142.335 297.331 144.282C297.891 146.229 300.637 159.454 300.637 159.454L293.231 162.364L290.226 156.304C290.226 156.304 290.264 151.023 291.273 147.689C291.981 145.353 295.051 141.739 295.051 141.739L295.049 141.741Z" fill="white"/>
<path d="M292.415 125.255C292.406 125.448 292.386 125.641 292.356 125.833C292.306 126.08 292.259 126.32 292.23 126.558C292.226 126.563 292.226 126.567 292.226 126.57C291.455 130.082 288.703 132.874 285.162 133.65C284.618 133.776 284.057 133.848 283.48 133.869C281.145 133.952 278.98 133.165 277.303 131.797C275.286 130.158 273.959 127.689 273.863 124.888C273.859 124.737 273.856 124.591 273.863 124.444C273.863 124.444 273.863 124.441 273.863 124.435C273.863 124.23 273.872 124.024 273.892 123.819C273.909 123.539 273.942 123.261 273.992 122.99C274.715 118.727 278.34 115.415 282.826 115.256C287.952 115.076 292.255 119.091 292.439 124.235C292.448 124.579 292.444 124.914 292.414 125.254L292.415 125.255Z" fill="#2E2F4D"/>
<path d="M280.187 151.274C275.581 152.859 276.758 139.825 276.691 139.461C276.865 139.381 277.03 139.301 277.195 139.225C277.256 139.196 277.318 139.169 277.378 139.135C278.01 138.961 278.918 138.639 279.483 138.145C279.755 137.899 279.949 137.613 279.987 137.278C280.016 137.061 279.969 136.174 279.902 135.141C279.789 133.405 279.615 131.264 279.615 131.264L287.181 127.849C287.181 127.849 286.739 128.331 286.573 129.188C286.249 130.857 286.279 135.561 287.071 138.225C287.243 138.808 287.464 139.369 288.047 139.536C288.538 139.677 284.733 149.702 280.185 151.273L280.187 151.274Z" fill="#F6A49D"/>
<path d="M279.618 131.264C279.618 131.264 279.79 133.405 279.902 135.144C280.426 135.303 280.979 135.423 281.546 135.356C285.62 134.882 286.807 127.441 286.807 127.441L279.618 131.264Z" fill="#D47C74"/>
<path d="M284.147 128.508C284.373 129.197 285.754 129.359 287.233 128.872C288.71 128.384 289.647 127.469 289.501 126.742C289.305 125.776 287.894 125.891 286.415 126.378C284.938 126.866 283.922 127.82 284.147 128.508Z" fill="#D47C74"/>
<path d="M287.243 124.156C287.212 124.722 287.166 125.336 287.131 125.948C286.865 130.79 284.161 134.574 280.818 134.389C278.307 134.251 276.381 132.201 275.698 129.128C275.678 129.042 275.66 128.951 275.645 128.86C275.506 128.161 275.432 127.409 275.424 126.619C275.424 126.508 275.424 126.396 275.428 126.281C275.432 126.121 275.438 125.962 275.447 125.803C275.509 124.649 275.648 123.07 275.831 121.974C275.91 121.486 276.402 121.187 276.868 121.342C277.213 121.452 277.627 121.586 278.116 121.731C279.908 122.268 283.013 121.909 285.19 121.954C286.374 121.98 287.308 122.972 287.243 124.155V124.156Z" fill="#F6A49D"/>
<path d="M281.74 130.69C281.74 130.69 279.896 130.069 279.551 130.213L279.206 130.357C279.206 130.357 279.009 130.131 278.847 130.093C278.686 130.055 277.559 130.143 277.559 130.143C277.559 130.143 277.392 130.977 277.874 131.693C277.899 131.732 277.914 131.746 277.937 131.773C278.561 132.516 279.649 132.745 280.508 132.295C280.682 132.204 280.91 132.004 281.032 131.879C281.554 131.339 281.739 130.689 281.739 130.689L281.74 130.69Z" fill="#E96362"/>
<path d="M277.559 130.144C277.559 130.144 279.207 131.177 281.739 130.69C281.739 130.69 280.956 132.242 279.206 132.013C277.715 131.819 277.557 130.144 277.557 130.144H277.559Z" fill="white"/>
<path d="M279.392 128.628L279.085 128.557C278.877 128.508 278.743 128.349 278.794 128.211L279.189 127.178C279.235 127.058 279.407 126.999 279.587 127.042C279.767 127.084 279.898 127.212 279.889 127.339L279.801 128.443C279.789 128.59 279.599 128.675 279.392 128.626V128.628Z" fill="#D47C74"/>
<path d="M283.343 126.08C283.303 126.4 283.082 126.637 282.848 126.607C282.615 126.576 282.458 126.293 282.499 125.971C282.54 125.651 282.761 125.415 282.994 125.445C283.227 125.475 283.384 125.759 283.343 126.08Z" fill="#4F1D30"/>
<path d="M281.742 124.396C281.742 124.396 281.767 124.341 281.834 124.261C281.899 124.18 282.001 124.073 282.146 123.971C282.217 123.918 282.3 123.871 282.393 123.827C282.484 123.783 282.586 123.745 282.694 123.715C282.803 123.689 282.917 123.662 283.036 123.659C283.156 123.645 283.275 123.657 283.396 123.671C283.518 123.681 283.633 123.724 283.748 123.756C283.86 123.797 283.963 123.853 284.063 123.903C284.156 123.963 284.243 124.03 284.323 124.092C284.402 124.156 284.462 124.233 284.521 124.297C284.579 124.362 284.629 124.424 284.664 124.49C284.701 124.55 284.73 124.606 284.754 124.652C284.801 124.743 284.823 124.798 284.823 124.798C284.823 124.798 284.765 124.779 284.674 124.74C284.63 124.72 284.574 124.697 284.518 124.667C284.462 124.635 284.391 124.613 284.32 124.582C284.247 124.555 284.176 124.514 284.094 124.487C284.013 124.461 283.931 124.429 283.848 124.397C283.76 124.377 283.674 124.349 283.586 124.324C283.495 124.314 283.409 124.28 283.316 124.276C283.225 124.264 283.135 124.252 283.044 124.25C282.953 124.241 282.864 124.25 282.774 124.247C282.686 124.253 282.599 124.256 282.514 124.267C282.431 124.276 282.349 124.285 282.273 124.299C282.12 124.32 281.99 124.347 281.895 124.367C281.798 124.388 281.742 124.399 281.742 124.399V124.396Z" fill="#2E2F4D"/>
<path d="M277.696 125.269C277.656 125.589 277.434 125.826 277.201 125.795C276.968 125.765 276.811 125.481 276.852 125.16C276.892 124.84 277.114 124.603 277.347 124.634C277.58 124.664 277.737 124.948 277.696 125.269Z" fill="#4F1D30"/>
<path d="M276.093 123.584C276.093 123.584 276.119 123.53 276.185 123.449C276.249 123.369 276.352 123.261 276.497 123.16C276.569 123.107 276.652 123.06 276.744 123.016C276.835 122.972 276.938 122.934 277.045 122.903C277.154 122.878 277.268 122.85 277.388 122.847C277.507 122.834 277.627 122.846 277.748 122.859C277.869 122.87 277.984 122.912 278.099 122.944C278.211 122.985 278.314 123.041 278.414 123.091C278.508 123.152 278.594 123.219 278.674 123.281C278.753 123.345 278.814 123.421 278.873 123.486C278.93 123.551 278.98 123.613 279.015 123.678C279.053 123.739 279.082 123.795 279.106 123.841C279.153 123.932 279.174 123.986 279.174 123.986C279.174 123.986 279.116 123.968 279.026 123.929C278.982 123.909 278.926 123.886 278.87 123.856C278.814 123.824 278.743 123.801 278.671 123.771C278.599 123.744 278.528 123.703 278.446 123.675C278.364 123.649 278.282 123.616 278.199 123.586C278.111 123.566 278.025 123.537 277.937 123.513C277.846 123.502 277.76 123.469 277.668 123.464C277.577 123.452 277.486 123.44 277.395 123.439C277.304 123.43 277.215 123.439 277.126 123.436C277.038 123.442 276.95 123.445 276.865 123.455C276.782 123.464 276.7 123.474 276.625 123.487C276.472 123.508 276.341 123.536 276.246 123.554C276.149 123.575 276.093 123.586 276.093 123.586V123.584Z" fill="#2E2F4D"/>
<g opacity="0.5">
<path d="M284.461 128.984C284.321 129.696 283.651 130.161 282.963 130.023C282.276 129.885 281.831 129.197 281.97 128.484C282.11 127.773 282.78 127.307 283.468 127.445C284.155 127.583 284.6 128.272 284.461 128.984Z" fill="#D47C74"/>
</g>
<g opacity="0.5">
<path d="M276.968 127.801C276.841 128.454 276.269 128.899 275.645 128.861C275.506 128.162 275.432 127.41 275.424 126.62C275.424 126.509 275.424 126.397 275.428 126.282C275.601 126.232 275.792 126.226 275.975 126.262C276.662 126.4 277.107 127.089 276.97 127.801H276.968Z" fill="#D47C74"/>
</g>
<path d="M287.301 126.102C287.301 126.102 286.456 126.464 285.742 125.906C285.027 125.349 284.576 122.881 283.079 122.492C281.581 122.104 281.228 122.083 278.475 122.4C275.721 122.715 275.436 122.192 275.436 122.192C275.436 122.192 276.375 120.289 276.729 120.056C277.395 119.616 279.31 119.513 281.076 119.535C283.459 119.566 285.763 120.497 287.443 122.188C287.77 122.517 287.991 122.797 287.997 122.958L287.299 126.102H287.301Z" fill="#2E2F4D"/>
<path d="M283.139 262.045L286.103 262.05H286.267L289.331 262.054H289.713C290.258 261.486 291.184 260.817 292.218 260.084C292.881 259.616 293.594 259.12 294.27 258.615C294.469 258.469 294.665 258.319 294.856 258.169C294.937 258.105 295.01 258.037 295.092 257.983V257.973C295.173 257.91 295.273 257.814 295.382 257.696C296.177 256.841 297.506 254.75 297.126 253.853C296.999 253.562 296.886 253.248 296.786 252.916C296.772 252.866 296.569 250.867 296.569 250.643C296.569 249.885 296.677 245.895 297.063 242.485C297.099 242.162 297.14 241.83 297.176 241.488C297.213 241.174 297.249 240.851 297.285 240.519C297.304 240.342 297.326 240.16 297.344 239.983C297.358 239.855 297.367 239.723 297.381 239.6C297.394 239.468 297.408 239.337 297.422 239.209C297.476 238.722 297.526 238.227 297.581 237.722C297.631 237.258 297.681 236.78 297.726 236.302C297.767 235.829 297.812 235.347 297.862 234.86C297.867 234.819 297.871 234.778 297.876 234.737C297.908 234.36 297.944 233.982 297.98 233.6C298.008 233.327 298.035 233.054 298.058 232.776C298.089 232.408 298.121 232.035 298.148 231.666C298.153 231.639 298.157 231.612 298.157 231.58C298.176 231.375 298.194 231.171 298.207 230.961C298.23 230.747 298.248 230.525 298.262 230.311C298.28 230.092 298.298 229.879 298.316 229.665C298.335 229.446 298.353 229.233 298.366 229.014C298.416 228.368 298.466 227.731 298.507 227.099C298.521 226.89 298.53 226.68 298.543 226.471C298.58 225.93 298.612 225.407 298.643 224.888C298.652 224.661 298.666 224.433 298.675 224.215C298.68 224.156 298.684 224.096 298.684 224.042C298.693 223.846 298.702 223.651 298.712 223.46C298.716 223.414 298.716 223.369 298.716 223.323C298.725 223.155 298.734 222.991 298.739 222.827C298.752 222.468 298.766 222.122 298.775 221.781C298.925 216.464 298.257 213.759 297.935 212.49C297.93 212.462 297.921 212.435 297.912 212.412C297.785 211.926 297.631 211.466 297.431 211.043C297.372 210.92 297.317 210.797 297.254 210.684C297.172 210.538 297.086 210.406 296.995 210.274C296.836 210.033 296.654 209.819 296.454 209.628L293.799 208.482C291.043 207.294 287.814 208.441 286.489 211.101C286.444 211.182 286.403 211.273 286.362 211.364C286.285 211.537 286.24 211.669 286.217 211.769V211.774C286.212 211.806 286.208 211.833 286.208 211.856C286.208 211.865 286.212 211.892 286.217 211.933C286.226 212.02 286.244 212.183 286.276 212.411C286.276 212.434 286.281 212.461 286.285 212.488C286.762 216.149 290.489 234.331 290.639 235.717C290.666 235.962 290.694 236.213 290.716 236.458C290.83 237.537 290.934 238.586 291.039 239.591C291.071 239.905 291.098 240.21 291.13 240.51C291.157 240.792 291.184 241.065 291.207 241.334C291.248 241.725 291.28 242.102 291.316 242.476C291.316 242.489 291.32 242.507 291.32 242.521C291.348 242.794 291.37 243.067 291.393 243.326C291.457 243.99 291.511 244.614 291.561 245.182C291.593 245.615 291.625 246.015 291.652 246.383V246.388C291.743 247.639 291.95 248.559 291.928 248.973C291.864 249.947 291.428 251.089 290.769 252.297C290.706 252.425 290.633 252.548 290.56 252.675C290.497 252.793 290.424 252.916 290.352 253.034C290.347 253.039 290.347 253.048 290.342 253.053C290.011 253.603 289.643 254.163 289.257 254.722C288.635 255.614 287.958 256.51 287.268 257.364C287.245 257.396 287.218 257.432 287.19 257.464C286.427 258.406 285.499 259.276 284.818 260.062C284.159 260.835 283.574 261.508 283.138 262.036L283.139 262.045Z" fill="#F6A49D"/>
<path d="M277.604 179.418C277.81 180.946 278.282 183.05 278.923 185.471C279.56 187.876 280.358 190.6 281.224 193.395C281.439 194.082 281.651 194.77 281.875 195.462C281.929 195.628 281.982 195.798 282.032 195.965C282.243 196.631 282.446 197.295 282.629 197.956C283.611 201.359 284.334 204.662 285.003 207.44C285.411 209.108 285.798 210.582 286.218 211.777V211.781C286.223 211.795 286.228 211.809 286.232 211.822C286.299 212.015 287.516 212.241 287.578 212.42C287.685 212.731 287.788 213.017 287.879 213.278C288.261 214.356 288.485 214.981 288.485 214.981H288.489L293.802 213.278L296.489 212.42C296.489 212.42 297.579 212.873 297.556 212.608C297.552 212.546 297.543 212.482 297.543 212.42C297.502 212.02 297.467 211.562 297.431 211.049C297.063 205.503 296.745 193.875 296.519 186.927C296.519 186.806 296.515 186.689 296.51 186.577C296.371 181.899 294.312 177.695 292.121 174.523C292.121 174.518 292.117 174.514 292.112 174.509C291.269 173.291 290.412 172.221 289.64 171.34C288.038 169.516 286.795 168.468 286.795 168.468L282.639 169.003L277.357 169.678C277.357 169.678 277.303 170.348 277.268 171.431V171.444C277.259 171.799 277.245 172.204 277.241 172.644C277.209 174.486 277.268 176.972 277.6 179.418H277.604Z" fill="#615370"/>
<path d="M271.965 140.123C271.965 140.123 270.163 140.379 269.243 142.183C268.322 143.988 262.692 157.367 262.692 157.367L269.828 160.717L273.93 155.341C273.93 155.341 274.897 150.149 274.54 146.684C274.29 144.255 271.963 140.123 271.963 140.123H271.965Z" fill="white"/>
<path d="M268.319 155.185C268.592 156.227 269.291 156.677 269.336 156.796L269.5 157.592L271.071 165.172C271.071 165.172 271.076 165.186 271.076 165.191L271.426 166.815V166.892H288.797V166.815C290.187 162.144 293.791 148.514 294.182 147.047C294.205 146.96 294.214 146.919 294.214 146.919L294.904 144.164C294.927 143.854 294.949 143.568 294.968 143.309C295.017 142.581 295.04 142.067 295.049 141.816C295.054 141.785 295.054 141.762 295.054 141.734L288.208 139.334L287.377 139.043C287.377 139.043 287.355 139.076 287.298 139.132C284.87 141.556 281.978 141.325 279.331 139.143C278.947 138.826 278.703 138.629 278.709 138.647L271.913 140.124L269.081 146.954C268.935 147.295 267.509 152.039 268.322 155.185H268.319Z" fill="white"/>
<path d="M269.106 156.177C269.124 156.213 269.138 156.248 269.152 156.285C269.161 156.339 269.179 156.392 269.197 156.442C269.243 156.559 269.291 156.671 269.336 156.793L269.503 157.593C270.853 157.63 272.204 157.387 273.46 156.884L275.044 156.25L273.07 156.492C271.742 156.65 270.396 156.547 269.108 156.179L269.106 156.177Z" fill="#DAECF7"/>
<path d="M280.496 156.28C280.496 156.28 280.537 156.28 280.612 156.279C280.686 156.279 280.795 156.28 280.933 156.282C281.071 156.285 281.239 156.292 281.428 156.304C281.614 156.306 281.819 156.316 282.04 156.327C282.265 156.327 282.503 156.348 282.758 156.348C282.885 156.348 283.012 156.356 283.144 156.359C283.275 156.356 283.409 156.359 283.545 156.36C283.816 156.365 284.096 156.357 284.377 156.357C284.518 156.354 284.661 156.347 284.804 156.348C284.947 156.342 285.091 156.335 285.233 156.327C285.377 156.327 285.519 156.313 285.661 156.304C285.804 156.292 285.946 156.292 286.087 156.276C286.227 156.26 286.368 156.253 286.506 156.242C286.644 156.227 286.78 156.21 286.916 156.201C287.053 156.195 287.183 156.168 287.314 156.157C287.445 156.144 287.575 156.131 287.699 156.113C287.949 156.08 288.19 156.057 288.411 156.021C288.635 155.995 288.841 155.966 289.024 155.939C289.208 155.915 289.373 155.896 289.507 155.875C289.778 155.84 289.943 155.83 289.943 155.83C289.943 155.83 289.831 155.945 289.617 156.127C289.511 156.221 289.376 156.321 289.216 156.43C289.136 156.486 289.049 156.542 288.959 156.603C288.865 156.658 288.765 156.714 288.662 156.773C288.454 156.893 288.218 156.999 287.965 157.108C287.713 157.211 287.439 157.31 287.151 157.392C286.862 157.474 286.561 157.546 286.249 157.593C286.093 157.622 285.935 157.643 285.776 157.657C285.617 157.671 285.458 157.692 285.298 157.695C285.137 157.698 284.977 157.701 284.818 157.704C284.659 157.703 284.5 157.69 284.343 157.683C284.185 157.68 284.029 157.654 283.876 157.636C283.723 157.618 283.572 157.599 283.425 157.566C283.278 157.536 283.133 157.51 282.994 157.475C282.854 157.436 282.718 157.401 282.588 157.36C282.325 157.285 282.084 157.181 281.863 157.096C281.642 156.997 281.443 156.897 281.272 156.806C281.109 156.709 280.968 156.62 280.853 156.542C280.736 156.468 280.647 156.395 280.588 156.351C280.529 156.304 280.497 156.279 280.497 156.279L280.496 156.28Z" fill="#DAECF7"/>
<path d="M286.209 211.865C286.209 211.874 286.214 211.901 286.218 211.941C286.228 212.03 286.246 212.192 286.277 212.421C286.277 212.444 286.282 212.471 286.287 212.497C286.762 216.156 290.491 234.341 290.639 235.726C290.666 235.973 290.694 236.22 290.715 236.467C290.831 237.546 290.934 238.598 291.037 239.6C291.069 239.914 291.096 240.221 291.127 240.522H297.284C297.302 240.342 297.325 240.163 297.343 239.983C297.357 239.857 297.37 239.726 297.384 239.6C297.397 239.47 297.411 239.34 297.425 239.209C297.479 238.724 297.528 238.23 297.582 237.722C297.632 237.259 297.681 236.783 297.726 236.305C297.771 235.829 297.815 235.348 297.865 234.863C297.87 234.822 297.874 234.783 297.879 234.742C297.911 234.364 297.945 233.987 297.982 233.604C298.009 233.33 298.036 233.055 298.058 232.783C298.089 232.414 298.12 232.041 298.151 231.672C298.156 231.645 298.16 231.615 298.16 231.583C298.179 231.381 298.197 231.174 298.21 230.967C298.233 230.752 298.251 230.531 298.265 230.315C298.283 230.1 298.301 229.883 298.319 229.668C298.338 229.452 298.356 229.236 298.369 229.02C298.419 228.373 298.468 227.734 298.509 227.105C298.522 226.894 298.536 226.686 298.55 226.476C298.586 225.936 298.616 225.411 298.648 224.894C298.657 224.665 298.671 224.441 298.68 224.219C298.684 224.16 298.689 224.102 298.689 224.048C298.698 223.851 298.707 223.657 298.716 223.464C298.721 223.419 298.721 223.375 298.721 223.329C298.73 223.162 298.739 222.997 298.743 222.835C298.757 222.475 298.771 222.13 298.78 221.787C298.933 216.47 298.263 213.763 297.941 212.497C297.936 212.47 297.927 212.443 297.918 212.421C297.793 211.932 297.635 211.474 297.438 211.051C297.379 210.929 297.322 210.808 297.258 210.691L286.494 211.11C286.449 211.195 286.409 211.286 286.368 211.375C286.293 211.546 286.247 211.681 286.224 211.78V211.785C286.22 211.816 286.215 211.844 286.215 211.865H286.209Z" fill="#615370"/>
<path d="M288.942 166.513H271.311V170.075H288.942V166.513Z" fill="#2F426B"/>
<path d="M287.693 169.809L272.199 169.866L272.201 170.321L287.694 170.264L287.693 169.809Z" fill="#25335A"/>
<path d="M282.25 196.578L282.692 196.476L279.721 183.652L277.232 182.065L275.545 171.102L275.097 171.171L276.815 182.338L279.319 183.935L282.25 196.578Z" fill="#463B54"/>
<path d="M277.886 171.72L277.438 171.794L279.178 182.405L279.626 182.331L277.886 171.72Z" fill="#463B54"/>
<path d="M292.259 177.806L292.282 177.352C292.226 177.349 286.642 176.981 284.344 170.498L283.916 170.65C286.317 177.428 292.199 177.804 292.258 177.806H292.259Z" fill="#463B54"/>
<path d="M271.218 176.282C271.305 176.259 273.348 175.663 273.504 171.751L273.05 171.733C272.908 175.284 271.171 175.822 271.097 175.842L271.217 176.28L271.218 176.282Z" fill="#463B54"/>
<path d="M269.688 156.947L269.706 156.491C269.689 156.491 269.23 156.456 268.775 155.925C268.257 155.323 267.875 154.104 268.119 151.244C268.286 149.302 270.631 142.447 270.657 142.379L270.23 142.218C270.124 142.499 267.836 149.2 267.665 151.205C267.456 153.646 267.597 155.276 268.446 156.244C269.034 156.911 269.659 156.944 269.685 156.946L269.688 156.947Z" fill="#DAECF7"/>
<path d="M293.79 145.082L291.322 156.262L291.767 156.361L294.235 145.18L293.79 145.082Z" fill="#DAECF7"/>
<path d="M250.745 170.556C250.745 170.556 250.12 171.067 249.196 171.72C247.76 172.75 245.596 174.135 243.984 174.491C241.345 175.072 237.481 171.135 237.481 171.135C237.481 171.135 242.824 169.525 242.824 169.332C242.824 169.139 240.638 168.879 240.638 168.879C237.675 168.751 237.354 167.397 237.354 167.397C237.354 167.397 241.024 167.524 243.922 166.944C245.301 166.669 246.645 166.669 247.681 166.746C248.824 166.831 249.585 167.01 249.585 167.01L250.745 170.556Z" fill="#F6A49D"/>
<path d="M250.745 170.556C250.745 170.556 250.12 171.067 249.196 171.72L247.682 166.748C248.825 166.833 249.587 167.012 249.587 167.012L250.747 170.557L250.745 170.556Z" fill="#D47C74"/>
<path d="M270.517 159.662C270.517 159.662 267.458 164.733 266 165.203C263.281 166.081 250.297 172.04 250.297 172.04L248.43 165.912L263.88 156.245L270.519 159.662H270.517Z" fill="white"/>
<path d="M284.415 138.404L286.099 138.451C285.982 138.069 285.872 137.56 285.795 136.877C285.795 136.877 286.444 137.752 287.146 138.48L292.044 138.615C293.502 136.705 293.743 133.82 293.743 133.82C294.515 136.339 294.147 137.865 293.747 138.662L295.855 138.72C297.07 134.559 294.513 132.343 293.408 129.069C292.267 125.676 292.377 123.458 292.377 123.458L289.601 128.058L286.96 129.336C283.499 134.296 283.969 137.17 284.415 138.406V138.404Z" fill="#2E2F4D"/>
<path d="M259.951 197.947C259.638 198.311 259.299 198.655 258.936 198.984C258.889 199.031 258.843 199.074 258.793 199.116L256.595 201.028L231.335 171.922L233.538 170.01C233.585 169.967 233.634 169.925 233.684 169.885C234.06 169.568 234.449 169.282 234.852 169.023C239.086 166.267 244.635 166.581 248.526 169.758C249.043 170.172 249.531 170.644 249.979 171.159L259.947 182.645C260.395 183.163 260.793 183.712 261.132 184.281C263.729 188.585 263.268 194.133 259.954 197.945L259.951 197.947Z" fill="#F8CD9E"/>
<path d="M259.951 197.947C259.638 198.311 259.299 198.655 258.936 198.984C258.889 199.031 258.843 199.074 258.793 199.116L256.595 201.028L231.335 171.922L233.538 170.01C233.585 169.967 233.634 169.925 233.684 169.885C234.06 169.568 234.449 169.282 234.852 169.023L259.953 197.947H259.951Z" fill="#FB9D7E"/>
<path d="M288.554 140.818L248.458 175.73L255.205 183.503L295.3 148.591L288.554 140.818Z" fill="#F8CD9E"/>
<path d="M267.459 215.351L264.835 217.635L263.367 218.916L214.597 162.717L216.065 161.44L218.692 159.154C220.477 157.602 223.185 157.792 224.734 159.58L267.883 209.297C269.436 211.09 269.243 213.798 267.458 215.354L267.459 215.351Z" fill="#F8CD9E"/>
<path d="M264.835 217.633L263.367 218.915L214.598 162.716L216.065 161.439L264.835 217.633Z" fill="#FB9D7E"/>
<path d="M264.059 229.255L257.915 234.605L198.326 165.94L204.47 160.59C207.148 158.259 211.208 158.543 213.537 161.225L264.693 220.175C267.023 222.86 266.737 226.925 264.059 229.257V229.255Z" fill="#F8CD9E"/>
<path d="M300.431 154.184C295.074 158.849 288.421 160.512 283.459 158.914C281.73 158.361 280.208 157.411 279.015 156.057L278.967 156.003C277.766 154.62 277.023 152.958 276.712 151.142C275.827 146 278.397 139.634 283.755 134.968C291.006 128.657 300.613 127.842 305.217 133.147L305.265 133.201C309.807 138.521 307.656 147.894 300.431 154.184Z" fill="#F8CD9E"/>
<g opacity="0.6">
<path d="M294.51 143.239C291.732 144.807 288.654 144.939 286.614 143.786C285.902 143.386 285.318 142.831 284.915 142.127L284.898 142.098C284.494 141.381 284.317 140.583 284.344 139.755C284.418 137.413 286.123 134.842 288.901 133.274C292.66 131.151 296.963 131.662 298.51 134.413L298.527 134.442C300.047 137.194 298.254 141.125 294.509 143.239H294.51Z" fill="white"/>
</g>
<path d="M261.247 184.366L261.129 184.281L257.388 181.612L255.774 180.458L257.208 179.494L268.761 171.71C260.333 179.333 261.247 184.364 261.247 184.364V184.366Z" fill="#F8CD9E"/>
<path d="M248.459 169.631C248.459 169.631 253.307 171.238 262.016 163.94L251.56 175.602L248.459 169.631Z" fill="#F8CD9E"/>
<g style="mix-blend-mode:multiply" opacity="0.5">
<path d="M264.059 229.255L257.915 234.605L228.169 200.328L305.267 133.203C309.809 138.523 307.657 147.896 300.433 154.186C295.075 158.85 288.423 160.514 283.46 158.916L268.763 171.711C260.334 179.334 261.249 184.366 261.249 184.366L261.131 184.281C263.976 188.991 263.153 195.195 258.937 198.984L267.885 209.294C269.439 211.085 269.247 213.795 267.462 215.35L263.502 218.798L264.696 220.175C267.026 222.86 266.74 226.924 264.062 229.257L264.059 229.255Z" fill="#FB9D7E"/>
</g>
<path d="M269.342 174.095C269.342 174.095 268.592 174.697 268.227 174.109C267.889 173.567 268.501 172.656 268.501 172.656C268.501 172.656 268.039 172.294 268.343 171.478C268.666 170.607 271.621 167.629 271.544 166.868C271.467 166.108 270.308 167.141 269.616 167.33C268.925 167.518 268 167.264 268 167.264C268 167.264 270.157 165.549 272.096 164.761C273.698 164.112 276.917 163.554 277.989 163.38C278.216 163.344 278.346 163.322 278.346 163.322L279.407 167.33C279.407 167.33 279.197 167.435 278.885 167.612C278.204 168.002 277.036 168.738 276.511 169.484C275.746 170.571 272.688 174.122 272.251 174.248C271.815 174.376 271.274 174.128 271.274 174.128C271.274 174.128 270.793 174.596 270.345 174.658C269.918 174.717 269.341 174.094 269.341 174.094L269.342 174.095Z" fill="#F6A49D"/>
<path d="M293.881 157.96C293.717 157.954 293.547 157.956 293.384 157.959C293.083 157.974 292.78 157.998 292.477 158.05C292.211 158.089 291.861 158.171 291.451 158.286C290.335 158.588 288.762 159.122 287.072 159.725C282.874 161.231 277.813 163.413 277.813 163.413L279.126 167.483L279.13 167.488C280.278 167.426 283.401 167.238 286.78 166.897C288.603 166.71 290.501 166.478 292.209 166.196C293.41 165.967 294.606 165.709 295.794 165.429C295.844 165.417 295.896 165.401 295.947 165.385C296.631 165.175 297.178 164.946 297.535 164.701C300.496 162.657 299.267 161.057 299.267 161.057L298.274 159.002C298.274 159.002 296.206 158.022 293.882 157.963L293.881 157.96Z" fill="#D47C74"/>
<path d="M300.734 161.178C300.342 163.345 298.698 165.072 296.554 165.559C294.488 166.029 292.406 166.434 290.312 166.774L280.621 168.345L278.697 162.384L288.386 159.066C289.717 158.609 293.04 157.684 296.044 156.868C298.715 156.144 301.228 158.453 300.734 161.18V161.178Z" fill="white"/>
<path d="M285.644 159.745L281.442 161.051L281.614 161.605L285.815 160.299L285.644 159.745Z" fill="#DAECF7"/>
<g clip-path="url(#clip2_4357_30745)">
<path d="M320.211 26.1861L319.634 27.9186L319.666 27.9275L320.244 26.195L320.211 26.1861Z" fill="white"/>
<path d="M320.244 26.1865L320.212 26.1964L320.863 27.9289L320.895 27.919L320.244 26.1865Z" fill="white"/>
<path d="M320.245 26.1912H320.211V27.9237H320.245V26.1912Z" fill="white"/>
<path d="M320.995 27.8929C320.995 28.1285 320.668 28.3196 320.265 28.3196C319.861 28.3196 319.534 28.1285 319.534 27.8929H320.995Z" fill="white"/>
<path opacity="0.11" d="M319.535 27.9161C319.534 27.9047 319.534 27.9047 319.534 27.8929H320.995C320.989 28.0294 320.921 28.0861 320.869 28.1327L319.535 27.9164V27.9161Z" fill="white"/>
<path d="M320.228 26.2068C320.184 26.2068 320.149 26.1747 320.149 26.1349C320.149 26.0952 320.184 26.063 320.228 26.063C320.272 26.063 320.307 26.0952 320.307 26.1349C320.307 26.1747 320.272 26.2068 320.228 26.2068ZM320.228 26.0938C320.203 26.0938 320.183 26.1121 320.183 26.1349C320.183 26.1577 320.203 26.176 320.228 26.176C320.253 26.176 320.273 26.1577 320.273 26.1349C320.273 26.1121 320.253 26.0938 320.228 26.0938Z" fill="white"/>
<path d="M320.701 25.9017C320.694 25.8875 320.678 25.8654 320.661 25.8675C320.649 25.8689 320.64 25.8779 320.635 25.8875C320.63 25.8972 320.628 25.9079 320.623 25.9179C320.615 25.9373 320.598 25.9539 320.577 25.9629C320.576 25.9635 320.574 25.9642 320.573 25.9649C320.435 25.9867 320.015 26.0416 319.306 25.8675C319.207 25.8433 319.076 25.8109 318.871 25.7784C318.732 25.7563 318.444 25.7169 318.075 25.7138C318.034 25.7134 318.001 25.7138 317.979 25.7138C317.979 25.7708 317.979 25.8278 317.979 25.8851C318.204 25.8858 318.543 25.8979 318.954 25.9566C319.125 25.9812 319.214 25.9946 319.329 26.0185C320.017 26.1632 320.582 26.0665 320.582 26.0665C320.598 26.0648 320.624 26.0596 320.65 26.0423C320.698 26.0091 320.722 25.9452 320.701 25.9021L320.701 25.9017Z" fill="white"/>
<path d="M315.751 26.1873L315.718 26.1962L316.296 27.9288L316.328 27.9199L315.751 26.1873Z" fill="white"/>
<path d="M315.719 26.1859L315.068 27.9185L315.1 27.9284L315.751 26.1959L315.719 26.1859Z" fill="white"/>
<path d="M315.752 26.1912H315.718V27.9237H315.752V26.1912Z" fill="white"/>
<path d="M314.968 27.8929C314.968 28.1285 315.295 28.3196 315.698 28.3196C316.101 28.3196 316.428 28.1285 316.428 27.8929H314.968Z" fill="white"/>
<path opacity="0.11" d="M316.428 27.9161C316.429 27.9047 316.428 27.9047 316.428 27.8929H314.968C314.974 28.0294 315.042 28.0861 315.094 28.1327L316.428 27.9164V27.9161Z" fill="white"/>
<path d="M315.735 26.2068C315.779 26.2068 315.814 26.1747 315.814 26.1349C315.814 26.0952 315.779 26.063 315.735 26.063C315.691 26.063 315.656 26.0952 315.656 26.1349C315.656 26.1747 315.691 26.2068 315.735 26.2068ZM315.735 26.0938C315.76 26.0938 315.78 26.1121 315.78 26.1349C315.78 26.1577 315.76 26.176 315.735 26.176C315.71 26.176 315.69 26.1577 315.69 26.1349C315.69 26.1121 315.71 26.0938 315.735 26.0938Z" fill="white"/>
<path d="M315.262 25.9017C315.267 25.8844 315.282 25.8651 315.302 25.8675C315.313 25.8689 315.323 25.8779 315.328 25.8875C315.332 25.8972 315.335 25.9079 315.339 25.9179C315.348 25.9373 315.365 25.9539 315.385 25.9629C315.387 25.9635 315.388 25.9642 315.39 25.9649C315.528 25.9867 315.948 26.0416 316.657 25.8675C316.756 25.8433 316.886 25.8109 317.092 25.7784C317.231 25.7563 317.519 25.7169 317.888 25.7138C317.928 25.7134 317.961 25.7138 317.983 25.7138C317.982 25.7708 317.98 25.8278 317.979 25.8851C317.674 25.8793 317.27 25.8958 316.799 25.986C316.709 26.0033 316.709 26.0029 316.635 26.0185C315.946 26.1632 315.381 26.0665 315.381 26.0665C315.381 26.0665 315.333 26.0551 315.313 26.0423C315.307 26.0378 315.3 26.0326 315.295 26.0271C315.261 25.9943 315.249 25.9452 315.262 25.9021L315.262 25.9017Z" fill="white"/>
</g>
<rect x="312" y="20" width="16" height="16" rx="2" fill="#EABF4E"/>
<path d="M315.198 25.6305C315.253 25.6681 315.301 25.6992 315.347 25.7331C315.752 26.0329 316.213 26.1352 316.725 26.0461C316.773 26.0378 316.819 26.0205 316.864 26.0029C316.902 25.988 316.945 25.9697 316.942 25.9244C316.939 25.8802 316.898 25.8623 316.856 25.8529C316.747 25.8284 316.636 25.8053 316.526 25.7828C316.158 25.7075 315.791 25.6305 315.451 25.4712C314.929 25.2266 314.588 24.8514 314.437 24.335C314.42 24.278 314.413 24.2206 314.421 24.1619C314.431 24.0866 314.473 24.0666 314.545 24.1042C314.647 24.1578 314.729 24.2348 314.818 24.3029C315.327 24.6915 315.91 24.9188 316.576 24.9578C316.622 24.9606 316.701 24.9914 316.71 24.9288C316.717 24.8805 316.634 24.8874 316.591 24.8753C315.986 24.7064 315.399 24.4998 314.891 24.1484C314.283 23.729 313.96 23.1808 314.015 22.4726C314.023 22.3662 314.038 22.2608 314.084 22.1617C314.161 21.9941 314.301 21.9544 314.464 22.0605C314.635 22.1707 314.767 22.3171 314.901 22.4612C315.299 22.891 315.701 23.3176 316.198 23.66C316.807 24.08 317.484 24.3716 318.227 24.5357C318.402 24.5744 318.579 24.6107 318.757 24.6397C318.852 24.6549 318.865 24.6891 318.834 24.7654C318.71 25.066 318.669 25.3765 318.714 25.6951C318.744 25.9117 318.881 26.0599 319.059 26.0785C319.23 26.0965 319.408 25.9732 319.477 25.7614C319.545 25.5517 319.583 25.3341 319.646 25.1226C319.75 24.7661 319.891 24.6884 320.294 24.7585C320.394 24.7758 320.489 24.8103 320.586 24.8394C320.618 24.849 320.657 24.8611 320.664 24.8932C320.69 25 320.787 25.0231 320.88 25.0518C320.949 25.0732 321.013 25.1033 321.034 25.1755C321.042 25.2031 321.037 25.2311 321.01 25.2498C320.982 25.2681 320.961 25.2511 320.939 25.2366C320.792 25.1361 320.636 25.1966 320.484 25.2204C320.452 25.2252 320.437 25.2567 320.437 25.2853C320.44 25.5092 320.452 25.7331 320.609 25.9213C320.7 26.0295 320.814 26.11 320.977 26.0727C321.14 26.0353 321.237 25.932 321.269 25.788C321.347 25.4432 321.296 25.1071 321.171 24.7772C321.127 24.6597 321.129 24.6583 321.27 24.6369C322.166 24.5001 322.99 24.2041 323.726 23.7163C324.196 23.405 324.583 23.0167 324.957 22.616C325.095 22.4671 325.231 22.3151 325.385 22.179C325.423 22.1455 325.461 22.1119 325.503 22.0833C325.703 21.9461 325.872 21.999 325.938 22.2177C326.01 22.4571 326 22.6989 325.961 22.9414C325.88 23.434 325.581 23.8057 325.167 24.1097C324.649 24.4891 324.041 24.6994 323.415 24.8767C323.404 24.8798 323.392 24.8801 323.382 24.885C323.349 24.9008 323.282 24.8901 323.292 24.9409C323.299 24.9779 323.357 24.9661 323.393 24.9641C324.014 24.9319 324.568 24.7381 325.056 24.3875C325.168 24.3067 325.278 24.2231 325.391 24.1429C325.431 24.1146 325.471 24.0669 325.529 24.0983C325.586 24.1298 325.576 24.1882 325.567 24.2386C325.487 24.6666 325.253 25.0097 324.877 25.2767C324.44 25.5873 323.919 25.6996 323.393 25.7984C323.312 25.8136 323.23 25.8281 323.15 25.8474C323.103 25.8588 323.048 25.8744 323.045 25.9279C323.043 25.9814 323.099 26.0011 323.143 26.0157C323.342 26.0803 323.548 26.0944 323.756 26.0754C324.113 26.0426 324.423 25.9134 324.695 25.703C324.721 25.683 324.748 25.6346 324.785 25.665C324.815 25.6895 324.779 25.7289 324.762 25.7576C324.345 26.4665 323.565 26.9356 322.621 26.8617C322.369 26.842 322.118 26.8137 321.866 26.8023C321.355 26.7791 321.016 26.9722 320.815 27.3992C320.776 27.4828 320.727 27.5039 320.634 27.4921C320.199 27.4365 319.762 27.4341 319.326 27.4953C319.249 27.506 319.209 27.4797 319.178 27.4165C318.944 26.9425 318.622 26.7681 318.052 26.7998C317.77 26.8157 317.491 26.8644 317.207 26.8648C316.289 26.8655 315.657 26.4478 315.217 25.7479C315.2 25.7199 315.175 25.6899 315.197 25.6318L315.198 25.6305Z" fill="#151513"/>
<path d="M319.999 29.6304C319.953 29.7157 319.915 29.7972 319.867 29.8729C319.779 30.0111 319.639 30.0881 319.471 30.1251C319.436 30.133 319.394 30.1434 319.368 30.1071C319.345 30.0739 319.376 30.0494 319.396 30.0256C319.425 29.99 319.455 29.9548 319.487 29.9206C319.718 29.6677 319.776 29.3778 319.709 29.0617C319.705 29.0417 319.699 29.0213 319.691 29.0023C319.681 28.9778 319.674 28.9426 319.636 28.9481C319.605 28.9526 319.608 28.9847 319.604 29.0079C319.585 29.1229 319.574 29.2397 319.544 29.3526C319.48 29.6007 319.326 29.7862 319.055 29.8767C319.023 29.8871 318.989 29.8912 318.955 29.8957C318.926 29.8995 318.893 29.9071 318.875 29.876C318.859 29.8494 318.882 29.8301 318.899 29.8131C318.939 29.7724 318.982 29.7333 319.023 29.6943C319.261 29.4708 319.391 29.2044 319.406 28.8935C319.407 28.8631 319.404 28.832 319.399 28.8013C319.396 28.7771 319.387 28.7522 319.354 28.7501C319.328 28.7484 319.312 28.7653 319.302 28.7843C319.277 28.8337 319.25 28.8835 319.229 28.9346C319.165 29.0863 319.081 29.2272 318.975 29.3575C318.875 29.4798 318.74 29.5371 318.573 29.5281C318.521 29.5254 318.463 29.5129 318.442 29.4621C318.418 29.4072 318.465 29.3706 318.504 29.3409C318.685 29.2062 318.872 29.078 319.005 28.899C319.179 28.6659 319.31 28.4182 319.306 28.1276C319.305 28.0575 319.336 28.0216 319.415 28.0105C319.81 27.9552 320.204 27.9646 320.598 28.0105C320.658 28.0174 320.695 28.0457 320.696 28.1045C320.702 28.6192 321.001 28.9851 321.425 29.2873C321.449 29.3043 321.473 29.3205 321.495 29.3395C321.533 29.3723 321.585 29.4038 321.564 29.459C321.541 29.5205 321.475 29.5288 321.413 29.5295C321.266 29.5312 321.143 29.4842 321.047 29.3775C320.917 29.2321 320.831 29.0652 320.755 28.8928C320.745 28.8707 320.736 28.8479 320.724 28.8268C320.705 28.7947 320.694 28.7436 320.645 28.7498C320.585 28.7574 320.598 28.8141 320.598 28.8514C320.597 29.1288 320.692 29.3765 320.886 29.591C320.953 29.6649 321.026 29.7337 321.097 29.8052C321.117 29.8252 321.146 29.8453 321.131 29.8753C321.112 29.9112 321.073 29.9002 321.04 29.8964C320.775 29.8646 320.52 29.6314 320.456 29.3568C320.431 29.2466 320.419 29.1336 320.399 29.022C320.394 28.9944 320.408 28.9512 320.359 28.9502C320.322 28.9495 320.319 28.9875 320.311 29.0123C320.227 29.2756 320.264 29.5281 320.403 29.7679C320.455 29.8587 320.523 29.942 320.6 30.0176C320.625 30.0422 320.659 30.0701 320.637 30.1071C320.611 30.1489 320.563 30.1358 320.525 30.1268C320.296 30.0733 320.14 29.9458 320.06 29.7433C320.046 29.7088 320.048 29.668 319.999 29.6311L319.999 29.6304Z" fill="#151513"/>
<g clip-path="url(#clip3_4357_30745)">
<path d="M314.019 31.4699C314.019 31.4332 314.055 31.4003 314.095 31.4003H314.22C314.26 31.4003 314.296 31.4332 314.296 31.4699V33.8964C314.296 33.933 314.26 33.966 314.22 33.966H314.095C314.055 33.966 314.019 33.933 314.019 33.8964V31.4699Z" fill="#151513"/>
<path d="M315.596 33.035C315.769 33.035 315.938 33.0826 315.938 33.0826C315.942 32.8114 315.906 32.6867 315.677 32.6867C315.448 32.6867 315.267 32.7418 315.195 32.7674C315.155 32.7821 315.131 32.7637 315.119 32.7307L315.087 32.6391C315.071 32.5951 315.095 32.5732 315.131 32.5585C315.155 32.5474 315.388 32.4631 315.689 32.4631C316.098 32.4631 316.198 32.6538 316.198 33.0826V33.8963C316.198 33.933 316.162 33.9659 316.122 33.9659H316.046C316.002 33.9659 315.99 33.944 315.978 33.9109L315.946 33.8119C315.861 33.8889 315.697 34.0026 315.448 34.0026C315.167 34.0026 314.954 33.8156 314.954 33.5224C314.954 33.2292 315.183 33.0349 315.596 33.0349V33.035ZM315.492 33.7827C315.693 33.7827 315.865 33.6692 315.934 33.5775V33.288C315.885 33.2624 315.773 33.2293 315.596 33.2293C315.372 33.2293 315.211 33.332 315.211 33.5225C315.211 33.6692 315.32 33.7827 315.492 33.7827Z" fill="#151513"/>
<path d="M316.804 32.5841C316.788 32.5327 316.804 32.4998 316.865 32.4998H316.989C317.025 32.4998 317.053 32.5181 317.061 32.5401L317.354 33.5078H317.358L317.812 32.4998C317.82 32.4814 317.844 32.4631 317.88 32.4631H317.9C317.936 32.4631 317.96 32.4815 317.968 32.4998L318.418 33.5115H318.422L318.711 32.5401C318.719 32.5181 318.747 32.4998 318.779 32.4998H318.903C318.964 32.4998 318.98 32.5327 318.964 32.5841L318.526 33.9659C318.518 33.9879 318.49 34.0026 318.458 34.0026H318.438C318.402 34.0026 318.378 33.9842 318.37 33.9659L317.88 32.8664L317.406 33.9659C317.398 33.9843 317.374 34.0026 317.338 34.0026H317.318C317.282 34.0026 317.258 33.9879 317.25 33.9659L316.804 32.5841H316.804Z" fill="#151513"/>
<path d="M319.525 32.117C319.525 32.018 319.61 31.941 319.714 31.941C319.818 31.941 319.907 32.018 319.907 32.117C319.907 32.216 319.822 32.2893 319.714 32.2893C319.606 32.2893 319.525 32.2123 319.525 32.117ZM319.582 32.5695C319.582 32.5329 319.618 32.4999 319.658 32.4999H319.782C319.822 32.4999 319.858 32.5329 319.858 32.5695V33.8964C319.858 33.933 319.822 33.966 319.782 33.966H319.658C319.618 33.966 319.582 33.933 319.582 33.8964V32.5695Z" fill="white"/>
<path d="M320.629 32.5695C320.629 32.5328 320.665 32.4999 320.705 32.4999H320.782C320.818 32.4999 320.838 32.5146 320.846 32.5439L320.882 32.6575C320.882 32.6575 321.111 32.4631 321.444 32.4631C321.909 32.4631 322.066 32.7418 322.066 33.1229V33.8963C322.066 33.933 322.03 33.9659 321.99 33.9659H321.861C321.821 33.9659 321.785 33.933 321.785 33.8963V33.1229C321.785 32.8443 321.649 32.7088 321.424 32.7088C321.123 32.7088 320.906 32.9177 320.906 32.9177V33.8963C320.906 33.933 320.87 33.9659 320.83 33.9659H320.706C320.665 33.9659 320.629 33.933 320.629 33.8963V32.5695H320.629Z" fill="white"/>
<path d="M322.676 33.8598L323.463 32.7418V32.7308H322.788C322.748 32.7308 322.716 32.6978 322.716 32.6612V32.5695C322.716 32.5292 322.748 32.4999 322.788 32.4999H323.796C323.856 32.4999 323.896 32.5513 323.864 32.5989L323.097 33.7242V33.7352H323.715C323.76 33.7352 323.792 33.7645 323.792 33.8048V33.8965C323.792 33.9331 323.76 33.9661 323.715 33.9661H322.752C322.712 33.9661 322.676 33.9331 322.676 33.8965V33.8599V33.8598Z" fill="white"/>
<path d="M325.164 32.4631C325.61 32.4631 325.963 32.815 325.963 33.2292C325.963 33.6433 325.61 34.0026 325.164 34.0026C324.719 34.0026 324.366 33.6507 324.366 33.2292C324.366 32.8077 324.719 32.4631 325.164 32.4631ZM325.164 33.7644C325.457 33.7644 325.686 33.5261 325.686 33.2292C325.686 32.9323 325.457 32.705 325.164 32.705C324.871 32.705 324.643 32.9396 324.643 33.2292C324.643 33.5187 324.871 33.7644 325.164 33.7644Z" fill="white"/>
</g>
</g>
</g>
<defs>
<clipPath id="clip0_4357_30745">
<rect width="350" height="218.75" fill="white"/>
</clipPath>
<clipPath id="clip1_4357_30745">
<rect width="364" height="248" fill="white" transform="translate(-7 20)"/>
</clipPath>
<clipPath id="clip2_4357_30745">
<rect width="11.9859" height="8.27329" fill="white" transform="translate(312.014 20.0466)"/>
</clipPath>
<clipPath id="clip3_4357_30745">
<rect width="11.9038" height="2.6087" fill="white" transform="translate(314.023 31.3898)"/>
</clipPath>
</defs>
</svg>
