<svg width="350" height="219" viewBox="0 0 350 219" fill="none" xmlns="http://www.w3.org/2000/svg">
<g clip-path="url(#clip0_4355_33487)">
<rect width="350" height="218.75" fill="white"/>
<g opacity="0.3">
<path d="M298.141 37.7984H51.2571V400.622H298.141V37.7984Z" fill="#E8955D"/>
<path d="M44.1799 29V405.13H305.82V29H44.1799ZM291.681 394.657H58.3221V42.4665H291.683V394.657H291.681Z" fill="#FFE0C5"/>
<path d="M298.292 97.7076H48.5159V106.774H298.292V97.7076Z" fill="#FFE0C5"/>
<path d="M93.7346 36.8297H84.6504V106.158H93.7346V36.8297Z" fill="#FFE0C5"/>
<path d="M150.94 36.8297H141.855V106.158H150.94V36.8297Z" fill="#FFE0C5"/>
<path d="M208.145 36.8297H199.061V106.158H208.145V36.8297Z" fill="#FFE0C5"/>
<path d="M265.35 36.8297H256.266V106.158H265.35V36.8297Z" fill="#FFE0C5"/>
</g>
<path d="M182.506 150.766C181.55 149.357 181.111 147.682 181.504 145.608C181.543 145.406 181.589 145.207 181.643 145.012C182.425 142.165 184.837 139.809 187.688 139.04C188.842 138.728 190.051 138.738 191.246 138.747C191.658 138.752 192.105 138.765 192.434 139.01C192.666 139.181 192.809 139.446 192.922 139.709C193.397 140.833 193.409 142.148 192.953 143.279C192.471 144.482 191.705 145.628 191.971 146.957C189.505 146.93 185.174 148.3 182.503 150.763L182.506 150.766Z" fill="#F8AB8D"/>
<path d="M113.705 113.389C114.724 108.414 116.187 103.466 116.912 98.2798C117.975 90.6619 122.706 83.0731 129.454 79.1935C136.446 75.1753 146.83 76.9155 153.936 79.841C159.831 82.2675 164.025 87.7364 166.105 93.6166C168.439 100.212 167.413 107.424 170.12 113.956C173.419 121.92 179.382 126.07 178.806 135.459C178.677 137.562 178.394 139.704 177.446 141.585C175.465 145.509 170.293 148.741 166.325 150.381C163.669 151.481 160.777 151.873 157.911 152.136C148.988 152.959 139.748 152.591 131.446 149.223C123.145 145.852 115.885 139.105 113.578 130.463C111.983 124.492 112.568 118.924 113.702 113.392L113.705 113.389Z" fill="#552B16"/>
<path d="M109.003 171.51C109.027 171.278 109.04 171.035 108.908 170.833C108.779 170.633 108.532 170.514 108.296 170.409C105.533 169.207 102.238 168.942 99.2627 169.687C99.0164 169.747 98.7603 169.823 98.5872 169.984C98.4262 170.132 98.3555 170.336 98.2946 170.534C97.541 172.98 95.3705 180.585 100.177 180.001C104.15 179.519 108.664 174.671 109.003 171.512V171.51Z" fill="#F8AB8D"/>
<path d="M114.517 217.356C114.517 217.356 103.601 265.468 113.607 370.771H135.439C135.439 370.771 144.535 262.745 145.445 250.943C145.445 250.943 151.812 358.062 152.722 369.864L177.282 371.679C177.282 371.679 180.011 241.867 175.463 220.079L114.519 217.356H114.517Z" fill="#F4ECDC"/>
<path d="M138.47 137.333C135.912 137.285 133.251 136.701 130.705 136.842C128.205 136.981 125.515 137.952 123.067 138.494C122.643 138.587 122.218 138.682 121.818 138.852C121.331 139.059 120.896 139.368 120.467 139.675C119.375 140.458 117.97 141.181 117.138 142.221C116.321 143.243 115.824 144.698 115.39 145.913C114.475 148.473 113.963 151.153 113.339 153.794C111.361 162.176 111.407 170.68 110.822 179.205C109.808 193.969 111.071 208.653 111.071 223.416L177.311 223.869C177.072 213.34 176.311 202.914 175.273 192.433C174.826 187.938 174.382 183.44 173.936 178.945C173.412 173.664 172.853 168.358 171.839 163.144C171.524 161.528 171.61 161.521 173.246 160.99C174.514 160.579 175.79 160.197 177.082 159.861C179.662 159.189 182.284 158.683 184.93 158.347C184.693 158.377 182.184 154.728 181.816 154.327C180.706 153.107 179.499 151.9 178.223 150.851C175.504 148.609 172.275 146.791 169.156 145.17C159.762 140.288 149.061 137.535 138.467 137.336L138.47 137.333Z" fill="#9C76B4"/>
<path d="M240.311 242.734C240.004 246.689 239.367 250.68 239.994 254.599C240.742 259.279 243.442 263.468 245.442 267.688C250.346 278.039 249.578 291.934 249.166 303.076C248.722 315.087 248.554 327.425 247.59 339.236C246.861 348.183 245.354 365.361 244.598 370.584H265.864C271.802 355.733 273.419 338.625 274.658 323.056C276.872 295.176 275.519 266.788 266.961 240.013C264.622 232.697 263.152 224.103 257.521 218.442C255.875 216.787 253.641 215.823 251.363 215.309C247.529 214.443 243.145 214.893 240.26 217.556C236.638 220.897 238.104 224.185 239.66 227.792C241.425 231.881 240.655 238.346 240.313 242.736L240.311 242.734Z" fill="white"/>
<path d="M203.571 243.97C205.288 262.343 207.005 280.714 208.722 299.087C210.371 316.738 212.022 334.39 213.67 352.041C214.248 358.223 214.826 364.405 215.404 370.584H237.067C239.967 323.355 243.625 277.623 243.369 229.917C243.344 225.349 248.671 213.043 245.364 209.573C242.437 206.499 237.955 206.457 233.955 205.462C225.859 203.444 217.492 202.497 209.149 202.69C208.042 202.714 206.895 202.77 205.903 203.264C204.742 203.843 203.942 204.953 203.301 206.08C202.557 207.392 201.959 208.786 201.525 210.23C201.242 211.172 201.069 212.135 200.974 213.114C200.63 216.723 201.374 220.513 201.708 224.071C202.328 230.706 202.95 237.34 203.569 243.973L203.571 243.97Z" fill="white"/>
<path d="M330.392 112.024C330.492 111.905 330.582 111.795 330.668 111.7C330.787 111.566 330.912 111.425 330.968 111.252C331.109 110.804 330.746 110.366 330.404 110.043C329.987 109.646 329.39 109.999 329.002 110.271C327.993 110.987 326.412 111.69 326.093 113.007C325.973 113.496 326.229 113.864 326.629 114.129C328.017 115.049 329.495 113.112 330.397 112.024H330.392Z" fill="#F8EDE8"/>
<path d="M270.714 183.469C270.346 175.684 269.975 167.895 269.607 160.109C269.522 158.299 269.695 155.809 268.988 154.112C268.324 152.518 266.52 150.839 265.247 149.697C263.842 148.437 262.218 147.441 260.574 146.514C260.403 146.417 260.23 146.322 260.059 146.224C251.448 141.447 241.954 138.268 232.204 136.876C222.376 135.472 211.892 138.392 202.262 140.378C200.713 140.697 199.15 141.021 197.714 141.683C193.385 143.678 192.087 147.393 191.788 151.732C191.251 159.45 190.736 167.355 191.088 175.092C191.597 191.285 193.946 208.322 199.921 223.446C200.184 224.115 200.506 224.838 201.15 225.161C201.706 225.441 202.364 225.354 202.981 225.281C207.269 224.772 211.602 225.256 215.916 225.444C230.141 226.062 244.327 223.426 258.079 219.739C258.555 219.612 259.064 219.459 259.36 219.065C259.747 218.546 259.616 217.821 259.442 217.198C258.682 214.472 257.811 212.413 257.567 209.599C257.262 206.09 256.738 202.585 256.323 199.088C256.277 198.688 256.228 198.289 256.182 197.89C258.486 198.216 260.82 198.343 263.144 198.241C265.805 198.121 268.324 197.746 269.483 195.103C271.063 191.496 270.904 187.403 270.717 183.472L270.714 183.469Z" fill="#426652"/>
<path d="M318.662 95.1645C318.16 94.483 317.111 94.9381 316.491 95.5904C315.972 96.138 315.545 96.7976 315.245 97.518C315.043 97.9999 314.526 98.7982 314.679 99.3288C314.755 99.5917 315.036 99.7377 315.238 99.8472C315.818 100.164 316.535 100.47 317.116 100.057C317.467 99.8058 317.662 99.3531 317.835 98.9297C318.06 98.3845 318.281 97.8417 318.506 97.2965C318.794 96.598 319.069 95.7194 318.659 95.1669L318.662 95.1645Z" fill="#F8EDE8"/>
<path d="M309.707 103.885C310.346 105.367 311.802 104.54 312.314 103.359C312.811 102.215 314.131 100.251 313.021 99.1512C312.407 98.5378 311.295 98.7788 310.66 99.4408C310.026 100.105 309.768 101.052 309.619 101.962C309.514 102.612 309.456 103.303 309.707 103.887V103.885Z" fill="#F8EDE8"/>
<path d="M306.388 104.214C306.629 103.807 306.949 103.352 307.422 103.337C307.78 103.325 308.085 103.578 308.351 103.814C308.412 103.868 308.473 103.924 308.5 103.999C308.529 104.089 308.502 104.187 308.478 104.277C308.078 105.635 307.653 107.037 306.724 108.108C306.619 108.227 306.505 108.346 306.356 108.402C306.22 108.453 306.068 108.446 305.922 108.439C305.659 108.424 305.388 108.407 305.149 108.293C303.995 107.738 306.005 104.863 306.39 104.214H306.388Z" fill="#F8EDE8"/>
<path d="M187.581 130.171C178.328 123.307 172.283 112.309 171.451 100.833C171.346 99.3727 171.322 97.8831 171.714 96.4715C172.044 95.2862 172.658 94.1958 173.363 93.1858C177.904 86.6509 185.971 83.392 193.863 82.3065C197.216 81.8441 200.728 81.7272 203.884 82.9466C204.735 83.2752 205.583 83.7035 206.495 83.7157C207.154 83.723 207.79 83.5112 208.432 83.3628C212.475 82.4209 216.831 84.0564 219.847 86.9065C222.862 89.7541 224.679 93.6677 225.769 97.6641C227.478 103.943 227.544 110.585 226.656 117.033C225.944 122.209 224.286 127.798 219.879 130.621C214.746 133.907 208.193 132.332 202.476 133.074C196.643 133.831 192.639 133.926 187.581 130.175V130.171Z" fill="#312B2A"/>
<path d="M221.086 107.224C221.118 107.117 221.15 107.008 221.184 106.901C221.311 106.492 221.452 106.075 221.725 105.744C222.018 105.389 222.435 105.158 222.862 104.98C231.092 101.534 233.553 112.486 228.383 117.22C227.01 118.476 225.11 119.194 223.262 118.972C222.671 118.902 222.079 118.732 221.603 118.376C220.586 117.619 220.32 116.225 220.238 114.961C220.069 112.36 220.357 109.729 221.086 107.224Z" fill="url(#paint0_linear_4355_33487)"/>
<path d="M188.342 121.582C188.256 121.509 188.168 121.438 188.081 121.367C187.749 121.097 187.398 120.829 186.986 120.705C186.544 120.572 186.069 120.613 185.615 120.701C176.855 122.402 180.908 132.872 187.842 133.938C189.683 134.221 191.663 133.763 193.075 132.553C193.526 132.166 193.924 131.697 194.121 131.139C194.546 129.947 193.99 128.64 193.353 127.544C192.044 125.288 190.339 123.261 188.339 121.584L188.342 121.582Z" fill="url(#paint1_linear_4355_33487)"/>
<path d="M214.248 144.735C217.365 147.1 225.247 145.389 224.735 138.562L218.121 126.573C217.957 126.357 217.777 126.128 217.514 126.06C217.26 125.994 216.994 126.096 216.75 126.196C212.3 128.043 209.934 131.288 205.483 133.133L214.243 144.735H214.248Z" fill="#F8AB8D"/>
<path d="M221.125 132.02L218.121 126.573C217.957 126.357 217.777 126.128 217.514 126.06C217.26 125.994 216.994 126.096 216.75 126.196C212.3 128.043 209.934 131.288 205.483 133.133L210.207 139.388C215.182 139.103 218.979 136.17 221.123 132.018L221.125 132.02Z" fill="#F15E59"/>
<path d="M224.735 138.563L221.125 132.02C218.982 136.172 215.185 139.105 210.21 139.39L214.248 144.737C217.367 147.103 225.247 145.392 224.737 138.565L224.735 138.563Z" fill="#F8AB8D"/>
<path d="M187.542 125.605C194.06 134.795 205.752 141.04 216.24 134.242C223.879 129.292 224.213 117.478 222.864 109.524C221.367 100.694 216.538 89.9123 206.859 87.7656C198.679 85.9499 188.373 88.6613 183.813 96.25C178.448 105.18 181.92 117.673 187.544 125.602L187.542 125.605Z" fill="#F8AB8D"/>
<path d="M185.598 104.622C185.361 104.622 185.137 104.489 185.027 104.262C184.879 103.948 185.015 103.573 185.327 103.427C187.637 102.34 190.019 100.383 190.751 98.9686C190.91 98.662 191.288 98.5403 191.597 98.7009C191.907 98.8591 192.026 99.2388 191.865 99.5455C190.89 101.427 188.044 103.535 185.861 104.562C185.774 104.603 185.683 104.62 185.593 104.62L185.598 104.622Z" fill="#312B2A"/>
<path d="M205.252 97.6689C204.286 97.6689 203.315 97.6081 202.35 97.484C202.006 97.4402 201.762 97.1262 201.806 96.7806C201.85 96.4374 202.164 96.2038 202.511 96.2378C205.035 96.5615 207.571 96.4374 210.046 95.8703C210.385 95.7924 210.722 96.0042 210.8 96.3425C210.878 96.6808 210.666 97.0167 210.327 97.0945C208.654 97.4767 206.956 97.6689 205.252 97.6689Z" fill="#312B2A"/>
<path d="M203.064 114.465C202.781 114.465 202.494 114.426 202.213 114.348C201.008 114.007 200.16 113.175 199.826 112.002C199.399 110.508 199.867 108.682 200.986 107.46C201.162 107.268 201.459 107.256 201.652 107.431C201.845 107.606 201.857 107.906 201.681 108.096C200.789 109.069 200.396 110.571 200.73 111.744C200.901 112.345 201.342 113.126 202.467 113.443C203.176 113.647 203.942 113.47 204.371 113.01C204.549 112.82 204.849 112.81 205.037 112.988C205.227 113.165 205.237 113.462 205.059 113.652C204.564 114.178 203.832 114.467 203.062 114.467L203.064 114.465Z" fill="#F15E59"/>
<path d="M206.595 117.386C207.164 116.923 207.778 116.505 208.485 116.169C209.163 115.85 210.029 115.804 210.612 116.273C211.022 116.604 211.222 117.128 211.319 117.644C212.548 124.276 203.908 124.614 200.145 121.857C203.15 121.168 204.588 119.016 206.598 117.383L206.595 117.386Z" fill="#D55E4B"/>
<path d="M224.344 110.469C224.025 108.916 224.991 106.604 226.876 106.796C229.293 107.039 229.095 111.289 228.693 112.866C228.388 114.061 227.664 115.757 226.41 116.259C224.847 116.887 223.323 115.01 224.215 113.547C224.693 112.766 225.737 113.173 226.076 112.479C226.561 111.483 225.254 110.391 224.344 110.469Z" fill="#F15E59"/>
<path d="M187.31 126.026C186.617 124.6 184.44 123.353 183.062 124.648C181.294 126.311 184.042 129.562 185.325 130.567C186.296 131.329 187.905 132.234 189.205 131.874C190.827 131.422 190.893 129.007 189.293 128.391C188.437 128.06 187.856 129.019 187.166 128.674C186.174 128.177 186.544 126.517 187.313 126.026H187.31Z" fill="#F15E59"/>
<path d="M246.132 148.069C241.662 147.324 236.814 148.186 232.287 150.863C228.971 152.825 226.444 155.838 223.437 158.218C218.579 162.064 214.741 160.56 209.112 159.978C199.052 158.939 188.505 161.326 180.501 167.881C172.217 174.661 167.254 185.404 167.803 196.082C168.117 202.193 170.149 208.156 173.265 213.423C177.799 221.082 184.569 227.135 193.195 229.581C209.173 234.111 227.061 229.635 235.66 214.886C237.318 212.041 238.826 208.996 239.967 205.905C241.437 201.921 241.757 197.586 243.547 193.706C246.047 188.284 249.919 189.031 254.382 186.286C263.32 180.79 264.556 168.681 260.618 159.73C257.728 153.163 252.287 149.091 246.13 148.067L246.132 148.069Z" fill="#AC7654"/>
<path d="M250.787 167.16L243.813 156.868L303.013 113.168L310.753 121.241L250.787 167.16Z" fill="#552B16"/>
<path d="M230.74 186.695C236.238 185.87 240.025 180.753 239.198 175.266C238.371 169.779 233.244 166 227.746 166.825C222.248 167.65 218.461 172.767 219.288 178.254C220.114 183.741 225.241 187.52 230.74 186.695Z" fill="#552B16"/>
<path d="M325 116.429C325.166 116.203 325.305 115.984 325.41 115.787C325.539 115.543 325.654 115.246 325.556 114.959C325.434 114.599 325.044 114.436 324.707 114.397C323.571 114.268 318.413 116.743 321.183 118.247C322.495 118.96 324.122 117.614 324.998 116.429H325Z" fill="#F8EDE8"/>
<path d="M319.108 120.384C319.252 120.326 319.384 120.272 319.503 120.226C319.674 120.163 319.85 120.097 319.979 119.97C320.315 119.642 320.198 119.084 320.047 118.639C319.864 118.094 319.172 118.125 318.698 118.186C317.472 118.347 315.745 118.23 314.843 119.243C314.506 119.62 314.562 120.063 314.789 120.484C315.584 121.944 317.799 120.924 319.106 120.384H319.108Z" fill="#F8EDE8"/>
<path d="M329.658 104.99C328.229 102.98 326.722 101.02 325.141 99.1244C323.903 97.6373 322.398 96.0723 320.462 95.9798C318.603 95.8898 317.001 97.1895 315.623 98.438C314.738 99.2388 313.862 100.049 312.997 100.872C309.317 104.377 299.484 112.27 302.883 118.301C304.329 120.866 307.736 121.625 310.665 121.285C316.494 120.606 321.403 116.794 325.976 113.126C328.956 110.739 332.331 108.75 329.658 104.99ZM308.095 112.525C307.858 112.384 307.656 112.192 307.531 111.948C307.363 111.622 307.346 111.238 307.371 110.873C307.468 109.473 308.683 108.225 309.59 107.207C310.575 106.105 311.689 105.124 312.848 104.206C314.253 103.099 315.63 101.96 317.008 100.821C318.045 99.9616 319.425 98.382 320.961 98.6668C321.774 98.8177 322.505 99.7572 323.015 100.332C324.676 102.196 321.361 104.452 320.081 105.482C318.064 107.105 316.074 108.767 313.955 110.262C312.914 110.997 311.841 111.693 310.724 112.313C309.96 112.737 309.565 112.988 308.639 112.749C308.448 112.7 308.261 112.625 308.092 112.525H308.095ZM325.415 110.904C323.956 111.939 322.498 112.973 321.061 114.039C319.201 115.421 315.384 118.559 313.033 116.916C312.531 116.563 312.053 116.059 312.043 115.446C312.019 113.839 314.404 112.306 315.484 111.408C317.479 109.751 319.603 108.261 321.696 106.737C323.025 105.769 326.063 103.157 327.439 105.241C327.863 105.883 328.582 106.83 328.519 107.653C328.4 109.208 326.512 110.128 325.415 110.907V110.904Z" fill="#552B16"/>
<path d="M191.061 192.516C190.992 192.516 190.924 192.477 190.89 192.414C190.841 192.321 190.878 192.205 190.971 192.156C218.004 178.047 240.955 160.742 265.256 142.423C272.131 137.238 279.24 131.879 286.39 126.646C288.217 125.31 290.102 123.993 291.929 122.721C293.255 121.796 294.582 120.868 295.899 119.929C296.423 119.554 296.952 119.179 297.482 118.804C299.996 117.023 302.598 115.183 304.903 113.104C305.771 112.321 306.661 111.452 307.293 110.415C307.968 109.3 308.249 108.105 308.078 107.047C308.061 106.942 308.134 106.845 308.236 106.827C308.341 106.81 308.439 106.883 308.456 106.986C308.641 108.132 308.344 109.42 307.619 110.612C306.963 111.693 306.049 112.586 305.159 113.389C302.837 115.482 300.228 117.33 297.701 119.118C297.172 119.493 296.643 119.866 296.118 120.24C294.801 121.182 293.472 122.11 292.146 123.035C290.322 124.307 288.439 125.622 286.617 126.955C279.469 132.186 272.36 137.545 265.488 142.727C241.174 161.056 218.211 178.368 191.149 192.494C191.119 192.509 191.09 192.516 191.058 192.516H191.061Z" fill="#F8EDE8"/>
<path d="M207.069 191.039C207.01 191.039 206.954 191.012 206.915 190.963C206.852 190.878 206.869 190.759 206.954 190.696L306.139 116.397C308.544 114.097 310.651 111.539 312.565 108.597C314.833 105.109 316.187 101.906 316.704 98.8031C316.721 98.6984 316.811 98.6181 316.926 98.6449C317.03 98.6619 317.101 98.7617 317.084 98.8664C316.56 102.021 315.187 105.272 312.889 108.806C310.958 111.776 308.831 114.353 306.39 116.689L207.188 191.002C207.154 191.029 207.113 191.041 207.073 191.041L207.069 191.039Z" fill="#F8EDE8"/>
<path d="M208.983 192.983C208.924 192.983 208.868 192.957 208.829 192.908C208.766 192.823 208.783 192.704 208.868 192.64L306.956 118.8C309.841 116.619 312.824 114.363 316.038 112.562C318.05 111.435 319.937 110.605 321.815 110.018L321.952 109.977C323.837 109.388 326.183 108.655 328.058 109.699C328.151 109.751 328.183 109.867 328.131 109.96C328.08 110.052 327.963 110.086 327.87 110.033C326.144 109.072 323.883 109.777 322.066 110.342L321.93 110.386C320.079 110.96 318.216 111.783 316.226 112.895C313.033 114.684 310.063 116.93 307.188 119.104L290.641 131.563L209.1 192.944C209.066 192.971 209.024 192.983 208.985 192.983H208.983Z" fill="#F8EDE8"/>
<path d="M210.254 195.347C210.195 195.347 210.139 195.322 210.102 195.271C210.037 195.189 210.054 195.067 210.137 195.004L307.037 120.433C311.065 117.322 317.152 112.625 322.479 116.312C322.566 116.373 322.588 116.492 322.527 116.58C322.466 116.668 322.344 116.687 322.259 116.629C317.162 113.095 311.446 117.515 307.271 120.735L210.371 195.305C210.336 195.332 210.295 195.347 210.254 195.347Z" fill="#F8EDE8"/>
<path d="M211.573 198.209C211.517 198.209 211.461 198.185 211.422 198.136C211.356 198.053 211.37 197.931 211.453 197.866L308.332 121.27C308.4 121.214 308.473 121.163 308.541 121.107C308.675 121.005 308.809 120.905 308.934 120.793C309.644 120.16 310.424 119.625 311.18 119.106C311.651 118.783 312.138 118.449 312.607 118.094L312.777 117.962C313.67 117.278 314.44 116.687 315.733 117.142C316.355 117.361 316.913 117.775 317.304 118.303C317.367 118.388 317.347 118.508 317.262 118.571C317.177 118.632 317.057 118.615 316.994 118.529C316.65 118.06 316.155 117.697 315.604 117.502C314.511 117.115 313.88 117.597 313.009 118.264L312.836 118.396C312.36 118.756 311.87 119.094 311.395 119.418C310.614 119.953 309.878 120.459 309.187 121.075C309.056 121.192 308.914 121.299 308.773 121.409C308.705 121.46 308.636 121.513 308.568 121.567L211.69 198.163C211.653 198.189 211.612 198.204 211.57 198.204L211.573 198.209Z" fill="#F8EDE8"/>
<path d="M205.42 188.98C205.361 188.98 205.303 188.953 205.264 188.902C205.201 188.817 205.22 188.695 205.305 188.634L305.256 115.475C305.447 115.319 305.493 115.275 305.586 115.188C305.634 115.142 305.695 115.083 305.795 114.993C306.998 113.9 307.949 112.542 308.866 111.23C309.37 110.51 309.892 109.763 310.326 108.977C311.292 107.222 311.826 105.231 312.251 103.5C312.275 103.398 312.375 103.335 312.482 103.359C312.585 103.384 312.648 103.488 312.624 103.59C312.194 105.345 311.651 107.365 310.663 109.159C310.222 109.965 309.692 110.719 309.18 111.447C308.251 112.776 307.288 114.151 306.054 115.273C305.956 115.361 305.898 115.417 305.849 115.463C305.751 115.555 305.7 115.604 305.49 115.774L205.532 188.938C205.498 188.963 205.457 188.975 205.418 188.975L205.42 188.98Z" fill="#F8EDE8"/>
<path d="M213.743 195.011C214.494 195.999 215.277 197.294 214.707 198.396C214.285 199.212 213.297 199.528 212.409 199.769C212.205 199.825 211.987 199.879 211.788 199.815C211.534 199.737 211.37 199.494 211.229 199.268C208.517 194.984 205.101 191.146 201.162 187.948C200.713 187.585 200.245 187.21 199.991 186.692C199.428 185.536 200.16 184.146 201.108 183.28C202.655 181.868 203.103 183.119 203.991 184.197C205.001 185.421 206.491 186.4 207.598 187.561C209.822 189.892 211.795 192.448 213.741 195.008L213.743 195.011Z" fill="#312B2A"/>
<path d="M267.827 156.062C267.571 158.484 267.222 160.932 268.461 163.186C269.632 165.315 272.607 166.608 274.602 165.216C275.519 164.576 276.045 163.531 276.538 162.529C279.091 157.33 283.61 151.121 284.903 145.501C285.908 141.123 282.827 137.504 280.286 134.216C279.052 132.619 275.855 129.548 274.243 132.699C274.236 132.714 273.304 132.726 273.202 132.743C272.814 132.814 272.436 132.945 272.095 133.14C271.821 133.296 271.529 133.503 271.343 133.758C271.302 133.814 271.009 134.391 271.124 134.384C270.683 134.415 270.227 134.449 269.829 134.646C269.563 134.778 269.339 134.975 269.117 135.17C268.924 135.338 268.732 135.508 268.595 135.725C268.458 135.939 268.385 136.209 268.461 136.452C268.58 136.847 268.234 136.73 267.985 136.808C267.717 136.89 267.461 137.051 267.239 137.217C267.039 137.368 266.854 137.543 266.727 137.759C266.361 138.392 266.503 138.896 266.798 139.478C267.078 140.028 267.403 140.532 267.751 141.04C268.619 142.303 269.439 143.601 270.27 144.888C270.722 145.589 272.134 147.232 272.246 148.028C272.287 148.315 272.107 148.583 271.931 148.811C270.397 150.802 268.146 152.837 267.893 155.485C267.873 155.677 267.854 155.87 267.834 156.062H267.827Z" fill="#F8AB8D"/>
<path d="M210.483 187.644C211.866 185.638 213.763 183.358 216.177 183.71C216.721 183.788 217.25 184.012 217.655 184.382C219.099 185.699 218.418 188.174 217.104 189.62C215.789 191.066 213.973 192.059 212.931 193.714C212.704 194.076 212.512 194.505 212.607 194.921C212.768 195.636 213.621 195.916 214.343 196.05C217.697 196.678 221.123 196.912 224.53 196.744C225.159 198.017 224.676 199.621 223.718 200.67C222.759 201.719 221.418 202.327 220.094 202.845C212.222 205.929 204.074 205.153 197.819 199.221C195.668 197.184 193.643 195.013 191.761 192.725C191.534 192.45 191.302 192.156 191.249 191.805C191.205 191.513 191.29 191.219 191.392 190.944C192.178 188.858 194.014 187.381 195.772 186.006C196.231 185.648 196.706 185.28 197.27 185.139C199.033 184.696 200.479 186.551 201.194 188.22C203.315 193.178 208.076 191.136 210.485 187.644H210.483Z" fill="#F8AB8D"/>
<path d="M206.132 90.8274C203.03 92.8134 199.248 93.7212 195.58 93.3586C194.463 93.2491 193.28 93.0349 192.261 93.5022C191.473 93.8648 190.915 94.578 190.383 95.2619C186.366 100.434 180.499 105.525 173.741 106.341C165.22 107.368 160.438 100.877 162.274 93.0227C162.335 92.7574 162.421 92.4775 162.633 92.3072C162.933 92.0662 163.367 92.1344 163.747 92.1928C167.53 92.7599 170.495 90.8055 172.848 88.1015C175.334 85.2466 177.406 83.5575 181.147 82.2067C188.076 79.7047 196.126 77.7941 202.518 81.4498C203.542 82.0363 204.508 82.7592 205.637 83.1072C206.93 83.5039 208.315 83.3725 209.668 83.4017C215.124 83.5161 222.101 86.7458 223.359 92.5846C224.386 97.3525 220.435 100.385 216.085 98.2044C214.938 97.63 206.725 90.4477 206.13 90.8298L206.132 90.8274Z" fill="#312B2A"/>
<path d="M213.004 101.393C209.949 100.95 206.264 100.599 204.249 103.23C203.818 103.795 203.876 104.372 204.359 103.87C206.561 101.578 210.049 102.378 212.822 101.872C213.621 101.726 213.785 101.505 213.007 101.393H213.004Z" fill="#312B2A"/>
<path d="M187.276 110.315C189.315 107.937 191.724 106.241 194.672 107.159C195.304 107.356 195.565 107.83 194.928 107.706C192.022 107.146 189.81 109.624 187.429 110.727C186.744 111.045 186.8 110.87 187.276 110.315Z" fill="#312B2A"/>
<path d="M167.976 149.617C165.544 150.425 163.228 151.43 161.199 152.832C157.528 155.366 155.89 159.474 157.341 163.763C158.799 168.066 162.279 171.66 165.244 174.99C168.632 178.794 172.18 182.452 175.875 185.957C178.501 188.444 181.218 190.822 183.964 193.176C186.235 195.12 187.72 196.272 190.539 194.322C194.575 191.528 199.56 190.238 203.347 187.118C203.586 186.923 203.84 186.663 203.793 186.359C203.769 186.198 203.664 186.064 203.559 185.937C202.906 185.159 202.328 184.441 201.718 183.642C196.763 177.149 190.783 171.072 188.41 163.261C191.095 162.171 193.782 161.078 196.467 159.988C199.596 158.717 203.042 157.133 204.24 153.981C204.961 152.08 204.622 150.26 204.366 148.347C204.037 145.891 203.649 143.713 202.267 141.581C202.013 141.189 201.703 140.787 201.255 140.658C200.916 140.563 200.557 140.639 200.213 140.719C189.437 143.189 178.455 146.129 167.971 149.62L167.976 149.617Z" fill="#426652"/>
<path d="M208.558 156.164C208.693 156.035 208.729 155.66 208.137 154.594C207.778 153.949 207.354 153.351 207.351 153.346C207.71 153.465 208.1 153.394 208.393 153.163C208.539 153.012 208.641 152.825 208.688 152.62C208.788 152.238 207.832 150.16 207.824 150.138C207.629 149.33 207.322 148.554 206.91 147.831C205.793 145.998 203.242 143.284 202.289 142.756C201.533 142.34 199.996 141.515 198.184 140.687C196.45 139.86 193.26 138.263 191.263 138.879C190.549 139.098 189.993 139.648 189.466 140.179C188.785 140.865 188.105 141.551 187.425 142.238C185.232 144.45 188.983 148.276 190.322 150.559C191.151 151.547 192.034 152.491 192.968 153.385C193.007 153.421 193.046 153.458 193.082 153.494C193.09 153.504 193.168 153.575 193.168 153.575C194.57 154.903 195.499 155.782 197.018 158.666C197.148 159.009 197.428 159.275 197.779 159.384C198.028 159.406 198.274 159.309 198.44 159.121C198.782 158.754 199.023 158.306 199.145 157.822C199.301 157.335 199.328 156.814 199.223 156.313C199.077 155.772 198.501 154.989 197.894 154.161C196.916 152.83 195.904 151.452 196.509 150.873C196.592 150.798 196.692 150.739 196.799 150.703C197.626 150.401 199.084 150.812 201.013 151.893C203.023 153.061 204.908 154.426 206.647 155.967C207.171 156.373 207.873 156.466 208.488 156.21C208.515 156.198 208.537 156.184 208.556 156.164H208.558Z" fill="#F8AB8D"/>
<path d="M188.071 162.998C187.966 162.998 187.864 162.957 187.788 162.874L181.325 155.809C181.181 155.653 181.194 155.41 181.35 155.268C181.508 155.125 181.75 155.137 181.891 155.293L188.354 162.358C188.498 162.514 188.485 162.757 188.329 162.899C188.256 162.967 188.163 162.998 188.071 162.998Z" fill="#F8EDE8"/>
<path d="M273.363 193.086C275.04 189.79 275.655 185.774 276.157 182.343C277.123 175.747 277.938 169.127 278.599 162.492C273.819 161.012 269.036 159.535 264.256 158.055C264.03 157.985 263.783 157.917 263.564 158.004C263.249 158.131 263.14 158.508 263.066 158.837C261.628 165.427 260.186 172.021 258.747 178.612C258.282 180.744 257.811 182.944 256.765 184.884C255.192 187.792 253.558 189.861 250.609 191.092C250.973 193.339 252.926 195.259 254.833 196.371C256.857 197.552 259.186 198.112 261.508 198.44C264.795 198.905 268.532 198.791 270.912 196.481C271.921 195.503 272.719 194.346 273.363 193.083V193.086Z" fill="#426652"/>
<path d="M319.24 118.048C318.594 117.512 317.713 117.152 317.542 116.444C316.467 116.972 315.818 117.283 314.845 117.361C314.845 117.656 314.438 117.814 314.438 118.113C315.133 118.602 315.84 119.075 316.574 119.508C317.484 119.075 318.372 118.581 319.242 118.048H319.24Z" fill="#552B16"/>
<path d="M329.658 104.99C328.229 102.98 326.722 101.02 325.142 99.1244C323.903 97.6373 322.398 96.0723 320.462 95.9798C318.603 95.8898 317.001 97.1895 315.623 98.438C314.738 99.2388 313.863 100.049 312.997 100.872C311.39 102.403 308.609 104.771 306.271 107.453C306.424 108.032 306.605 108.594 306.812 109.137C307.002 109.631 307.427 110.006 307.702 109.553C308.122 108.865 308.961 107.908 309.468 107.343C310.424 106.277 311.468 105.292 312.594 104.408C314.087 103.238 315.548 102.03 317.008 100.821C318.045 99.9616 319.425 98.382 320.962 98.6668C321.774 98.8177 322.505 99.7572 323.015 100.332C324.676 102.196 321.362 104.452 320.081 105.482C318.064 107.105 316.074 108.767 313.955 110.262C312.914 110.997 311.841 111.693 310.724 112.313C310.704 112.323 310.685 112.335 310.665 112.345C309.836 112.805 309.668 113.917 310.312 114.611C310.509 114.825 310.729 115.02 310.936 115.227C311.512 115.013 311.977 114.652 312.404 114.29C313.106 113.126 314.67 112.085 315.487 111.406C317.482 109.748 319.606 108.259 321.698 106.735C323.027 105.766 326.066 103.155 327.441 105.238C327.866 105.881 328.585 106.828 328.522 107.65C328.402 109.205 326.515 110.125 325.417 110.904C323.959 111.939 322.5 112.973 321.064 114.039C320.198 114.682 318.908 115.701 317.543 116.446C317.713 117.154 318.596 117.515 319.24 118.05C321.601 116.604 323.827 114.854 325.978 113.129C328.958 110.741 332.333 108.753 329.661 104.992L329.658 104.99Z" fill="#552B16"/>
<path d="M277.345 135.859C277.296 135.859 277.25 135.841 277.213 135.805L274.111 132.836C274.036 132.763 274.031 132.641 274.104 132.566C274.18 132.49 274.299 132.485 274.375 132.558L277.477 135.528C277.552 135.601 277.557 135.722 277.484 135.798C277.445 135.837 277.396 135.856 277.345 135.856V135.859Z" fill="#F8EDE8"/>
<path d="M274.277 137.643C274.228 137.643 274.182 137.625 274.145 137.589L271.043 134.62C270.968 134.547 270.963 134.425 271.036 134.35C271.109 134.272 271.231 134.272 271.307 134.342L274.409 137.312C274.484 137.385 274.489 137.506 274.416 137.582C274.377 137.621 274.328 137.64 274.277 137.64V137.643Z" fill="#F8EDE8"/>
<path d="M271.597 139.938C271.548 139.938 271.502 139.921 271.465 139.884L268.363 136.915C268.288 136.842 268.283 136.72 268.356 136.645C268.432 136.567 268.551 136.567 268.627 136.637L271.729 139.607C271.804 139.68 271.809 139.801 271.736 139.877C271.697 139.916 271.648 139.935 271.597 139.935V139.938Z" fill="#F8EDE8"/>
<path d="M257.374 184.005C257.36 184.005 257.345 184.005 257.33 184C257.228 183.976 257.165 183.871 257.189 183.769L263.405 157.931C263.418 157.88 263.452 157.836 263.498 157.809C263.544 157.783 263.598 157.778 263.649 157.792L278.552 162.297C278.655 162.329 278.711 162.436 278.679 162.536C278.65 162.638 278.54 162.692 278.44 162.663L263.732 158.216L257.562 183.857C257.54 183.944 257.462 184.003 257.374 184.003V184.005Z" fill="#F8EDE8"/>
<path d="M219.043 148.515C216.211 148.515 213.921 147.507 213.787 147.446C213.595 147.358 213.507 147.132 213.595 146.94C213.682 146.748 213.907 146.657 214.102 146.748C214.148 146.767 218.631 148.734 222.615 147.074C224.874 146.134 226.561 144.209 227.634 141.352C227.71 141.152 227.932 141.05 228.129 141.128C228.327 141.203 228.429 141.422 228.354 141.622C227.203 144.686 225.369 146.76 222.906 147.784C221.606 148.325 220.272 148.517 219.043 148.517V148.515Z" fill="#F8EDE8"/>
<path d="M256.023 197.929C255.97 197.929 255.916 197.917 255.865 197.895C252.936 196.561 250.48 194.125 249.124 191.209C249.034 191.017 249.119 190.791 249.312 190.7C249.505 190.613 249.734 190.696 249.822 190.888C251.1 193.641 253.419 195.941 256.184 197.199C256.377 197.286 256.462 197.515 256.374 197.708C256.311 197.849 256.17 197.931 256.026 197.931L256.023 197.929Z" fill="#F8EDE8"/>
<path d="M105.928 156.941C103.564 162.509 102.257 168.528 102.213 174.579C107.781 174.586 113.349 174.593 118.916 174.603C119.472 174.603 120.089 174.581 120.484 174.192C120.84 173.841 120.904 173.296 120.948 172.8C121.374 167.876 122.216 163.232 122.216 158.272C122.216 153.312 122.004 148.549 122.035 143.713C122.055 140.955 118.823 139.5 116.743 141.318C112.89 144.686 109.634 149.544 107.625 153.365C107.01 154.533 106.445 155.728 105.928 156.943V156.941Z" fill="#9C76B4"/>
<path d="M101.628 146.239C101.628 146.239 117.455 139.183 130.046 136.856L122.599 171.264L99.7356 163.383L101.63 146.239H101.628Z" fill="#9C76B4"/>
<path d="M112.597 167.732C112.493 167.732 112.388 167.715 112.285 167.681C109.225 166.669 106.884 163.707 106.023 159.754C105.133 155.672 105.73 151.552 107.71 148.149C109.786 144.579 113.451 141.897 117.519 140.977C119.004 140.639 120.279 140.602 121.416 140.87C123.618 141.381 125.528 143.072 127.093 145.891C128.125 147.748 128.922 149.714 129.461 151.739C129.603 152.27 129.288 152.813 128.756 152.954C128.23 153.095 127.681 152.781 127.539 152.25C127.04 150.384 126.306 148.568 125.352 146.852C124.055 144.511 122.618 143.187 120.965 142.802C120.128 142.61 119.148 142.644 117.96 142.914C114.424 143.715 111.237 146.044 109.434 149.147C107.705 152.121 107.186 155.738 107.969 159.333C108.678 162.592 110.529 165.009 112.914 165.797C113.436 165.97 113.719 166.532 113.546 167.053C113.407 167.469 113.019 167.735 112.602 167.735L112.597 167.732Z" fill="#FDBE52"/>
<path d="M156.809 167.267C158.067 168.935 157.219 172.476 156.59 174.369C155.382 178.003 152.922 177.137 150.563 174.739C149.973 174.138 149.454 173.393 148.654 173.126C147.776 172.831 146.827 173.201 145.976 173.566C141.323 175.557 136.321 177.419 132 180.035C130.827 180.746 129.754 181.622 128.827 182.632C129.642 178.86 129.768 175.019 133.717 173.462C139.297 171.259 145.289 170.151 150.734 167.63C151.985 167.051 153.258 166.386 154.636 166.357C155.68 166.335 156.372 166.688 156.809 167.27V167.267Z" fill="#FDBE52"/>
<path d="M144.935 163.266L127.378 185.49C127.003 185.964 126.369 186.144 125.801 185.937C122.979 184.908 114.692 180.894 109.208 168.029C108.91 167.328 109.125 166.513 109.717 166.033L130.154 149.493L144.935 163.266Z" fill="#FDBE52"/>
<path d="M130.154 149.493C130.154 149.493 140.76 154.925 144.935 163.266C144.935 163.266 131.383 160.141 130.154 149.493Z" fill="#312B2A"/>
<path d="M153.485 175.878C153.334 175.878 153.205 175.766 153.19 175.613C152.866 172.619 153.527 169.538 155.051 166.939C155.134 166.798 155.314 166.749 155.458 166.832C155.599 166.914 155.648 167.097 155.565 167.238C154.107 169.728 153.473 172.68 153.783 175.55C153.8 175.713 153.683 175.859 153.519 175.876C153.509 175.876 153.497 175.876 153.488 175.876L153.485 175.878Z" fill="#312B2A"/>
<path d="M105.725 145.716C105.608 144.618 105.391 143.574 105.042 142.605C104.601 141.376 103.455 140.468 102.148 140.502C100.258 140.553 99.3334 142.454 98.7335 144.112C95.7412 152.37 89.6639 164.585 91.0515 173.496C91.6588 177.399 95.0193 179.344 98.6384 179.984C101.489 180.488 104.096 178.361 104.165 175.474C104.243 172.21 103.74 168.905 103.796 165.617C103.896 159.827 106.386 151.907 105.725 145.716Z" fill="#F8AB8D"/>
<path d="M112.802 140.5C113.102 140.884 114.1 142.106 113.439 142.498C113.066 142.72 112.695 142.941 112.322 143.162C111.834 143.452 112.381 144.375 112.681 144.667C113.18 145.153 113.641 144.623 114.166 144.484C114.517 145.044 114.768 145.759 114.483 146.356C114.397 146.533 114.271 146.687 114.136 146.83C113.871 147.113 113.563 147.366 113.202 147.509C112.841 147.653 112.42 147.675 112.068 147.509C112.41 147.736 112.3 148.897 112.227 149.203C112.076 149.834 111.517 150.418 110.869 150.367C110.934 151.535 110.252 152.861 108.918 152.803C108.886 152.803 108.849 152.801 108.825 152.82C108.805 152.837 108.796 152.861 108.788 152.888C108.701 153.188 108.718 153.553 108.501 153.801C108.203 154.142 107.486 154.409 107.047 154.424C101.572 154.619 96.6094 149.391 97.4849 144.304C98.0238 141.169 99.9968 136.766 103.362 136.827C106.403 136.881 110.839 137.971 112.802 140.5Z" fill="#F8AB8D"/>
<path d="M158.07 114.932C158.153 114.869 158.236 114.808 158.319 114.747C158.638 114.514 158.972 114.287 159.355 114.19C159.767 114.088 160.201 114.149 160.613 114.248C168.576 116.222 164.362 125.644 157.946 126.298C156.243 126.471 154.446 125.958 153.207 124.782C152.812 124.407 152.468 123.957 152.312 123.434C151.98 122.319 152.551 121.146 153.185 120.17C154.492 118.159 156.155 116.378 158.07 114.932Z" fill="url(#paint2_linear_4355_33487)"/>
<path d="M125.337 108.305C125.315 108.21 125.291 108.115 125.269 108.023C125.179 107.662 125.074 107.297 124.855 107C124.618 106.679 124.267 106.462 123.908 106.29C116.958 102.953 114.349 112.296 118.599 116.609C119.728 117.753 121.338 118.456 122.943 118.347C123.455 118.313 123.974 118.191 124.401 117.906C125.313 117.298 125.603 116.108 125.73 115.02C125.991 112.781 125.857 110.498 125.34 108.305H125.337Z" fill="url(#paint3_linear_4355_33487)"/>
<path d="M130.039 138.743C131.202 142.196 139.089 145.256 143.04 139.945L145.057 127.481C145.057 127.233 145.047 126.965 144.867 126.77C144.691 126.581 144.396 126.513 144.123 126.454C139.104 125.376 134.978 126.469 129.959 125.388L130.039 138.743Z" fill="#F8AB8D"/>
<path d="M144.14 133.142L145.057 127.481C145.057 127.233 145.047 126.965 144.867 126.77C144.691 126.583 144.396 126.513 144.123 126.454C139.104 125.376 134.978 126.469 129.959 125.388V130.433C133.127 133.945 139.626 135.029 144.142 133.142H144.14Z" fill="#F15E59"/>
<path d="M123.225 110.086C122.969 120.435 128.149 131.448 139.621 132.191C147.976 132.731 154.726 124.208 158.111 117.605C161.869 110.276 164.247 99.6817 158.294 92.7891C153.263 86.9649 144.176 83.3117 136.636 86.4051C127.764 90.0461 123.447 101.157 123.225 110.084V110.086Z" fill="#F8AB8D"/>
<path d="M140.516 93.5581C140.465 93.5581 140.411 93.5508 140.36 93.5362C138.102 92.9059 135.265 92.8353 133.902 93.3756C133.607 93.4949 133.271 93.3488 133.151 93.0519C133.034 92.7574 133.178 92.4215 133.475 92.3023C135.287 91.5794 138.536 91.8252 140.672 92.424C140.979 92.5092 141.16 92.828 141.072 93.1347C141.001 93.3902 140.767 93.5557 140.516 93.5557V93.5581Z" fill="#312B2A"/>
<path d="M156.958 101.371C156.726 101.371 156.509 101.23 156.419 101.003C155.617 98.9467 153.219 97.6567 151.41 97.1797C151.102 97.0969 150.917 96.783 151 96.4739C151.081 96.1648 151.395 95.9774 151.707 96.065C152.458 96.2646 156.26 97.4133 157.497 100.587C157.611 100.884 157.465 101.217 157.168 101.334C157.099 101.361 157.029 101.373 156.958 101.373V101.371Z" fill="#312B2A"/>
<path d="M158.684 119.111C159.304 117.79 161.289 116.616 162.572 117.792C164.218 119.296 161.733 122.321 160.567 123.263C159.684 123.976 158.216 124.828 157.016 124.512C155.519 124.118 155.429 121.898 156.892 121.311C157.675 120.997 158.221 121.869 158.85 121.545C159.755 121.075 159.394 119.554 158.682 119.114L158.684 119.111Z" fill="#F15E59"/>
<path d="M122.323 110.856C122.582 109.51 121.718 107.524 120.092 107.711C118.007 107.952 118.229 111.62 118.594 112.978C118.872 114.007 119.519 115.463 120.606 115.884C121.965 116.407 123.257 114.767 122.47 113.516C122.048 112.846 121.15 113.209 120.85 112.615C120.419 111.761 121.536 110.8 122.321 110.856H122.323Z" fill="#F15E59"/>
<path d="M154.175 95.4663C151.944 93.4827 150.068 91.0975 148.703 88.447C148.759 88.5541 140.782 90.2408 139.992 90.4014C136.485 91.1072 132.929 91.6378 129.347 91.6841C128.469 91.6962 127.561 91.6719 126.766 91.2995C124.706 90.3357 125.062 87.5854 125.576 85.8233C125.874 84.8084 126.24 83.7838 126.915 82.9709C129.232 80.1792 134.98 81.0286 138.216 81.0189C142.167 81.0092 146.32 81.2282 149.988 82.8394C152.385 83.8933 154.685 85.1808 156.787 86.7458C159.067 88.4446 160.552 89.9365 161.062 92.8207C161.147 93.3074 161.204 93.8015 161.257 94.2931C161.384 95.4468 161.506 96.6029 161.64 97.7541C161.684 98.124 161.921 100.271 162.335 100.407C159.367 99.4334 156.516 97.5448 154.18 95.4687L154.175 95.4663Z" fill="#552B16"/>
<path d="M155.326 106.202C153.317 104.199 150.795 101.921 147.861 102.756C147.232 102.936 146.957 103.393 147.588 103.286C150.473 102.804 152.602 105.306 154.924 106.455C155.595 106.786 155.836 106.713 155.324 106.202H155.326Z" fill="#312B2A"/>
<path d="M131.449 98.6693C134.261 98.034 136.97 98.1046 138.638 100.397C138.994 100.889 138.926 101.381 138.524 100.942C136.69 98.937 133.695 99.5479 131.334 99.0562C130.654 98.9151 130.79 98.8177 131.449 98.6693Z" fill="#312B2A"/>
<path d="M141.391 110.481C140.655 110.315 139.333 109.483 139.587 107.521C139.836 105.596 141.623 104.936 142.535 104.856C142.769 104.834 142.972 105.007 142.994 105.238C143.013 105.469 142.842 105.674 142.611 105.696C142.53 105.703 140.648 105.903 140.426 107.631C140.206 109.329 141.523 109.648 141.579 109.66C141.806 109.712 141.95 109.938 141.899 110.164C141.847 110.391 141.621 110.534 141.394 110.483L141.391 110.481Z" fill="#F15E59"/>
<path d="M133.51 113.039L145.781 115.811C145.781 115.811 144.547 121.253 139.277 120.311C134.007 119.369 133.529 116.524 133.51 113.039Z" fill="#D55E4B"/>
<path d="M134.134 113.18C134.226 113.465 134.319 113.749 134.412 114.032C134.697 114.908 134.936 115.202 135.914 115.404C137.946 115.825 139.982 116.229 142.001 116.702C142.318 116.775 142.633 116.848 142.95 116.921C143.676 117.089 143.847 116.967 144.42 116.446L145.14 115.662L134.136 113.177L134.134 113.18Z" fill="#F8F7F9"/>
<path d="M160.577 193.205C160.582 192.419 160.594 191.633 160.616 190.847C160.726 186.896 160.457 181.228 162.518 177.38C163.815 174.956 167.442 175.228 168.373 177.818C168.483 178.122 168.571 178.419 168.639 178.687C169.549 182.26 169.003 186.349 168.59 189.987C167.942 195.726 166.791 201.4 165.925 207.105C165.757 208.217 165.454 212.089 163.908 212.228C162.44 212.362 161.767 209.619 161.621 208.614C160.879 203.515 160.543 198.357 160.577 193.205Z" fill="#009A96"/>
<path d="M163.428 211.396C163.428 211.396 163.418 211.396 163.413 211.396C163.259 211.388 163.14 211.254 163.147 211.101L164.81 179.563C164.818 179.407 164.942 179.293 165.106 179.298C165.259 179.305 165.379 179.439 165.371 179.592L163.708 211.13C163.701 211.279 163.576 211.396 163.428 211.396Z" fill="white"/>
<path d="M149.229 191.049C148.403 189.398 147.559 187.675 147.544 185.83C147.532 183.985 148.622 181.995 150.429 181.612C154.043 180.848 156.207 187.381 157.587 189.724C159.362 193.268 161.221 196.556 162.094 200.475C162.394 201.823 163.915 206.394 162.616 207.319C162.079 207.698 161.367 207.728 160.718 207.611C157.36 207.012 155.39 202.23 153.797 199.562C152.146 196.795 150.671 193.928 149.227 191.049H149.229Z" fill="#6BC4A3"/>
<path d="M161.535 206.895C161.445 206.895 161.36 206.842 161.323 206.752C159.596 202.376 150.371 185.816 150.278 185.648C150.217 185.538 150.256 185.4 150.366 185.339C150.478 185.278 150.615 185.317 150.676 185.426C150.768 185.594 160.009 202.181 161.747 206.586C161.794 206.703 161.735 206.834 161.618 206.881C161.591 206.89 161.562 206.895 161.535 206.895Z" fill="white"/>
<path d="M141.965 199.988C140.535 198.868 139.058 197.69 138.27 196.057C137.482 194.424 137.611 192.195 139.058 191.097C141.95 188.902 146.622 193.799 148.837 195.303C151.907 197.708 154.943 199.852 157.372 202.967C158.206 204.04 161.486 207.462 160.718 208.83C160.404 209.392 159.779 209.719 159.155 209.886C155.919 210.765 152.154 207.338 149.612 205.637C146.979 203.87 144.459 201.942 141.965 199.988Z" fill="#6BC4A3"/>
<path d="M159.482 208.93C159.426 208.93 159.372 208.911 159.328 208.869C155.948 205.705 140.772 194.857 140.621 194.746C140.521 194.675 140.496 194.536 140.569 194.434C140.64 194.334 140.779 194.31 140.882 194.383C141.035 194.492 156.233 205.357 159.635 208.543C159.726 208.628 159.731 208.767 159.645 208.857C159.601 208.903 159.543 208.928 159.482 208.928V208.93Z" fill="white"/>
<path d="M180.696 192.141C180.999 191.64 181.296 191.134 181.586 190.625C182.581 188.887 183.403 186.984 182.75 184.974C180.899 179.264 175.697 184.355 173.79 187.045C171.283 190.581 169.149 194.38 167.435 198.36C166.752 199.942 163.642 205.97 165.367 207.47C165.876 207.913 166.605 208.012 167.279 207.961C170.754 207.689 172.927 203.634 174.709 201.122C176.794 198.189 178.838 195.225 180.691 192.141H180.696Z" fill="#6BC4A3"/>
<path d="M166.544 207.141C166.51 207.141 166.474 207.134 166.439 207.117C166.327 207.058 166.283 206.925 166.342 206.81C168.566 202.475 179.701 186.419 179.813 186.259C179.887 186.156 180.028 186.132 180.13 186.2C180.233 186.271 180.26 186.412 180.189 186.517C180.077 186.677 168.959 202.709 166.749 207.017C166.708 207.095 166.63 207.141 166.547 207.141H166.544Z" fill="white"/>
<path d="M187.42 200.039C187.861 199.686 188.298 199.328 188.729 198.966C190.207 197.727 191.583 196.284 191.666 194.254C191.9 188.488 185.508 191.355 182.891 193.146C179.45 195.505 176.258 198.226 173.383 201.246C172.239 202.449 167.422 206.854 168.478 208.779C168.791 209.349 169.415 209.682 170.042 209.857C173.268 210.765 176.58 207.827 179.028 206.155C181.886 204.201 184.72 202.205 187.422 200.039H187.42Z" fill="#6BC4A3"/>
<path d="M169.722 208.886C169.663 208.886 169.605 208.862 169.561 208.816C169.478 208.726 169.485 208.589 169.573 208.507C173.026 205.333 188.429 194.546 188.583 194.436C188.681 194.368 188.817 194.393 188.888 194.49C188.956 194.59 188.932 194.724 188.834 194.794C188.678 194.901 173.3 205.674 169.868 208.828C169.827 208.867 169.773 208.886 169.72 208.886H169.722Z" fill="white"/>
<path d="M150.917 236.747L143.216 203.821H184.618L178.211 237.394L150.917 236.747Z" fill="#EF4851"/>
<path d="M181.506 209.908H146.33C145.879 209.908 145.513 209.543 145.513 209.093C145.513 208.643 145.879 208.278 146.33 208.278H181.506C181.957 208.278 182.323 208.643 182.323 209.093C182.323 209.543 181.957 209.908 181.506 209.908Z" fill="#582E4D"/>
<path d="M56.9948 249.797C59.4238 249.77 61.2943 251.861 63.5403 252.786C65.7864 253.71 69.3762 251.926 68.2276 249.79C67.8325 249.055 67.0131 248.675 66.2644 248.305C62.4088 246.397 58.8507 243.089 58.302 238.827C57.7533 234.566 61.5772 229.832 65.784 230.742C67.9691 231.214 69.6152 232.942 71.4735 234.181C73.3318 235.42 76.0315 236.111 77.663 234.585C75.5437 230.937 70.6492 229.438 68.9177 225.592C67.7057 222.9 68.9128 219.707 71.0394 217.843C72.0734 216.935 73.6635 216.02 75.1023 216.129C76.824 216.258 78.1068 217.862 79.7359 218.522C80.9747 219.023 82.377 219.24 83.6573 218.853C83.85 218.794 84.0524 218.714 84.1597 218.546C84.267 218.381 84.2621 218.171 84.2378 217.977C83.9183 215.343 80.787 214.435 79.9407 211.856C79.0725 209.215 79.514 206.155 80.8528 203.748C82.0819 201.541 84.089 199.655 86.5545 199.092C89.0201 198.53 91.91 199.569 93.0342 201.83C95.2608 206.311 90.1907 212.878 93.9268 216.21C95.8217 215.472 97.1142 213.749 98.6555 212.423C100.197 211.096 102.499 210.145 104.216 211.232C105.852 212.269 106.05 214.625 105.489 216.477C104.272 220.491 100.619 223.2 98.1482 226.592C96.9215 228.277 96.4704 231.38 98.5116 231.808C99.1847 231.949 99.8724 231.677 100.47 231.339C102.892 229.963 104.838 227.33 107.623 227.306C110.849 227.279 112.983 231.122 112.385 234.286C111.788 237.45 109.381 239.928 106.996 242.099C105.53 243.432 93.4025 251.428 94.5682 254.088C95.0998 255.3 96.7996 255.424 98.0653 255.034C105.103 252.876 106.025 259.067 101.555 263.344C98.0702 266.676 92.9513 268.608 88.786 271.013C84.3231 273.588 78.8287 275.45 73.6147 275.133C68.7275 274.839 64.0525 272.553 60.5627 269.126C58.1044 266.712 47.0058 249.914 56.9899 249.799L56.9948 249.797Z" fill="#ACC676"/>
<path d="M71.1979 315.516C71.1516 315.528 71.1004 315.533 71.0516 315.535C70.7126 315.535 70.4346 315.263 70.4322 314.924C70.3298 291.949 70.2103 265.907 78.8336 242.751C79.6213 240.638 80.4968 238.479 81.343 236.391C85.084 227.177 88.9518 217.648 86.8789 208.163C86.8057 207.832 87.0252 207.492 87.3496 207.433C87.6812 207.36 88.0105 207.572 88.0812 207.903C90.2346 217.76 86.2936 227.466 82.4819 236.854C81.6381 238.932 80.765 241.084 79.9846 243.179C71.4394 266.123 71.5564 292.046 71.6589 314.917C71.6589 315.207 71.4613 315.448 71.1931 315.516H71.1979Z" fill="#728441"/>
<path d="M85.7352 227.586C85.4548 227.656 85.1548 227.52 85.028 227.25C84.8841 226.943 85.0158 226.575 85.3231 226.432C87.5935 225.371 89.9883 224.202 92.1344 222.874C93.5196 222.014 94.7926 220.907 96.0217 219.834C97.4338 218.605 98.8945 217.332 100.572 216.378C100.867 216.212 101.243 216.312 101.411 216.609C101.58 216.906 101.477 217.278 101.18 217.446C99.6091 218.337 98.1946 219.568 96.8289 220.759C95.5608 221.864 94.2488 223.005 92.7807 223.915C90.5809 225.278 88.1471 226.466 85.8425 227.544C85.8059 227.561 85.7694 227.573 85.7303 227.583L85.7352 227.586Z" fill="#728441"/>
<path d="M102.355 178.222C102.291 178.222 102.228 178.191 102.189 178.135C102.128 178.042 102.152 177.92 102.245 177.859C103.542 176.998 103.938 174.851 103.94 174.829C103.96 174.722 104.059 174.644 104.169 174.669C104.277 174.688 104.35 174.79 104.33 174.898C104.313 174.992 103.903 177.232 102.465 178.188C102.43 178.21 102.391 178.222 102.355 178.222Z" fill="#312B2A"/>
<path d="M136.704 146.193C134.531 146.193 132.019 145.54 129.298 143.654C129.125 143.532 129.081 143.294 129.203 143.121C129.322 142.946 129.561 142.904 129.737 143.026C137.975 148.731 143.945 142.637 144.196 142.374C144.342 142.221 144.586 142.216 144.737 142.359C144.891 142.505 144.898 142.746 144.752 142.9C144.706 142.946 141.548 146.19 136.704 146.19V146.193Z" fill="#F8EDE8"/>
<path d="M188.442 49.172C189.7 47.1495 190.929 44.959 190.924 42.5763C190.917 40.196 189.198 37.655 186.813 37.6015C185.169 37.565 183.732 38.6529 182.511 39.7506C179.896 42.0992 177.733 44.37 176.397 47.5851C176.06 45.8595 176.272 44.0828 176.368 42.328C176.529 39.3904 175.599 33.9483 171.417 34.6298C170.156 34.8342 169.12 35.7907 168.498 36.903C167.876 38.0152 167.603 39.2857 167.337 40.5318C166.218 45.7987 166.666 51.9515 166.996 57.3157C167.159 60.0075 167.147 69.4119 171.119 69.9401C175.865 70.5656 186.01 52.5964 188.442 49.1671V49.172Z" fill="#EF4851"/>
<path d="M153.661 18.6442C153.512 16.8821 153.268 15.0324 152.205 13.6159C151.142 12.2018 148.988 11.4497 147.544 12.4744C146.549 13.1802 146.179 14.4653 145.94 15.6603C145.428 18.2158 145.15 20.528 145.784 23.0373C144.816 22.1587 144.152 21.0075 143.428 19.9195C142.216 18.099 139.243 15.2684 137.055 17.5271C136.397 18.2085 136.204 19.2356 136.329 20.1751C136.453 21.1146 136.856 21.9907 137.251 22.8499C138.926 26.4836 141.93 29.9494 144.513 32.9991C145.808 34.53 149.983 40.1375 152.585 38.6918C155.69 36.9614 153.739 21.7644 153.663 18.6442H153.661Z" fill="#EF4851"/>
<g clip-path="url(#clip1_4355_33487)">
<path d="M322.211 15.1861L321.634 16.9186L321.666 16.9275L322.244 15.195L322.211 15.1861Z" fill="white"/>
<path d="M322.244 15.1865L322.212 15.1964L322.863 16.9289L322.895 16.919L322.244 15.1865Z" fill="white"/>
<path d="M322.245 15.1912H322.211V16.9237H322.245V15.1912Z" fill="white"/>
<path d="M322.995 16.8929C322.995 17.1285 322.668 17.3196 322.265 17.3196C321.861 17.3196 321.534 17.1285 321.534 16.8929H322.995Z" fill="white"/>
<path opacity="0.11" d="M321.535 16.9161C321.534 16.9047 321.534 16.9047 321.534 16.8929H322.995C322.989 17.0294 322.921 17.0861 322.869 17.1327L321.535 16.9164V16.9161Z" fill="white"/>
<path d="M322.228 15.2068C322.184 15.2068 322.149 15.1747 322.149 15.1349C322.149 15.0952 322.184 15.063 322.228 15.063C322.272 15.063 322.307 15.0952 322.307 15.1349C322.307 15.1747 322.272 15.2068 322.228 15.2068ZM322.228 15.0938C322.203 15.0938 322.183 15.1121 322.183 15.1349C322.183 15.1577 322.203 15.176 322.228 15.176C322.253 15.176 322.273 15.1577 322.273 15.1349C322.273 15.1121 322.253 15.0938 322.228 15.0938Z" fill="white"/>
<path d="M322.701 14.9017C322.694 14.8875 322.678 14.8654 322.661 14.8675C322.649 14.8689 322.64 14.8779 322.635 14.8875C322.63 14.8972 322.628 14.9079 322.623 14.9179C322.615 14.9373 322.598 14.9539 322.577 14.9629C322.576 14.9635 322.574 14.9642 322.573 14.9649C322.435 14.9867 322.015 15.0416 321.306 14.8675C321.207 14.8433 321.076 14.8109 320.871 14.7784C320.732 14.7563 320.444 14.7169 320.075 14.7138C320.034 14.7134 320.001 14.7138 319.979 14.7138C319.979 14.7708 319.979 14.8278 319.979 14.8851C320.204 14.8858 320.543 14.8979 320.954 14.9566C321.125 14.9812 321.214 14.9946 321.329 15.0185C322.017 15.1632 322.582 15.0665 322.582 15.0665C322.598 15.0648 322.624 15.0596 322.65 15.0423C322.698 15.0091 322.722 14.9452 322.701 14.9021L322.701 14.9017Z" fill="white"/>
<path d="M317.751 15.1873L317.719 15.1962L318.296 16.9288L318.329 16.9199L317.751 15.1873Z" fill="white"/>
<path d="M317.719 15.1859L317.068 16.9185L317.1 16.9284L317.751 15.1959L317.719 15.1859Z" fill="white"/>
<path d="M317.752 15.1912H317.718V16.9237H317.752V15.1912Z" fill="white"/>
<path d="M316.968 16.8929C316.968 17.1285 317.295 17.3196 317.698 17.3196C318.102 17.3196 318.428 17.1285 318.428 16.8929H316.968Z" fill="white"/>
<path opacity="0.11" d="M318.428 16.9161C318.429 16.9047 318.428 16.9047 318.428 16.8929H316.968C316.974 17.0294 317.042 17.0861 317.094 17.1327L318.428 16.9164V16.9161Z" fill="white"/>
<path d="M317.735 15.2068C317.779 15.2068 317.814 15.1747 317.814 15.1349C317.814 15.0952 317.779 15.063 317.735 15.063C317.691 15.063 317.656 15.0952 317.656 15.1349C317.656 15.1747 317.691 15.2068 317.735 15.2068ZM317.735 15.0938C317.76 15.0938 317.78 15.1121 317.78 15.1349C317.78 15.1577 317.76 15.176 317.735 15.176C317.71 15.176 317.69 15.1577 317.69 15.1349C317.69 15.1121 317.71 15.0938 317.735 15.0938Z" fill="white"/>
<path d="M317.262 14.9017C317.267 14.8844 317.282 14.8651 317.302 14.8675C317.313 14.8689 317.323 14.8779 317.328 14.8875C317.332 14.8972 317.335 14.9079 317.339 14.9179C317.348 14.9373 317.365 14.9539 317.385 14.9629C317.387 14.9635 317.388 14.9642 317.39 14.9649C317.528 14.9867 317.948 15.0416 318.657 14.8675C318.756 14.8433 318.886 14.8109 319.092 14.7784C319.231 14.7563 319.519 14.7169 319.888 14.7138C319.928 14.7134 319.961 14.7138 319.983 14.7138C319.982 14.7708 319.98 14.8278 319.979 14.8851C319.674 14.8793 319.27 14.8958 318.799 14.986C318.709 15.0033 318.709 15.0029 318.635 15.0185C317.946 15.1632 317.381 15.0665 317.381 15.0665C317.381 15.0665 317.333 15.0551 317.313 15.0423C317.307 15.0378 317.3 15.0326 317.295 15.0271C317.261 14.9943 317.249 14.9452 317.262 14.9021L317.262 14.9017Z" fill="white"/>
</g>
<rect x="314" y="9" width="16" height="16" rx="2" fill="#EABF4E"/>
<path d="M317.198 14.6305C317.253 14.6681 317.301 14.6992 317.347 14.7331C317.752 15.0329 318.213 15.1352 318.725 15.0461C318.773 15.0378 318.819 15.0205 318.864 15.0029C318.902 14.988 318.945 14.9697 318.942 14.9244C318.939 14.8802 318.898 14.8623 318.856 14.8529C318.747 14.8284 318.636 14.8053 318.526 14.7828C318.158 14.7075 317.791 14.6305 317.451 14.4712C316.929 14.2266 316.588 13.8514 316.437 13.335C316.42 13.278 316.413 13.2206 316.421 13.1619C316.431 13.0866 316.473 13.0666 316.545 13.1042C316.647 13.1578 316.729 13.2348 316.818 13.3029C317.327 13.6915 317.91 13.9188 318.576 13.9578C318.622 13.9606 318.701 13.9914 318.71 13.9288C318.717 13.8805 318.634 13.8874 318.591 13.8753C317.986 13.7064 317.399 13.4998 316.891 13.1484C316.283 12.729 315.96 12.1808 316.015 11.4726C316.023 11.3662 316.038 11.2608 316.084 11.1617C316.161 10.9941 316.301 10.9544 316.464 11.0605C316.635 11.1707 316.767 11.3171 316.901 11.4612C317.299 11.891 317.701 12.3176 318.198 12.66C318.807 13.08 319.484 13.3716 320.227 13.5357C320.402 13.5744 320.579 13.6107 320.757 13.6397C320.852 13.6549 320.865 13.6891 320.834 13.7654C320.71 14.066 320.669 14.3765 320.714 14.6951C320.744 14.9117 320.881 15.0599 321.059 15.0785C321.23 15.0965 321.408 14.9732 321.477 14.7614C321.545 14.5517 321.583 14.3341 321.646 14.1226C321.75 13.7661 321.891 13.6884 322.294 13.7585C322.394 13.7758 322.489 13.8103 322.586 13.8394C322.618 13.849 322.657 13.8611 322.664 13.8932C322.69 14 322.787 14.0231 322.88 14.0518C322.949 14.0732 323.013 14.1033 323.034 14.1755C323.042 14.2031 323.037 14.2311 323.01 14.2498C322.982 14.2681 322.961 14.2511 322.939 14.2366C322.792 14.1361 322.636 14.1966 322.484 14.2204C322.452 14.2252 322.437 14.2567 322.437 14.2853C322.44 14.5092 322.452 14.7331 322.609 14.9213C322.7 15.0295 322.814 15.11 322.977 15.0727C323.14 15.0353 323.237 14.932 323.269 14.788C323.347 14.4432 323.296 14.1071 323.171 13.7772C323.127 13.6597 323.129 13.6583 323.27 13.6369C324.166 13.5001 324.99 13.2041 325.726 12.7163C326.196 12.405 326.583 12.0167 326.957 11.616C327.095 11.4671 327.231 11.3151 327.385 11.179C327.423 11.1455 327.461 11.1119 327.503 11.0833C327.703 10.9461 327.872 10.999 327.938 11.2177C328.01 11.4571 328 11.6989 327.961 11.9414C327.88 12.434 327.581 12.8057 327.167 13.1097C326.649 13.4891 326.041 13.6994 325.415 13.8767C325.404 13.8798 325.392 13.8801 325.382 13.885C325.349 13.9008 325.282 13.8901 325.292 13.9409C325.299 13.9779 325.357 13.9661 325.393 13.9641C326.014 13.9319 326.568 13.7381 327.056 13.3875C327.168 13.3067 327.278 13.2231 327.391 13.1429C327.431 13.1146 327.471 13.0669 327.529 13.0983C327.586 13.1298 327.576 13.1882 327.567 13.2386C327.487 13.6666 327.253 14.0097 326.877 14.2767C326.44 14.5873 325.919 14.6996 325.393 14.7984C325.312 14.8136 325.23 14.8281 325.15 14.8474C325.103 14.8588 325.048 14.8744 325.045 14.9279C325.043 14.9814 325.099 15.0011 325.143 15.0157C325.342 15.0803 325.548 15.0944 325.756 15.0754C326.113 15.0426 326.423 14.9134 326.695 14.703C326.721 14.683 326.748 14.6346 326.785 14.665C326.815 14.6895 326.779 14.7289 326.762 14.7576C326.345 15.4665 325.565 15.9356 324.621 15.8617C324.369 15.842 324.118 15.8137 323.866 15.8023C323.355 15.7791 323.016 15.9722 322.815 16.3992C322.776 16.4828 322.727 16.5039 322.634 16.4921C322.199 16.4365 321.762 16.4341 321.326 16.4953C321.249 16.506 321.209 16.4797 321.178 16.4165C320.944 15.9425 320.622 15.7681 320.052 15.7998C319.77 15.8157 319.491 15.8644 319.207 15.8648C318.289 15.8655 317.657 15.4478 317.217 14.7479C317.2 14.7199 317.175 14.6899 317.197 14.6318L317.198 14.6305Z" fill="#151513"/>
<path d="M321.999 18.6304C321.953 18.7157 321.915 18.7972 321.867 18.8729C321.779 19.0111 321.639 19.0881 321.471 19.1251C321.436 19.133 321.394 19.1434 321.368 19.1071C321.345 19.0739 321.376 19.0494 321.396 19.0256C321.425 18.99 321.455 18.9548 321.487 18.9206C321.718 18.6677 321.776 18.3778 321.709 18.0617C321.705 18.0417 321.699 18.0213 321.691 18.0023C321.681 17.9778 321.674 17.9426 321.636 17.9481C321.605 17.9526 321.608 17.9847 321.604 18.0079C321.585 18.1229 321.574 18.2397 321.544 18.3526C321.48 18.6007 321.326 18.7862 321.055 18.8767C321.023 18.8871 320.989 18.8912 320.955 18.8957C320.926 18.8995 320.893 18.9071 320.875 18.876C320.859 18.8494 320.882 18.8301 320.899 18.8131C320.939 18.7724 320.982 18.7333 321.023 18.6943C321.261 18.4708 321.391 18.2044 321.406 17.8935C321.407 17.8631 321.404 17.832 321.399 17.8013C321.396 17.7771 321.387 17.7522 321.354 17.7501C321.328 17.7484 321.312 17.7653 321.302 17.7843C321.277 17.8337 321.25 17.8835 321.229 17.9346C321.165 18.0863 321.081 18.2272 320.975 18.3575C320.875 18.4798 320.74 18.5371 320.573 18.5281C320.521 18.5254 320.463 18.5129 320.442 18.4621C320.418 18.4072 320.465 18.3706 320.504 18.3409C320.685 18.2062 320.872 18.078 321.005 17.899C321.179 17.6659 321.31 17.4182 321.306 17.1276C321.305 17.0575 321.336 17.0216 321.415 17.0105C321.81 16.9552 322.204 16.9646 322.598 17.0105C322.658 17.0174 322.695 17.0457 322.696 17.1045C322.702 17.6192 323.001 17.9851 323.425 18.2873C323.449 18.3043 323.473 18.3205 323.495 18.3395C323.533 18.3723 323.585 18.4038 323.564 18.459C323.541 18.5205 323.475 18.5288 323.413 18.5295C323.266 18.5312 323.143 18.4842 323.047 18.3775C322.917 18.2321 322.831 18.0652 322.755 17.8928C322.745 17.8707 322.736 17.8479 322.724 17.8268C322.705 17.7947 322.694 17.7436 322.645 17.7498C322.585 17.7574 322.598 17.8141 322.598 17.8514C322.597 18.1288 322.692 18.3765 322.886 18.591C322.953 18.6649 323.026 18.7337 323.097 18.8052C323.117 18.8252 323.146 18.8453 323.131 18.8753C323.112 18.9112 323.073 18.9002 323.04 18.8964C322.775 18.8646 322.52 18.6314 322.456 18.3568C322.431 18.2466 322.419 18.1336 322.399 18.022C322.394 17.9944 322.408 17.9512 322.359 17.9502C322.322 17.9495 322.319 17.9875 322.311 18.0123C322.227 18.2756 322.264 18.5281 322.403 18.7679C322.455 18.8587 322.523 18.942 322.6 19.0176C322.625 19.0422 322.659 19.0701 322.637 19.1071C322.611 19.1489 322.563 19.1358 322.525 19.1268C322.296 19.0733 322.14 18.9458 322.06 18.7433C322.046 18.7088 322.048 18.668 321.999 18.6311L321.999 18.6304Z" fill="#151513"/>
<g clip-path="url(#clip2_4355_33487)">
<path d="M316.019 20.4699C316.019 20.4332 316.055 20.4003 316.095 20.4003H316.22C316.26 20.4003 316.296 20.4332 316.296 20.4699V22.8964C316.296 22.933 316.26 22.966 316.22 22.966H316.095C316.055 22.966 316.019 22.933 316.019 22.8964V20.4699Z" fill="#151513"/>
<path d="M317.596 22.035C317.769 22.035 317.938 22.0826 317.938 22.0826C317.942 21.8114 317.906 21.6867 317.677 21.6867C317.448 21.6867 317.267 21.7418 317.195 21.7674C317.155 21.7821 317.131 21.7637 317.119 21.7307L317.087 21.6391C317.071 21.5951 317.095 21.5732 317.131 21.5585C317.155 21.5474 317.388 21.4631 317.689 21.4631C318.098 21.4631 318.198 21.6538 318.198 22.0826V22.8963C318.198 22.933 318.162 22.9659 318.122 22.9659H318.046C318.002 22.9659 317.99 22.944 317.978 22.9109L317.946 22.8119C317.861 22.8889 317.697 23.0026 317.448 23.0026C317.167 23.0026 316.954 22.8156 316.954 22.5224C316.954 22.2292 317.183 22.0349 317.596 22.0349V22.035ZM317.492 22.7827C317.693 22.7827 317.865 22.6692 317.934 22.5775V22.288C317.885 22.2624 317.773 22.2293 317.596 22.2293C317.372 22.2293 317.211 22.332 317.211 22.5225C317.211 22.6692 317.32 22.7827 317.492 22.7827Z" fill="#151513"/>
<path d="M318.804 21.5841C318.788 21.5327 318.804 21.4998 318.865 21.4998H318.989C319.025 21.4998 319.053 21.5181 319.061 21.5401L319.354 22.5078H319.358L319.812 21.4998C319.82 21.4814 319.844 21.4631 319.88 21.4631H319.9C319.936 21.4631 319.96 21.4815 319.968 21.4998L320.418 22.5115H320.422L320.711 21.5401C320.719 21.5181 320.747 21.4998 320.779 21.4998H320.903C320.964 21.4998 320.98 21.5327 320.964 21.5841L320.526 22.9659C320.518 22.9879 320.49 23.0026 320.458 23.0026H320.438C320.402 23.0026 320.378 22.9842 320.37 22.9659L319.88 21.8664L319.406 22.9659C319.398 22.9843 319.374 23.0026 319.338 23.0026H319.318C319.282 23.0026 319.258 22.9879 319.25 22.9659L318.804 21.5841H318.804Z" fill="#151513"/>
<path d="M321.525 21.117C321.525 21.018 321.61 20.941 321.714 20.941C321.818 20.941 321.907 21.018 321.907 21.117C321.907 21.216 321.822 21.2893 321.714 21.2893C321.606 21.2893 321.525 21.2123 321.525 21.117ZM321.582 21.5695C321.582 21.5329 321.618 21.4999 321.658 21.4999H321.782C321.822 21.4999 321.858 21.5329 321.858 21.5695V22.8964C321.858 22.933 321.822 22.966 321.782 22.966H321.658C321.618 22.966 321.582 22.933 321.582 22.8964V21.5695Z" fill="white"/>
<path d="M322.629 21.5695C322.629 21.5328 322.665 21.4999 322.705 21.4999H322.782C322.818 21.4999 322.838 21.5146 322.846 21.5439L322.882 21.6575C322.882 21.6575 323.111 21.4631 323.444 21.4631C323.909 21.4631 324.066 21.7418 324.066 22.1229V22.8963C324.066 22.933 324.03 22.9659 323.99 22.9659H323.861C323.821 22.9659 323.785 22.933 323.785 22.8963V22.1229C323.785 21.8443 323.649 21.7088 323.424 21.7088C323.123 21.7088 322.906 21.9177 322.906 21.9177V22.8963C322.906 22.933 322.87 22.9659 322.83 22.9659H322.706C322.665 22.9659 322.629 22.933 322.629 22.8963V21.5695H322.629Z" fill="white"/>
<path d="M324.676 22.8598L325.463 21.7418V21.7308H324.788C324.748 21.7308 324.716 21.6978 324.716 21.6612V21.5695C324.716 21.5292 324.748 21.4999 324.788 21.4999H325.796C325.856 21.4999 325.896 21.5513 325.864 21.5989L325.097 22.7242V22.7352H325.715C325.76 22.7352 325.792 22.7645 325.792 22.8048V22.8965C325.792 22.9331 325.76 22.9661 325.715 22.9661H324.752C324.712 22.9661 324.676 22.9331 324.676 22.8965V22.8599V22.8598Z" fill="white"/>
<path d="M327.164 21.4631C327.61 21.4631 327.963 21.815 327.963 22.2292C327.963 22.6433 327.61 23.0026 327.164 23.0026C326.719 23.0026 326.366 22.6507 326.366 22.2292C326.366 21.8077 326.719 21.4631 327.164 21.4631ZM327.164 22.7644C327.457 22.7644 327.686 22.5261 327.686 22.2292C327.686 21.9323 327.457 21.705 327.164 21.705C326.871 21.705 326.643 21.9396 326.643 22.2292C326.643 22.5187 326.871 22.7644 327.164 22.7644Z" fill="white"/>
</g>
</g>
<defs>
<linearGradient id="paint0_linear_4355_33487" x1="220.189" y1="111.666" x2="231.085" y2="111.666" gradientUnits="userSpaceOnUse">
<stop stop-color="#F69470"/>
<stop offset="0.1" stop-color="#F69774"/>
<stop offset="0.63" stop-color="#F7A586"/>
<stop offset="1" stop-color="#F8AB8D"/>
</linearGradient>
<linearGradient id="paint1_linear_4355_33487" x1="180.618" y1="127.318" x2="194.273" y2="127.318" gradientUnits="userSpaceOnUse">
<stop offset="0.18" stop-color="#F8AB8D"/>
<stop offset="0.3" stop-color="#F7A586"/>
<stop offset="0.7" stop-color="#F69875"/>
<stop offset="1" stop-color="#F69470"/>
</linearGradient>
<linearGradient id="paint2_linear_4355_33487" x1="154.919" y1="117.672" x2="162.937" y2="123.662" gradientUnits="userSpaceOnUse">
<stop stop-color="#F69470"/>
<stop offset="0.1" stop-color="#F69774"/>
<stop offset="0.63" stop-color="#F7A586"/>
<stop offset="1" stop-color="#F8AB8D"/>
</linearGradient>
<linearGradient id="paint3_linear_4355_33487" x1="116.973" y1="108.254" x2="126.418" y2="115.31" gradientUnits="userSpaceOnUse">
<stop offset="0.18" stop-color="#F8AB8D"/>
<stop offset="0.3" stop-color="#F7A586"/>
<stop offset="0.7" stop-color="#F69875"/>
<stop offset="1" stop-color="#F69470"/>
</linearGradient>
<clipPath id="clip0_4355_33487">
<rect width="350" height="218.75" fill="white"/>
</clipPath>
<clipPath id="clip1_4355_33487">
<rect width="11.9859" height="8.27329" fill="white" transform="translate(314.014 9.04663)"/>
</clipPath>
<clipPath id="clip2_4355_33487">
<rect width="11.9038" height="2.6087" fill="white" transform="translate(316.023 20.3898)"/>
</clipPath>
</defs>
</svg>
