<svg width="350" height="219" viewBox="0 0 350 219" fill="none" xmlns="http://www.w3.org/2000/svg">
<g clip-path="url(#clip0_4355_31540)">
<rect width="350" height="218.75" fill="white"/>
<g clip-path="url(#clip1_4355_31540)">
<path d="M173.117 297.875C253.264 297.875 318.235 235.223 318.235 157.938C318.235 80.6522 253.264 18 173.117 18C92.9713 18 28 80.6522 28 157.938C28 235.223 92.9713 297.875 173.117 297.875Z" fill="#FFF5E6"/>
<path d="M159.049 19.7121C158.853 19.6151 158.65 19.518 158.455 19.421C158.371 19.3863 158.287 19.3447 158.196 19.3032C149.436 15.5115 138.518 20.1973 133.426 30.1166C128.333 40.0359 130.925 51.5565 139.161 56.3601C139.238 56.4087 139.328 56.4503 139.405 56.4988C139.601 56.6028 139.796 56.7067 139.992 56.8107C148.878 61.3025 160.355 56.6443 165.615 46.3993C170.875 36.1542 167.934 24.2039 159.049 19.7052V19.7121ZM142.081 50.6623L142.06 50.6484C136.555 47.2311 134.872 39.3844 138.35 32.6121C141.829 25.8398 149.213 22.5819 155.234 24.9941L155.255 25.008C155.36 25.0496 155.458 25.0842 155.556 25.1327C155.751 25.209 155.94 25.2991 156.129 25.3961C162.297 28.5154 164.344 36.8058 160.69 43.9177C157.037 51.0297 149.08 54.2598 142.912 51.1406C142.723 51.0435 142.535 50.9465 142.36 50.8356C142.262 50.787 142.178 50.7316 142.081 50.6692V50.6623Z" fill="#FFBC36"/>
<path d="M165.622 46.4062C160.362 56.6513 148.885 61.3094 139.999 56.8177C139.803 56.7206 139.608 56.6097 139.412 56.5057C139.335 56.4572 139.245 56.4156 139.168 56.3671C147.921 60.1588 158.846 55.4729 163.938 45.5536C169.031 35.6343 166.439 24.1138 158.203 19.3101C158.287 19.3448 158.371 19.3933 158.462 19.428C158.657 19.5181 158.86 19.6151 159.056 19.7191C167.941 24.2108 170.882 36.1681 165.622 46.4132V46.4062Z" fill="#E08F00"/>
<path d="M142.06 50.6554C141.752 50.5445 141.466 50.4058 141.173 50.2603C135.004 47.141 132.958 38.8507 136.611 31.7387C140.264 24.6268 148.221 21.3966 154.389 24.5159C154.683 24.6614 154.962 24.8209 155.234 25.0011C149.213 22.5958 141.829 25.8467 138.35 32.619C134.872 39.3913 136.555 47.238 142.06 50.6554Z" fill="#E08F00"/>
<path d="M204.636 57.0114C204.461 57.1362 204.273 57.2679 204.091 57.3927C204.014 57.4343 203.938 57.4967 203.854 57.5452C195.813 62.6816 184.287 59.7772 177.665 50.7937C171.93 43.0094 171.699 33.1455 176.512 26.7129L176.869 27.7041H178.971L179.879 28.3973L181.668 27.7665L182.569 29.3677L182.604 29.4301C182.01 29.9846 181.486 30.6016 181.039 31.267C180.019 32.7781 179.369 34.5249 179.104 36.3965C178.887 37.9631 178.943 39.5989 179.279 41.2418C179.383 41.7408 179.516 42.2399 179.663 42.7321C179.691 42.8222 179.726 42.9123 179.754 43.0024C179.782 43.1064 179.823 43.2104 179.858 43.3143C180.103 44.0075 180.396 44.6799 180.746 45.3384C181.004 45.8306 181.29 46.3227 181.598 46.801C181.772 47.0575 181.947 47.3139 182.129 47.5566C186.655 53.6911 194.465 55.736 200.026 52.4088L200.04 52.3949C200.137 52.3394 200.228 52.2909 200.319 52.2285C200.494 52.1176 200.668 51.9929 200.843 51.875C206.431 47.82 207.123 39.3078 202.366 32.8682C197.623 26.4217 189.24 24.4947 183.652 28.5498C183.61 28.5844 183.561 28.626 183.505 28.6607V26.4287L182.059 25.4097H180.732L180.389 24.2175L179.097 23.9818H179.104C179.181 23.9125 179.258 23.8639 179.321 23.8015C179.495 23.6698 179.677 23.5312 179.851 23.4064C187.906 17.5561 199.984 20.3496 206.823 29.6311C213.661 38.9127 212.676 51.1749 204.622 57.0184L204.636 57.0114Z" fill="#FFBC36"/>
<path d="M206.83 29.6245C213.668 38.9061 212.683 51.1683 204.636 57.0117C204.461 57.1435 204.273 57.2682 204.091 57.393C204.014 57.4415 203.938 57.497 203.861 57.5455C211.216 51.501 211.936 39.7171 205.307 30.7267C198.684 21.7362 187.151 18.8457 179.111 23.9682C179.181 23.9128 179.258 23.8504 179.328 23.7949C179.502 23.6632 179.677 23.5246 179.858 23.3998C187.906 17.5564 199.984 20.3429 206.83 29.6245Z" fill="#E08F00"/>
<path d="M200.026 52.4021C199.781 52.617 199.537 52.825 199.264 53.0121C193.683 57.0672 185.3 55.1402 180.55 48.7006C175.807 42.2541 176.491 33.7489 182.073 29.6938C182.24 29.576 182.401 29.4581 182.562 29.3611L182.597 29.4235C182.003 29.978 181.479 30.5949 181.032 31.2604C179.998 32.7646 179.348 34.5183 179.097 36.3899C178.873 37.9564 178.929 39.5992 179.272 41.2351C179.369 41.7342 179.495 42.2333 179.656 42.7254C179.684 42.8156 179.719 42.9057 179.747 42.9958C179.775 43.0998 179.817 43.2037 179.851 43.3077C180.096 44.0009 180.389 44.6733 180.739 45.3318C180.997 45.8239 181.283 46.3161 181.591 46.7944C181.765 47.0508 181.94 47.3073 182.122 47.5499C186.648 53.6845 194.458 55.7294 200.019 52.4021H200.026Z" fill="#E08F00"/>
<path d="M177.588 25.1604L174.494 25.8744L174.005 23.58L177.588 25.1604Z" fill="#FFBC36"/>
<path d="M177.588 25.1605L174.843 23.3235L174.005 23.58L177.588 25.1605Z" fill="#E08F00"/>
<path d="M178.028 23.2265L176.065 21.8887L176.484 18L178.839 18.5961L177.84 21.9303L178.028 23.2265Z" fill="#FFBC36"/>
<path d="M178.028 23.2265L178.154 21.9164L179.341 19.1368L178.839 18.5961L177.84 21.9303L178.028 23.2265Z" fill="#E08F00"/>
<path d="M183.295 30.4286L184.581 32.5705L184.21 34.2202L183.889 34.1301L183.295 30.4286Z" fill="#E08F00"/>
<path d="M183.295 30.4286L182.101 32.8339L183.889 34.1301L184.273 32.8408L183.295 30.4286Z" fill="#FFBC36"/>
<path d="M317.934 158.95C312.06 177.721 300.457 194.211 287.771 209.309C266.227 234.942 240.996 257.498 213.103 276.144C208.464 279.257 203.742 282.251 198.957 285.142L181.724 259.002L192.356 247.884L171.092 206.467L188.101 188.056L178.678 164.28L184.427 157.757L171.092 121.712L186.257 90.1454C204.077 73.4469 225.544 58.211 250.021 57.088C260.744 56.6028 271.383 59.0566 280.995 63.7286C292.926 69.5235 303.293 78.7289 310.299 89.9582C322.964 110.24 325.06 136.172 317.92 158.95H317.934Z" fill="#E25D5D"/>
<g style="mix-blend-mode:multiply">
<path d="M317.934 158.95C312.06 177.721 300.457 194.211 287.771 209.309C266.227 234.942 240.996 257.498 213.103 276.144C226.564 260.402 240.025 244.654 253.479 228.912C267.576 212.407 281.784 195.771 292.402 176.875C303.027 157.979 309.971 136.449 308.343 114.871C306.848 94.9907 297.264 75.1798 281.002 63.7286C292.933 69.5236 303.3 78.7289 310.306 89.9583C322.971 110.24 325.067 136.172 317.927 158.95H317.934Z" fill="#E5C1C1"/>
</g>
<path d="M174.368 282.258L169.52 290.687C129.416 269.788 93.5103 240.994 64.4994 206.474C52.1699 191.799 40.8953 175.766 35.1742 157.515C28.2305 135.361 30.2773 110.157 42.5928 90.4434C54.9013 70.7227 77.8488 57.4138 101.194 58.4743C125.001 59.5626 145.867 74.3826 163.198 90.6167L150.882 119.688L161.906 149.523L155.395 155.983L166.914 174.553L149.381 190.787L167.913 235.531L156.394 245.471L174.368 282.258Z" fill="#E25D5D"/>
<g style="mix-blend-mode:multiply">
<path d="M169.52 290.68V281.01L147.068 241.167L158.301 229.286L140.46 187.342L155.234 170.394L146.733 152.434L154.99 145.01L142.22 116.008L163.198 90.6098L150.889 119.688L161.913 149.516L155.395 155.983L166.921 174.553L149.381 190.78L167.913 235.524L156.394 245.464L174.368 282.258L169.52 290.68Z" fill="#E5C1C1"/>
</g>
<path d="M74.0347 202.127C77.6812 168.273 82.2008 146.798 82.2008 146.798L104.268 148.074L99.8043 168.488C96.8494 182.386 93.8387 197.927 91.0724 212.899L105.078 275.687C105.078 275.687 102.186 280.643 95.6689 278.868L77.0594 227.574C74.1325 219.498 73.0986 210.799 74.0347 202.134V202.127Z" fill="#1A3C59"/>
<path d="M124.785 146.133L104.457 145.003L100.014 165.417C100.845 165.452 106.881 228.697 108.494 279.111C111.505 281.336 114.998 280.955 118.533 279.132C118.533 279.132 124.31 216.088 124.778 146.133H124.785Z" fill="#1A3C59"/>
<path d="M81.3066 148.413C81.3066 148.413 82.592 158.423 77.0105 159.026C71.4291 159.629 68.3205 156.87 68.9352 154.451C69.55 152.032 70.507 154.195 70.7585 154.534C71.003 154.881 71.1706 149.439 72.5957 147.977C74.0207 146.507 80.2937 147.291 81.3136 148.413H81.3066Z" fill="#EFAD9C"/>
<path d="M58.7643 115.543C72.6725 87.8926 85.0439 79.5329 85.0439 79.5329L80.8106 100.841C76.0535 105.756 71.7085 111.814 67.8874 118.08L81.2996 148.42L75.802 152.441L58.8411 121.685C57.8073 119.813 57.7793 117.519 58.7713 115.55L58.7643 115.543Z" fill="#EFAD9C"/>
<path d="M91.5613 74.75C79.176 79.526 69.3334 93.5488 69.3334 93.5488L81.2577 103.364L87.6215 97.0563L91.5613 74.75Z" fill="#317CAF"/>
<path d="M125.679 148.413C125.679 148.413 123.625 158.423 129.164 159.026C134.704 159.629 138.022 156.87 137.596 154.451C137.17 152.032 136.045 154.195 135.766 154.534C135.493 154.881 135.745 149.439 134.432 147.977C133.118 146.507 126.789 147.291 125.686 148.413H125.679Z" fill="#EFAD9C"/>
<path d="M150.729 115.543C138.937 87.8926 127.209 79.5329 127.209 79.5329L129.814 100.841C134.201 105.756 138.078 111.814 141.417 118.08L125.679 148.42L130.869 152.441L150.191 121.685C151.365 119.813 151.574 117.519 150.736 115.55L150.729 115.543Z" fill="#EFAD9C"/>
<path d="M121.061 74.75C133.083 79.526 141.843 93.5488 141.843 93.5488L129.171 103.364L122.836 96.5641L121.061 74.75Z" fill="#317CAF"/>
<path d="M125.728 149.467C125.728 149.467 112.148 156.094 81.1738 149.536C82.2845 139.7 83.018 128.88 83.975 118.628C84.0938 117.373 84.2055 116.132 84.3313 114.899C84.492 113.353 84.6526 111.828 84.8203 110.331C84.96 109.104 85.0997 107.884 85.2604 106.691C85.3931 105.638 85.5398 104.598 85.6795 103.579C88.0755 86.9776 91.5543 74.75 91.5543 74.75L101.593 71.5337H111.344L121.068 74.75C121.068 74.75 122.689 88.5927 124.03 108.189C124.121 109.561 124.212 110.961 124.309 112.389C124.407 113.997 124.512 115.633 124.603 117.304C124.666 118.558 124.743 119.827 124.812 121.109C125.28 130.051 125.623 139.7 125.728 149.467Z" fill="#317CAF"/>
<path d="M124.309 112.396L118.903 106.373L111.756 111.98L105.169 104.903L95.5639 111.973L89.8987 106.282L84.8202 110.324C84.9599 109.097 85.0996 107.877 85.2603 106.684L90.4785 103.038L95.7875 108.424L105.288 101.638L112.406 108.424L118.945 102.664L124.023 108.189C124.114 109.561 124.205 110.961 124.302 112.389L124.309 112.396Z" fill="#55AFE0"/>
<path d="M124.812 121.109L118.588 114.455L110.995 121.248L104.484 113.679L95.1309 121.075L89.2281 114.704L83.975 118.621C84.0937 117.366 84.2055 116.125 84.3312 114.892L89.6333 110.837L95.1937 117.034L104.624 109.894L111.156 117.034L118.728 110.67L124.596 117.304C124.659 118.559 124.736 119.827 124.805 121.109H124.812Z" fill="#55AFE0"/>
<path d="M117.82 52.922C116.591 55.362 115.151 57.698 113.503 59.9023C112.574 61.15 111.421 62.6542 109.696 62.6888C107.824 62.7235 106.797 61.1638 105.979 59.7775C102.249 53.4211 94.0133 51.4456 90.1922 45.1169C88.3829 42.1224 87.6425 38.4001 87.6984 34.8649C87.7263 33.1319 88.1315 31.3228 89.2492 29.9364C90.4716 28.4253 92.3857 27.6004 94.2787 27.1291C97.8483 26.2418 101.593 26.4012 105.12 27.1845C108.648 27.9678 111.903 30.179 115.11 31.7595C115.836 31.2881 117.121 30.7821 118.218 31.6971C119.008 32.3556 119.566 33.2359 119.985 34.1648C121.299 37.1108 121.362 40.5142 120.754 43.7444C120.146 46.9677 119.315 49.9552 117.813 52.9151L117.82 52.922Z" fill="#050505"/>
<path d="M113.873 38.2198C109.78 30.2067 94.2019 32.9448 92.7559 39.315C89.78 52.416 91.4496 57.795 94.9982 60.8935C99.1057 64.4772 101.886 64.0197 101.6 71.5475C103.053 75.5541 109.186 76.1017 111.344 71.5475C111.603 61.5797 115.34 54.0241 115.34 54.0241C115.34 54.0241 115.564 41.5332 113.873 38.2267V38.2198Z" fill="#EFAD9C"/>
<path d="M111.295 40.8054C111.288 43.384 111.687 45.9487 112.476 48.3748C112.672 48.964 112.888 49.5532 113.251 50.0523C113.622 50.5514 114.194 50.8009 114.816 50.8841L117.058 49.2344C117.058 49.2344 116.842 44.2297 116.807 40.23C116.779 36.2235 114.425 33.7974 108.844 32.7646C103.262 31.7318 96.6398 32.4873 94.2577 35.5581C90.5274 40.3548 91.5753 43.2246 91.5753 43.2246C94.2438 43.2246 97.01 42.0392 99.42 40.7985C103.039 42.6007 107.516 42.5868 111.281 40.8123L111.295 40.8054Z" fill="#050505"/>
<path d="M94.2089 50.5652C94.1879 51.1128 94.614 51.5495 95.1659 51.5495C95.7177 51.5495 96.1718 51.1059 96.1928 50.5652C96.2137 50.0176 95.7876 49.5809 95.2357 49.5809C94.6839 49.5809 94.2298 50.0246 94.2089 50.5652Z" fill="#1B1B28"/>
<path d="M95.2077 50.3019C95.2008 50.5029 95.3544 50.6623 95.557 50.6623C95.7596 50.6623 95.9273 50.5029 95.9342 50.3019C95.9412 50.1008 95.7875 49.9414 95.585 49.9414C95.3824 49.9414 95.2147 50.1008 95.2077 50.3019Z" fill="white"/>
<path d="M101.879 50.5652C101.858 51.1128 102.284 51.5495 102.836 51.5495C103.388 51.5495 103.842 51.1059 103.863 50.5652C103.884 50.0176 103.458 49.5809 102.906 49.5809C102.361 49.5809 101.9 50.0246 101.879 50.5652Z" fill="#1B1B28"/>
<path d="M102.885 50.3019C102.878 50.5029 103.032 50.6623 103.234 50.6623C103.437 50.6623 103.605 50.5029 103.611 50.3019C103.618 50.1008 103.465 49.9414 103.262 49.9414C103.06 49.9414 102.892 50.1008 102.885 50.3019Z" fill="white"/>
<path d="M99.4061 54.5787C99.944 54.5787 100.503 54.6965 101.041 54.9807C101.292 55.1125 101.376 55.4244 101.229 55.6739C101.09 55.9235 100.768 56.0205 100.524 55.8888C99.2385 55.2026 97.7436 55.9096 97.3035 56.478C97.1289 56.7067 96.8005 56.7553 96.577 56.5889C96.3535 56.4225 96.3116 56.0968 96.4932 55.868C97.0101 55.2026 98.1627 54.5718 99.4061 54.5718V54.5787Z" fill="#C16B5B"/>
<path d="M97.4083 53.2409C97.3524 53.2409 97.3035 53.2062 97.2895 53.1508C97.073 52.312 97.3733 52.0278 97.6597 51.9308C97.9531 51.8407 98.2954 51.91 98.6796 52.1526C98.7355 52.1872 98.7565 52.2704 98.7146 52.3328C98.6726 52.3952 98.5958 52.4091 98.5329 52.3744C98.2186 52.1734 97.9461 52.111 97.7296 52.1803C97.4711 52.2635 97.4083 52.5616 97.541 53.0814C97.555 53.1508 97.513 53.2201 97.4432 53.2409C97.4292 53.2409 97.4152 53.2409 97.4083 53.2409Z" fill="#C16B5B"/>
<path d="M105.162 45.8447C105.022 45.5952 104.743 45.5674 104.499 45.6714C103.856 45.9418 103.213 46.226 102.557 46.4824C101.935 46.732 101.306 46.933 100.643 46.8567C100.377 46.829 100.14 47.0994 100.133 47.342C100.119 47.6331 100.342 47.7995 100.608 47.8272C101.348 47.9104 102.089 47.6955 102.787 47.4182C103.521 47.1271 104.24 46.8152 104.967 46.5102C105.211 46.4062 105.281 46.0527 105.169 45.8447H105.162Z" fill="#5B3D31"/>
<path d="M92.7699 46.1705C92.8956 45.914 93.1401 45.8724 93.3636 45.9625C93.9294 46.1982 94.4953 46.4478 95.0681 46.6765C95.613 46.8914 96.1718 47.0578 96.7586 46.9538C96.9891 46.9122 97.1987 47.1756 97.2057 47.4182C97.2057 47.7093 97.0171 47.8896 96.7795 47.9312C96.1229 48.049 95.4663 47.8757 94.8585 47.6331C94.2159 47.3836 93.5802 47.0993 92.9445 46.8359C92.7279 46.7458 92.6721 46.3923 92.7768 46.1774L92.7699 46.1705Z" fill="#5B3D31"/>
<path d="M118.721 54.3014C117.331 55.8749 115.228 56.2977 114.006 55.2511C112.79 54.2044 112.93 52.0833 114.313 50.5098C115.703 48.9363 117.813 48.5134 119.028 49.5601C120.244 50.6068 120.104 52.7279 118.721 54.3014Z" fill="#EFAD9C"/>
<path d="M118.134 50.3295C117.583 50.0315 116.828 50.0453 116.123 50.3711C115.773 50.5305 115.515 50.7246 115.333 50.9672C115.096 51.2861 115.019 51.6812 115.131 52.007C115.228 52.2981 115.459 52.4853 115.661 52.6516C115.808 52.7695 115.941 52.8873 116.018 53.026C116.13 53.2339 116.088 53.525 115.92 53.7053C115.752 53.8855 115.459 53.9409 115.242 53.837C115.117 53.7746 114.956 53.837 114.893 53.9617C114.83 54.0934 114.879 54.2459 115.005 54.3014C115.145 54.3638 115.298 54.3984 115.452 54.3984C115.759 54.3984 116.074 54.2737 116.29 54.0449C116.619 53.6983 116.695 53.1577 116.479 52.7556C116.36 52.5407 116.171 52.3813 116.011 52.2427C115.843 52.104 115.689 51.9723 115.634 51.8129C115.578 51.6465 115.627 51.4317 115.759 51.2514C115.815 51.1821 115.885 51.1128 115.962 51.0573C116.22 51.0573 116.542 51.1336 116.695 51.3138C116.87 51.5148 116.947 51.799 116.891 52.0694C116.863 52.208 116.954 52.3397 117.094 52.3674C117.107 52.3674 117.121 52.3674 117.135 52.3674C117.261 52.3674 117.373 52.2773 117.401 52.1526C117.485 51.7297 117.373 51.2861 117.094 50.9672C116.989 50.8494 116.856 50.7662 116.716 50.7038C117.149 50.586 117.569 50.6137 117.897 50.787C118.295 51.0019 118.581 51.5495 118.351 52.0001C118.288 52.1318 118.337 52.2843 118.463 52.3397C118.588 52.4021 118.749 52.3397 118.812 52.2149C119.14 51.5634 118.84 50.7038 118.155 50.3295H118.134Z" fill="#C16B5B"/>
<path d="M212.02 152.427L237.259 149.848L234.883 169.846C234.297 169.895 233.214 196.145 230.259 221.765C231.656 237.923 231.307 266.981 229.896 279.686C226.92 281.988 225.16 280.899 221.604 279.326C221.604 279.326 215.366 214.195 212.013 152.427H212.02Z" fill="#F0D0C6"/>
<path d="M257.111 152.427L231.873 149.848L234.248 169.846C234.835 169.895 235.917 196.145 238.872 221.765C237.475 237.923 237.824 266.981 239.235 279.686C242.211 281.988 243.965 280.899 247.52 279.326C247.52 279.326 253.765 214.195 257.118 152.427H257.111Z" fill="#F0D0C6"/>
<path d="M212.02 153.917V209.503C212.02 209.503 230.937 218.216 258.061 209.503C258.061 209.503 257.586 168.737 257.104 154.111L212.02 153.917Z" fill="#1A3C59"/>
<path d="M227.227 38.1783C226.103 37.8525 224.803 38.1713 223.923 38.9754C223.05 39.7795 222.631 41.048 222.861 42.1848C221.513 42.8086 220.472 44.2782 219.976 45.6645C219.48 47.0509 219.578 48.6244 220.242 49.9067C218.824 51.0574 217.993 52.9082 217.755 54.6965C217.517 56.4849 218.013 58.3288 219.103 59.729C217.958 60.8588 216.924 62.0858 216.106 63.4652C215.289 64.8377 214.765 66.432 214.898 68.0055C215.031 69.572 215.883 71.1039 217.273 71.8248C216.358 72.7468 215.429 73.8628 214.772 74.9718C214.116 76.0878 213.745 77.4187 214.039 78.6526C214.486 80.538 216.351 81.7372 218.223 82.2709C220.794 83.0057 223.651 82.8047 226.152 81.7164C231.069 84.6693 237.734 84.2881 242.686 81.1203C243.909 82.3472 245.732 82.7354 247.492 82.6522C249.253 82.569 250.992 81.7303 252.166 80.3855C253.563 81.0856 255.149 81.3282 256.72 81.0995C257.621 80.9678 258.557 80.642 259.13 79.928C259.836 79.0616 259.843 77.8346 259.619 76.7672C259.123 74.4034 257.621 72.2962 255.554 71.0554C256.783 69.4542 256.734 67.2499 256.245 65.3367C255.756 63.4236 254.541 61.7669 253.039 60.4915C255.114 57.6633 255.128 53.3934 253.046 50.6831C254.212 49.4007 254.639 47.5569 254.373 45.8794C254.108 44.2089 253.039 42.6977 251.551 41.8937C252.103 39.7587 250.971 37.2979 249.176 36.0779C247.381 34.851 244.789 34.8718 242.945 36.1195C241.932 34.754 239.731 34.2757 238.013 34.5807C236.295 34.8857 234.744 35.7937 233.235 36.6879C232.46 35.967 231.286 35.7937 230.217 35.9601C229.148 36.1265 227.758 37.2425 227.199 38.1713L227.227 38.1783Z" fill="#050505"/>
<path d="M256.266 152.302C256.266 152.302 254.596 161.937 260.157 162.52C265.717 163.102 268.938 160.44 268.414 158.118C267.89 155.789 266.849 157.868 266.591 158.201C266.332 158.534 266.374 153.3 265.005 151.886C263.636 150.472 257.328 151.228 256.266 152.302Z" fill="#F0D0C6"/>
<path d="M280.073 120.659C267.219 94.041 255.155 85.9933 255.155 85.9933L256.329 105.146C260.904 109.873 267.261 117.061 270.845 123.099L256.259 152.309L261.61 156.177L279.758 126.565C280.862 124.762 280.981 122.558 280.066 120.666L280.073 120.659Z" fill="#F0D0C6"/>
<path d="M247.241 80.7598C261.282 86.7003 265.152 94.7688 265.152 94.7688L255.819 106.747L251.907 102.865L247.241 80.7668V80.7598Z" fill="#FFBC36"/>
<path d="M257.112 154.111C257.112 154.111 259.06 140.109 253.325 130.114C249.588 123.598 254.639 114.698 256.196 109.908C257.112 107.1 252.655 86.2359 249.588 82.8601C247.15 79.8656 245.69 80.2261 239.445 78.2921H230.678C224.901 79.9904 223.148 80.1637 219.11 84.5376C216.023 87.8856 214.423 93.9578 214.877 101.34C215.841 116.77 221.422 122.863 217.043 129.954C212.013 138.092 212.013 153.91 212.013 153.91C212.013 153.91 235.715 161.535 257.098 154.104L257.112 154.111Z" fill="#FFBC36"/>
<path d="M251.006 87.3311C250.797 86.9013 250.147 87.2756 250.357 87.7054C252.948 92.9527 254.722 98.5743 255.638 104.348C255.714 104.82 256.434 104.619 256.364 104.147C255.442 98.3109 253.626 92.6338 251.013 87.3311H251.006Z" fill="#BC8015"/>
<path d="M252.375 116.999C246.759 119.501 240.542 120.617 234.402 120.264C232.641 120.16 230.902 119.938 229.176 119.598C228.701 119.508 228.499 120.222 228.974 120.319C235.17 121.546 241.646 121.269 247.709 119.501C249.434 119.002 251.118 118.371 252.76 117.643C253.2 117.449 252.815 116.805 252.382 116.999H252.375Z" fill="#BC8015"/>
<path d="M216.197 93.9509C216.197 93.9509 212.676 89.5908 209.051 98.0129C204.154 109.395 198.293 129.587 197.79 161.591H205.321C205.321 161.591 206.669 127.521 218.754 106.775L216.197 93.9509Z" fill="#F0D0C6"/>
<path d="M204.636 160.322C204.496 160.08 204.217 160.08 204.021 160.204C203.986 160.177 203.945 160.149 203.896 160.135C202.086 159.546 199.935 159.033 198.349 160.357C197.064 161.431 196.295 163.192 195.869 164.703C194.961 167.933 195.527 171.475 197.518 174.276C197.623 174.421 197.783 174.47 197.93 174.456C198.244 175.073 198.677 175.62 199.334 175.988C199.551 176.113 199.76 176.029 199.879 175.891C199.977 175.995 200.075 176.099 200.193 176.182C200.612 176.487 201.15 176.535 201.583 176.355C201.954 176.549 202.387 176.577 202.792 176.314C203.581 175.794 203.365 174.886 203.218 174.144C203.022 173.174 202.946 172.182 202.974 171.191C203.016 169.666 203.337 168.155 203.889 166.713C203.924 166.956 203.959 167.205 203.986 167.448C204.084 168.176 204.098 168.98 204.308 169.687C204.462 170.207 205.006 170.671 205.621 170.422C206.222 170.179 206.25 169.41 206.327 168.904C206.76 165.958 206.145 162.942 204.629 160.315L204.636 160.322Z" fill="#F0D0C6"/>
<path d="M223.322 80.9123C210.469 88.8214 208.276 96.7305 208.276 96.7305L219.376 109.818L226.662 95.3649L223.329 80.9123H223.322Z" fill="#FFBC36"/>
<path d="M228.729 44.9298C233.13 36.9236 248.617 39.6547 249.819 46.025C252.291 59.119 250.412 64.498 246.745 67.5896C242.498 71.1663 239.731 70.7158 239.731 78.2367C238.125 82.2432 231.971 82.7839 229.98 78.2367C230.105 68.2758 226.655 60.7202 226.655 60.7202C226.655 60.7202 226.913 48.2362 228.722 44.9298H228.729Z" fill="#F0D0C6"/>
<path d="M231.202 47.5153C231.111 50.0939 230.615 52.6586 229.728 55.0778C229.512 55.667 229.274 56.2562 228.883 56.7553C228.499 57.2544 227.912 57.5039 227.283 57.5871L225.104 55.9373C225.104 55.9373 225.516 50.9396 225.697 46.933C225.879 42.9265 228.324 40.5004 233.947 39.4745C239.571 38.4417 246.165 39.1972 248.435 42.268C251.984 47.0578 250.824 49.9345 250.824 49.9345C248.156 49.9345 245.432 48.7491 243.07 47.5083C239.382 49.3037 234.904 49.2967 231.202 47.5222V47.5153Z" fill="#050505"/>
<path d="M248.275 57.2959C248.275 57.8435 247.828 58.2872 247.276 58.2872C246.724 58.2872 246.277 57.8435 246.277 57.2959C246.277 56.7483 246.724 56.3047 247.276 56.3047C247.828 56.3047 248.275 56.7483 248.275 57.2959Z" fill="#1B1B28"/>
<path d="M246.913 57.3861C247.113 57.3861 247.276 57.2247 247.276 57.0256C247.276 56.8265 247.113 56.6652 246.913 56.6652C246.712 56.6652 246.549 56.8265 246.549 57.0256C246.549 57.2247 246.712 57.3861 246.913 57.3861Z" fill="white"/>
<path d="M240.563 57.2959C240.563 57.8435 240.116 58.2872 239.564 58.2872C239.012 58.2872 238.565 57.8435 238.565 57.2959C238.565 56.7483 239.012 56.3047 239.564 56.3047C240.116 56.3047 240.563 56.7483 240.563 57.2959Z" fill="#1B1B28"/>
<path d="M239.571 57.0256C239.571 57.2266 239.41 57.3861 239.207 57.3861C239.005 57.3861 238.844 57.2266 238.844 57.0256C238.844 56.8246 239.005 56.6652 239.207 56.6652C239.41 56.6652 239.571 56.8246 239.571 57.0256Z" fill="white"/>
<path d="M242.337 60.8588C241.799 60.9143 241.247 61.0945 240.73 61.4341C240.493 61.5936 240.423 61.9124 240.584 62.1481C240.744 62.3838 241.066 62.4462 241.303 62.2937C242.54 61.4757 244.076 62.0233 244.558 62.5502C244.754 62.7581 245.082 62.7789 245.292 62.5848C245.508 62.3907 245.522 62.0649 245.327 61.857C244.768 61.2401 243.573 60.734 242.33 60.8657L242.337 60.8588Z" fill="#CC8471"/>
<path d="M244.719 59.9785C244.775 59.9785 244.824 59.9439 244.845 59.8884C245.089 59.0428 244.803 58.7586 244.516 58.6684C244.23 58.5783 243.881 58.6477 243.483 58.8903C243.42 58.9249 243.406 59.0081 243.441 59.0705C243.483 59.1329 243.559 59.1467 243.622 59.1121C243.951 58.9111 244.223 58.8417 244.44 58.9111C244.698 58.9942 244.747 59.2992 244.6 59.8122C244.579 59.8815 244.621 59.9508 244.691 59.9716C244.705 59.9716 244.712 59.9716 244.726 59.9716L244.719 59.9785Z" fill="#CC8471"/>
<path d="M237.154 52.9497C237.3 52.7002 237.58 52.6725 237.824 52.7765C238.46 53.0468 239.096 53.331 239.731 53.5875C240.346 53.8301 240.968 54.038 241.632 53.9618C241.897 53.9341 242.12 54.2044 242.12 54.447C242.12 54.7381 241.897 54.9045 241.632 54.9322C240.884 55.0154 240.151 54.8005 239.466 54.5233C238.746 54.2321 238.034 53.9202 237.321 53.6152C237.077 53.5112 237.021 53.1577 237.147 52.9497H237.154Z" fill="#5B3D31"/>
<path d="M249.539 53.2686C249.42 53.0121 249.176 52.9705 248.952 53.0606C248.373 53.2963 247.8 53.5459 247.22 53.7746C246.668 53.9895 246.102 54.1558 245.515 54.0519C245.285 54.0103 245.068 54.2737 245.054 54.5163C245.04 54.8074 245.229 54.9876 245.46 55.0292C246.116 55.1471 246.773 54.9738 247.395 54.7312C248.044 54.4816 248.694 54.1974 249.344 53.934C249.567 53.8439 249.637 53.4904 249.539 53.2755V53.2686Z" fill="#5B3D31"/>
<path d="M223.26 61.0044C224.587 62.5779 226.682 63.0008 227.94 61.9541C229.197 60.9074 229.141 58.7863 227.814 57.2197C226.487 55.6462 224.391 55.2234 223.134 56.2701C221.876 57.3168 221.932 59.4379 223.26 61.0044Z" fill="#F0D0C6"/>
<path d="M224 57.0326C224.566 56.7345 225.32 56.7484 226.012 57.0742C226.361 57.2336 226.613 57.4277 226.78 57.6703C227.004 57.9892 227.067 58.3843 226.941 58.7101C226.829 59.0012 226.592 59.1883 226.389 59.3547C226.242 59.4725 226.096 59.5904 226.019 59.7221C225.893 59.93 225.928 60.2212 226.089 60.4014C226.249 60.5816 226.543 60.6371 226.766 60.5331C226.899 60.4707 227.053 60.5331 227.109 60.6579C227.171 60.7896 227.109 60.9421 226.983 60.9975C226.843 61.0599 226.689 61.0946 226.529 61.0946C226.221 61.0946 225.914 60.9698 225.704 60.7411C225.39 60.3945 225.334 59.8538 225.565 59.4518C225.69 59.2369 225.886 59.0774 226.054 58.9388C226.221 58.8002 226.389 58.6685 226.452 58.509C226.515 58.3427 226.473 58.1278 226.347 57.9476C226.298 57.8783 226.228 57.8089 226.152 57.7535C225.893 57.7535 225.572 57.8297 225.411 58.003C225.229 58.204 225.139 58.4882 225.187 58.7586C225.208 58.8972 225.118 59.0289 224.971 59.0566C224.957 59.0566 224.943 59.0566 224.929 59.0566C224.803 59.0566 224.692 58.9665 224.671 58.8418C224.601 58.4189 224.733 57.9753 225.027 57.6564C225.139 57.5386 225.271 57.4554 225.418 57.393C224.992 57.2752 224.566 57.3029 224.237 57.4762C223.832 57.6911 223.525 58.2387 223.735 58.6823C223.797 58.814 223.735 58.9665 223.609 59.022C223.476 59.0844 223.322 59.022 223.266 58.8972C222.966 58.2456 223.301 57.3861 224 57.0187V57.0326Z" fill="#CC8471"/>
<g clip-path="url(#clip2_4355_31540)">
<path d="M317.212 25.1861L316.634 26.9186L316.666 26.9275L317.244 25.195L317.212 25.1861Z" fill="white"/>
<path d="M317.244 25.1865L317.212 25.1964L317.863 26.9289L317.895 26.919L317.244 25.1865Z" fill="white"/>
<path d="M317.245 25.1912H317.211V26.9237H317.245V25.1912Z" fill="white"/>
<path d="M317.995 26.8929C317.995 27.1285 317.668 27.3196 317.265 27.3196C316.861 27.3196 316.535 27.1285 316.535 26.8929H317.995Z" fill="white"/>
<path opacity="0.11" d="M316.535 26.9161C316.534 26.9047 316.534 26.9047 316.534 26.8929H317.995C317.989 27.0294 317.921 27.0861 317.869 27.1327L316.535 26.9164V26.9161Z" fill="white"/>
<path d="M317.228 25.2068C317.184 25.2068 317.149 25.1747 317.149 25.1349C317.149 25.0952 317.184 25.063 317.228 25.063C317.272 25.063 317.307 25.0952 317.307 25.1349C317.307 25.1747 317.272 25.2068 317.228 25.2068ZM317.228 25.0938C317.203 25.0938 317.183 25.1121 317.183 25.1349C317.183 25.1577 317.203 25.176 317.228 25.176C317.253 25.176 317.273 25.1577 317.273 25.1349C317.273 25.1121 317.253 25.0938 317.228 25.0938Z" fill="white"/>
<path d="M317.701 24.9017C317.694 24.8875 317.678 24.8654 317.661 24.8675C317.649 24.8689 317.64 24.8779 317.635 24.8875C317.63 24.8972 317.628 24.9079 317.624 24.9179C317.615 24.9373 317.598 24.9539 317.577 24.9629C317.576 24.9635 317.574 24.9642 317.573 24.9649C317.435 24.9867 317.015 25.0416 316.306 24.8675C316.207 24.8433 316.076 24.8109 315.871 24.7784C315.732 24.7563 315.444 24.7169 315.075 24.7138C315.035 24.7134 315.001 24.7138 314.979 24.7138C314.979 24.7708 314.979 24.8278 314.979 24.8851C315.204 24.8858 315.543 24.8979 315.954 24.9566C316.125 24.9812 316.214 24.9946 316.329 25.0185C317.017 25.1632 317.582 25.0665 317.582 25.0665C317.598 25.0648 317.624 25.0596 317.65 25.0423C317.698 25.0091 317.722 24.9452 317.702 24.9021L317.701 24.9017Z" fill="white"/>
<path d="M312.751 25.1873L312.719 25.1962L313.296 26.9288L313.329 26.9199L312.751 25.1873Z" fill="white"/>
<path d="M312.719 25.1859L312.068 26.9185L312.1 26.9284L312.751 25.1959L312.719 25.1859Z" fill="white"/>
<path d="M312.752 25.1912H312.718V26.9237H312.752V25.1912Z" fill="white"/>
<path d="M311.968 26.8929C311.968 27.1285 312.295 27.3196 312.698 27.3196C313.102 27.3196 313.428 27.1285 313.428 26.8929H311.968Z" fill="white"/>
<path opacity="0.11" d="M313.428 26.9161C313.429 26.9047 313.428 26.9047 313.428 26.8929H311.968C311.974 27.0294 312.042 27.0861 312.094 27.1327L313.428 26.9164V26.9161Z" fill="white"/>
<path d="M312.735 25.2068C312.779 25.2068 312.814 25.1747 312.814 25.1349C312.814 25.0952 312.779 25.063 312.735 25.063C312.691 25.063 312.656 25.0952 312.656 25.1349C312.656 25.1747 312.691 25.2068 312.735 25.2068ZM312.735 25.0938C312.76 25.0938 312.78 25.1121 312.78 25.1349C312.78 25.1577 312.76 25.176 312.735 25.176C312.71 25.176 312.69 25.1577 312.69 25.1349C312.69 25.1121 312.71 25.0938 312.735 25.0938Z" fill="white"/>
<path d="M312.262 24.9017C312.267 24.8844 312.282 24.8651 312.302 24.8675C312.314 24.8689 312.323 24.8779 312.328 24.8875C312.333 24.8972 312.335 24.9079 312.339 24.9179C312.348 24.9373 312.365 24.9539 312.385 24.9629C312.387 24.9635 312.389 24.9642 312.39 24.9649C312.528 24.9867 312.948 25.0416 313.657 24.8675C313.756 24.8433 313.887 24.8109 314.092 24.7784C314.231 24.7563 314.519 24.7169 314.888 24.7138C314.928 24.7134 314.962 24.7138 314.984 24.7138C314.982 24.7708 314.981 24.8278 314.979 24.8851C314.674 24.8793 314.271 24.8958 313.799 24.986C313.709 25.0033 313.709 25.0029 313.635 25.0185C312.946 25.1632 312.381 25.0665 312.381 25.0665C312.381 25.0665 312.333 25.0551 312.314 25.0423C312.307 25.0378 312.301 25.0326 312.295 25.0271C312.261 24.9943 312.249 24.9452 312.262 24.9021L312.262 24.9017Z" fill="white"/>
</g>
<rect x="309" y="19" width="16" height="16" rx="2" fill="#EABF4E"/>
<path d="M312.198 24.6305C312.253 24.6681 312.301 24.6992 312.347 24.7331C312.752 25.0329 313.213 25.1352 313.725 25.0461C313.773 25.0378 313.819 25.0205 313.864 25.0029C313.902 24.988 313.945 24.9697 313.942 24.9244C313.939 24.8802 313.898 24.8623 313.856 24.8529C313.747 24.8284 313.636 24.8053 313.526 24.7828C313.158 24.7075 312.791 24.6305 312.451 24.4712C311.929 24.2266 311.588 23.8514 311.437 23.335C311.42 23.278 311.413 23.2206 311.421 23.1619C311.431 23.0866 311.473 23.0666 311.545 23.1042C311.647 23.1578 311.729 23.2348 311.818 23.3029C312.327 23.6915 312.91 23.9188 313.576 23.9578C313.622 23.9606 313.701 23.9914 313.71 23.9288C313.717 23.8805 313.634 23.8874 313.591 23.8753C312.986 23.7064 312.399 23.4998 311.891 23.1484C311.283 22.729 310.96 22.1808 311.015 21.4726C311.023 21.3662 311.038 21.2608 311.084 21.1617C311.161 20.9941 311.301 20.9544 311.464 21.0605C311.635 21.1707 311.767 21.3171 311.901 21.4612C312.299 21.891 312.701 22.3176 313.198 22.66C313.807 23.08 314.484 23.3716 315.227 23.5357C315.402 23.5744 315.579 23.6107 315.757 23.6397C315.852 23.6549 315.865 23.6891 315.834 23.7654C315.71 24.066 315.669 24.3765 315.714 24.6951C315.744 24.9117 315.881 25.0599 316.059 25.0785C316.23 25.0965 316.408 24.9732 316.477 24.7614C316.545 24.5517 316.583 24.3341 316.646 24.1226C316.75 23.7661 316.891 23.6884 317.294 23.7585C317.394 23.7758 317.489 23.8103 317.586 23.8394C317.618 23.849 317.657 23.8611 317.664 23.8932C317.69 24 317.787 24.0231 317.88 24.0518C317.949 24.0732 318.013 24.1033 318.034 24.1755C318.042 24.2031 318.037 24.2311 318.01 24.2498C317.982 24.2681 317.961 24.2511 317.939 24.2366C317.792 24.1361 317.636 24.1966 317.484 24.2204C317.452 24.2252 317.437 24.2567 317.437 24.2853C317.44 24.5092 317.452 24.7331 317.609 24.9213C317.7 25.0295 317.814 25.11 317.977 25.0727C318.14 25.0353 318.237 24.932 318.269 24.788C318.347 24.4432 318.296 24.1071 318.171 23.7772C318.127 23.6597 318.129 23.6583 318.27 23.6369C319.166 23.5001 319.99 23.2041 320.726 22.7163C321.196 22.405 321.583 22.0167 321.957 21.616C322.095 21.4671 322.231 21.3151 322.385 21.179C322.423 21.1455 322.461 21.1119 322.503 21.0833C322.703 20.9461 322.872 20.999 322.938 21.2177C323.01 21.4571 323 21.6989 322.961 21.9414C322.88 22.434 322.581 22.8057 322.167 23.1097C321.649 23.4891 321.041 23.6994 320.415 23.8767C320.404 23.8798 320.392 23.8801 320.382 23.885C320.349 23.9008 320.282 23.8901 320.292 23.9409C320.299 23.9779 320.357 23.9661 320.393 23.9641C321.014 23.9319 321.568 23.7381 322.056 23.3875C322.168 23.3067 322.278 23.2231 322.391 23.1429C322.431 23.1146 322.471 23.0669 322.529 23.0983C322.586 23.1298 322.576 23.1882 322.567 23.2386C322.487 23.6666 322.253 24.0097 321.877 24.2767C321.44 24.5873 320.919 24.6996 320.393 24.7984C320.312 24.8136 320.23 24.8281 320.15 24.8474C320.103 24.8588 320.048 24.8744 320.045 24.9279C320.043 24.9814 320.099 25.0011 320.143 25.0157C320.342 25.0803 320.548 25.0944 320.756 25.0754C321.113 25.0426 321.423 24.9134 321.695 24.703C321.721 24.683 321.748 24.6346 321.785 24.665C321.815 24.6895 321.779 24.7289 321.762 24.7576C321.345 25.4665 320.565 25.9356 319.621 25.8617C319.369 25.842 319.118 25.8137 318.866 25.8023C318.355 25.7791 318.016 25.9722 317.815 26.3992C317.776 26.4828 317.727 26.5039 317.634 26.4921C317.199 26.4365 316.762 26.4341 316.326 26.4953C316.249 26.506 316.209 26.4797 316.178 26.4165C315.944 25.9425 315.622 25.7681 315.052 25.7998C314.77 25.8157 314.491 25.8644 314.207 25.8648C313.289 25.8655 312.657 25.4478 312.217 24.7479C312.2 24.7199 312.175 24.6899 312.197 24.6318L312.198 24.6305Z" fill="#151513"/>
<path d="M316.999 28.6304C316.953 28.7157 316.915 28.7972 316.867 28.8729C316.779 29.0111 316.639 29.0881 316.471 29.1251C316.436 29.133 316.394 29.1434 316.368 29.1071C316.345 29.0739 316.376 29.0494 316.396 29.0256C316.425 28.99 316.455 28.9548 316.487 28.9206C316.718 28.6677 316.776 28.3778 316.709 28.0617C316.705 28.0417 316.699 28.0213 316.691 28.0023C316.681 27.9778 316.674 27.9426 316.636 27.9481C316.605 27.9526 316.608 27.9847 316.604 28.0079C316.585 28.1229 316.574 28.2397 316.544 28.3526C316.48 28.6007 316.326 28.7862 316.055 28.8767C316.023 28.8871 315.989 28.8912 315.955 28.8957C315.926 28.8995 315.893 28.9071 315.875 28.876C315.859 28.8494 315.882 28.8301 315.899 28.8131C315.939 28.7724 315.982 28.7333 316.023 28.6943C316.261 28.4708 316.391 28.2044 316.406 27.8935C316.407 27.8631 316.404 27.832 316.399 27.8013C316.396 27.7771 316.387 27.7522 316.354 27.7501C316.328 27.7484 316.312 27.7653 316.302 27.7843C316.277 27.8337 316.25 27.8835 316.229 27.9346C316.165 28.0863 316.081 28.2272 315.975 28.3575C315.875 28.4798 315.74 28.5371 315.573 28.5281C315.521 28.5254 315.463 28.5129 315.442 28.4621C315.418 28.4072 315.465 28.3706 315.504 28.3409C315.685 28.2062 315.872 28.078 316.005 27.899C316.179 27.6659 316.31 27.4182 316.306 27.1276C316.305 27.0575 316.336 27.0216 316.415 27.0105C316.81 26.9552 317.204 26.9646 317.598 27.0105C317.658 27.0174 317.695 27.0457 317.696 27.1045C317.702 27.6192 318.001 27.9851 318.425 28.2873C318.449 28.3043 318.473 28.3205 318.495 28.3395C318.533 28.3723 318.585 28.4038 318.564 28.459C318.541 28.5205 318.475 28.5288 318.413 28.5295C318.266 28.5312 318.143 28.4842 318.047 28.3775C317.917 28.2321 317.831 28.0652 317.755 27.8928C317.745 27.8707 317.736 27.8479 317.724 27.8268C317.705 27.7947 317.694 27.7436 317.645 27.7498C317.585 27.7574 317.598 27.8141 317.598 27.8514C317.597 28.1288 317.692 28.3765 317.886 28.591C317.953 28.6649 318.026 28.7337 318.097 28.8052C318.117 28.8252 318.146 28.8453 318.131 28.8753C318.112 28.9112 318.073 28.9002 318.04 28.8964C317.775 28.8646 317.52 28.6314 317.456 28.3568C317.431 28.2466 317.419 28.1336 317.399 28.022C317.394 27.9944 317.408 27.9512 317.359 27.9502C317.322 27.9495 317.319 27.9875 317.311 28.0123C317.227 28.2756 317.264 28.5281 317.403 28.7679C317.455 28.8587 317.523 28.942 317.6 29.0176C317.625 29.0422 317.659 29.0701 317.637 29.1071C317.611 29.1489 317.563 29.1358 317.525 29.1268C317.296 29.0733 317.14 28.9458 317.06 28.7433C317.046 28.7088 317.048 28.668 316.999 28.6311L316.999 28.6304Z" fill="#151513"/>
<g clip-path="url(#clip3_4355_31540)">
<path d="M311.019 30.4699C311.019 30.4332 311.055 30.4003 311.095 30.4003H311.22C311.26 30.4003 311.296 30.4332 311.296 30.4699V32.8964C311.296 32.933 311.26 32.966 311.22 32.966H311.095C311.055 32.966 311.019 32.933 311.019 32.8964V30.4699Z" fill="#151513"/>
<path d="M312.597 32.035C312.769 32.035 312.938 32.0826 312.938 32.0826C312.942 31.8114 312.906 31.6867 312.677 31.6867C312.448 31.6867 312.267 31.7418 312.195 31.7674C312.155 31.7821 312.131 31.7637 312.119 31.7307L312.087 31.6391C312.071 31.5951 312.095 31.5732 312.131 31.5585C312.155 31.5474 312.388 31.4631 312.689 31.4631C313.098 31.4631 313.199 31.6538 313.199 32.0826V32.8963C313.199 32.933 313.162 32.9659 313.122 32.9659H313.046C313.002 32.9659 312.99 32.944 312.978 32.9109L312.946 32.8119C312.862 32.8889 312.697 33.0026 312.448 33.0026C312.167 33.0026 311.954 32.8156 311.954 32.5224C311.954 32.2292 312.183 32.0349 312.597 32.0349V32.035ZM312.492 32.7827C312.693 32.7827 312.865 32.6692 312.934 32.5775V32.288C312.886 32.2624 312.773 32.2293 312.597 32.2293C312.372 32.2293 312.211 32.332 312.211 32.5225C312.211 32.6692 312.32 32.7827 312.492 32.7827Z" fill="#151513"/>
<path d="M313.805 31.5841C313.788 31.5327 313.805 31.4998 313.865 31.4998H313.989C314.025 31.4998 314.053 31.5181 314.061 31.5401L314.354 32.5078H314.358L314.812 31.4998C314.82 31.4814 314.844 31.4631 314.88 31.4631H314.9C314.936 31.4631 314.96 31.4815 314.969 31.4998L315.418 32.5115H315.422L315.711 31.5401C315.719 31.5181 315.747 31.4998 315.779 31.4998H315.904C315.964 31.4998 315.98 31.5327 315.964 31.5841L315.526 32.9659C315.518 32.9879 315.49 33.0026 315.458 33.0026H315.438C315.402 33.0026 315.378 32.9842 315.37 32.9659L314.88 31.8664L314.406 32.9659C314.398 32.9843 314.374 33.0026 314.338 33.0026H314.318C314.282 33.0026 314.258 32.9879 314.25 32.9659L313.804 31.5841H313.805Z" fill="#151513"/>
<path d="M316.526 31.117C316.526 31.018 316.61 30.941 316.714 30.941C316.819 30.941 316.907 31.018 316.907 31.117C316.907 31.216 316.823 31.2893 316.714 31.2893C316.606 31.2893 316.526 31.2123 316.526 31.117ZM316.582 31.5695C316.582 31.5329 316.618 31.4999 316.658 31.4999H316.782C316.822 31.4999 316.859 31.5329 316.859 31.5695V32.8964C316.859 32.933 316.822 32.966 316.782 32.966H316.658C316.618 32.966 316.582 32.933 316.582 32.8964V31.5695Z" fill="white"/>
<path d="M317.629 31.5695C317.629 31.5328 317.665 31.4999 317.705 31.4999H317.782C317.818 31.4999 317.838 31.5146 317.846 31.5439L317.882 31.6575C317.882 31.6575 318.111 31.4631 318.444 31.4631C318.909 31.4631 319.066 31.7418 319.066 32.1229V32.8963C319.066 32.933 319.03 32.9659 318.99 32.9659H318.861C318.821 32.9659 318.785 32.933 318.785 32.8963V32.1229C318.785 31.8443 318.649 31.7088 318.424 31.7088C318.123 31.7088 317.906 31.9177 317.906 31.9177V32.8963C317.906 32.933 317.87 32.9659 317.83 32.9659H317.706C317.666 32.9659 317.63 32.933 317.63 32.8963V31.5695H317.629Z" fill="white"/>
<path d="M319.676 32.8598L320.463 31.7418V31.7308H319.788C319.748 31.7308 319.716 31.6978 319.716 31.6612V31.5695C319.716 31.5292 319.748 31.4999 319.788 31.4999H320.796C320.856 31.4999 320.896 31.5513 320.864 31.5989L320.097 32.7242V32.7352H320.715C320.76 32.7352 320.792 32.7645 320.792 32.8048V32.8965C320.792 32.9331 320.76 32.9661 320.715 32.9661H319.752C319.712 32.9661 319.676 32.9331 319.676 32.8965V32.8599V32.8598Z" fill="white"/>
<path d="M322.164 31.4631C322.61 31.4631 322.963 31.815 322.963 32.2292C322.963 32.6433 322.61 33.0026 322.164 33.0026C321.719 33.0026 321.366 32.6507 321.366 32.2292C321.366 31.8077 321.719 31.4631 322.164 31.4631ZM322.164 32.7644C322.457 32.7644 322.686 32.5261 322.686 32.2292C322.686 31.9323 322.457 31.705 322.164 31.705C321.871 31.705 321.643 31.9396 321.643 32.2292C321.643 32.5187 321.871 32.7644 322.164 32.7644Z" fill="white"/>
</g>
</g>
</g>
<defs>
<clipPath id="clip0_4355_31540">
<rect width="350" height="218.75" fill="white"/>
</clipPath>
<clipPath id="clip1_4355_31540">
<rect width="294" height="280" fill="white" transform="translate(28 18)"/>
</clipPath>
<clipPath id="clip2_4355_31540">
<rect width="11.9859" height="8.27329" fill="white" transform="translate(309.014 19.0466)"/>
</clipPath>
<clipPath id="clip3_4355_31540">
<rect width="11.9038" height="2.6087" fill="white" transform="translate(311.023 30.3898)"/>
</clipPath>
</defs>
</svg>
