<svg width="350" height="219" viewBox="0 0 350 219" fill="none" xmlns="http://www.w3.org/2000/svg">
<g clip-path="url(#clip0_4355_33250)">
<rect width="350" height="218.75" fill="white"/>
<g clip-path="url(#clip1_4355_33250)">
<path d="M65.6464 232L297.832 229.411L317 200.235L275.371 192.778L308.319 153.289L262.906 147.34L270.924 110.515L203.264 125.857L172.957 89L131.82 126.478L61.6375 113.265L67.5814 153.289L19.7844 155.268L52.294 198.791L16 223.976L65.6464 232Z" fill="#FFF7E3"/>
<path d="M199.255 58.6108L199.272 58.6553L199.759 59.65L198.59 60.1539C198.603 60.4243 198.618 60.6895 198.636 60.9495C198.653 61.2095 198.668 61.4747 198.681 61.7451C198.766 61.72 198.935 61.6571 199.187 61.5565C199.437 61.4485 199.758 61.3339 200.148 61.2127C200.194 61.2632 200.228 61.3145 200.248 61.3666C200.277 61.4156 200.306 61.4773 200.335 61.5517C200.372 61.623 200.411 61.7107 200.453 61.8148C200.494 61.9189 200.556 62.0534 200.639 62.2184L200.648 62.2407C200.535 62.3029 200.428 62.3585 200.327 62.4073C200.223 62.4488 200.104 62.4961 199.97 62.5494C199.837 62.6027 199.673 62.6678 199.48 62.7447C199.294 62.8187 199.054 62.9186 198.76 63.0444L198.748 63.0488L198.726 63.0577C198.72 63.0859 198.721 63.1758 198.73 63.3273C198.746 63.4759 198.759 63.6475 198.767 63.8421C198.776 64.0368 198.78 64.2418 198.78 64.4572C198.776 64.6652 198.764 64.8508 198.743 65.0142L198.736 65.0298L198.714 65.0387C198.699 65.0446 198.597 65.0897 198.406 65.1741C198.223 65.2555 197.902 65.3791 197.443 65.5447C197.395 65.1851 197.371 64.8456 197.373 64.5262C197.372 64.1994 197.354 63.8837 197.319 63.5791L197.308 63.5835C197.308 63.5835 197.286 63.5924 197.241 63.6102C197.201 63.6175 197.133 63.6405 197.036 63.6789C196.939 63.7174 196.806 63.7707 196.635 63.8387C196.471 63.9038 196.264 63.9904 196.015 64.0985C196.023 64.2931 196.028 64.4335 196.027 64.5196C196.027 64.6058 196.026 64.6882 196.023 64.767C196.027 64.8427 196.027 64.9415 196.024 65.0633C196.021 65.1852 196.021 65.379 196.023 65.6449C196.031 65.7281 196.034 65.8002 196.032 65.8611C196.038 65.9191 196.035 65.9978 196.023 66.0973C196.014 66.1181 195.987 66.1374 195.942 66.1551C195.865 66.1773 195.73 66.2268 195.537 66.3038C195.34 66.3733 195.078 66.482 194.749 66.6301C194.685 66.2942 194.649 65.9681 194.644 65.6517C194.643 65.3248 194.638 64.9995 194.63 64.6756C194.504 64.7259 194.38 64.7837 194.26 64.8488C194.136 64.9066 194.018 64.9539 193.903 64.9909C193.811 64.8036 193.724 64.6058 193.641 64.3977C193.558 64.1896 193.473 63.9867 193.386 63.789C193.396 63.7935 193.421 63.792 193.462 63.7846C193.502 63.7773 193.564 63.761 193.649 63.7359C193.741 63.7078 193.867 63.6664 194.026 63.6117C194.182 63.5496 194.385 63.4645 194.634 63.3564C194.648 63.3253 194.652 63.2807 194.646 63.2228C194.64 63.1648 194.631 63.0779 194.619 62.962C194.608 62.8461 194.594 62.6923 194.578 62.5007C194.562 62.309 194.547 62.0654 194.532 61.7697C194.532 61.7697 194.521 61.7741 194.499 61.783C194.476 61.7919 194.413 61.817 194.309 61.8585C194.213 61.8969 194.062 61.9613 193.856 62.0516C193.648 62.1345 193.362 62.2484 192.998 62.3934L192.496 61.1982C192.496 61.1982 192.509 61.1975 192.534 61.1961C192.567 61.1917 192.635 61.1776 192.737 61.154C192.844 61.12 193.007 61.0639 193.225 60.9855C193.441 60.8996 193.737 60.7776 194.113 60.6192C194.165 60.5985 194.226 60.5785 194.296 60.5593C194.363 60.5327 194.417 60.5068 194.458 60.4816C194.455 60.4742 194.454 60.4704 194.454 60.4704C194.461 60.4675 194.464 60.4623 194.461 60.4549C194.465 60.4014 194.462 60.2952 194.45 60.1362C194.446 59.9743 194.436 59.7975 194.42 59.6058C194.408 59.4037 194.392 59.2121 194.372 59.0308C194.356 58.8391 194.338 58.6868 194.319 58.5739L194.314 58.5628C194.34 58.5613 194.376 58.5554 194.424 58.5451C194.476 58.5244 194.55 58.4948 194.647 58.4563C194.751 58.4149 194.886 58.3654 195.052 58.3077C195.219 58.25 195.423 58.1775 195.663 58.0903C195.669 58.1051 195.675 58.1415 195.681 58.1995C195.694 58.2545 195.707 58.3525 195.721 58.4937C195.731 58.6274 195.744 58.8116 195.76 59.0464C195.773 59.2737 195.795 59.5664 195.825 59.9245C196.029 59.852 196.233 59.7706 196.438 59.6803C196.644 59.59 196.881 59.4953 197.152 59.3962C197.173 59.2759 197.173 59.0479 197.151 58.7121C197.129 58.3764 197.089 57.9618 197.03 57.4685L197.041 57.4641L197.053 57.4596C197.275 57.4139 197.487 57.3385 197.686 57.2334C197.892 57.1252 198.107 57.0483 198.33 57.0026C198.355 57.0443 198.375 57.0926 198.388 57.1476C198.398 57.1951 198.407 57.282 198.414 57.4083C198.429 57.5317 198.444 57.7107 198.46 57.9454C198.481 58.1698 198.51 58.4811 198.548 58.8793C198.667 58.8319 198.783 58.7898 198.898 58.7528C199.017 58.7054 199.136 58.6581 199.255 58.6108ZM195.911 62.0215C195.931 62.2889 195.948 62.5578 195.961 62.8282L197.35 62.2622C197.347 62.2548 197.346 62.2511 197.346 62.2511C197.35 62.2407 197.351 62.2318 197.348 62.2243C197.308 61.9732 197.29 61.7221 197.294 61.4711C197.297 61.22 197.283 60.9585 197.252 60.6866L197.248 60.6755L197.237 60.6799L197.226 60.6843C196.985 60.7716 196.757 60.8581 196.541 60.944C196.323 61.0223 196.106 61.1044 195.89 61.1903L195.868 61.1991L195.872 61.2103C195.885 61.4807 195.898 61.7511 195.911 62.0215ZM204.347 60.4709C204.354 60.5972 204.358 60.7249 204.358 60.8542L204.361 62.7126C204.358 62.7483 204.355 62.7713 204.35 62.7817C204.309 62.8069 204.26 62.835 204.203 62.8661C204.151 62.8868 204.073 62.9179 203.969 62.9593C203.872 62.9978 203.742 63.0496 203.579 63.1147C203.423 63.1768 203.22 63.2619 202.97 63.37L202.959 63.3744C202.929 63.3863 202.906 63.3394 202.89 63.2339C202.874 63.1284 202.861 63.0088 202.85 62.8751C202.848 62.7384 202.848 62.6092 202.851 62.4874C202.851 62.3581 202.849 62.2772 202.845 62.2445C202.832 62.0602 202.819 61.876 202.806 61.6918C202.8 61.5046 202.802 61.3144 202.811 61.1213C202.805 61.0634 202.797 60.9891 202.787 60.8985C202.784 60.8049 202.776 60.6444 202.763 60.4171C202.757 60.1868 202.75 59.8667 202.742 59.4566C202.734 59.0466 202.721 58.4962 202.705 57.8054C202.701 57.5573 202.685 57.3136 202.659 57.0744C202.64 56.8322 202.625 56.5886 202.613 56.3434C202.615 56.3256 202.614 56.2573 202.609 56.1384C202.605 56.0196 202.598 55.8717 202.588 55.695C202.582 55.5078 202.569 55.302 202.549 55.0776C202.528 54.8533 202.503 54.6267 202.472 54.3979C202.585 54.3787 202.708 54.3425 202.842 54.2893C202.973 54.2286 203.103 54.1679 203.234 54.1072C203.365 54.0465 203.495 53.9947 203.625 53.9518C203.754 53.9089 203.872 53.892 203.979 53.9011C203.979 53.9442 203.981 53.9821 203.985 54.0148C203.987 54.04 203.989 54.0779 203.992 54.1284C204.004 54.2443 204.021 54.4397 204.044 54.7146C204.065 54.982 204.098 55.3906 204.145 55.9403C204.154 56.178 204.162 56.4157 204.171 56.6534C204.176 56.8837 204.185 57.1125 204.198 57.3398C204.22 57.8048 204.244 58.2646 204.27 58.7193C204.303 59.1709 204.326 59.627 204.337 60.0876C204.344 60.2139 204.347 60.3416 204.347 60.4709ZM199.778 58.3377L199.774 58.3266L199.652 58.0523L199.563 57.7647C199.51 57.5448 199.457 57.3248 199.403 57.1049C199.347 56.8775 199.361 56.6524 199.445 56.4297C199.498 56.262 199.577 56.1143 199.682 55.9867C199.793 55.8561 199.933 55.7531 200.101 55.6776C200.284 55.5962 200.459 55.5608 200.627 55.5715C200.799 55.5718 200.96 55.6069 201.108 55.677C201.257 55.7471 201.389 55.8409 201.504 55.9584C201.628 56.073 201.734 56.1987 201.822 56.3355C201.885 56.4485 201.94 56.5555 201.989 56.6566C202.045 56.7548 202.09 56.8574 202.124 56.9644C202.218 57.177 202.289 57.411 202.34 57.6666C202.397 57.9193 202.414 58.1667 202.39 58.4088C202.362 58.6434 202.286 58.8632 202.161 59.068C202.041 59.2624 201.851 59.4025 201.592 59.4882C201.404 59.5548 201.206 59.5775 200.999 59.5564C200.784 59.5129 200.61 59.4443 200.478 59.3505C200.354 59.2538 200.237 59.1236 200.129 58.96C200.067 58.847 200.008 58.7414 199.951 58.6433C199.892 58.5377 199.834 58.4359 199.778 58.3377ZM200.355 57.2557L200.359 57.2668L200.739 58.0585C200.776 58.1299 200.808 58.199 200.834 58.2659C200.861 58.3328 200.893 58.4019 200.93 58.4733C200.965 58.5625 201.029 58.6146 201.121 58.6296C201.218 58.6342 201.301 58.6053 201.371 58.5431C201.468 58.4615 201.511 58.3754 201.501 58.2848C201.495 58.1838 201.482 58.0857 201.461 57.9906C201.452 57.9683 201.445 57.9497 201.439 57.9348C201.437 57.9096 201.432 57.8858 201.423 57.8635C201.352 57.642 201.265 57.4228 201.161 57.2057C201.062 56.9783 200.94 56.7686 200.795 56.5767C200.781 56.5648 200.771 56.5604 200.764 56.5633C200.761 56.5559 200.752 56.5462 200.739 56.5343C200.681 56.4971 200.618 56.4792 200.55 56.4805C200.489 56.479 200.429 56.5115 200.369 56.5783C200.311 56.6272 200.271 56.6992 200.248 56.7943C200.235 56.8685 200.239 56.9443 200.261 57.0216C200.284 57.0988 200.315 57.1769 200.355 57.2557ZM205.009 60.3494L205.005 60.3382L204.883 60.0639L204.794 59.7763C204.741 59.5564 204.688 59.3364 204.635 59.1165C204.579 58.8891 204.592 58.6641 204.676 58.4414C204.73 58.2736 204.809 58.1259 204.913 57.9983C205.024 57.8678 205.164 57.7647 205.332 57.6892C205.515 57.6078 205.69 57.5725 205.858 57.5831C206.031 57.5834 206.191 57.6186 206.339 57.6886C206.488 57.7587 206.62 57.8525 206.736 57.97C206.859 58.0846 206.965 58.2103 207.054 58.3471C207.116 58.4601 207.171 58.5672 207.22 58.6683C207.277 58.7664 207.322 58.869 207.356 58.976C207.449 59.1886 207.521 59.4227 207.571 59.6783C207.628 59.9309 207.645 60.1783 207.621 60.4204C207.594 60.6551 207.518 60.8748 207.392 61.0796C207.272 61.274 207.082 61.4141 206.824 61.4999C206.635 61.5664 206.437 61.5891 206.231 61.568C206.015 61.5246 205.842 61.456 205.71 61.3622C205.585 61.2654 205.469 61.1352 205.36 60.9716C205.298 60.8586 205.239 60.7531 205.183 60.6549C205.123 60.5494 205.066 60.4475 205.009 60.3494ZM205.586 59.2673L205.59 59.2785L205.97 60.0701C206.007 60.1415 206.039 60.2106 206.066 60.2775C206.092 60.3444 206.124 60.4135 206.161 60.4849C206.197 60.5741 206.26 60.6262 206.352 60.6412C206.449 60.6458 206.532 60.617 206.602 60.5547C206.699 60.4731 206.742 60.3871 206.732 60.2964C206.726 60.1954 206.713 60.0973 206.692 60.0022C206.683 59.9799 206.676 59.9613 206.67 59.9465C206.669 59.9212 206.663 59.8974 206.655 59.8751C206.584 59.6537 206.496 59.4344 206.393 59.2174C206.293 58.9899 206.171 58.7802 206.026 58.5884C206.013 58.5765 206.002 58.572 205.995 58.575C205.992 58.5675 205.984 58.5579 205.97 58.5459C205.912 58.5087 205.849 58.4908 205.781 58.4922C205.72 58.4906 205.66 58.5232 205.6 58.5899C205.542 58.6389 205.502 58.7108 205.48 58.8059C205.466 58.8801 205.471 58.9559 205.493 59.0332C205.515 59.1105 205.546 59.1885 205.586 59.2673ZM209.875 60.5821L209.852 60.591L209.021 60.9351C208.998 60.944 208.968 60.9001 208.929 60.8035C208.891 60.7068 208.849 60.5902 208.803 60.4534C208.754 60.3092 208.708 60.1599 208.663 60.0053C208.619 59.8507 208.576 59.7214 208.535 59.6173L208.53 59.6062C208.605 59.5335 208.696 59.4713 208.805 59.4195C208.913 59.3676 209.028 59.3218 209.15 59.2818C209.28 59.239 209.407 59.2013 209.532 59.1688C209.653 59.1289 209.77 59.0867 209.882 59.0424C209.957 59.2534 210.038 59.4794 210.126 59.7202C210.21 59.9535 210.295 60.178 210.381 60.3935L210.303 60.4246C210.214 60.4601 210.139 60.4897 210.08 60.5134C210.025 60.5267 209.956 60.5496 209.875 60.5821ZM206.419 54.6604C206.228 54.1594 206.047 53.6503 205.876 53.1331L205.909 53.1198C206.096 53.0279 206.31 52.9169 206.551 52.7865C206.8 52.6532 207.04 52.5749 207.271 52.5515C207.635 53.5088 208.013 54.4995 208.403 55.5237C208.798 56.5374 209.207 57.5111 209.631 58.4448C209.446 58.544 209.218 58.6521 208.946 58.769C208.671 58.8785 208.427 58.9799 208.215 59.0731L208.204 59.0776C208.016 58.5841 207.82 58.0935 207.618 57.6059C207.422 57.1154 207.223 56.6263 207.021 56.1387C206.818 55.6511 206.617 55.1583 206.419 54.6604Z" fill="#FF5F6C"/>
<path d="M86.13 90.53C86.13 90.53 72.77 78.21 69.19 76.83C63.92 74.81 64.19 81.63 64.26 84.12C64.32 86.61 47.55 73.17 42.1 71.93C36.65 70.69 62.16 89.81 65.63 91.39C69.1 92.98 69.08 84.22 70.92 84.08C72.77 83.93 88.01 98.08 86.13 90.52V90.53Z" fill="#FF5F6C"/>
<path d="M83.17 101.11C83.17 101.11 69.71 96.21 63.05 96.24C56.39 96.28 63.59 105.27 61.08 105.35C58.57 105.44 38.86 100.49 34.43 102.39C30 104.29 60.71 111.07 65.29 109.98C69.87 108.89 65.21 101.31 66.12 101C67.03 100.68 89.62 103.22 83.17 101.11Z" fill="#FF5F6C"/>
<path d="M272.27 86.45C272.27 86.45 285.63 74.13 289.21 72.75C294.48 70.73 294.21 77.55 294.14 80.04C294.08 82.53 310.85 69.09 316.3 67.85C321.75 66.61 296.24 85.73 292.77 87.31C289.3 88.9 289.32 80.14 287.48 80C285.63 79.85 270.39 94 272.27 86.44V86.45Z" fill="#FF5F6C"/>
<path d="M275.23 97.03C275.23 97.03 288.69 92.13 295.35 92.16C302.01 92.2 294.81 101.19 297.32 101.27C299.83 101.36 319.54 96.41 323.97 98.31C328.4 100.21 297.69 106.99 293.11 105.9C288.53 104.81 293.19 97.23 292.28 96.92C291.37 96.6 268.78 99.14 275.23 97.03Z" fill="#FF5F6C"/>
<path d="M164.95 96.15C162.32 97.58 164.37 102.84 155.47 114.01C150.32 120.48 144.63 119.01 140.02 116.1C138.99 117.25 137.79 118.95 136.84 121.34C136.02 123.38 135.41 125.94 135.26 129.1L112.07 112.85C112.07 112.85 116.86 105.86 119.78 100.12C119.61 99.99 119.5 99.9 119.5 99.9L121.22 71.8C120.27 71.35 127.53 57.59 158.49 71.17C158.49 71.17 160.86 80.22 160.05 84.22C159.24 88.22 163.15 90.88 166.44 91.15C169.74 91.41 167.59 94.71 164.96 96.15H164.95Z" fill="#EFB59B"/>
<path d="M158.49 71.17C158.49 71.17 151.51 68.24 146.48 69.56C146.48 69.56 146.26 79.83 137.74 81.36L138.83 87.48L134.68 88.91C134.68 88.91 134.9 82.01 129.87 82.01C124.84 82.01 123.48 91.79 125.72 95.05C127.96 98.31 131.62 99.49 131.62 99.49L117.81 103.72C117.81 103.72 105.17 87.69 104.95 70.86C104.95 70.86 101.02 62.12 108.45 56.65C115.88 51.18 124.19 51.84 124.19 51.84C124.19 51.84 130.97 46.16 145.39 48.56C159.81 50.96 163.75 51.62 163.75 51.62L161.56 54.02C161.56 54.02 164.62 55.99 168.99 59.48C173.36 62.97 175.98 62.54 175.98 62.54L168.99 66.69L171.61 69.97L158.94 73.08L158.48 71.15L158.49 71.17Z" fill="#1F1200"/>
<path d="M156.88 83.7C156.88 83.7 151.96 79.61 145.94 78.11C145.94 78.11 147.51 77.43 150.52 77.6C153.53 77.77 156.84 80.78 156.87 83.7H156.88Z" fill="#1F1200"/>
<path d="M157.52 81.91L157.39 84.47C157.39 84.47 158.55 84.47 157.52 81.91Z" fill="#1F1200"/>
<path d="M153.15 86.73C152.89 88.15 153.13 89.38 153.68 89.49C154.23 89.59 154.89 88.52 155.15 87.1C155.41 85.68 155.17 84.45 154.62 84.34C154.07 84.24 153.41 85.31 153.15 86.73Z" fill="#1F1200"/>
<path d="M145.96 107.75C146.26 109.23 155.48 111.34 155.48 111.34L159.94 102.06L160.5 100.89C160.5 100.89 159.61 98.66 154.55 98.59C153.05 98.57 151.66 99.24 150.45 100.22C150.43 100.24 150.41 100.26 150.41 100.26C149.83 100.73 149.29 101.28 148.8 101.86C146.9 104.14 145.78 106.92 145.95 107.74L145.96 107.75Z" fill="#1F1200"/>
<path d="M145.96 107.75C146.26 109.23 155.48 111.34 155.48 111.34C156.35 107.61 149.32 102.38 149.32 102.38L148.81 101.87C146.91 104.15 145.79 106.93 145.96 107.75Z" fill="#7F0059"/>
<path d="M150.42 100.26L159.94 102.05L160.5 100.88C160.5 100.88 159.61 98.65 154.55 98.58C153.05 98.56 151.66 99.23 150.45 100.21C150.43 100.23 150.41 100.25 150.41 100.25L150.42 100.26Z" fill="#FFF6F5"/>
<path d="M113.09 111.34C113.09 111.34 98.12 115.18 88.98 129.11C79.84 143.04 69.3 181.22 69.3 181.22L59 231.35H132.78L135.36 168.1C135.36 168.1 139.84 138.36 135.26 129.1C130.68 119.84 113.09 111.33 113.09 111.33V111.34Z" fill="#2F0067"/>
<path d="M191.86 116.41C188.8 117.16 183.91 117.56 183.91 117.56C183.91 117.56 187.3 122.71 187.58 124.74C187.84 126.77 187.17 127.58 187.17 127.58C187.17 127.58 186.09 131.38 185.55 132.59C185 133.81 183.42 133.54 183.06 134.62C182.7 135.7 175.52 137.34 173.89 136.93C172.41 136.55 171.87 135.4 171.78 135.2C171.77 135.18 171.77 135.17 171.77 135.17C171.77 135.17 167.64 139.52 160.63 138.72C160.45 138.7 160.35 138.69 160.35 138.69C153.17 137.74 152.48 128.13 152.48 128.13L161.95 120.4C161.95 120.4 167.9 115.52 171.78 114.44C175.66 113.36 187.62 112.82 191.88 112.41C196.12 112.01 194.94 115.66 191.88 116.41H191.86Z" fill="#EFB59B"/>
<path d="M152.48 128.13C152.48 128.13 106.35 152.35 101.6 156.1C96.85 159.85 92.85 178.86 107.6 178.61C122.36 178.36 160.34 138.69 160.34 138.69L152.48 128.12V128.13Z" fill="#EFB59B"/>
<path d="M95.31 142.81C95.31 142.81 98.3599 133.74 105.38 133.36C112.41 132.98 116.05 135.32 119.5 143.75C122.95 152.18 120.61 163.89 120.61 163.89L98.7699 174.37C98.7699 174.37 90.86 158.74 95.31 142.81Z" fill="#EFB59B"/>
<path d="M178.63 132.21C178.63 132.21 173.5 132.8 172.65 133.13C171.8 133.46 171.99 134.32 171.99 134.32C171.97 134.63 171.9 134.92 171.79 135.22C171.78 135.2 171.78 135.19 171.78 135.19C171.78 135.19 167.65 139.54 160.64 138.74C160.46 138.72 160.36 138.71 160.36 138.71C160.36 138.71 160.94 138.14 162.59 137.95C164.23 137.75 168.51 136.23 169.36 134.65C170.22 133.07 171.08 132.08 173.97 131.43C176.87 130.77 178.64 132.22 178.64 132.22L178.63 132.21Z" fill="#1F1200"/>
<path d="M183.11 133C183.07 133.19 180.54 128.13 179.23 126.75C177.91 125.37 176.47 124.84 176.47 124.84C176.47 124.84 178.25 124.2 179.79 125.61C181.33 127.02 183.57 130.5 183.11 133Z" fill="#1F1200"/>
<path d="M185.87 128.85C185.87 128.85 182.84 124.05 181.2 122.53C179.55 121.02 178.62 120.62 178.62 120.62C178.62 120.62 180.47 120.16 181.92 121.94C183.37 123.72 185.94 125.76 185.87 128.85Z" fill="#1F1200"/>
<path d="M183.91 117.56C183.91 117.56 181 116.61 179.49 116.61C177.98 116.61 184.03 116.74 187.72 116.28C191.41 115.82 194.6 114 194.6 114C194.6 114 195.11 117.26 183.91 117.56Z" fill="#1F1200"/>
<path d="M120.25 145.93C120.25 145.93 105.86 152.81 102.7 156.85L99.54 160.89C99.54 160.89 98.65 153.86 103.93 150.88C112.71 145.93 120.26 145.93 120.26 145.93H120.25Z" fill="#1F1200"/>
<path d="M140.03 116.1C139 117.25 137.8 118.95 136.85 121.34C134.53 118.33 129.96 111.03 132.63 102.94C132.63 102.94 135.15 112.72 140.03 116.09V116.1Z" fill="#1F1200"/>
<path d="M230.73 132.43C230.73 132.43 220.59 138.54 219.65 153.28C218.72 168.03 234.32 230.04 234.32 230.04L289.22 228.93C289.22 228.93 284.54 210.19 274.93 199.88C274.93 199.88 270.33 144.32 259.09 132.42C247.85 120.52 230.72 132.42 230.72 132.42L230.73 132.43Z" fill="#5F0040"/>
<path d="M228.59 166.33L221.6 187.11C214.65 177.85 204.81 167.65 198.81 161.68C198.63 160.15 198.32 158.29 198.32 158.29C198.32 158.29 198.32 151.55 197.14 149.18C195.96 146.81 193.95 141.96 193.24 138.18C192.53 134.4 188.75 137.35 190.28 142.32C191.82 147.29 190.99 149.3 190.99 149.3C190.99 149.3 178.57 140.43 174.9 139.6C171.23 138.77 172.42 141.61 173.48 142.79C174.54 143.97 176.56 144.86 178.92 147.37C181.29 149.88 170.64 143.5 168.27 143.5C165.9 143.5 165.79 145.8 168.27 147.37C168.27 147.37 165.08 148.47 168.27 150.95C171.46 153.43 174.18 155.09 175.25 155.8C176.31 156.51 169.57 155.45 168.15 155.45C166.73 155.45 166.85 157.7 170.28 158.88C173.71 160.06 175.25 159.12 178.8 161.48C181.78 163.47 184.51 167.36 187.55 169.19C192.47 177.57 213.41 212.85 218.37 214.5C218.98 214.7 219.66 214.79 220.37 214.78C235.85 215.63 250.1 170.11 250.1 170.11L228.59 166.33Z" fill="#EFB59B"/>
<path d="M241.29 136.85C241.29 136.85 231.14 145.93 226.76 165.76L251.12 173.26C251.12 173.26 259.4 156.08 259.08 145.15C258.76 134.22 250.49 130.97 250.49 130.97L241.28 136.85H241.29Z" fill="#FFCD47"/>
<path d="M211.71 84.65C211.71 84.65 207.56 92.22 207.39 95.99C207.22 99.76 203.13 101.26 200.12 100.76C197.11 100.26 198.29 103.7 200.33 105.57C202.37 107.44 199.35 111.7 204.82 123.7C210.29 135.7 222.53 126.86 226.49 125.18C230.45 123.5 240.21 119.12 240.21 119.12L244.97 93.56C245.92 93.37 242.5 79.42 211.72 84.65H211.71Z" fill="#EFB59B"/>
<path d="M222.4 125.25C222.4 125.25 223.68 129.89 226.71 136.16L243.84 125.65C243.84 125.65 238.85 117.32 237.82 113.24C236.79 109.16 222.4 125.25 222.4 125.25Z" fill="#EFB59B"/>
<path d="M211.19 95.7C211.19 95.7 216.51 92.68 222.43 92.28C222.43 92.28 221.06 91.38 218.2 91.03C215.34 90.68 211.71 92.96 211.19 95.7Z" fill="#1F1200"/>
<path d="M210.88 93.91L210.57 96.34C210.57 96.34 209.48 96.14 210.88 93.91Z" fill="#1F1200"/>
<path d="M211.71 84.65C211.71 84.65 216.62 89.34 223.99 91.69C223.99 91.69 230.14 96.67 227.9 106.74C225.66 116.81 228.95 133.53 242.94 137.37L242.39 134.13C242.39 134.13 247.39 140.4 255.05 138.2C262.71 135.99 265.24 128.05 266.23 123.55C268.29 114.22 269.03 106.1 254.84 87.06C250.53 81.28 246.61 74.03 235.01 73.57C223.41 73.11 210.88 77.81 205.44 82.37C200 86.93 207.39 96 207.39 96L211.71 84.66V84.65Z" fill="#1F1200"/>
<path d="M214.19 99.18C214.19 100.56 213.76 101.68 213.23 101.69C212.7 101.7 212.26 100.57 212.25 99.19C212.24 97.81 212.68 96.69 213.21 96.68C213.74 96.67 214.18 97.8 214.19 99.18Z" fill="#1F1200"/>
<path d="M218.88 118.79C218.59 120.2 209.77 122.22 209.77 122.22L205.5 113.34L204.97 112.22C204.97 112.22 205.82 110.09 210.66 110.02C212.09 110 213.42 110.64 214.58 111.58C214.6 111.6 214.61 111.62 214.61 111.62C215.17 112.07 215.68 112.59 216.15 113.15C217.97 115.33 219.04 117.99 218.88 118.78V118.79Z" fill="#1F1200"/>
<path d="M218.88 118.79C218.59 120.2 209.77 122.22 209.77 122.22C208.94 118.65 215.66 113.65 215.66 113.65L216.15 113.16C217.97 115.34 219.04 118 218.88 118.79Z" fill="#7F0059"/>
<path d="M214.62 111.63L205.51 113.35L204.98 112.23C204.98 112.23 205.83 110.1 210.67 110.03C212.1 110.01 213.43 110.65 214.59 111.59C214.61 111.61 214.62 111.63 214.62 111.63Z" fill="#FFF6F5"/>
<path d="M221.7 188.14C221.7 188.14 218.09 196.57 219.61 201.66C219.61 201.66 213.48 191.65 221.7 188.14Z" fill="#1F1200"/>
<path d="M227.19 170.5L248.22 175.63L249.25 172.68L228.59 166.33L227.19 170.5Z" fill="#1F1200"/>
<path d="M169.62 147.77C169.62 147.77 170.67 149 173.22 150.32C175.77 151.64 178.31 153.66 179.45 153.92C180.59 154.18 172.78 147.69 169.62 147.78V147.77Z" fill="#1F1200"/>
<path d="M180.41 147.77L183.31 150.85C183.31 150.85 179.8 150.32 180.41 147.77Z" fill="#1F1200"/>
<path d="M175.76 156.9C175.76 156.9 177.74 158.3 179.56 158.13C181.38 157.96 177.43 156.9 175.76 156.9Z" fill="#1F1200"/>
</g>
<g clip-path="url(#clip2_4355_33250)">
<path d="M324.211 15.1861L323.634 16.9186L323.666 16.9275L324.244 15.195L324.211 15.1861Z" fill="white"/>
<path d="M324.244 15.1865L324.212 15.1964L324.863 16.9289L324.895 16.919L324.244 15.1865Z" fill="white"/>
<path d="M324.245 15.1912H324.211V16.9237H324.245V15.1912Z" fill="white"/>
<path d="M324.995 16.8929C324.995 17.1285 324.668 17.3196 324.265 17.3196C323.861 17.3196 323.534 17.1285 323.534 16.8929H324.995Z" fill="white"/>
<path opacity="0.11" d="M323.535 16.9161C323.534 16.9047 323.534 16.9047 323.534 16.8929H324.995C324.989 17.0294 324.921 17.0861 324.869 17.1327L323.535 16.9164V16.9161Z" fill="white"/>
<path d="M324.228 15.2068C324.184 15.2068 324.149 15.1747 324.149 15.1349C324.149 15.0952 324.184 15.063 324.228 15.063C324.272 15.063 324.307 15.0952 324.307 15.1349C324.307 15.1747 324.272 15.2068 324.228 15.2068ZM324.228 15.0938C324.203 15.0938 324.183 15.1121 324.183 15.1349C324.183 15.1577 324.203 15.176 324.228 15.176C324.253 15.176 324.273 15.1577 324.273 15.1349C324.273 15.1121 324.253 15.0938 324.228 15.0938Z" fill="white"/>
<path d="M324.701 14.9017C324.694 14.8875 324.678 14.8654 324.661 14.8675C324.649 14.8689 324.64 14.8779 324.635 14.8875C324.63 14.8972 324.628 14.9079 324.623 14.9179C324.615 14.9373 324.598 14.9539 324.577 14.9629C324.576 14.9635 324.574 14.9642 324.573 14.9649C324.435 14.9867 324.015 15.0416 323.306 14.8675C323.207 14.8433 323.076 14.8109 322.871 14.7784C322.732 14.7563 322.444 14.7169 322.075 14.7138C322.034 14.7134 322.001 14.7138 321.979 14.7138C321.979 14.7708 321.979 14.8278 321.979 14.8851C322.204 14.8858 322.543 14.8979 322.954 14.9566C323.125 14.9812 323.214 14.9946 323.329 15.0185C324.017 15.1632 324.582 15.0665 324.582 15.0665C324.598 15.0648 324.624 15.0596 324.65 15.0423C324.698 15.0091 324.722 14.9452 324.701 14.9021L324.701 14.9017Z" fill="white"/>
<path d="M319.751 15.1873L319.719 15.1962L320.296 16.9288L320.329 16.9199L319.751 15.1873Z" fill="white"/>
<path d="M319.719 15.1859L319.068 16.9185L319.1 16.9284L319.751 15.1959L319.719 15.1859Z" fill="white"/>
<path d="M319.752 15.1912H319.718V16.9237H319.752V15.1912Z" fill="white"/>
<path d="M318.968 16.8929C318.968 17.1285 319.295 17.3196 319.698 17.3196C320.102 17.3196 320.428 17.1285 320.428 16.8929H318.968Z" fill="white"/>
<path opacity="0.11" d="M320.428 16.9161C320.429 16.9047 320.428 16.9047 320.428 16.8929H318.968C318.974 17.0294 319.042 17.0861 319.094 17.1327L320.428 16.9164V16.9161Z" fill="white"/>
<path d="M319.735 15.2068C319.779 15.2068 319.814 15.1747 319.814 15.1349C319.814 15.0952 319.779 15.063 319.735 15.063C319.691 15.063 319.656 15.0952 319.656 15.1349C319.656 15.1747 319.691 15.2068 319.735 15.2068ZM319.735 15.0938C319.76 15.0938 319.78 15.1121 319.78 15.1349C319.78 15.1577 319.76 15.176 319.735 15.176C319.71 15.176 319.69 15.1577 319.69 15.1349C319.69 15.1121 319.71 15.0938 319.735 15.0938Z" fill="white"/>
<path d="M319.262 14.9017C319.267 14.8844 319.282 14.8651 319.302 14.8675C319.313 14.8689 319.323 14.8779 319.328 14.8875C319.332 14.8972 319.335 14.9079 319.339 14.9179C319.348 14.9373 319.365 14.9539 319.385 14.9629C319.387 14.9635 319.388 14.9642 319.39 14.9649C319.528 14.9867 319.948 15.0416 320.657 14.8675C320.756 14.8433 320.886 14.8109 321.092 14.7784C321.231 14.7563 321.519 14.7169 321.888 14.7138C321.928 14.7134 321.961 14.7138 321.983 14.7138C321.982 14.7708 321.98 14.8278 321.979 14.8851C321.674 14.8793 321.27 14.8958 320.799 14.986C320.709 15.0033 320.709 15.0029 320.635 15.0185C319.946 15.1632 319.381 15.0665 319.381 15.0665C319.381 15.0665 319.333 15.0551 319.313 15.0423C319.307 15.0378 319.3 15.0326 319.295 15.0271C319.261 14.9943 319.249 14.9452 319.262 14.9021L319.262 14.9017Z" fill="white"/>
</g>
<rect x="316" y="9" width="16" height="16" rx="2" fill="#EABF4E"/>
<path d="M319.198 14.6305C319.253 14.6681 319.301 14.6992 319.347 14.7331C319.752 15.0329 320.213 15.1352 320.725 15.0461C320.773 15.0378 320.819 15.0205 320.864 15.0029C320.902 14.988 320.945 14.9697 320.942 14.9244C320.939 14.8802 320.898 14.8623 320.856 14.8529C320.747 14.8284 320.636 14.8053 320.526 14.7828C320.158 14.7075 319.791 14.6305 319.451 14.4712C318.929 14.2266 318.588 13.8514 318.437 13.335C318.42 13.278 318.413 13.2206 318.421 13.1619C318.431 13.0866 318.473 13.0666 318.545 13.1042C318.647 13.1578 318.729 13.2348 318.818 13.3029C319.327 13.6915 319.91 13.9188 320.576 13.9578C320.622 13.9606 320.701 13.9914 320.71 13.9288C320.717 13.8805 320.634 13.8874 320.591 13.8753C319.986 13.7064 319.399 13.4998 318.891 13.1484C318.283 12.729 317.96 12.1808 318.015 11.4726C318.023 11.3662 318.038 11.2608 318.084 11.1617C318.161 10.9941 318.301 10.9544 318.464 11.0605C318.635 11.1707 318.767 11.3171 318.901 11.4612C319.299 11.891 319.701 12.3176 320.198 12.66C320.807 13.08 321.484 13.3716 322.227 13.5357C322.402 13.5744 322.579 13.6107 322.757 13.6397C322.852 13.6549 322.865 13.6891 322.834 13.7654C322.71 14.066 322.669 14.3765 322.714 14.6951C322.744 14.9117 322.881 15.0599 323.059 15.0785C323.23 15.0965 323.408 14.9732 323.477 14.7614C323.545 14.5517 323.583 14.3341 323.646 14.1226C323.75 13.7661 323.891 13.6884 324.294 13.7585C324.394 13.7758 324.489 13.8103 324.586 13.8394C324.618 13.849 324.657 13.8611 324.664 13.8932C324.69 14 324.787 14.0231 324.88 14.0518C324.949 14.0732 325.013 14.1033 325.034 14.1755C325.042 14.2031 325.037 14.2311 325.01 14.2498C324.982 14.2681 324.961 14.2511 324.939 14.2366C324.792 14.1361 324.636 14.1966 324.484 14.2204C324.452 14.2252 324.437 14.2567 324.437 14.2853C324.44 14.5092 324.452 14.7331 324.609 14.9213C324.7 15.0295 324.814 15.11 324.977 15.0727C325.14 15.0353 325.237 14.932 325.269 14.788C325.347 14.4432 325.296 14.1071 325.171 13.7772C325.127 13.6597 325.129 13.6583 325.27 13.6369C326.166 13.5001 326.99 13.2041 327.726 12.7163C328.196 12.405 328.583 12.0167 328.957 11.616C329.095 11.4671 329.231 11.3151 329.385 11.179C329.423 11.1455 329.461 11.1119 329.503 11.0833C329.703 10.9461 329.872 10.999 329.938 11.2177C330.01 11.4571 330 11.6989 329.961 11.9414C329.88 12.434 329.581 12.8057 329.167 13.1097C328.649 13.4891 328.041 13.6994 327.415 13.8767C327.404 13.8798 327.392 13.8801 327.382 13.885C327.349 13.9008 327.282 13.8901 327.292 13.9409C327.299 13.9779 327.357 13.9661 327.393 13.9641C328.014 13.9319 328.568 13.7381 329.056 13.3875C329.168 13.3067 329.278 13.2231 329.391 13.1429C329.431 13.1146 329.471 13.0669 329.529 13.0983C329.586 13.1298 329.576 13.1882 329.567 13.2386C329.487 13.6666 329.253 14.0097 328.877 14.2767C328.44 14.5873 327.919 14.6996 327.393 14.7984C327.312 14.8136 327.23 14.8281 327.15 14.8474C327.103 14.8588 327.048 14.8744 327.045 14.9279C327.043 14.9814 327.099 15.0011 327.143 15.0157C327.342 15.0803 327.548 15.0944 327.756 15.0754C328.113 15.0426 328.423 14.9134 328.695 14.703C328.721 14.683 328.748 14.6346 328.785 14.665C328.815 14.6895 328.779 14.7289 328.762 14.7576C328.345 15.4665 327.565 15.9356 326.621 15.8617C326.369 15.842 326.118 15.8137 325.866 15.8023C325.355 15.7791 325.016 15.9722 324.815 16.3992C324.776 16.4828 324.727 16.5039 324.634 16.4921C324.199 16.4365 323.762 16.4341 323.326 16.4953C323.249 16.506 323.209 16.4797 323.178 16.4165C322.944 15.9425 322.622 15.7681 322.052 15.7998C321.77 15.8157 321.491 15.8644 321.207 15.8648C320.289 15.8655 319.657 15.4478 319.217 14.7479C319.2 14.7199 319.175 14.6899 319.197 14.6318L319.198 14.6305Z" fill="#151513"/>
<path d="M323.999 18.6304C323.953 18.7157 323.915 18.7972 323.867 18.8729C323.779 19.0111 323.639 19.0881 323.471 19.1251C323.436 19.133 323.394 19.1434 323.368 19.1071C323.345 19.0739 323.376 19.0494 323.396 19.0256C323.425 18.99 323.455 18.9548 323.487 18.9206C323.718 18.6677 323.776 18.3778 323.709 18.0617C323.705 18.0417 323.699 18.0213 323.691 18.0023C323.681 17.9778 323.674 17.9426 323.636 17.9481C323.605 17.9526 323.608 17.9847 323.604 18.0079C323.585 18.1229 323.574 18.2397 323.544 18.3526C323.48 18.6007 323.326 18.7862 323.055 18.8767C323.023 18.8871 322.989 18.8912 322.955 18.8957C322.926 18.8995 322.893 18.9071 322.875 18.876C322.859 18.8494 322.882 18.8301 322.899 18.8131C322.939 18.7724 322.982 18.7333 323.023 18.6943C323.261 18.4708 323.391 18.2044 323.406 17.8935C323.407 17.8631 323.404 17.832 323.399 17.8013C323.396 17.7771 323.387 17.7522 323.354 17.7501C323.328 17.7484 323.312 17.7653 323.302 17.7843C323.277 17.8337 323.25 17.8835 323.229 17.9346C323.165 18.0863 323.081 18.2272 322.975 18.3575C322.875 18.4798 322.74 18.5371 322.573 18.5281C322.521 18.5254 322.463 18.5129 322.442 18.4621C322.418 18.4072 322.465 18.3706 322.504 18.3409C322.685 18.2062 322.872 18.078 323.005 17.899C323.179 17.6659 323.31 17.4182 323.306 17.1276C323.305 17.0575 323.336 17.0216 323.415 17.0105C323.81 16.9552 324.204 16.9646 324.598 17.0105C324.658 17.0174 324.695 17.0457 324.696 17.1045C324.702 17.6192 325.001 17.9851 325.425 18.2873C325.449 18.3043 325.473 18.3205 325.495 18.3395C325.533 18.3723 325.585 18.4038 325.564 18.459C325.541 18.5205 325.475 18.5288 325.413 18.5295C325.266 18.5312 325.143 18.4842 325.047 18.3775C324.917 18.2321 324.831 18.0652 324.755 17.8928C324.745 17.8707 324.736 17.8479 324.724 17.8268C324.705 17.7947 324.694 17.7436 324.645 17.7498C324.585 17.7574 324.598 17.8141 324.598 17.8514C324.597 18.1288 324.692 18.3765 324.886 18.591C324.953 18.6649 325.026 18.7337 325.097 18.8052C325.117 18.8252 325.146 18.8453 325.131 18.8753C325.112 18.9112 325.073 18.9002 325.04 18.8964C324.775 18.8646 324.52 18.6314 324.456 18.3568C324.431 18.2466 324.419 18.1336 324.399 18.022C324.394 17.9944 324.408 17.9512 324.359 17.9502C324.322 17.9495 324.319 17.9875 324.311 18.0123C324.227 18.2756 324.264 18.5281 324.403 18.7679C324.455 18.8587 324.523 18.942 324.6 19.0176C324.625 19.0422 324.659 19.0701 324.637 19.1071C324.611 19.1489 324.563 19.1358 324.525 19.1268C324.296 19.0733 324.14 18.9458 324.06 18.7433C324.046 18.7088 324.048 18.668 323.999 18.6311L323.999 18.6304Z" fill="#151513"/>
<g clip-path="url(#clip3_4355_33250)">
<path d="M318.019 20.4699C318.019 20.4332 318.055 20.4003 318.095 20.4003H318.22C318.26 20.4003 318.296 20.4332 318.296 20.4699V22.8964C318.296 22.933 318.26 22.966 318.22 22.966H318.095C318.055 22.966 318.019 22.933 318.019 22.8964V20.4699Z" fill="#151513"/>
<path d="M319.596 22.035C319.769 22.035 319.938 22.0826 319.938 22.0826C319.942 21.8114 319.906 21.6867 319.677 21.6867C319.448 21.6867 319.267 21.7418 319.195 21.7674C319.155 21.7821 319.131 21.7637 319.119 21.7307L319.087 21.6391C319.071 21.5951 319.095 21.5732 319.131 21.5585C319.155 21.5474 319.388 21.4631 319.689 21.4631C320.098 21.4631 320.198 21.6538 320.198 22.0826V22.8963C320.198 22.933 320.162 22.9659 320.122 22.9659H320.046C320.002 22.9659 319.99 22.944 319.978 22.9109L319.946 22.8119C319.861 22.8889 319.697 23.0026 319.448 23.0026C319.167 23.0026 318.954 22.8156 318.954 22.5224C318.954 22.2292 319.183 22.0349 319.596 22.0349V22.035ZM319.492 22.7827C319.693 22.7827 319.865 22.6692 319.934 22.5775V22.288C319.885 22.2624 319.773 22.2293 319.596 22.2293C319.372 22.2293 319.211 22.332 319.211 22.5225C319.211 22.6692 319.32 22.7827 319.492 22.7827Z" fill="#151513"/>
<path d="M320.804 21.5841C320.788 21.5327 320.804 21.4998 320.865 21.4998H320.989C321.025 21.4998 321.053 21.5181 321.061 21.5401L321.354 22.5078H321.358L321.812 21.4998C321.82 21.4814 321.844 21.4631 321.88 21.4631H321.9C321.936 21.4631 321.96 21.4815 321.968 21.4998L322.418 22.5115H322.422L322.711 21.5401C322.719 21.5181 322.747 21.4998 322.779 21.4998H322.903C322.964 21.4998 322.98 21.5327 322.964 21.5841L322.526 22.9659C322.518 22.9879 322.49 23.0026 322.458 23.0026H322.438C322.402 23.0026 322.378 22.9842 322.37 22.9659L321.88 21.8664L321.406 22.9659C321.398 22.9843 321.374 23.0026 321.338 23.0026H321.318C321.282 23.0026 321.258 22.9879 321.25 22.9659L320.804 21.5841H320.804Z" fill="#151513"/>
<path d="M323.525 21.117C323.525 21.018 323.61 20.941 323.714 20.941C323.818 20.941 323.907 21.018 323.907 21.117C323.907 21.216 323.822 21.2893 323.714 21.2893C323.606 21.2893 323.525 21.2123 323.525 21.117ZM323.582 21.5695C323.582 21.5329 323.618 21.4999 323.658 21.4999H323.782C323.822 21.4999 323.858 21.5329 323.858 21.5695V22.8964C323.858 22.933 323.822 22.966 323.782 22.966H323.658C323.618 22.966 323.582 22.933 323.582 22.8964V21.5695Z" fill="white"/>
<path d="M324.629 21.5695C324.629 21.5328 324.665 21.4999 324.705 21.4999H324.782C324.818 21.4999 324.838 21.5146 324.846 21.5439L324.882 21.6575C324.882 21.6575 325.111 21.4631 325.444 21.4631C325.909 21.4631 326.066 21.7418 326.066 22.1229V22.8963C326.066 22.933 326.03 22.9659 325.99 22.9659H325.861C325.821 22.9659 325.785 22.933 325.785 22.8963V22.1229C325.785 21.8443 325.649 21.7088 325.424 21.7088C325.123 21.7088 324.906 21.9177 324.906 21.9177V22.8963C324.906 22.933 324.87 22.9659 324.83 22.9659H324.706C324.665 22.9659 324.629 22.933 324.629 22.8963V21.5695H324.629Z" fill="white"/>
<path d="M326.676 22.8598L327.463 21.7418V21.7308H326.788C326.748 21.7308 326.716 21.6978 326.716 21.6612V21.5695C326.716 21.5292 326.748 21.4999 326.788 21.4999H327.796C327.856 21.4999 327.896 21.5513 327.864 21.5989L327.097 22.7242V22.7352H327.715C327.76 22.7352 327.792 22.7645 327.792 22.8048V22.8965C327.792 22.9331 327.76 22.9661 327.715 22.9661H326.752C326.712 22.9661 326.676 22.9331 326.676 22.8965V22.8599V22.8598Z" fill="white"/>
<path d="M329.164 21.4631C329.61 21.4631 329.963 21.815 329.963 22.2292C329.963 22.6433 329.61 23.0026 329.164 23.0026C328.719 23.0026 328.366 22.6507 328.366 22.2292C328.366 21.8077 328.719 21.4631 329.164 21.4631ZM329.164 22.7644C329.457 22.7644 329.686 22.5261 329.686 22.2292C329.686 21.9323 329.457 21.705 329.164 21.705C328.871 21.705 328.643 21.9396 328.643 22.2292C328.643 22.5187 328.871 22.7644 329.164 22.7644Z" fill="white"/>
</g>
</g>
<defs>
<clipPath id="clip0_4355_33250">
<rect width="350" height="218.75" fill="white"/>
</clipPath>
<clipPath id="clip1_4355_33250">
<rect width="298.82" height="206.85" fill="white" transform="translate(25.59 25)"/>
</clipPath>
<clipPath id="clip2_4355_33250">
<rect width="11.9859" height="8.27329" fill="white" transform="translate(316.014 9.04663)"/>
</clipPath>
<clipPath id="clip3_4355_33250">
<rect width="11.9038" height="2.6087" fill="white" transform="translate(318.023 20.3898)"/>
</clipPath>
</defs>
</svg>
