<svg width="90" height="107" viewBox="0 0 90 107" fill="none" xmlns="http://www.w3.org/2000/svg">
<g clip-path="url(#clip0_4235_30519)">
<circle cx="45" cy="45.4883" r="45" fill="white"/>
<g clip-path="url(#clip1_4235_30519)">
<path d="M61.1219 70.3786C60.142 70.3786 59.1632 70.3786 58.1834 70.3786C58.0085 70.1911 58.0388 69.9547 58.0378 69.7309C58.0329 68.7228 58.0359 67.7147 58.0359 66.7055C58.0359 66.5434 58.0378 66.3802 58.0349 66.2181C58.0144 65.2988 57.5005 64.7019 56.7268 64.699C55.9766 64.6961 55.4237 65.3252 55.4139 66.2181C55.4022 67.3727 55.4139 68.5274 55.4081 69.6821C55.4071 69.9214 55.4481 70.1754 55.2625 70.3786C54.2827 70.3786 53.3038 70.3786 52.324 70.3786C52.1492 70.1911 52.1794 69.9547 52.1785 69.7309C52.1736 68.7228 52.1765 67.7147 52.1765 66.7055C52.1765 66.5434 52.1785 66.3802 52.1755 66.2181C52.155 65.2988 51.6412 64.7019 50.8675 64.699C50.1172 64.6961 49.5643 65.3252 49.5545 66.2181C49.5428 67.3727 49.5545 68.5274 49.5487 69.6821C49.5477 69.9214 49.5887 70.1754 49.4031 70.3786C48.4233 70.3786 47.4445 70.3786 46.4647 70.3786C46.28 70.1764 46.3201 69.9244 46.3181 69.686C46.3132 68.5694 46.3005 67.4528 46.3211 66.3363C46.3357 65.5147 46.0729 64.912 45.2191 64.6824C45.1097 64.6531 45.012 64.5915 44.9436 64.4929C44.843 64.3151 44.8401 64.1197 44.8401 63.9253C44.8352 62.3535 44.8352 60.7817 44.8401 59.2089C44.8401 58.9832 44.8323 58.7517 44.9905 58.5602C45.1986 58.3932 45.4487 58.4098 45.691 58.4098C51.5806 58.4059 57.4693 58.4069 63.3589 58.4098C63.6022 58.4098 63.8513 58.3971 64.0535 58.5759C65.5179 58.5759 66.9822 58.5739 68.4466 58.5778C69.4225 58.5808 70.0027 59.1513 70.0037 60.1184C70.0076 63.0305 70.0076 65.9436 70.0037 68.8557C70.0027 69.7857 69.4059 70.3894 68.4847 70.3913C67.0047 70.3943 65.5237 70.3845 64.0437 70.3796C63.8689 70.192 63.8992 69.9556 63.8982 69.7319C63.8933 68.7238 63.8962 67.7156 63.8962 66.7065C63.8962 66.5443 63.8982 66.3812 63.8952 66.219C63.8747 65.2998 63.3609 64.7029 62.5872 64.7C61.8369 64.697 61.284 65.3262 61.2743 66.219C61.2625 67.3737 61.2743 68.5284 61.2684 69.6831C61.2674 69.9224 61.3084 70.1764 61.1228 70.3796L61.1219 70.3786Z" fill="#FEC771"/>
<path d="M45.0043 58.5748C45.0043 60.5569 45.0023 62.538 45.0023 64.5201C44.9847 64.5426 44.9672 64.566 44.9506 64.5885C44.8607 64.6617 44.7522 64.6979 44.6448 64.737C44 64.9734 43.6972 65.4452 43.6933 66.1202C43.6855 67.3072 43.6943 68.495 43.6884 69.682C43.6874 69.9223 43.7285 70.1753 43.5487 70.3814C42.5669 70.3814 41.5842 70.3814 40.6024 70.3814C40.4324 70.1919 40.4618 69.9555 40.4608 69.7308C40.4559 68.7217 40.4588 67.7135 40.4588 66.7044C40.4588 66.5413 40.4608 66.3791 40.4578 66.216C40.4373 65.2957 39.9235 64.6989 39.1498 64.6959C38.3995 64.693 37.8466 65.3221 37.8369 66.216C37.8251 67.3707 37.8369 68.5263 37.831 69.681C37.83 69.9213 37.8691 70.1743 37.6894 70.3804C36.7076 70.3804 35.7248 70.3804 34.7431 70.3804C34.5731 70.1909 34.6024 69.9545 34.6014 69.7298C34.5965 68.7217 34.5995 67.7126 34.5995 66.7034C34.5995 66.5403 34.6014 66.3781 34.5985 66.215C34.578 65.2948 34.0641 64.6979 33.2904 64.695C32.5402 64.692 31.9873 65.3211 31.9775 66.215C31.9658 67.3697 31.9775 68.5253 31.9716 69.68C31.9707 69.9203 32.0097 70.1733 31.83 70.3795C30.8482 70.3795 29.8655 70.3795 28.8837 70.3795C28.7137 70.1899 28.743 69.9535 28.742 69.7289C28.7372 68.7207 28.7401 67.7116 28.7401 66.7025C28.7401 66.5393 28.742 66.3772 28.7391 66.214C28.7186 65.2938 28.2048 64.6969 27.4311 64.694C26.6808 64.6911 26.1279 65.3202 26.1181 66.214C26.1064 67.3687 26.1181 68.5244 26.1123 69.679C26.1113 69.9194 26.1504 70.1724 25.9706 70.3785C24.4584 70.3814 22.9452 70.3941 21.433 70.3843C20.6593 70.3785 20.0106 69.724 20.0087 68.9464C20.0009 65.9698 19.9999 62.9932 20.0087 60.0166C20.0116 59.1863 20.6329 58.5816 21.4711 58.5757C22.9677 58.566 24.4643 58.5728 25.9608 58.5728C26.1465 58.4038 26.379 58.4077 26.6056 58.4077C32.5255 58.4038 38.4445 58.4038 44.3644 58.4077C44.5588 58.4077 44.7561 58.4048 44.9349 58.5054C44.9584 58.5279 44.9828 58.5503 45.0062 58.5728L45.0043 58.5748Z" fill="#FEE4AB"/>
<path d="M64.0528 58.5747C57.703 58.5747 51.3542 58.5747 45.0045 58.5747C44.8345 58.3901 44.8403 58.1586 44.8394 57.9319C44.8354 55.9195 44.8354 53.9081 44.8394 51.8957C44.8394 51.6857 44.8354 51.4718 44.9517 51.2813C45.1764 51.0488 45.4821 51.0429 45.7664 51.0224C47.9029 50.8651 50.0354 50.6746 52.1699 50.4968C54.3044 50.319 56.4389 50.1452 58.5715 49.9566C59.2826 49.8941 59.9928 49.8208 60.7069 49.7935C60.8554 49.7876 61 49.7817 61.126 49.8775C61.5783 49.8472 62.0306 49.8003 62.4839 49.7905C63.4237 49.77 64.044 50.3786 64.0469 51.3194C64.0528 53.7372 64.0518 56.1559 64.0537 58.5747H64.0528Z" fill="#FEA132"/>
<path d="M45.014 51.2618C45.0101 53.6991 45.0072 56.1374 45.0033 58.5747C38.6545 58.5747 32.3057 58.5747 25.9579 58.5747C25.9579 57.1602 25.956 55.7457 25.9608 54.3311C25.9647 53.3337 26.5274 52.7593 27.5141 52.7095C27.9674 52.687 28.4197 52.6362 28.872 52.5981C29.08 52.4145 29.334 52.3852 29.5978 52.3656C31.8612 52.1927 34.1217 51.9876 36.3842 51.8049C38.5334 51.631 40.6815 51.4357 42.8317 51.2774C43.3484 51.2393 43.8662 51.2012 44.383 51.1455C44.5774 51.125 44.7708 51.0889 44.9535 51.1944C44.974 51.2168 44.9945 51.2393 45.015 51.2618H45.014Z" fill="#FEC771"/>
<path d="M61.1258 49.8774C60.0297 49.977 58.9336 50.0776 57.8376 50.1763C56.4514 50.3013 55.0652 50.4274 53.679 50.5475C52.792 50.6237 51.903 50.6872 51.015 50.7615C49.5477 50.8845 48.0804 51.0145 46.6131 51.1385C46.0807 51.1835 45.5464 51.2206 45.014 51.2616L44.9915 51.2392C44.8323 51.0672 44.8401 50.8504 44.8401 50.6403C44.8352 48.5918 44.8352 46.5423 44.8401 44.4937C44.8401 44.315 44.8469 44.1352 44.9221 43.9682C45.0472 43.7347 45.2709 43.7005 45.5024 43.678C49.1726 43.3186 52.8398 42.9366 56.511 42.582C56.8988 42.5449 57.2866 42.5038 57.6754 42.4677C57.8552 42.4511 58.0339 42.4257 58.1853 42.5585C58.6113 42.6113 59.0216 42.4716 59.4436 42.4628C60.5103 42.4403 61.116 43.0216 61.118 44.0825C61.1219 46.0138 61.1238 47.9451 61.1267 49.8774H61.1258Z" fill="#FEC771"/>
<path d="M45.0083 43.9202C45.0034 46.3595 44.9975 48.7998 44.9927 51.2391C43.1756 51.4032 41.3596 51.5761 39.5416 51.7285C38.173 51.8438 36.8024 51.9229 35.4338 52.0362C34.0828 52.1486 32.7337 52.2892 31.3836 52.4074C30.5474 52.4807 29.7102 52.5354 28.873 52.5989C28.8789 50.7477 28.8848 48.8965 28.8906 47.0453C28.8936 45.9932 29.4328 45.4676 30.4947 45.3748C30.9362 45.3358 31.3973 45.3748 31.8223 45.1951C32.1476 44.9587 32.5403 45.0056 32.9017 44.9704C36.7575 44.5894 40.6113 44.1948 44.4671 43.8128C44.6293 43.7972 44.7904 43.7806 44.9428 43.8607C44.9653 43.8802 44.9868 43.9007 45.0093 43.9212L45.0083 43.9202Z" fill="#FEE4AB"/>
<path d="M58.1856 42.5586C56.3744 42.7511 54.5643 42.9523 52.7521 43.134C51.2917 43.2806 49.8283 43.3929 48.3679 43.5385C47.2464 43.6508 46.1288 43.7915 45.0093 43.9194C44.8462 43.7514 44.8423 43.5375 44.8413 43.3255C44.8354 41.276 44.8354 39.2265 44.8413 37.177C44.8413 36.9982 44.8501 36.8185 44.9331 36.6534C45.0865 36.4267 45.3298 36.3906 45.573 36.3603C48.6307 35.9803 51.6893 35.6032 54.745 35.2046C55.0586 35.1636 55.3448 35.3756 55.6525 35.2486C55.9739 35.2115 56.2953 35.1519 56.6187 35.1421C57.5565 35.1128 58.1866 35.7253 58.1885 36.6651C58.1934 38.6296 58.1885 40.5941 58.1875 42.5577L58.1856 42.5586Z" fill="#FEA132"/>
<path d="M45.013 36.6112C45.011 39.0476 45.009 41.4839 45.0081 43.9213C43.8016 44.0463 42.5961 44.1762 41.3887 44.2964C40.278 44.4068 39.1653 44.5015 38.0536 44.6119C36.895 44.7272 35.7394 44.8835 34.5788 44.9656C33.6576 45.031 32.7481 45.2215 31.8201 45.1951C31.8201 43.3635 31.8162 41.5308 31.8201 39.6992C31.822 38.7145 32.3291 38.1664 33.3011 38.0609C33.7827 38.0092 34.2623 37.931 34.7429 37.8656C34.908 37.7151 35.1132 37.6672 35.3252 37.6418C38.377 37.2745 41.4248 36.8721 44.4776 36.5057C44.6398 36.4862 44.8019 36.4627 44.9543 36.5487C44.9749 36.5702 44.9944 36.5917 45.0149 36.6132L45.013 36.6112Z" fill="#FEC771"/>
<path d="M37.6823 31.9125C37.6813 28.5999 37.6784 25.2873 37.6803 21.9746C37.6813 21.0085 38.2968 20.3911 39.2629 20.3911C41.1786 20.3911 43.0952 20.3989 45.0109 20.4038C45.1633 20.5572 45.1643 20.7555 45.1653 20.9489C45.1721 22.5686 45.1721 24.1873 45.1653 25.807C45.1653 25.9691 45.1526 26.1313 45.0793 26.2808C44.9806 26.4507 44.8009 26.4937 44.6348 26.5553C43.992 26.7946 43.6931 27.2655 43.6902 27.9405C43.6862 28.7367 43.6911 29.5318 43.6872 30.328C43.6862 30.538 43.6999 30.752 43.5964 30.9483C43.4606 31.1427 43.2466 31.1691 43.0386 31.2043C41.4531 31.4729 39.8666 31.7347 38.2802 31.9965C38.075 32.0307 37.8601 32.0903 37.6813 31.9135L37.6823 31.9125Z" fill="#FEC771"/>
<path d="M45.0015 26.3276C45.0044 24.3533 45.0073 22.3781 45.0103 20.4038C46.9748 20.3989 48.9393 20.3852 50.9028 20.394C51.74 20.3979 52.3252 21.0417 52.3262 21.9218C52.3301 24.4383 52.3271 26.9548 52.3262 29.4722C52.2119 29.6344 52.0341 29.6705 51.8582 29.6998C50.2229 29.9724 48.5876 30.2498 46.9513 30.5165C46.7911 30.5429 46.629 30.5741 46.4746 30.4901C46.3027 30.325 46.3281 30.1062 46.3261 29.9001C46.3183 29.3354 46.3251 28.7718 46.3232 28.2071C46.3203 27.1042 46.1386 26.8405 45.1138 26.4458C45.064 26.4185 45.0269 26.3784 45.0015 26.3276Z" fill="#FEA132"/>
<path d="M46.4647 30.4382C48.4194 30.1159 50.3732 29.7935 52.3279 29.4721C52.663 29.4213 53 29.3812 53.3331 29.3178C54.4624 29.1009 55.2557 29.7417 55.2576 30.8857C55.2605 32.1996 55.2674 33.5135 55.2517 34.8274C55.2478 35.1351 55.3299 35.2865 55.6513 35.2494C54.9518 35.3422 54.2534 35.436 53.5539 35.5259C52.0827 35.7144 50.6115 35.901 49.1403 36.0856C48.0042 36.2273 46.8671 36.3631 45.731 36.5047C45.4907 36.535 45.2523 36.576 45.014 36.6122L44.9915 36.5897C44.8684 36.4627 44.8479 36.2996 44.8469 36.1364C44.8401 34.4464 44.8264 32.7564 44.8538 31.0664C44.8547 30.9853 44.8733 30.9052 44.8977 30.827C44.928 30.7372 44.9808 30.6639 45.056 30.6063C45.5141 30.4588 45.9694 30.279 46.4656 30.4382H46.4647Z" fill="#FEC771"/>
<path d="M45.0005 30.7459C44.9975 32.6938 44.9946 34.6407 44.9917 36.5886C43.244 36.8133 41.4974 37.0419 39.7497 37.2607C38.3215 37.4385 36.8923 37.6036 35.4641 37.7756C35.2238 37.8039 34.9835 37.8351 34.7432 37.8645C34.7451 36.5144 34.7461 35.1643 34.75 33.8143C34.7529 32.8862 35.2492 32.3343 36.1606 32.2005C36.6715 32.1262 37.1756 32.0109 37.6826 31.9133C38.8139 31.7364 39.947 31.5674 41.0763 31.3809C41.9028 31.2441 42.7253 31.0839 43.5488 30.9344C44.0109 30.7048 44.4827 30.5476 44.9995 30.7469L45.0005 30.7459Z" fill="#FEE4AB"/>
<path d="M25.9687 70.3813C25.9658 68.9346 25.955 67.4878 25.9638 66.041C25.9687 65.1736 26.6047 64.5327 27.4253 64.5337C28.2458 64.5337 28.8808 65.1736 28.8867 66.041C28.8955 67.4878 28.8847 68.9346 28.8818 70.3813C27.9108 70.3813 26.9397 70.3813 25.9687 70.3813Z" fill="#764A55"/>
<path d="M31.8281 70.3813C31.8252 68.9346 31.8144 67.4878 31.8232 66.041C31.8281 65.1736 32.4641 64.5327 33.2846 64.5337C34.1052 64.5337 34.7402 65.1736 34.7461 66.041C34.7549 67.4878 34.7441 68.9346 34.7412 70.3813C33.7701 70.3813 32.7991 70.3813 31.8281 70.3813Z" fill="#764A55"/>
<path d="M37.6875 70.3813C37.6845 68.9346 37.6738 67.4878 37.6826 66.041C37.6875 65.1736 38.3234 64.5327 39.144 64.5337C39.9646 64.5337 40.5996 65.1726 40.6054 66.041C40.6142 67.4878 40.6035 68.9346 40.6006 70.3813C39.6295 70.3813 38.6585 70.3813 37.6875 70.3813Z" fill="#764A55"/>
<path d="M49.4032 70.3784C49.4023 68.9492 49.3954 67.5191 49.4013 66.0899C49.4052 65.1853 50.0265 64.5337 50.8647 64.5347C51.7038 64.5347 52.3231 65.1833 52.3271 66.0899C52.3339 67.5191 52.327 68.9492 52.3251 70.3784C51.3511 70.3784 50.3782 70.3784 49.4042 70.3784H49.4032Z" fill="#613426"/>
<path d="M55.2626 70.3784C55.2616 68.9492 55.2548 67.5191 55.2606 66.0899C55.2646 65.1853 55.8859 64.5337 56.724 64.5347C57.5632 64.5347 58.1825 65.1833 58.1864 66.0899C58.1933 67.5191 58.1864 68.9492 58.1845 70.3784C57.2105 70.3784 56.2375 70.3784 55.2636 70.3784H55.2626Z" fill="#613426"/>
<path d="M61.122 70.3784C61.121 68.9492 61.1142 67.5191 61.12 66.0899C61.1239 65.1853 61.7452 64.5337 62.5834 64.5347C63.4225 64.5347 64.0419 65.1833 64.0458 66.0899C64.0526 67.5191 64.0458 68.9492 64.0438 70.3784C63.0699 70.3784 62.0969 70.3784 61.123 70.3784H61.122Z" fill="#613426"/>
<path d="M45.0015 64.52C45.9589 64.6099 46.4669 65.153 46.4678 66.1006C46.4688 67.5259 46.4659 68.9522 46.4639 70.3774C45.9784 70.3774 45.4929 70.3755 45.0064 70.3745C44.8237 70.1957 44.8403 69.9613 44.8394 69.7376C44.8335 68.2185 44.8335 66.7004 44.8394 65.1814C44.8394 64.9577 44.8257 64.7242 45.0064 64.5444L45.0015 64.519V64.52Z" fill="#613426"/>
<path d="M45.0072 64.5454C45.0072 66.4884 45.0072 68.4324 45.0072 70.3755C44.5207 70.3774 44.0343 70.3794 43.5478 70.3823C43.5448 68.9277 43.5331 67.4731 43.5429 66.0186C43.5487 65.153 44.1241 64.5903 45.0072 64.5464V64.5454Z" fill="#764A55"/>
<path d="M45.0005 30.7461C44.5169 30.8086 44.0334 30.8711 43.5498 30.9337C43.5459 29.9646 43.54 28.9965 43.54 28.0274C43.54 26.9997 43.9835 26.4878 45.0015 26.3276L45.0063 26.3648C45.1372 26.4869 45.1568 26.65 45.1587 26.8122C45.1724 28.0128 45.1705 29.2143 45.1607 30.4149C45.1607 30.497 45.1255 30.5732 45.1089 30.6523C45.0728 30.6836 45.0366 30.7148 44.9995 30.7451L45.0005 30.7461Z" fill="#764A55"/>
<path d="M45.1088 30.6533C44.9574 30.5292 45.0052 30.3563 45.0052 30.201C45.0023 28.9222 45.0052 27.6445 45.0052 26.3657C45.8434 26.3638 46.454 26.9411 46.4647 27.7705C46.4764 28.6595 46.4647 29.5494 46.4647 30.4384C46.0173 30.5351 45.5699 30.6377 45.1088 30.6533Z" fill="#613426"/>
</g>
</g>
<path d="M15.04 104.07C14.5733 104.07 14.1533 103.99 13.78 103.83C13.4067 103.663 13.1133 103.43 12.9 103.13C12.6867 102.83 12.58 102.48 12.58 102.08H13.8C13.8267 102.38 13.9433 102.627 14.15 102.82C14.3633 103.013 14.66 103.11 15.04 103.11C15.4333 103.11 15.74 103.017 15.96 102.83C16.18 102.637 16.29 102.39 16.29 102.09C16.29 101.857 16.22 101.667 16.08 101.52C15.9467 101.373 15.7767 101.26 15.57 101.18C15.37 101.1 15.09 101.013 14.73 100.92C14.2767 100.8 13.9067 100.68 13.62 100.56C13.34 100.433 13.1 100.24 12.9 99.98C12.7 99.72 12.6 99.3733 12.6 98.94C12.6 98.54 12.7 98.19 12.9 97.89C13.1 97.59 13.38 97.36 13.74 97.2C14.1 97.04 14.5167 96.96 14.99 96.96C15.6633 96.96 16.2133 97.13 16.64 97.47C17.0733 97.8033 17.3133 98.2633 17.36 98.85H16.1C16.08 98.5967 15.96 98.38 15.74 98.2C15.52 98.02 15.23 97.93 14.87 97.93C14.5433 97.93 14.2767 98.0133 14.07 98.18C13.8633 98.3467 13.76 98.5867 13.76 98.9C13.76 99.1133 13.8233 99.29 13.95 99.43C14.0833 99.5633 14.25 99.67 14.45 99.75C14.65 99.83 14.9233 99.9167 15.27 100.01C15.73 100.137 16.1033 100.263 16.39 100.39C16.6833 100.517 16.93 100.713 17.13 100.98C17.3367 101.24 17.44 101.59 17.44 102.03C17.44 102.383 17.3433 102.717 17.15 103.03C16.9633 103.343 16.6867 103.597 16.32 103.79C15.96 103.977 15.5333 104.07 15.04 104.07ZM19.9252 99.3C20.1185 99.0467 20.3818 98.8333 20.7152 98.66C21.0485 98.4867 21.4252 98.4 21.8452 98.4C22.3252 98.4 22.7618 98.52 23.1552 98.76C23.5552 98.9933 23.8685 99.3233 24.0952 99.75C24.3218 100.177 24.4352 100.667 24.4352 101.22C24.4352 101.773 24.3218 102.27 24.0952 102.71C23.8685 103.143 23.5552 103.483 23.1552 103.73C22.7618 103.97 22.3252 104.09 21.8452 104.09C21.4252 104.09 21.0518 104.007 20.7252 103.84C20.3985 103.667 20.1318 103.453 19.9252 103.2V106.62H18.7852V98.49H19.9252V99.3ZM23.2752 101.22C23.2752 100.84 23.1952 100.513 23.0352 100.24C22.8818 99.96 22.6752 99.75 22.4152 99.61C22.1618 99.4633 21.8885 99.39 21.5952 99.39C21.3085 99.39 21.0352 99.4633 20.7752 99.61C20.5218 99.7567 20.3152 99.97 20.1552 100.25C20.0018 100.53 19.9252 100.86 19.9252 101.24C19.9252 101.62 20.0018 101.953 20.1552 102.24C20.3152 102.52 20.5218 102.733 20.7752 102.88C21.0352 103.027 21.3085 103.1 21.5952 103.1C21.8885 103.1 22.1618 103.027 22.4152 102.88C22.6752 102.727 22.8818 102.507 23.0352 102.22C23.1952 101.933 23.2752 101.6 23.2752 101.22ZM30.6125 101.11C30.6125 101.317 30.5992 101.503 30.5725 101.67H26.3625C26.3958 102.11 26.5592 102.463 26.8525 102.73C27.1458 102.997 27.5058 103.13 27.9325 103.13C28.5458 103.13 28.9792 102.873 29.2325 102.36H30.4625C30.2958 102.867 29.9925 103.283 29.5525 103.61C29.1192 103.93 28.5792 104.09 27.9325 104.09C27.4058 104.09 26.9325 103.973 26.5125 103.74C26.0992 103.5 25.7725 103.167 25.5325 102.74C25.2992 102.307 25.1825 101.807 25.1825 101.24C25.1825 100.673 25.2958 100.177 25.5225 99.75C25.7558 99.3167 26.0792 98.9833 26.4925 98.75C26.9125 98.5167 27.3925 98.4 27.9325 98.4C28.4525 98.4 28.9158 98.5133 29.3225 98.74C29.7292 98.9667 30.0458 99.2867 30.2725 99.7C30.4992 100.107 30.6125 100.577 30.6125 101.11ZM29.4225 100.75C29.4158 100.33 29.2658 99.9933 28.9725 99.74C28.6792 99.4867 28.3158 99.36 27.8825 99.36C27.4892 99.36 27.1525 99.4867 26.8725 99.74C26.5925 99.9867 26.4258 100.323 26.3725 100.75H29.4225ZM31.3544 101.24C31.3544 100.673 31.4677 100.177 31.6944 99.75C31.9277 99.3167 32.2477 98.9833 32.6544 98.75C33.061 98.5167 33.5277 98.4 34.0544 98.4C34.721 98.4 35.271 98.56 35.7044 98.88C36.1444 99.1933 36.441 99.6433 36.5944 100.23H35.3644C35.2644 99.9567 35.1044 99.7433 34.8844 99.59C34.6644 99.4367 34.3877 99.36 34.0544 99.36C33.5877 99.36 33.2144 99.5267 32.9344 99.86C32.661 100.187 32.5244 100.647 32.5244 101.24C32.5244 101.833 32.661 102.297 32.9344 102.63C33.2144 102.963 33.5877 103.13 34.0544 103.13C34.7144 103.13 35.151 102.84 35.3644 102.26H36.5944C36.4344 102.82 36.1344 103.267 35.6944 103.6C35.2544 103.927 34.7077 104.09 34.0544 104.09C33.5277 104.09 33.061 103.973 32.6544 103.74C32.2477 103.5 31.9277 103.167 31.6944 102.74C31.4677 102.307 31.3544 101.807 31.3544 101.24ZM38.3105 97.76C38.1038 97.76 37.9305 97.69 37.7905 97.55C37.6505 97.41 37.5805 97.2367 37.5805 97.03C37.5805 96.8233 37.6505 96.65 37.7905 96.51C37.9305 96.37 38.1038 96.3 38.3105 96.3C38.5105 96.3 38.6805 96.37 38.8205 96.51C38.9605 96.65 39.0305 96.8233 39.0305 97.03C39.0305 97.2367 38.9605 97.41 38.8205 97.55C38.6805 97.69 38.5105 97.76 38.3105 97.76ZM38.8705 98.49V104H37.7305V98.49H38.8705ZM39.9872 101.22C39.9872 100.667 40.1005 100.177 40.3272 99.75C40.5605 99.3233 40.8739 98.9933 41.2672 98.76C41.6672 98.52 42.1072 98.4 42.5872 98.4C43.0205 98.4 43.3972 98.4867 43.7172 98.66C44.0439 98.8267 44.3039 99.0367 44.4972 99.29V98.49H45.6472V104H44.4972V103.18C44.3039 103.44 44.0405 103.657 43.7072 103.83C43.3739 104.003 42.9939 104.09 42.5672 104.09C42.0939 104.09 41.6605 103.97 41.2672 103.73C40.8739 103.483 40.5605 103.143 40.3272 102.71C40.1005 102.27 39.9872 101.773 39.9872 101.22ZM44.4972 101.24C44.4972 100.86 44.4172 100.53 44.2572 100.25C44.1039 99.97 43.9005 99.7567 43.6472 99.61C43.3939 99.4633 43.1205 99.39 42.8272 99.39C42.5339 99.39 42.2605 99.4633 42.0072 99.61C41.7539 99.75 41.5472 99.96 41.3872 100.24C41.2339 100.513 41.1572 100.84 41.1572 101.22C41.1572 101.6 41.2339 101.933 41.3872 102.22C41.5472 102.507 41.7539 102.727 42.0072 102.88C42.2672 103.027 42.5405 103.1 42.8272 103.1C43.1205 103.1 43.3939 103.027 43.6472 102.88C43.9005 102.733 44.1039 102.52 44.2572 102.24C44.4172 101.953 44.4972 101.62 44.4972 101.24ZM48.2845 96.6V104H47.1445V96.6H48.2845ZM51.9989 100.51C51.9989 99.83 52.1556 99.22 52.4689 98.68C52.7889 98.14 53.2189 97.72 53.7589 97.42C54.3056 97.1133 54.9022 96.96 55.5489 96.96C56.2889 96.96 56.9456 97.1433 57.5189 97.51C58.0989 97.87 58.5189 98.3833 58.7789 99.05H57.4089C57.2289 98.6833 56.9789 98.41 56.6589 98.23C56.3389 98.05 55.9689 97.96 55.5489 97.96C55.0889 97.96 54.6789 98.0633 54.3189 98.27C53.9589 98.4767 53.6756 98.7733 53.4689 99.16C53.2689 99.5467 53.1689 99.9967 53.1689 100.51C53.1689 101.023 53.2689 101.473 53.4689 101.86C53.6756 102.247 53.9589 102.547 54.3189 102.76C54.6789 102.967 55.0889 103.07 55.5489 103.07C55.9689 103.07 56.3389 102.98 56.6589 102.8C56.9789 102.62 57.2289 102.347 57.4089 101.98H58.7789C58.5189 102.647 58.0989 103.16 57.5189 103.52C56.9456 103.88 56.2889 104.06 55.5489 104.06C54.8956 104.06 54.2989 103.91 53.7589 103.61C53.2189 103.303 52.7889 102.88 52.4689 102.34C52.1556 101.8 51.9989 101.19 51.9989 100.51ZM62.5033 104.09C61.9833 104.09 61.5133 103.973 61.0933 103.74C60.6733 103.5 60.3433 103.167 60.1033 102.74C59.8633 102.307 59.7433 101.807 59.7433 101.24C59.7433 100.68 59.8666 100.183 60.1133 99.75C60.3599 99.3167 60.6966 98.9833 61.1233 98.75C61.5499 98.5167 62.0266 98.4 62.5533 98.4C63.0799 98.4 63.5566 98.5167 63.9833 98.75C64.4099 98.9833 64.7466 99.3167 64.9933 99.75C65.2399 100.183 65.3633 100.68 65.3633 101.24C65.3633 101.8 65.2366 102.297 64.9833 102.73C64.7299 103.163 64.3833 103.5 63.9433 103.74C63.5099 103.973 63.0299 104.09 62.5033 104.09ZM62.5033 103.1C62.7966 103.1 63.0699 103.03 63.3233 102.89C63.5833 102.75 63.7933 102.54 63.9533 102.26C64.1133 101.98 64.1933 101.64 64.1933 101.24C64.1933 100.84 64.1166 100.503 63.9633 100.23C63.8099 99.95 63.6066 99.74 63.3533 99.6C63.0999 99.46 62.8266 99.39 62.5333 99.39C62.2399 99.39 61.9666 99.46 61.7133 99.6C61.4666 99.74 61.2699 99.95 61.1233 100.23C60.9766 100.503 60.9033 100.84 60.9033 101.24C60.9033 101.833 61.0533 102.293 61.3533 102.62C61.6599 102.94 62.0433 103.1 62.5033 103.1ZM71.4802 98.49V104H70.3402V103.35C70.1602 103.577 69.9236 103.757 69.6302 103.89C69.3436 104.017 69.0369 104.08 68.7102 104.08C68.2769 104.08 67.8869 103.99 67.5402 103.81C67.2002 103.63 66.9302 103.363 66.7302 103.01C66.5369 102.657 66.4402 102.23 66.4402 101.73V98.49H67.5702V101.56C67.5702 102.053 67.6936 102.433 67.9402 102.7C68.1869 102.96 68.5236 103.09 68.9502 103.09C69.3769 103.09 69.7136 102.96 69.9602 102.7C70.2136 102.433 70.3402 102.053 70.3402 101.56V98.49H71.4802ZM74.1244 99.29C74.291 99.01 74.511 98.7933 74.7844 98.64C75.0644 98.48 75.3944 98.4 75.7744 98.4V99.58H75.4844C75.0377 99.58 74.6977 99.6933 74.4644 99.92C74.2377 100.147 74.1244 100.54 74.1244 101.1V104H72.9844V98.49H74.1244V99.29ZM78.1523 99.42V102.47C78.1523 102.677 78.1989 102.827 78.2923 102.92C78.3923 103.007 78.5589 103.05 78.7923 103.05H79.4923V104H78.5923C78.0789 104 77.6856 103.88 77.4123 103.64C77.1389 103.4 77.0023 103.01 77.0023 102.47V99.42H76.3523V98.49H77.0023V97.12H78.1523V98.49H79.4923V99.42H78.1523ZM82.543 104.09C82.1096 104.09 81.7196 104.013 81.373 103.86C81.033 103.7 80.763 103.487 80.563 103.22C80.363 102.947 80.2563 102.643 80.243 102.31H81.423C81.443 102.543 81.553 102.74 81.753 102.9C81.9596 103.053 82.2163 103.13 82.523 103.13C82.843 103.13 83.0896 103.07 83.263 102.95C83.443 102.823 83.533 102.663 83.533 102.47C83.533 102.263 83.433 102.11 83.233 102.01C83.0396 101.91 82.7296 101.8 82.303 101.68C81.8896 101.567 81.553 101.457 81.293 101.35C81.033 101.243 80.8063 101.08 80.613 100.86C80.4263 100.64 80.333 100.35 80.333 99.99C80.333 99.6967 80.4196 99.43 80.593 99.19C80.7663 98.9433 81.013 98.75 81.333 98.61C81.6596 98.47 82.033 98.4 82.453 98.4C83.0796 98.4 83.583 98.56 83.963 98.88C84.3496 99.1933 84.5563 99.6233 84.583 100.17H83.443C83.423 99.9233 83.323 99.7267 83.143 99.58C82.963 99.4333 82.7196 99.36 82.413 99.36C82.113 99.36 81.883 99.4167 81.723 99.53C81.563 99.6433 81.483 99.7933 81.483 99.98C81.483 100.127 81.5363 100.25 81.643 100.35C81.7496 100.45 81.8796 100.53 82.033 100.59C82.1863 100.643 82.413 100.713 82.713 100.8C83.113 100.907 83.4396 101.017 83.693 101.13C83.953 101.237 84.1763 101.397 84.363 101.61C84.5496 101.823 84.6463 102.107 84.653 102.46C84.653 102.773 84.5663 103.053 84.393 103.3C84.2196 103.547 83.973 103.74 83.653 103.88C83.3396 104.02 82.9696 104.09 82.543 104.09Z" fill="#151513"/>
<defs>
<clipPath id="clip0_4235_30519">
<rect width="90" height="90" fill="white" transform="translate(0 0.488281)"/>
</clipPath>
<clipPath id="clip1_4235_30519">
<rect width="50.0068" height="50" fill="white" transform="translate(20 20.3911)"/>
</clipPath>
</defs>
</svg>
