<svg width="91" height="114" viewBox="0 0 91 114" fill="none" xmlns="http://www.w3.org/2000/svg">
<g clip-path="url(#clip0_4235_30515)">
<circle cx="45.5" cy="45.4883" r="45" fill="white"/>
<g clip-path="url(#clip1_4235_30515)">
<path d="M45.5048 20.4923C45.8279 20.463 46.1071 20.5988 46.3824 20.7375C54.0747 24.5995 61.766 28.4625 69.4564 32.3284C70.4999 32.8529 70.7937 33.7984 70.1875 34.6423C69.8917 35.0535 69.4778 35.2332 68.9712 35.2322C67.5245 35.2293 66.0778 35.2342 64.6311 35.2361C64.4427 35.4002 64.2113 35.3953 63.9849 35.3953C58.0243 35.3982 52.0637 35.3992 46.1032 35.3953C45.9245 35.3953 45.7449 35.3924 45.576 35.3211C45.5155 35.2918 45.4677 35.2478 45.4306 35.1922C45.3164 34.9646 45.3339 34.7184 45.3339 34.4762C45.332 30.077 45.332 25.6788 45.3339 21.2796C45.3339 21.008 45.292 20.7209 45.5038 20.4923H45.5048Z" fill="#FEA132"/>
<path d="M45.5045 20.4923C45.5026 25.4053 45.5016 30.3173 45.4996 35.2302C45.32 35.4158 45.0828 35.3953 44.8593 35.3953C38.9114 35.4002 32.9635 35.4002 27.0166 35.3953C26.7901 35.3953 26.5578 35.4002 26.3714 35.2322C24.9413 35.2322 23.5102 35.198 22.082 35.2449C21.4719 35.2654 20.7124 34.7135 20.5348 34.0503C20.3796 33.4721 20.7495 32.7767 21.3909 32.4514C22.6199 31.8273 23.8548 31.211 25.0809 30.582C28.9387 28.6021 32.8337 26.6955 36.7042 24.7411C39.3292 23.4157 41.961 22.1059 44.5908 20.7912C44.8798 20.6466 45.1658 20.4864 45.5045 20.4913V20.4923Z" fill="#FEC771"/>
<path d="M26.3716 58.7607C26.3716 52.871 26.3716 46.9813 26.3716 41.0916C26.5356 40.9177 26.7542 40.9265 26.9631 40.9265C29.5471 40.9197 32.1311 40.9197 34.714 40.9265C34.9093 40.9265 35.1065 40.9343 35.2724 41.0603C35.4374 41.2693 35.4179 41.5184 35.4179 41.7597C35.4218 47.1971 35.4208 52.6356 35.4179 58.0731C35.4179 58.3143 35.4374 58.5634 35.2851 58.7783C35.0781 58.9463 34.8292 58.9277 34.5881 58.9287C32.0774 58.9326 29.5666 58.9336 27.0569 58.9287C26.8187 58.9287 26.5649 58.959 26.3706 58.7617L26.3716 58.7607Z" fill="#FEC771"/>
<path d="M64.6319 41.0946C64.6319 46.9824 64.6319 52.8702 64.6319 58.7579C64.4542 58.9474 64.217 58.9269 63.9934 58.9269C61.4407 58.9318 58.888 58.9327 56.3353 58.9269C56.1244 58.9269 55.9097 58.9279 55.7271 58.7921C55.5622 58.5831 55.5807 58.334 55.5807 58.0928C55.5768 52.6543 55.5778 47.2168 55.5807 41.7784C55.5807 41.5371 55.5612 41.288 55.7135 41.0732C55.9204 40.9061 56.1693 40.9237 56.4105 40.9237C58.9222 40.9198 61.4339 40.9188 63.9456 40.9237C64.1838 40.9237 64.4386 40.8934 64.6309 41.0937L64.6319 41.0946Z" fill="#613426"/>
<path d="M67.4559 64.6222C67.944 64.6222 68.4321 64.6163 68.9192 64.6232C69.7909 64.6359 70.3756 65.2258 70.3825 66.1049C70.3893 67.065 70.3893 68.0251 70.3825 68.9853C70.3766 69.8389 69.7284 70.4787 68.8645 70.4787C61.2054 70.4806 53.5453 70.4767 45.8862 70.4875C45.4986 70.4875 45.3874 70.3761 45.3922 69.9913C45.4108 68.2019 45.401 66.4116 45.401 64.6222C45.6773 64.3761 46.018 64.4571 46.3343 64.4571C52.4774 64.4522 58.6214 64.4532 64.7646 64.4532C65.4469 64.4532 66.1302 64.4493 66.8126 64.4552C67.0391 64.4571 67.2714 64.4503 67.4569 64.6212L67.4559 64.6222Z" fill="#FEA132"/>
<path d="M23.5338 70.3116C23.0457 70.3116 22.5576 70.3174 22.0705 70.3106C21.1987 70.2979 20.614 69.708 20.6072 68.8289C20.6003 67.8688 20.6003 66.9086 20.6072 65.9485C20.613 65.0948 21.2612 64.4551 22.1251 64.4551C29.7843 64.4531 37.4443 64.457 45.1035 64.4463C45.491 64.4463 45.6023 64.5576 45.5974 64.9425C45.5789 66.7318 45.5886 68.5222 45.5886 70.3116C45.3124 70.5577 44.9717 70.4766 44.6554 70.4766C38.5123 70.4815 32.3682 70.4806 26.2251 70.4806C25.5427 70.4806 24.8594 70.4845 24.1771 70.4786C23.9506 70.4766 23.7183 70.4835 23.5328 70.3126L23.5338 70.3116Z" fill="#FEC771"/>
<path d="M67.5535 64.6223C60.2018 64.6223 52.8502 64.6223 45.4986 64.6223C45.3424 64.4523 45.3366 64.2394 45.3366 64.0284C45.3317 62.4735 45.3307 60.9185 45.3366 59.3635C45.3366 59.1535 45.3366 58.9396 45.4752 58.7599C45.6304 58.6163 45.8266 58.6036 46.0199 58.6036C47.3094 58.6027 48.599 58.5763 49.8885 58.6154C51.6729 58.5773 53.4584 58.6007 55.2428 58.6027C55.4225 58.6027 55.6011 58.6242 55.7417 58.757C58.7054 58.757 61.6681 58.757 64.6318 58.757C65.1189 58.7589 65.605 58.757 66.0911 58.7638C66.9648 58.7765 67.5476 59.3587 67.5525 60.2397C67.5593 61.6999 67.5544 63.1611 67.5544 64.6213L67.5535 64.6223Z" fill="#FEC771"/>
<path d="M45.5038 58.7668C45.5028 60.7193 45.5009 62.6708 45.4999 64.6233C38.3503 64.6233 31.2018 64.6174 24.0522 64.635C23.5534 64.636 23.4187 64.5061 23.4343 64.0118C23.4714 62.8095 23.446 61.6061 23.446 60.4028C23.446 59.3284 24.0181 58.7648 25.1055 58.7629C25.5282 58.7629 25.9509 58.7619 26.3726 58.7609C29.3334 58.7609 32.2941 58.7609 35.2549 58.7609C35.3954 58.63 35.5721 58.6037 35.7517 58.6037C37.5313 58.6017 39.3099 58.5763 41.0895 58.6154C42.382 58.5831 43.6744 58.6046 44.9669 58.6037C45.1289 58.6037 45.291 58.6134 45.4364 58.6984C45.4589 58.7209 45.4813 58.7433 45.5038 58.7658V58.7668Z" fill="#FEE4AB"/>
<path d="M64.6321 41.0946C61.6684 41.0946 58.7057 41.0946 55.742 41.0946C55.6015 41.2275 55.4238 41.249 55.2442 41.249C53.4627 41.2499 51.6821 41.2763 49.9006 41.2372C48.6071 41.2734 47.3137 41.2499 46.0203 41.249C45.8426 41.249 45.663 41.2353 45.5097 41.1249C45.4336 41.0575 45.3809 40.9686 45.377 40.8719C45.3399 39.9851 45.2627 39.0962 45.4209 38.2113C45.4531 38.1527 45.5 38.1088 45.5585 38.0765C45.7899 37.9749 46.0369 37.9935 46.2789 37.9935C52.1321 37.9915 57.9853 37.9915 63.8385 37.9935C64.1118 37.9935 64.3969 37.9564 64.6321 38.1537C65.1349 38.1556 65.6386 38.1488 66.1413 38.1615C66.9545 38.182 67.5636 38.8306 67.5538 39.6481C67.5441 40.4383 66.933 41.0663 66.1403 41.0858C65.6376 41.0985 65.1339 41.0917 64.6312 41.0937L64.6321 41.0946Z" fill="#FEA132"/>
<path d="M45.4998 38.1607C45.5008 39.1355 45.5017 40.1112 45.5027 41.086C45.4803 41.1085 45.4568 41.1299 45.4344 41.1524C45.2889 41.2384 45.1269 41.2481 44.9658 41.2481C43.6753 41.2472 42.3848 41.2706 41.0952 41.2374C39.3137 41.2765 37.5322 41.252 35.7507 41.2501C35.5701 41.2501 35.3943 41.2237 35.2528 41.0928C32.292 41.0928 29.3313 41.0928 26.3705 41.0928C25.8844 41.0928 25.3982 41.0967 24.9121 41.0889C24.0931 41.0772 23.4351 40.4091 23.4439 39.6053C23.4517 38.8502 24.137 38.1734 24.9121 38.1617C25.3982 38.1548 25.8844 38.1587 26.3705 38.1577C26.557 37.9888 26.7883 37.9946 27.0158 37.9946C32.9637 37.9907 38.9115 37.9907 44.8584 37.9946C45.0829 37.9946 45.3192 37.9741 45.4988 38.1597L45.4998 38.1607Z" fill="#FEC771"/>
<path d="M45.4999 38.1607C39.1234 38.1607 32.747 38.1587 26.3706 38.1577C26.3706 37.183 26.3706 36.2082 26.3706 35.2324C32.747 35.2324 39.1234 35.2305 45.4989 35.2295C45.6024 35.3428 45.6463 35.4795 45.6512 35.629C45.6717 36.34 45.6717 37.0501 45.6512 37.7612C45.6473 37.9097 45.6024 38.0474 45.4989 38.1607H45.4999Z" fill="#FEE4AB"/>
<path d="M45.5 38.1607C45.5 37.1839 45.5 36.2072 45.5 35.2305C51.8774 35.2324 58.2548 35.2344 64.6322 35.2363C64.6322 36.2092 64.6322 37.182 64.6322 38.1548C58.2548 38.1568 51.8774 38.1587 45.5 38.1607Z" fill="#FEC771"/>
<path d="M35.2539 41.0918C37.2053 41.0918 39.1567 41.0918 41.1071 41.0918C41.2789 41.2764 41.273 41.5089 41.273 41.7355C41.2769 47.1964 41.2769 52.6563 41.273 58.1172C41.273 58.3439 41.2789 58.5763 41.1071 58.7609C39.1557 58.7609 37.2043 58.7609 35.2539 58.7609C35.2539 52.8712 35.2539 46.9815 35.2539 41.0918Z" fill="#764A55"/>
<path d="M49.8964 41.0947C51.8449 41.0947 53.7933 41.0947 55.7418 41.0947C55.7418 46.9825 55.7418 52.8702 55.7418 58.757C53.7933 58.757 51.8449 58.757 49.8964 58.757C49.7207 58.5753 49.7266 58.3419 49.7266 58.1153C49.7227 52.6554 49.7227 47.1954 49.7266 41.7355C49.7266 41.5089 49.7207 41.2764 49.8964 41.0938V41.0947Z" fill="#FEA132"/>
<path d="M49.8967 41.0947C49.8967 46.9825 49.8967 52.8702 49.8967 58.758C48.4324 58.7609 46.9681 58.7638 45.5038 58.7668L45.497 58.7599C45.3262 58.5744 45.335 58.3419 45.335 58.1153C45.3311 52.6563 45.3311 47.1964 45.335 41.7374C45.335 41.5108 45.3262 41.2784 45.497 41.0928L45.5038 41.0859C46.9681 41.0889 48.4324 41.0918 49.8967 41.0947Z" fill="#613426"/>
<path d="M45.4968 41.0928C45.4968 46.9815 45.4968 52.8712 45.4968 58.7599C44.0335 58.7599 42.5702 58.7599 41.1079 58.7599C41.1079 52.8702 41.1079 46.9805 41.1079 41.0908C42.5712 41.0908 44.0345 41.0908 45.4968 41.0908V41.0928Z" fill="#FEC771"/>
</g>
</g>
<path d="M10.04 111.07C9.57333 111.07 9.15333 110.99 8.78 110.83C8.40667 110.663 8.11333 110.43 7.9 110.13C7.68667 109.83 7.58 109.48 7.58 109.08H8.8C8.82667 109.38 8.94333 109.627 9.15 109.82C9.36333 110.013 9.66 110.11 10.04 110.11C10.4333 110.11 10.74 110.017 10.96 109.83C11.18 109.637 11.29 109.39 11.29 109.09C11.29 108.857 11.22 108.667 11.08 108.52C10.9467 108.373 10.7767 108.26 10.57 108.18C10.37 108.1 10.09 108.013 9.73 107.92C9.27667 107.8 8.90667 107.68 8.62 107.56C8.34 107.433 8.1 107.24 7.9 106.98C7.7 106.72 7.6 106.373 7.6 105.94C7.6 105.54 7.7 105.19 7.9 104.89C8.1 104.59 8.38 104.36 8.74 104.2C9.1 104.04 9.51667 103.96 9.99 103.96C10.6633 103.96 11.2133 104.13 11.64 104.47C12.0733 104.803 12.3133 105.263 12.36 105.85H11.1C11.08 105.597 10.96 105.38 10.74 105.2C10.52 105.02 10.23 104.93 9.87 104.93C9.54333 104.93 9.27667 105.013 9.07 105.18C8.86333 105.347 8.76 105.587 8.76 105.9C8.76 106.113 8.82333 106.29 8.95 106.43C9.08333 106.563 9.25 106.67 9.45 106.75C9.65 106.83 9.92333 106.917 10.27 107.01C10.73 107.137 11.1033 107.263 11.39 107.39C11.6833 107.517 11.93 107.713 12.13 107.98C12.3367 108.24 12.44 108.59 12.44 109.03C12.44 109.383 12.3433 109.717 12.15 110.03C11.9633 110.343 11.6867 110.597 11.32 110.79C10.96 110.977 10.5333 111.07 10.04 111.07ZM18.7752 105.49V111H17.6352V110.35C17.4552 110.577 17.2185 110.757 16.9252 110.89C16.6385 111.017 16.3318 111.08 16.0052 111.08C15.5718 111.08 15.1818 110.99 14.8352 110.81C14.4952 110.63 14.2252 110.363 14.0252 110.01C13.8318 109.657 13.7352 109.23 13.7352 108.73V105.49H14.8652V108.56C14.8652 109.053 14.9885 109.433 15.2352 109.7C15.4818 109.96 15.8185 110.09 16.2452 110.09C16.6718 110.09 17.0085 109.96 17.2552 109.7C17.5085 109.433 17.6352 109.053 17.6352 108.56V105.49H18.7752ZM21.4193 106.3C21.6126 106.047 21.876 105.833 22.2093 105.66C22.5426 105.487 22.9193 105.4 23.3393 105.4C23.8193 105.4 24.256 105.52 24.6493 105.76C25.0493 105.993 25.3626 106.323 25.5893 106.75C25.816 107.177 25.9293 107.667 25.9293 108.22C25.9293 108.773 25.816 109.27 25.5893 109.71C25.3626 110.143 25.0493 110.483 24.6493 110.73C24.256 110.97 23.8193 111.09 23.3393 111.09C22.9193 111.09 22.546 111.007 22.2193 110.84C21.8926 110.667 21.626 110.453 21.4193 110.2V113.62H20.2793V105.49H21.4193V106.3ZM24.7693 108.22C24.7693 107.84 24.6893 107.513 24.5293 107.24C24.376 106.96 24.1693 106.75 23.9093 106.61C23.656 106.463 23.3826 106.39 23.0893 106.39C22.8026 106.39 22.5293 106.463 22.2693 106.61C22.016 106.757 21.8093 106.97 21.6493 107.25C21.496 107.53 21.4193 107.86 21.4193 108.24C21.4193 108.62 21.496 108.953 21.6493 109.24C21.8093 109.52 22.016 109.733 22.2693 109.88C22.5293 110.027 22.8026 110.1 23.0893 110.1C23.3826 110.1 23.656 110.027 23.9093 109.88C24.1693 109.727 24.376 109.507 24.5293 109.22C24.6893 108.933 24.7693 108.6 24.7693 108.22ZM28.1966 106.29C28.3633 106.01 28.5833 105.793 28.8566 105.64C29.1366 105.48 29.4666 105.4 29.8466 105.4V106.58H29.5566C29.11 106.58 28.77 106.693 28.5366 106.92C28.31 107.147 28.1966 107.54 28.1966 108.1V111H27.0566V105.49H28.1966V106.29ZM35.9445 108.11C35.9445 108.317 35.9312 108.503 35.9045 108.67H31.6945C31.7279 109.11 31.8912 109.463 32.1845 109.73C32.4779 109.997 32.8379 110.13 33.2645 110.13C33.8779 110.13 34.3112 109.873 34.5645 109.36H35.7945C35.6279 109.867 35.3245 110.283 34.8845 110.61C34.4512 110.93 33.9112 111.09 33.2645 111.09C32.7379 111.09 32.2645 110.973 31.8445 110.74C31.4312 110.5 31.1045 110.167 30.8645 109.74C30.6312 109.307 30.5145 108.807 30.5145 108.24C30.5145 107.673 30.6279 107.177 30.8545 106.75C31.0879 106.317 31.4112 105.983 31.8245 105.75C32.2445 105.517 32.7245 105.4 33.2645 105.4C33.7845 105.4 34.2479 105.513 34.6545 105.74C35.0612 105.967 35.3779 106.287 35.6045 106.7C35.8312 107.107 35.9445 107.577 35.9445 108.11ZM34.7545 107.75C34.7479 107.33 34.5979 106.993 34.3045 106.74C34.0112 106.487 33.6479 106.36 33.2145 106.36C32.8212 106.36 32.4845 106.487 32.2045 106.74C31.9245 106.987 31.7579 107.323 31.7045 107.75H34.7545ZM43.7364 105.4C44.1697 105.4 44.5564 105.49 44.8964 105.67C45.2431 105.85 45.5131 106.117 45.7064 106.47C45.9064 106.823 46.0064 107.25 46.0064 107.75V111H44.8764V107.92C44.8764 107.427 44.7531 107.05 44.5064 106.79C44.2597 106.523 43.9231 106.39 43.4964 106.39C43.0697 106.39 42.7297 106.523 42.4764 106.79C42.2297 107.05 42.1064 107.427 42.1064 107.92V111H40.9764V107.92C40.9764 107.427 40.8531 107.05 40.6064 106.79C40.3597 106.523 40.0231 106.39 39.5964 106.39C39.1697 106.39 38.8297 106.523 38.5764 106.79C38.3297 107.05 38.2064 107.427 38.2064 107.92V111H37.0664V105.49H38.2064V106.12C38.3931 105.893 38.6297 105.717 38.9164 105.59C39.2031 105.463 39.5097 105.4 39.8364 105.4C40.2764 105.4 40.6697 105.493 41.0164 105.68C41.3631 105.867 41.6297 106.137 41.8164 106.49C41.9831 106.157 42.2431 105.893 42.5964 105.7C42.9497 105.5 43.3297 105.4 43.7364 105.4ZM52.507 108.11C52.507 108.317 52.4937 108.503 52.467 108.67H48.257C48.2904 109.11 48.4537 109.463 48.747 109.73C49.0404 109.997 49.4004 110.13 49.827 110.13C50.4404 110.13 50.8737 109.873 51.127 109.36H52.357C52.1904 109.867 51.887 110.283 51.447 110.61C51.0137 110.93 50.4737 111.09 49.827 111.09C49.3004 111.09 48.827 110.973 48.407 110.74C47.9937 110.5 47.667 110.167 47.427 109.74C47.1937 109.307 47.077 108.807 47.077 108.24C47.077 107.673 47.1904 107.177 47.417 106.75C47.6504 106.317 47.9737 105.983 48.387 105.75C48.807 105.517 49.287 105.4 49.827 105.4C50.347 105.4 50.8104 105.513 51.217 105.74C51.6237 105.967 51.9404 106.287 52.167 106.7C52.3937 107.107 52.507 107.577 52.507 108.11ZM51.317 107.75C51.3104 107.33 51.1604 106.993 50.867 106.74C50.5737 106.487 50.2104 106.36 49.777 106.36C49.3837 106.36 49.047 106.487 48.767 106.74C48.487 106.987 48.3204 107.323 48.267 107.75H51.317ZM55.8466 107.51C55.8466 106.83 56.0032 106.22 56.3166 105.68C56.6366 105.14 57.0666 104.72 57.6066 104.42C58.1532 104.113 58.7499 103.96 59.3966 103.96C60.1366 103.96 60.7932 104.143 61.3666 104.51C61.9466 104.87 62.3666 105.383 62.6266 106.05H61.2566C61.0766 105.683 60.8266 105.41 60.5066 105.23C60.1866 105.05 59.8166 104.96 59.3966 104.96C58.9366 104.96 58.5266 105.063 58.1666 105.27C57.8066 105.477 57.5232 105.773 57.3166 106.16C57.1166 106.547 57.0166 106.997 57.0166 107.51C57.0166 108.023 57.1166 108.473 57.3166 108.86C57.5232 109.247 57.8066 109.547 58.1666 109.76C58.5266 109.967 58.9366 110.07 59.3966 110.07C59.8166 110.07 60.1866 109.98 60.5066 109.8C60.8266 109.62 61.0766 109.347 61.2566 108.98H62.6266C62.3666 109.647 61.9466 110.16 61.3666 110.52C60.7932 110.88 60.1366 111.06 59.3966 111.06C58.7432 111.06 58.1466 110.91 57.6066 110.61C57.0666 110.303 56.6366 109.88 56.3166 109.34C56.0032 108.8 55.8466 108.19 55.8466 107.51ZM66.3509 111.09C65.8309 111.09 65.3609 110.973 64.9409 110.74C64.5209 110.5 64.1909 110.167 63.9509 109.74C63.7109 109.307 63.5909 108.807 63.5909 108.24C63.5909 107.68 63.7143 107.183 63.9609 106.75C64.2076 106.317 64.5443 105.983 64.9709 105.75C65.3976 105.517 65.8743 105.4 66.4009 105.4C66.9276 105.4 67.4043 105.517 67.8309 105.75C68.2576 105.983 68.5943 106.317 68.8409 106.75C69.0876 107.183 69.2109 107.68 69.2109 108.24C69.2109 108.8 69.0843 109.297 68.8309 109.73C68.5776 110.163 68.2309 110.5 67.7909 110.74C67.3576 110.973 66.8776 111.09 66.3509 111.09ZM66.3509 110.1C66.6443 110.1 66.9176 110.03 67.1709 109.89C67.4309 109.75 67.6409 109.54 67.8009 109.26C67.9609 108.98 68.0409 108.64 68.0409 108.24C68.0409 107.84 67.9643 107.503 67.8109 107.23C67.6576 106.95 67.4543 106.74 67.2009 106.6C66.9476 106.46 66.6743 106.39 66.3809 106.39C66.0876 106.39 65.8143 106.46 65.5609 106.6C65.3143 106.74 65.1176 106.95 64.9709 107.23C64.8243 107.503 64.7509 107.84 64.7509 108.24C64.7509 108.833 64.9009 109.293 65.2009 109.62C65.5076 109.94 65.8909 110.1 66.3509 110.1ZM75.3279 105.49V111H74.1879V110.35C74.0079 110.577 73.7712 110.757 73.4779 110.89C73.1912 111.017 72.8846 111.08 72.5579 111.08C72.1246 111.08 71.7346 110.99 71.3879 110.81C71.0479 110.63 70.7779 110.363 70.5779 110.01C70.3846 109.657 70.2879 109.23 70.2879 108.73V105.49H71.4179V108.56C71.4179 109.053 71.5412 109.433 71.7879 109.7C72.0346 109.96 72.3712 110.09 72.7979 110.09C73.2246 110.09 73.5612 109.96 73.8079 109.7C74.0612 109.433 74.1879 109.053 74.1879 108.56V105.49H75.3279ZM77.972 106.29C78.1387 106.01 78.3587 105.793 78.632 105.64C78.912 105.48 79.242 105.4 79.622 105.4V106.58H79.332C78.8854 106.58 78.5454 106.693 78.312 106.92C78.0854 107.147 77.972 107.54 77.972 108.1V111H76.832V105.49H77.972V106.29ZM81.9999 106.42V109.47C81.9999 109.677 82.0466 109.827 82.1399 109.92C82.2399 110.007 82.4066 110.05 82.6399 110.05H83.3399V111H82.4399C81.9266 111 81.5333 110.88 81.2599 110.64C80.9866 110.4 80.8499 110.01 80.8499 109.47V106.42H80.1999V105.49H80.8499V104.12H81.9999V105.49H83.3399V106.42H81.9999Z" fill="#151513"/>
<defs>
<clipPath id="clip0_4235_30515">
<rect width="90" height="90" fill="white" transform="translate(0.5 0.488281)"/>
</clipPath>
<clipPath id="clip1_4235_30515">
<rect width="50" height="50" fill="white" transform="translate(20.5 20.4883)"/>
</clipPath>
</defs>
</svg>
